<?xml version="1.0" standalone="no"?>
<!DOCTYPE svg PUBLIC "-//W3C//DTD SVG 1.1//EN" "http://www.w3.org/Graphics/SVG/1.1/DTD/svg11.dtd" >
<svg>
<metadata>
Created by FontForge 20120731 at Wed Dec 30 01:00:12 2015
 By ,,,
Digitized data copyright (c) 2012-2015, The Mozilla Foundation and Telefonica S.A.
</metadata>
<defs>
<font id="FiraSans-Hair" horiz-adv-x="560" >
  <font-face 
    font-family="Fira Sans Hair"
    font-weight="100"
    font-stretch="normal"
    units-per-em="1000"
    panose-1="2 11 2 3 5 0 0 2 0 4"
    ascent="800"
    descent="-200"
    x-height="518"
    cap-height="681"
    bbox="-722 -350 1360 1050"
    underline-thickness="50"
    underline-position="-50"
    unicode-range="U+000D-1F310"
  />
<missing-glyph horiz-adv-x="666" 
d="M543 1050v-1400h-420v1400h420zM519 1027h-371v-1354h371v1354zM324 451q111 0 111 -115q0 -104 -95 -118v-45q0 -11 -7.5 -17.5t-17.5 -6.5t-17.5 6.5t-7.5 17.5v84q53 3 72 19.5t19 57.5q0 33 -13 51t-48 18q-29 0 -52 -11q-7 -3 -13 -3q-24 0 -24 23q0 19 29.5 29
t63.5 10zM315 120q15 0 25 -10t10 -25q0 -16 -10 -26.5t-25 -10.5t-25 10.5t-10 26.5q0 15 10 25t25 10z" />
    <glyph glyph-name="fi" unicode="fi" horiz-adv-x="545" 
d="M248 735q68 0 135 -36l-6 -12q-66 35 -129 35q-55 0 -83 -26t-28 -84v-94h287v-518h-14v506h-273v-506h-14v506h-90v12h90v96q0 121 125 121z" />
    <glyph glyph-name="fl" unicode="fl" horiz-adv-x="571" 
d="M519 12l4 -12q-19 -9 -45 -9q-67 0 -67 79v623q-84 29 -157 29q-117 0 -117 -106v-98h149l-2 -12h-147v-506h-14v506h-90v12h90v100q0 56 34 86.5t95 30.5q73 0 160 -29l13 2v-638q0 -66 55 -66q20 0 39 8z" />
    <glyph glyph-name=".notdef" horiz-adv-x="666" 
d="M543 1050v-1400h-420v1400h420zM519 1027h-371v-1354h371v1354zM324 451q111 0 111 -115q0 -104 -95 -118v-45q0 -11 -7.5 -17.5t-17.5 -6.5t-17.5 6.5t-7.5 17.5v84q53 3 72 19.5t19 57.5q0 33 -13 51t-48 18q-29 0 -52 -11q-7 -3 -13 -3q-24 0 -24 23q0 19 29.5 29
t63.5 10zM315 120q15 0 25 -10t10 -25q0 -16 -10 -26.5t-25 -10.5t-25 10.5t-10 26.5q0 15 10 25t25 10z" />
    <glyph glyph-name=".null" horiz-adv-x="0" 
 />
    <glyph glyph-name="nonmarkingreturn" horiz-adv-x="333" 
 />
    <glyph glyph-name="CR" unicode="&#xd;" horiz-adv-x="301" 
 />
    <glyph glyph-name="space" unicode=" " horiz-adv-x="301" 
 />
    <glyph glyph-name="exclam" unicode="!" horiz-adv-x="237" 
d="M125 681v-484h-14v484h14zM118 27q17 0 17 -17q0 -16 -17 -16t-17 16q0 17 17 17z" />
    <glyph glyph-name="quotedbl" unicode="&#x22;" horiz-adv-x="323" 
d="M224 443l-2 238h15l-2 -238h-11zM87 443l-1 238h15l-2 -238h-12z" />
    <glyph glyph-name="numbersign" unicode="#" horiz-adv-x="484" 
d="M469 462h-84l-32 -243h79v-14h-81l-27 -205h-16l28 205h-219l-27 -205h-15l27 205h-87v14h89l32 243h-84v13h86l24 187h16l-25 -187h218l25 187h16l-25 -187h82v-13zM337 219l32 243h-218l-32 -243h218z" />
    <glyph glyph-name="dollar" unicode="$" horiz-adv-x="525" 
d="M451 175q0 -80 -51.5 -130.5t-136.5 -53.5v-136h-13v136q-109 0 -191 77l8 10q79 -74 185 -74q83 0 134 47t51 124q0 72 -39.5 108.5t-136.5 67.5q-102 33 -140.5 68.5t-38.5 99.5q0 65 47 107.5t124 43.5v139h13v-139q93 -2 163 -66l-9 -10q-68 63 -164 63
q-72 0 -116 -39t-44 -99t36.5 -92t133.5 -63q101 -33 143 -72.5t42 -116.5z" />
    <glyph glyph-name="percent" unicode="%" horiz-adv-x="754" 
d="M604 693l12 -7l-460 -699l-11 7zM196 672q60 0 95.5 -41t35.5 -112t-34.5 -113.5t-96.5 -42.5q-60 0 -95 41.5t-35 111.5q0 72 34.5 114t95.5 42zM196 659q-56 0 -86 -38.5t-30 -104.5q0 -63 30.5 -102t85.5 -39q56 0 86 39.5t30 104.5q0 64 -30 102t-86 38zM558 299
q60 0 95 -40.5t35 -111.5t-34.5 -113.5t-95.5 -42.5q-60 0 -95.5 41.5t-35.5 111.5q0 72 34.5 113.5t96.5 41.5zM558 287q-56 0 -86 -38.5t-30 -104.5q0 -63 30.5 -102t85.5 -39q56 0 86 39.5t30 104.5q0 64 -30.5 102t-85.5 38z" />
    <glyph glyph-name="ampersand" unicode="&#x26;" horiz-adv-x="731" 
d="M303 691q64 0 104.5 -40t40.5 -102q0 -58 -38.5 -97.5t-128.5 -90.5l245 -231q46 93 72 221l13 -4q-26 -133 -76 -226l126 -118l-12 -8l-121 115q-80 -119 -224 -119q-84 0 -139 48t-55 123q0 67 36.5 113.5t112.5 88.5q-60 57 -82.5 93.5t-22.5 88.5q-1 62 42 103.5
t107 41.5zM303 679q-59 0 -97 -38t-38 -95q1 -48 20.5 -82t82.5 -94q87 48 124.5 86t37.5 93q0 58 -36.5 94t-93.5 36zM269 355q-74 -41 -109.5 -85.5t-35.5 -107.5q0 -69 50.5 -113.5t129.5 -44.5q136 0 214 114z" />
    <glyph glyph-name="quotesingle" unicode="'" horiz-adv-x="186" 
d="M87 443l-1 238h15l-2 -238h-12z" />
    <glyph glyph-name="parenleft" unicode="(" horiz-adv-x="327" 
d="M244 828l9 -6q-42 -62 -64.5 -100.5t-49.5 -98t-39 -126.5t-12 -147t12 -147t39 -126.5t49.5 -98t64.5 -100.5l-9 -6q-44 63 -67.5 102t-51 99t-39.5 127.5t-12 149.5t12 149.5t39.5 127.5t51 99t67.5 102z" />
    <glyph glyph-name="parenright" unicode=")" horiz-adv-x="327" 
d="M83 828q44 -63 67.5 -102t51 -99t39.5 -127.5t12 -149.5t-12 -149.5t-39.5 -127.5t-51 -99t-67.5 -102l-9 6q42 62 64.5 100.5t49.5 98t39 126.5t12 147t-12 147t-39 126.5t-49.5 98t-64.5 100.5z" />
    <glyph glyph-name="asterisk" unicode="*" horiz-adv-x="430" 
d="M377 608l-152 -48l94 -128l-12 -9l-92 130l-92 -130l-12 9l95 128l-152 48l4 12l151 -50l-1 160h14l-1 -160l151 50z" />
    <glyph glyph-name="plus" unicode="+" horiz-adv-x="482" 
d="M249 493v-155h153v-14h-153v-155h-15v155h-153v14h153v155h15z" />
    <glyph glyph-name="comma" unicode="," horiz-adv-x="146" 
d="M73 27q7 0 12 -5t5 -12t-7 -23l-40 -109h-12l36 117q-11 3 -11 15q0 7 5 12t12 5z" />
    <glyph glyph-name="hyphen" unicode="-" horiz-adv-x="400" 
d="M81 306v13h238v-13h-238z" />
    <glyph glyph-name="period" unicode="." horiz-adv-x="146" 
d="M73 27q7 0 12 -5t5 -12t-5 -12t-12 -5t-12 5t-5 12t5 12t12 5z" />
    <glyph glyph-name="slash" unicode="/" horiz-adv-x="520" 
d="M369 796l13 -3l-232 -887l-13 4z" />
    <glyph glyph-name="zero" unicode="0" horiz-adv-x="539" 
d="M270 672q191 0 191 -341q0 -340 -191 -340q-192 0 -192 340q0 341 192 341zM270 659q-178 0 -178 -328q0 -327 178 -327q177 0 177 327q0 328 -177 328z" />
    <glyph glyph-name="one" unicode="1" horiz-adv-x="390" 
d="M254 661v-661h-14v644l-177 -113l-7 12l187 118h11z" />
    <glyph glyph-name="two" unicode="2" horiz-adv-x="464" 
d="M221 672q77 0 122 -47t45 -118q0 -40 -10.5 -76t-26 -68t-58.5 -85.5t-81 -98t-121 -137.5q-16 -18 -25 -28h334l-2 -14h-350v14q82 92 116 130t82.5 95.5t64 82.5t35 61.5t24 62.5t4.5 59q0 67 -41.5 110.5t-112.5 43.5q-94 0 -162 -84l-11 8q75 89 174 89z" />
    <glyph glyph-name="three" unicode="3" horiz-adv-x="472" 
d="M216 672q76 0 120.5 -44.5t44.5 -115.5q0 -72 -40 -112.5t-100 -46.5q69 -2 113.5 -47t44.5 -126q0 -84 -52 -136.5t-137 -52.5q-58 0 -100 19.5t-79 61.5l10 8q36 -41 75.5 -58.5t92.5 -17.5q81 0 128.5 49t47.5 127q0 81 -46.5 123.5t-126.5 42.5h-36l2 13h34
q64 0 109.5 39t45.5 114q0 66 -41 106.5t-110 40.5q-89 0 -158 -68l-9 9q71 72 167 72z" />
    <glyph glyph-name="four" unicode="4" horiz-adv-x="499" 
d="M459 204v-14h-94v-190h-14v190h-298v13l207 469l12 -6l-204 -462h283l2 214h12v-214h94z" />
    <glyph glyph-name="five" unicode="5" horiz-adv-x="472" 
d="M388 661l-3 -13h-282v-278q56 42 127 42q84 0 131.5 -53t47.5 -146q0 -99 -51.5 -160.5t-142.5 -61.5q-104 0 -169 73l10 9q61 -69 159 -69q84 0 131.5 57.5t47.5 151.5q0 89 -44 137.5t-121 48.5q-67 0 -128 -43h-12v305h299z" />
    <glyph glyph-name="six" unicode="6" horiz-adv-x="510" 
d="M279 425q76 0 122 -52t46 -151q0 -109 -47 -170t-128 -61q-68 0 -112.5 41.5t-63 105.5t-18.5 150q0 175 59 279.5t165 104.5q56 0 105 -37l-8 -11q-45 35 -98 35q-98 0 -152.5 -99.5t-56.5 -257.5q76 123 187 123zM272 4q77 0 118.5 58.5t41.5 159.5q0 93 -41 141.5
t-112 48.5q-113 0 -187 -131q2 -126 45.5 -201.5t134.5 -75.5z" />
    <glyph glyph-name="seven" unicode="7" horiz-adv-x="433" 
d="M388 661v-12l-279 -654l-14 4l277 649h-331v13h347z" />
    <glyph glyph-name="eight" unicode="8" horiz-adv-x="525" 
d="M304 343q85 -35 120 -73.5t35 -103.5q0 -79 -53.5 -127t-142.5 -48q-91 0 -144 48t-53 129q0 134 155 195q-67 28 -96 62.5t-29 87.5q0 71 49 115t118 44q71 0 119.5 -42.5t48.5 -117.5q0 -56 -29.5 -94.5t-97.5 -74.5zM110 513q0 -52 29.5 -84.5t101.5 -60.5l50 -20
q67 34 96 71.5t29 92.5q0 69 -43.5 108t-109.5 39q-64 0 -108.5 -40t-44.5 -106zM264 4q82 0 131.5 44t49.5 118q0 67 -37.5 103t-130.5 72l-41 16q-81 -32 -118.5 -77t-37.5 -112q0 -76 49.5 -120t134.5 -44z" />
    <glyph glyph-name="nine" unicode="9" horiz-adv-x="505" 
d="M247 672q185 0 185 -276q0 -91 -20 -159t-61.5 -115.5t-95.5 -79.5t-130 -56l-4 12q146 47 218.5 131.5t78.5 243.5q-70 -115 -183 -115q-76 0 -124 54.5t-48 146.5q0 97 51.5 155t132.5 58zM236 271q110 0 182 122q-1 131 -41 198.5t-129 67.5q-76 0 -123 -53.5
t-47 -146.5q0 -87 43.5 -137.5t114.5 -50.5z" />
    <glyph glyph-name="colon" unicode=":" horiz-adv-x="146" 
d="M73 447q17 0 17 -17q0 -16 -17 -16t-17 16q0 17 17 17zM73 27q7 0 12 -5t5 -12t-5 -12t-12 -5t-12 5t-5 12t5 12t12 5z" />
    <glyph glyph-name="semicolon" unicode=";" horiz-adv-x="146" 
d="M73 447q17 0 17 -17q0 -16 -17 -16t-17 16q0 17 17 17zM73 27q7 0 12 -5t5 -12t-7 -23l-40 -109h-12l36 117q-11 3 -11 15q0 7 5 12t12 5z" />
    <glyph glyph-name="less" unicode="&#x3c;" horiz-adv-x="495" 
d="M406 497l6 -12l-313 -152l313 -156l-6 -12l-322 163v10z" />
    <glyph glyph-name="equal" unicode="=" horiz-adv-x="482" 
d="M81 401v14h321v-14h-321zM81 247v13h321v-13h-321z" />
    <glyph glyph-name="greater" unicode="&#x3e;" horiz-adv-x="495" 
d="M89 497l323 -159v-10l-323 -163l-5 12l312 156l-312 152z" />
    <glyph glyph-name="question" unicode="?" horiz-adv-x="444" 
d="M233 691q66 0 107.5 -38.5t41.5 -97.5q0 -34 -13.5 -60.5t-34 -42.5t-44.5 -34t-44.5 -35t-34 -46t-13.5 -66v-74h-14v75q0 46 19 79t46 52.5t53.5 38t45.5 47t19 66.5q0 55 -37 89t-97 34q-92 0 -161 -79l-11 9q72 83 172 83zM192 27q17 0 17 -17q0 -16 -17 -16t-17 16
q0 17 17 17z" />
    <glyph glyph-name="at" unicode="@" horiz-adv-x="1020" 
d="M527 691q94 0 170 -31.5t123 -85t72 -121.5t25 -144q0 -158 -47 -226.5t-115 -68.5q-48 0 -79 35t-36 97q-48 -130 -152 -130q-69 0 -114 56t-45 159q0 121 56 183t140 62q61 0 125 -33v-263q0 -74 28 -113.5t77 -39.5q63 0 105 65t42 216q0 156 -98.5 263t-276.5 107
q-179 0 -294 -127.5t-115 -306.5q0 -198 113.5 -312t294.5 -114q99 0 182 32l3 -13q-88 -32 -186 -32q-185 0 -303.5 117.5t-118.5 321.5q0 120 52 221.5t150.5 163.5t221.5 62zM489 30q53 0 91 37t56 102v265q-56 29 -111 29q-80 0 -130.5 -59.5t-50.5 -172.5
q0 -98 40 -149.5t105 -51.5z" />
    <glyph glyph-name="A" unicode="A" horiz-adv-x="557" 
d="M511 0l-72 207h-322l-72 -207h-14l238 681h18l239 -681h-15zM122 221h312l-156 448z" />
    <glyph glyph-name="B" unicode="B" horiz-adv-x="584" 
d="M351 361q74 -4 122.5 -50t48.5 -127q0 -93 -60.5 -138.5t-167.5 -45.5h-168v681h138q107 0 164 -43t57 -125q0 -64 -37 -103.5t-97 -48.5zM266 667h-126v-300h174q69 0 112.5 41t43.5 105q0 76 -52 115t-152 39zM295 14q99 0 155.5 41t56.5 129q0 80 -52.5 124.5
t-135.5 44.5h-179v-339h155z" />
    <glyph glyph-name="C" unicode="C" horiz-adv-x="535" 
d="M343 691q90 0 157 -58l-7 -11q-66 55 -149 55q-112 0 -180 -85t-68 -252q0 -161 67.5 -248t178.5 -87q88 0 158 58l9 -11q-71 -61 -168 -61q-117 0 -188.5 91.5t-71.5 257.5q0 171 72 261t190 90z" />
    <glyph glyph-name="D" unicode="D" horiz-adv-x="617" 
d="M240 681q60 0 108 -13.5t93 -48t70 -103t25 -168.5q0 -81 -17.5 -144t-45 -100.5t-66.5 -61.5t-78 -33t-83 -9h-120v681h114zM239 667h-99v-653h106q55 0 100.5 15t86.5 50t64.5 103.5t23.5 165.5q0 79 -16.5 137.5t-42.5 92.5t-65 54.5t-76 27.5t-82 7z" />
    <glyph glyph-name="E" unicode="E" horiz-adv-x="494" 
d="M440 681l-2 -14h-298v-300h257v-13h-257v-340h308v-14h-322v681h314z" />
    <glyph glyph-name="F" unicode="F" horiz-adv-x="471" 
d="M435 681l-2 -14h-293v-315h254v-13h-254v-339h-14v681h309z" />
    <glyph glyph-name="G" unicode="G" horiz-adv-x="603" 
d="M345 691q89 0 165 -58l-9 -10q-69 54 -156 54q-101 0 -175 -85t-74 -247q0 -166 68.5 -253.5t188.5 -87.5q85 0 160 44v288h-148l-2 13h164v-309q-82 -49 -174 -49q-125 0 -198.5 91.5t-73.5 262.5q0 85 23 153t61 109t84 62.5t96 21.5z" />
    <glyph glyph-name="H" unicode="H" horiz-adv-x="657" 
d="M517 0v354h-377v-354h-14v681h14v-314h377v314h15v-681h-15z" />
    <glyph glyph-name="I" unicode="I" horiz-adv-x="266" 
d="M140 681v-681h-14v681h14z" />
    <glyph glyph-name="J" unicode="J" horiz-adv-x="276" 
d="M156 681v-595q0 -74 -24.5 -112t-101.5 -71l-4 11q70 31 93 66.5t23 106.5v594h14z" />
    <glyph glyph-name="K" unicode="K" horiz-adv-x="508" 
d="M140 681v-680h-14v680h14zM483 681l-321 -315l337 -366h-18l-338 366l323 315h17z" />
    <glyph glyph-name="L" unicode="L" horiz-adv-x="451" 
d="M140 681v-667h289l-3 -14h-300v681h14z" />
    <glyph glyph-name="M" unicode="M" horiz-adv-x="760" 
d="M602 681l77 -681h-14l-40 349q-24 213 -35 318l-203 -583h-14l-205 583q-2 -23 -7.5 -74t-14 -123t-12.5 -113l-39 -357h-14l75 681h22l202 -579l200 579h22z" />
    <glyph glyph-name="N" unicode="N" horiz-adv-x="658" 
d="M533 681v-681h-18l-377 665q2 -60 2 -149v-516h-14v681h18l376 -665q-1 41 -1 161v504h14z" />
    <glyph glyph-name="O" unicode="O" horiz-adv-x="688" 
d="M344 691q122 0 193 -92t71 -259q0 -165 -69.5 -257t-194.5 -92q-121 0 -192 91.5t-71 255.5t72 258.5t191 94.5zM344 677q-114 0 -181 -89.5t-67 -249.5q0 -158 67 -246t181 -88q119 0 184 87.5t65 248.5q0 162 -66.5 249.5t-182.5 87.5z" />
    <glyph glyph-name="P" unicode="P" horiz-adv-x="556" 
d="M257 681q120 0 179 -47.5t59 -149.5q0 -199 -242 -199h-113v-285h-14v681h131zM255 299q225 0 225 185q0 97 -54.5 140t-168.5 43h-117v-368h115z" />
    <glyph glyph-name="Q" unicode="Q" horiz-adv-x="674" 
d="M397 1q152 -3 227 -67l-10 -12q-48 40 -107.5 55t-158.5 14h-4q-121 0 -192 91.5t-71 255.5t72 258.5t191 94.5q122 0 193 -92t71 -259q0 -151 -56 -237.5t-155 -101.5zM96 338q0 -158 67 -246t181 -88q119 0 184 87.5t65 248.5q0 162 -66.5 249.5t-182.5 87.5
q-114 0 -181 -89.5t-67 -249.5z" />
    <glyph glyph-name="R" unicode="R" horiz-adv-x="568" 
d="M501 0l-189 328h-172v-328h-14v681h144q221 0 221 -176q0 -81 -45 -123.5t-118 -51.5l191 -330h-18zM140 342h155q81 0 131 40t50 123q0 80 -48.5 121t-159.5 41h-128v-325z" />
    <glyph glyph-name="S" unicode="S" horiz-adv-x="537" 
d="M264 691q59 0 99 -17t79 -51l-9 -10q-72 64 -169 64q-75 0 -120.5 -40t-45.5 -101q0 -63 37 -96.5t137 -64.5q104 -32 148 -73.5t44 -121.5q0 -84 -57 -136.5t-148 -52.5q-117 0 -200 80l9 10q82 -77 190 -77q85 0 138 48.5t53 127.5q0 74 -41 112t-141 70
q-105 33 -144.5 70t-39.5 104t50 111t131 44z" />
    <glyph glyph-name="T" unicode="T" horiz-adv-x="474" 
d="M458 681l-2 -14h-212v-667h-14v667h-212v14h440z" />
    <glyph glyph-name="U" unicode="U" horiz-adv-x="638" 
d="M522 681v-474q0 -99 -49.5 -157.5t-153.5 -58.5q-105 0 -154 58t-49 158v474h14v-473q0 -94 45.5 -149t143.5 -55t143.5 55t45.5 149v473h14z" />
    <glyph glyph-name="V" unicode="V" horiz-adv-x="529" 
d="M499 681l-225 -681h-18l-225 681h15l220 -667l217 667h16z" />
    <glyph glyph-name="W" unicode="W" horiz-adv-x="785" 
d="M744 681l-160 -681h-16l-176 667l-175 -667h-17l-159 681h15l153 -666l175 666h17l175 -666l153 666h15z" />
    <glyph glyph-name="X" unicode="X" horiz-adv-x="476" 
d="M246 370l214 -370h-16l-207 361l-203 -361h-16l210 370l-183 311h16l176 -303l176 303h16z" />
    <glyph glyph-name="Y" unicode="Y" horiz-adv-x="488" 
d="M465 681l-213 -410v-271h-14v271l-215 410h16l206 -398l204 398h16z" />
    <glyph glyph-name="Z" unicode="Z" horiz-adv-x="507" 
d="M457 681v-13l-397 -654h382l-2 -14h-397v13l397 654h-360v14h377z" />
    <glyph glyph-name="bracketleft" unicode="[" horiz-adv-x="311" 
d="M226 794v-11h-108v-876h108v-11h-120v898h120z" />
    <glyph glyph-name="backslash" unicode="\" horiz-adv-x="520" 
d="M150 796l232 -886l-13 -4l-232 887z" />
    <glyph glyph-name="bracketright" unicode="]" horiz-adv-x="311" 
d="M206 794v-898h-120v11h107v876h-107v11h120z" />
    <glyph glyph-name="asciicircum" unicode="^" horiz-adv-x="526" 
d="M265 821l174 -294h-18l-161 276l-161 -276h-18l174 294h10z" />
    <glyph glyph-name="underscore" unicode="_" horiz-adv-x="520" 
d="M47 -95v13h427v-13h-427z" />
    <glyph glyph-name="grave" unicode="`" horiz-adv-x="239" 
d="M37 755l172 -88l-6 -10l-173 83z" />
    <glyph glyph-name="a" unicode="a" horiz-adv-x="526" 
d="M404 110q0 -53 10.5 -76.5t38.5 -32.5l-3 -10q-32 10 -45 33.5t-13 71.5q-57 -105 -171 -105q-72 0 -112.5 42t-40.5 112q0 76 54 118.5t147 42.5h121v65q0 72 -31 108t-104 36q-65 0 -145 -33l-4 12q82 34 149 34q149 0 149 -156v-262zM221 4q114 0 169 110v179h-118
q-89 0 -139 -38.5t-50 -109.5q0 -65 36.5 -103t101.5 -38z" />
    <glyph glyph-name="b" unicode="b" horiz-adv-x="568" 
d="M306 528q88 0 135 -68.5t47 -195.5q0 -128 -48.5 -200.5t-138.5 -72.5q-104 0 -166 96l-2 -87h-12v732l14 1v-303q69 98 171 98zM301 4q84 0 128 68t44 192q0 122 -42.5 186.5t-124.5 64.5q-55 0 -94.5 -26t-76.5 -76v-308q66 -101 166 -101z" />
    <glyph glyph-name="c" unicode="c" horiz-adv-x="466" 
d="M283 528q76 0 132 -50l-9 -9q-49 46 -123 46q-88 0 -140 -68t-52 -191q0 -120 53 -186t138 -66q76 0 129 50l9 -10q-58 -53 -137 -53q-93 0 -150 70t-57 195q0 127 55.5 199.5t151.5 72.5z" />
    <glyph glyph-name="d" unicode="d" horiz-adv-x="573" 
d="M439 733l14 -1v-732h-13l-1 94q-57 -103 -168 -103q-87 0 -138.5 70.5t-51.5 195.5q0 123 53 197t146 74q105 0 159 -91v296zM271 4q61 0 100 28.5t68 83.5v303q-57 96 -158 96q-85 0 -135.5 -70t-50.5 -188q1 -120 48 -186.5t128 -66.5z" />
    <glyph glyph-name="e" unicode="e" horiz-adv-x="528" 
d="M458 286q0 -15 -2 -37h-366q2 -119 53 -182t136 -63q80 0 149 57l8 -10q-73 -60 -157 -60q-94 0 -148.5 69t-54.5 194q0 128 53.5 201t144.5 73t137.5 -66t46.5 -176zM443 261q1 10 1 30q0 101 -42.5 162.5t-126.5 61.5q-83 0 -133.5 -66t-51.5 -188h353z" />
    <glyph glyph-name="f" unicode="f" horiz-adv-x="304" 
d="M243 722q-49 0 -77.5 -26.5t-28.5 -79.5v-98h149l-2 -12h-147v-506h-14v506h-90v12h90v100q0 56 32.5 86.5t86.5 30.5q59 0 114 -31l-6 -12q-53 30 -107 30z" />
    <glyph glyph-name="g" unicode="g" horiz-adv-x="488" 
d="M463 548l4 -15q-51 -16 -167 -16q58 -13 89.5 -54.5t31.5 -106.5q0 -77 -47 -120.5t-128 -43.5q-41 0 -78 16q-54 -32 -54 -79q0 -68 103 -68h89q71 0 110.5 -32.5t39.5 -86.5q0 -137 -204 -137q-108 0 -155.5 31t-47.5 105h14q0 -68 43.5 -95.5t145.5 -27.5
q189 0 189 123q0 50 -36 78.5t-100 28.5h-88q-56 0 -86.5 21.5t-30.5 57.5q0 49 57 86q-88 46 -88 145q0 76 48 123t125 47q73 0 117.5 3t61.5 6.5t42 10.5zM243 516q-74 0 -116.5 -43.5t-42.5 -114.5q0 -73 47.5 -113t114.5 -40q74 0 117 39.5t43 111.5q0 78 -45 119
t-118 41z" />
    <glyph glyph-name="h" unicode="h" horiz-adv-x="581" 
d="M329 528q68 0 102 -41.5t34 -117.5v-369h-14v367q0 149 -123 149q-113 0 -193 -131v-385h-14v732l14 2v-330q77 124 194 124z" />
    <glyph glyph-name="i" unicode="i" horiz-adv-x="255" 
d="M128 717q14 0 14 -14q0 -15 -14 -15q-15 0 -15 15q0 14 15 14zM135 518v-518h-14v518h14z" />
    <glyph glyph-name="j" unicode="j" horiz-adv-x="256" 
d="M128 717q14 0 14 -14q0 -15 -14 -15q-15 0 -15 15q0 14 15 14zM135 518v-514q0 -61 -12 -98.5t-33 -57.5t-61 -41l-5 10q55 29 76 66t21 121v514h14z" />
    <glyph glyph-name="k" unicode="k" horiz-adv-x="457" 
d="M135 733v-733h-14v732zM411 518l-252 -234l277 -284h-17l-278 283l252 235h18z" />
    <glyph glyph-name="l" unicode="l" horiz-adv-x="276" 
d="M183 -9q-67 0 -67 78v663l14 1v-664q0 -65 53 -65q21 0 40 8l4 -12q-18 -9 -44 -9z" />
    <glyph glyph-name="m" unicode="m" horiz-adv-x="847" 
d="M604 528q62 0 94.5 -42t32.5 -117v-369h-14v367q0 71 -29 110t-85 39q-100 0 -170 -131v-385h-14v373q0 68 -28.5 105.5t-85.5 37.5q-100 0 -170 -131v-385h-14v518h12l1 -113q69 123 172 123q55 0 87 -33t38 -92q68 125 173 125z" />
    <glyph glyph-name="n" unicode="n" horiz-adv-x="581" 
d="M329 528q136 0 136 -159v-369h-14v367q0 149 -123 149q-113 0 -193 -131v-385h-14v518h12l2 -114q77 124 194 124z" />
    <glyph glyph-name="o" unicode="o" 
d="M281 528q95 0 149 -70t54 -196q0 -129 -55 -200t-150 -71t-149 71t-54 196q0 128 55.5 199t149.5 71zM281 515q-88 0 -139.5 -67t-51.5 -190q0 -120 50.5 -187t138.5 -67q89 0 140 67.5t51 190.5q0 120 -50.5 186.5t-138.5 66.5z" />
    <glyph glyph-name="p" unicode="p" horiz-adv-x="568" 
d="M307 528q88 0 134.5 -68.5t46.5 -195.5q0 -128 -48 -200.5t-138 -72.5q-103 0 -167 96v-278l-14 -3v712h12l1 -89q71 99 173 99zM302 4q83 0 127 68t44 192q0 122 -42.5 186.5t-123.5 64.5q-55 0 -95 -26t-77 -76v-308q66 -101 167 -101z" />
    <glyph glyph-name="q" unicode="q" horiz-adv-x="568" 
d="M435 518h13v-712l-14 3v284q-57 -102 -168 -102q-87 0 -138.5 70.5t-51.5 195.5q0 123 53 197t147 74q104 0 158 -90zM266 4q61 0 100 28t68 83v304q-57 96 -158 96q-85 0 -135.5 -70t-50.5 -188q1 -120 48 -186.5t128 -66.5z" />
    <glyph glyph-name="r" unicode="r" horiz-adv-x="362" 
d="M293 528q28 0 48 -5l-2 -13q-20 6 -46 6q-60 0 -96.5 -38.5t-61.5 -124.5v-353h-14v518h12v-134q23 76 61 110t99 34z" />
    <glyph glyph-name="s" unicode="s" horiz-adv-x="459" 
d="M227 528q86 0 152 -54l-8 -10q-63 51 -144 51q-60 0 -99.5 -31.5t-39.5 -81.5q0 -46 32.5 -72.5t113.5 -48.5q90 -25 124.5 -55.5t34.5 -93.5q0 -64 -46.5 -102.5t-119.5 -38.5q-98 0 -171 66l8 9q37 -31 74 -46.5t89 -15.5q67 0 109.5 34.5t42.5 93.5q0 58 -32 85.5
t-120 52.5q-84 23 -118.5 52t-34.5 81q0 55 44 90t109 35z" />
    <glyph glyph-name="t" unicode="t" horiz-adv-x="323" 
d="M314 30l7 -11q-47 -28 -98 -28q-52 0 -80.5 32t-28.5 92v391h-86v12h86v133l14 1v-134h145l-2 -12h-143v-390q0 -54 24.5 -83t70.5 -29q49 0 91 26z" />
    <glyph glyph-name="u" unicode="u" horiz-adv-x="576" 
d="M455 518v-518h-12l-1 110q-65 -119 -182 -119q-68 0 -106 41t-38 118v368h14v-368q0 -72 34.5 -109t96.5 -37q112 0 180 124v390h14z" />
    <glyph glyph-name="v" unicode="v" horiz-adv-x="442" 
d="M417 518l-181 -518h-19l-191 518h15l185 -506l175 506h16z" />
    <glyph glyph-name="w" unicode="w" horiz-adv-x="677" 
d="M641 518l-138 -518h-18l-146 504l-146 -504h-18l-139 518h15l134 -504l146 504h17l146 -505l133 505h14z" />
    <glyph glyph-name="x" unicode="x" horiz-adv-x="430" 
d="M222 278l187 -278h-17l-179 270l-176 -270h-16l184 278l-158 240h16l150 -231l154 231h16z" />
    <glyph glyph-name="y" unicode="y" horiz-adv-x="440" 
d="M414 518l-180 -519q-31 -91 -64.5 -130.5t-109.5 -60.5l-2 11q73 21 102.5 57t60.5 124h-6l-189 518h15l184 -508l174 508h15z" />
    <glyph glyph-name="z" unicode="z" horiz-adv-x="410" 
d="M372 518v-12l-321 -493h312l-1 -13h-329v12l322 493h-294v13h311z" />
    <glyph glyph-name="braceleft" unicode="{" horiz-adv-x="327" 
d="M239 814v-11q-80 0 -80 -91v-277q0 -80 -75 -86q75 -6 75 -86v-277q0 -91 80 -91v-11q-92 0 -92 99v285q0 37 -21 55.5t-57 18.5v14q36 0 57 18.5t21 55.5v285q0 99 92 99z" />
    <glyph glyph-name="bar" unicode="|" horiz-adv-x="416" 
d="M215 801v-899h-14v899h14z" />
    <glyph glyph-name="braceright" unicode="}" horiz-adv-x="327" 
d="M89 814q92 0 92 -99v-285q0 -74 78 -74v-14q-78 0 -78 -74v-285q0 -99 -92 -99v11q79 0 79 91v277q0 80 75 86q-75 6 -75 86v277q0 91 -79 91v11z" />
    <glyph glyph-name="asciitilde" unicode="~" horiz-adv-x="456" 
d="M302 284q-25 0 -74 27.5t-72 27.5q-38 0 -70 -42l-10 5q35 51 80 51q27 0 75 -27.5t71 -27.5q38 0 68 42l9 -5q-31 -51 -77 -51z" />
    <glyph glyph-name="uni00A0" unicode="&#xa0;" horiz-adv-x="302" 
 />
    <glyph glyph-name="exclamdown" unicode="&#xa1;" horiz-adv-x="237" 
d="M118 447q17 0 17 -16q0 -17 -17 -17t-17 17q0 16 17 16zM125 253v-443h-13v443h13z" />
    <glyph glyph-name="cent" unicode="&#xa2;" horiz-adv-x="466" 
d="M420 44q-60 -53 -135 -53v-136h-13v136q-88 4 -142 74t-54 191q0 125 53.5 197.5t146.5 74.5v146h13v-146q72 -1 126 -50l-9 -9q-49 46 -123 46q-88 0 -140 -68t-52 -191q0 -120 53 -186t138 -66q76 0 129 50z" />
    <glyph glyph-name="sterling" unicode="&#xa3;" horiz-adv-x="498" 
d="M161 129q0 -48 -17 -73t-57 -42h342l-1 -14h-362v13q44 20 62.5 44.5t18.5 70.5v220h-60v13h60v145q0 73 39 119.5t112 46.5q83 0 139 -65l-10 -8q-52 60 -129 60q-66 0 -101.5 -43t-35.5 -111v-144h214v-13h-214v-219z" />
    <glyph glyph-name="currency" unicode="&#xa4;" 
d="M450 340q0 -78 -49 -127l79 -78l-9 -9l-80 78q-46 -40 -111 -40t-111 40l-80 -78l-9 9l79 78q-49 49 -49 127q0 75 47 124l-77 79l9 9l77 -78q47 42 114 42t114 -42l77 78l9 -9l-77 -78q47 -50 47 -125zM124 339q0 -72 43.5 -117t112.5 -45q70 0 113 45.5t43 116.5
q0 72 -42.5 118t-113.5 46q-70 0 -113 -46t-43 -118z" />
    <glyph glyph-name="yen" unicode="&#xa5;" horiz-adv-x="479" 
d="M456 661l-202 -336h126v-13h-132v-124h132v-13h-132v-175h-15v175h-130v13h130v124h-130v13h124l-204 336h17l201 -335l198 335h17z" />
    <glyph glyph-name="brokenbar" unicode="&#xa6;" horiz-adv-x="416" 
d="M215 801v-358h-14v358h14zM215 262v-360h-14v360h14z" />
    <glyph glyph-name="section" unicode="&#xa7;" horiz-adv-x="531" 
d="M346 158q57 -32 58 -96q0 -56 -40.5 -90t-104.5 -34q-84 0 -152 43l8 11q60 -41 144 -41q59 0 95 30t36 80q-2 45 -28 69t-105 51q-85 29 -119 57.5t-34 82.5q0 75 88 132q-35 19 -49 41t-14 55q0 55 42 88.5t101 33.5q75 0 142 -42l-7 -11q-64 40 -136 40q-53 0 -90 -31
t-37 -78q0 -43 28 -67.5t111 -53.5q81 -28 113 -58.5t32 -85.5q0 -76 -82 -126zM118 322q0 -49 29.5 -75t112.5 -54q48 -15 75 -29q78 46 78 120q0 49 -28 77t-105 55q-52 18 -77 31q-85 -55 -85 -125z" />
    <glyph glyph-name="dieresis" unicode="&#xa8;" horiz-adv-x="248" 
d="M44 703q15 0 15 -14t-15 -14q-14 0 -14 14t14 14zM203 703q15 0 15 -14t-15 -14q-14 0 -14 14t14 14z" />
    <glyph glyph-name="copyright" unicode="&#xa9;" horiz-adv-x="810" 
d="M405 717q119 0 196.5 -79t77.5 -203q0 -123 -78 -202.5t-196 -79.5q-119 0 -196.5 79t-77.5 203q0 123 78 202.5t196 79.5zM405 704q-113 0 -186 -75.5t-73 -193.5q0 -120 72.5 -194.5t186.5 -74.5q113 0 186 75.5t73 193.5q0 120 -72.5 194.5t-186.5 74.5zM406 605
q45 0 80 -28l-7 -10q-31 24 -73 24q-45 0 -81.5 -38t-36.5 -116q0 -74 33.5 -115.5t84.5 -41.5q45 0 84 29l7 -10q-40 -32 -91 -32q-57 0 -94.5 46.5t-37.5 123.5q0 81 41 124.5t91 43.5z" />
    <glyph glyph-name="ordfeminine" unicode="&#xaa;" horiz-adv-x="500" 
d="M256 515h96v47q0 53 -24.5 79.5t-82.5 26.5q-48 0 -115 -24l-5 12q67 25 120 25q64 0 92.5 -29.5t28.5 -87.5v-196q0 -40 8 -56.5t31 -24.5l-4 -10q-25 8 -36 25t-12 52q-45 -77 -135 -77q-58 0 -90.5 31.5t-32.5 84.5q0 58 43 90t118 32zM218 290q89 0 134 82v130h-93
q-71 0 -110.5 -28t-39.5 -81q0 -47 29 -75t80 -28zM94 14h321v-14h-321v14z" />
    <glyph glyph-name="guillemotleft" unicode="&#xab;" horiz-adv-x="528" 
d="M350 493l-141 -205l141 -204l-9 -7l-30 41l24 -34l-10 -7l-148 206v10l148 207l10 -7l5 7z" />
    <glyph glyph-name="logicalnot" unicode="&#xac;" horiz-adv-x="492" 
d="M412 328v-123h-15v109h-316v14h331z" />
    <glyph glyph-name="uni00AD" unicode="&#xad;" horiz-adv-x="400" 
d="M81 306v13h238v-13h-238z" />
    <glyph glyph-name="registered" unicode="&#xae;" horiz-adv-x="636" 
d="M318 716q94 0 155 -61t61 -152q0 -92 -59.5 -155t-156.5 -63q-95 0 -156 61t-61 152q0 92 60 155t157 63zM318 297q91 0 147 59.5t56 146.5q0 86 -57 143.5t-146 57.5q-91 0 -147 -59.5t-56 -146.5q0 -86 57 -143.5t146 -57.5zM403 563q0 -60 -64 -72l74 -121h-17
l-71 120h-64v-120h-14v268h59q97 0 97 -75zM261 503h61q67 0 67 60q0 62 -81 62h-47v-122z" />
    <glyph glyph-name="macron" unicode="&#xaf;" horiz-adv-x="260" 
d="M230 686h-200v14h200v-14z" />
    <glyph glyph-name="degree" unicode="&#xb0;" horiz-adv-x="520" 
d="M220 415q-56 0 -93.5 38t-37.5 100q0 60 38 99t93 39q59 0 95.5 -38.5t36.5 -100.5q0 -61 -36.5 -99t-95.5 -38zM220 428q54 0 85.5 34t31.5 90t-31.5 91t-85.5 35q-51 0 -84 -35t-33 -90t33 -90t84 -35z" />
    <glyph glyph-name="plusminus" unicode="&#xb1;" horiz-adv-x="483" 
d="M249 493v-155h153v-14h-153v-155h-14v155h-154v14h154v155h14zM81 0v14h321v-14h-321z" />
    <glyph glyph-name="uni00B2" unicode="&#xb2;" horiz-adv-x="400" 
d="M199 736q50 0 78 -29t28 -74q0 -61 -35.5 -111t-166.5 -189h215l-3 -13h-230v13q133 141 169.5 191.5t36.5 107.5q0 41 -24.5 66t-68.5 25q-60 0 -104 -50l-11 8q49 55 116 55z" />
    <glyph glyph-name="uni00B3" unicode="&#xb3;" horiz-adv-x="400" 
d="M201 737q50 0 79.5 -27.5t29.5 -72.5q0 -44 -25.5 -69t-64.5 -29q45 -2 73 -29.5t28 -76.5q0 -54 -34.5 -86.5t-91.5 -32.5q-70 0 -117 51l10 8q44 -47 107 -47q52 0 82 29.5t30 76.5q0 50 -29.5 75t-79.5 25h-25l2 12h22q41 0 70 23.5t29 69.5q0 40 -26 64t-69 24
q-57 0 -103 -42l-8 9q49 45 111 45z" />
    <glyph glyph-name="acute" unicode="&#xb4;" horiz-adv-x="240" 
d="M202 755l7 -15l-174 -83l-5 10z" />
    <glyph glyph-name="uni00B5" unicode="&#xb5;" horiz-adv-x="582" 
d="M481 -1l-13 -1q-24 72 -27 134q-65 -141 -185 -141q-103 0 -123 95q2 -122 2 -147v-130l-14 -1v710h14v-379q0 -70 33.5 -102.5t87.5 -32.5q118 0 183 147v367h14v-352q0 -86 28 -167z" />
    <glyph glyph-name="paragraph" unicode="&#xb6;" horiz-adv-x="685" 
d="M337 680l171 1v-872l-14 -3v862h-145v-859l-14 -3v503q-112 1 -163 52.5t-51 133.5q0 88 58 136.5t158 48.5z" />
    <glyph glyph-name="periodcentered" unicode="&#xb7;" horiz-adv-x="146" 
d="M73 344q17 0 17 -17q0 -16 -17 -16t-17 16q0 17 17 17z" />
    <glyph glyph-name="cedilla" unicode="&#xb8;" horiz-adv-x="203" 
d="M85 2l-3 -79q91 -5 91 -64q0 -33 -22.5 -50t-55.5 -17q-38 0 -65 17l6 11q25 -15 59 -15q27 0 45 13.5t18 40.5q0 52 -89 53l5 90h11z" />
    <glyph glyph-name="uni00B9" unicode="&#xb9;" horiz-adv-x="400" 
d="M253 730v-410h-13v394l-113 -68l-7 11l122 73h11z" />
    <glyph glyph-name="ordmasculine" unicode="&#xba;" horiz-adv-x="500" 
d="M250 681q77 0 120.5 -52t43.5 -147q0 -97 -44.5 -151t-121.5 -54q-76 0 -120 54t-44 148q0 95 45 148.5t121 53.5zM250 668q-70 0 -110.5 -49t-40.5 -140q0 -89 40 -139t110 -50t110 50t40 142q0 89 -39.5 137.5t-109.5 48.5zM89 0v14h321v-14h-321z" />
    <glyph glyph-name="guillemotright" unicode="&#xbb;" horiz-adv-x="520" 
d="M279 500l147 -207v-10l-148 -206l-10 7l142 204l-141 205zM104 500l148 -207v-10l-149 -206l-9 7l141 204l-141 205z" />
    <glyph glyph-name="onequarter" unicode="&#xbc;" horiz-adv-x="884" 
d="M639 738l12 -5l-406 -799l-12 5zM236 271h-13v394l-113 -68l-7 11l122 73h11v-410zM817 129v-13h-60v-116h-13v116h-194v11l134 290l12 -5l-131 -283h179l1 130h12v-130h60z" />
    <glyph glyph-name="onehalf" unicode="&#xbd;" horiz-adv-x="884" 
d="M639 738l12 -5l-406 -799l-12 5zM236 681v-410h-13v394l-113 -68l-7 11l122 73h11zM683 416q50 0 78 -29t28 -74q0 -61 -35.5 -111t-166.5 -189h215l-3 -13h-230v13q133 141 169.5 191.5t36.5 107.5q0 41 -24.5 66t-68.5 25q-60 0 -104 -50l-11 8q49 55 116 55z" />
    <glyph glyph-name="threequarters" unicode="&#xbe;" horiz-adv-x="884" 
d="M639 738l12 -5l-406 -799l-12 5zM321 384q0 -54 -34.5 -86.5t-91.5 -32.5q-70 0 -117 51l10 8q44 -47 107 -47q52 0 82 29.5t30 76.5q0 50 -29.5 75t-79.5 25h-25l2 12h22q41 0 70 23.5t29 69.5q0 40 -26 64t-69 24q-57 0 -103 -42l-8 9q49 45 111 45q50 0 79.5 -27.5
t29.5 -72.5q0 -44 -25.5 -69t-64.5 -29q45 -2 73 -29.5t28 -76.5zM817 129v-13h-60v-116h-13v116h-194v11l134 290l12 -5l-131 -283h179l1 130h12v-130h60z" />
    <glyph glyph-name="questiondown" unicode="&#xbf;" horiz-adv-x="444" 
d="M252 422q-9 0 -9 9q0 8 9 8t9 -8q0 -9 -9 -9zM210 -195q-65 0 -107 37t-42 90q0 40 19 69.5t46.5 48.5t54.5 38.5t46 50t19 72.5v42h13v-44q0 -43 -19 -75t-45.5 -51.5t-53.5 -38t-46 -46.5t-19 -66q0 -49 37.5 -81.5t96.5 -32.5q93 0 162 78l10 -8q-71 -83 -172 -83z
" />
    <glyph glyph-name="Agrave" unicode="&#xc0;" horiz-adv-x="557" 
d="M371 777l-4 -10l-174 72l7 15zM511 0l-72 207h-322l-72 -207h-14l238 681h18l239 -681h-15zM122 221h312l-156 448z" />
    <glyph glyph-name="Aacute" unicode="&#xc1;" horiz-adv-x="557" 
d="M366 839l-174 -72l-4 10l171 77zM511 0l-72 207h-322l-72 -207h-14l238 681h18l239 -681h-15zM122 221h312l-156 448z" />
    <glyph glyph-name="Acircumflex" unicode="&#xc2;" horiz-adv-x="557" 
d="M278 846l-111 -78l-8 8l115 86h8l115 -86l-7 -8zM511 0l-72 207h-322l-72 -207h-14l238 681h18l239 -681h-15zM122 221h312l-156 448z" />
    <glyph glyph-name="Atilde" unicode="&#xc3;" horiz-adv-x="557" 
d="M220 851q-30 0 -61 -35l-9 5q34 43 70 43q20 0 57 -22t58 -22q33 0 62 40l9 -6q-30 -47 -71 -47q-24 0 -61 22t-54 22zM511 0l-72 207h-322l-72 -207h-14l238 681h18l239 -681h-15zM122 221h312l-156 448z" />
    <glyph glyph-name="Adieresis" unicode="&#xc4;" horiz-adv-x="557" 
d="M198 801q-14 0 -14 14t14 14q15 0 15 -14t-15 -14zM357 801q-14 0 -14 14t14 14q15 0 15 -14t-15 -14zM511 0l-72 207h-322l-72 -207h-14l238 681h18l239 -681h-15zM122 221h312l-156 448z" />
    <glyph glyph-name="Aring" unicode="&#xc5;" horiz-adv-x="557" 
d="M279 775q-33 0 -53 19.5t-20 52.5q0 32 20 52t53 20t53 -19.5t20 -52.5q0 -32 -20 -52t-53 -20zM279 908q-28 0 -43.5 -16.5t-15.5 -44.5q0 -29 15.5 -45t43.5 -16t43.5 16.5t15.5 44.5q0 29 -15.5 45t-43.5 16zM511 0l-72 207h-322l-72 -207h-14l238 681h18l239 -681
h-15zM122 221h312l-156 448z" />
    <glyph glyph-name="AE" unicode="&#xc6;" horiz-adv-x="753" 
d="M474 14h233v-14h-244l-52 200h-304l-77 -200h-14l263 681h374l-2 -14h-349l80 -300h262v-13h-259zM112 213h295l-119 456z" />
    <glyph glyph-name="Ccedilla" unicode="&#xc7;" horiz-adv-x="535" 
d="M339 -77q91 -5 91 -64q0 -33 -22.5 -50t-55.5 -17q-38 0 -65 17l6 11q25 -15 59 -15q27 0 45 13.5t18 40.5q0 52 -89 53l4 79q-113 5 -181 96t-68 253q0 171 72 261t190 90q90 0 157 -58l-7 -11q-66 55 -149 55q-112 0 -180 -85t-68 -252q0 -161 67.5 -248t178.5 -87
q88 0 158 58l9 -11q-71 -61 -167 -61z" />
    <glyph glyph-name="Egrave" unicode="&#xc8;" horiz-adv-x="494" 
d="M207 854l171 -77l-4 -10l-174 72zM440 681l-2 -14h-298v-300h257v-13h-257v-340h308v-14h-322v681h314z" />
    <glyph glyph-name="Eacute" unicode="&#xc9;" horiz-adv-x="494" 
d="M366 854l7 -15l-174 -72l-4 10zM440 681l-2 -14h-298v-300h257v-13h-257v-340h308v-14h-322v681h314z" />
    <glyph glyph-name="Ecircumflex" unicode="&#xca;" horiz-adv-x="494" 
d="M397 768l-112 78l-111 -78l-8 8l115 86h8l115 -86zM440 681l-2 -14h-298v-300h257v-13h-257v-340h308v-14h-322v681h314z" />
    <glyph glyph-name="Edieresis" unicode="&#xcb;" horiz-adv-x="494" 
d="M205 829q15 0 15 -14t-15 -14q-14 0 -14 14t14 14zM364 829q15 0 15 -14t-15 -14q-14 0 -14 14t14 14zM440 681l-2 -14h-298v-300h257v-13h-257v-340h308v-14h-322v681h314z" />
    <glyph glyph-name="Igrave" unicode="&#xcc;" horiz-adv-x="266" 
d="M54 854l171 -77l-4 -10l-174 72zM140 681v-681h-14v681h14z" />
    <glyph glyph-name="Iacute" unicode="&#xcd;" horiz-adv-x="266" 
d="M213 854l7 -15l-174 -72l-4 10zM140 681v-681h-14v681h14z" />
    <glyph glyph-name="Icircumflex" unicode="&#xce;" horiz-adv-x="266" 
d="M244 768l-112 78l-111 -78l-8 8l115 86h8l115 -86zM140 681v-681h-14v681h14z" />
    <glyph glyph-name="Idieresis" unicode="&#xcf;" horiz-adv-x="266" 
d="M52 829q15 0 15 -14t-15 -14q-14 0 -14 14t14 14zM211 829q15 0 15 -14t-15 -14q-14 0 -14 14t14 14zM140 681v-681h-14v681h14z" />
    <glyph glyph-name="Eth" unicode="&#xd0;" horiz-adv-x="613" 
d="M237 681q60 0 108 -13.5t92.5 -48t69.5 -103t25 -168.5q0 -81 -17.5 -144t-45 -100.5t-66.5 -61.5t-78 -33t-83 -9h-120v346h-94v14h94v321h115zM242 14q55 0 100.5 15t86.5 50t64.5 103.5t23.5 165.5q0 79 -16.5 137.5t-42.5 92.5t-65 54.5t-76 27.5t-82 7h-99v-307h194
v-14h-194v-332h106z" />
    <glyph glyph-name="Ntilde" unicode="&#xd1;" horiz-adv-x="658" 
d="M391 807q-24 0 -61 22t-54 22q-30 0 -61 -35l-9 5q34 43 70 43q20 0 57 -22t58 -22q33 0 62 40l9 -6q-30 -47 -71 -47zM533 681v-681h-18l-377 665q2 -60 2 -149v-516h-14v681h18l376 -665q-1 41 -1 161v504h14z" />
    <glyph glyph-name="Ograve" unicode="&#xd2;" horiz-adv-x="688" 
d="M266 854l171 -77l-4 -10l-174 72zM344 691q122 0 193 -92t71 -259q0 -165 -69.5 -257t-194.5 -92q-121 0 -192 91.5t-71 255.5t72 258.5t191 94.5zM344 677q-114 0 -181 -89.5t-67 -249.5q0 -158 67 -246t181 -88q119 0 184 87.5t65 248.5q0 162 -66.5 249.5t-182.5 87.5
z" />
    <glyph glyph-name="Oacute" unicode="&#xd3;" horiz-adv-x="688" 
d="M425 854l7 -15l-174 -72l-4 10zM344 691q122 0 193 -92t71 -259q0 -165 -69.5 -257t-194.5 -92q-121 0 -192 91.5t-71 255.5t72 258.5t191 94.5zM344 677q-114 0 -181 -89.5t-67 -249.5q0 -158 67 -246t181 -88q119 0 184 87.5t65 248.5q0 162 -66.5 249.5t-182.5 87.5z
" />
    <glyph glyph-name="Ocircumflex" unicode="&#xd4;" horiz-adv-x="688" 
d="M456 768l-112 78l-111 -78l-8 8l115 86h8l115 -86zM344 691q122 0 193 -92t71 -259q0 -165 -69.5 -257t-194.5 -92q-121 0 -192 91.5t-71 255.5t72 258.5t191 94.5zM344 677q-114 0 -181 -89.5t-67 -249.5q0 -158 67 -246t181 -88q119 0 184 87.5t65 248.5
q0 162 -66.5 249.5t-182.5 87.5z" />
    <glyph glyph-name="Otilde" unicode="&#xd5;" horiz-adv-x="688" 
d="M401 807q-24 0 -61 22t-54 22q-30 0 -61 -35l-9 5q34 43 70 43q20 0 57 -22t58 -22q33 0 62 40l9 -6q-30 -47 -71 -47zM344 691q122 0 193 -92t71 -259q0 -165 -69.5 -257t-194.5 -92q-121 0 -192 91.5t-71 255.5t72 258.5t191 94.5zM344 677q-114 0 -181 -89.5
t-67 -249.5q0 -158 67 -246t181 -88q119 0 184 87.5t65 248.5q0 162 -66.5 249.5t-182.5 87.5z" />
    <glyph glyph-name="Odieresis" unicode="&#xd6;" horiz-adv-x="688" 
d="M264 829q15 0 15 -14t-15 -14q-14 0 -14 14t14 14zM423 829q15 0 15 -14t-15 -14q-14 0 -14 14t14 14zM344 691q122 0 193 -92t71 -259q0 -165 -69.5 -257t-194.5 -92q-121 0 -192 91.5t-71 255.5t72 258.5t191 94.5zM344 677q-114 0 -181 -89.5t-67 -249.5
q0 -158 67 -246t181 -88q119 0 184 87.5t65 248.5q0 162 -66.5 249.5t-182.5 87.5z" />
    <glyph glyph-name="multiply" unicode="&#xd7;" horiz-adv-x="482" 
d="M371 450l11 -9l-132 -133l132 -134l-11 -9l-130 133l-130 -133l-10 9l130 134l-130 133l10 9l130 -133z" />
    <glyph glyph-name="Oslash" unicode="&#xd8;" horiz-adv-x="688" 
d="M447 671q76 -34 118.5 -118.5t42.5 -212.5q0 -165 -69.5 -257t-194.5 -92q-49 0 -91 15l-33 -114l-14 5l35 114q-76 34 -118 118t-42 209q0 164 72 258.5t191 94.5q49 0 91 -15l33 118l15 -5zM96 338q0 -120 39 -200.5t110 -113.5l187 638q-40 15 -88 15
q-114 0 -181 -89.5t-67 -249.5zM344 4q119 0 184 87.5t65 248.5q0 123 -39 204.5t-111 113.5l-187 -638q39 -16 88 -16z" />
    <glyph glyph-name="Ugrave" unicode="&#xd9;" horiz-adv-x="638" 
d="M241 854l171 -77l-4 -10l-174 72zM522 681v-474q0 -99 -49.5 -157.5t-153.5 -58.5q-105 0 -154 58t-49 158v474h14v-473q0 -94 45.5 -149t143.5 -55t143.5 55t45.5 149v473h14z" />
    <glyph glyph-name="Uacute" unicode="&#xda;" horiz-adv-x="638" 
d="M399 854l7 -15l-174 -72l-4 10zM522 681v-474q0 -99 -49.5 -157.5t-153.5 -58.5q-105 0 -154 58t-49 158v474h14v-473q0 -94 45.5 -149t143.5 -55t143.5 55t45.5 149v473h14z" />
    <glyph glyph-name="Ucircumflex" unicode="&#xdb;" horiz-adv-x="638" 
d="M431 768l-112 78l-111 -78l-8 8l115 86h8l115 -86zM522 681v-474q0 -99 -49.5 -157.5t-153.5 -58.5q-105 0 -154 58t-49 158v474h14v-473q0 -94 45.5 -149t143.5 -55t143.5 55t45.5 149v473h14z" />
    <glyph glyph-name="Udieresis" unicode="&#xdc;" horiz-adv-x="638" 
d="M239 829q15 0 15 -14t-15 -14q-14 0 -14 14t14 14zM398 829q15 0 15 -14t-15 -14q-14 0 -14 14t14 14zM522 681v-474q0 -99 -49.5 -157.5t-153.5 -58.5q-105 0 -154 58t-49 158v474h14v-473q0 -94 45.5 -149t143.5 -55t143.5 55t45.5 149v473h14z" />
    <glyph glyph-name="Yacute" unicode="&#xdd;" horiz-adv-x="488" 
d="M325 854l7 -15l-174 -72l-4 10zM465 681l-213 -410v-271h-14v271l-215 410h16l206 -398l204 398h16z" />
    <glyph glyph-name="Thorn" unicode="&#xde;" horiz-adv-x="556" 
d="M257 553q120 0 179 -48t59 -151q0 -204 -242 -204h-113v-150h-14v681h14v-128h117zM255 163q225 0 225 190q0 99 -54.5 142.5t-168.5 43.5h-117v-376h115z" />
    <glyph glyph-name="germandbls" unicode="&#xdf;" horiz-adv-x="571" 
d="M290 735q66 0 105.5 -34.5t39.5 -89.5q0 -30 -12.5 -54t-30 -40t-35 -30t-30 -30.5t-12.5 -35.5q0 -25 20 -46t49 -39t58 -40.5t49 -61t20 -89.5q0 -69 -38 -112t-104 -43q-51 0 -91 23l5 11q37 -21 86 -21q59 0 93 38.5t34 103.5q0 42 -14.5 75t-36 52.5t-47 38.5
t-47 32.5t-36 33.5t-14.5 44q0 20 12.5 37.5t30 32t35 30t30 39t12.5 51.5q0 50 -35 80.5t-96 30.5q-70 0 -112.5 -47.5t-42.5 -135.5v-539h-14v541q0 92 46.5 143t122.5 51z" />
    <glyph glyph-name="agrave" unicode="&#xe0;" horiz-adv-x="526" 
d="M345 667l-6 -10l-173 83l7 15zM404 110q0 -53 10.5 -76.5t38.5 -32.5l-3 -10q-32 10 -45 33.5t-13 71.5q-57 -105 -171 -105q-72 0 -112.5 42t-40.5 112q0 76 54 118.5t147 42.5h121v65q0 72 -31 108t-104 36q-65 0 -145 -33l-4 12q82 34 149 34q149 0 149 -156v-262z
M221 4q114 0 169 110v179h-118q-89 0 -139 -38.5t-50 -109.5q0 -65 36.5 -103t101.5 -38z" />
    <glyph glyph-name="aacute" unicode="&#xe1;" horiz-adv-x="526" 
d="M335 740l-174 -83l-5 10l172 88zM404 110q0 -53 10.5 -76.5t38.5 -32.5l-3 -10q-32 10 -45 33.5t-13 71.5q-57 -105 -171 -105q-72 0 -112.5 42t-40.5 112q0 76 54 118.5t147 42.5h121v65q0 72 -31 108t-104 36q-65 0 -145 -33l-4 12q82 34 149 34q149 0 149 -156v-262z
M221 4q114 0 169 110v179h-118q-89 0 -139 -38.5t-50 -109.5q0 -65 36.5 -103t101.5 -38z" />
    <glyph glyph-name="acircumflex" unicode="&#xe2;" horiz-adv-x="526" 
d="M252 740l-111 -84l-8 8l115 91h8l115 -91l-7 -8zM404 110q0 -53 10.5 -76.5t38.5 -32.5l-3 -10q-32 10 -45 33.5t-13 71.5q-57 -105 -171 -105q-72 0 -112.5 42t-40.5 112q0 76 54 118.5t147 42.5h121v65q0 72 -31 108t-104 36q-65 0 -145 -33l-4 12q82 34 149 34
q149 0 149 -156v-262zM221 4q114 0 169 110v179h-118q-89 0 -139 -38.5t-50 -109.5q0 -65 36.5 -103t101.5 -38z" />
    <glyph glyph-name="atilde" unicode="&#xe3;" horiz-adv-x="526" 
d="M196 725q-30 0 -61 -35l-9 5q34 43 70 43q20 0 57 -22t58 -22q33 0 62 40l9 -6q-30 -47 -71 -47q-24 0 -61 22t-54 22zM404 110q0 -53 10.5 -76.5t38.5 -32.5l-3 -10q-32 10 -45 33.5t-13 71.5q-57 -105 -171 -105q-72 0 -112.5 42t-40.5 112q0 76 54 118.5t147 42.5h121
v65q0 72 -31 108t-104 36q-65 0 -145 -33l-4 12q82 34 149 34q149 0 149 -156v-262zM221 4q114 0 169 110v179h-118q-89 0 -139 -38.5t-50 -109.5q0 -65 36.5 -103t101.5 -38z" />
    <glyph glyph-name="adieresis" unicode="&#xe4;" horiz-adv-x="526" 
d="M172 675q-14 0 -14 14t14 14q15 0 15 -14t-15 -14zM331 675q-14 0 -14 14t14 14q15 0 15 -14t-15 -14zM404 110q0 -53 10.5 -76.5t38.5 -32.5l-3 -10q-32 10 -45 33.5t-13 71.5q-57 -105 -171 -105q-72 0 -112.5 42t-40.5 112q0 76 54 118.5t147 42.5h121v65
q0 72 -31 108t-104 36q-65 0 -145 -33l-4 12q82 34 149 34q149 0 149 -156v-262zM221 4q114 0 169 110v179h-118q-89 0 -139 -38.5t-50 -109.5q0 -65 36.5 -103t101.5 -38z" />
    <glyph glyph-name="aring" unicode="&#xe5;" horiz-adv-x="526" 
d="M253 649q-33 0 -53 19.5t-20 52.5q0 32 20 52t53 20t53 -19.5t20 -52.5q0 -32 -20 -52t-53 -20zM253 782q-28 0 -43.5 -16.5t-15.5 -44.5q0 -29 15.5 -45t43.5 -16t43.5 16.5t15.5 44.5q0 29 -15.5 45t-43.5 16zM404 110q0 -53 10.5 -76.5t38.5 -32.5l-3 -10
q-32 10 -45 33.5t-13 71.5q-57 -105 -171 -105q-72 0 -112.5 42t-40.5 112q0 76 54 118.5t147 42.5h121v65q0 72 -31 108t-104 36q-65 0 -145 -33l-4 12q82 34 149 34q149 0 149 -156v-262zM221 4q114 0 169 110v179h-118q-89 0 -139 -38.5t-50 -109.5q0 -65 36.5 -103
t101.5 -38z" />
    <glyph glyph-name="ae" unicode="&#xe6;" horiz-adv-x="843" 
d="M772 286q0 -26 -1 -37h-366q1 -119 52 -182t136 -63q80 0 149 57l8 -10q-73 -60 -157 -60q-63 0 -109.5 32t-70.5 93q-41 -67 -86 -96t-106 -29q-72 0 -112.5 42t-40.5 112q0 77 54 119.5t147 42.5h121v64q0 72 -31 108t-104 36q-65 0 -145 -33l-4 12q82 34 149 34
q149 0 149 -156v-7q20 79 68 121t118 42q90 0 136 -66t46 -176zM757 261q1 10 1 30q0 101 -42 162.5t-126 61.5q-83 0 -134 -66t-52 -188h353zM221 4q60 0 103 29.5t84 96.5q-18 53 -18 124v39h-118q-89 0 -139 -38.5t-50 -109.5q0 -65 36.5 -103t101.5 -38z" />
    <glyph glyph-name="ccedilla" unicode="&#xe7;" horiz-adv-x="466" 
d="M281 -78q91 -5 91 -64q0 -33 -22.5 -50t-55.5 -17q-38 0 -65 17l6 11q25 -15 59 -15q27 0 45 13.5t18 40.5q0 52 -89 53l4 80q-88 4 -142 74t-54 191q0 127 55.5 199.5t151.5 72.5q76 0 132 -50l-9 -9q-49 46 -123 46q-88 0 -140 -68t-52 -191q0 -120 53 -186t138 -66
q76 0 129 50l9 -10q-58 -53 -136 -53z" />
    <glyph glyph-name="egrave" unicode="&#xe8;" horiz-adv-x="528" 
d="M367 667l-6 -10l-173 83l7 15zM458 286q0 -15 -2 -37h-366q2 -119 53 -182t136 -63q80 0 149 57l8 -10q-73 -60 -157 -60q-94 0 -148.5 69t-54.5 194q0 128 53.5 201t144.5 73t137.5 -66t46.5 -176zM443 261q1 10 1 30q0 101 -42.5 162.5t-126.5 61.5q-83 0 -133.5 -66
t-51.5 -188h353z" />
    <glyph glyph-name="eacute" unicode="&#xe9;" horiz-adv-x="528" 
d="M357 740l-174 -83l-5 10l172 88zM458 286q0 -15 -2 -37h-366q2 -119 53 -182t136 -63q80 0 149 57l8 -10q-73 -60 -157 -60q-94 0 -148.5 69t-54.5 194q0 128 53.5 201t144.5 73t137.5 -66t46.5 -176zM443 261q1 10 1 30q0 101 -42.5 162.5t-126.5 61.5q-83 0 -133.5 -66
t-51.5 -188h353z" />
    <glyph glyph-name="ecircumflex" unicode="&#xea;" horiz-adv-x="528" 
d="M275 740l-111 -84l-8 8l115 91h8l115 -91l-7 -8zM458 286q0 -15 -2 -37h-366q2 -119 53 -182t136 -63q80 0 149 57l8 -10q-73 -60 -157 -60q-94 0 -148.5 69t-54.5 194q0 128 53.5 201t144.5 73t137.5 -66t46.5 -176zM443 261q1 10 1 30q0 101 -42.5 162.5t-126.5 61.5
q-83 0 -133.5 -66t-51.5 -188h353z" />
    <glyph glyph-name="edieresis" unicode="&#xeb;" horiz-adv-x="528" 
d="M195 675q-14 0 -14 14t14 14q15 0 15 -14t-15 -14zM354 675q-14 0 -14 14t14 14q15 0 15 -14t-15 -14zM458 286q0 -15 -2 -37h-366q2 -119 53 -182t136 -63q80 0 149 57l8 -10q-73 -60 -157 -60q-94 0 -148.5 69t-54.5 194q0 128 53.5 201t144.5 73t137.5 -66t46.5 -176z
M443 261q1 10 1 30q0 101 -42.5 162.5t-126.5 61.5q-83 0 -133.5 -66t-51.5 -188h353z" />
    <glyph glyph-name="igrave" unicode="&#xec;" horiz-adv-x="255" 
d="M48 755l172 -88l-6 -10l-173 83zM135 518v-518h-14v518h14z" />
    <glyph glyph-name="iacute" unicode="&#xed;" horiz-adv-x="255" 
d="M203 755l7 -15l-174 -83l-5 10zM135 518v-518h-14v518h14z" />
    <glyph glyph-name="icircumflex" unicode="&#xee;" horiz-adv-x="255" 
d="M16 656l-8 8l115 91h8l115 -91l-7 -8l-112 84zM135 518v-518h-14v518h14z" />
    <glyph glyph-name="idieresis" unicode="&#xef;" horiz-adv-x="255" 
d="M47 703q15 0 15 -14t-15 -14q-14 0 -14 14t14 14zM206 703q15 0 15 -14t-15 -14q-14 0 -14 14t14 14zM135 518v-518h-14v518h14z" />
    <glyph glyph-name="eth" unicode="&#xf0;" horiz-adv-x="546" 
d="M304 667q157 -116 157 -358q0 -318 -195 -318q-89 0 -139.5 65t-50.5 173q0 97 49.5 164t134.5 67q106 0 186 -109q-10 200 -152 307l-85 -88l-11 4l87 91q-63 42 -138 59l3 12q77 -17 144 -62l65 69l9 -8zM266 4q181 0 181 306q0 18 -1 25q-81 111 -185 111
q-79 0 -124.5 -62.5t-45.5 -155.5q0 -103 46.5 -163.5t128.5 -60.5z" />
    <glyph glyph-name="ntilde" unicode="&#xf1;" horiz-adv-x="581" 
d="M239 725q-30 0 -61 -35l-9 5q34 43 70 43q20 0 57 -22t58 -22q33 0 62 40l9 -6q-30 -47 -71 -47q-24 0 -61 22t-54 22zM329 528q136 0 136 -159v-369h-14v367q0 149 -123 149q-113 0 -193 -131v-385h-14v518h12l2 -114q77 124 194 124z" />
    <glyph glyph-name="ograve" unicode="&#xf2;" 
d="M201 755l172 -88l-6 -10l-173 83zM281 528q95 0 149 -70t54 -196q0 -129 -55 -200t-150 -71t-149 71t-54 196q0 128 55.5 199t149.5 71zM281 515q-88 0 -139.5 -67t-51.5 -190q0 -120 50.5 -187t138.5 -67q89 0 140 67.5t51 190.5q0 120 -50.5 186.5t-138.5 66.5z" />
    <glyph glyph-name="oacute" unicode="&#xf3;" 
d="M356 755l7 -15l-174 -83l-5 10zM281 528q95 0 149 -70t54 -196q0 -129 -55 -200t-150 -71t-149 71t-54 196q0 128 55.5 199t149.5 71zM281 515q-88 0 -139.5 -67t-51.5 -190q0 -120 50.5 -187t138.5 -67q89 0 140 67.5t51 190.5q0 120 -50.5 186.5t-138.5 66.5z" />
    <glyph glyph-name="ocircumflex" unicode="&#xf4;" 
d="M169 656l-8 8l115 91h8l115 -91l-7 -8l-112 84zM281 528q95 0 149 -70t54 -196q0 -129 -55 -200t-150 -71t-149 71t-54 196q0 128 55.5 199t149.5 71zM281 515q-88 0 -139.5 -67t-51.5 -190q0 -120 50.5 -187t138.5 -67q89 0 140 67.5t51 190.5q0 120 -50.5 186.5
t-138.5 66.5z" />
    <glyph glyph-name="otilde" unicode="&#xf5;" 
d="M339 681q-24 0 -61 22t-54 22q-30 0 -61 -35l-9 5q34 43 70 43q20 0 57 -22t58 -22q33 0 62 40l9 -6q-30 -47 -71 -47zM281 528q95 0 149 -70t54 -196q0 -129 -55 -200t-150 -71t-149 71t-54 196q0 128 55.5 199t149.5 71zM281 515q-88 0 -139.5 -67t-51.5 -190
q0 -120 50.5 -187t138.5 -67q89 0 140 67.5t51 190.5q0 120 -50.5 186.5t-138.5 66.5z" />
    <glyph glyph-name="odieresis" unicode="&#xf6;" 
d="M200 703q15 0 15 -14t-15 -14q-14 0 -14 14t14 14zM359 703q15 0 15 -14t-15 -14q-14 0 -14 14t14 14zM281 528q95 0 149 -70t54 -196q0 -129 -55 -200t-150 -71t-149 71t-54 196q0 128 55.5 199t149.5 71zM281 515q-88 0 -139.5 -67t-51.5 -190q0 -120 50.5 -187
t138.5 -67q89 0 140 67.5t51 190.5q0 120 -50.5 186.5t-138.5 66.5z" />
    <glyph glyph-name="divide" unicode="&#xf7;" horiz-adv-x="482" 
d="M241 551q17 0 17 -17q0 -16 -17 -16t-17 16q0 17 17 17zM81 324v14h321v-14h-321zM241 144q17 0 17 -17q0 -16 -17 -16t-17 16q0 17 17 17z" />
    <glyph glyph-name="oslash" unicode="&#xf8;" 
d="M369 509q115 -58 115 -247q0 -129 -55 -200t-150 -71q-44 0 -76 14l-41 -121l-13 4l42 122q-115 60 -115 248q0 128 55.5 199t149.5 71q44 0 76 -14l40 121l13 -3zM90 258q0 -178 106 -235l157 478q-33 14 -72 14q-88 0 -139.5 -67t-51.5 -190zM279 4q89 0 140 67.5
t51 190.5q0 178 -105 234l-158 -478q34 -14 72 -14z" />
    <glyph glyph-name="ugrave" unicode="&#xf9;" horiz-adv-x="576" 
d="M209 755l172 -88l-6 -10l-173 83zM455 518v-518h-12l-1 110q-65 -119 -182 -119q-68 0 -106 41t-38 118v368h14v-368q0 -72 34.5 -109t96.5 -37q112 0 180 124v390h14z" />
    <glyph glyph-name="uacute" unicode="&#xfa;" horiz-adv-x="576" 
d="M364 755l7 -15l-174 -83l-5 10zM455 518v-518h-12l-1 110q-65 -119 -182 -119q-68 0 -106 41t-38 118v368h14v-368q0 -72 34.5 -109t96.5 -37q112 0 180 124v390h14z" />
    <glyph glyph-name="ucircumflex" unicode="&#xfb;" horiz-adv-x="576" 
d="M177 656l-8 8l115 91h8l115 -91l-7 -8l-112 84zM455 518v-518h-12l-1 110q-65 -119 -182 -119q-68 0 -106 41t-38 118v368h14v-368q0 -72 34.5 -109t96.5 -37q112 0 180 124v390h14z" />
    <glyph glyph-name="udieresis" unicode="&#xfc;" horiz-adv-x="576" 
d="M208 703q15 0 15 -14t-15 -14q-14 0 -14 14t14 14zM367 703q15 0 15 -14t-15 -14q-14 0 -14 14t14 14zM455 518v-518h-12l-1 110q-65 -119 -182 -119q-68 0 -106 41t-38 118v368h14v-368q0 -72 34.5 -109t96.5 -37q112 0 180 124v390h14z" />
    <glyph glyph-name="yacute" unicode="&#xfd;" horiz-adv-x="440" 
d="M295 755l7 -15l-174 -83l-5 10zM414 518l-180 -519q-31 -91 -64.5 -130.5t-109.5 -60.5l-2 11q73 21 102.5 57t60.5 124h-6l-189 518h15l184 -508l174 508h15z" />
    <glyph glyph-name="thorn" unicode="&#xfe;" horiz-adv-x="568" 
d="M307 528q88 0 134.5 -68.5t46.5 -195.5q0 -128 -48 -200.5t-138 -72.5q-103 0 -167 96v-278l-14 -3v926l14 1v-303q69 98 172 98zM302 4q83 0 127 68t44 192q0 122 -42.5 186.5t-123.5 64.5q-55 0 -95 -26t-77 -76v-308q66 -101 167 -101z" />
    <glyph glyph-name="ydieresis" unicode="&#xff;" horiz-adv-x="440" 
d="M140 703q15 0 15 -14t-15 -14q-14 0 -14 14t14 14zM299 703q15 0 15 -14t-15 -14q-14 0 -14 14t14 14zM414 518l-180 -519q-31 -91 -64.5 -130.5t-109.5 -60.5l-2 11q73 21 102.5 57t60.5 124h-6l-189 518h15l184 -508l174 508h15z" />
    <glyph glyph-name="Amacron" unicode="&#x100;" horiz-adv-x="557" 
d="M378 826v-14h-200v14h200zM511 0l-72 207h-322l-72 -207h-14l238 681h18l239 -681h-15zM122 221h312l-156 448z" />
    <glyph glyph-name="amacron" unicode="&#x101;" horiz-adv-x="526" 
d="M352 700v-14h-200v14h200zM404 110q0 -53 10.5 -76.5t38.5 -32.5l-3 -10q-32 10 -45 33.5t-13 71.5q-57 -105 -171 -105q-72 0 -112.5 42t-40.5 112q0 76 54 118.5t147 42.5h121v65q0 72 -31 108t-104 36q-65 0 -145 -33l-4 12q82 34 149 34q149 0 149 -156v-262zM221 4
q114 0 169 110v179h-118q-89 0 -139 -38.5t-50 -109.5q0 -65 36.5 -103t101.5 -38z" />
    <glyph glyph-name="Abreve" unicode="&#x102;" horiz-adv-x="557" 
d="M278 772q-40 0 -67.5 20.5t-35.5 49.5l11 2q9 -26 33.5 -42t58.5 -16q71 0 93 58l11 -2q-9 -29 -36.5 -49.5t-67.5 -20.5zM511 0l-72 207h-322l-72 -207h-14l238 681h18l239 -681h-15zM122 221h312l-156 448z" />
    <glyph glyph-name="abreve" unicode="&#x103;" horiz-adv-x="526" 
d="M252 664q-41 0 -68 22t-35 57l11 3q19 -69 92 -69t93 69l11 -3q-9 -35 -36 -57t-68 -22zM404 110q0 -53 10.5 -76.5t38.5 -32.5l-3 -10q-32 10 -45 33.5t-13 71.5q-57 -105 -171 -105q-72 0 -112.5 42t-40.5 112q0 76 54 118.5t147 42.5h121v65q0 72 -31 108t-104 36
q-65 0 -145 -33l-4 12q82 34 149 34q149 0 149 -156v-262zM221 4q114 0 169 110v179h-118q-89 0 -139 -38.5t-50 -109.5q0 -65 36.5 -103t101.5 -38z" />
    <glyph glyph-name="Aogonek" unicode="&#x104;" horiz-adv-x="557" 
d="M526 0q-60 -25 -94.5 -52t-34.5 -68q0 -31 19 -48t53 -17q24 0 55 7l-2 -14q-29 -7 -53 -7q-42 0 -64.5 21t-22.5 57q0 73 128 124l-71 204h-322l-72 -207h-14l238 681h18zM122 221h312l-156 448z" />
    <glyph glyph-name="aogonek" unicode="&#x105;" horiz-adv-x="526" 
d="M449 -9q-60 -25 -94.5 -52t-34.5 -68q0 -31 19 -48t53 -17q24 0 55 7l-2 -14q-29 -7 -53 -7q-42 0 -64.5 21t-22.5 57q0 42 35 71.5t96 54.5q-24 11 -34 34t-10 66q-57 -105 -171 -105q-72 0 -112.5 42t-40.5 112q0 76 54 118.5t147 42.5h121v65q0 72 -31 108t-104 36
q-65 0 -145 -33l-4 12q82 34 149 34q149 0 149 -156v-262q0 -53 10.5 -76.5t38.5 -32.5l-3 -10h-1zM221 4q114 0 169 110v179h-118q-89 0 -139 -38.5t-50 -109.5q0 -65 36.5 -103t101.5 -38z" />
    <glyph glyph-name="Cacute" unicode="&#x106;" horiz-adv-x="535" 
d="M423 854l7 -15l-174 -72l-4 10zM343 691q90 0 157 -58l-7 -11q-66 55 -149 55q-112 0 -180 -85t-68 -252q0 -161 67.5 -248t178.5 -87q88 0 158 58l9 -11q-71 -61 -168 -61q-117 0 -188.5 91.5t-71.5 257.5q0 171 72 261t190 90z" />
    <glyph glyph-name="cacute" unicode="&#x107;" horiz-adv-x="466" 
d="M350 755l7 -15l-174 -83l-5 10zM283 528q76 0 132 -50l-9 -9q-49 46 -123 46q-88 0 -140 -68t-52 -191q0 -120 53 -186t138 -66q76 0 129 50l9 -10q-58 -53 -137 -53q-93 0 -150 70t-57 195q0 127 55.5 199.5t151.5 72.5z" />
    <glyph glyph-name="Ccircumflex" unicode="&#x108;" horiz-adv-x="535" 
d="M454 768l-112 78l-111 -78l-8 8l115 86h8l115 -86zM343 691q90 0 157 -58l-7 -11q-66 55 -149 55q-112 0 -180 -85t-68 -252q0 -161 67.5 -248t178.5 -87q88 0 158 58l9 -11q-71 -61 -168 -61q-117 0 -188.5 91.5t-71.5 257.5q0 171 72 261t190 90z" />
    <glyph glyph-name="ccircumflex" unicode="&#x109;" horiz-adv-x="466" 
d="M163 656l-8 8l115 91h8l115 -91l-7 -8l-112 84zM283 528q76 0 132 -50l-9 -9q-49 46 -123 46q-88 0 -140 -68t-52 -191q0 -120 53 -186t138 -66q76 0 129 50l9 -10q-58 -53 -137 -53q-93 0 -150 70t-57 195q0 127 55.5 199.5t151.5 72.5z" />
    <glyph glyph-name="Cdotaccent" unicode="&#x10a;" horiz-adv-x="535" 
d="M343 843q14 0 14 -14q0 -15 -14 -15q-15 0 -15 15q0 14 15 14zM343 691q90 0 157 -58l-7 -11q-66 55 -149 55q-112 0 -180 -85t-68 -252q0 -161 67.5 -248t178.5 -87q88 0 158 58l9 -11q-71 -61 -168 -61q-117 0 -188.5 91.5t-71.5 257.5q0 171 72 261t190 90z" />
    <glyph glyph-name="cdotaccent" unicode="&#x10b;" horiz-adv-x="466" 
d="M275 717q14 0 14 -14q0 -15 -14 -15q-15 0 -15 15q0 14 15 14zM283 528q76 0 132 -50l-9 -9q-49 46 -123 46q-88 0 -140 -68t-52 -191q0 -120 53 -186t138 -66q76 0 129 50l9 -10q-58 -53 -137 -53q-93 0 -150 70t-57 195q0 127 55.5 199.5t151.5 72.5z" />
    <glyph glyph-name="Ccaron" unicode="&#x10c;" horiz-adv-x="535" 
d="M454 856l7 -9l-115 -85h-8l-115 85l8 9l111 -79zM343 691q90 0 157 -58l-7 -11q-66 55 -149 55q-112 0 -180 -85t-68 -252q0 -161 67.5 -248t178.5 -87q88 0 158 58l9 -11q-71 -61 -168 -61q-117 0 -188.5 91.5t-71.5 257.5q0 171 72 261t190 90z" />
    <glyph glyph-name="ccaron" unicode="&#x10d;" horiz-adv-x="466" 
d="M387 743l7 -8l-115 -91h-8l-115 91l8 8l111 -84zM283 528q76 0 132 -50l-9 -9q-49 46 -123 46q-88 0 -140 -68t-52 -191q0 -120 53 -186t138 -66q76 0 129 50l9 -10q-58 -53 -137 -53q-93 0 -150 70t-57 195q0 127 55.5 199.5t151.5 72.5z" />
    <glyph glyph-name="Dcaron" unicode="&#x10e;" horiz-adv-x="617" 
d="M404 856l7 -9l-115 -85h-8l-115 85l8 9l111 -79zM240 681q60 0 108 -13.5t93 -48t70 -103t25 -168.5q0 -81 -17.5 -144t-45 -100.5t-66.5 -61.5t-78 -33t-83 -9h-120v681h114zM239 667h-99v-653h106q55 0 100.5 15t86.5 50t64.5 103.5t23.5 165.5q0 79 -16.5 137.5
t-42.5 92.5t-65 54.5t-76 27.5t-82 7z" />
    <glyph glyph-name="dcaron" unicode="&#x10f;" horiz-adv-x="573" 
d="M439 437v296l14 -1v-732h-13l-1 94q-57 -103 -168 -103q-87 0 -138.5 70.5t-51.5 195.5q0 123 53 197t146 74q105 0 159 -91zM549 733l15 -2l-23 -141l-11 1zM271 4q61 0 100 28.5t68 83.5v303q-57 96 -158 96q-85 0 -135.5 -70t-50.5 -188q1 -120 48 -186.5t128 -66.5z
" />
    <glyph glyph-name="Dcroat" unicode="&#x110;" horiz-adv-x="613" 
d="M237 681q60 0 108 -13.5t92.5 -48t69.5 -103t25 -168.5q0 -81 -17.5 -144t-45 -100.5t-66.5 -61.5t-78 -33t-83 -9h-120v346h-94v14h94v321h115zM242 14q55 0 100.5 15t86.5 50t64.5 103.5t23.5 165.5q0 79 -16.5 137.5t-42.5 92.5t-65 54.5t-76 27.5t-82 7h-99v-307h194
v-14h-194v-332h106z" />
    <glyph glyph-name="dcroat" unicode="&#x111;" horiz-adv-x="578" 
d="M453 645h75v-13h-75v-632h-13l-1 94q-57 -103 -168 -103q-87 0 -138.5 70.5t-51.5 195.5q0 123 53 197t146 74q105 0 159 -91v195h-176v13h176v88l14 -1v-87zM271 4q61 0 100 28.5t68 83.5v303q-57 96 -158 96q-85 0 -135.5 -70t-50.5 -188q1 -120 48 -186.5t128 -66.5z
" />
    <glyph glyph-name="Emacron" unicode="&#x112;" horiz-adv-x="494" 
d="M386 812h-200v14h200v-14zM440 681l-2 -14h-298v-300h257v-13h-257v-340h308v-14h-322v681h314z" />
    <glyph glyph-name="emacron" unicode="&#x113;" horiz-adv-x="528" 
d="M375 700v-14h-200v14h200zM458 286q0 -15 -2 -37h-366q2 -119 53 -182t136 -63q80 0 149 57l8 -10q-73 -60 -157 -60q-94 0 -148.5 69t-54.5 194q0 128 53.5 201t144.5 73t137.5 -66t46.5 -176zM443 261q1 10 1 30q0 101 -42.5 162.5t-126.5 61.5q-83 0 -133.5 -66
t-51.5 -188h353z" />
    <glyph glyph-name="Ebreve" unicode="&#x114;" horiz-adv-x="494" 
d="M285 772q-40 0 -67.5 20.5t-35.5 49.5l11 2q9 -26 33.5 -42t58.5 -16q71 0 93 58l11 -2q-9 -29 -36.5 -49.5t-67.5 -20.5zM440 681l-2 -14h-298v-300h257v-13h-257v-340h308v-14h-322v681h314z" />
    <glyph glyph-name="ebreve" unicode="&#x115;" horiz-adv-x="528" 
d="M275 664q-41 0 -68 22t-35 57l11 3q19 -69 92 -69t93 69l11 -3q-9 -35 -36 -57t-68 -22zM458 286q0 -15 -2 -37h-366q2 -119 53 -182t136 -63q80 0 149 57l8 -10q-73 -60 -157 -60q-94 0 -148.5 69t-54.5 194q0 128 53.5 201t144.5 73t137.5 -66t46.5 -176zM443 261
q1 10 1 30q0 101 -42.5 162.5t-126.5 61.5q-83 0 -133.5 -66t-51.5 -188h353z" />
    <glyph glyph-name="Edotaccent" unicode="&#x116;" horiz-adv-x="494" 
d="M286 843q14 0 14 -14q0 -15 -14 -15q-15 0 -15 15q0 14 15 14zM440 681l-2 -14h-298v-300h257v-13h-257v-340h308v-14h-322v681h314z" />
    <glyph glyph-name="edotaccent" unicode="&#x117;" horiz-adv-x="528" 
d="M276 688q-15 0 -15 15q0 14 15 14q14 0 14 -14q0 -15 -14 -15zM458 286q0 -15 -2 -37h-366q2 -119 53 -182t136 -63q80 0 149 57l8 -10q-73 -60 -157 -60q-94 0 -148.5 69t-54.5 194q0 128 53.5 201t144.5 73t137.5 -66t46.5 -176zM443 261q1 10 1 30q0 101 -42.5 162.5
t-126.5 61.5q-83 0 -133.5 -66t-51.5 -188h353z" />
    <glyph glyph-name="Eogonek" unicode="&#x118;" horiz-adv-x="494" 
d="M140 14h308v-14h-28q-60 -25 -94.5 -52t-34.5 -68q0 -31 19 -48t53 -17q24 0 55 7l-2 -14q-29 -7 -53 -7q-42 0 -64.5 21t-22.5 57q0 71 119 121h-269v681h314l-2 -14h-298v-300h257v-13h-257v-340z" />
    <glyph glyph-name="eogonek" unicode="&#x119;" horiz-adv-x="528" 
d="M458 286q0 -15 -2 -37h-366q2 -119 53 -182t136 -63q80 0 149 57l8 -10q-45 -37 -82 -49q-58 -24 -91.5 -51t-33.5 -67q0 -31 19.5 -48t54.5 -17q22 0 53 7l-2 -14q-29 -7 -53 -7q-42 0 -64.5 21t-22.5 57q0 64 96 109q-10 -1 -31 -1q-94 0 -148.5 69t-54.5 194
q0 128 53.5 201t144.5 73t137.5 -66t46.5 -176zM443 261q1 10 1 30q0 101 -42.5 162.5t-126.5 61.5q-83 0 -133.5 -66t-51.5 -188h353z" />
    <glyph glyph-name="Ecaron" unicode="&#x11a;" horiz-adv-x="494" 
d="M397 856l7 -9l-115 -85h-8l-115 85l8 9l111 -79zM440 681l-2 -14h-298v-300h257v-13h-257v-340h308v-14h-322v681h314z" />
    <glyph glyph-name="ecaron" unicode="&#x11b;" horiz-adv-x="528" 
d="M279 644h-8l-115 91l8 8l111 -84l112 84l7 -8zM458 286q0 -15 -2 -37h-366q2 -119 53 -182t136 -63q80 0 149 57l8 -10q-73 -60 -157 -60q-94 0 -148.5 69t-54.5 194q0 128 53.5 201t144.5 73t137.5 -66t46.5 -176zM443 261q1 10 1 30q0 101 -42.5 162.5t-126.5 61.5
q-83 0 -133.5 -66t-51.5 -188h353z" />
    <glyph glyph-name="Gcircumflex" unicode="&#x11c;" horiz-adv-x="603" 
d="M454 768l-112 78l-111 -78l-8 8l115 86h8l115 -86zM345 691q89 0 165 -58l-9 -10q-69 54 -156 54q-101 0 -175 -85t-74 -247q0 -166 68.5 -253.5t188.5 -87.5q85 0 160 44v288h-148l-2 13h164v-309q-82 -49 -174 -49q-125 0 -198.5 91.5t-73.5 262.5q0 85 23 153t61 109
t84 62.5t96 21.5z" />
    <glyph glyph-name="gcircumflex" unicode="&#x11d;" horiz-adv-x="488" 
d="M133 656l-8 8l115 91h8l115 -91l-7 -8l-112 84zM463 548l4 -15q-51 -16 -167 -16q58 -13 89.5 -54.5t31.5 -106.5q0 -77 -47 -120.5t-128 -43.5q-41 0 -78 16q-54 -32 -54 -79q0 -68 103 -68h89q71 0 110.5 -32.5t39.5 -86.5q0 -137 -204 -137q-108 0 -155.5 31
t-47.5 105h14q0 -68 43.5 -95.5t145.5 -27.5q189 0 189 123q0 50 -36 78.5t-100 28.5h-88q-56 0 -86.5 21.5t-30.5 57.5q0 49 57 86q-88 46 -88 145q0 76 48 123t125 47q73 0 117.5 3t61.5 6.5t42 10.5zM243 516q-74 0 -116.5 -43.5t-42.5 -114.5q0 -73 47.5 -113t114.5 -40
q74 0 117 39.5t43 111.5q0 78 -45 119t-118 41z" />
    <glyph glyph-name="Gbreve" unicode="&#x11e;" horiz-adv-x="603" 
d="M342 772q-40 0 -67.5 20.5t-35.5 49.5l11 2q9 -26 33.5 -42t58.5 -16q71 0 93 58l11 -2q-9 -29 -36.5 -49.5t-67.5 -20.5zM345 691q89 0 165 -58l-9 -10q-69 54 -156 54q-101 0 -175 -85t-74 -247q0 -166 68.5 -253.5t188.5 -87.5q85 0 160 44v288h-148l-2 13h164v-309
q-82 -49 -174 -49q-125 0 -198.5 91.5t-73.5 262.5q0 85 23 153t61 109t84 62.5t96 21.5z" />
    <glyph glyph-name="gbreve" unicode="&#x11f;" horiz-adv-x="488" 
d="M244 664q-41 0 -68 22t-35 57l11 3q19 -69 92 -69t93 69l11 -3q-9 -35 -36 -57t-68 -22zM463 548l4 -15q-51 -16 -167 -16q58 -13 89.5 -54.5t31.5 -106.5q0 -77 -47 -120.5t-128 -43.5q-41 0 -78 16q-54 -32 -54 -79q0 -68 103 -68h89q71 0 110.5 -32.5t39.5 -86.5
q0 -137 -204 -137q-108 0 -155.5 31t-47.5 105h14q0 -68 43.5 -95.5t145.5 -27.5q189 0 189 123q0 50 -36 78.5t-100 28.5h-88q-56 0 -86.5 21.5t-30.5 57.5q0 49 57 86q-88 46 -88 145q0 76 48 123t125 47q73 0 117.5 3t61.5 6.5t42 10.5zM243 516q-74 0 -116.5 -43.5
t-42.5 -114.5q0 -73 47.5 -113t114.5 -40q74 0 117 39.5t43 111.5q0 78 -45 119t-118 41z" />
    <glyph glyph-name="Gdotaccent" unicode="&#x120;" horiz-adv-x="603" 
d="M343 843q14 0 14 -14q0 -15 -14 -15q-15 0 -15 15q0 14 15 14zM345 691q89 0 165 -58l-9 -10q-69 54 -156 54q-101 0 -175 -85t-74 -247q0 -166 68.5 -253.5t188.5 -87.5q85 0 160 44v288h-148l-2 13h164v-309q-82 -49 -174 -49q-125 0 -198.5 91.5t-73.5 262.5
q0 85 23 153t61 109t84 62.5t96 21.5z" />
    <glyph glyph-name="gdotaccent" unicode="&#x121;" horiz-adv-x="488" 
d="M245 717q14 0 14 -14q0 -15 -14 -15q-15 0 -15 15q0 14 15 14zM463 548l4 -15q-51 -16 -167 -16q58 -13 89.5 -54.5t31.5 -106.5q0 -77 -47 -120.5t-128 -43.5q-41 0 -78 16q-54 -32 -54 -79q0 -68 103 -68h89q71 0 110.5 -32.5t39.5 -86.5q0 -137 -204 -137
q-108 0 -155.5 31t-47.5 105h14q0 -68 43.5 -95.5t145.5 -27.5q189 0 189 123q0 50 -36 78.5t-100 28.5h-88q-56 0 -86.5 21.5t-30.5 57.5q0 49 57 86q-88 46 -88 145q0 76 48 123t125 47q73 0 117.5 3t61.5 6.5t42 10.5zM243 516q-74 0 -116.5 -43.5t-42.5 -114.5
q0 -73 47.5 -113t114.5 -40q74 0 117 39.5t43 111.5q0 78 -45 119t-118 41z" />
    <glyph glyph-name="Gcommaaccent" unicode="&#x122;" horiz-adv-x="603" 
d="M345 691q89 0 165 -58l-9 -10q-69 54 -156 54q-101 0 -175 -85t-74 -247q0 -166 68.5 -253.5t188.5 -87.5q85 0 160 44v288h-148l-2 13h164v-309q-82 -49 -174 -49q-125 0 -198.5 91.5t-73.5 262.5q0 85 23 153t61 109t84 62.5t96 21.5zM342 -100q17 0 17 -16
q0 -8 -9 -29l-31 -105h-9l27 118q-12 3 -12 16q0 16 17 16z" />
    <glyph glyph-name="gcommaaccent" unicode="&#x123;" horiz-adv-x="488" 
d="M243 595q-17 0 -17 16q0 8 9 29l31 105h9l-27 -118q12 -3 12 -16q0 -16 -17 -16zM463 548l4 -15q-51 -16 -167 -16q58 -13 89.5 -54.5t31.5 -106.5q0 -77 -47 -120.5t-128 -43.5q-41 0 -78 16q-54 -32 -54 -79q0 -68 103 -68h89q71 0 110.5 -32.5t39.5 -86.5
q0 -137 -204 -137q-108 0 -155.5 31t-47.5 105h14q0 -68 43.5 -95.5t145.5 -27.5q189 0 189 123q0 50 -36 78.5t-100 28.5h-88q-56 0 -86.5 21.5t-30.5 57.5q0 49 57 86q-88 46 -88 145q0 76 48 123t125 47q73 0 117.5 3t61.5 6.5t42 10.5zM243 516q-74 0 -116.5 -43.5
t-42.5 -114.5q0 -73 47.5 -113t114.5 -40q74 0 117 39.5t43 111.5q0 78 -45 119t-118 41z" />
    <glyph glyph-name="Hcircumflex" unicode="&#x124;" horiz-adv-x="657" 
d="M439 768l-112 78l-111 -78l-8 8l115 86h8l115 -86zM517 0v354h-377v-354h-14v681h14v-314h377v314h15v-681h-15z" />
    <glyph glyph-name="hcircumflex" unicode="&#x125;" horiz-adv-x="581" 
d="M294 895l-111 -78l-8 8l115 86h8l115 -86l-7 -8zM329 528q68 0 102 -41.5t34 -117.5v-369h-14v367q0 149 -123 149q-113 0 -193 -131v-385h-14v732l14 2v-330q77 124 194 124z" />
    <glyph glyph-name="Hbar" unicode="&#x126;" horiz-adv-x="665" 
d="M592 534v-11h-56v-523h-14v354h-377v-354h-15v523h-57v11h57v147h15v-147h377v147h14v-147h56zM522 367v156h-377v-156h377z" />
    <glyph glyph-name="hbar" unicode="&#x127;" horiz-adv-x="586" 
d="M334 528q68 0 102 -41.5t34 -117.5v-369h-14v367q0 149 -123 149q-113 0 -193 -131v-385h-14v632h-75v13h75v87l14 2v-89h186v-13h-186v-227q77 123 194 123z" />
    <glyph glyph-name="Itilde" unicode="&#x128;" horiz-adv-x="266" 
d="M189 807q-24 0 -61 22t-54 22q-30 0 -61 -35l-9 5q34 43 70 43q20 0 57 -22t58 -22q33 0 62 40l9 -6q-30 -47 -71 -47zM140 681v-681h-14v681h14z" />
    <glyph glyph-name="itilde" unicode="&#x129;" horiz-adv-x="255" 
d="M186 681q-24 0 -61 22t-54 22q-30 0 -61 -35l-9 5q34 43 70 43q20 0 57 -22t58 -22q33 0 62 40l9 -6q-30 -47 -71 -47zM135 518v-518h-14v518h14z" />
    <glyph glyph-name="Imacron" unicode="&#x12a;" horiz-adv-x="266" 
d="M233 812h-200v14h200v-14zM140 681v-681h-14v681h14z" />
    <glyph glyph-name="imacron" unicode="&#x12b;" horiz-adv-x="255" 
d="M228 686h-200v14h200v-14zM135 518v-518h-14v518h14z" />
    <glyph glyph-name="Ibreve" unicode="&#x12c;" horiz-adv-x="266" 
d="M132 772q-40 0 -67.5 20.5t-35.5 49.5l11 2q9 -26 33.5 -42t58.5 -16q71 0 93 58l11 -2q-9 -29 -36.5 -49.5t-67.5 -20.5zM140 681v-681h-14v681h14z" />
    <glyph glyph-name="ibreve" unicode="&#x12d;" horiz-adv-x="255" 
d="M127 664q-41 0 -68 22t-35 57l11 3q19 -69 92 -69t93 69l11 -3q-9 -35 -36 -57t-68 -22zM135 518v-518h-14v518h14z" />
    <glyph glyph-name="Iogonek" unicode="&#x12e;" horiz-adv-x="266" 
d="M126 681h14v-681q-60 -25 -94.5 -52t-34.5 -68q0 -31 19 -48t53 -17q24 0 55 7l-2 -14q-29 -7 -53 -7q-42 0 -64.5 21t-22.5 57q0 74 130 125v677z" />
    <glyph glyph-name="iogonek" unicode="&#x12f;" horiz-adv-x="255" 
d="M128 717q14 0 14 -14q0 -15 -14 -15q-15 0 -15 15q0 14 15 14zM121 5v513h14v-518h-1q-60 -25 -94.5 -52t-34.5 -68q0 -31 19 -48t53 -17q24 0 55 7l-2 -14q-29 -7 -53 -7q-42 0 -64.5 21t-22.5 57q0 42 35 71.5t96 54.5z" />
    <glyph glyph-name="Idotaccent" unicode="&#x130;" horiz-adv-x="266" 
d="M133 843q14 0 14 -14q0 -15 -14 -15q-15 0 -15 15q0 14 15 14zM140 681v-681h-14v681h14z" />
    <glyph glyph-name="dotlessi" unicode="&#x131;" horiz-adv-x="255" 
d="M135 518v-518h-14v518h14z" />
    <glyph glyph-name="IJ" unicode="&#x132;" horiz-adv-x="542" 
d="M422 681v-595q0 -74 -24.5 -112t-101.5 -71l-4 11q70 31 93 66.5t23 106.5v594h14zM140 681v-681h-14v681h14z" />
    <glyph glyph-name="ij" unicode="&#x133;" horiz-adv-x="511" 
d="M128 717q14 0 14 -14q0 -15 -14 -15q-15 0 -15 15q0 14 15 14zM383 717q14 0 14 -14q0 -15 -14 -15q-15 0 -15 15q0 14 15 14zM135 518v-518h-14v518h14zM390 518v-514q0 -61 -12 -98.5t-33 -57.5t-61 -41l-5 10q55 29 76 66t21 121v514h14z" />
    <glyph glyph-name="Jcircumflex" unicode="&#x134;" horiz-adv-x="276" 
d="M260 768l-112 78l-111 -78l-8 8l115 86h8l115 -86zM156 681v-595q0 -74 -24.5 -112t-101.5 -71l-4 11q70 31 93 66.5t23 106.5v594h14z" />
    <glyph glyph-name="jcircumflex" unicode="&#x135;" horiz-adv-x="256" 
d="M16 656l-8 8l115 91h8l115 -91l-7 -8l-112 84zM135 518v-514q0 -61 -12 -98.5t-33 -57.5t-61 -41l-5 10q55 29 76 66t21 121v514h14z" />
    <glyph glyph-name="Kcommaaccent" unicode="&#x136;" horiz-adv-x="508" 
d="M140 681v-680h-14v680h14zM483 681l-321 -315l337 -366h-18l-338 366l323 315h17zM295 -100q17 0 17 -16q0 -8 -9 -29l-31 -105h-9l27 118q-12 3 -12 16q0 16 17 16z" />
    <glyph glyph-name="kcommaaccent" unicode="&#x137;" horiz-adv-x="457" 
d="M135 733v-733h-14v732zM411 518l-252 -234l277 -284h-17l-278 283l252 235h18zM273 -100q17 0 17 -16q0 -8 -9 -29l-31 -105h-9l27 118q-12 3 -12 16q0 16 17 16z" />
    <glyph glyph-name="kgreenlandic" unicode="&#x138;" horiz-adv-x="456" 
d="M135 518v-518h-14v518h14zM409 518l-251 -244l277 -274h-17l-278 273l251 245h18z" />
    <glyph glyph-name="Lacute" unicode="&#x139;" horiz-adv-x="451" 
d="M213 854l7 -15l-174 -72l-4 10zM140 681v-667h289l-3 -14h-300v681h14z" />
    <glyph glyph-name="lacute" unicode="&#x13a;" horiz-adv-x="276" 
d="M203 905l7 -15l-174 -72l-4 10zM183 -9q-67 0 -67 78v663l14 1v-664q0 -65 53 -65q21 0 40 8l4 -12q-18 -9 -44 -9z" />
    <glyph glyph-name="Lcommaaccent" unicode="&#x13b;" horiz-adv-x="451" 
d="M140 681v-667h289l-3 -14h-300v681h14zM282 -100q17 0 17 -16q0 -8 -9 -29l-31 -105h-9l27 118q-12 3 -12 16q0 16 17 16z" />
    <glyph glyph-name="lcommaaccent" unicode="&#x13c;" horiz-adv-x="276" 
d="M183 -9q-67 0 -67 78v663l14 1v-664q0 -65 53 -65q21 0 40 8l4 -12q-18 -9 -44 -9zM181 -100q17 0 17 -16q0 -8 -9 -29l-31 -105h-9l27 118q-12 3 -12 16q0 16 17 16z" />
    <glyph glyph-name="Lcaron" unicode="&#x13d;" horiz-adv-x="451" 
d="M237 684l15 -2l-23 -141l-11 1zM140 681v-667h289l-3 -14h-300v681h14z" />
    <glyph glyph-name="lcaron" unicode="&#x13e;" horiz-adv-x="276" 
d="M183 -9q-67 0 -67 78v663l14 1v-664q0 -65 53 -65q21 0 40 8l4 -12q-18 -9 -44 -9zM232 733l15 -2l-23 -141l-11 1z" />
    <glyph glyph-name="Ldot" unicode="&#x13f;" horiz-adv-x="451" 
d="M140 681v-667h289l-3 -14h-300v681h14zM351 369q14 0 14 -14q0 -15 -14 -15q-15 0 -15 15q0 14 15 14z" />
    <glyph glyph-name="ldot" unicode="&#x140;" horiz-adv-x="275" 
d="M183 -9q-67 0 -67 78v663l14 1v-664q0 -65 53 -65q21 0 40 8l4 -12q-18 -9 -44 -9zM259 389q14 0 14 -14q0 -15 -14 -15q-15 0 -15 15q0 14 15 14z" />
    <glyph glyph-name="Lslash" unicode="&#x141;" horiz-adv-x="455" 
d="M144 14h288l-2 -14h-301v314l-75 -46l-6 10l81 50v353h15v-343l203 126l6 -10l-209 -130v-310z" />
    <glyph glyph-name="lslash" unicode="&#x142;" horiz-adv-x="288" 
d="M190 4q21 0 40 8l4 -12q-20 -9 -45 -9q-67 0 -67 78v283l-67 -42l-6 10l73 46v366l14 1v-358l107 67l6 -11l-113 -70v-292q0 -65 54 -65z" />
    <glyph glyph-name="Nacute" unicode="&#x143;" horiz-adv-x="658" 
d="M415 854l7 -15l-174 -72l-4 10zM533 681v-681h-18l-377 665q2 -60 2 -149v-516h-14v681h18l376 -665q-1 41 -1 161v504h14z" />
    <glyph glyph-name="nacute" unicode="&#x144;" horiz-adv-x="581" 
d="M378 740l-174 -83l-5 10l172 88zM329 528q136 0 136 -159v-369h-14v367q0 149 -123 149q-113 0 -193 -131v-385h-14v518h12l2 -114q77 124 194 124z" />
    <glyph glyph-name="Ncommaaccent" unicode="&#x145;" horiz-adv-x="658" 
d="M533 681v-681h-18l-377 665q2 -60 2 -149v-516h-14v681h18l376 -665q-1 41 -1 161v504h14zM330 -100q17 0 17 -16q0 -8 -9 -29l-31 -105h-9l27 118q-12 3 -12 16q0 16 17 16z" />
    <glyph glyph-name="ncommaaccent" unicode="&#x146;" horiz-adv-x="581" 
d="M329 528q136 0 136 -159v-369h-14v367q0 149 -123 149q-113 0 -193 -131v-385h-14v518h12l2 -114q77 124 194 124zM293 -100q17 0 17 -16q0 -8 -9 -29l-31 -105h-9l27 118q-12 3 -12 16q0 16 17 16z" />
    <glyph glyph-name="Ncaron" unicode="&#x147;" horiz-adv-x="658" 
d="M446 856l7 -9l-115 -85h-8l-115 85l8 9l111 -79zM533 681v-681h-18l-377 665q2 -60 2 -149v-516h-14v681h18l376 -665q-1 41 -1 161v504h14z" />
    <glyph glyph-name="ncaron" unicode="&#x148;" horiz-adv-x="581" 
d="M300 644h-8l-115 91l8 8l111 -84l112 84l7 -8zM329 528q136 0 136 -159v-369h-14v367q0 149 -123 149q-113 0 -193 -131v-385h-14v518h12l2 -114q77 124 194 124z" />
    <glyph glyph-name="napostrophe" unicode="&#x149;" horiz-adv-x="637" 
d="M94 735q17 0 17 -16q0 -3 -9 -29l-28 -107h-9l24 120q-12 3 -12 16q0 16 17 16zM385 528q136 0 136 -159v-369h-14v367q0 149 -123 149q-113 0 -193 -131v-385h-14v518h12l2 -114q75 124 194 124z" />
    <glyph glyph-name="Eng" unicode="&#x14a;" horiz-adv-x="658" 
d="M533 -91q0 -50 -25.5 -77t-67.5 -27q-47 0 -84 29l7 10q35 -26 77 -26q36 0 57 23t21 69v90h-3l-377 665q2 -60 2 -149v-516h-14v681h18l376 -665q-1 41 -1 161v504h14v-772z" />
    <glyph glyph-name="eng" unicode="&#x14b;" horiz-adv-x="581" 
d="M465 369v-460q0 -50 -25 -77t-68 -27q-47 0 -84 29l7 10q33 -26 77 -26q36 0 57.5 22.5t21.5 69.5v457q0 149 -123 149q-113 0 -193 -131v-385h-14v518h12l2 -114q77 124 194 124q136 0 136 -159z" />
    <glyph glyph-name="Omacron" unicode="&#x14c;" horiz-adv-x="688" 
d="M444 812h-200v14h200v-14zM344 691q122 0 193 -92t71 -259q0 -165 -69.5 -257t-194.5 -92q-121 0 -192 91.5t-71 255.5t72 258.5t191 94.5zM344 677q-114 0 -181 -89.5t-67 -249.5q0 -158 67 -246t181 -88q119 0 184 87.5t65 248.5q0 162 -66.5 249.5t-182.5 87.5z" />
    <glyph glyph-name="omacron" unicode="&#x14d;" 
d="M380 686h-200v14h200v-14zM281 528q95 0 149 -70t54 -196q0 -129 -55 -200t-150 -71t-149 71t-54 196q0 128 55.5 199t149.5 71zM281 515q-88 0 -139.5 -67t-51.5 -190q0 -120 50.5 -187t138.5 -67q89 0 140 67.5t51 190.5q0 120 -50.5 186.5t-138.5 66.5z" />
    <glyph glyph-name="Obreve" unicode="&#x14e;" horiz-adv-x="688" 
d="M344 772q-40 0 -67.5 20.5t-35.5 49.5l11 2q9 -26 33.5 -42t58.5 -16q71 0 93 58l11 -2q-9 -29 -36.5 -49.5t-67.5 -20.5zM344 691q122 0 193 -92t71 -259q0 -165 -69.5 -257t-194.5 -92q-121 0 -192 91.5t-71 255.5t72 258.5t191 94.5zM344 677q-114 0 -181 -89.5
t-67 -249.5q0 -158 67 -246t181 -88q119 0 184 87.5t65 248.5q0 162 -66.5 249.5t-182.5 87.5z" />
    <glyph glyph-name="obreve" unicode="&#x14f;" 
d="M280 664q-41 0 -68 22t-35 57l11 3q19 -69 92 -69t93 69l11 -3q-9 -35 -36 -57t-68 -22zM281 528q95 0 149 -70t54 -196q0 -129 -55 -200t-150 -71t-149 71t-54 196q0 128 55.5 199t149.5 71zM281 515q-88 0 -139.5 -67t-51.5 -190q0 -120 50.5 -187t138.5 -67
q89 0 140 67.5t51 190.5q0 120 -50.5 186.5t-138.5 66.5z" />
    <glyph glyph-name="Ohungarumlaut" unicode="&#x150;" horiz-adv-x="688" 
d="M452 915l15 -8l-73 -125l-11 5zM344 913l15 -8l-67 -120l-11 5zM344 691q122 0 193 -92t71 -259q0 -165 -69.5 -257t-194.5 -92q-121 0 -192 91.5t-71 255.5t72 258.5t191 94.5zM344 677q-114 0 -181 -89.5t-67 -249.5q0 -158 67 -246t181 -88q119 0 184 87.5t65 248.5
q0 162 -66.5 249.5t-182.5 87.5z" />
    <glyph glyph-name="ohungarumlaut" unicode="&#x151;" 
d="M389 789l15 -8l-73 -125l-11 5zM281 787l15 -8l-67 -120l-11 5zM281 528q95 0 149 -70t54 -196q0 -129 -55 -200t-150 -71t-149 71t-54 196q0 128 55.5 199t149.5 71zM281 515q-88 0 -139.5 -67t-51.5 -190q0 -120 50.5 -187t138.5 -67q89 0 140 67.5t51 190.5
q0 120 -50.5 186.5t-138.5 66.5z" />
    <glyph glyph-name="OE" unicode="&#x152;" horiz-adv-x="842" 
d="M797 14v-14h-403q-30 -9 -65 -9q-113 0 -180.5 92t-67.5 255q0 164 68.5 258.5t179.5 94.5q36 0 68 -10h391l-1 -14h-356q71 -32 110 -110t41 -190h163v-13h-163q-1 -275 -154 -340h369zM96 338q0 -158 63.5 -246t169.5 -88q114 0 176 90t62 262q0 151 -64 236t-174 85
q-105 0 -169 -89.5t-64 -249.5z" />
    <glyph glyph-name="oe" unicode="&#x153;" horiz-adv-x="922" 
d="M852 286q0 -15 -2 -37h-366q2 -119 53 -182t136 -63q80 0 149 57l8 -10q-73 -60 -157 -60q-77 0 -128.5 48.5t-68.5 136.5q-17 -88 -68.5 -136.5t-128.5 -48.5q-95 0 -149 71t-54 196q0 128 55.5 199t149.5 71q78 0 129 -49t67 -138q17 88 67 137.5t124 49.5
q91 0 137.5 -66t46.5 -176zM279 4q89 0 140 67.5t51 190.5q0 120 -50.5 186.5t-138.5 66.5t-139.5 -67t-51.5 -190q0 -120 50.5 -187t138.5 -67zM837 261q1 10 1 30q0 101 -42.5 162.5t-126.5 61.5q-83 0 -133.5 -66t-51.5 -188h353z" />
    <glyph glyph-name="Racute" unicode="&#x154;" horiz-adv-x="568" 
d="M372 839l-174 -72l-4 10l171 77zM501 0l-189 328h-172v-328h-14v681h144q221 0 221 -176q0 -81 -45 -123.5t-118 -51.5l191 -330h-18zM140 342h155q81 0 131 40t50 123q0 80 -48.5 121t-159.5 41h-128v-325z" />
    <glyph glyph-name="racute" unicode="&#x155;" horiz-adv-x="362" 
d="M312 740l-174 -83l-5 10l172 88zM293 528q28 0 48 -5l-2 -13q-20 6 -46 6q-60 0 -96.5 -38.5t-61.5 -124.5v-353h-14v518h12v-134q23 76 61 110t99 34z" />
    <glyph glyph-name="Rcommaaccent" unicode="&#x156;" horiz-adv-x="568" 
d="M328 330l191 -330h-18l-189 328h-172v-328h-14v681h144q221 0 221 -176q0 -81 -45 -123.5t-118 -51.5zM140 342h155q81 0 131 40t50 123q0 80 -48.5 121t-159.5 41h-128v-325zM307 -100q17 0 17 -16q0 -8 -9 -29l-31 -105h-9l27 118q-12 3 -12 16q0 16 17 16z" />
    <glyph glyph-name="rcommaaccent" unicode="&#x157;" horiz-adv-x="362" 
d="M293 528q28 0 48 -5l-2 -13q-20 6 -46 6q-60 0 -96.5 -38.5t-61.5 -124.5v-353h-14v518h12v-134q23 76 61 110t99 34zM132 -100q17 0 17 -16q0 -8 -9 -29l-31 -105h-9l27 118q-12 3 -12 16q0 16 17 16z" />
    <glyph glyph-name="Rcaron" unicode="&#x158;" horiz-adv-x="568" 
d="M289 762h-8l-115 85l8 9l111 -79l112 79l7 -9zM501 0l-189 328h-172v-328h-14v681h144q221 0 221 -176q0 -81 -45 -123.5t-118 -51.5l191 -330h-18zM140 342h155q81 0 131 40t50 123q0 80 -48.5 121t-159.5 41h-128v-325z" />
    <glyph glyph-name="rcaron" unicode="&#x159;" horiz-adv-x="362" 
d="M234 644h-8l-115 91l8 8l111 -84l112 84l7 -8zM133 384q23 76 61 110t99 34q28 0 48 -5l-2 -13q-20 6 -46 6q-60 0 -96.5 -38.5t-61.5 -124.5v-353h-14v518h12v-134z" />
    <glyph glyph-name="Sacute" unicode="&#x15a;" horiz-adv-x="537" 
d="M351 854l7 -15l-174 -72l-4 10zM264 691q59 0 99 -17t79 -51l-9 -10q-72 64 -169 64q-75 0 -120.5 -40t-45.5 -101q0 -63 37 -96.5t137 -64.5q104 -32 148 -73.5t44 -121.5q0 -84 -57 -136.5t-148 -52.5q-117 0 -200 80l9 10q82 -77 190 -77q85 0 138 48.5t53 127.5
q0 74 -41 112t-141 70q-105 33 -144.5 70t-39.5 104t50 111t131 44z" />
    <glyph glyph-name="sacute" unicode="&#x15b;" horiz-adv-x="459" 
d="M310 755l7 -15l-174 -83l-5 10zM227 528q86 0 152 -54l-8 -10q-63 51 -144 51q-60 0 -99.5 -31.5t-39.5 -81.5q0 -46 32.5 -72.5t113.5 -48.5q90 -25 124.5 -55.5t34.5 -93.5q0 -64 -46.5 -102.5t-119.5 -38.5q-98 0 -171 66l8 9q37 -31 74 -46.5t89 -15.5
q67 0 109.5 34.5t42.5 93.5q0 58 -32 85.5t-120 52.5q-84 23 -118.5 52t-34.5 81q0 55 44 90t109 35z" />
    <glyph glyph-name="Scircumflex" unicode="&#x15c;" horiz-adv-x="537" 
d="M383 768l-112 78l-111 -78l-8 8l115 86h8l115 -86zM264 691q59 0 99 -17t79 -51l-9 -10q-72 64 -169 64q-75 0 -120.5 -40t-45.5 -101q0 -63 37 -96.5t137 -64.5q104 -32 148 -73.5t44 -121.5q0 -84 -57 -136.5t-148 -52.5q-117 0 -200 80l9 10q82 -77 190 -77
q85 0 138 48.5t53 127.5q0 74 -41 112t-141 70q-105 33 -144.5 70t-39.5 104t50 111t131 44z" />
    <glyph glyph-name="scircumflex" unicode="&#x15d;" horiz-adv-x="459" 
d="M123 656l-8 8l115 91h8l115 -91l-7 -8l-112 84zM227 528q86 0 152 -54l-8 -10q-63 51 -144 51q-60 0 -99.5 -31.5t-39.5 -81.5q0 -46 32.5 -72.5t113.5 -48.5q90 -25 124.5 -55.5t34.5 -93.5q0 -64 -46.5 -102.5t-119.5 -38.5q-98 0 -171 66l8 9q37 -31 74 -46.5
t89 -15.5q67 0 109.5 34.5t42.5 93.5q0 58 -32 85.5t-120 52.5q-84 23 -118.5 52t-34.5 81q0 55 44 90t109 35z" />
    <glyph glyph-name="Scedilla" unicode="&#x15e;" horiz-adv-x="537" 
d="M464 180q0 -83 -56 -135.5t-146 -53.5l-3 -68q91 -5 91 -64q0 -33 -22.5 -50t-55.5 -17q-38 0 -65 17l6 11q25 -15 59 -15q27 0 45 13.5t18 40.5q0 52 -89 53l4 79q-109 3 -191 80l9 10q82 -77 190 -77q85 0 138 48.5t53 127.5q0 74 -41 112t-141 70q-105 33 -144.5 70
t-39.5 104t50 111t131 44q59 0 99 -17t79 -51l-9 -10q-72 64 -169 64q-75 0 -120.5 -40t-45.5 -101q0 -63 37 -96.5t137 -64.5q104 -32 148 -73.5t44 -121.5z" />
    <glyph glyph-name="scedilla" unicode="&#x15f;" horiz-adv-x="459" 
d="M393 132q0 -64 -46 -102.5t-118 -38.5l-3 -68q91 -5 91 -64q0 -33 -22.5 -50t-55.5 -17q-38 0 -65 17l6 11q25 -15 59 -15q27 0 45 13.5t18 40.5q0 52 -89 53l4 79q-89 2 -161 66l8 9q37 -31 74 -46.5t89 -15.5q67 0 109.5 34.5t42.5 93.5q0 58 -32 85.5t-120 52.5
q-84 23 -118.5 52t-34.5 81q0 55 44 90t109 35q86 0 152 -54l-8 -10q-63 51 -144 51q-60 0 -99.5 -31.5t-39.5 -81.5q0 -46 32.5 -72.5t113.5 -48.5q90 -25 124.5 -55.5t34.5 -93.5z" />
    <glyph glyph-name="Scaron" unicode="&#x160;" horiz-adv-x="537" 
d="M383 856l7 -9l-115 -85h-8l-115 85l8 9l111 -79zM264 691q59 0 99 -17t79 -51l-9 -10q-72 64 -169 64q-75 0 -120.5 -40t-45.5 -101q0 -63 37 -96.5t137 -64.5q104 -32 148 -73.5t44 -121.5q0 -84 -57 -136.5t-148 -52.5q-117 0 -200 80l9 10q82 -77 190 -77
q85 0 138 48.5t53 127.5q0 74 -41 112t-141 70q-105 33 -144.5 70t-39.5 104t50 111t131 44z" />
    <glyph glyph-name="scaron" unicode="&#x161;" horiz-adv-x="459" 
d="M347 743l7 -8l-115 -91h-8l-115 91l8 8l111 -84zM227 528q86 0 152 -54l-8 -10q-63 51 -144 51q-60 0 -99.5 -31.5t-39.5 -81.5q0 -46 32.5 -72.5t113.5 -48.5q90 -25 124.5 -55.5t34.5 -93.5q0 -64 -46.5 -102.5t-119.5 -38.5q-98 0 -171 66l8 9q37 -31 74 -46.5
t89 -15.5q67 0 109.5 34.5t42.5 93.5q0 58 -32 85.5t-120 52.5q-84 23 -118.5 52t-34.5 81q0 55 44 90t109 35z" />
    <glyph glyph-name="uni0162" unicode="&#x162;" horiz-adv-x="474" 
d="M244 0l-3 -77q91 -5 91 -64q0 -33 -22.5 -50t-55.5 -17q-38 0 -65 17l6 11q25 -15 59 -15q27 0 45 13.5t18 40.5q0 53 -89 53l6 88h-4v667h-212v14h440l-2 -14h-212v-667z" />
    <glyph glyph-name="uni0163" unicode="&#x163;" horiz-adv-x="323" 
d="M221 -77q91 -5 91 -64q0 -33 -22.5 -50t-55.5 -17q-38 0 -65 17l6 11q25 -15 59 -15q27 0 45 13.5t18 40.5q0 52 -89 53l4 79q-46 3 -72 35t-26 89v391h-86v12h86v133l14 1v-134h145l-2 -12h-143v-390q0 -54 24.5 -83t70.5 -29q49 0 91 26l7 -11q-47 -28 -97 -28z" />
    <glyph glyph-name="Tcaron" unicode="&#x164;" horiz-adv-x="474" 
d="M349 856l7 -9l-115 -85h-8l-115 85l8 9l111 -79zM458 681l-2 -14h-212v-667h-14v667h-212v14h440z" />
    <glyph glyph-name="tcaron" unicode="&#x165;" horiz-adv-x="323" 
d="M227 733l-23 -141l-11 1l19 142zM314 30l7 -11q-47 -28 -98 -28q-52 0 -80.5 32t-28.5 92v391h-86v12h86v133l14 1v-134h145l-2 -12h-143v-390q0 -54 24.5 -83t70.5 -29q49 0 91 26z" />
    <glyph glyph-name="Tbar" unicode="&#x166;" horiz-adv-x="468" 
d="M456 667h-212v-288h124v-14h-124v-365h-14v365h-124v14h124v288h-212v14h440z" />
    <glyph glyph-name="tbar" unicode="&#x167;" horiz-adv-x="323" 
d="M314 30l7 -11q-47 -28 -98 -28q-52 0 -80.5 32t-28.5 92v211h-86v13h86v167h-86v12h86v133l14 1v-134h145l-2 -12h-143v-167h141v-13h-141v-210q0 -54 24.5 -83t70.5 -29q49 0 91 26z" />
    <glyph glyph-name="Utilde" unicode="&#x168;" horiz-adv-x="638" 
d="M376 807q-24 0 -61 22t-54 22q-30 0 -61 -35l-9 5q34 43 70 43q20 0 57 -22t58 -22q33 0 62 40l9 -6q-30 -47 -71 -47zM522 681v-474q0 -99 -49.5 -157.5t-153.5 -58.5q-105 0 -154 58t-49 158v474h14v-473q0 -94 45.5 -149t143.5 -55t143.5 55t45.5 149v473h14z" />
    <glyph glyph-name="utilde" unicode="&#x169;" horiz-adv-x="576" 
d="M347 681q-24 0 -61 22t-54 22q-30 0 -61 -35l-9 5q34 43 70 43q20 0 57 -22t58 -22q33 0 62 40l9 -6q-30 -47 -71 -47zM455 518v-518h-12l-1 110q-65 -119 -182 -119q-68 0 -106 41t-38 118v368h14v-368q0 -72 34.5 -109t96.5 -37q112 0 180 124v390h14z" />
    <glyph glyph-name="Umacron" unicode="&#x16a;" horiz-adv-x="638" 
d="M419 812h-200v14h200v-14zM522 681v-474q0 -99 -49.5 -157.5t-153.5 -58.5q-105 0 -154 58t-49 158v474h14v-473q0 -94 45.5 -149t143.5 -55t143.5 55t45.5 149v473h14z" />
    <glyph glyph-name="umacron" unicode="&#x16b;" horiz-adv-x="576" 
d="M388 686h-200v14h200v-14zM455 518v-518h-12l-1 110q-65 -119 -182 -119q-68 0 -106 41t-38 118v368h14v-368q0 -72 34.5 -109t96.5 -37q112 0 180 124v390h14z" />
    <glyph glyph-name="Ubreve" unicode="&#x16c;" horiz-adv-x="638" 
d="M319 772q-40 0 -67.5 20.5t-35.5 49.5l11 2q9 -26 33.5 -42t58.5 -16q71 0 93 58l11 -2q-9 -29 -36.5 -49.5t-67.5 -20.5zM522 681v-474q0 -99 -49.5 -157.5t-153.5 -58.5q-105 0 -154 58t-49 158v474h14v-473q0 -94 45.5 -149t143.5 -55t143.5 55t45.5 149v473h14z" />
    <glyph glyph-name="ubreve" unicode="&#x16d;" horiz-adv-x="576" 
d="M288 664q-41 0 -68 22t-35 57l11 3q19 -69 92 -69t93 69l11 -3q-9 -35 -36 -57t-68 -22zM455 518v-518h-12l-1 110q-65 -119 -182 -119q-68 0 -106 41t-38 118v368h14v-368q0 -72 34.5 -109t96.5 -37q112 0 180 124v390h14z" />
    <glyph glyph-name="Uring" unicode="&#x16e;" horiz-adv-x="638" 
d="M319 919q33 0 53 -19.5t20 -52.5q0 -32 -20 -52t-53 -20t-53 19.5t-20 52.5q0 32 20 52t53 20zM319 908q-28 0 -43.5 -16.5t-15.5 -44.5q0 -29 15.5 -45t43.5 -16t43.5 16.5t15.5 44.5q0 29 -15.5 45t-43.5 16zM522 681v-474q0 -99 -49.5 -157.5t-153.5 -58.5
q-105 0 -154 58t-49 158v474h14v-473q0 -94 45.5 -149t143.5 -55t143.5 55t45.5 149v473h14z" />
    <glyph glyph-name="uring" unicode="&#x16f;" horiz-adv-x="576" 
d="M288 793q34 0 53.5 -19.5t19.5 -52.5q0 -32 -20 -52t-53 -20q-34 0 -53.5 19.5t-19.5 52.5q0 32 20 52t53 20zM288 782q-28 0 -43.5 -16.5t-15.5 -44.5q0 -29 15.5 -45t43.5 -16t43.5 16.5t15.5 44.5q0 29 -15.5 45t-43.5 16zM455 518v-518h-12l-1 110
q-65 -119 -182 -119q-68 0 -106 41t-38 118v368h14v-368q0 -72 34.5 -109t96.5 -37q112 0 180 124v390h14z" />
    <glyph glyph-name="Uhungarumlaut" unicode="&#x170;" horiz-adv-x="638" 
d="M427 915l15 -8l-73 -125l-11 5zM319 913l15 -8l-67 -120l-11 5zM522 681v-474q0 -99 -49.5 -157.5t-153.5 -58.5q-105 0 -154 58t-49 158v474h14v-473q0 -94 45.5 -149t143.5 -55t143.5 55t45.5 149v473h14z" />
    <glyph glyph-name="uhungarumlaut" unicode="&#x171;" horiz-adv-x="576" 
d="M397 789l15 -8l-73 -125l-11 5zM289 787l15 -8l-67 -120l-11 5zM455 518v-518h-12l-1 110q-65 -119 -182 -119q-68 0 -106 41t-38 118v368h14v-368q0 -72 34.5 -109t96.5 -37q112 0 180 124v390h14z" />
    <glyph glyph-name="Uogonek" unicode="&#x172;" horiz-adv-x="638" 
d="M508 681h14v-474q0 -173 -134 -208q-59 -25 -92.5 -52t-33.5 -67q0 -31 19.5 -48t54.5 -17q22 0 53 7l-2 -14q-29 -7 -53 -7q-42 0 -64.5 21t-22.5 57q0 67 105 113q-11 -1 -33 -1q-105 0 -154 58t-49 158v474h14v-473q0 -94 45.5 -149t143.5 -55t143.5 55t45.5 149v473z
" />
    <glyph glyph-name="uogonek" unicode="&#x173;" horiz-adv-x="576" 
d="M441 518h14v-518q-60 -25 -94.5 -52t-34.5 -68q0 -31 19 -48t53 -17q24 0 55 7l-2 -14q-29 -7 -53 -7q-42 0 -64.5 21t-22.5 57q0 75 132 126l-1 105q-65 -119 -182 -119q-68 0 -106 41t-38 118v368h14v-368q0 -72 34.5 -109t96.5 -37q112 0 180 124v390z" />
    <glyph glyph-name="Wcircumflex" unicode="&#x174;" horiz-adv-x="785" 
d="M504 768l-112 78l-111 -78l-8 8l115 86h8l115 -86zM744 681l-160 -681h-16l-176 667l-175 -667h-17l-159 681h15l153 -666l175 666h17l175 -666l153 666h15z" />
    <glyph glyph-name="wcircumflex" unicode="&#x175;" horiz-adv-x="677" 
d="M227 656l-8 8l115 91h8l115 -91l-7 -8l-112 84zM641 518l-138 -518h-18l-146 504l-146 -504h-18l-139 518h15l134 -504l146 504h17l146 -505l133 505h14z" />
    <glyph glyph-name="Ycircumflex" unicode="&#x176;" horiz-adv-x="488" 
d="M356 768l-112 78l-111 -78l-8 8l115 86h8l115 -86zM465 681l-213 -410v-271h-14v271l-215 410h16l206 -398l204 398h16z" />
    <glyph glyph-name="ycircumflex" unicode="&#x177;" horiz-adv-x="440" 
d="M109 656l-8 8l115 91h8l115 -91l-7 -8l-112 84zM414 518l-180 -519q-31 -91 -64.5 -130.5t-109.5 -60.5l-2 11q73 21 102.5 57t60.5 124h-6l-189 518h15l184 -508l174 508h15z" />
    <glyph glyph-name="Ydieresis" unicode="&#x178;" horiz-adv-x="488" 
d="M164 829q15 0 15 -14t-15 -14q-14 0 -14 14t14 14zM323 829q15 0 15 -14t-15 -14q-14 0 -14 14t14 14zM465 681l-213 -410v-271h-14v271l-215 410h16l206 -398l204 398h16z" />
    <glyph glyph-name="Zacute" unicode="&#x179;" horiz-adv-x="507" 
d="M335 854l7 -15l-174 -72l-4 10zM457 681v-13l-397 -654h382l-2 -14h-397v13l397 654h-360v14h377z" />
    <glyph glyph-name="zacute" unicode="&#x17a;" horiz-adv-x="410" 
d="M290 755l7 -15l-174 -83l-5 10zM372 518v-12l-321 -493h312l-1 -13h-329v12l322 493h-294v13h311z" />
    <glyph glyph-name="Zdotaccent" unicode="&#x17b;" horiz-adv-x="507" 
d="M255 843q14 0 14 -14q0 -15 -14 -15q-15 0 -15 15q0 14 15 14zM457 681v-13l-397 -654h382l-2 -14h-397v13l397 654h-360v14h377z" />
    <glyph glyph-name="zdotaccent" unicode="&#x17c;" horiz-adv-x="410" 
d="M215 717q14 0 14 -14q0 -15 -14 -15q-15 0 -15 15q0 14 15 14zM372 518v-12l-321 -493h312l-1 -13h-329v12l322 493h-294v13h311z" />
    <glyph glyph-name="Zcaron" unicode="&#x17d;" horiz-adv-x="507" 
d="M367 856l7 -9l-115 -85h-8l-115 85l8 9l111 -79zM457 681v-13l-397 -654h382l-2 -14h-397v13l397 654h-360v14h377z" />
    <glyph glyph-name="zcaron" unicode="&#x17e;" horiz-adv-x="410" 
d="M327 743l7 -8l-115 -91h-8l-115 91l8 8l111 -84zM372 518v-12l-321 -493h312l-1 -13h-329v12l322 493h-294v13h311z" />
    <glyph glyph-name="uni0180" unicode="&#x180;" horiz-adv-x="573" 
d="M311 528q88 0 135 -68.5t47 -195.5q0 -128 -48.5 -200.5t-138.5 -72.5q-104 0 -166 96l-2 -87h-12v632h-75v13h75v87l14 1v-88h186v-13h-186v-201q71 97 171 97zM306 4q84 0 128 68t44 192q0 122 -42.5 186.5t-124.5 64.5q-55 0 -94.5 -25.5t-76.5 -76.5v-308
q66 -101 166 -101z" />
    <glyph glyph-name="uni0181" unicode="&#x181;" horiz-adv-x="628" 
d="M395 361q73 -4 121.5 -49.5t48.5 -127.5q0 -93 -60.5 -138.5t-166.5 -45.5h-168v668h-39q-46 0 -68.5 -21t-22.5 -58q0 -36 26 -77l-11 -7q-29 44 -29 84q0 43 27 67.5t79 24.5h38h138q107 0 164 -43t57 -125q0 -64 -37 -103.5t-97 -48.5zM310 667h-126v-300h174
q69 0 112.5 41t43.5 105q0 76 -52 115t-152 39zM339 14q99 0 155.5 41t56.5 129q0 80 -52.5 124.5t-135.5 44.5h-179v-339h155z" />
    <glyph glyph-name="uni0182" unicode="&#x182;" horiz-adv-x="563" 
d="M276 403q106 0 163 -49t57 -144q0 -104 -58 -157t-160 -53h-152v681h308l-2 -14h-292v-264h136zM282 14q95 0 147 49.5t52 147.5q0 88 -52.5 133t-151.5 45h-137v-375h142z" />
    <glyph glyph-name="uni0183" unicode="&#x183;" horiz-adv-x="568" 
d="M306 528q88 0 135 -68.5t47 -195.5q0 -128 -48.5 -200.5t-138.5 -72.5q-104 0 -166 96l-2 -87h-12v730h256l-2 -13h-240v-287q69 98 171 98zM301 4q84 0 128 68t44 192q0 122 -42.5 186.5t-124.5 64.5q-55 0 -94.5 -26t-76.5 -76v-308q66 -101 166 -101z" />
    <glyph glyph-name="uni0184" unicode="&#x184;" horiz-adv-x="550" 
d="M276 405q106 0 163 -49t57 -145q0 -105 -58 -158t-160 -53h-152v603l-26 15q22 29 28 63h12v-276h136zM282 14q95 0 147 49.5t52 148.5q0 89 -52.5 134t-151.5 45h-137v-377h142z" />
    <glyph glyph-name="uni0185" unicode="&#x185;" horiz-adv-x="492" 
d="M257 332q186 0 186 -159q0 -86 -48.5 -129.5t-135.5 -43.5h-138v451l-26 15q18 20 28 52h12v-186h122zM258 13q171 0 171 160q0 146 -172 146h-122v-306h123z" />
    <glyph glyph-name="uni0186" unicode="&#x186;" horiz-adv-x="535" 
d="M207 691q114 0 180.5 -89t66.5 -262q0 -166 -71 -257.5t-186 -91.5q-99 0 -171 61l8 11q74 -58 163 -58q107 0 174.5 87.5t67.5 247.5q0 168 -62.5 252.5t-170.5 84.5q-89 0 -164 -55l-8 11q77 58 173 58z" />
    <glyph glyph-name="uni0187" unicode="&#x187;" horiz-adv-x="535" 
d="M579 809q47 0 84 -29l-7 -10q-34 27 -77 27q-36 0 -57.5 -23t-21.5 -69v-72l-7 -10q-67 54 -149 54q-112 0 -180 -85t-68 -252q0 -161 67.5 -248t178.5 -87q88 0 158 58l9 -11q-71 -61 -168 -61q-117 0 -188.5 91.5t-71.5 257.5q0 171 72 261t190 90q83 0 143 -49v63
q0 50 25 77t68 27z" />
    <glyph glyph-name="uni0188" unicode="&#x188;" horiz-adv-x="466" 
d="M493 735q49 0 84 -29l-7 -10q-33 26 -77 26q-36 0 -57 -22.5t-21 -69.5v-152l-8 -8q-53 45 -124 45q-88 0 -140 -68t-52 -191q0 -120 53 -186t138 -66q76 0 129 50l9 -10q-58 -53 -137 -53q-93 0 -150 70t-57 195q0 127 55.5 199.5t151.5 72.5q67 0 118 -39v142
q0 51 25 77.5t67 26.5z" />
    <glyph glyph-name="uni0189" unicode="&#x189;" horiz-adv-x="613" 
d="M236 681q60 0 108 -13.5t93 -48t70 -103t25 -168.5q0 -81 -17.5 -144t-45 -100.5t-66.5 -61.5t-78 -33t-83 -9h-120v346h-94v14h94v321h114zM242 14q55 0 100.5 15t86.5 50t64.5 103.5t23.5 165.5q0 79 -16.5 137.5t-42.5 92.5t-65 54.5t-76 27.5t-82 7h-99v-307h194v-14
h-194v-332h106z" />
    <glyph glyph-name="uni018A" unicode="&#x18a;" horiz-adv-x="661" 
d="M284 681q60 0 108 -13.5t93 -48t70 -103t25 -168.5q0 -101 -25.5 -172.5t-69.5 -108t-91.5 -52t-103.5 -15.5h-120v668h-39q-46 0 -68.5 -21t-22.5 -58q0 -36 26 -77l-11 -7q-29 44 -29 84q0 43 27 67.5t79 24.5h38h114zM290 14q55 0 100.5 15t86.5 50t64.5 103.5
t23.5 165.5q0 79 -16.5 137.5t-42.5 92.5t-65 54.5t-76 27.5t-82 7h-99v-653h106z" />
    <glyph glyph-name="uni018B" unicode="&#x18b;" horiz-adv-x="563" 
d="M437 681v-681h-160q-97 0 -154 50t-57 147q0 99 60 152.5t166 53.5h131v264h-293v14h307zM278 14h145v375h-131q-100 0 -155.5 -49.5t-55.5 -142.5q0 -91 52 -137t145 -46z" />
    <glyph glyph-name="uni018C" unicode="&#x18c;" horiz-adv-x="573" 
d="M453 730v-730h-13l-1 94q-59 -103 -168 -103q-87 0 -138.5 70.5t-51.5 195.5q0 123 53 197t146 74q105 0 159 -91v280h-242v13h256zM271 4q61 0 100 28.5t68 83.5v303q-57 96 -158 96q-85 0 -135.5 -70t-50.5 -188q1 -120 48 -186.5t128 -66.5z" />
    <glyph glyph-name="uni018D" unicode="&#x18d;" horiz-adv-x="556" 
d="M271 -182q85 0 146 42l8 -10q-65 -45 -154 -45q-64 0 -103 28.5t-39 75.5q0 43 28 71t97 55q-178 64 -178 250q0 118 54 180.5t149 62.5q96 0 148.5 -60t52.5 -180q0 -104 -44 -158.5t-153 -96.5q-81 -31 -110.5 -57t-29.5 -67t35 -66t93 -25zM90 285q0 -95 48.5 -155.5
t129.5 -88.5q113 43 155.5 94.5t42.5 152.5q0 114 -48.5 170.5t-138.5 56.5q-89 0 -139 -59.5t-50 -170.5z" />
    <glyph glyph-name="uni018E" unicode="&#x18e;" horiz-adv-x="494" 
d="M53 681h315v-681h-322v14h308v340h-257v13h257v300h-301v14z" />
    <glyph glyph-name="uni018F" unicode="&#x18f;" horiz-adv-x="646" 
d="M318 691q247 0 247 -355q0 -171 -66.5 -258t-180.5 -87q-115 0 -181 86.5t-66 244.5q0 21 1 34h478q-8 321 -232 321q-103 0 -192 -76l-10 10q94 80 202 80zM319 4q107 0 169.5 84.5t61.5 253.5h-464q-4 -163 59 -250.5t174 -87.5z" />
    <glyph glyph-name="uni0190" unicode="&#x190;" horiz-adv-x="512" 
d="M265 691q106 0 188 -84l-9 -10q-80 80 -179 80q-77 0 -121.5 -41t-44.5 -107q0 -72 47.5 -112t124.5 -40h54l-1 -13h-57q-87 1 -138 -44.5t-51 -124.5q0 -88 54 -139.5t141 -51.5q111 0 193 88l10 -9q-86 -92 -203 -92q-94 0 -152 55t-58 149q0 79 47 125t120 51
q-64 8 -105 47.5t-41 109.5q0 73 48 118t133 45z" />
    <glyph glyph-name="uni0191" unicode="&#x191;" horiz-adv-x="471" 
d="M433 667h-293v-315h254v-13h-254v-430q0 -50 -25 -77t-68 -27q-47 0 -84 29l7 10q35 -26 77 -26q36 0 57.5 23t21.5 69v771h309z" />
    <glyph glyph-name="florin" unicode="&#x192;" horiz-adv-x="300" 
d="M239 722q-48 0 -76.5 -26.5t-28.5 -79.5v-98h149l-2 -12h-147v-502q0 -89 -23.5 -127.5t-83.5 -69.5l-4 10q54 29 75.5 66t21.5 121v502h-90v12h90v100q0 56 32.5 86.5t86.5 30.5t114 -29l-6 -12q-56 28 -108 28z" />
    <glyph glyph-name="uni0193" unicode="&#x193;" horiz-adv-x="544" 
d="M588 809q48 0 85 -29l-7 -10q-36 27 -78 27q-36 0 -57 -23t-21 -69v-72l-8 -9q-71 53 -157 53q-101 0 -175 -85t-74 -247q0 -166 68.5 -253.5t188.5 -87.5q85 0 160 44v288h-148l-2 13h164v-309q-82 -49 -174 -49q-125 0 -198.5 91.5t-73.5 262.5q0 85 23 153t61 109
t84 62.5t96 21.5q83 0 151 -48v62q0 51 25 77.5t67 26.5z" />
    <glyph glyph-name="uni0194" unicode="&#x194;" horiz-adv-x="529" 
d="M499 681l-224 -626q3 -8 11 -26t10.5 -25t8.5 -21.5t8.5 -21t6.5 -18.5t5.5 -18.5t4 -16t3 -17t0.5 -15.5q0 -31 -17.5 -51.5t-49.5 -20.5q-31 0 -48.5 20.5t-17.5 51.5q0 16 5.5 38t10 35.5t20 51.5t21.5 54l-226 626h15l220 -614l217 614h16zM318 -124q0 42 -45 151
q-5 11 -7 17q-4 -10 -12 -30.5t-11.5 -29t-9 -24t-8 -24t-5.5 -20.5t-4 -21.5t-1 -18.5q0 -26 13 -42t38 -16q52 0 52 58z" />
    <glyph glyph-name="uni0195" unicode="&#x195;" horiz-adv-x="891" 
d="M768 518q27 -150 27 -251q0 -139 -52.5 -207.5t-138.5 -68.5q-68 0 -110.5 42t-42.5 121v213q0 149 -123 149q-113 0 -193 -131v-385h-14v732l14 2v-330q77 124 194 124q68 0 102 -41.5t34 -117.5v-214q0 -74 38.5 -112.5t100.5 -38.5q78 0 127 63.5t49 199.5
q0 107 -26 251h14z" />
    <glyph glyph-name="uni0196" unicode="&#x196;" horiz-adv-x="324" 
d="M285 30l7 -10q-35 -29 -84 -29q-42 0 -67 27t-25 77v586h14v-585q0 -46 21.5 -69t56.5 -23q44 0 77 26z" />
    <glyph glyph-name="uni0197" unicode="&#x197;" horiz-adv-x="331" 
d="M285 367v-13h-112v-354h-15v354h-112v13h112v314h15v-314h112z" />
    <glyph glyph-name="uni0198" unicode="&#x198;" horiz-adv-x="543" 
d="M364 619l-202 -253l337 -366h-18l-338 366l211 263q29 35 51.5 48.5t53.5 13.5q42 0 75 -35l-8 -9q-31 31 -67 31q-27 0 -47.5 -12t-47.5 -47zM140 681v-680h-14v680h14z" />
    <glyph glyph-name="uni0199" unicode="&#x199;" horiz-adv-x="457" 
d="M240 722q-48 0 -76.5 -26.5t-28.5 -79.5v-616h-14v618q0 56 32.5 86.5t85.5 30.5q59 0 114 -31l-5 -12q-53 30 -108 30zM159 284l277 -284h-17l-278 283l252 235h18z" />
    <glyph glyph-name="uni019A" unicode="&#x19a;" horiz-adv-x="284" 
d="M261 361h-112v-292q0 -65 53 -65q21 0 40 8l4 -12q-18 -9 -44 -9q-67 0 -67 78v292h-112v13h112v358l14 1v-359h112v-13z" />
    <glyph glyph-name="uni019B" unicode="&#x19b;" horiz-adv-x="448" 
d="M249 513q25 -126 49.5 -213t52.5 -144t46.5 -85t52.5 -69l-13 -5q-45 54 -69.5 94t-61 145.5t-68.5 267.5l-179 -508l-13 3l183 519h6q-19 93 -46 137l-82 -85l-12 4l87 90q-31 41 -96 60l2 11q68 -18 103 -61l65 69l10 -8l-68 -71q30 -45 51 -151z" />
    <glyph glyph-name="uni019C" unicode="&#x19c;" horiz-adv-x="921" 
d="M781 681h14v-681h-12l-2 117q-71 -127 -184 -127q-58 0 -95.5 33.5t-48.5 96.5q-77 -130 -188 -130q-70 0 -109.5 47.5t-39.5 136.5v507h14v-509q0 -82 35.5 -125t99.5 -43q108 0 185 135q-2 22 -2 35v507h15v-509q0 -82 35.5 -125t99.5 -43q110 0 183 134v543z" />
    <glyph glyph-name="uni019D" unicode="&#x19d;" horiz-adv-x="658" 
d="M519 681h14v-681h-18l-377 665q2 -60 2 -149v-607q0 -50 -25.5 -77t-67.5 -27q-47 0 -84 29l7 10q33 -26 77 -26q36 0 57.5 22.5t21.5 69.5v771h18l376 -665q-1 41 -1 161v504z" />
    <glyph glyph-name="uni019E" unicode="&#x19e;" horiz-adv-x="581" 
d="M329 528q136 0 136 -159v-563l-14 3v558q0 149 -123 149q-113 0 -193 -131v-385h-14v518h12l2 -114q77 124 194 124z" />
    <glyph glyph-name="uni019F" unicode="&#x19f;" horiz-adv-x="688" 
d="M344 691q122 0 193 -92t71 -259q0 -165 -69.5 -257t-194.5 -92q-122 0 -192.5 91.5t-70.5 257.5q0 163 72 257t191 94zM344 677q-111 0 -178.5 -86t-69.5 -239h497q-3 156 -69 240.5t-180 84.5zM344 4q119 0 183.5 87t65.5 247h-497q0 -159 67 -246.5t181 -87.5z" />
    <glyph glyph-name="Ohorn" unicode="&#x1a0;" horiz-adv-x="688" 
d="M522 617q86 -94 86 -277q0 -165 -69.5 -257t-194.5 -92q-121 0 -192 91.5t-71 255.5t72 258.5t191 94.5q102 0 170 -66q60 7 60 62q0 37 -14 72l11 3q16 -34 16 -75q0 -64 -65 -70zM344 4q119 0 184 87.5t65 248.5q0 162 -66.5 249.5t-182.5 87.5q-114 0 -181 -89.5
t-67 -249.5q0 -158 67 -246t181 -88z" />
    <glyph glyph-name="ohorn" unicode="&#x1a1;" 
d="M502 524q0 -63 -68 -71q50 -72 50 -191q0 -129 -55 -200t-150 -71t-149 71t-54 196q0 128 55.5 199t149.5 71q92 0 147 -67q61 10 61 63q0 37 -14 72l11 4q16 -34 16 -76zM279 4q89 0 140 67.5t51 190.5q0 120 -50.5 186.5t-138.5 66.5t-139.5 -67t-51.5 -190
q0 -120 50.5 -187t138.5 -67z" />
    <glyph glyph-name="uni01A2" unicode="&#x1a2;" horiz-adv-x="878" 
d="M639 691q113 0 113 -122v-759h-14v759q0 109 -99 109q-63 0 -138 -41q107 -90 107 -297q0 -165 -69.5 -257t-194.5 -92q-121 0 -192 91.5t-71 255.5t72 258.5t191 94.5q86 0 147 -46q81 46 148 46zM593 340q0 162 -66.5 249.5t-182.5 87.5q-114 0 -181 -89.5t-67 -249.5
q0 -158 67 -246t181 -88q119 0 184 87.5t65 248.5z" />
    <glyph glyph-name="uni01A3" unicode="&#x1a3;" horiz-adv-x="735" 
d="M499 528q57 0 86.5 -31.5t29.5 -90.5v-600l-14 2v597q0 111 -103 111q-51 0 -102 -24q88 -66 88 -230q0 -129 -55 -200t-150 -71t-149 71t-54 196q0 128 55.5 199t149.5 71q60 0 103 -28q59 28 115 28zM470 262q0 120 -50.5 186.5t-138.5 66.5t-139.5 -67t-51.5 -190
q0 -120 50.5 -187t138.5 -67q89 0 140 67.5t51 190.5z" />
    <glyph glyph-name="uni01A4" unicode="&#x1a4;" horiz-adv-x="600" 
d="M301 681q120 0 179 -47.5t59 -149.5q0 -199 -242 -199h-113v-285h-14v668h-39q-46 0 -68.5 -21t-22.5 -58q0 -36 26 -77l-11 -7q-29 44 -29 84q0 43 27 67.5t79 24.5h38h131zM298 299q226 0 226 185q0 97 -54.5 140t-168.5 43h-117v-368h114z" />
    <glyph glyph-name="uni01A5" unicode="&#x1a5;" horiz-adv-x="568" 
d="M307 528q88 0 134.5 -68.5t46.5 -195.5q0 -128 -48 -200.5t-138 -72.5q-103 0 -167 96v-278l-14 -3v812q0 56 32.5 86.5t85.5 30.5q59 0 114 -31l-5 -12q-53 30 -108 30q-48 0 -76.5 -26.5t-28.5 -79.5v-186q69 98 172 98zM302 4q83 0 127 68t44 192q0 122 -42.5 186.5
t-123.5 64.5q-55 0 -95 -26t-77 -76v-308q66 -101 167 -101z" />
    <glyph glyph-name="uni01A6" unicode="&#x1a6;" horiz-adv-x="568" 
d="M501 -136l-189 328h-172v-192h-14v681h14v-136h130q221 0 221 -176q0 -81 -45 -123.5t-118 -51.5l191 -330h-18zM140 206h155q81 0 131 40t50 123q0 80 -48.5 121.5t-159.5 41.5h-128v-326z" />
    <glyph glyph-name="uni01A7" unicode="&#x1a7;" horiz-adv-x="534" 
d="M282 691q79 0 125.5 -41.5t46.5 -107.5q0 -68 -40 -106.5t-144 -73.5q-99 -32 -140.5 -72.5t-41.5 -116.5t51 -122.5t130 -46.5q67 0 111.5 19.5t85.5 57.5l9 -10q-42 -40 -90 -60t-117 -20q-84 0 -139 50.5t-55 132.5q0 80 44 123.5t147 77.5q100 32 137.5 67t37.5 100
q0 60 -42.5 97.5t-115.5 37.5q-97 0 -178 -64l-8 10q43 34 85.5 51t100.5 17z" />
    <glyph glyph-name="uni01A8" unicode="&#x1a8;" horiz-adv-x="454" 
d="M240 528q64 0 104.5 -33t40.5 -87q0 -52 -35 -83t-119 -55q-86 -25 -118.5 -55t-32.5 -87t40 -90.5t104 -33.5q94 0 166 62l9 -9q-75 -66 -175 -66q-70 0 -114 37.5t-44 99.5q0 61 35 94t124 59q81 24 113.5 51t32.5 76q0 48 -36.5 77.5t-94.5 29.5q-85 0 -152 -51l-8 10
q69 54 160 54z" />
    <glyph glyph-name="uni01A9" unicode="&#x1a9;" horiz-adv-x="483" 
d="M427 681v-14h-350l235 -325v-6l-235 -322h350v-14h-371v9l241 330l-241 333v9h371z" />
    <glyph glyph-name="uni01AA" unicode="&#x1aa;" horiz-adv-x="261" 
d="M294 -156l7 -10q-37 -29 -84 -29q-43 0 -68 27t-25 77v636q-30 -22 -71 -22q-42 0 -67 27t-25 76q0 48 26 78.5t67 30.5q39 0 61.5 -26t22.5 -69v-730q0 -47 21.5 -69.5t57.5 -22.5q44 0 77 26zM53 536q40 0 71 21v83q0 38 -18.5 60t-51.5 22q-36 0 -57.5 -26t-21.5 -70
q0 -45 21 -67.5t57 -22.5z" />
    <glyph glyph-name="uni01AB" unicode="&#x1ab;" horiz-adv-x="323" 
d="M316 28l5 -9v-110q0 -50 -26 -77t-69 -27t-82 25l7 9q38 -21 75 -21t59 22.5t22 69.5v102q-40 -21 -84 -21q-52 0 -80.5 32t-28.5 92v391h-86v12h86v133l14 1v-134h145l-2 -12h-143v-390q0 -54 24.5 -83t70.5 -29q48 0 93 24z" />
    <glyph glyph-name="uni01AC" unicode="&#x1ac;" horiz-adv-x="494" 
d="M478 681l-2 -14h-212v-667h-14v667h-119q-91 0 -91 -78q0 -36 26 -77l-11 -7q-29 44 -29 84q0 43 27.5 67.5t80.5 24.5h344z" />
    <glyph glyph-name="uni01AD" unicode="&#x1ad;" horiz-adv-x="323" 
d="M223 4q49 0 91 26l7 -11q-47 -28 -98 -28q-52 0 -80.5 32t-28.5 92v391h-86v12h86v93q0 60 29 92t80 32q52 0 98 -29l-7 -10q-42 26 -91 26q-95 0 -95 -112v-92h145l-2 -12h-143v-390q0 -54 24.5 -83t70.5 -29z" />
    <glyph glyph-name="uni01AE" unicode="&#x1ae;" horiz-adv-x="474" 
d="M244 -90q0 -46 21.5 -69t57.5 -23q42 0 77 26l7 -10q-37 -29 -84 -29q-43 0 -68 27t-25 77v758h-212v14h440l-2 -14h-212v-757z" />
    <glyph glyph-name="Uhorn" unicode="&#x1af;" horiz-adv-x="638" 
d="M594 687q0 -68 -72 -71v-409q0 -99 -49.5 -157.5t-153.5 -58.5q-105 0 -154 58t-49 158v474h14v-473q0 -94 45.5 -149t143.5 -55t143.5 55t45.5 149v473h14v-55q59 7 59 61q0 37 -14 72l11 3q16 -34 16 -75z" />
    <glyph glyph-name="uhorn" unicode="&#x1b0;" horiz-adv-x="576" 
d="M527 524q0 -64 -72 -72v-452h-12l-1 110q-65 -119 -182 -119q-68 0 -106 41t-38 118v368h14v-368q0 -72 34.5 -109t96.5 -37q112 0 180 124v390h14v-56q59 9 59 62q0 37 -14 72l11 4q16 -34 16 -76z" />
    <glyph glyph-name="uni01B1" unicode="&#x1b1;" horiz-adv-x="688" 
d="M344 -10q-120 0 -191.5 89.5t-71.5 238.5q0 244 155 349h-129v14h151v-14q-162 -100 -162 -349q0 -144 67.5 -229t180.5 -85q114 0 181.5 85t67.5 230q0 250 -163 348v14h152v-14h-129q155 -103 155 -348q0 -150 -71.5 -239.5t-192.5 -89.5z" />
    <glyph glyph-name="uni01B2" unicode="&#x1b2;" horiz-adv-x="628" 
d="M451 691q71 0 71 -87v-317q0 -148 -61 -222t-165 -74q-85 0 -132.5 50t-47.5 139v501h14v-499q0 -84 43.5 -131t122.5 -47q98 0 155 71t57 213v316q0 74 -58 74q-26 0 -46 -11l-6 11q23 13 53 13z" />
    <glyph glyph-name="uni01B3" unicode="&#x1b3;" horiz-adv-x="510" 
d="M238 0v271l-215 410h16l206 -398l156 330q19 42 40.5 60t53.5 18q45 0 81 -38l-8 -9q-34 34 -72 34q-29 0 -47 -15t-37 -56l-160 -336v-271h-14z" />
    <glyph glyph-name="uni01B4" unicode="&#x1b4;" horiz-adv-x="450" 
d="M60 -192l-2 11q73 21 103.5 58t59.5 123h-6l-189 518h15l184 -508l154 478q13 43 30 60.5t48 17.5q20 0 43 -9l-4 -11q-19 8 -39 8q-25 0 -39 -15.5t-26 -51.5l-158 -488q-30 -90 -64 -130t-110 -61z" />
    <glyph glyph-name="uni01B5" unicode="&#x1b5;" horiz-adv-x="507" 
d="M457 681v-13l-193 -319h120v-13h-128l-196 -322h382l-2 -14h-397v13l196 323h-117v13h125l193 318h-360v14h377z" />
    <glyph glyph-name="uni01B6" unicode="&#x1b6;" horiz-adv-x="410" 
d="M372 518v-12l-151 -231h107v-13h-115l-162 -249h312l-1 -13h-329v12l163 250h-106v13h114l151 230h-294v13h311z" />
    <glyph glyph-name="uni01B7" unicode="&#x1b7;" horiz-adv-x="469" 
d="M204 369q105 0 160 -48.5t55 -139.5q0 -85 -53.5 -137.5t-148.5 -52.5q-117 0 -191 80l9 8q71 -75 181 -75q90 0 139 48.5t49 127.5q0 88 -51.5 131.5t-147.5 43.5h-75v14l243 299h-336v13h355v-12l-246 -300h58z" />
    <glyph glyph-name="uni01B8" unicode="&#x1b8;" horiz-adv-x="469" 
d="M433 79l10 -8q-39 -40 -84.5 -60t-114.5 -20q-89 0 -141.5 50t-52.5 135q0 90 55.5 141.5t159.5 51.5h57l-245 300v12h355v-13h-336l243 -299v-14h-75q-96 0 -148 -46.5t-52 -133.5q0 -78 48 -124.5t132 -46.5q65 0 108.5 18t80.5 57z" />
    <glyph glyph-name="uni01B9" unicode="&#x1b9;" horiz-adv-x="441" 
d="M406 -107l9 -8q-74 -80 -187 -80q-87 0 -138.5 53.5t-51.5 137.5q0 91 56 143.5t165 52.5h33l-227 314v12h334v-13h-316l225 -313v-13h-50q-102 0 -154 -48t-52 -136q0 -79 47.5 -128t128.5 -49q108 0 178 75z" />
    <glyph glyph-name="uni01BA" unicode="&#x1ba;" horiz-adv-x="442" 
d="M146 -194q-102 33 -102 101q0 43 39.5 67t129.5 33q93 9 132 39.5t39 94.5q0 111 -137 111h-130v14l232 239h-305v13h325v-12l-235 -240h114q151 0 151 -125q0 -69 -43 -102.5t-140 -44.5q-84 -8 -120.5 -28.5t-36.5 -58.5q0 -32 22 -53t70 -37z" />
    <glyph glyph-name="uni01BB" unicode="&#x1bb;" horiz-adv-x="464" 
d="M401 274h-110q-54 -69 -225 -260h334l-2 -14h-350v14q179 200 226 260h-183v13h193q51 66 70.5 114.5t19.5 103.5q0 67 -41.5 110.5t-112.5 43.5q-94 0 -162 -84l-11 8q75 89 174 89q77 0 122 -47t45 -118q0 -58 -19.5 -106.5t-67.5 -113.5h100v-13z" />
    <glyph glyph-name="uni01BC" unicode="&#x1bc;" horiz-adv-x="481" 
d="M396 681l-3 -13h-291v-288q58 42 132 42q87 0 135 -53.5t48 -150.5q0 -103 -51.5 -165t-144.5 -62q-110 0 -175 75l10 9q62 -71 165 -71q86 0 133.5 58t47.5 156q0 93 -44 142t-124 49q-74 0 -135 -43h-11v315h308z" />
    <glyph glyph-name="uni01BD" unicode="&#x1bd;" horiz-adv-x="421" 
d="M341 518l-3 -13h-233v-214q48 32 108 32q68 0 106 -41.5t38 -115.5q0 -79 -43 -127t-119 -48q-83 0 -141 58l9 9q54 -54 133 -54q69 0 108 44t39 118q0 69 -34.5 106.5t-95.5 37.5q-59 0 -111 -33h-11v241h250z" />
    <glyph glyph-name="uni01BE" unicode="&#x1be;" horiz-adv-x="490" 
d="M239 403q176 -36 176 -203q0 -92 -51.5 -148.5t-140.5 -56.5q-96 0 -177 78l10 10q77 -75 167 -75q83 0 130 52.5t47 139.5q0 154 -160 189l-66 15v173h-70v12h70v143l14 2v-145h121v-12h-121v-163z" />
    <glyph glyph-name="uni01BF" unicode="&#x1bf;" horiz-adv-x="563" 
d="M321 528q76 0 121.5 -46.5t45.5 -125.5q0 -105 -68.5 -181t-218.5 -153l-66 -35v-178l-14 -3v712h12l1 -89q39 48 83 73.5t104 25.5zM197 33q145 75 210.5 149t65.5 174q0 74 -41.5 116.5t-110.5 42.5q-105 0 -186 -101v-413z" />
    <glyph glyph-name="uni01C0" unicode="&#x1c0;" horiz-adv-x="265" 
d="M139 733v-733h-13v732z" />
    <glyph glyph-name="uni01C1" unicode="&#x1c1;" horiz-adv-x="400" 
d="M139 733v-733h-13v732zM274 733v-733h-13v732z" />
    <glyph glyph-name="uni01C2" unicode="&#x1c2;" horiz-adv-x="331" 
d="M285 432h-113v-137h113v-12h-113v-283h-13v283h-113v12h113v137h-113v12h113v288l13 1v-289h113v-12z" />
    <glyph glyph-name="uni01C3" unicode="&#x1c3;" horiz-adv-x="285" 
d="M149 733v-543h-13v542zM143 27q16 0 16 -17q0 -16 -16 -16q-17 0 -17 16q0 17 17 17z" />
    <glyph glyph-name="uni01C4" unicode="&#x1c4;" horiz-adv-x="1114" 
d="M974 856l7 -9l-115 -85h-8l-115 85l8 9l111 -79zM1064 681v-13l-397 -654h382l-2 -14h-397v13l397 654h-360v14h377zM240 681q60 0 108 -13.5t93 -48t70 -103t25 -168.5q0 -81 -17.5 -144t-45 -100.5t-66.5 -61.5t-78 -33t-83 -9h-120v681h114zM239 667h-99v-653h106
q55 0 100.5 15t86.5 50t64.5 103.5t23.5 165.5q0 79 -16.5 137.5t-42.5 92.5t-65 54.5t-76 27.5t-82 7z" />
    <glyph glyph-name="uni01C5" unicode="&#x1c5;" horiz-adv-x="1027" 
d="M944 743l7 -8l-115 -91h-8l-115 91l8 8l111 -84zM240 681q60 0 108 -13.5t93 -48t70 -103t25 -168.5q0 -81 -17.5 -144t-45 -100.5t-66.5 -61.5t-78 -33t-83 -9h-120v681h114zM239 667h-99v-653h106q55 0 100.5 15t86.5 50t64.5 103.5t23.5 165.5q0 79 -16.5 137.5
t-42.5 92.5t-65 54.5t-76 27.5t-82 7zM989 518v-12l-321 -493h312l-1 -13h-329v12l322 493h-294v13h311z" />
    <glyph glyph-name="uni01C6" unicode="&#x1c6;" horiz-adv-x="983" 
d="M792 644h-8l-115 91l8 8l111 -84l112 84l7 -8zM439 437v296l14 -1v-732h-13l-1 94q-57 -103 -168 -103q-87 0 -138.5 70.5t-51.5 195.5q0 123 53 197t146 74q105 0 159 -91zM945 518v-12l-321 -493h312l-1 -13h-329v12l322 493h-294v13h311zM271 4q61 0 100 28.5t68 83.5
v303q-57 96 -158 96q-85 0 -135.5 -70t-50.5 -188q1 -120 48 -186.5t128 -66.5z" />
    <glyph glyph-name="uni01C7" unicode="&#x1c7;" horiz-adv-x="727" 
d="M607 681v-595q0 -74 -24.5 -112t-101.5 -71l-4 11q70 31 93 66.5t23 106.5v594h14zM140 681v-667h289l-3 -14h-300v681h14z" />
    <glyph glyph-name="uni01C8" unicode="&#x1c8;" horiz-adv-x="707" 
d="M579 717q14 0 14 -14q0 -15 -14 -15q-15 0 -15 15q0 14 15 14zM140 681v-667h289l-3 -14h-300v681h14zM586 518v-514q0 -61 -12 -98.5t-33 -57.5t-61 -41l-5 10q55 29 76 66t21 121v514h14z" />
    <glyph glyph-name="uni01C9" unicode="&#x1c9;" horiz-adv-x="542" 
d="M183 -9q-67 0 -67 78v663l14 1v-664q0 -65 53 -65q21 0 40 8l4 -12q-18 -9 -44 -9zM414 717q14 0 14 -14q0 -15 -14 -15q-15 0 -15 15q0 14 15 14zM421 518v-514q0 -61 -12 -98.5t-33 -57.5t-61 -41l-5 10q55 29 76 66t21 121v514h14z" />
    <glyph glyph-name="uni01CA" unicode="&#x1ca;" horiz-adv-x="934" 
d="M814 681v-595q0 -74 -24.5 -112t-101.5 -71l-4 11q70 31 93 66.5t23 106.5v594h14zM533 681v-681h-18l-377 665q2 -60 2 -149v-516h-14v681h18l376 -665q-1 41 -1 161v504h14z" />
    <glyph glyph-name="uni01CB" unicode="&#x1cb;" horiz-adv-x="914" 
d="M786 717q14 0 14 -14q0 -15 -14 -15q-15 0 -15 15q0 14 15 14zM533 681v-681h-18l-377 665q2 -60 2 -149v-516h-14v681h18l376 -665q-1 41 -1 161v504h14zM793 518v-514q0 -61 -12 -98.5t-33 -57.5t-61 -41l-5 10q55 29 76 66t21 121v514h14z" />
    <glyph glyph-name="uni01CC" unicode="&#x1cc;" horiz-adv-x="837" 
d="M709 717q14 0 14 -14q0 -15 -14 -15q-15 0 -15 15q0 14 15 14zM329 528q136 0 136 -159v-369h-14v367q0 149 -123 149q-113 0 -193 -131v-385h-14v518h12l2 -114q77 124 194 124zM702 4v514h14v-514q0 -61 -12 -98.5t-33 -57.5t-61 -41l-5 10q55 29 76 66t21 121z" />
    <glyph glyph-name="uni01CD" unicode="&#x1cd;" horiz-adv-x="557" 
d="M282 762h-8l-115 85l8 9l111 -79l112 79l7 -9zM511 0l-72 207h-322l-72 -207h-14l238 681h18l239 -681h-15zM122 221h312l-156 448z" />
    <glyph glyph-name="uni01CE" unicode="&#x1ce;" horiz-adv-x="526" 
d="M257 644h-8l-115 91l8 8l111 -84l112 84l7 -8zM404 110q0 -53 10.5 -76.5t38.5 -32.5l-3 -10q-32 10 -45 33.5t-13 71.5q-57 -105 -171 -105q-72 0 -112.5 42t-40.5 112q0 76 54 118.5t147 42.5h121v65q0 72 -31 108t-104 36q-65 0 -145 -33l-4 12q82 34 149 34
q149 0 149 -156v-262zM221 4q114 0 169 110v179h-118q-89 0 -139 -38.5t-50 -109.5q0 -65 36.5 -103t101.5 -38z" />
    <glyph glyph-name="uni01CF" unicode="&#x1cf;" horiz-adv-x="266" 
d="M244 856l7 -9l-115 -85h-8l-115 85l8 9l111 -79zM140 681v-681h-14v681h14z" />
    <glyph glyph-name="uni01D0" unicode="&#x1d0;" horiz-adv-x="255" 
d="M240 743l7 -8l-115 -91h-8l-115 91l8 8l111 -84zM135 518v-518h-14v518h14z" />
    <glyph glyph-name="uni01D1" unicode="&#x1d1;" horiz-adv-x="688" 
d="M456 856l7 -9l-115 -85h-8l-115 85l8 9l111 -79zM344 691q122 0 193 -92t71 -259q0 -165 -69.5 -257t-194.5 -92q-121 0 -192 91.5t-71 255.5t72 258.5t191 94.5zM344 677q-114 0 -181 -89.5t-67 -249.5q0 -158 67 -246t181 -88q119 0 184 87.5t65 248.5
q0 162 -66.5 249.5t-182.5 87.5z" />
    <glyph glyph-name="uni01D2" unicode="&#x1d2;" 
d="M393 743l7 -8l-115 -91h-8l-115 91l8 8l111 -84zM281 528q95 0 149 -70t54 -196q0 -129 -55 -200t-150 -71t-149 71t-54 196q0 128 55.5 199t149.5 71zM281 515q-88 0 -139.5 -67t-51.5 -190q0 -120 50.5 -187t138.5 -67q89 0 140 67.5t51 190.5q0 120 -50.5 186.5
t-138.5 66.5z" />
    <glyph glyph-name="uni01D3" unicode="&#x1d3;" horiz-adv-x="638" 
d="M431 856l7 -9l-115 -85h-8l-115 85l8 9l111 -79zM522 681v-474q0 -99 -49.5 -157.5t-153.5 -58.5q-105 0 -154 58t-49 158v474h14v-473q0 -94 45.5 -149t143.5 -55t143.5 55t45.5 149v473h14z" />
    <glyph glyph-name="uni01D4" unicode="&#x1d4;" horiz-adv-x="576" 
d="M401 743l7 -8l-115 -91h-8l-115 91l8 8l111 -84zM455 518v-518h-12l-1 110q-65 -119 -182 -119q-68 0 -106 41t-38 118v368h14v-368q0 -72 34.5 -109t96.5 -37q112 0 180 124v390h14z" />
    <glyph glyph-name="uni01D5" unicode="&#x1d5;" horiz-adv-x="638" 
d="M421 842h-200v14h200v-14zM239 770q15 0 15 -14t-15 -14q-14 0 -14 14t14 14zM398 770q15 0 15 -14t-15 -14q-14 0 -14 14t14 14zM522 681v-474q0 -99 -49.5 -157.5t-153.5 -58.5q-105 0 -154 58t-49 158v474h14v-473q0 -94 45.5 -149t143.5 -55t143.5 55t45.5 149v473
h14z" />
    <glyph glyph-name="uni01D6" unicode="&#x1d6;" horiz-adv-x="576" 
d="M391 748h-200v14h200v-14zM211 673q15 0 15 -14t-15 -14q-14 0 -14 14t14 14zM370 673q15 0 15 -14t-15 -14q-14 0 -14 14t14 14zM455 518v-518h-12l-1 110q-65 -119 -182 -119q-68 0 -106 41t-38 118v368h14v-368q0 -72 34.5 -109t96.5 -37q112 0 180 124v390h14z" />
    <glyph glyph-name="uni01D7" unicode="&#x1d7;" horiz-adv-x="638" 
d="M391 907l11 -11l-97 -110l-8 7zM239 770q15 0 15 -14t-15 -14q-14 0 -14 14t14 14zM398 770q15 0 15 -14t-15 -14q-14 0 -14 14t14 14zM522 681v-474q0 -99 -49.5 -157.5t-153.5 -58.5q-105 0 -154 58t-49 158v474h14v-473q0 -94 45.5 -149t143.5 -55t143.5 55t45.5 149
v473h14z" />
    <glyph glyph-name="uni01D8" unicode="&#x1d8;" horiz-adv-x="576" 
d="M360 810l11 -11l-97 -110l-8 7zM208 673q15 0 15 -14t-15 -14q-14 0 -14 14t14 14zM367 673q15 0 15 -14t-15 -14q-14 0 -14 14t14 14zM455 518v-518h-12l-1 110q-65 -119 -182 -119q-68 0 -106 41t-38 118v368h14v-368q0 -72 34.5 -109t96.5 -37q112 0 180 124v390h14z
" />
    <glyph glyph-name="uni01D9" unicode="&#x1d9;" horiz-adv-x="638" 
d="M430 876l7 -9l-115 -85h-8l-115 85l8 9l111 -79zM239 770q15 0 15 -14t-15 -14q-14 0 -14 14t14 14zM399 770q14 0 14 -14t-14 -14q-15 0 -15 14t15 14zM522 681v-474q0 -99 -49.5 -157.5t-153.5 -58.5q-105 0 -154 58t-49 158v474h14v-473q0 -94 45.5 -149t143.5 -55
t143.5 55t45.5 149v473h14z" />
    <glyph glyph-name="uni01DA" unicode="&#x1da;" horiz-adv-x="576" 
d="M399 779l7 -9l-115 -85h-8l-115 85l8 9l111 -79zM208 673q15 0 15 -14t-15 -14q-6 0 -10 4.5t-4 9.5q0 14 14 14zM368 673q14 0 14 -14q0 -5 -4 -9.5t-10 -4.5q-15 0 -15 14t15 14zM455 518v-518h-12l-1 110q-65 -119 -182 -119q-68 0 -106 41t-38 118v368h14v-368
q0 -72 34.5 -109t96.5 -37q112 0 180 124v390h14z" />
    <glyph glyph-name="uni01DB" unicode="&#x1db;" horiz-adv-x="638" 
d="M250 907l93 -114l-8 -7l-97 110zM239 770q15 0 15 -14t-15 -14q-14 0 -14 14t14 14zM398 770q15 0 15 -14t-15 -14q-14 0 -14 14t14 14zM522 681v-474q0 -99 -49.5 -157.5t-153.5 -58.5q-105 0 -154 58t-49 158v474h14v-473q0 -94 45.5 -149t143.5 -55t143.5 55t45.5 149
v473h14z" />
    <glyph glyph-name="uni01DC" unicode="&#x1dc;" horiz-adv-x="576" 
d="M219 810l93 -114l-8 -7l-97 110zM208 673q15 0 15 -14t-15 -14q-14 0 -14 14t14 14zM367 673q15 0 15 -14t-15 -14q-14 0 -14 14t14 14zM455 518v-518h-12l-1 110q-65 -119 -182 -119q-68 0 -106 41t-38 118v368h14v-368q0 -72 34.5 -109t96.5 -37q112 0 180 124v390h14z
" />
    <glyph glyph-name="uni01DD" unicode="&#x1dd;" horiz-adv-x="532" 
d="M266 528q90 0 140 -68t50 -196q0 -138 -51.5 -205.5t-142.5 -67.5q-90 0 -140.5 67.5t-50.5 183.5q0 19 1 28h370q-1 120 -47.5 182.5t-128.5 62.5q-81 0 -154 -53l-8 10q72 56 162 56zM262 4q85 0 132 62.5t48 191.5h-356q-1 -5 -1 -16q0 -111 46.5 -174.5t130.5 -63.5z
" />
    <glyph glyph-name="uni01DE" unicode="&#x1de;" horiz-adv-x="557" 
d="M380 856v-14h-200v14h200zM184 756q0 14 14 14q15 0 15 -14t-15 -14q-14 0 -14 14zM343 756q0 14 14 14q15 0 15 -14t-15 -14q-14 0 -14 14zM511 0l-72 207h-322l-72 -207h-14l238 681h18l239 -681h-15zM122 221h312l-156 448z" />
    <glyph glyph-name="uni01DF" unicode="&#x1df;" horiz-adv-x="526" 
d="M355 762v-14h-200v14h200zM161 659q0 14 14 14q15 0 15 -14t-15 -14q-14 0 -14 14zM320 659q0 14 14 14q15 0 15 -14t-15 -14q-14 0 -14 14zM404 110q0 -53 10.5 -76.5t38.5 -32.5l-3 -10q-32 10 -45 33.5t-13 71.5q-57 -105 -171 -105q-72 0 -112.5 42t-40.5 112
q0 76 54 118.5t147 42.5h121v65q0 72 -31 108t-104 36q-65 0 -145 -33l-4 12q82 34 149 34q149 0 149 -156v-262zM221 4q114 0 169 110v179h-118q-89 0 -139 -38.5t-50 -109.5q0 -65 36.5 -103t101.5 -38z" />
    <glyph glyph-name="uni01E0" unicode="&#x1e0;" horiz-adv-x="557" 
d="M379 856v-14h-200v14h200zM264 763q0 14 15 14q14 0 14 -14q0 -15 -14 -15q-15 0 -15 15zM511 0l-72 207h-322l-72 -207h-14l238 681h18l239 -681h-15zM122 221h312l-156 448z" />
    <glyph glyph-name="uni01E1" unicode="&#x1e1;" horiz-adv-x="526" 
d="M350 754v-14h-200v14h200zM236 647q0 14 15 14q14 0 14 -14q0 -15 -14 -15q-15 0 -15 15zM404 110q0 -53 10.5 -76.5t38.5 -32.5l-3 -10q-32 10 -45 33.5t-13 71.5q-57 -105 -171 -105q-72 0 -112.5 42t-40.5 112q0 76 54 118.5t147 42.5h121v65q0 72 -31 108t-104 36
q-65 0 -145 -33l-4 12q82 34 149 34q149 0 149 -156v-262zM221 4q114 0 169 110v179h-118q-89 0 -139 -38.5t-50 -109.5q0 -65 36.5 -103t101.5 -38z" />
    <glyph glyph-name="uni01E2" unicode="&#x1e2;" horiz-adv-x="753" 
d="M550 826v-14h-200v14h200zM474 14h233v-14h-244l-52 200h-304l-77 -200h-14l263 681h374l-2 -14h-349l80 -300h262v-13h-259zM112 213h295l-119 456z" />
    <glyph glyph-name="uni01E3" unicode="&#x1e3;" horiz-adv-x="843" 
d="M522 700v-14h-200v14h200zM772 286q0 -26 -1 -37h-366q1 -119 52 -182t136 -63q80 0 149 57l8 -10q-73 -60 -157 -60q-63 0 -109.5 32t-70.5 93q-41 -67 -86 -96t-106 -29q-72 0 -112.5 42t-40.5 112q0 77 54 119.5t147 42.5h121v64q0 72 -31 108t-104 36q-65 0 -145 -33
l-4 12q82 34 149 34q149 0 149 -156v-7q20 79 68 121t118 42q90 0 136 -66t46 -176zM757 261q1 10 1 30q0 101 -42 162.5t-126 61.5q-83 0 -134 -66t-52 -188h353zM221 4q60 0 103 29.5t84 96.5q-18 53 -18 124v39h-118q-89 0 -139 -38.5t-50 -109.5q0 -65 36.5 -103
t101.5 -38z" />
    <glyph glyph-name="uni01E4" unicode="&#x1e4;" horiz-adv-x="616" 
d="M603 229v-13h-76v-176q-82 -49 -174 -49q-125 0 -198.5 91.5t-73.5 262.5q0 85 23 153t61 109t84 62.5t96 21.5q89 0 165 -58l-9 -10q-69 54 -156 54q-101 0 -175 -85t-74 -247q0 -166 68.5 -253.5t188.5 -87.5q85 0 160 44v168h-148v13h148v107h-148l-2 13h164v-120h76z
" />
    <glyph glyph-name="uni01E5" unicode="&#x1e5;" horiz-adv-x="488" 
d="M528 -52v-13h-72q-6 -130 -204 -130q-108 0 -155.5 31t-47.5 105h14q0 -68 43.5 -95.5t145.5 -27.5q184 0 189 117h-151v13h151q-2 47 -38 73.5t-98 26.5h-88q-56 0 -86.5 21.5t-30.5 57.5q0 49 57 86q-88 46 -88 145q0 76 48 123t125 47q73 0 117.5 3t61.5 6.5t42 10.5
l4 -15q-51 -16 -167 -16q58 -13 89.5 -54.5t31.5 -106.5q0 -77 -47 -120.5t-128 -43.5q-41 0 -78 16q-54 -32 -54 -79q0 -68 103 -68h89q69 0 108.5 -30.5t41.5 -82.5h72zM84 358q0 -73 47.5 -113t114.5 -40q74 0 117 39.5t43 111.5q0 78 -45 119t-118 41
q-74 0 -116.5 -43.5t-42.5 -114.5z" />
    <glyph glyph-name="Gcaron" unicode="&#x1e6;" horiz-adv-x="603" 
d="M454 856l7 -9l-115 -85h-8l-115 85l8 9l111 -79zM345 691q89 0 165 -58l-9 -10q-69 54 -156 54q-101 0 -175 -85t-74 -247q0 -166 68.5 -253.5t188.5 -87.5q85 0 160 44v288h-148l-2 13h164v-309q-82 -49 -174 -49q-125 0 -198.5 91.5t-73.5 262.5q0 85 23 153t61 109
t84 62.5t96 21.5z" />
    <glyph glyph-name="gcaron" unicode="&#x1e7;" horiz-adv-x="488" 
d="M357 743l7 -8l-115 -91h-8l-115 91l8 8l111 -84zM463 548l4 -15q-51 -16 -167 -16q58 -13 89.5 -54.5t31.5 -106.5q0 -77 -47 -120.5t-128 -43.5q-41 0 -78 16q-54 -32 -54 -79q0 -68 103 -68h89q71 0 110.5 -32.5t39.5 -86.5q0 -137 -204 -137q-108 0 -155.5 31
t-47.5 105h14q0 -68 43.5 -95.5t145.5 -27.5q189 0 189 123q0 50 -36 78.5t-100 28.5h-88q-56 0 -86.5 21.5t-30.5 57.5q0 49 57 86q-88 46 -88 145q0 76 48 123t125 47q73 0 117.5 3t61.5 6.5t42 10.5zM243 516q-74 0 -116.5 -43.5t-42.5 -114.5q0 -73 47.5 -113t114.5 -40
q74 0 117 39.5t43 111.5q0 78 -45 119t-118 41z" />
    <glyph glyph-name="uni01E8" unicode="&#x1e8;" horiz-adv-x="508" 
d="M398 856l7 -9l-115 -85h-8l-115 85l8 9l111 -79zM140 681v-680h-14v680h14zM483 681l-321 -315l337 -366h-18l-338 366l323 315h17z" />
    <glyph glyph-name="uni01E9" unicode="&#x1e9;" horiz-adv-x="457" 
d="M372 905l7 -9l-115 -85h-8l-115 85l8 9l111 -79zM135 733v-733h-14v732zM411 518l-252 -234l277 -284h-17l-278 283l252 235h18z" />
    <glyph glyph-name="uni01EA" unicode="&#x1ea;" horiz-adv-x="688" 
d="M411 -2q-58 -24 -91.5 -51t-33.5 -67q0 -31 19 -48t53 -17q24 0 55 7l-2 -14q-29 -7 -53 -7q-42 0 -64.5 21t-22.5 57q0 65 101 113q-9 -1 -28 -1q-121 0 -192 91.5t-71 255.5t72 258.5t191 94.5q122 0 193 -92t71 -259q0 -141 -51.5 -230t-145.5 -112zM96 338
q0 -158 67 -246t181 -88q119 0 184 87.5t65 248.5q0 162 -66.5 249.5t-182.5 87.5q-114 0 -181 -89.5t-67 -249.5z" />
    <glyph glyph-name="uni01EB" unicode="&#x1eb;" 
d="M337 -2q-58 -24 -91.5 -51t-33.5 -67q0 -31 19 -48t53 -17q24 0 55 7l-2 -14q-29 -7 -53 -7q-42 0 -64.5 21t-22.5 57q0 65 100 112h-18q-95 0 -149 71t-54 196q0 128 55.5 199t149.5 71q95 0 149 -70t54 -196q0 -108 -38.5 -176t-108.5 -88zM90 258q0 -120 50.5 -187
t138.5 -67q89 0 140 67.5t51 190.5q0 120 -50.5 186.5t-138.5 66.5t-139.5 -67t-51.5 -190z" />
    <glyph glyph-name="uni01EC" unicode="&#x1ec;" horiz-adv-x="688" 
d="M444 826v-14h-200v14h200zM411 -2q-58 -24 -91.5 -51t-33.5 -67q0 -31 19 -48t53 -17q24 0 55 7l-2 -14q-29 -7 -53 -7q-42 0 -64.5 21t-22.5 57q0 65 101 113q-9 -1 -28 -1q-121 0 -192 91.5t-71 255.5t72 258.5t191 94.5q122 0 193 -92t71 -259q0 -141 -51.5 -230
t-145.5 -112zM96 338q0 -158 67 -246t181 -88q119 0 184 87.5t65 248.5q0 162 -66.5 249.5t-182.5 87.5q-114 0 -181 -89.5t-67 -249.5z" />
    <glyph glyph-name="uni01ED" unicode="&#x1ed;" 
d="M380 700v-14h-200v14h200zM337 -2q-58 -24 -91.5 -51t-33.5 -67q0 -31 19 -48t53 -17q24 0 55 7l-2 -14q-29 -7 -53 -7q-42 0 -64.5 21t-22.5 57q0 65 100 112h-18q-95 0 -149 71t-54 196q0 128 55.5 199t149.5 71q95 0 149 -70t54 -196q0 -108 -38.5 -176t-108.5 -88z
M90 258q0 -120 50.5 -187t138.5 -67q89 0 140 67.5t51 190.5q0 120 -50.5 186.5t-138.5 66.5t-139.5 -67t-51.5 -190z" />
    <glyph glyph-name="uni01EE" unicode="&#x1ee;" horiz-adv-x="469" 
d="M218 762h-8l-115 85l8 9l111 -79l112 79l7 -9zM204 369q105 0 160 -48.5t55 -139.5q0 -85 -53.5 -137.5t-148.5 -52.5q-117 0 -191 80l9 8q71 -75 181 -75q90 0 139 48.5t49 127.5q0 88 -51.5 131.5t-147.5 43.5h-75v14l243 299h-336v13h355v-12l-246 -300h58z" />
    <glyph glyph-name="uni01EF" unicode="&#x1ef;" horiz-adv-x="441" 
d="M214 644h-8l-115 91l8 8l111 -84l112 84l7 -8zM183 192q220 0 220 -191q0 -88 -52.5 -142t-143.5 -54q-107 0 -181 80l9 8q71 -75 172 -75q85 0 133.5 50t48.5 133q0 178 -206 178h-50v13l225 313h-316v13h334v-12l-227 -314h34z" />
    <glyph glyph-name="uni01F0" unicode="&#x1f0;" horiz-adv-x="256" 
d="M240 743l7 -8l-115 -91h-8l-115 91l8 8l111 -84zM135 518v-514q0 -61 -12 -98.5t-33 -57.5t-61 -41l-5 10q55 29 76 66t21 121v514h14z" />
    <glyph glyph-name="uni01F1" unicode="&#x1f1;" horiz-adv-x="1114" 
d="M1064 681v-13l-397 -654h382l-2 -14h-397v13l397 654h-360v14h377zM240 681q60 0 108 -13.5t93 -48t70 -103t25 -168.5q0 -81 -17.5 -144t-45 -100.5t-66.5 -61.5t-78 -33t-83 -9h-120v681h114zM239 667h-99v-653h106q55 0 100.5 15t86.5 50t64.5 103.5t23.5 165.5
q0 79 -16.5 137.5t-42.5 92.5t-65 54.5t-76 27.5t-82 7z" />
    <glyph glyph-name="uni01F2" unicode="&#x1f2;" horiz-adv-x="1027" 
d="M240 681q60 0 108 -13.5t93 -48t70 -103t25 -168.5q0 -81 -17.5 -144t-45 -100.5t-66.5 -61.5t-78 -33t-83 -9h-120v681h114zM239 667h-99v-653h106q55 0 100.5 15t86.5 50t64.5 103.5t23.5 165.5q0 79 -16.5 137.5t-42.5 92.5t-65 54.5t-76 27.5t-82 7zM989 518v-12
l-321 -493h312l-1 -13h-329v12l322 493h-294v13h311z" />
    <glyph glyph-name="uni01F3" unicode="&#x1f3;" horiz-adv-x="983" 
d="M439 437v296l14 -1v-732h-13l-1 94q-57 -103 -168 -103q-87 0 -138.5 70.5t-51.5 195.5q0 123 53 197t146 74q105 0 159 -91zM945 518v-12l-321 -493h312l-1 -13h-329v12l322 493h-294v13h311zM271 4q61 0 100 28.5t68 83.5v303q-57 96 -158 96q-85 0 -135.5 -70
t-50.5 -188q1 -120 48 -186.5t128 -66.5z" />
    <glyph glyph-name="uni01F4" unicode="&#x1f4;" horiz-adv-x="603" 
d="M422 854l7 -15l-174 -72l-4 10zM345 691q89 0 165 -58l-9 -10q-69 54 -156 54q-101 0 -175 -85t-74 -247q0 -166 68.5 -253.5t188.5 -87.5q85 0 160 44v288h-148l-2 13h164v-309q-82 -49 -174 -49q-125 0 -198.5 91.5t-73.5 262.5q0 85 23 153t61 109t84 62.5t96 21.5z
" />
    <glyph glyph-name="uni01F5" unicode="&#x1f5;" horiz-adv-x="488" 
d="M320 755l7 -15l-174 -83l-5 10zM463 548l4 -15q-51 -16 -167 -16q58 -13 89.5 -54.5t31.5 -106.5q0 -77 -47 -120.5t-128 -43.5q-41 0 -78 16q-54 -32 -54 -79q0 -68 103 -68h89q71 0 110.5 -32.5t39.5 -86.5q0 -137 -204 -137q-108 0 -155.5 31t-47.5 105h14
q0 -68 43.5 -95.5t145.5 -27.5q189 0 189 123q0 50 -36 78.5t-100 28.5h-88q-56 0 -86.5 21.5t-30.5 57.5q0 49 57 86q-88 46 -88 145q0 76 48 123t125 47q73 0 117.5 3t61.5 6.5t42 10.5zM243 516q-74 0 -116.5 -43.5t-42.5 -114.5q0 -73 47.5 -113t114.5 -40
q74 0 117 39.5t43 111.5q0 78 -45 119t-118 41z" />
    <glyph glyph-name="uni01F6" unicode="&#x1f6;" horiz-adv-x="957" 
d="M835 518q26 -144 26 -251q0 -139 -52 -207.5t-138 -68.5q-68 0 -111 42t-43 121v200h-377v-354h-14v681h14v-314h377v314h15v-526q0 -74 38.5 -112.5t100.5 -38.5q78 0 127 63.5t49 199.5q0 101 -27 251h15z" />
    <glyph glyph-name="uni01F7" unicode="&#x1f7;" horiz-adv-x="556" 
d="M323 691q77 0 124.5 -47.5t47.5 -127.5q0 -52 -17.5 -92.5t-52.5 -69.5t-75 -49t-97 -40l-113 -38v-227h-14v681h14v-70q80 80 183 80zM255 279q110 38 167.5 90.5t57.5 145.5q0 76 -43 119t-114 43q-104 0 -183 -81v-356z" />
    <glyph glyph-name="uni01F8" unicode="&#x1f8;" horiz-adv-x="658" 
d="M256 854l171 -77l-4 -10l-174 72zM533 681v-681h-18l-377 665q2 -60 2 -149v-516h-14v681h18l376 -665q-1 41 -1 161v504h14z" />
    <glyph glyph-name="uni01F9" unicode="&#x1f9;" horiz-adv-x="581" 
d="M388 667l-6 -10l-173 83l7 15zM329 528q136 0 136 -159v-369h-14v367q0 149 -123 149q-113 0 -193 -131v-385h-14v518h12l2 -114q77 124 194 124z" />
    <glyph glyph-name="Aringacute" unicode="&#x1fa;" horiz-adv-x="557" 
d="M367 976l-174 -72l-4 10l171 77zM205 807q0 32 20 52t53 20q34 0 53.5 -19.5t19.5 -52.5q0 -32 -20 -52t-53 -20q-34 0 -53.5 19.5t-19.5 52.5zM337 807q0 29 -15.5 45t-43.5 16t-43.5 -16.5t-15.5 -44.5q0 -29 15.5 -45t43.5 -16t43.5 16.5t15.5 44.5zM511 0l-72 207
h-322l-72 -207h-14l238 681h18l239 -681h-15zM122 221h312l-156 448z" />
    <glyph glyph-name="aringacute" unicode="&#x1fb;" horiz-adv-x="526" 
d="M343 826l-174 -72l-4 10l171 77zM181 660q0 32 20 52t53 20q34 0 53.5 -20t19.5 -52t-20 -52t-53 -20q-34 0 -53.5 20t-19.5 52zM313 660q0 29 -15.5 45t-43.5 16t-43.5 -16.5t-15.5 -44.5q0 -29 15.5 -45t43.5 -16t43.5 16.5t15.5 44.5zM404 110q0 -53 10.5 -76.5
t38.5 -32.5l-3 -10q-32 10 -45 33.5t-13 71.5q-57 -105 -171 -105q-72 0 -112.5 42t-40.5 112q0 76 54 118.5t147 42.5h121v65q0 72 -31 108t-104 36q-65 0 -145 -33l-4 12q82 34 149 34q149 0 149 -156v-262zM221 4q114 0 169 110v179h-118q-89 0 -139 -38.5t-50 -109.5
q0 -65 36.5 -103t101.5 -38z" />
    <glyph glyph-name="AEacute" unicode="&#x1fc;" horiz-adv-x="753" 
d="M538 839l-174 -72l-4 10l171 77zM474 14h233v-14h-244l-52 200h-304l-77 -200h-14l263 681h374l-2 -14h-349l80 -300h262v-13h-259zM112 213h295l-119 456z" />
    <glyph glyph-name="aeacute" unicode="&#x1fd;" horiz-adv-x="843" 
d="M504 740l-174 -83l-5 10l172 88zM772 286q0 -26 -1 -37h-366q1 -119 52 -182t136 -63q80 0 149 57l8 -10q-73 -60 -157 -60q-63 0 -109.5 32t-70.5 93q-41 -67 -86 -96t-106 -29q-72 0 -112.5 42t-40.5 112q0 77 54 119.5t147 42.5h121v64q0 72 -31 108t-104 36
q-65 0 -145 -33l-4 12q82 34 149 34q149 0 149 -156v-7q20 79 68 121t118 42q90 0 136 -66t46 -176zM757 261q1 10 1 30q0 101 -42 162.5t-126 61.5q-83 0 -134 -66t-52 -188h353zM221 4q60 0 103 29.5t84 96.5q-18 53 -18 124v39h-118q-89 0 -139 -38.5t-50 -109.5
q0 -65 36.5 -103t101.5 -38z" />
    <glyph glyph-name="Oslashacute" unicode="&#x1fe;" horiz-adv-x="688" 
d="M423 847l-174 -72l-4 10l171 77zM447 671q76 -34 118.5 -118.5t42.5 -212.5q0 -165 -69.5 -257t-194.5 -92q-49 0 -91 15l-33 -114l-14 5l35 114q-76 34 -118 118t-42 209q0 164 72 258.5t191 94.5q49 0 91 -15l33 118l15 -5zM96 338q0 -120 39 -200.5t110 -113.5
l187 638q-40 15 -88 15q-114 0 -181 -89.5t-67 -249.5zM344 4q119 0 184 87.5t65 248.5q0 123 -39 204.5t-111 113.5l-187 -638q39 -16 88 -16z" />
    <glyph glyph-name="oslashacute" unicode="&#x1ff;" 
d="M363 740l-174 -83l-5 10l172 88zM369 509q115 -58 115 -247q0 -129 -55 -200t-150 -71q-44 0 -76 14l-41 -121l-13 4l42 122q-115 60 -115 248q0 128 55.5 199t149.5 71q44 0 76 -14l40 121l13 -3zM90 258q0 -178 106 -235l157 478q-33 14 -72 14q-88 0 -139.5 -67
t-51.5 -190zM279 4q89 0 140 67.5t51 190.5q0 178 -105 234l-158 -478q34 -14 72 -14z" />
    <glyph glyph-name="uni0200" unicode="&#x200;" horiz-adv-x="557" 
d="M239 824l-11 -5l-73 125l15 8zM341 827l-11 -5l-67 120l15 8zM511 0l-72 207h-322l-72 -207h-14l238 681h18l239 -681h-15zM122 221h312l-156 448z" />
    <glyph glyph-name="uni0201" unicode="&#x201;" horiz-adv-x="526" 
d="M213 661l-11 -5l-73 125l15 8zM315 664l-11 -5l-67 120l15 8zM404 110q0 -53 10.5 -76.5t38.5 -32.5l-3 -10q-32 10 -45 33.5t-13 71.5q-57 -105 -171 -105q-72 0 -112.5 42t-40.5 112q0 76 54 118.5t147 42.5h121v65q0 72 -31 108t-104 36q-65 0 -145 -33l-4 12
q82 34 149 34q149 0 149 -156v-262zM221 4q114 0 169 110v179h-118q-89 0 -139 -38.5t-50 -109.5q0 -65 36.5 -103t101.5 -38z" />
    <glyph glyph-name="uni0202" unicode="&#x202;" horiz-adv-x="557" 
d="M278 872q-73 0 -92 -69l-11 3q8 35 35 57t68 22t68 -22t36 -57l-11 -3q-20 69 -93 69zM511 0l-72 207h-322l-72 -207h-14l238 681h18l239 -681h-15zM122 221h312l-156 448z" />
    <glyph glyph-name="uni0203" unicode="&#x203;" horiz-adv-x="526" 
d="M252 709q-73 0 -92 -69l-11 3q8 35 35 57t68 22t68 -22t36 -57l-11 -3q-20 69 -93 69zM404 110q0 -53 10.5 -76.5t38.5 -32.5l-3 -10q-32 10 -45 33.5t-13 71.5q-57 -105 -171 -105q-72 0 -112.5 42t-40.5 112q0 76 54 118.5t147 42.5h121v65q0 72 -31 108t-104 36
q-65 0 -145 -33l-4 12q82 34 149 34q149 0 149 -156v-262zM221 4q114 0 169 110v179h-118q-89 0 -139 -38.5t-50 -109.5q0 -65 36.5 -103t101.5 -38z" />
    <glyph glyph-name="uni0204" unicode="&#x204;" horiz-adv-x="494" 
d="M178 952l69 -128l-11 -5l-73 125zM286 950l63 -123l-11 -5l-67 120zM440 681l-2 -14h-298v-300h257v-13h-257v-340h308v-14h-322v681h314z" />
    <glyph glyph-name="uni0205" unicode="&#x205;" horiz-adv-x="528" 
d="M236 661l-11 -5l-73 125l15 8zM338 664l-11 -5l-67 120l15 8zM458 286q0 -15 -2 -37h-366q2 -119 53 -182t136 -63q80 0 149 57l8 -10q-73 -60 -157 -60q-94 0 -148.5 69t-54.5 194q0 128 53.5 201t144.5 73t137.5 -66t46.5 -176zM443 261q1 10 1 30q0 101 -42.5 162.5
t-126.5 61.5q-83 0 -133.5 -66t-51.5 -188h353z" />
    <glyph glyph-name="uni0206" unicode="&#x206;" horiz-adv-x="494" 
d="M285 885q41 0 68 -22t36 -57l-11 -3q-20 69 -93 69t-92 -69l-11 3q8 35 35 57t68 22zM440 681l-2 -14h-298v-300h257v-13h-257v-340h308v-14h-322v681h314z" />
    <glyph glyph-name="uni0207" unicode="&#x207;" horiz-adv-x="528" 
d="M275 709q-73 0 -92 -69l-11 3q8 35 35 57t68 22t68 -22t36 -57l-11 -3q-20 69 -93 69zM458 286q0 -15 -2 -37h-366q2 -119 53 -182t136 -63q80 0 149 57l8 -10q-73 -60 -157 -60q-94 0 -148.5 69t-54.5 194q0 128 53.5 201t144.5 73t137.5 -66t46.5 -176zM443 261
q1 10 1 30q0 101 -42.5 162.5t-126.5 61.5q-83 0 -133.5 -66t-51.5 -188h353z" />
    <glyph glyph-name="uni0208" unicode="&#x208;" horiz-adv-x="266" 
d="M25 952l69 -128l-11 -5l-73 125zM133 950l63 -123l-11 -5l-67 120zM140 681v-681h-14v681h14z" />
    <glyph glyph-name="uni0209" unicode="&#x209;" horiz-adv-x="255" 
d="M19 789l69 -128l-11 -5l-73 125zM127 787l63 -123l-11 -5l-67 120zM135 518v-518h-14v518h14z" />
    <glyph glyph-name="uni020A" unicode="&#x20a;" horiz-adv-x="266" 
d="M132 885q41 0 68 -22t36 -57l-11 -3q-20 69 -93 69t-92 -69l-11 3q8 35 35 57t68 22zM140 681v-681h-14v681h14z" />
    <glyph glyph-name="uni020B" unicode="&#x20b;" horiz-adv-x="255" 
d="M127 722q41 0 68 -22t36 -57l-11 -3q-20 69 -93 69t-92 -69l-11 3q8 35 35 57t68 22zM135 518v-518h-14v518h14z" />
    <glyph glyph-name="uni020C" unicode="&#x20c;" horiz-adv-x="688" 
d="M236 952l69 -128l-11 -5l-73 125zM344 950l63 -123l-11 -5l-67 120zM344 691q122 0 193 -92t71 -259q0 -165 -69.5 -257t-194.5 -92q-121 0 -192 91.5t-71 255.5t72 258.5t191 94.5zM344 677q-114 0 -181 -89.5t-67 -249.5q0 -158 67 -246t181 -88q119 0 184 87.5
t65 248.5q0 162 -66.5 249.5t-182.5 87.5z" />
    <glyph glyph-name="uni020D" unicode="&#x20d;" 
d="M172 789l69 -128l-11 -5l-73 125zM280 787l63 -123l-11 -5l-67 120zM281 528q95 0 149 -70t54 -196q0 -129 -55 -200t-150 -71t-149 71t-54 196q0 128 55.5 199t149.5 71zM281 515q-88 0 -139.5 -67t-51.5 -190q0 -120 50.5 -187t138.5 -67q89 0 140 67.5t51 190.5
q0 120 -50.5 186.5t-138.5 66.5z" />
    <glyph glyph-name="uni020E" unicode="&#x20e;" horiz-adv-x="688" 
d="M344 885q41 0 68 -22t36 -57l-11 -3q-20 69 -93 69t-92 -69l-11 3q8 35 35 57t68 22zM344 691q122 0 193 -92t71 -259q0 -165 -69.5 -257t-194.5 -92q-121 0 -192 91.5t-71 255.5t72 258.5t191 94.5zM344 677q-114 0 -181 -89.5t-67 -249.5q0 -158 67 -246t181 -88
q119 0 184 87.5t65 248.5q0 162 -66.5 249.5t-182.5 87.5z" />
    <glyph glyph-name="uni020F" unicode="&#x20f;" 
d="M280 722q41 0 68 -22t36 -57l-11 -3q-20 69 -93 69t-92 -69l-11 3q8 35 35 57t68 22zM281 528q95 0 149 -70t54 -196q0 -129 -55 -200t-150 -71t-149 71t-54 196q0 128 55.5 199t149.5 71zM281 515q-88 0 -139.5 -67t-51.5 -190q0 -120 50.5 -187t138.5 -67
q89 0 140 67.5t51 190.5q0 120 -50.5 186.5t-138.5 66.5z" />
    <glyph glyph-name="uni0210" unicode="&#x210;" horiz-adv-x="568" 
d="M246 824l-11 -5l-73 125l15 8zM348 827l-11 -5l-67 120l15 8zM501 0l-189 328h-172v-328h-14v681h144q221 0 221 -176q0 -81 -45 -123.5t-118 -51.5l191 -330h-18zM140 342h155q81 0 131 40t50 123q0 80 -48.5 121t-159.5 41h-128v-325z" />
    <glyph glyph-name="uni0211" unicode="&#x211;" horiz-adv-x="362" 
d="M190 661l-11 -5l-73 125l15 8zM292 664l-11 -5l-67 120l15 8zM293 528q28 0 48 -5l-2 -13q-20 6 -46 6q-60 0 -96.5 -38.5t-61.5 -124.5v-353h-14v518h12v-134q23 76 61 110t99 34z" />
    <glyph glyph-name="uni0212" unicode="&#x212;" horiz-adv-x="568" 
d="M285 872q-73 0 -92 -69l-11 3q8 35 35 57t68 22t68 -22t36 -57l-11 -3q-20 69 -93 69zM501 0l-189 328h-172v-328h-14v681h144q221 0 221 -176q0 -81 -45 -123.5t-118 -51.5l191 -330h-18zM140 342h155q81 0 131 40t50 123q0 80 -48.5 121t-159.5 41h-128v-325z" />
    <glyph glyph-name="uni0213" unicode="&#x213;" horiz-adv-x="362" 
d="M229 709q-73 0 -92 -69l-11 3q8 35 35 57t68 22t68 -22t36 -57l-11 -3q-20 69 -93 69zM293 528q28 0 48 -5l-2 -13q-20 6 -46 6q-60 0 -96.5 -38.5t-61.5 -124.5v-353h-14v518h12v-134q23 76 61 110t99 34z" />
    <glyph glyph-name="uni0214" unicode="&#x214;" horiz-adv-x="638" 
d="M211 952l69 -128l-11 -5l-73 125zM319 950l63 -123l-11 -5l-67 120zM522 681v-474q0 -99 -49.5 -157.5t-153.5 -58.5q-105 0 -154 58t-49 158v474h14v-473q0 -94 45.5 -149t143.5 -55t143.5 55t45.5 149v473h14z" />
    <glyph glyph-name="uni0215" unicode="&#x215;" horiz-adv-x="576" 
d="M180 789l69 -128l-11 -5l-73 125zM288 787l63 -123l-11 -5l-67 120zM455 518v-518h-12l-1 110q-65 -119 -182 -119q-68 0 -106 41t-38 118v368h14v-368q0 -72 34.5 -109t96.5 -37q112 0 180 124v390h14z" />
    <glyph glyph-name="uni0216" unicode="&#x216;" horiz-adv-x="638" 
d="M319 885q41 0 68 -22t36 -57l-11 -3q-20 69 -93 69t-92 -69l-11 3q8 35 35 57t68 22zM522 681v-474q0 -99 -49.5 -157.5t-153.5 -58.5q-105 0 -154 58t-49 158v474h14v-473q0 -94 45.5 -149t143.5 -55t143.5 55t45.5 149v473h14z" />
    <glyph glyph-name="uni0217" unicode="&#x217;" horiz-adv-x="576" 
d="M288 722q41 0 68 -22t36 -57l-11 -3q-20 69 -93 69t-92 -69l-11 3q8 35 35 57t68 22zM455 518v-518h-12l-1 110q-65 -119 -182 -119q-68 0 -106 41t-38 118v368h14v-368q0 -72 34.5 -109t96.5 -37q112 0 180 124v390h14z" />
    <glyph glyph-name="Scommaaccent" unicode="&#x218;" horiz-adv-x="537" 
d="M264 691q59 0 99 -17t79 -51l-9 -10q-72 64 -169 64q-75 0 -120.5 -40t-45.5 -101q0 -63 37 -96.5t137 -64.5q104 -32 148 -73.5t44 -121.5q0 -84 -57 -136.5t-148 -52.5q-117 0 -200 80l9 10q82 -77 190 -77q85 0 138 48.5t53 127.5q0 74 -41 112t-141 70
q-105 33 -144.5 70t-39.5 104t50 111t131 44zM265 -100q17 0 17 -16q0 -8 -9 -29l-31 -105h-9l27 118q-12 3 -12 16q0 16 17 16z" />
    <glyph glyph-name="scommaaccent" unicode="&#x219;" horiz-adv-x="459" 
d="M227 528q86 0 152 -54l-8 -10q-63 51 -144 51q-60 0 -99.5 -31.5t-39.5 -81.5q0 -46 32.5 -72.5t113.5 -48.5q90 -25 124.5 -55.5t34.5 -93.5q0 -64 -46.5 -102.5t-119.5 -38.5q-98 0 -171 66l8 9q37 -31 74 -46.5t89 -15.5q67 0 109.5 34.5t42.5 93.5q0 58 -32 85.5
t-120 52.5q-84 23 -118.5 52t-34.5 81q0 55 44 90t109 35zM234 -100q17 0 17 -16q0 -8 -9 -29l-31 -105h-9l27 118q-12 3 -12 16q0 16 17 16z" />
    <glyph glyph-name="uni021A" unicode="&#x21a;" horiz-adv-x="474" 
d="M458 681l-2 -14h-212v-667h-14v667h-212v14h440zM241 -100q17 0 17 -16q0 -8 -9 -29l-31 -105h-9l27 118q-12 3 -12 16q0 16 17 16z" />
    <glyph glyph-name="uni021B" unicode="&#x21b;" horiz-adv-x="323" 
d="M321 19q-47 -28 -98 -28q-52 0 -80.5 32t-28.5 92v391h-86v12h86v133l14 1v-134h145l-2 -12h-143v-390q0 -54 24.5 -83t70.5 -29q49 0 91 26zM229 -100q17 0 17 -16q0 -8 -9 -29l-31 -105h-9l27 118q-12 3 -12 16q0 16 17 16z" />
    <glyph glyph-name="uni021C" unicode="&#x21c;" horiz-adv-x="489" 
d="M228 691q83 0 129.5 -46t46.5 -122q0 -73 -40.5 -113.5t-104.5 -48.5q74 -5 120.5 -45t46.5 -111q0 -103 -80.5 -170t-278.5 -114l-1 13q190 46 267.5 109.5t77.5 160.5q0 71 -50.5 111t-138.5 39h-59l2 13h53q77 0 124.5 40.5t47.5 115.5q0 70 -43 112t-119 42
q-99 0 -184 -80l-8 10q86 84 192 84z" />
    <glyph glyph-name="uni021D" unicode="&#x21d;" horiz-adv-x="450" 
d="M201 528q69 0 109 -36.5t40 -98.5q0 -113 -120 -128q69 -2 107 -31t38 -85q0 -80 -71.5 -137.5t-232.5 -95.5l-2 13q156 37 223.5 90.5t67.5 129.5q0 109 -156 109h-63l1 13h46q148 0 148 122q0 56 -35.5 89t-99.5 33q-82 0 -158 -49l-7 10q76 52 165 52z" />
    <glyph glyph-name="uni021E" unicode="&#x21e;" horiz-adv-x="657" 
d="M439 856l7 -9l-115 -85h-8l-115 85l8 9l111 -79zM517 0v354h-377v-354h-14v681h14v-314h377v314h15v-681h-15z" />
    <glyph glyph-name="uni021F" unicode="&#x21f;" horiz-adv-x="581" 
d="M298 811h-8l-115 85l8 9l111 -79l112 79l7 -9zM329 528q68 0 102 -41.5t34 -117.5v-369h-14v367q0 149 -123 149q-113 0 -193 -131v-385h-14v732l14 2v-330q77 124 194 124z" />
    <glyph glyph-name="uni0220" unicode="&#x220;" horiz-adv-x="646" 
d="M365 691q77 0 119.5 -48t42.5 -140v-693h-14v691q0 87 -39 131.5t-110 44.5q-69 0 -121.5 -34.5t-102.5 -99.5v-543h-14v681h12l2 -119q98 129 225 129z" />
    <glyph glyph-name="uni0221" unicode="&#x221;" horiz-adv-x="653" 
d="M602 179q40 0 63.5 -23t23.5 -59q0 -47 -37.5 -76.5t-95.5 -29.5q-69 0 -99 45l-44 -88l-12 4l49 97q-10 21 -11 45q-57 -103 -168 -103q-87 0 -138.5 70.5t-51.5 195.5q0 123 53 197t146 74q105 0 159 -91v296l14 -1v-628q0 -20 5 -40q29 56 62.5 85.5t81.5 29.5zM271 4
q61 0 100 28.5t68 83.5v303q-57 96 -158 96q-85 0 -135.5 -70t-50.5 -188q1 -120 48 -186.5t128 -66.5zM556 4q52 0 85.5 25.5t33.5 67.5q0 31 -20 50.5t-53 19.5q-46 0 -77 -29t-61 -88q24 -46 92 -46z" />
    <glyph glyph-name="uni0222" unicode="&#x222;" horiz-adv-x="628" 
d="M377 384q82 -15 126.5 -67t44.5 -127q0 -85 -61.5 -142t-172.5 -57q-109 0 -171 56t-62 141q0 73 45 127t126 69q-121 27 -121 175v122h14v-122q0 -169 169 -169q171 0 171 169v122h15v-122q0 -147 -123 -175zM314 4q106 0 162.5 52.5t56.5 133.5q0 84 -57 135.5
t-162 51.5q-102 0 -160 -53.5t-58 -135.5q0 -79 57.5 -131.5t160.5 -52.5z" />
    <glyph glyph-name="uni0223" unicode="&#x223;" horiz-adv-x="554" 
d="M329 410q72 -15 110.5 -69.5t38.5 -137.5q0 -92 -53.5 -152t-147.5 -60q-92 0 -146.5 59t-54.5 151q0 80 40 136.5t111 72.5q-112 26 -112 170v150h14v-150q0 -164 148 -164q150 0 150 164v150h14v-150q0 -143 -112 -170zM277 4q88 0 137.5 55.5t49.5 143.5
q0 92 -48.5 146.5t-138.5 54.5q-87 0 -137 -56.5t-50 -146.5q0 -86 50.5 -141.5t136.5 -55.5z" />
    <glyph glyph-name="uni0224" unicode="&#x224;" horiz-adv-x="507" 
d="M457 681v-13l-397 -654h381v-105q0 -50 -25 -77t-67 -27q-49 0 -84 29l7 10q35 -26 77 -26q35 0 56.5 23t21.5 69v90h-384v13l397 654h-360v14h377z" />
    <glyph glyph-name="uni0225" unicode="&#x225;" horiz-adv-x="410" 
d="M372 518v-12l-321 -493h311v-104q0 -50 -25 -77t-67 -27q-47 0 -84 29l7 10q33 -26 77 -26q36 0 57 22.5t21 69.5v90h-315v12l322 493h-294v13h311z" />
    <glyph glyph-name="uni0226" unicode="&#x226;" horiz-adv-x="557" 
d="M279 814q-15 0 -15 15q0 14 15 14q14 0 14 -14q0 -15 -14 -15zM511 0l-72 207h-322l-72 -207h-14l238 681h18l239 -681h-15zM122 221h312l-156 448z" />
    <glyph glyph-name="uni0227" unicode="&#x227;" horiz-adv-x="526" 
d="M253 688q-15 0 -15 15q0 14 15 14q14 0 14 -14q0 -15 -14 -15zM404 110q0 -53 10.5 -76.5t38.5 -32.5l-3 -10q-32 10 -45 33.5t-13 71.5q-57 -105 -171 -105q-72 0 -112.5 42t-40.5 112q0 76 54 118.5t147 42.5h121v65q0 72 -31 108t-104 36q-65 0 -145 -33l-4 12
q82 34 149 34q149 0 149 -156v-262zM221 4q114 0 169 110v179h-118q-89 0 -139 -38.5t-50 -109.5q0 -65 36.5 -103t101.5 -38z" />
    <glyph glyph-name="uni0228" unicode="&#x228;" horiz-adv-x="494" 
d="M448 0h-163l-3 -77q91 -5 91 -64q0 -33 -22.5 -50t-55.5 -17q-38 0 -65 17l6 11q25 -15 59 -15q27 0 45 13.5t18 40.5q0 52 -89 53l5 88h-148v681h314l-2 -14h-298v-300h257v-13h-257v-340h308v-14z" />
    <glyph glyph-name="uni0229" unicode="&#x229;" horiz-adv-x="528" 
d="M458 286q0 -15 -2 -37h-366q2 -119 53 -182t136 -63q80 0 149 57l8 -10q-73 -60 -156 -60l-3 -68q91 -5 91 -64q0 -33 -22.5 -50t-55.5 -17q-38 0 -65 17l6 11q25 -15 59 -15q27 0 45 13.5t18 40.5q0 52 -89 53l4 79q-89 4 -140.5 73t-51.5 190q0 128 53.5 201t144.5 73
t137.5 -66t46.5 -176zM443 261q1 10 1 30q0 101 -42.5 162.5t-126.5 61.5q-83 0 -133.5 -66t-51.5 -188h353z" />
    <glyph glyph-name="uni022A" unicode="&#x22a;" horiz-adv-x="688" 
d="M446 842h-200v14h200v-14zM264 770q15 0 15 -14t-15 -14q-14 0 -14 14t14 14zM423 770q15 0 15 -14t-15 -14q-14 0 -14 14t14 14zM344 691q122 0 193 -92t71 -259q0 -165 -69.5 -257t-194.5 -92q-121 0 -192 91.5t-71 255.5t72 258.5t191 94.5zM344 677
q-114 0 -181 -89.5t-67 -249.5q0 -158 67 -246t181 -88q119 0 184 87.5t65 248.5q0 162 -66.5 249.5t-182.5 87.5z" />
    <glyph glyph-name="uni022B" unicode="&#x22b;" 
d="M383 748h-200v14h200v-14zM203 673q15 0 15 -14t-15 -14q-14 0 -14 14t14 14zM362 673q15 0 15 -14t-15 -14q-14 0 -14 14t14 14zM281 528q95 0 149 -70t54 -196q0 -129 -55 -200t-150 -71t-149 71t-54 196q0 128 55.5 199t149.5 71zM281 515q-88 0 -139.5 -67
t-51.5 -190q0 -120 50.5 -187t138.5 -67q89 0 140 67.5t51 190.5q0 120 -50.5 186.5t-138.5 66.5z" />
    <glyph glyph-name="uni022C" unicode="&#x22c;" horiz-adv-x="688" 
d="M445 876h-200v14h200v-14zM403 758q-24 0 -61 22t-54 22q-30 0 -61 -35l-9 5q34 43 70 43q20 0 57 -22t58 -22q33 0 62 40l9 -6q-30 -47 -71 -47zM344 691q122 0 193 -92t71 -259q0 -165 -69.5 -257t-194.5 -92q-121 0 -192 91.5t-71 255.5t72 258.5t191 94.5zM344 677
q-114 0 -181 -89.5t-67 -249.5q0 -158 67 -246t181 -88q119 0 184 87.5t65 248.5q0 162 -66.5 249.5t-182.5 87.5z" />
    <glyph glyph-name="uni022D" unicode="&#x22d;" 
d="M381 726h-200v14h200v-14zM339 605q-24 0 -61 22t-54 22q-30 0 -61 -35l-9 5q34 43 70 43q20 0 57 -22t58 -22q33 0 62 40l9 -6q-30 -47 -71 -47zM281 528q95 0 149 -70t54 -196q0 -129 -55 -200t-150 -71t-149 71t-54 196q0 128 55.5 199t149.5 71zM281 515
q-88 0 -139.5 -67t-51.5 -190q0 -120 50.5 -187t138.5 -67q89 0 140 67.5t51 190.5q0 120 -50.5 186.5t-138.5 66.5z" />
    <glyph glyph-name="uni022E" unicode="&#x22e;" horiz-adv-x="688" 
d="M345 843q14 0 14 -14q0 -15 -14 -15q-15 0 -15 15q0 14 15 14zM344 691q122 0 193 -92t71 -259q0 -165 -69.5 -257t-194.5 -92q-121 0 -192 91.5t-71 255.5t72 258.5t191 94.5zM344 677q-114 0 -181 -89.5t-67 -249.5q0 -158 67 -246t181 -88q119 0 184 87.5t65 248.5
q0 162 -66.5 249.5t-182.5 87.5z" />
    <glyph glyph-name="uni022F" unicode="&#x22f;" 
d="M281 717q14 0 14 -14q0 -15 -14 -15q-15 0 -15 15q0 14 15 14zM281 528q95 0 149 -70t54 -196q0 -129 -55 -200t-150 -71t-149 71t-54 196q0 128 55.5 199t149.5 71zM281 515q-88 0 -139.5 -67t-51.5 -190q0 -120 50.5 -187t138.5 -67q89 0 140 67.5t51 190.5
q0 120 -50.5 186.5t-138.5 66.5z" />
    <glyph glyph-name="uni0230" unicode="&#x230;" horiz-adv-x="688" 
d="M445 842h-200v14h200v-14zM345 777q14 0 14 -14q0 -15 -14 -15q-15 0 -15 15q0 14 15 14zM344 691q122 0 193 -92t71 -259q0 -165 -69.5 -257t-194.5 -92q-121 0 -192 91.5t-71 255.5t72 258.5t191 94.5zM344 677q-114 0 -181 -89.5t-67 -249.5q0 -158 67 -246t181 -88
q119 0 184 87.5t65 248.5q0 162 -66.5 249.5t-182.5 87.5z" />
    <glyph glyph-name="uni0231" unicode="&#x231;" 
d="M378 740h-200v14h200v-14zM279 661q14 0 14 -14q0 -15 -14 -15q-15 0 -15 15q0 14 15 14zM281 528q95 0 149 -70t54 -196q0 -129 -55 -200t-150 -71t-149 71t-54 196q0 128 55.5 199t149.5 71zM281 515q-88 0 -139.5 -67t-51.5 -190q0 -120 50.5 -187t138.5 -67
q89 0 140 67.5t51 190.5q0 120 -50.5 186.5t-138.5 66.5z" />
    <glyph glyph-name="uni0232" unicode="&#x232;" horiz-adv-x="488" 
d="M344 812h-200v14h200v-14zM465 681l-213 -410v-271h-14v271l-215 410h16l206 -398l204 398h16z" />
    <glyph glyph-name="uni0233" unicode="&#x233;" horiz-adv-x="440" 
d="M320 686h-200v14h200v-14zM414 518l-180 -519q-31 -91 -64.5 -130.5t-109.5 -60.5l-2 11q73 21 102.5 57t60.5 124h-6l-189 518h15l184 -508l174 508h15z" />
    <glyph glyph-name="uni0234" unicode="&#x234;" horiz-adv-x="330" 
d="M279 179q40 0 63.5 -23t23.5 -59q0 -47 -37.5 -76.5t-94.5 -29.5q-68 0 -100 45l-44 -88l-12 4l49 97q-11 24 -11 55v628l14 1v-629q0 -20 5 -40q29 56 62.5 85.5t81.5 29.5zM234 4q52 0 85 25.5t33 67.5q0 31 -20 50.5t-53 19.5q-45 0 -77 -29t-61 -88q25 -46 93 -46z
" />
    <glyph glyph-name="uni0235" unicode="&#x235;" horiz-adv-x="666" 
d="M614 179q40 0 63.5 -23t23.5 -59q0 -47 -37 -76.5t-95 -29.5q-69 0 -99 45l-44 -88l-13 4l49 97q-11 24 -11 55v263q0 149 -123 149q-113 0 -193 -131v-385h-14v518h12l2 -114q77 124 194 124q136 0 136 -159v-265q0 -22 6 -40q29 57 62 86t81 29zM569 4q52 0 85 25.5
t33 67.5q0 31 -19.5 50.5t-53.5 19.5q-45 0 -76.5 -29t-60.5 -88q24 -46 92 -46z" />
    <glyph glyph-name="uni0236" unicode="&#x236;" horiz-adv-x="328" 
d="M277 179q40 0 63.5 -23t23.5 -59q0 -47 -37 -76.5t-95 -29.5q-69 0 -98 46l-45 -89l-13 4l50 98q-12 27 -12 65v391h-86v12h86v133l14 1v-134h145l-2 -12h-143v-391q0 -29 7 -49q28 56 61 84.5t81 28.5zM232 4q52 0 85 25.5t33 67.5q0 31 -19.5 50.5t-53.5 19.5
q-45 0 -76.5 -28.5t-59.5 -86.5v-1q23 -47 91 -47z" />
    <glyph glyph-name="uni0237" unicode="&#x237;" horiz-adv-x="256" 
d="M135 518v-514q0 -61 -12 -98.5t-33 -57.5t-61 -41l-5 10q55 29 76 66t21 121v514h14z" />
    <glyph glyph-name="uni0238" unicode="&#x238;" horiz-adv-x="846" 
d="M593 528q82 0 127 -69t45 -195q0 -128 -46.5 -200.5t-129.5 -72.5q-95 0 -157 104l-1 -95h-11l-1 94q-58 -103 -158 -103q-80 0 -130 71t-50 195q0 122 51.5 196.5t137.5 74.5q93 0 149 -96v300l14 1v-302q27 42 69 69.5t91 27.5zM261 4q98 0 158 112v299
q-64 100 -148 100q-79 0 -127.5 -70.5t-48.5 -187.5q1 -119 46.5 -186t119.5 -67zM589 4q77 0 119.5 68.5t42.5 191.5q0 121 -41 186t-117 65q-93 0 -160 -101v-298q62 -112 156 -112z" />
    <glyph glyph-name="uni0239" unicode="&#x239;" horiz-adv-x="841" 
d="M591 528q80 0 124.5 -69t44.5 -195q0 -128 -46 -200.5t-129 -72.5q-96 0 -157 103v-285l-14 -3v286q-57 -101 -158 -101q-80 0 -130 71t-50 195q0 122 51.5 196.5t139.5 74.5q90 0 147 -97l1 87h11l2 -89q69 99 163 99zM256 4q98 0 158 111v298q-60 102 -147 102
q-79 0 -128 -70.5t-49 -187.5q1 -119 46.5 -186t119.5 -67zM585 4q76 0 118.5 68.5t42.5 191.5q0 121 -40.5 186t-114.5 65q-88 0 -163 -102v-297q62 -112 157 -112z" />
    <glyph glyph-name="uni023A" unicode="&#x23a;" horiz-adv-x="557" 
d="M511 0l-72 207h-183l-70 -270l-11 3l70 267h-128l-72 -207h-14l238 681h18l47 -135l49 187l11 -2l-54 -203l186 -528h-15zM122 221h126l80 303l-50 145zM260 221h174l-99 285z" />
    <glyph glyph-name="uni023B" unicode="&#x23b;" horiz-adv-x="535" 
d="M509 52q-71 -61 -168 -61q-59 0 -105 23l-20 -77l-11 3l21 79q-68 37 -106.5 119t-38.5 202q0 171 72 261t190 90q31 0 57 -6l13 48l11 -2l-13 -48q46 -13 89 -50l-7 -11q-41 35 -85 48l-168 -642q43 -23 102 -23q88 0 158 58zM96 340q0 -114 35 -192.5t98 -114.5
l168 639q-27 5 -53 5q-112 0 -180 -85t-68 -252z" />
    <glyph glyph-name="uni023C" unicode="&#x23c;" horiz-adv-x="466" 
d="M420 44q-58 -53 -137 -53q-48 0 -83 17l-20 -71l-11 3l21 73q-114 62 -114 243q0 127 55.5 199.5t151.5 72.5q27 0 47 -4l17 60l10 -3l-16 -60q40 -12 74 -43l-9 -9q-30 29 -69 39l-134 -487q37 -17 79 -17q76 0 129 50zM91 256q0 -169 102 -230l133 485q-17 4 -43 4
q-88 0 -140 -68t-52 -191z" />
    <glyph glyph-name="uni023D" unicode="&#x23d;" horiz-adv-x="482" 
d="M170 14h289l-3 -14h-300v356h-110v13h110v312h14v-312h115v-13h-115v-342z" />
    <glyph glyph-name="uni023E" unicode="&#x23e;" horiz-adv-x="474" 
d="M456 667h-121l-91 -317v-350h-14v300l-104 -363l-11 3l115 400v327h-212v14h310l15 52l11 -2l-15 -50h119zM244 390l80 277h-80v-277z" />
    <glyph glyph-name="uni023F" unicode="&#x23f;" horiz-adv-x="459" 
d="M320 -182q35 0 64 22l7 -9q-31 -26 -70 -26q-29 0 -49 14t-36 39.5t-34 54.5t-53 67t-83 70q-9 6 -10 7l6 9q32 -21 50.5 -31t51 -20.5t66.5 -10.5q65 0 107 34.5t42 93.5q0 58 -32 85.5t-120 52.5q-84 23 -118.5 52t-34.5 81q0 55 44 90t109 35q86 0 152 -54l-8 -10
q-63 51 -144 51q-60 0 -99.5 -31.5t-39.5 -81.5q0 -46 32.5 -72.5t113.5 -48.5q90 -25 124.5 -55.5t34.5 -93.5q0 -64 -46 -102.5t-117 -38.5q-47 0 -100 23q35 -28 63.5 -66t42.5 -65t35 -46t49 -19z" />
    <glyph glyph-name="uni0240" unicode="&#x240;" horiz-adv-x="410" 
d="M345 -195q-34 0 -60.5 17.5t-47 44t-44 54t-64.5 50t-96 29.5v12l322 493h-294v13h311v-12l-323 -495q44 -6 79.5 -23.5t56 -38.5t40.5 -44.5t35 -42.5t37 -31.5t48 -12.5q35 0 62 22l8 -9q-31 -26 -70 -26z" />
    <glyph glyph-name="uni0241" unicode="&#x241;" horiz-adv-x="450" 
d="M169 0v286l69 18q76 20 116.5 61.5t40.5 127.5q0 82 -47 133t-132 51q-98 0 -181 -80l-9 10q86 84 191 84q90 0 141.5 -55.5t51.5 -142.5q0 -94 -45 -138.5t-128 -65.5l-54 -14v-275h-14z" />
    <glyph glyph-name="uni0242" unicode="&#x242;" horiz-adv-x="415" 
d="M139 0v165l69 18q137 36 137 168q0 72 -44 118t-119 46q-87 0 -157 -68l-9 9q72 72 166 72q81 0 129.5 -50t48.5 -127q0 -143 -153 -182l-54 -14v-155h-14z" />
    <glyph glyph-name="uni0243" unicode="&#x243;" horiz-adv-x="579" 
d="M346 361q73 -4 121.5 -49.5t48.5 -127.5q0 -93 -60.5 -138.5t-166.5 -45.5h-168v187h-93v13h93v481h138q107 0 164 -43t57 -125q0 -64 -37 -103.5t-97 -48.5zM261 667h-126v-300h174q69 0 112.5 41t43.5 105q0 76 -52 115t-152 39zM290 14q99 0 155.5 41t56.5 129
q0 80 -52.5 124.5t-135.5 44.5h-179v-153h193v-13h-193v-173h155z" />
    <glyph glyph-name="uni0244" unicode="&#x244;" horiz-adv-x="662" 
d="M591 534v-11h-56v-316q0 -99 -49.5 -157.5t-153.5 -58.5q-105 0 -154.5 58t-49.5 158v316h-57v11h57v147h15v-147h377v147h15v-147h56zM520 208v315h-377v-315q0 -95 45.5 -149.5t143.5 -54.5t143 55t45 149z" />
    <glyph glyph-name="uni0245" unicode="&#x245;" horiz-adv-x="557" 
d="M287 681l239 -681h-15l-233 669l-233 -669h-14l238 681h18z" />
    <glyph glyph-name="uni0246" unicode="&#x246;" horiz-adv-x="494" 
d="M448 14v-14h-246l-16 -63l-11 3l16 60h-65v681h243l14 52l11 -2l-13 -50h59l-2 -14h-61l-79 -300h99v-13h-102l-89 -340h242zM140 667v-300h147l79 300h-226zM140 14h54l89 340h-143v-340z" />
    <glyph glyph-name="uni0247" unicode="&#x247;" horiz-adv-x="528" 
d="M456 249h-189l-63 -230q33 -15 75 -15q80 0 149 57l8 -10q-73 -60 -157 -60q-43 0 -79 15l-18 -69l-11 3l19 70q-54 27 -84 90t-30 154q0 128 53.5 201t144.5 73q34 0 57 -8l17 64l10 -3l-17 -64q58 -22 87.5 -83t29.5 -148q0 -15 -2 -37zM275 515q-83 0 -133.5 -66
t-51.5 -188h169l68 247q-21 7 -52 7zM444 291q0 80 -26.5 136.5t-80.5 76.5l-67 -243h173q1 10 1 30zM194 24l62 225h-166q3 -171 104 -225z" />
    <glyph glyph-name="uni0248" unicode="&#x248;" horiz-adv-x="291" 
d="M265 349v-13h-109v-250q0 -74 -24.5 -112t-101.5 -71l-4 11q70 31 93 66.5t23 106.5v249h-115v13h115v332h14v-332h109z" />
    <glyph glyph-name="uni0249" unicode="&#x249;" horiz-adv-x="284" 
d="M146 688q-15 0 -15 15q0 14 15 14q14 0 14 -14q0 -15 -14 -15zM261 250v-13h-108v-233q0 -89 -23.5 -127.5t-83.5 -69.5l-4 10q54 29 75.5 66t21.5 121v233h-116v13h116v268h14v-268h108z" />
    <glyph glyph-name="uni024A" unicode="&#x24a;" horiz-adv-x="645" 
d="M674 -156l7 -10q-37 -29 -84 -29q-42 0 -67.5 27t-25.5 77v172q-64 -90 -180 -90q-108 0 -175.5 89t-67.5 248q0 170 69 266.5t178 96.5q112 0 177 -83l1 73h13v-771q0 -46 21 -69t57 -23q42 0 77 26zM324 4q118 0 180 96v490q-62 87 -176 87q-103 0 -167.5 -91.5
t-64.5 -257.5q0 -154 63.5 -239t164.5 -85z" />
    <glyph glyph-name="uni024B" unicode="&#x24b;" horiz-adv-x="568" 
d="M541 -174l4 -12q-22 -9 -44 -9q-67 0 -67 79v209q-58 -102 -168 -102q-87 0 -138.5 70.5t-51.5 195.5q0 123 53 197t147 74q104 0 158 -90l1 80h13v-634q0 -66 54 -66q20 0 39 8zM266 4q61 0 100 28t68 83v304q-57 96 -158 96q-84 0 -135 -70.5t-51 -187.5
q1 -120 48 -186.5t128 -66.5z" />
    <glyph glyph-name="uni024C" unicode="&#x24c;" horiz-adv-x="563" 
d="M514 0h-18l-189 328h-172v-328h-14v328h-93v14h93v339h144q220 0 220 -176q0 -81 -45 -123.5t-116 -51.5zM135 342h155q81 0 131 40t50 123q0 80 -48.5 121t-159.5 41h-128v-325z" />
    <glyph glyph-name="uni024D" unicode="&#x24d;" horiz-adv-x="376" 
d="M307 528q28 0 48 -5l-2 -13q-20 6 -46 6q-60 0 -96.5 -38t-61.5 -125v-66h112v-12h-112v-275h-14v275h-112v12h112v231h12v-136q23 77 61 111.5t99 34.5z" />
    <glyph glyph-name="uni024E" unicode="&#x24e;" horiz-adv-x="488" 
d="M465 681l-51 -99h51v-12h-57l-156 -299v-271h-14v271l-157 299h-58v12h52l-52 99h16l51 -99h308l51 99h16zM245 283l147 287h-296z" />
    <glyph glyph-name="uni024F" unicode="&#x24f;" horiz-adv-x="434" 
d="M411 382v-12h-51l-129 -371q-31 -91 -64.5 -130.5t-109.5 -60.5l-2 11q73 21 102.5 57t60.5 124h-6l-135 370h-52v12h48l-50 136h15l49 -136h262l47 136h15l-47 -136h47zM222 10l123 360h-253z" />
    <glyph glyph-name="uni0250" unicode="&#x250;" horiz-adv-x="526" 
d="M271 3q65 0 145 33l4 -12q-82 -34 -149 -34q-149 0 -149 156v262q0 53 -10.5 76.5t-38.5 32.5l3 10q32 -10 45 -33.5t13 -72.5q55 106 171 106q72 0 112.5 -42t40.5 -112q0 -76 -54 -118.5t-147 -42.5h-121v-65q0 -72 31 -108t104 -36zM305 514q-114 0 -169 -111v-178
h118q89 0 139 38.5t50 109.5q0 65 -36.5 103t-101.5 38z" />
    <glyph glyph-name="uni0251" unicode="&#x251;" horiz-adv-x="572" 
d="M448 101q0 -42 11 -61.5t41 -31.5l-5 -12q-34 14 -47 35t-14 63q-59 -103 -165 -103q-90 0 -141.5 70t-51.5 196q0 122 54.5 196.5t146.5 74.5q103 0 157 -91l1 81h13v-417zM269 4q105 0 165 112v303q-57 96 -156 96q-85 0 -136.5 -70.5t-51.5 -187.5q1 -120 48 -186.5
t131 -66.5z" />
    <glyph glyph-name="uni0252" unicode="&#x252;" horiz-adv-x="573" 
d="M303 527q90 0 141.5 -70t51.5 -196q0 -122 -54.5 -196.5t-146.5 -74.5q-103 0 -157 91l-1 -81h-13v417q0 42 -11 61.5t-41 31.5l5 12q34 -14 47 -35t14 -64q58 104 165 104zM294 3q85 0 136.5 70.5t51.5 187.5q-1 120 -48 186.5t-131 66.5q-58 0 -97 -29t-68 -84v-300
q57 -98 156 -98z" />
    <glyph glyph-name="uni0253" unicode="&#x253;" horiz-adv-x="568" 
d="M307 528q88 0 134.5 -68.5t46.5 -195.5q0 -128 -48 -200.5t-138 -72.5q-105 0 -167 96l-2 -87h-12v618q0 56 32.5 86.5t85.5 30.5q59 0 114 -31l-5 -12q-53 30 -108 30q-48 0 -76.5 -26.5t-28.5 -79.5v-186q69 98 172 98zM302 4q83 0 127 68t44 192q0 122 -42.5 186.5
t-123.5 64.5q-55 0 -95 -26t-77 -76v-308q66 -101 167 -101z" />
    <glyph glyph-name="uni0254" unicode="&#x254;" horiz-adv-x="465" 
d="M191 -9q-83 0 -145 59l9 9q59 -55 136 -55q84 0 134 68t50 190q0 120 -46.5 186.5t-128.5 66.5q-79 0 -142 -50l-7 10q64 53 149 53q88 0 138.5 -70t50.5 -196q0 -128 -53.5 -199.5t-144.5 -71.5z" />
    <glyph glyph-name="uni0255" unicode="&#x255;" horiz-adv-x="475" 
d="M341 199q45 0 70.5 -26t25.5 -66q0 -52 -40 -84t-108 -32q-63 0 -113 30l-35 -73l-12 4l37 77q-90 69 -90 227q0 127 55.5 199.5t151.5 72.5q76 0 132 -50l-9 -9q-49 46 -123 46q-88 0 -140 -68t-52 -191q0 -149 81 -215l5 11q36 78 73.5 112.5t90.5 34.5zM289 4
q59 0 96.5 27t37.5 76q0 36 -21.5 58t-60.5 22q-50 0 -85.5 -34.5t-73.5 -118.5q45 -30 107 -30z" />
    <glyph glyph-name="uni0256" unicode="&#x256;" horiz-adv-x="573" 
d="M608 -156l7 -10q-37 -29 -84 -29q-42 0 -67 27t-25 77v185q-59 -103 -168 -103q-87 0 -138.5 70.5t-51.5 195.5q0 123 53 197t146 74q105 0 159 -91v296l14 -1v-822q0 -47 21 -69.5t57 -22.5q44 0 77 26zM271 4q61 0 100 28.5t68 83.5v303q-57 96 -158 96
q-85 0 -135.5 -70t-50.5 -188q1 -120 48 -186.5t128 -66.5z" />
    <glyph glyph-name="uni0257" unicode="&#x257;" horiz-adv-x="573" 
d="M531 735q47 0 84 -29l-7 -10q-33 26 -77 26q-36 0 -57 -22.5t-21 -69.5v-630h-13l-1 94q-59 -103 -168 -103q-87 0 -138.5 70.5t-51.5 195.5q0 123 53 197t146 74q105 0 159 -91v194q0 51 25 77.5t67 26.5zM271 4q61 0 100 28.5t68 83.5v303q-57 96 -158 96
q-85 0 -135.5 -70t-50.5 -188q1 -120 48 -186.5t128 -66.5z" />
    <glyph glyph-name="uni0258" unicode="&#x258;" horiz-adv-x="528" 
d="M262 528q92 0 141.5 -69.5t49.5 -204.5q0 -124 -55 -193.5t-148 -69.5q-86 0 -157 60l8 10q69 -57 149 -57q85 0 135.5 63t52.5 182h-366q-1 11 -1 37q0 109 49.5 175.5t141.5 66.5zM85 291v-30h353q-1 129 -47 191.5t-129 62.5q-86 0 -131.5 -62t-45.5 -162z" />
    <glyph glyph-name="uni0259" unicode="&#x259;" horiz-adv-x="532" 
d="M266 528q90 0 140 -68t50 -196q0 -138 -51.5 -205.5t-142.5 -67.5q-90 0 -140.5 67.5t-50.5 183.5q0 19 1 28h370q-1 120 -47.5 182.5t-128.5 62.5q-81 0 -154 -53l-8 10q72 56 162 56zM262 4q85 0 132 62.5t48 191.5h-356q-1 -5 -1 -16q0 -111 46.5 -174.5t130.5 -63.5z
" />
    <glyph glyph-name="uni025A" unicode="&#x25a;" horiz-adv-x="642" 
d="M671 375l7 -10q-37 -29 -84 -29q-43 0 -68 27t-25 78v64l-96 -43q51 -68 51 -198q0 -138 -51.5 -205.5t-142.5 -67.5q-90 0 -140.5 67.5t-50.5 183.5q0 19 1 28h370q-1 120 -47.5 182.5t-128.5 62.5q-81 0 -154 -53l-8 10q72 56 162 56q81 0 130 -55l105 45h14v-77
q0 -46 21.5 -69t57.5 -23q44 0 77 26zM262 4q85 0 132 62.5t48 191.5h-356q-1 -5 -1 -16q0 -111 46.5 -174.5t130.5 -63.5z" />
    <glyph glyph-name="uni025B" unicode="&#x25b;" horiz-adv-x="450" 
d="M258 528q85 0 146 -45l-8 -10q-60 42 -137 42q-68 0 -108 -32.5t-40 -88.5q0 -50 38 -82.5t107 -32.5h57l-2 -13h-58q-79 0 -121 -33.5t-42 -96.5q0 -61 44 -96.5t117 -35.5q91 0 155 57l8 -10q-67 -60 -163 -60q-78 0 -126.5 39.5t-48.5 106.5q0 63 38.5 97.5
t104.5 38.5q-59 8 -90.5 40t-31.5 81q0 62 44.5 98t116.5 36z" />
    <glyph glyph-name="uni025C" unicode="&#x25c;" horiz-adv-x="465" 
d="M216 528q68 0 108.5 -35.5t40.5 -94.5q0 -108 -120 -123q71 -4 107.5 -34.5t36.5 -95.5q0 -73 -46 -113.5t-125 -40.5q-101 0 -182 69l8 9q76 -65 174 -65q73 0 115 36.5t42 104.5q0 64 -41 93.5t-128 29.5h-56l1 13h52q148 0 148 117q0 53 -36 85t-99 32q-82 0 -158 -49
l-7 10q76 52 165 52z" />
    <glyph glyph-name="uni025D" unicode="&#x25d;" horiz-adv-x="586" 
d="M615 375l7 -10q-37 -29 -84 -29q-43 0 -68 27t-25 78v64l-96 -43q16 -26 16 -64q0 -108 -120 -123q71 -4 107.5 -34.5t36.5 -95.5q0 -73 -46 -113.5t-125 -40.5q-101 0 -182 69l8 9q76 -65 174 -65q73 0 115 36.5t42 104.5q0 64 -41 93.5t-128 29.5h-56l1 13h52
q148 0 148 117q0 53 -36 85t-99 32q-82 0 -158 -49l-7 10q76 52 165 52q87 0 126 -55l103 45h14v-77q0 -46 21.5 -69t57.5 -23q44 0 77 26z" />
    <glyph glyph-name="uni025E" unicode="&#x25e;" horiz-adv-x="545" 
d="M291 -9q-104 -1 -159.5 69.5t-55.5 197.5q0 129 56.5 199.5t155.5 70.5q74 0 115.5 -37t41.5 -97q0 -104 -120 -119q71 -4 107.5 -34.5t36.5 -95.5q0 -73 -47 -113.5t-131 -40.5zM291 4q77 0 120.5 36.5t43.5 104.5q0 64 -41 93.5t-128 29.5h-42l2 13h37q76 0 112 30.5
t36 82.5q0 55 -37 88t-106 33q-93 0 -145.5 -66.5t-52.5 -190.5q0 -121 51.5 -188t149.5 -66z" />
    <glyph glyph-name="uni025F" unicode="&#x25f;" horiz-adv-x="284" 
d="M261 250v-13h-108v-233q0 -89 -23.5 -127.5t-83.5 -69.5l-4 10q54 29 75.5 66t21.5 121v233h-116v13h116v268h14v-268h108z" />
    <glyph glyph-name="uni0260" unicode="&#x260;" horiz-adv-x="573" 
d="M531 735q47 0 84 -29l-7 -10q-33 26 -77 26q-36 0 -57 -22.5t-21 -69.5v-637q0 -94 -39.5 -141t-135.5 -47q-71 0 -131 31l6 11q58 -29 125 -29q90 0 125.5 43t35.5 132v121q-59 -103 -168 -103q-87 0 -138.5 68.5t-51.5 187.5q0 116 53 188.5t146 72.5q105 0 159 -91
v194q0 51 25 77.5t67 26.5zM271 24q61 0 100 28.5t68 83.5v283q-57 96 -158 96q-85 0 -135.5 -68.5t-50.5 -179.5q1 -113 48.5 -178t127.5 -65z" />
    <glyph glyph-name="uni0261" unicode="&#x261;" horiz-adv-x="573" 
d="M440 518h13v-525q0 -94 -39.5 -141t-135.5 -47q-71 0 -131 31l6 11q58 -29 125 -29q90 0 125.5 43t35.5 132v121q-59 -103 -168 -103q-87 0 -138.5 68.5t-51.5 187.5q0 116 53 188.5t146 72.5q105 0 159 -91zM271 24q61 0 100 28.5t68 83.5v283q-57 96 -158 96
q-85 0 -135.5 -68.5t-50.5 -179.5q1 -113 48.5 -178t127.5 -65z" />
    <glyph glyph-name="uni0262" unicode="&#x262;" horiz-adv-x="547" 
d="M291 530q80 0 142 -47l-8 -10q-61 44 -134 44q-83 0 -142 -65.5t-59 -188.5q0 -128 55.5 -192.5t149.5 -64.5q79 0 140 34v215h-128l-2 13h144v-235q-68 -40 -154 -40q-100 0 -159.5 68t-59.5 202q0 126 63.5 196.5t151.5 70.5z" />
    <glyph glyph-name="uni0263" unicode="&#x263;" horiz-adv-x="440" 
d="M414 518l-186 -475q58 -116 58 -167q0 -31 -17 -51.5t-49 -20.5q-30 0 -47.5 20.5t-17.5 51.5q0 50 57 167l-186 475h15l179 -463l179 463h15zM272 -123q0 30 -12 62.5t-40 92.5q-20 -43 -28 -62t-15.5 -45.5t-7.5 -47.5q0 -60 51 -60q26 0 39 16.5t13 43.5z" />
    <glyph glyph-name="uni0264" unicode="&#x264;" horiz-adv-x="509" 
d="M441 528q31 0 61 -24l-7 -10q-29 22 -54 22q-21 0 -36 -14t-29 -46l-113 -249q59 -99 59 -145q0 -31 -17 -51t-49 -20t-49.5 20t-17.5 51q0 45 57 145l-112 249q-15 32 -30 46t-35 14q-26 0 -55 -22l-6 10q28 24 61 24q26 0 44 -16.5t35 -54.5l107 -239l106 239
q17 38 35 54.5t45 16.5zM308 63q0 37 -53 133q-52 -96 -52 -133q0 -60 53 -60q52 0 52 60z" />
    <glyph glyph-name="uni0265" unicode="&#x265;" horiz-adv-x="581" 
d="M446 518h14v-712l-14 3v305q-77 -124 -194 -124q-68 0 -102 41.5t-34 117.5v369h14v-367q0 -148 123 -148q114 0 193 130v385z" />
    <glyph glyph-name="uni0266" unicode="&#x266;" horiz-adv-x="581" 
d="M329 528q68 0 102 -41.5t34 -117.5v-369h-14v367q0 149 -123 149q-113 0 -193 -131v-385h-14v618q0 56 32.5 86.5t85.5 30.5q59 0 114 -31l-5 -12q-53 30 -108 30q-48 0 -76.5 -26.5t-28.5 -79.5v-212q77 124 194 124z" />
    <glyph glyph-name="uni0267" unicode="&#x267;" horiz-adv-x="581" 
d="M465 369v-460q0 -50 -25 -77t-67 -27q-48 0 -85 29l7 10q33 -26 78 -26q36 0 57 22.5t21 69.5v457q0 149 -123 149q-113 0 -193 -131v-385h-14v517h-1v101q0 56 32.5 86.5t86.5 30.5q59 0 114 -31l-6 -12q-52 30 -107 30q-49 0 -77.5 -26.5t-28.5 -79.5v-96h1v-116
q77 124 194 124q68 0 102 -41.5t34 -117.5z" />
    <glyph glyph-name="uni0268" unicode="&#x268;" horiz-adv-x="284" 
d="M142 688q-15 0 -15 15q0 14 15 14q14 0 14 -14q0 -15 -14 -15zM261 290v-13h-112v-277h-14v277h-112v13h112v228h14v-228h112z" />
    <glyph glyph-name="uni0269" unicode="&#x269;" horiz-adv-x="276" 
d="M183 -9q-67 0 -67 78v449h14v-449q0 -65 53 -65q21 0 40 8l4 -12q-18 -9 -44 -9z" />
    <glyph glyph-name="uni026A" unicode="&#x26a;" horiz-adv-x="310" 
d="M274 506h-112v-493h112v-13h-238v13h112v493h-112v12h238v-12z" />
    <glyph glyph-name="uni026B" unicode="&#x26b;" horiz-adv-x="281" 
d="M203 327q-26 0 -70 25v-283q0 -65 53 -65q21 0 40 8l4 -12q-18 -9 -44 -9q-67 0 -67 78v291q-39 22 -62 22q-39 0 -70 -42l-10 5q35 51 80 51q26 0 62 -20v356l14 1v-365q46 -27 70 -27q38 0 68 42l9 -5q-31 -51 -77 -51z" />
    <glyph glyph-name="uni026C" unicode="&#x26c;" horiz-adv-x="297" 
d="M249 12l4 -12q-18 -9 -44 -9q-68 0 -68 78v215q-112 0 -112 81q0 35 23.5 55.5t61.5 20.5q11 0 27 -2v293l14 1v-436q47 1 83 8l2 -12q-45 -8 -85 -9v-215q0 -65 54 -65q21 0 40 8zM43 365q0 -68 98 -68v129q-16 2 -27 2q-32 0 -51.5 -16t-19.5 -47z" />
    <glyph glyph-name="uni026D" unicode="&#x26d;" horiz-adv-x="255" 
d="M290 -156l7 -10q-35 -29 -84 -29q-42 0 -67 27t-25 77v823l14 1v-823q0 -47 21 -69.5t57 -22.5q44 0 77 26z" />
    <glyph glyph-name="uni026E" unicode="&#x26e;" horiz-adv-x="591" 
d="M332 192q221 0 221 -191q0 -88 -52 -142t-144 -54q-98 0 -167 67l8 9q66 -63 159 -63q86 0 134 50t48 133q0 178 -206 178h-50v13l223 313h-376v-436q0 -65 53 -65q21 0 40 8l4 -12q-18 -9 -44 -9q-67 0 -67 78v663l14 1v-215h394v-12l-225 -314h33z" />
    <glyph glyph-name="uni026F" unicode="&#x26f;" horiz-adv-x="847" 
d="M712 518h14v-518h-12l-2 114q-67 -124 -171 -124q-55 0 -87.5 33.5t-38.5 92.5q-67 -126 -172 -126q-62 0 -94.5 42t-32.5 117v369h14v-367q0 -148 113 -148q100 0 171 130v385h14v-373q0 -67 28.5 -104.5t84.5 -37.5q102 0 171 130v385z" />
    <glyph glyph-name="uni0270" unicode="&#x270;" horiz-adv-x="847" 
d="M712 518h14v-712l-14 3v302q-69 -121 -171 -121q-54 0 -86.5 33t-38.5 91q-69 -124 -173 -124q-62 0 -94.5 42t-32.5 117v369h14v-367q0 -71 29 -110t85 -39q100 0 170 131v385h14v-373q0 -68 28.5 -105.5t85.5 -37.5q100 0 170 131v385z" />
    <glyph glyph-name="uni0271" unicode="&#x271;" horiz-adv-x="847" 
d="M604 528q62 0 94.5 -42t32.5 -117v-460q0 -50 -25 -77t-68 -27q-47 0 -84 29l7 10q33 -26 77 -26q36 0 57.5 22.5t21.5 69.5v457q0 71 -29 110t-85 39q-100 0 -170 -131v-385h-14v373q0 68 -28.5 105.5t-85.5 37.5q-100 0 -170 -131v-385h-14v518h12l1 -113
q69 123 172 123q55 0 87 -33t38 -92q68 125 173 125z" />
    <glyph glyph-name="uni0272" unicode="&#x272;" horiz-adv-x="581" 
d="M329 528q136 0 136 -159v-369h-14v367q0 149 -123 149q-113 0 -193 -131v-476q0 -50 -25 -77t-68 -27q-47 0 -84 29l7 10q33 -26 77 -26q36 0 57.5 22.5t21.5 69.5v608h12l2 -114q77 124 194 124z" />
    <glyph glyph-name="uni0273" unicode="&#x273;" horiz-adv-x="581" 
d="M621 -156l7 -10q-37 -29 -84 -29q-43 0 -68 27t-25 77v458q0 149 -123 149q-113 0 -193 -131v-385h-14v518h12l2 -114q77 124 194 124q136 0 136 -159v-459q0 -47 21.5 -69.5t57.5 -22.5q44 0 77 26z" />
    <glyph glyph-name="uni0274" unicode="&#x274;" horiz-adv-x="581" 
d="M460 518v-518h-18l-309 505q1 -28 1 -132v-373h-13v518h18l309 -504q0 14 -0.5 61t-0.5 77v366h13z" />
    <glyph glyph-name="uni0275" unicode="&#x275;" 
d="M281 528q95 0 149 -70t54 -198q0 -127 -55 -198t-150 -71t-149 71t-54 197q0 127 55.5 198t149.5 71zM281 515q-86 0 -137.5 -64.5t-53.5 -181.5h380q-2 118 -52 182t-137 64zM279 4q88 0 139 66t52 186h-380q1 -119 51 -185.5t138 -66.5z" />
    <glyph glyph-name="uni0276" unicode="&#x276;" horiz-adv-x="725" 
d="M666 13v-13h-326q-26 -9 -61 -9q-95 0 -149 71t-54 196q0 128 55.5 199t149.5 71q34 0 62 -10h316l-2 -13h-287q52 -24 83.5 -83t32.5 -140h136v-13h-136q0 -100 -32.5 -165t-87.5 -91h300zM90 258q0 -120 50.5 -187t138.5 -67q89 0 141 71t52 197q0 110 -52.5 176.5
t-138.5 66.5q-88 0 -139.5 -67t-51.5 -190z" />
    <glyph glyph-name="uni0277" unicode="&#x277;" horiz-adv-x="735" 
d="M368 528q142 1 216.5 -77t74.5 -217q0 -132 -45.5 -187.5t-114.5 -55.5q-58 0 -92.5 36t-38.5 110q-7 -74 -42.5 -110t-91.5 -36q-71 0 -114.5 58t-43.5 186q0 138 74.5 215.5t217.5 77.5zM498 4q64 0 105.5 52t41.5 178q0 134 -71 208t-206 73q-136 0 -207 -73.5
t-71 -207.5q0 -123 40.5 -176.5t102.5 -53.5q57 0 92 41.5t35 130.5v137l15 2v-140q0 -171 123 -171z" />
    <glyph glyph-name="uni0278" unicode="&#x278;" horiz-adv-x="619" 
d="M558 260q0 -117 -61.5 -183t-180.5 -70v-198l-14 -3v201q-114 3 -177.5 70.5t-63.5 182.5t61.5 181.5t179.5 70.5v220l14 2v-222q115 -3 178.5 -70t63.5 -182zM316 20q111 3 169.5 65t58.5 175q0 111 -60 174t-168 65v-479zM75 260q0 -111 60 -174.5t168 -65.5v479
q-111 -4 -169.5 -66.5t-58.5 -172.5z" />
    <glyph glyph-name="uni0279" unicode="&#x279;" horiz-adv-x="362" 
d="M227 518h14v-518h-12v136q-23 -77 -61 -111.5t-99 -34.5q-28 0 -48 5l2 13q19 -6 46 -6q60 0 96.5 38t61.5 125v353z" />
    <glyph glyph-name="uni027A" unicode="&#x27a;" horiz-adv-x="362" 
d="M241 732v-732h-12v136q-23 -77 -61 -111.5t-99 -34.5q-28 0 -48 5l2 13q19 -6 46 -6q60 0 96.5 38t61.5 125v568z" />
    <glyph glyph-name="uni027B" unicode="&#x27b;" horiz-adv-x="362" 
d="M397 -156l7 -10q-37 -29 -84 -29q-43 0 -68 27t-25 77v221q-23 -74 -60.5 -107t-97.5 -33q-28 0 -48 5l2 13q22 -5 46 -5q59 0 96 38t62 124v353h14v-608q0 -47 21.5 -69.5t57.5 -22.5q44 0 77 26z" />
    <glyph glyph-name="uni027C" unicode="&#x27c;" horiz-adv-x="362" 
d="M293 528q28 0 48 -5l-2 -13q-20 6 -46 6q-60 0 -96.5 -38.5t-61.5 -124.5v-544l-14 -3v712h12v-134q23 76 61 110t99 34z" />
    <glyph glyph-name="uni027D" unicode="&#x27d;" horiz-adv-x="362" 
d="M293 516q-60 0 -96.5 -38.5t-61.5 -124.5v-443q0 -47 21.5 -69.5t57.5 -22.5q44 0 77 26l7 -10q-37 -29 -84 -29q-43 0 -68 27t-25 77v609h12v-134q23 76 61 110t99 34q28 0 48 -5l-2 -13q-20 6 -46 6z" />
    <glyph glyph-name="uni027E" unicode="&#x27e;" horiz-adv-x="317" 
d="M208 523q49 0 84 -29l-7 -10q-33 26 -77 26q-36 0 -57 -22.5t-21 -69.5v-418h-14v419q0 50 25 77t67 27z" />
    <glyph glyph-name="uni027F" unicode="&#x27f;" horiz-adv-x="318" 
d="M201 328h1v-328h-14v327h-1v91q0 47 -21 69.5t-57 22.5q-44 0 -77 -26l-7 10q35 29 84 29q42 0 67 -27t25 -77v-91z" />
    <glyph glyph-name="uni0280" unicode="&#x280;" horiz-adv-x="509" 
d="M430 0l-153 241h-142v-241h-14v518h114q192 0 192 -140q0 -62 -37.5 -95t-96.5 -41l154 -242h-17zM135 253h127q66 0 108 31.5t42 93.5q0 63 -41.5 95t-137.5 32h-98v-252z" />
    <glyph glyph-name="uni0281" unicode="&#x281;" horiz-adv-x="509" 
d="M293 277q60 -7 97 -39.5t37 -94.5q0 -71 -45.5 -107t-146.5 -36h-114v518h14v-240h143l153 240h16zM233 13q96 0 137.5 32.5t41.5 97.5q0 62 -40 92t-110 30h-127v-252h98z" />
    <glyph glyph-name="uni0282" unicode="&#x282;" horiz-adv-x="459" 
d="M227 -9q-92 0 -157 55v-136q0 -47 21.5 -69.5t58.5 -22.5t75 21l7 -9q-39 -25 -82 -25t-68.5 27t-25.5 77v148l7 8q76 -61 164 -61q67 0 109.5 34.5t42.5 93.5q0 58 -32 85.5t-120 52.5q-84 23 -118.5 52t-34.5 81q0 55 44 90t109 35q86 0 152 -54l-8 -10q-63 51 -144 51
q-60 0 -99.5 -31.5t-39.5 -81.5q0 -46 32.5 -72.5t113.5 -48.5q90 -25 124.5 -55.5t34.5 -93.5q0 -64 -46.5 -102.5t-119.5 -38.5z" />
    <glyph glyph-name="uni0283" unicode="&#x283;" horiz-adv-x="260" 
d="M215 735q48 0 85 -29l-7 -10q-35 26 -78 26q-36 0 -57 -22.5t-21 -69.5v-721q0 -50 -25 -77t-67 -27q-48 0 -85 29l7 10q33 -26 78 -26q36 0 57 22.5t21 69.5v721q0 50 25 77t67 27z" />
    <glyph glyph-name="uni0284" unicode="&#x284;" horiz-adv-x="284" 
d="M153 12h110v-12h-110q0 -59 -12.5 -96t-33.5 -56.5t-61 -40.5l-4 10q54 29 75 65.5t22 117.5h-114v12h114v619q0 51 25 77.5t67 26.5q49 0 84 -29l-7 -10q-33 26 -77 26q-36 0 -57 -22.5t-21 -69.5v-618z" />
    <glyph glyph-name="uni0285" unicode="&#x285;" horiz-adv-x="378" 
d="M352 30l7 -10q-37 -29 -84 -29q-43 0 -68 27t-25 77v328q0 47 -21 70t-57 23q-42 0 -78 -27l-7 10q37 29 85 29q42 0 67 -26.5t25 -77.5v-329q0 -46 21.5 -69t57.5 -23q43 0 77 27z" />
    <glyph glyph-name="uni0286" unicode="&#x286;" horiz-adv-x="272" 
d="M227 722q-36 0 -57.5 -22.5t-21.5 -69.5v-659q50 -15 87 -33l-5 -10q-35 18 -82 31q-2 -154 -123 -154q-45 0 -72 23.5t-27 60.5q0 44 33 69.5t87 25.5q46 0 88 -10v657q0 50 25 77t68 27q47 0 84 -29l-7 -10q-33 26 -77 26zM25 -182q108 0 109 144q-47 10 -88 10
q-50 0 -78 -22t-28 -60q0 -32 22.5 -52t62.5 -20z" />
    <glyph glyph-name="uni0287" unicode="&#x287;" horiz-adv-x="324" 
d="M295 12v-12h-86v-133l-14 -1v134h-145l2 12h143v390q0 54 -24.5 83t-70.5 29q-49 0 -91 -26l-7 11q47 28 98 28q52 0 80.5 -32t28.5 -92v-391h86z" />
    <glyph glyph-name="uni0288" unicode="&#x288;" horiz-adv-x="323" 
d="M284 -156l7 -10q-37 -29 -84 -29q-43 0 -68 27t-25 77v597h-86v12h86v133l14 1v-134h145l-2 -12h-143v-596q0 -47 21.5 -69.5t57.5 -22.5q44 0 77 26z" />
    <glyph glyph-name="uni0289" unicode="&#x289;" horiz-adv-x="596" 
d="M547 382v-12h-86v-370h-12l-1 110q-65 -119 -183 -119q-68 0 -106 41t-38 118v220h-85v12h85v136h14v-136h312v136h14v-136h86zM447 128v242h-312v-220q0 -72 34.5 -109t97.5 -37q110 0 180 124z" />
    <glyph glyph-name="uni028A" unicode="&#x28a;" 
d="M280 -9q-96 0 -150 67t-54 180q0 170 114 267h-101v13h116v-13q-115 -104 -115 -267q0 -108 50.5 -171t139.5 -63t139.5 63t50.5 171q0 165 -115 267v13h117v-13h-101q113 -98 113 -267q0 -113 -54 -180t-150 -67z" />
    <glyph glyph-name="uni028B" unicode="&#x28b;" horiz-adv-x="559" 
d="M268 -9q-67 0 -109.5 42t-42.5 121v364h14v-363q0 -74 38.5 -112.5t99.5 -38.5q80 0 128.5 63t48.5 199v183q0 67 -53 67q-21 0 -40 -8l-4 11q22 9 45 9q66 0 66 -79v-182q0 -140 -51.5 -208t-139.5 -68z" />
    <glyph glyph-name="uni028C" unicode="&#x28c;" horiz-adv-x="443" 
d="M25 0l181 518h19l191 -518h-15l-185 506l-175 -506h-16z" />
    <glyph glyph-name="uni028D" unicode="&#x28d;" horiz-adv-x="677" 
d="M36 0l138 518h18l146 -504l146 504h18l139 -518h-15l-134 504l-146 -504h-17l-146 505l-133 -505h-14z" />
    <glyph glyph-name="uni028E" unicode="&#x28e;" horiz-adv-x="440" 
d="M26 0l180 519q39 112 69 153t105 63l2 -12q-30 -9 -51.5 -21.5t-36 -25.5t-28.5 -40t-22 -49t-25 -69h6l189 -518h-15l-184 508l-174 -508h-15z" />
    <glyph glyph-name="uni028F" unicode="&#x28f;" horiz-adv-x="396" 
d="M380 518l-174 -306v-212h-14v212l-176 306h15l169 -294l164 294h16z" />
    <glyph glyph-name="uni0290" unicode="&#x290;" horiz-adv-x="410" 
d="M519 -156l7 -10q-37 -29 -84 -29q-42 0 -67.5 27t-25.5 77v91h-316v12l322 493h-294v13h311v-12l-321 -493h312v-103q0 -47 21.5 -69.5t57.5 -22.5q44 0 77 26z" />
    <glyph glyph-name="uni0291" unicode="&#x291;" horiz-adv-x="426" 
d="M352 188q37 0 61 -23t24 -61q0 -56 -45 -80t-147 -24q-2 -70 0 -102h-13q-2 33 0 102h-199v12l322 493h-294v13h311v-12l-321 -493h182q6 175 119 175zM246 13q96 -1 136.5 20t40.5 71q0 33 -19.5 52t-51.5 19q-99 0 -106 -162z" />
    <glyph glyph-name="uni0292" unicode="&#x292;" horiz-adv-x="441" 
d="M183 192q220 0 220 -191q0 -88 -52.5 -142t-143.5 -54q-107 0 -181 80l9 8q71 -75 172 -75q85 0 133.5 50t48.5 133q0 178 -206 178h-50v13l225 313h-316v13h334v-12l-227 -314h34z" />
    <glyph glyph-name="uni0293" unicode="&#x293;" horiz-adv-x="441" 
d="M403 4q0 -127 -113 -177l28 -60l-12 -5l-28 60q-48 -17 -108 -17q-77 0 -118.5 30t-41.5 83q0 42 26.5 69t71.5 27q54 0 93.5 -39t83.5 -136q104 46 104 165q0 175 -206 175h-50v13l223 313h-314v13h332v-12l-225 -314h35q219 0 219 -188zM24 -82q0 -49 39 -74.5
t107 -25.5q56 0 102 16q-42 93 -78.5 130t-85.5 37q-39 0 -61.5 -23t-22.5 -60z" />
    <glyph glyph-name="uni0294" unicode="&#x294;" horiz-adv-x="422" 
d="M136 0v326l66 15q160 37 160 189q0 87 -47 139.5t-130 52.5q-90 0 -167 -75l-9 10q80 78 177 78q89 0 140 -56.5t51 -148.5q0 -163 -176 -203l-51 -11v-316h-14z" />
    <glyph glyph-name="uni0295" unicode="&#x295;" horiz-adv-x="422" 
d="M287 0h-15v316l-51 11q-175 40 -175 203q0 91 53 148t143 57q92 0 172 -78l-10 -10q-77 75 -162 75q-84 0 -132.5 -53t-48.5 -139q0 -152 159 -189l67 -15v-326z" />
    <glyph glyph-name="uni0296" unicode="&#x296;" horiz-adv-x="490" 
d="M174 732l14 2v-320l51 -11q176 -36 176 -203q0 -92 -51.5 -148.5t-140.5 -56.5q-96 0 -177 78l10 10q77 -75 167 -75q83 0 130 52.5t47 139.5q0 154 -160 189l-66 15v328z" />
    <glyph glyph-name="uni0297" unicode="&#x297;" horiz-adv-x="489" 
d="M308 528q75 0 129 -50l-8 -9q-50 46 -120 46q-91 0 -143.5 -92.5t-52.5 -259.5t52.5 -257.5t141.5 -90.5q70 0 127 50l8 -10q-58 -53 -134 -53q-97 0 -153.5 94.5t-56.5 266.5q0 171 56.5 268t153.5 97z" />
    <glyph glyph-name="uni0298" unicode="&#x298;" horiz-adv-x="788" 
d="M394 690q145 0 229.5 -92.5t84.5 -258.5q0 -163 -83.5 -255.5t-230.5 -92.5q-144 0 -228.5 92.5t-84.5 254.5q0 163 85.5 257.5t227.5 94.5zM394 677q-136 0 -217.5 -90t-81.5 -249q0 -157 81 -245.5t218 -88.5q142 0 220.5 88t78.5 247q0 161 -80 249.5t-219 88.5z
M394 352q14 0 14 -14t-14 -14q-15 0 -15 14t15 14z" />
    <glyph glyph-name="uni0299" unicode="&#x299;" horiz-adv-x="533" 
d="M324 281q133 -8 133 -129q0 -75 -54 -113.5t-141 -38.5h-141v513q74 16 143 16q83 0 123 -37t40 -96q0 -49 -28 -79t-75 -36zM265 516q-64 0 -130 -14v-216h160q56 0 87 29.5t31 80.5q0 53 -35 86.5t-113 33.5zM262 13q80 0 130.5 34.5t50.5 104.5q0 121 -144 121h-164
v-260h127z" />
    <glyph glyph-name="uni029A" unicode="&#x29a;" horiz-adv-x="545" 
d="M254 -9q-84 0 -131 40.5t-47 113.5q0 65 36.5 95.5t107.5 34.5q-120 15 -120 119q0 60 41.5 97t115.5 37q99 0 155.5 -70.5t56.5 -199.5q0 -127 -55.5 -197.5t-159.5 -69.5zM254 4q98 -1 149.5 66t51.5 188q0 124 -52.5 190.5t-145.5 66.5q-69 0 -106 -33t-37 -88
q0 -52 36 -82.5t112 -30.5h37l2 -13h-42q-87 0 -128 -29.5t-41 -93.5q0 -68 43.5 -104.5t120.5 -36.5z" />
    <glyph glyph-name="uni029B" unicode="&#x29b;" horiz-adv-x="547" 
d="M512 735q47 0 84 -29l-7 -10q-33 26 -77 26q-36 0 -57.5 -22.5t-21.5 -69.5v-147l-7 -9q-63 43 -135 43q-83 0 -142 -65.5t-59 -188.5q0 -128 55.5 -192.5t149.5 -64.5q79 0 140 34v215h-128l-2 13h144v-235q-68 -40 -154 -40q-100 0 -159.5 68t-59.5 202
q0 126 63.5 196.5t151.5 70.5q72 0 128 -38v139q0 50 25 77t68 27z" />
    <glyph glyph-name="uni029C" unicode="&#x29c;" horiz-adv-x="581" 
d="M446 0v265h-311v-265h-14v518h14v-239h311v239h14v-518h-14z" />
    <glyph glyph-name="uni029D" unicode="&#x29d;" horiz-adv-x="270" 
d="M142 688q-15 0 -15 15q0 14 15 14q14 0 14 -14q0 -15 -14 -15zM235 -62l-5 -10q-35 18 -82 31q-2 -154 -123 -154q-45 0 -72 23.5t-27 60.5q0 44 33 69.5t87 25.5q46 0 88 -10v544h14v-547q50 -15 87 -33zM25 -182q108 0 109 144q-47 10 -88 10q-50 0 -78 -22t-28 -60
q0 -32 22.5 -52t62.5 -20z" />
    <glyph glyph-name="uni029E" unicode="&#x29e;" horiz-adv-x="457" 
d="M46 0l252 234l-277 284h17l278 -283l-252 -235h-18zM322 -191v709h14v-712z" />
    <glyph glyph-name="uni029F" unicode="&#x29f;" horiz-adv-x="398" 
d="M135 518v-505h247l-3 -13h-258v518h14z" />
    <glyph glyph-name="uni02A0" unicode="&#x2a0;" horiz-adv-x="568" 
d="M526 735q47 0 84 -29l-7 -10q-33 26 -77 26q-36 0 -57 -22.5t-21 -69.5v-824l-14 3v284q-57 -102 -168 -102q-87 0 -138.5 70.5t-51.5 195.5q0 123 53 197t147 74q103 0 158 -90v193q0 51 25 77.5t67 26.5zM266 4q61 0 100 28t68 83v304q-57 96 -158 96q-85 0 -135.5 -70
t-50.5 -188q1 -120 48 -186.5t128 -66.5z" />
    <glyph glyph-name="uni02A1" unicode="&#x2a1;" horiz-adv-x="422" 
d="M201 327l-51 -11v-114h120v-13h-120v-189h-14v189h-70v13h70v124l66 15q160 37 160 189q0 87 -47 139.5t-130 52.5q-90 0 -167 -75l-9 10q80 78 177 78q89 0 140 -56.5t51 -148.5q0 -163 -176 -203z" />
    <glyph glyph-name="uni02A2" unicode="&#x2a2;" horiz-adv-x="422" 
d="M242 722q-84 0 -132.5 -53t-48.5 -139q0 -152 159 -189l67 -15v-124h75v-13h-75v-189h-15v189h-114v13h114v114l-51 11q-175 40 -175 203q0 91 53 148t143 57q92 0 172 -78l-10 -10q-77 75 -162 75z" />
    <glyph glyph-name="uni02A3" unicode="&#x2a3;" horiz-adv-x="844" 
d="M807 518v-12l-337 -493h328l-2 -13h-356l-1 94q-57 -103 -168 -103q-87 0 -138.5 70.5t-51.5 195.5q0 123 53 197t146 74q105 0 159 -91v296l14 -1v-214h354zM271 4q61 0 100 28.5t68 83.5v303q-57 96 -158 96q-85 0 -135.5 -70t-50.5 -188q1 -120 48 -186.5t128 -66.5z
M453 13l336 492h-336v-492z" />
    <glyph glyph-name="uni02A4" unicode="&#x2a4;" horiz-adv-x="850" 
d="M592 192q221 0 221 -191q0 -88 -53 -142t-143 -54q-108 0 -182 80l10 8q71 -75 172 -75q85 0 133 50t48 133q0 178 -206 178h-50v13l225 313h-314v-505h-13l-1 94q-57 -103 -168 -103q-87 0 -138.5 70.5t-51.5 195.5q0 123 53 197t146 74q105 0 159 -91v296l14 -1v-214
h332v-12l-227 -314h34zM271 4q61 0 100 28.5t68 83.5v303q-57 96 -158 96q-85 0 -135.5 -70t-50.5 -188q1 -120 48 -186.5t128 -66.5z" />
    <glyph glyph-name="uni02A5" unicode="&#x2a5;" horiz-adv-x="844" 
d="M771 188q37 0 61 -23t24 -61q0 -56 -45 -80t-147 -24q-2 -70 0 -102h-13q-2 33 0 102h-211l-1 94q-57 -103 -168 -103q-87 0 -138.5 70.5t-51.5 195.5q0 123 53 197t146 74q105 0 159 -91v296l14 -1v-214h353v-12l-337 -493h183q6 175 119 175zM271 4q61 0 100 28.5
t68 83.5v303q-57 96 -158 96q-85 0 -135.5 -70t-50.5 -188q1 -120 48 -186.5t128 -66.5zM453 505v-491l336 491h-336zM665 13q96 -1 136.5 20t40.5 71q0 33 -20 52t-52 19q-99 0 -105 -162z" />
    <glyph glyph-name="uni02A6" unicode="&#x2a6;" horiz-adv-x="635" 
d="M421 281q82 -22 115.5 -53.5t33.5 -90.5q0 -70 -59 -108t-169 -38q-121 0 -174.5 43.5t-53.5 130.5v341h-86v12h86v133l14 1v-134h125l-2 -12h-123v-340q0 -81 49.5 -121.5t164.5 -40.5q213 0 213 133q0 55 -30.5 83t-110.5 50q-77 21 -110.5 51.5t-33.5 82.5
q0 55 42.5 89.5t105.5 34.5q82 0 148 -54l-9 -10q-61 51 -139 51q-58 0 -95.5 -31t-37.5 -81q0 -48 30.5 -75t105.5 -47z" />
    <glyph glyph-name="uni02A7" unicode="&#x2a7;" horiz-adv-x="541" 
d="M496 735q48 0 85 -29l-7 -10q-35 26 -78 26q-36 0 -57 -22.5t-21 -69.5v-721q0 -50 -25 -77t-67 -27q-48 0 -85 29l7 10q33 -26 78 -26q36 0 57 22.5t21 69.5v113q-78 -32 -148 -32q-142 0 -142 144v371h-86v12h86v133l14 1v-134h276v113q0 50 25 77t67 27zM256 4
q66 0 148 31v471h-276v-370q0 -132 128 -132z" />
    <glyph glyph-name="uni02A8" unicode="&#x2a8;" horiz-adv-x="714" 
d="M576 199q47 0 73.5 -26t26.5 -66q0 -52 -40 -84t-108 -32q-94 0 -149 61q-68 -61 -146 -61q-119 0 -119 124v391h-86v12h86v133l14 1v-134h145l-2 -12h-143v-390q0 -112 105 -112q74 0 138 58q-56 71 -56 194q0 127 55.5 199.5t151.5 72.5q76 0 132 -50l-9 -9
q-50 46 -123 46q-88 0 -140.5 -68t-52.5 -191q0 -117 52 -184q66 72 106.5 99.5t88.5 27.5zM528 4q59 0 96.5 27t37.5 76q0 36 -22.5 58t-63.5 22q-45 0 -83 -27t-104 -98q50 -58 139 -58z" />
    <glyph glyph-name="uni02A9" unicode="&#x2a9;" horiz-adv-x="866" 
d="M614 528q136 0 136 -159v-460q0 -50 -25 -77t-68 -27q-47 0 -84 29l7 10q33 -26 77 -26q36 0 57.5 22.5t21.5 69.5v457q0 149 -123 149q-113 0 -193 -131v-385h-14v506h-269v-506h-14v506h-90v12h90v100q0 56 32.5 86.5t86.5 30.5q59 0 114 -31l-6 -12q-53 30 -107 30
q-49 0 -77.5 -26.5t-28.5 -79.5v-98h277h4l2 -112q77 122 194 122z" />
    <glyph glyph-name="uni02AA" unicode="&#x2aa;" horiz-adv-x="620" 
d="M332 -9q-107 0 -161.5 45.5t-54.5 127.5v568l14 1v-568q0 -76 50 -118.5t152 -42.5q100 0 154 34t54 99q0 55 -31 83t-111 50q-77 21 -110 51t-33 83q0 55 42 89.5t105 34.5q82 0 148 -54l-8 -10q-63 51 -140 51q-58 0 -95.5 -31t-37.5 -81q0 -48 30.5 -75t105.5 -47
q82 -22 115.5 -53.5t33.5 -90.5q0 -70 -57.5 -108t-164.5 -38z" />
    <glyph glyph-name="uni02AB" unicode="&#x2ab;" horiz-adv-x="604" 
d="M566 518v-12l-322 -493h313l-1 -13h-326q-24 -9 -47 -9q-67 0 -67 78v663l14 1v-664q0 -65 53 -65q18 0 44 8l322 493h-294v13h311z" />
    <glyph glyph-name="uni02AC" unicode="&#x2ac;" horiz-adv-x="455" 
d="M399 660l-76 -260h-18l-77 248l-78 -248h-17l-77 260h13l73 -249l78 249h16l78 -249l72 249h13zM399 260l-76 -260h-18l-77 248l-78 -248h-17l-77 260h13l73 -249l78 249h16l78 -249l72 249h13z" />
    <glyph glyph-name="uni02AD" unicode="&#x2ad;" horiz-adv-x="299" 
d="M30 401v103h239v-104h-14v91h-211v-90h-14zM30 1v103h239v-104h-14v91h-211v-90h-14z" />
    <glyph glyph-name="uni02AE" unicode="&#x2ae;" horiz-adv-x="653" 
d="M518 518h14v-712l-14 3v305q-77 -124 -194 -124q-68 0 -102 41.5t-34 117.5v269q0 47 -21.5 69.5t-57.5 22.5q-44 0 -77 -26l-7 10q37 29 84 29q42 0 67.5 -27t25.5 -77v-268q0 -148 123 -148q114 0 193 130v385z" />
    <glyph glyph-name="uni02AF" unicode="&#x2af;" horiz-adv-x="653" 
d="M688 -156l7 -10q-37 -29 -84 -29q-43 0 -68 27t-25 77v205q-77 -124 -194 -124q-68 0 -102 41.5t-34 117.5v269q0 47 -21.5 69.5t-57.5 22.5q-44 0 -77 -26l-7 10q37 29 84 29q42 0 67.5 -27t25.5 -77v-268q0 -148 123 -148q114 0 193 130v385h14v-608q0 -47 21.5 -69.5
t57.5 -22.5q44 0 77 26z" />
    <glyph glyph-name="uni02B0" unicode="&#x2b0;" horiz-adv-x="308" 
d="M174 665q78 0 78 -80v-185h-13v183q0 70 -67 70q-62 0 -103 -62v-191h-13v366l13 2v-163q41 60 105 60z" />
    <glyph glyph-name="uni02B1" unicode="&#x2b1;" horiz-adv-x="308" 
d="M174 665q78 0 78 -80v-185h-13v183q0 70 -67 70q-62 0 -103 -62v-191h-13v307q0 29 19 45.5t51 16.5q34 0 64 -16l-4 -10q-29 15 -60 15q-57 0 -57 -52v-101q41 60 105 60z" />
    <glyph glyph-name="uni02B2" unicode="&#x2b2;" horiz-adv-x="184" 
d="M117 763q11 0 11 -11q0 -10 -11 -10q-12 0 -12 10q0 11 12 11zM123 660v-256q0 -45 -14 -65.5t-49 -36.5l-4 10q30 14 42 32t12 60v256h13z" />
    <glyph glyph-name="uni02B4" unicode="&#x2b4;" horiz-adv-x="239" 
d="M170 660h13v-260h-11l-1 63q-26 -68 -88 -68q-17 0 -27 3l2 11q11 -3 26 -3q61 0 86 80v174z" />
    <glyph glyph-name="uni02B7" unicode="&#x2b7;" horiz-adv-x="455" 
d="M399 660l-76 -260h-18l-77 248l-78 -248h-17l-77 260h13l73 -249l78 249h16l78 -249l72 249h13z" />
    <glyph glyph-name="uni02B8" unicode="&#x2b8;" horiz-adv-x="334" 
d="M279 660l-100 -259q-17 -48 -37.5 -68.5t-65.5 -30.5l-1 11q40 9 57 26.5t34 60.5h-5l-105 260h14l100 -251l95 251h14z" />
    <glyph glyph-name="uni02B9" unicode="&#x2b9;" horiz-adv-x="275" 
d="M86 443l88 238h15l-92 -238h-11z" />
    <glyph glyph-name="uni02BA" unicode="&#x2ba;" horiz-adv-x="399" 
d="M210 443l88 238h15l-92 -238h-11zM86 443l88 238h15l-92 -238h-11z" />
    <glyph glyph-name="uni02BB" unicode="&#x2bb;" horiz-adv-x="122" 
d="M45 597q-15 0 -15 15q0 7 10 30l41 105h10l-40 -121q10 -3 10 -14q0 -15 -16 -15z" />
    <glyph glyph-name="uni02BC" unicode="&#x2bc;" horiz-adv-x="217" 
d="M111 717q15 0 15 -15q0 -7 -10 -30l-41 -105h-10l40 121q-10 3 -10 14q0 15 16 15z" />
    <glyph glyph-name="uni02BF" unicode="&#x2bf;" horiz-adv-x="133" 
d="M103 649v11q-28 0 -43.5 16t-15.5 45q0 28 15.5 44.5t43.5 16.5v11q-33 0 -53 -20t-20 -52q0 -33 20 -52.5t53 -19.5z" />
    <glyph glyph-name="uni02C0" unicode="&#x2c0;" horiz-adv-x="193" 
d="M80 623v66q68 4 68 54q0 24 -15 36.5t-40 12.5q-28 0 -58 -15l-5 10q31 18 64 18q31 0 50 -16.5t19 -44.5q0 -57 -69 -64v-57h-14z" />
    <glyph glyph-name="circumflex" unicode="&#x2c6;" horiz-adv-x="298" 
d="M38 656l-8 8l115 91h8l115 -91l-7 -8l-112 84z" />
    <glyph glyph-name="caron" unicode="&#x2c7;" horiz-adv-x="298" 
d="M261 743l7 -8l-115 -91h-8l-115 91l8 8l111 -84z" />
    <glyph glyph-name="uni02C8" unicode="&#x2c8;" horiz-adv-x="75" 
d="M30 642v198h15v-198h-15z" />
    <glyph glyph-name="uni02CA" unicode="&#x2ca;" horiz-adv-x="239" 
d="M202 755l7 -15l-174 -83l-5 10z" />
    <glyph glyph-name="uni02CB" unicode="&#x2cb;" horiz-adv-x="239" 
d="M37 755l172 -88l-6 -10l-173 83z" />
    <glyph glyph-name="uni02CC" unicode="&#x2cc;" horiz-adv-x="75" 
d="M30 -277v198h15v-198h-15z" />
    <glyph glyph-name="uni02CE" unicode="&#x2ce;" horiz-adv-x="238" 
d="M37 -65l171 -77l-4 -10l-174 72z" />
    <glyph glyph-name="uni02CF" unicode="&#x2cf;" horiz-adv-x="238" 
d="M201 -65l7 -15l-174 -72l-4 10z" />
    <glyph glyph-name="uni02D0" unicode="&#x2d0;" horiz-adv-x="151" 
d="M71 402l-15 44h39l-15 -44h-9zM71 44h9l15 -44h-39z" />
    <glyph glyph-name="uni02D1" unicode="&#x2d1;" horiz-adv-x="151" 
d="M71 402l-15 44h39l-15 -44h-9z" />
    <glyph glyph-name="uni02D4" unicode="&#x2d4;" horiz-adv-x="412" 
d="M332 222v-13h-251v13h118v140h14v-140h119z" />
    <glyph glyph-name="uni02D6" unicode="&#x2d6;" horiz-adv-x="451" 
d="M232 443v-139h138v-12h-138v-140h-13v140h-138v12h138v139h13z" />
    <glyph glyph-name="uni02D7" unicode="&#x2d7;" horiz-adv-x="451" 
d="M81 292v12h289v-12h-289z" />
    <glyph glyph-name="breve" unicode="&#x2d8;" horiz-adv-x="267" 
d="M133 664q-41 0 -68 22t-35 57l11 3q19 -69 92 -69t93 69l11 -3q-9 -35 -36 -57t-68 -22z" />
    <glyph glyph-name="dotaccent" unicode="&#x2d9;" horiz-adv-x="89" 
d="M45 717q14 0 14 -14q0 -15 -14 -15q-15 0 -15 15q0 14 15 14z" />
    <glyph glyph-name="ring" unicode="&#x2da;" horiz-adv-x="204" 
d="M103 793q33 0 53 -19.5t20 -52.5q0 -32 -20 -52t-53 -20t-53 19.5t-20 52.5q0 32 20 52t53 20zM103 782q-28 0 -43.5 -16.5t-15.5 -44.5q0 -29 15.5 -45t43.5 -16t43.5 16.5t15.5 44.5q0 29 -15.5 45t-43.5 16z" />
    <glyph glyph-name="ogonek" unicode="&#x2db;" horiz-adv-x="206" 
d="M169 8l5 -8q-60 -25 -94.5 -52t-34.5 -68q0 -31 19 -48t53 -17q24 0 55 7l-2 -14q-29 -7 -53 -7q-42 0 -64.5 21t-22.5 57q0 75 139 129z" />
    <glyph glyph-name="tilde" unicode="&#x2dc;" horiz-adv-x="316" 
d="M216 681q-25 0 -62 22t-54 22q-19 0 -31.5 -7.5t-29.5 -27.5l-9 5q34 43 70 43q20 0 57 -22t59 -22q32 0 61 40l9 -6q-30 -47 -70 -47z" />
    <glyph glyph-name="hungarumlaut" unicode="&#x2dd;" horiz-adv-x="246" 
d="M201 789l15 -8l-73 -125l-11 5zM93 787l15 -8l-67 -120l-11 5z" />
    <glyph glyph-name="uni02DE" unicode="&#x2de;" horiz-adv-x="343" 
d="M228 236q-42 0 -67 27t-25 78v64l-106 -47v14l106 46h14v-77q0 -46 21 -69t57 -23q43 0 78 26l7 -10q-37 -29 -85 -29z" />
    <glyph glyph-name="uni02E0" unicode="&#x2e0;" horiz-adv-x="334" 
d="M279 660l-104 -236q33 -58 33 -85q0 -17 -10.5 -27.5t-30.5 -10.5q-19 0 -29.5 10.5t-10.5 27.5q0 26 33 84l-104 237h14l97 -226l98 226h14zM195 340q0 23 -28 74q-27 -52 -27 -74q0 -28 27 -28q28 0 28 28z" />
    <glyph glyph-name="uni02E1" unicode="&#x2e1;" horiz-adv-x="179" 
d="M96 395q-40 0 -40 42v329l13 2v-331q0 -31 29 -31q10 0 22 5l3 -11q-13 -5 -27 -5z" />
    <glyph glyph-name="uni02E2" unicode="&#x2e2;" horiz-adv-x="305" 
d="M154 665q50 0 87 -27l-7 -10q-34 25 -79 25q-32 0 -53.5 -14.5t-21.5 -37.5q0 -22 18 -34.5t62 -23.5q51 -12 70.5 -28t19.5 -48q0 -33 -27 -52.5t-69 -19.5q-57 0 -98 34l7 8q40 -30 91 -30q35 0 58 16t23 43q0 28 -17 41t-64 25q-48 12 -68 27.5t-20 41.5q0 28 25.5 46
t62.5 18z" />
    <glyph glyph-name="uni02E3" unicode="&#x2e3;" horiz-adv-x="334" 
d="M174 539l105 -139h-16l-97 132l-95 -132h-15l103 139l-89 121h15l82 -113l83 113h14z" />
    <glyph glyph-name="uni02E4" unicode="&#x2e4;" horiz-adv-x="321" 
d="M193 400h-13v157l-27 6q-97 18 -97 102q0 46 30 75t82 29t97 -40l-8 -8q-42 37 -89 37q-46 0 -72 -25.5t-26 -67.5q0 -43 23 -63.5t64 -28.5l36 -7v-166z" />
    <glyph glyph-name="uni02E5" unicode="&#x2e5;" horiz-adv-x="300" 
d="M256 0v668h-226v13h240v-681h-14z" />
    <glyph glyph-name="uni02E6" unicode="&#x2e6;" horiz-adv-x="300" 
d="M256 681h14v-681h-14v485h-226v13h226v183z" />
    <glyph glyph-name="uni02E7" unicode="&#x2e7;" horiz-adv-x="300" 
d="M256 681h14v-681h-14v335h-226v13h226v333z" />
    <glyph glyph-name="uni02E8" unicode="&#x2e8;" horiz-adv-x="300" 
d="M256 681h14v-681h-14v185h-226v13h226v483z" />
    <glyph glyph-name="uni02E9" unicode="&#x2e9;" horiz-adv-x="300" 
d="M256 681h14v-681h-240v13h226v668z" />
    <glyph glyph-name="uni02EE" unicode="&#x2ee;" horiz-adv-x="295" 
d="M106 715q14 0 14 -13q0 -6 -9 -27l-37 -95h-9l36 109q-9 4 -9 13q0 13 14 13zM189 715q15 0 15 -14q0 -5 -9 -27l-38 -94h-9l36 109q-8 3 -8 12q0 14 13 14z" />
    <glyph glyph-name="gravecomb" unicode="&#x300;" horiz-adv-x="0" 
d="M-202 755l172 -88l-6 -10l-173 83z" />
    <glyph glyph-name="acutecomb" unicode="&#x301;" horiz-adv-x="0" 
d="M-38 755l7 -15l-174 -83l-5 10z" />
    <glyph glyph-name="uni0302" unicode="&#x302;" horiz-adv-x="0" 
d="M-260 656l-8 8l115 91h8l115 -91l-7 -8l-112 84z" />
    <glyph glyph-name="tildecomb" unicode="&#x303;" horiz-adv-x="0" 
d="M-101 681q-24 0 -61 22t-54 22q-30 0 -61 -35l-9 5q34 43 70 43q20 0 57 -22t58 -22q33 0 62 40l9 -6q-30 -47 -71 -47z" />
    <glyph glyph-name="uni0304" unicode="&#x304;" horiz-adv-x="0" 
d="M-30 686h-200v14h200v-14z" />
    <glyph glyph-name="uni0306" unicode="&#x306;" horiz-adv-x="0" 
d="M-134 664q-41 0 -68 22t-35 57l11 3q19 -69 92 -69t93 69l11 -3q-9 -35 -36 -57t-68 -22z" />
    <glyph glyph-name="uni0307" unicode="&#x307;" horiz-adv-x="0" 
d="M-44 717q14 0 14 -14q0 -15 -14 -15q-15 0 -15 15q0 14 15 14z" />
    <glyph glyph-name="uni0308" unicode="&#x308;" horiz-adv-x="0" 
d="M-204 703q15 0 15 -14t-15 -14q-14 0 -14 14t14 14zM-45 703q15 0 15 -14t-15 -14q-14 0 -14 14t14 14z" />
    <glyph glyph-name="hookabovecomb" unicode="&#x309;" horiz-adv-x="0" 
d="M-112 623v66q68 4 68 54q0 24 -15 36.5t-40 12.5q-28 0 -58 -15l-5 10q31 18 64 18q31 0 50 -16.5t19 -44.5q0 -57 -69 -64v-57h-14z" />
    <glyph glyph-name="uni030A" unicode="&#x30a;" horiz-adv-x="0" 
d="M-101 793q33 0 53 -19.5t20 -52.5q0 -32 -20 -52t-53 -20t-53 19.5t-20 52.5q0 32 20 52t53 20zM-101 782q-28 0 -43.5 -16.5t-15.5 -44.5q0 -29 15.5 -45t43.5 -16t43.5 16.5t15.5 44.5q0 29 -15.5 45t-43.5 16z" />
    <glyph glyph-name="uni030B" unicode="&#x30b;" horiz-adv-x="0" 
d="M-45 789l15 -8l-73 -125l-11 5zM-153 787l15 -8l-67 -120l-11 5z" />
    <glyph glyph-name="uni030C" unicode="&#x30c;" horiz-adv-x="0" 
d="M-37 743l7 -8l-115 -91h-8l-115 91l8 8l111 -84z" />
    <glyph glyph-name="uni030D" unicode="&#x30d;" horiz-adv-x="0" 
d="M-45 642v198h15v-198h-15z" />
    <glyph glyph-name="uni030F" unicode="&#x30f;" horiz-adv-x="0" 
d="M-202 789l69 -128l-10 -5l-73 125zM-93 787l63 -123l-11 -5l-67 120z" />
    <glyph glyph-name="uni0311" unicode="&#x311;" horiz-adv-x="0" 
d="M-134 722q41 0 68 -22.5t36 -57.5l-11 -2q-20 68 -93 68t-92 -68l-11 2q8 35 35 57.5t68 22.5z" />
    <glyph glyph-name="uni0312" unicode="&#x312;" horiz-adv-x="0" 
d="M-58 595q-17 0 -17 16q0 8 9 29l31 105h10l-28 -118q12 -3 12 -16q0 -16 -17 -16z" />
    <glyph glyph-name="uni0313" unicode="&#x313;" horiz-adv-x="0" 
d="M-42 745q17 0 17 -16q0 -5 -9 -29l-31 -105h-10l28 118q-12 5 -12 16q0 16 17 16z" />
    <glyph glyph-name="uni0316" unicode="&#x316;" horiz-adv-x="0" 
d="M-201 -65l171 -77l-4 -10l-174 72z" />
    <glyph glyph-name="uni0317" unicode="&#x317;" horiz-adv-x="0" 
d="M-37 -65l7 -15l-174 -72l-4 10z" />
    <glyph glyph-name="uni0318" unicode="&#x318;" horiz-adv-x="0" 
d="M-44 -76h14v-246h-14v116h-136v13h136v117z" />
    <glyph glyph-name="uni0319" unicode="&#x319;" horiz-adv-x="0" 
d="M-166 -76v-117h136v-13h-136v-116h-14v246h14z" />
    <glyph glyph-name="uni031A" unicode="&#x31a;" horiz-adv-x="0" 
d="M-175 743h145v-154h-14v141h-131v13z" />
    <glyph glyph-name="uni031B" unicode="&#x31b;" horiz-adv-x="0" 
d="M-102 452l-5 9q33 5 48.5 19.5t15.5 43.5q0 37 -14 72l11 4q16 -34 16 -76q0 -64 -72 -72z" />
    <glyph glyph-name="uni031C" unicode="&#x31c;" horiz-adv-x="0" 
d="M-30 -218v12q-28 0 -43.5 16t-15.5 44t15.5 44.5t43.5 16.5v12q-33 0 -53 -20t-20 -53q0 -32 19.5 -52t53.5 -20z" />
    <glyph glyph-name="uni031D" unicode="&#x31d;" horiz-adv-x="0" 
d="M-30 -260v-13h-251v13h118v140h14v-140h119z" />
    <glyph glyph-name="uni031E" unicode="&#x31e;" horiz-adv-x="0" 
d="M-30 -133h-119v-140h-14v140h-118v13h251v-13z" />
    <glyph glyph-name="uni031F" unicode="&#x31f;" horiz-adv-x="0" 
d="M-132 -91v-97h101v-12h-101v-97h-14v97h-101v12h101v97h14z" />
    <glyph glyph-name="uni0320" unicode="&#x320;" horiz-adv-x="0" 
d="M-247 -200v12h216v-12h-216z" />
    <glyph glyph-name="uni0321" unicode="&#x321;" horiz-adv-x="0" 
d="M-123 -195q-47 0 -84 29l7 10q33 -26 77 -26q36 0 57.5 22.5t21.5 69.5v91h14v-92q0 -50 -25.5 -77t-67.5 -27z" />
    <glyph glyph-name="dotbelowcomb" unicode="&#x323;" horiz-adv-x="0" 
d="M-44 -131q-15 0 -15 15q0 14 15 14q14 0 14 -14q0 -15 -14 -15z" />
    <glyph glyph-name="uni0324" unicode="&#x324;" horiz-adv-x="0" 
d="M-204 -102q15 0 15 -14q0 -15 -15 -15q-14 0 -14 15q0 14 14 14zM-45 -102q15 0 15 -14q0 -15 -15 -15q-14 0 -14 15q0 14 14 14z" />
    <glyph glyph-name="uni0325" unicode="&#x325;" horiz-adv-x="0" 
d="M-103 -73q33 0 53 -19.5t20 -52.5t-20 -53t-53 -20t-53 20t-20 52q0 33 20 53t53 20zM-103 -85q-28 0 -43.5 -16.5t-15.5 -44.5t15.5 -44t43.5 -16t43.5 16.5t15.5 44.5t-15.5 44t-43.5 16z" />
    <glyph glyph-name="uni0326" unicode="&#x326;" horiz-adv-x="0" 
d="M-43 -100q17 0 17 -16q0 -8 -9 -29l-31 -105h-9l27 118q-12 3 -12 16q0 16 17 16z" />
    <glyph glyph-name="uni0327" unicode="&#x327;" horiz-adv-x="0" 
d="M-118 2l-3 -79q91 -5 91 -64q0 -33 -22.5 -50t-55.5 -17q-38 0 -65 17l6 11q25 -15 59 -15q27 0 45 13.5t18 40.5q0 52 -89 53l5 90h11z" />
    <glyph glyph-name="uni0328" unicode="&#x328;" horiz-adv-x="0" 
d="M-83 8l5 -8q-60 -25 -94.5 -52t-34.5 -68q0 -31 19 -48t53 -17q24 0 55 7l-2 -14q-29 -7 -53 -7q-42 0 -64.5 21t-22.5 57q0 75 139 129z" />
    <glyph glyph-name="uni0329" unicode="&#x329;" horiz-adv-x="0" 
d="M-45 -277v198h15v-198h-15z" />
    <glyph glyph-name="uni032A" unicode="&#x32a;" horiz-adv-x="0" 
d="M-269 -211v103h239v-104h-14v91h-211v-90h-14z" />
    <glyph glyph-name="uni032B" unicode="&#x32b;" horiz-adv-x="0" 
d="M-39 -70l9 -1q-5 -37 -23 -59t-46 -22q-26 0 -43.5 19t-23.5 51q-6 -32 -23 -51t-43 -19q-28 0 -46 22t-23 59l9 1q11 -66 60 -66q46 0 59 66h14q13 -66 60 -66q46 0 60 66z" />
    <glyph glyph-name="uni032C" unicode="&#x32c;" horiz-adv-x="0" 
d="M-37 -81l7 -8l-115 -85h-8l-115 85l8 8l111 -78z" />
    <glyph glyph-name="uni032D" unicode="&#x32d;" horiz-adv-x="0" 
d="M-260 -178l-8 8l115 91h8l115 -91l-7 -8l-112 84z" />
    <glyph glyph-name="uni032F" unicode="&#x32f;" horiz-adv-x="0" 
d="M-134 -63q41 0 68 -22t36 -57l-11 -3q-20 69 -93 69t-92 -69l-11 3q8 35 35 57t68 22z" />
    <glyph glyph-name="uni0330" unicode="&#x330;" horiz-adv-x="0" 
d="M-100 -136q-24 0 -61.5 21.5t-53.5 21.5q-32 0 -61 -35l-9 6q33 42 70 42q19 0 56.5 -21.5t58.5 -21.5q32 0 61 39l9 -5q-29 -47 -70 -47z" />
    <glyph glyph-name="uni0331" unicode="&#x331;" horiz-adv-x="0" 
d="M-30 -131h-200v14h200v-14z" />
    <glyph glyph-name="uni0332" unicode="&#x332;" horiz-adv-x="0" 
d="M-30 -131h-300v14h300v-14z" />
    <glyph glyph-name="uni0334" unicode="&#x334;" horiz-adv-x="0" 
d="M-107 284q-25 0 -74 27.5t-73 27.5q-38 0 -69 -42l-10 5q35 51 79 51q27 0 75.5 -27.5t71.5 -27.5q39 0 67 42l10 -5q-31 -51 -77 -51z" />
    <glyph glyph-name="uni0335" unicode="&#x335;" horiz-adv-x="0" 
d="M-317 306v13h238v-13h-238z" />
    <glyph glyph-name="uni0336" unicode="&#x336;" horiz-adv-x="0" 
d="M-722 306v13h670v-13h-670z" />
    <glyph glyph-name="uni0339" unicode="&#x339;" horiz-adv-x="0" 
d="M-103 -218q33 0 53 20t20 52q0 33 -20 53t-53 20v-12q28 0 43.5 -16.5t15.5 -44.5t-15.5 -44t-43.5 -16v-12z" />
    <glyph glyph-name="uni033A" unicode="&#x33a;" horiz-adv-x="0" 
d="M-269 -106h14v-90h211v91h14v-104h-239v103z" />
    <glyph glyph-name="uni033B" unicode="&#x33b;" horiz-adv-x="0" 
d="M-259 -209v124h229v-124h-229zM-245 -197h201v99h-201v-99z" />
    <glyph glyph-name="uni033C" unicode="&#x33c;" horiz-adv-x="0" 
d="M-99 -73q28 0 46 -22t23 -59l-9 -1q-14 67 -60 67q-47 0 -60 -67h-14q-13 67 -59 67q-49 0 -60 -67l-9 1q5 37 23 59t46 22q25 0 42 -18.5t24 -50.5q15 69 67 69z" />
    <glyph glyph-name="uni033D" unicode="&#x33d;" horiz-adv-x="0" 
d="M-160 720l105 -126h-16l-97 119l-95 -119h-15l103 125l-89 109h15l82 -102l83 102h14z" />
    <glyph glyph-name="uni0342" unicode="&#x342;" horiz-adv-x="0" 
d="M-101 681q-24 0 -61 22t-54 22q-30 0 -61 -35l-9 5q34 43 70 43q20 0 57 -22t58 -22q33 0 62 40l9 -6q-30 -47 -71 -47z" />
    <glyph glyph-name="uni0345" unicode="&#x345;" horiz-adv-x="0" 
d="M-96 -149q-27 0 -42.5 17.5t-15.5 46.5v36h14v-35q0 -53 44 -53q22 0 50 17l7 -9q-29 -20 -57 -20z" />
    <glyph glyph-name="uni035C" unicode="&#x35c;" horiz-adv-x="0" 
d="M321 -66q-31 -26 -56 -43.5t-66.5 -40t-91.5 -34.5t-107 -12t-107.5 12t-92 34.5t-66.5 40t-56 43.5l5 8q34 -26 55.5 -40.5t64 -37.5t92 -34.5t105.5 -11.5t105.5 11.5t91.5 34t64 38t55 40.5z" />
    <glyph glyph-name="uni0361" unicode="&#x361;" horiz-adv-x="0" 
d="M322 648l-5 -8q-33 25 -55 40.5t-64 38t-91.5 34t-105.5 11.5t-105.5 -11.5t-92 -34.5t-64 -37.5t-55.5 -40.5l-5 8q31 26 56 43.5t66.5 40t92 34.5t107.5 12t107 -12t91.5 -34.5t66.5 -40t56 -43.5z" />
    <glyph glyph-name="uni0370" unicode="&#x370;" horiz-adv-x="520" 
d="M485 354h-345v-354h-14v681h14v-314h345v-13z" />
    <glyph glyph-name="uni0371" unicode="&#x371;" horiz-adv-x="475" 
d="M429 279v-14h-294v-265h-14v372q0 82 -20 147l13 1q21 -65 21 -148v-93h294z" />
    <glyph glyph-name="uni0372" unicode="&#x372;" horiz-adv-x="495" 
d="M476 674h1v-204h-14v197h-209v-667h-14v667h-208v-197h-14v211h458v-7z" />
    <glyph glyph-name="uni0373" unicode="&#x373;" horiz-adv-x="483" 
d="M465 518v-13h-220v-697l-14 -2v699h-149q-41 0 -65 -9l-4 13q24 9 68 9h384z" />
    <glyph glyph-name="uni0374" unicode="&#x374;" horiz-adv-x="275" 
d="M86 443l88 238h15l-92 -238h-11z" />
    <glyph glyph-name="uni0375" unicode="&#x375;" horiz-adv-x="275" 
d="M189 95l-88 -238h-15l91 238h12z" />
    <glyph glyph-name="uni0376" unicode="&#x376;" horiz-adv-x="658" 
d="M532 681v-681h-14v523q0 102 1 142l-376 -665h-17v681h14v-535q0 -66 -2 -130l376 665h18z" />
    <glyph glyph-name="uni0377" unicode="&#x377;" horiz-adv-x="587" 
d="M462 101q0 -42 11 -62.5t41 -32.5l-5 -12q-35 14 -48 37t-13 70q0 76 0.5 236t0.5 164l-312 -501h-16v518h14v-382q0 -75 -1 -119l312 501h16v-417z" />
    <glyph glyph-name="uni037A" unicode="&#x37a;" horiz-adv-x="199" 
d="M88 -149q-27 0 -42.5 17.5t-15.5 46.5v36h14v-35q0 -53 44 -53q22 0 50 17l7 -9q-29 -20 -57 -20z" />
    <glyph glyph-name="uni037B" unicode="&#x37b;" horiz-adv-x="506" 
d="M214 528q102 0 159 -71.5t57 -200.5q0 -125 -63 -195t-164 -70q-82 0 -157 53l8 10q71 -50 150 -50q93 0 152 66.5t59 185.5q0 124 -53.5 191.5t-147.5 67.5q-83 0 -155 -47l-8 10q76 50 163 50z" />
    <glyph glyph-name="uni037C" unicode="&#x37c;" horiz-adv-x="506" 
d="M303 528q83 0 152 -50l-9 -9q-64 46 -143 46q-96 0 -154 -68.5t-58 -190.5q0 -119 59 -185.5t152 -66.5q79 0 150 50l8 -10q-75 -53 -157 -53q-101 0 -164 70t-63 195q0 126 61.5 199t165.5 73zM303 273q14 0 14 -14q0 -15 -14 -15q-15 0 -15 15q0 14 15 14z" />
    <glyph glyph-name="uni037D" unicode="&#x37d;" horiz-adv-x="506" 
d="M214 528q102 0 159 -71.5t57 -200.5q0 -125 -63 -195t-164 -70q-82 0 -157 53l8 10q71 -50 150 -50q93 0 152 66.5t59 185.5q0 124 -53.5 191.5t-147.5 67.5q-83 0 -155 -47l-8 10q76 50 163 50zM204 273q14 0 14 -14q0 -15 -14 -15q-15 0 -15 15q0 14 15 14z" />
    <glyph glyph-name="uni037E" unicode="&#x37e;" horiz-adv-x="146" 
d="M73 447q17 0 17 -17q0 -16 -17 -16t-17 16q0 17 17 17zM73 27q7 0 12 -5t5 -12t-7 -23l-40 -109h-12l36 117q-11 3 -11 15q0 7 5 12t12 5z" />
    <glyph glyph-name="uni037F" unicode="&#x37f;" horiz-adv-x="276" 
d="M156 681v-595q0 -74 -24.5 -112t-101.5 -71l-4 11q70 31 93 66.5t23 106.5v594h14z" />
    <glyph glyph-name="tonos" unicode="&#x384;" horiz-adv-x="108" 
d="M61 728l16 -4l-37 -118l-10 2z" />
    <glyph glyph-name="dieresistonos" unicode="&#x385;" horiz-adv-x="248" 
d="M148 808l15 -3l-35 -112l-10 2zM44 673q15 0 15 -14t-15 -14q-14 0 -14 14t14 14zM203 673q15 0 15 -14t-15 -14q-14 0 -14 14t14 14z" />
    <glyph glyph-name="Alphatonos" unicode="&#x386;" horiz-adv-x="557" 
d="M124 681l-37 -118l-11 2l31 119zM511 0l-72 207h-322l-72 -207h-14l238 681h18l239 -681h-15zM122 221h312l-156 448z" />
    <glyph glyph-name="anoteleia" unicode="&#x387;" horiz-adv-x="146" 
d="M73 344q17 0 17 -17q0 -16 -17 -16t-17 16q0 17 17 17z" />
    <glyph glyph-name="Epsilontonos" unicode="&#x388;" horiz-adv-x="524" 
d="M61 684l17 -3l-37 -118l-11 2zM470 681l-2 -14h-298v-300h257v-13h-257v-340h308v-14h-322v681h314z" />
    <glyph glyph-name="Etatonos" unicode="&#x389;" horiz-adv-x="687" 
d="M61 684l17 -3l-37 -118l-11 2zM547 0v354h-377v-354h-14v681h14v-314h377v314h15v-681h-15z" />
    <glyph glyph-name="Iotatonos" unicode="&#x38a;" horiz-adv-x="296" 
d="M61 684l17 -3l-37 -118l-11 2zM170 681v-681h-14v681h14z" />
    <glyph glyph-name="Omicrontonos" unicode="&#x38c;" horiz-adv-x="708" 
d="M364 691q122 0 193 -92t71 -259q0 -165 -69.5 -257t-194.5 -92q-121 0 -192 91.5t-71 255.5t72 258.5t191 94.5zM61 684l17 -3l-37 -118l-11 2zM364 677q-114 0 -181 -89.5t-67 -249.5q0 -158 67 -246t181 -88q119 0 184 87.5t65 248.5q0 162 -66.5 249.5t-182.5 87.5z
" />
    <glyph glyph-name="Upsilontonos" unicode="&#x38e;" horiz-adv-x="598" 
d="M61 684l17 -3l-37 -118l-11 2zM575 681l-213 -410v-271h-14v271l-215 410h16l206 -398l204 398h16z" />
    <glyph glyph-name="Omegatonos" unicode="&#x38f;" horiz-adv-x="708" 
d="M364 691q122 0 193 -92t71 -259q0 -133 -42 -211t-124 -115h140v-14h-164v14q87 36 131 114.5t44 211.5q0 162 -66.5 249.5t-182.5 87.5q-114 0 -181 -89.5t-67 -249.5q0 -131 44 -209t130 -115v-14h-164v14h140q-83 39 -124 115.5t-41 208.5q0 164 72 258.5t191 94.5z
M61 684l17 -3l-37 -118l-11 2z" />
    <glyph glyph-name="iotadieresistonos" unicode="&#x390;" horiz-adv-x="255" 
d="M146 808l15 -3l-35 -112l-10 2zM42 673q15 0 15 -14t-15 -14q-14 0 -14 14t14 14zM201 673q15 0 15 -14t-15 -14q-14 0 -14 14t14 14zM130 518v-415q0 -42 11 -62.5t41 -32.5l-5 -12q-35 14 -48 37t-13 70v415h14z" />
    <glyph glyph-name="Alpha" unicode="&#x391;" horiz-adv-x="557" 
d="M511 0l-72 207h-322l-72 -207h-14l238 681h18l239 -681h-15zM122 221h312l-156 448z" />
    <glyph glyph-name="Beta" unicode="&#x392;" horiz-adv-x="584" 
d="M351 361q74 -4 122.5 -50t48.5 -127q0 -93 -60.5 -138.5t-167.5 -45.5h-168v681h138q107 0 164 -43t57 -125q0 -64 -37 -103.5t-97 -48.5zM266 667h-126v-300h174q69 0 112.5 41t43.5 105q0 76 -52 115t-152 39zM295 14q99 0 155.5 41t56.5 129q0 80 -52.5 124.5
t-135.5 44.5h-179v-339h155z" />
    <glyph glyph-name="Gamma" unicode="&#x393;" horiz-adv-x="515" 
d="M500 681l-2 -14h-358v-667h-14v681h374z" />
    <glyph glyph-name="uni0394" unicode="&#x394;" horiz-adv-x="567" 
d="M293 681l243 -681h-505l244 681h18zM284 669l-234 -656h466z" />
    <glyph glyph-name="Epsilon" unicode="&#x395;" horiz-adv-x="494" 
d="M440 681l-2 -14h-298v-300h257v-13h-257v-340h308v-14h-322v681h314z" />
    <glyph glyph-name="Zeta" unicode="&#x396;" horiz-adv-x="507" 
d="M457 681v-13l-397 -654h382l-2 -14h-397v13l397 654h-360v14h377z" />
    <glyph glyph-name="Eta" unicode="&#x397;" horiz-adv-x="657" 
d="M517 0v354h-377v-354h-14v681h14v-314h377v314h15v-681h-15z" />
    <glyph glyph-name="Theta" unicode="&#x398;" horiz-adv-x="688" 
d="M344 691q122 0 193 -92t71 -259q0 -165 -69.5 -257t-194.5 -92q-121 0 -192 91.5t-71 255.5t72 258.5t191 94.5zM344 677q-114 0 -181 -89.5t-67 -249.5q0 -158 67 -246t181 -88q119 0 184 87.5t65 248.5q0 162 -66.5 249.5t-182.5 87.5zM483 357v-13h-277v13h277z" />
    <glyph glyph-name="Iota" unicode="&#x399;" horiz-adv-x="266" 
d="M140 681v-681h-14v681h14z" />
    <glyph glyph-name="Kappa" unicode="&#x39a;" horiz-adv-x="508" 
d="M140 681v-680h-14v680h14zM483 681l-321 -315l337 -366h-18l-338 366l323 315h17z" />
    <glyph glyph-name="Lambda" unicode="&#x39b;" horiz-adv-x="557" 
d="M287 681l239 -681h-15l-233 669l-233 -669h-14l238 681h18z" />
    <glyph glyph-name="Mu" unicode="&#x39c;" horiz-adv-x="760" 
d="M602 681l77 -681h-14l-40 349q-24 213 -35 318l-203 -583h-14l-205 583q-2 -23 -7.5 -74t-14 -123t-12.5 -113l-39 -357h-14l75 681h22l202 -579l200 579h22z" />
    </font>
</defs>
</svg>
