<?xml version="1.0" standalone="no"?>
<!DOCTYPE svg PUBLIC "-//W3C//DTD SVG 1.1//EN" "http://www.w3.org/Graphics/SVG/1.1/DTD/svg11.dtd" >
<svg>
<metadata>
Created by FontForge 20120731 at Wed Dec 30 01:00:09 2015
 By ,,,
Digitized data copyright (c) 2012-2015, The Mozilla Foundation and Telefonica S.A.
</metadata>
<defs>
<font id="FiraSans-FourItalic" horiz-adv-x="560" >
  <font-face 
    font-family="Fira Sans Four"
    font-weight="100"
    font-style="italic"
    font-stretch="normal"
    units-per-em="1000"
    panose-1="2 11 2 3 5 0 0 2 0 4"
    ascent="800"
    descent="-200"
    x-height="517"
    cap-height="680"
    bbox="-709 -350 1360 1050"
    underline-thickness="50"
    underline-position="-50"
    slope="-8"
    unicode-range="U+000D-1F310"
  />
<missing-glyph horiz-adv-x="666" 
d="M654 1050l-197 -1400h-420l197 1400h420zM648 1044h-409l-196 -1388h409zM351 451q110 0 95 -115q-8 -53 -34.5 -82t-76.5 -36l-7 -45q-5 -24 -28 -24q-10 0 -17 6.5t-5 17.5l12 84q53 3 74.5 19.5t27.5 57.5q4 33 -6.5 51t-45.5 18q-28 0 -53 -11q-8 -3 -13 -3
q-24 0 -22 23q3 19 34 29t65 10zM295 120q15 0 24 -10t7 -25q-2 -16 -13.5 -26.5t-26.5 -10.5t-23.5 10.5t-6.5 26.5q2 15 13 25t26 10z" />
    <glyph glyph-name="fi" unicode="fi" horiz-adv-x="540" 
d="M452 517l-72 -517h-4l71 513h-280l-73 -512q-12 -86 -39 -124.5t-87 -67.5l-2 2q59 29 86 67.5t39 123.5l72 511h-93l1 4h92l14 101q8 56 44 85.5t92 29.5q67 0 123 -38l-2 -2q-57 37 -121 37q-54 0 -89 -28.5t-43 -83.5l-14 -101h285z" />
    <glyph glyph-name="fl" unicode="fl" horiz-adv-x="573" 
d="M487 3v-4q-21 -8 -42 -8q-64 0 -54 74l91 633q-87 32 -158 32q-60 0 -97.5 -28.5t-45.5 -83.5l-14 -101h150l-1 -4h-149l-73 -512q-12 -86 -39 -124.5t-87 -67.5l-2 2q59 29 86 67.5t39 123.5l72 511h-93l1 4h92l14 101q8 56 47 85.5t100 29.5q77 0 160 -32h2l-91 -636
q-10 -70 50 -70q21 0 42 8z" />
    <glyph glyph-name=".notdef" horiz-adv-x="666" 
d="M654 1050l-197 -1400h-420l197 1400h420zM648 1044h-409l-196 -1388h409zM351 451q110 0 95 -115q-8 -53 -34.5 -82t-76.5 -36l-7 -45q-5 -24 -28 -24q-10 0 -17 6.5t-5 17.5l12 84q53 3 74.5 19.5t27.5 57.5q4 33 -6.5 51t-45.5 18q-28 0 -53 -11q-8 -3 -13 -3
q-24 0 -22 23q3 19 34 29t65 10zM295 120q15 0 24 -10t7 -25q-2 -16 -13.5 -26.5t-26.5 -10.5t-23.5 10.5t-6.5 26.5q2 15 13 25t26 10z" />
    <glyph glyph-name=".null" horiz-adv-x="0" 
 />
    <glyph glyph-name="nonmarkingreturn" horiz-adv-x="333" 
 />
    <glyph glyph-name="CR" unicode="&#xd;" horiz-adv-x="309" 
 />
    <glyph glyph-name="space" unicode=" " horiz-adv-x="309" 
 />
    <glyph glyph-name="exclam" unicode="!" horiz-adv-x="234" 
d="M106 189l68 491h4l-68 -491h-4zM84 13q8 0 8 -9q0 -8 -9 -8q-8 0 -8 8q0 9 9 9z" />
    <glyph glyph-name="quotedbl" unicode="&#x22;" horiz-adv-x="317" 
d="M116 446l32 234h4l-32 -234h-4zM251 446l32 234h4l-33 -234h-3z" />
    <glyph glyph-name="numbersign" unicode="#" horiz-adv-x="480" 
d="M494 465h-87l-67 -249h83l-2 -3h-82l-58 -213h-4l58 213h-230l-58 -213h-4l58 213h-93l2 3h92l67 249h-88v4h89l52 193h4l-52 -193h230l52 193h4l-52 -193h86v-4zM336 216l67 249h-230l-67 -249h230z" />
    <glyph glyph-name="dollar" unicode="$" horiz-adv-x="528" 
d="M313 665q-95 0 -141.5 -47t-46.5 -114q0 -51 35 -83.5t119 -60.5q81 -28 120.5 -69t39.5 -102q0 -81 -53 -139t-166 -59l-19 -135h-4l19 135q-110 0 -179 76l2 3q70 -75 178 -75q113 0 165.5 57t52.5 137q0 59 -39 99t-118 68q-86 29 -121.5 62.5t-35.5 85.5
q0 68 47 116.5t145 48.5h2l19 137h4l-19 -137q84 -1 155 -62l-4 -4q-67 62 -157 62z" />
    <glyph glyph-name="percent" unicode="%" horiz-adv-x="747" 
d="M662 691l3 -2l-553 -699l-4 1zM251 670q51 0 78.5 -30.5t27.5 -86.5q0 -30 -7.5 -60t-23.5 -60t-46.5 -48.5t-70.5 -18.5q-50 0 -78 32t-28 87q0 41 12.5 80.5t48 72t87.5 32.5zM251 667q-39 0 -69 -18.5t-45 -47.5t-22.5 -58t-7.5 -58q0 -54 26.5 -85t75.5 -31
q39 0 69 18.5t45 48t22.5 59.5t7.5 59q0 54 -26.5 83.5t-75.5 29.5zM557 296q51 0 78.5 -30.5t27.5 -86.5q0 -30 -7.5 -60.5t-23.5 -60t-46.5 -48.5t-70.5 -19q-51 0 -78.5 32t-27.5 88q0 41 12.5 80.5t48 72t87.5 32.5zM557 292q-39 0 -69 -18.5t-45 -47.5t-22.5 -58
t-7.5 -58q0 -54 26.5 -84.5t75.5 -30.5q39 0 69 18.5t45 48t22.5 59t7.5 58.5q0 55 -26.5 84t-75.5 29z" />
    <glyph glyph-name="ampersand" unicode="&#x26;" horiz-adv-x="734" 
d="M356 691q57 0 94.5 -33.5t37.5 -84.5q0 -64 -41.5 -108t-156.5 -104l221 -243q55 74 100 216l4 -1q-44 -141 -101 -217l105 -115l-4 -3l-104 115q-94 -122 -233 -122q-75 0 -121.5 44.5t-46.5 109.5q0 64 37.5 116.5t135.5 100.5q-83 89 -83 170q0 62 40.5 110.5
t115.5 48.5zM356 687q-75 0 -113.5 -47.5t-38.5 -107.5q0 -79 83 -169q116 60 156.5 104.5t40.5 105.5q0 50 -36.5 82t-91.5 32zM286 359q-99 -49 -135.5 -101t-36.5 -113q0 -63 45 -106.5t119 -43.5q73 0 128 30t103 91z" />
    <glyph glyph-name="quotesingle" unicode="'" horiz-adv-x="183" 
d="M116 446l32 234h4l-32 -234h-4z" />
    <glyph glyph-name="parenleft" unicode="(" horiz-adv-x="329" 
d="M326 826l3 -2q-42 -51 -63.5 -79t-54.5 -78t-51.5 -91.5t-36.5 -100.5t-27 -125q-8 -55 -9 -103.5t6 -92t14.5 -76t25 -73t29.5 -63.5t35 -66l-4 -1q-23 42 -35 66.5t-29.5 64t-25.5 72.5t-14.5 76.5t-5.5 92t9 103.5q9 66 27 125t36.5 101t51.5 92t55 78t64 80z" />
    <glyph glyph-name="parenright" unicode=")" horiz-adv-x="327" 
d="M160 825q23 -41 35.5 -66t29.5 -64.5t24.5 -72.5t14.5 -76.5t6 -92t-9 -103.5q-11 -82 -32.5 -148.5t-57.5 -127.5t-64 -98.5t-80 -101.5l-3 2q52 63 79 100.5t63.5 98t58 127.5t32.5 148q8 55 9 103.5t-6 92t-14.5 76.5t-24.5 72.5t-29.5 64t-34.5 65.5z" />
    <glyph glyph-name="asterisk" unicode="*" horiz-adv-x="428" 
d="M418 613l-158 -49l76 -129l-4 -2l-75 129l-112 -129l-3 2l112 129l-146 49l2 4l145 -50l22 161h4l-22 -160l159 49v-4z" />
    <glyph glyph-name="plus" unicode="+" horiz-adv-x="479" 
d="M274 489l-21 -156h153l-2 -4h-153l-22 -156h-4l22 156h-153l1 4h153l22 156h4z" />
    <glyph glyph-name="comma" unicode="," horiz-adv-x="124" 
d="M25 13q9 0 9 -9q0 -4 -4 -11l-51 -104h-5l49 107q-6 2 -6 8q0 9 8 9z" />
    <glyph glyph-name="hyphen" unicode="-" horiz-adv-x="400" 
d="M92 310v4h232l-1 -4h-231z" />
    <glyph glyph-name="period" unicode="." horiz-adv-x="124" 
d="M25 13q9 0 9 -9q0 -8 -9 -8q-8 0 -8 8q0 9 8 9z" />
    <glyph glyph-name="slash" unicode="/" horiz-adv-x="520" 
d="M449 794l4 -1l-356 -885l-4 1z" />
    <glyph glyph-name="zero" unicode="0" horiz-adv-x="537" 
d="M325 670q152 0 152 -218q0 -54 -6.5 -111t-23.5 -121.5t-43.5 -114t-71 -82t-101.5 -32.5q-150 0 -150 215q0 56 6 113.5t23 122t43 114t70.5 82t101.5 32.5zM325 666q-92 0 -151 -86.5t-80 -242.5q-9 -68 -9 -131q0 -211 146 -211q94 1 152.5 87.5t80.5 241.5
q9 61 9 129q0 213 -148 213z" />
    <glyph glyph-name="one" unicode="1" horiz-adv-x="386" 
d="M303 660l-93 -660h-4l92 656l-197 -117l-2 4l200 117h4z" />
    <glyph glyph-name="two" unicode="2" horiz-adv-x="463" 
d="M278 670q66 0 106 -40t40 -102q0 -32 -4.5 -56.5t-25 -59.5t-42 -63.5t-75.5 -86.5t-105.5 -109t-150.5 -149h338v-4h-344v4q119 118 178 177.5t113.5 119t73.5 93t29.5 65t10.5 69.5q0 60 -38.5 99t-103.5 39q-93 0 -178 -80l-4 2q44 42 86 62t96 20z" />
    <glyph glyph-name="three" unicode="3" horiz-adv-x="470" 
d="M273 670q67 0 104 -35.5t37 -95.5q0 -69 -44 -124.5t-124 -61.5q65 -5 102.5 -42.5t37.5 -107.5q0 -33 -12 -68t-35.5 -68.5t-66 -54.5t-97.5 -21q-58 0 -97 19t-71 62l4 2q31 -43 69 -61t95 -18q44 0 80 14t59 36.5t39 50.5t22.5 55t6.5 52q0 73 -41.5 110.5
t-115.5 37.5h-34v4h37q87 0 134.5 57t47.5 127q0 58 -36.5 93t-100.5 35q-92 0 -169 -70l-3 2q78 71 172 71z" />
    <glyph glyph-name="four" unicode="4" horiz-adv-x="494" 
d="M446 199l-1 -4h-94l-28 -195h-4l28 195h-301l1 5l273 470l4 -1l-273 -470h296l31 219h4l-31 -219h95z" />
    <glyph glyph-name="five" unicode="5" horiz-adv-x="470" 
d="M436 660v-4h-286l-40 -293q64 47 138 47q72 0 110.5 -40.5t38.5 -113.5q0 -43 -11.5 -86t-35.5 -85t-69.5 -68t-105.5 -26q-100 0 -154 72l4 3q50 -71 150 -71q49 0 88 18t63 46t39.5 64t21.5 69t6 64q0 71 -38 110.5t-107 39.5q-72 0 -139 -47h-3l41 301h289z" />
    <glyph glyph-name="six" unicode="6" horiz-adv-x="505" 
d="M356 667q-104 0 -174.5 -104.5t-94.5 -271.5q98 132 210 132q67 0 104 -39t37 -115q0 -43 -10.5 -88t-32.5 -89.5t-64.5 -72.5t-98.5 -28q-79 0 -117 57t-38 153q0 41 6 86q24 172 95.5 277.5t177.5 105.5q58 0 96 -36l-3 -2q-37 35 -93 35zM297 420q-112 0 -211 -135
q-5 -36 -5 -84q0 -95 36.5 -150.5t114.5 -55.5q56 0 97.5 28.5t63 72.5t31.5 88t10 85q0 74 -36 112.5t-101 38.5z" />
    <glyph glyph-name="seven" unicode="7" horiz-adv-x="435" 
d="M441 660v-3l-376 -662l-4 2l376 659h-337v4h341z" />
    <glyph glyph-name="eight" unicode="8" horiz-adv-x="523" 
d="M309 340q73 -31 103.5 -65.5t30.5 -90.5q0 -81 -60.5 -137t-155.5 -56q-81 0 -126.5 39.5t-45.5 107.5q0 152 186 227q-58 25 -83 57t-25 82q0 71 56.5 118.5t129.5 47.5q63 0 104 -35t41 -97q0 -60 -33 -107.5t-122 -90.5zM137 504q0 -54 26.5 -84.5t89.5 -56.5l52 -22
q90 43 122.5 90.5t32.5 106.5q0 61 -39.5 95t-101.5 34q-71 0 -126.5 -47t-55.5 -116zM227 -5q92 0 152 54.5t60 134.5q0 61 -35.5 94.5t-120.5 68.5l-38 16q-106 -43 -146 -99.5t-40 -125.5q0 -67 44 -105t124 -38z" />
    <glyph glyph-name="nine" unicode="9" horiz-adv-x="500" 
d="M302 670q149 0 149 -186q0 -388 -363 -495l-1 3q308 92 354 392q-80 -124 -208 -124q-65 0 -104 43.5t-39 118.5q0 56 20.5 110.5t70.5 96t121 41.5zM234 264q128 0 207 128q6 48 6 91q0 184 -145 184q-53 0 -95 -24t-65.5 -61.5t-35.5 -78.5t-12 -81q0 -73 38 -115.5
t102 -42.5z" />
    <glyph glyph-name="colon" unicode=":" horiz-adv-x="124" 
d="M85 440q9 0 9 -8q0 -9 -9 -9t-9 9q0 8 9 8zM25 13q9 0 9 -9q0 -8 -9 -8q-8 0 -8 8q0 9 8 9z" />
    <glyph glyph-name="semicolon" unicode=";" horiz-adv-x="124" 
d="M85 440q9 0 9 -8q0 -9 -9 -9t-9 9q0 8 9 8zM25 13q9 0 9 -9q0 -4 -4 -11l-51 -104h-5l49 107q-6 2 -6 8q0 9 8 9z" />
    <glyph glyph-name="less" unicode="&#x3c;" horiz-adv-x="494" 
d="M436 489l2 -4l-335 -152l291 -156l-2 -4l-293 158v4z" />
    <glyph glyph-name="equal" unicode="=" horiz-adv-x="480" 
d="M106 404l1 4h311l-2 -4h-310zM84 254l1 4h310l-1 -4h-310z" />
    <glyph glyph-name="greater" unicode="&#x3e;" horiz-adv-x="496" 
d="M123 489l295 -154v-4l-339 -158l-2 4l337 156l-293 152z" />
    <glyph glyph-name="question" unicode="?" horiz-adv-x="447" 
d="M296 690q56 0 88.5 -32.5t32.5 -76.5q0 -50 -23.5 -87.5t-56.5 -60t-66 -43.5t-56 -51.5t-22 -71.5q0 -27 10 -57l-4 -1q-10 32 -10 58q-1 41 22 72t56 52.5t66 44t56.5 59t23.5 85.5q0 44 -31 75t-86 31q-50 0 -89 -18.5t-82 -58.5l-4 3q44 41 84 59.5t91 18.5zM189 12
q8 0 8 -9q0 -8 -9 -8q-8 0 -8 8q0 9 9 9z" />
    <glyph glyph-name="at" unicode="@" horiz-adv-x="1020" 
d="M585 691q166 0 253 -92t87 -236q0 -59 -12 -118t-35.5 -112t-64.5 -86t-93 -33q-40 0 -63.5 26t-28.5 56.5t-1 62.5q-65 -143 -171 -143q-59 0 -95 42t-36 121q0 49 13 98t39 94.5t72.5 74t106.5 28.5t113 -32l-37 -266q-10 -75 13.5 -116.5t74.5 -41.5q67 0 114.5 57
t67 132.5t19.5 155.5q0 142 -86 233t-250 91q-99 0 -181.5 -33.5t-137 -87t-92.5 -121.5t-55 -136t-17 -132q0 -168 104.5 -267t266.5 -99q99 0 184 31v-3q-86 -32 -184 -32q-164 0 -269.5 100.5t-105.5 269.5q0 64 17 132.5t55.5 137.5t93.5 122.5t138.5 87.5t182.5 34z
M456 20q105 0 171 147l38 273q-49 30 -109 30q-59 0 -105 -28t-71.5 -73t-38 -94t-12.5 -97q0 -77 35 -117.5t92 -40.5z" />
    <glyph glyph-name="A" unicode="A" horiz-adv-x="556" 
d="M482 0l-46 212h-329l-105 -212h-4l337 680h3l148 -680h-4zM109 216h326l-99 459z" />
    <glyph glyph-name="B" unicode="B" horiz-adv-x="582" 
d="M353 360q68 -4 111.5 -42.5t43.5 -105.5q0 -92 -60.5 -152t-195.5 -60h-159l95 680h136q93 0 143 -36t50 -103q0 -73 -47.5 -122.5t-116.5 -58.5zM192 676l-44 -314h187q64 0 121 48t57 130q0 66 -48 101t-140 35h-133zM253 4q131 0 191 58.5t60 149.5q0 68 -47 107
t-125 39h-185l-49 -354h155z" />
    <glyph glyph-name="C" unicode="C" horiz-adv-x="531" 
d="M403 690q88 0 145 -57l-2 -3q-29 28 -60.5 42t-82.5 14q-67 0 -122 -29t-89 -74t-57 -104t-32 -115t-9 -110q0 -125 56.5 -192t154.5 -67q91 0 169 59l2 -4q-81 -59 -171 -59q-100 0 -157.5 68t-57.5 194q0 56 9.5 113.5t33 116.5t58 104.5t89.5 74t123 28.5z" />
    <glyph glyph-name="D" unicode="D" horiz-adv-x="614" 
d="M294 680q53 0 94.5 -10.5t79.5 -35.5t59 -75t21 -123q0 -64 -10.5 -124t-36.5 -117.5t-64 -100t-97.5 -68.5t-133.5 -26h-113l95 680h106zM294 676h-102l-94 -672h108q73 0 132 26t96.5 68t63 99t36 116.5t10.5 122.5q0 71 -20.5 120.5t-58 74.5t-78.5 35t-93 10z" />
    <glyph glyph-name="E" unicode="E" horiz-adv-x="495" 
d="M495 680l-1 -4h-302l-44 -313h260v-4h-260l-50 -355h312v-4h-317l95 680h307z" />
    <glyph glyph-name="F" unicode="F" horiz-adv-x="470" 
d="M490 680l-1 -4h-297l-46 -328h257v-4h-258l-48 -344h-4l95 680h302z" />
    <glyph glyph-name="G" unicode="G" horiz-adv-x="601" 
d="M404 690q84 0 151 -55l-2 -4q-67 55 -149 55q-77 0 -138.5 -40t-97.5 -104.5t-55 -138t-19 -147.5q0 -127 58.5 -194t164.5 -67q83 0 169 46l43 298h-150v4h154l-43 -304q-90 -48 -173 -48q-107 0 -167 68.5t-60 196.5q0 76 19.5 150.5t56.5 139t99 104.5t139 40z" />
    <glyph glyph-name="H" unicode="H" horiz-adv-x="655" 
d="M485 0l51 364h-388l-51 -364h-4l95 680h4l-44 -312h388l44 312h4l-95 -680h-4z" />
    <glyph glyph-name="I" unicode="I" horiz-adv-x="263" 
d="M192 680l-95 -680h-4l95 680h4z" />
    <glyph glyph-name="J" unicode="J" horiz-adv-x="274" 
d="M210 680l-83 -595q-10 -73 -38.5 -110t-106.5 -67l-2 4q76 29 104.5 65.5t38.5 108.5l83 594h4z" />
    <glyph glyph-name="K" unicode="K" horiz-adv-x="505" 
d="M192 680l-95 -679h-4l95 679h4zM534 680l-377 -314l298 -366h-6l-298 366l377 314h6z" />
    <glyph glyph-name="L" unicode="L" horiz-adv-x="446" 
d="M192 680l-94 -676h288l-1 -4h-292l95 680h4z" />
    <glyph glyph-name="M" unicode="M" horiz-adv-x="758" 
d="M653 680l-16 -680h-4l7 353l9 323l-293 -591h-5l-126 591q-2 -9 -33 -129t-47 -187l-93 -360h-4l174 680h7l126 -590l292 590h6z" />
    <glyph glyph-name="N" unicode="N" horiz-adv-x="655" 
d="M584 680l-95 -680h-5l-292 675l-16 -113l-79 -562h-4l95 680h6l292 -674q8 56 19 137l75 537h4z" />
    <glyph glyph-name="O" unicode="O" horiz-adv-x="687" 
d="M403 690q104 0 161.5 -68t57.5 -193q0 -55 -9 -111t-32 -116t-57.5 -106t-91 -75.5t-126.5 -29.5q-103 0 -160 68.5t-57 192.5q0 53 10 110t33.5 116.5t58.5 106t90 76t122 29.5zM403 686q-67 0 -121 -29.5t-88.5 -75.5t-58 -105t-33 -115t-9.5 -109q0 -123 56 -190
t157 -67q70 0 125.5 29.5t89.5 75t56.5 105t31.5 115t9 109.5q0 123 -56.5 190t-158.5 67z" />
    <glyph glyph-name="P" unicode="P" horiz-adv-x="553" 
d="M312 680q108 0 159.5 -37t51.5 -119q0 -46 -13 -85t-42.5 -74t-84 -55t-129.5 -20h-116l-41 -290h-4l95 680h124zM255 294q74 0 127.5 19.5t82 54t41.5 73t13 83.5q0 80 -50.5 116t-156.5 36h-120l-54 -382h117z" />
    <glyph glyph-name="Q" unicode="Q" horiz-adv-x="674" 
d="M622 429q0 -66 -14 -133t-44 -134t-87 -113t-134 -55q82 -1 135.5 -15t92.5 -50l-4 -3q-41 37 -96.5 51.5t-157.5 13.5h-7q-103 0 -160 68.5t-57 192.5q0 53 10 110t33.5 116.5t58.5 106t90 76t122 29.5q104 0 161.5 -68t57.5 -193zM93 253q0 -123 56 -190.5t157 -67.5
q70 0 125.5 29.5t89.5 75.5t56.5 105.5t31.5 115t9 108.5q0 123 -56.5 190t-158.5 67q-66 0 -120.5 -29.5t-89 -76t-58 -105.5t-33 -114.5t-9.5 -107.5z" />
    <glyph glyph-name="R" unicode="R" horiz-adv-x="562" 
d="M520 538q0 -79 -48 -140t-145 -65l145 -333h-5l-145 333h-178l-47 -333h-4l95 680h138q194 0 194 -142zM145 337h171q99 0 149.5 60t50.5 141q0 138 -189 138h-135z" />
    <glyph glyph-name="S" unicode="S" horiz-adv-x="540" 
d="M324 690q100 0 166 -64l-4 -3q-61 63 -162 63q-97 0 -146.5 -51t-49.5 -111t34 -92t124 -61q88 -30 127 -67t39 -106q0 -33 -13 -67t-38.5 -66.5t-72 -53t-105.5 -20.5q-115 0 -186 78l3 4q34 -39 76.5 -58.5t106.5 -19.5q58 0 103.5 20.5t71 52.5t38 65t12.5 64
q0 67 -38 103.5t-125 66.5q-91 30 -126 62.5t-35 94.5t50 114t150 52z" />
    <glyph glyph-name="T" unicode="T" horiz-adv-x="472" 
d="M512 680l-1 -4h-214l-95 -676h-4l95 676h-215l1 4h433z" />
    <glyph glyph-name="U" unicode="U" horiz-adv-x="636" 
d="M575 680l-67 -474q-13 -99 -68.5 -157t-158.5 -58q-197 0 -169 215l67 474h4l-67 -474q-13 -98 25.5 -154.5t139.5 -56.5t155.5 57t67.5 154l67 474h4z" />
    <glyph glyph-name="V" unicode="V" horiz-adv-x="524" 
d="M549 680l-319 -680h-5l-132 680h4l131 -676l317 676h4z" />
    <glyph glyph-name="W" unicode="W" horiz-adv-x="777" 
d="M792 680l-255 -680h-4l-86 676l-274 -676h-5l-65 680h4l64 -676l274 676h5l85 -675l253 675h4z" />
    <glyph glyph-name="X" unicode="X" horiz-adv-x="469" 
d="M253 370l160 -370h-4l-160 367l-261 -367h-4l262 370h1l-138 310h4l137 -307l223 307h4z" />
    <glyph glyph-name="Y" unicode="Y" horiz-adv-x="481" 
d="M515 680l-271 -409l-37 -271h-4l37 271l-156 409h4l154 -405l268 405h5z" />
    <glyph glyph-name="Z" unicode="Z" horiz-adv-x="505" 
d="M9 0v4l499 672h-368l1 4h373l-1 -4l-499 -672h388v-4h-393z" />
    <glyph glyph-name="bracketleft" unicode="[" horiz-adv-x="310" 
d="M296 791v-4h-108l-126 -884h108v-4h-112l126 892h112z" />
    <glyph glyph-name="backslash" unicode="\" horiz-adv-x="520" 
d="M221 794l108 -885l-4 -1l-108 885z" />
    <glyph glyph-name="bracketright" unicode="]" horiz-adv-x="309" 
d="M276 791l-125 -892h-113v4h109l124 884h-108v4h113z" />
    <glyph glyph-name="asciicircum" unicode="^" horiz-adv-x="528" 
d="M340 818l127 -291h-5l-126 286l-206 -286h-4l211 291h3z" />
    <glyph glyph-name="underscore" unicode="_" horiz-adv-x="520" 
d="M4 -88v4h416v-4h-416z" />
    <glyph glyph-name="grave" unicode="`" horiz-adv-x="230" 
d="M100 748l156 -84l-2 -3l-156 82z" />
    <glyph glyph-name="a" unicode="a" horiz-adv-x="540" 
d="M336 527q70 0 127 -40l-56 -367q-5 -35 -5 -55q0 -56 42 -71l-2 -3q-25 9 -35.5 30t-8.5 44.5t4 48.5q-33 -60 -79 -91.5t-96 -31.5q-72 0 -113 53.5t-41 139.5q0 57 14 114t43 110t82.5 86t123.5 33zM336 524q-56 0 -101.5 -22t-74 -57t-48 -80.5t-27.5 -90.5t-8 -90
q0 -85 40 -137t110 -52q50 0 96.5 32t80.5 95l55 363q-55 39 -123 39z" />
    <glyph glyph-name="b" unicode="b" horiz-adv-x="563" 
d="M194 731l-42 -309q86 105 191 105q72 0 109.5 -48.5t37.5 -139.5q0 -54 -13.5 -111t-40 -112t-75.5 -90t-111 -35q-75 0 -157 36l97 703zM343 523q-57 0 -102 -26.5t-90 -79.5l-54 -388q79 -34 153 -34q62 0 110 35t74 89t39 110.5t13 109.5q0 89 -36.5 136.5
t-106.5 47.5z" />
    <glyph glyph-name="c" unicode="c" horiz-adv-x="468" 
d="M319 527q75 0 123 -50l-3 -2q-47 48 -120 48q-76 0 -132 -48.5t-82 -121.5t-26 -159q0 -96 44.5 -147.5t119.5 -51.5q74 0 140 51l2 -2q-65 -53 -142 -53t-122.5 53t-45.5 150q0 136 65 234.5t179 98.5z" />
    <glyph glyph-name="d" unicode="d" horiz-adv-x="571" 
d="M509 731l4 -1l-102 -730h-4l21 147q-42 -73 -88 -114.5t-112 -41.5q-69 0 -109.5 50.5t-40.5 141.5q0 54 13 110.5t39 110.5t75 88.5t112 34.5q58 0 95.5 -29.5t53.5 -71.5zM317 523q-63 0 -111 -34t-73.5 -87.5t-38 -109t-12.5 -109.5q0 -89 39.5 -138.5t106.5 -49.5
q66 0 112.5 42t87.5 117l38 266q-39 103 -149 103z" />
    <glyph glyph-name="e" unicode="e" horiz-adv-x="520" 
d="M466 414q0 -84 -95.5 -135.5t-291.5 -60.5q0 -5 -0.5 -14t-0.5 -13q0 -95 42.5 -145.5t118.5 -50.5q80 0 161 59l2 -4q-81 -59 -163 -59q-77 0 -121 52t-44 148q0 39 7.5 81.5t26 89t46 82.5t72 59.5t99.5 23.5q60 0 100.5 -30t40.5 -83zM325 523q-61 0 -109 -29
t-75.5 -76.5t-42.5 -96.5t-19 -100q195 10 289 60.5t94 132.5q0 51 -39.5 80t-97.5 29z" />
    <glyph glyph-name="f" unicode="f" horiz-adv-x="300" 
d="M306 731q-49 0 -83 -29.5t-42 -83.5l-14 -101h150l-1 -4h-149l-73 -512q-12 -86 -39 -124.5t-87 -67.5l-2 2q59 29 86 67.5t39 123.5l72 511h-93l1 4h92l14 101q8 56 43 86t86 30q61 0 110 -37l-3 -3q-48 37 -107 37z" />
    <glyph glyph-name="g" unicode="g" horiz-adv-x="550" 
d="M336 527q70 0 127 -40l-74 -497q-15 -100 -60.5 -141t-117.5 -41q-91 0 -160 46l2 4q69 -46 158 -46q70 0 115 40t59 137l21 141q-33 -64 -80.5 -97t-97.5 -33q-72 0 -112.5 55t-40.5 141q0 57 13.5 112t42.5 106t82 82t123 31zM336 524q-69 0 -121.5 -31t-80.5 -81.5
t-41.5 -104.5t-13.5 -111q0 -85 39.5 -138.5t109.5 -53.5q108 0 179 135l52 346q-55 39 -123 39z" />
    <glyph glyph-name="h" unicode="h" horiz-adv-x="580" 
d="M365 527q133 0 112 -159l-52 -368h-4l52 368q21 156 -108 156q-66 0 -120.5 -46.5t-106.5 -149.5l-46 -328h-4l102 730l4 1l-54 -394q94 190 225 190z" />
    <glyph glyph-name="i" unicode="i" horiz-adv-x="253" 
d="M189 708q7 0 7 -8q0 -7 -8 -7q-7 0 -7 8q0 7 8 7zM164 517l-72 -517h-4l72 517h4z" />
    <glyph glyph-name="j" unicode="j" horiz-adv-x="253" 
d="M189 708q7 0 7 -8q0 -7 -8 -7q-7 0 -7 8q0 7 8 7zM164 517l-72 -516q-12 -86 -39 -124.5t-87 -67.5l-2 2q59 29 86 67.5t38 123.5l72 515h4z" />
    <glyph glyph-name="k" unicode="k" horiz-adv-x="509" 
d="M194 731l-58 -419q47 104 106 159.5t125 55.5q49 0 77 -27.5t28 -74.5q0 -65 -48.5 -108.5t-140.5 -73.5l128 -243h-5l-128 245q93 30 141.5 73t48.5 106q0 46 -26 73t-75 27q-65 0 -125 -57.5t-108 -164.5l-42 -302h-4l102 730z" />
    <glyph glyph-name="l" unicode="l" horiz-adv-x="275" 
d="M189 731l-93 -666q-10 -70 50 -70q21 0 42 8v-4q-21 -8 -42 -8q-64 0 -54 74l93 665z" />
    <glyph glyph-name="m" unicode="m" horiz-adv-x="843" 
d="M644 527q58 0 82 -42t13 -117l-51 -368h-4l51 368q11 75 -12.5 115.5t-79.5 40.5q-120 0 -207 -192l-46 -332h-4l51 368q11 74 -12 115t-79 41q-118 0 -208 -196l-46 -328h-4l72 517h4l-24 -180q85 190 206 190q58 0 82 -42t13 -117l-3 -26q84 185 206 185z" />
    <glyph glyph-name="n" unicode="n" horiz-adv-x="580" 
d="M368 527q64 0 91.5 -41.5t17.5 -117.5l-52 -368h-4l52 368q10 75 -16 115.5t-89 40.5q-68 0 -123 -46t-107 -150l-46 -328h-4l72 517h4l-24 -180q50 100 105.5 145t122.5 45z" />
    <glyph glyph-name="o" unicode="o" horiz-adv-x="559" 
d="M318 527q79 0 123 -52t44 -147q0 -53 -12.5 -108t-39 -108.5t-76 -87t-115.5 -33.5q-80 0 -124 53t-44 148q0 54 13 109t40 107.5t76.5 85.5t114.5 33zM318 523q-52 0 -94 -22t-68.5 -56.5t-44.5 -79.5t-25.5 -88t-7.5 -85q0 -94 43 -145.5t121 -51.5q65 0 113.5 33
t74.5 86t38.5 107t12.5 107q0 93 -42.5 144t-120.5 51z" />
    <glyph glyph-name="p" unicode="p" horiz-adv-x="567" 
d="M343 527q72 0 109.5 -48.5t37.5 -139.5q0 -54 -13.5 -111t-40 -112t-75.5 -90t-111 -35q-86 0 -154 34l-30 -214l-4 -1l98 707h4l-13 -95q85 105 192 105zM343 523q-57 0 -102 -26.5t-90 -79.5l-55 -388q70 -34 154 -34q62 0 110 35t74 89t39 110.5t13 109.5
q0 89 -36.5 136.5t-106.5 47.5z" />
    <glyph glyph-name="q" unicode="q" horiz-adv-x="550" 
d="M336 527q70 0 127 -40l-99 -676l-4 -1l44 306q-33 -62 -80 -93.5t-97 -31.5q-72 0 -113 53.5t-41 139.5q0 57 14 114t43 110t82.5 86t123.5 33zM336 524q-56 0 -101.5 -22t-74 -57t-48 -80.5t-27.5 -90.5t-8 -90q0 -85 40 -137t110 -52q50 0 97 32.5t82 97.5l53 360
q-55 39 -123 39z" />
    <glyph glyph-name="r" unicode="r" horiz-adv-x="361" 
d="M328 527q23 0 46 -7l-2 -3q-22 6 -44 6q-64 0 -107.5 -39t-79.5 -137l-49 -347h-4l72 517h4l-22 -159q35 93 78.5 131t107.5 38z" />
    <glyph glyph-name="s" unicode="s" horiz-adv-x="457" 
d="M259 527q89 0 144 -52l-3 -2q-53 50 -141 50q-67 0 -113 -33.5t-46 -90.5q0 -42 29 -69t105 -52q77 -25 107.5 -55t30.5 -82q0 -69 -50.5 -109.5t-128.5 -40.5q-99 0 -165 66l2 3q67 -65 163 -65q75 0 125 39t50 107q0 51 -29.5 79.5t-105.5 53.5q-78 25 -108 53t-30 72
q0 58 47.5 93t116.5 35z" />
    <glyph glyph-name="t" unicode="t" horiz-adv-x="322" 
d="M156 513l-55 -399q-8 -57 13.5 -88t69.5 -31q47 0 96 28l2 -4q-50 -28 -99 -28t-72 32t-14 90l55 400h-87l1 4h87l19 134h4l-19 -134h145v-4h-146z" />
    <glyph glyph-name="u" unicode="u" horiz-adv-x="574" 
d="M486 517l-72 -517h-4l24 167q-37 -85 -92 -130.5t-120 -45.5q-66 0 -97.5 41t-21.5 118l51 367h4l-51 -367q-10 -75 20.5 -115t95.5 -40t119 46t92 133l48 343h4z" />
    <glyph glyph-name="v" unicode="v" horiz-adv-x="436" 
d="M443 517l-253 -517h-5l-120 517h5l118 -513l251 513h4z" />
    <glyph glyph-name="w" unicode="w" horiz-adv-x="673" 
d="M670 517l-213 -517h-5l-80 512l-223 -512h-5l-69 517h4l68 -513l223 513h5l80 -513l211 513h4z" />
    <glyph glyph-name="x" unicode="x" horiz-adv-x="425" 
d="M410 517l-194 -239l149 -278h-5l-147 276l-220 -276h-5l223 278l-124 239h4l123 -237l192 237h4z" />
    <glyph glyph-name="y" unicode="y" horiz-adv-x="435" 
d="M442 517l-250 -517q-46 -92 -82 -130t-112 -60v4q75 21 110 58t80 128h-3l-120 517h5l118 -514l250 514h4z" />
    <glyph glyph-name="z" unicode="z" horiz-adv-x="410" 
d="M406 517v-3l-401 -510h319l-1 -4h-324v4l402 509h-300v4h305z" />
    <glyph glyph-name="braceleft" unicode="{" horiz-adv-x="326" 
d="M309 809v-3q-78 0 -91 -93l-40 -285q-11 -77 -87 -79q35 -1 52 -21.5t12 -57.5l-40 -285q-13 -93 65 -93v-3q-81 0 -69 95l40 287q6 38 -12 57t-53 19l1 4q75 0 87 77l40 286q12 95 95 95z" />
    <glyph glyph-name="bar" unicode="|" horiz-adv-x="419" 
d="M288 800l-125 -897h-4l125 897h4z" />
    <glyph glyph-name="braceright" unicode="}" horiz-adv-x="325" 
d="M42 -111v3q78 0 91 93l40 285q11 77 87 79q-35 1 -52 21.5t-12 57.5l40 285q13 93 -65 93v3q81 0 69 -95l-40 -287q-6 -38 12 -57t53 -19l-1 -4q-75 0 -87 -77l-40 -286q-12 -95 -95 -95z" />
    <glyph glyph-name="asciitilde" unicode="~" horiz-adv-x="454" 
d="M304 290q-24 0 -67.5 27.5t-67.5 27.5q-41 0 -75 -44l-3 2q34 46 78 46q26 0 69.5 -27.5t65.5 -27.5q40 0 74 44l4 -2q-34 -46 -78 -46z" />
    <glyph glyph-name="uni00A0" unicode="&#xa0;" horiz-adv-x="309" 
 />
    <glyph glyph-name="exclamdown" unicode="&#xa1;" horiz-adv-x="234" 
d="M143 439q9 0 9 -8q0 -9 -9 -9q-8 0 -8 9q0 8 8 8zM120 254l-63 -442h-4l63 442h4z" />
    <glyph glyph-name="cent" unicode="&#xa2;" horiz-adv-x="468" 
d="M319 527q75 0 123 -50l-3 -2q-47 48 -120 48q-76 0 -132 -48.5t-82 -121.5t-26 -159q0 -96 44.5 -147.5t119.5 -51.5q74 0 140 51l2 -2q-65 -53 -142 -53h-7l-19 -135h-4l19 135q-72 4 -114.5 57t-42.5 146q0 133 63 231t174 102l20 145h4l-20 -145h3z" />
    <glyph glyph-name="sterling" unicode="&#xa3;" horiz-adv-x="493" 
d="M352 670q82 0 126 -61l-4 -2q-40 59 -122 59q-69 0 -111.5 -44.5t-52.5 -115.5l-21 -149h209v-4h-210l-32 -233q-7 -48 -28.5 -74t-64.5 -42h347v-4h-355v4q46 17 68 42t29 74l32 233h-57v4h58l21 149q10 73 53.5 118.5t114.5 45.5z" />
    <glyph glyph-name="currency" unicode="&#xa4;" 
d="M445 339q0 -77 -52 -126l79 -77l-4 -3l-78 77q-46 -41 -111 -41q-64 0 -109 40l-78 -76l-4 3l79 76q-54 51 -54 127q0 75 50 125l-75 76l4 3l73 -77q48 45 114 45q68 0 115 -45l74 77l4 -3l-75 -77q48 -50 48 -124zM117 339q0 -72 47 -119t115 -47q69 0 115.5 46.5
t46.5 119.5q0 72 -45.5 120t-116.5 48q-70 0 -116 -48t-46 -120z" />
    <glyph glyph-name="yen" unicode="&#xa5;" horiz-adv-x="471" 
d="M502 660l-255 -340h131v-4h-132l-18 -130h131v-4h-132l-25 -182h-4l25 182h-129l1 4h129l17 130h-128l1 4h127l-160 340h5l158 -338l253 338h5z" />
    <glyph glyph-name="brokenbar" unicode="&#xa6;" horiz-adv-x="420" 
d="M289 800l-51 -357h-4l51 357h4zM213 262l-49 -359h-4l49 359h4z" />
    <glyph glyph-name="section" unicode="&#xa7;" horiz-adv-x="531" 
d="M329 666q-72 0 -111.5 -37t-39.5 -85q0 -37 28.5 -65t98.5 -53q65 -24 93.5 -54t28.5 -75t-24.5 -79t-80.5 -64q50 -32 50 -88q0 -48 -39 -87t-114 -39q-87 0 -144 42l2 3q53 -41 142 -41q75 0 112 38t37 84q0 40 -27.5 68t-95.5 51q-68 24 -98.5 53t-30.5 72
q0 41 24.5 74.5t90.5 71.5q-57 35 -57 88q0 50 41.5 88t113.5 38q75 0 134 -40l-3 -4q-58 40 -131 40zM423 297q0 43 -27.5 72.5t-92.5 53.5q-42 15 -68 31q-67 -38 -91 -70.5t-24 -73.5q0 -42 30 -70.5t98 -51.5q44 -15 70 -31q59 31 82 64t23 76z" />
    <glyph glyph-name="dieresis" unicode="&#xa8;" horiz-adv-x="226" 
d="M98 693q7 0 7 -7q0 -8 -8 -8q-7 0 -7 8q0 7 8 7zM248 693q8 0 8 -7q-2 -8 -8 -8q-7 0 -7 8q0 7 7 7z" />
    <glyph glyph-name="copyright" unicode="&#xa9;" horiz-adv-x="810" 
d="M405 712q117 0 192.5 -77.5t75.5 -199.5q0 -121 -76 -199t-192 -78q-117 0 -192.5 77.5t-75.5 199.5q0 121 76 199t192 78zM405 708q-115 0 -189.5 -76.5t-74.5 -196.5q0 -121 74 -197t190 -76q115 0 189.5 76.5t74.5 196.5q0 121 -74 197t-190 76zM406 602q46 0 75 -26
l-2 -3q-32 26 -73 26q-47 0 -86 -41.5t-39 -120.5q0 -75 35 -119t90 -44q48 0 84 30l2 -3q-35 -31 -86 -31q-56 0 -92.5 45.5t-36.5 121.5q0 80 40.5 122.5t88.5 42.5z" />
    <glyph glyph-name="ordfeminine" unicode="&#xaa;" horiz-adv-x="500" 
d="M304 680q100 0 100 -87q0 -9 -2 -29l-27 -196q-8 -30 -3 -54.5t33 -32.5l-2 -3q-28 8 -34 33t1 51q-55 -84 -149 -84q-51 0 -78.5 26t-27.5 70q0 65 48.5 102t129.5 37h98l7 51q2 20 2 29q0 83 -96 83q-53 0 -121 -25v4q66 25 121 25zM391 510h-98q-81 0 -127.5 -36
t-46.5 -100q0 -42 26.5 -67t75.5 -25q93 0 150 87zM56 0l2 4h310l-1 -4h-311z" />
    <glyph glyph-name="guillemotleft" unicode="&#xab;" horiz-adv-x="520" 
d="M290 495l3 -2l-172 -205l116 -204l-4 -2l-116 204v4zM436 495l4 -2l-172 -205l116 -204l-4 -2l-116 204v4z" />
    <glyph glyph-name="logicalnot" unicode="&#xac;" horiz-adv-x="489" 
d="M414 323l-16 -110h-4l15 106h-316l1 4h320z" />
    <glyph glyph-name="uni00AD" unicode="&#xad;" horiz-adv-x="400" 
d="M92 310v4h232l-1 -4h-231z" />
    <glyph glyph-name="registered" unicode="&#xae;" horiz-adv-x="634" 
d="M317 710q93 0 151 -59t58 -147q0 -91 -55.5 -151.5t-153.5 -60.5q-93 0 -150.5 59t-57.5 148q0 91 55 151t153 60zM317 296q97 0 151 59.5t54 148.5q0 87 -56.5 145t-148.5 58q-97 0 -151 -59.5t-54 -148.5q0 -87 56.5 -145t148.5 -58zM398 565q0 -33 -19 -51t-46 -20
l74 -123h-4l-74 123h-75v-122h-4v267h56q92 0 92 -74zM254 498h70q31 0 50.5 17t19.5 50q0 70 -88 70h-52v-137z" />
    <glyph glyph-name="macron" unicode="&#xaf;" horiz-adv-x="252" 
d="M282 689h-192v4h192v-4z" />
    <glyph glyph-name="degree" unicode="&#xb0;" horiz-adv-x="521" 
d="M243 420q-55 0 -85 38t-23 98q8 58 49 96t96 38q59 0 87.5 -38t20.5 -98t-47 -97t-98 -37zM243 424q57 0 95 36t46 95q8 58 -19.5 94.5t-84.5 36.5q-53 0 -93 -37t-48 -94q-7 -58 22 -94.5t82 -36.5z" />
    <glyph glyph-name="plusminus" unicode="&#xb1;" horiz-adv-x="481" 
d="M275 489l-21 -156h153l-1 -4h-153l-22 -156h-4l22 156h-153l1 4h153l21 156h4zM48 0l2 4h310l-2 -4h-310z" />
    <glyph glyph-name="uni00B2" unicode="&#xb2;" horiz-adv-x="400" 
d="M230 734q49 0 71.5 -28.5t16.5 -73.5q-8 -57 -48 -105t-181 -182q-16 -15 -24 -23h220l-1 -4h-224v4q160 152 203 202t51 108q6 43 -15.5 70.5t-68.5 27.5q-62 0 -116 -52l-3 2q56 54 119 54z" />
    <glyph glyph-name="uni00B3" unicode="&#xb3;" horiz-adv-x="400" 
d="M232 734q48 0 72 -27t18 -71q-6 -45 -36.5 -70.5t-70.5 -28.5q47 -2 72.5 -29t18.5 -79t-45.5 -84.5t-91.5 -32.5q-71 0 -108 51l4 2q35 -49 104 -49q55 0 91 33t42 80q7 52 -19.5 79t-81.5 27h-23l1 4h24q42 0 75.5 25t39.5 72q6 42 -17 68t-69 26q-62 0 -111 -43l-2 3
q51 44 113 44z" />
    <glyph glyph-name="acute" unicode="&#xb4;" horiz-adv-x="230" 
d="M266 748l2 -5l-180 -82l-1 4z" />
    <glyph glyph-name="uni00B5" unicode="&#xb5;" horiz-adv-x="581" 
d="M437 161q-12 -77 4 -161h-4q-15 74 -6 146q-38 -71 -92.5 -113t-120.5 -42q-110 0 -112 104q-5 -34 -12 -83l-10 -70l-19 -132h-4l99 707h4l-53 -382q-11 -73 19.5 -106.5t87.5 -33.5q65 0 119.5 42.5t93.5 114.5l51 365h4z" />
    <glyph glyph-name="paragraph" unicode="&#xb6;" horiz-adv-x="683" 
d="M400 680l154 1l-122 -871l-4 -1l122 868l-147 -1l-122 -866l-4 -1l70 502q-109 1 -153 53t-32 132q12 86 77 135t161 49z" />
    <glyph glyph-name="periodcentered" unicode="&#xb7;" horiz-adv-x="124" 
d="M71 337q9 0 9 -8q0 -9 -9 -9t-9 9q0 8 9 8z" />
    <glyph glyph-name="cedilla" unicode="&#xb8;" horiz-adv-x="191" 
d="M38 -5l-15 -77q83 -2 83 -57q0 -26 -20.5 -45t-57.5 -19t-61 16l2 4q22 -16 59 -16t55.5 18.5t18.5 41.5q0 28 -20 40t-64 13l17 81h3z" />
    <glyph glyph-name="uni00B9" unicode="&#xb9;" horiz-adv-x="400" 
d="M288 727l-57 -409h-4l57 405l-127 -71l-2 3l130 72h3z" />
    <glyph glyph-name="ordmasculine" unicode="&#xba;" horiz-adv-x="500" 
d="M310 680q64 0 100 -39.5t36 -111.5q0 -40 -10 -80.5t-31 -80.5t-61 -65t-92 -25q-65 0 -100.5 40t-35.5 113q0 41 10.5 82t32 80t60.5 63t91 24zM310 676q-50 0 -89 -24t-60 -62t-31 -78.5t-10 -80.5q0 -71 34.5 -110t97.5 -39q52 0 91 25t59.5 64t30 79t9.5 79
q0 70 -34.5 108.5t-97.5 38.5zM58 0l1 4h310l-1 -4h-310z" />
    <glyph glyph-name="guillemotright" unicode="&#xbb;" horiz-adv-x="512" 
d="M304 495l114 -205v-4l-173 -204l-3 2l172 204l-114 205zM135 495l115 -205v-4l-173 -204l-3 2l172 204l-114 205z" />
    <glyph glyph-name="onequarter" unicode="&#xbc;" horiz-adv-x="874" 
d="M704 734l4 -1l-516 -800l-4 1zM192 271l57 405l-127 -71l-2 3l130 72h3l-57 -409h-4zM785 124v-4h-61l-17 -120h-4l17 120h-196v5l178 291l4 -1l-177 -291h191l19 135h4l-19 -135h61z" />
    <glyph glyph-name="onehalf" unicode="&#xbd;" horiz-adv-x="874" 
d="M704 734l4 -1l-516 -800l-4 1zM253 680l-57 -409h-4l57 405l-127 -71l-2 3l130 72h3zM696 416q49 0 71.5 -28.5t16.5 -73.5q-8 -57 -48 -105t-181 -182q-16 -15 -24 -23h220l-1 -4h-224v4q160 152 203 202t51 108q6 43 -15.5 70.5t-68.5 27.5q-62 0 -116 -52l-3 2
q56 54 119 54z" />
    <glyph glyph-name="threequarters" unicode="&#xbe;" horiz-adv-x="874" 
d="M704 734l4 -1l-516 -800l-4 1zM299 382q-7 -52 -45.5 -84.5t-91.5 -32.5q-71 0 -108 51l4 2q35 -49 104 -49q55 0 91 33t42 80q7 52 -19.5 79t-81.5 27h-23l1 4h24q42 0 75.5 25t39.5 72q6 42 -17 68t-69 26q-62 0 -111 -43l-2 3q51 44 113 44q48 0 72 -27t18 -71
q-6 -45 -36.5 -70.5t-70.5 -28.5q47 -2 72.5 -29t18.5 -79zM785 124v-4h-61l-17 -120h-4l17 120h-196v5l178 291l4 -1l-177 -291h191l19 135h4l-19 -135h61z" />
    <glyph glyph-name="questiondown" unicode="&#xbf;" horiz-adv-x="447" 
d="M254 484q-9 0 -9 9q0 8 9 8q8 0 8 -8q0 -9 -8 -9zM147 -194q-57 0 -89.5 32t-32.5 77q0 50 23.5 87t56.5 59.5t66 44t56 52t23 70.5q0 26 -10 58h4q10 -32 10 -58q0 -41 -23 -72t-56 -52t-66 -43.5t-56.5 -59.5t-23.5 -86q0 -44 31.5 -75t86.5 -31q50 0 89 18.5t82 58.5
l3 -2q-43 -41 -83 -59.5t-91 -18.5z" />
    <glyph glyph-name="Agrave" unicode="&#xc0;" horiz-adv-x="556" 
d="M435 774l-2 -4l-158 70l2 4zM482 0l-46 212h-329l-105 -212h-4l337 680h3l148 -680h-4zM109 216h326l-99 459z" />
    <glyph glyph-name="Aacute" unicode="&#xc1;" horiz-adv-x="556" 
d="M444 840l-177 -70l-1 4l176 70zM482 0l-46 212h-329l-105 -212h-4l337 680h3l148 -680h-4zM109 216h326l-99 459z" />
    <glyph glyph-name="Acircumflex" unicode="&#xc2;" horiz-adv-x="556" 
d="M358 848l-118 -78l-3 2l120 80h3l99 -80l-3 -2zM482 0l-46 212h-329l-105 -212h-4l337 680h3l148 -680h-4zM109 216h326l-99 459z" />
    <glyph glyph-name="Atilde" unicode="&#xc3;" horiz-adv-x="556" 
d="M254 837q23 20 50 20q-26 0 -50 -20zM414 813h-1q-23 0 -57 22t-52 22q18 0 52.5 -22t57.5 -22zM482 852q-29 -32 -51 -37q23 5 50 37h1zM254 837q-6 -4 -18 -16h-1q18 15 19 16zM431 815q-10 -2 -17 -2q7 0 17 2zM482 0l-46 212h-329l-105 -212h-4l337 680h3l148 -680
h-4zM109 216h326l-99 459z" />
    <glyph glyph-name="Adieresis" unicode="&#xc4;" horiz-adv-x="556" 
d="M280 804q-7 0 -7 8q0 7 8 7q7 0 7 -7q0 -8 -8 -8zM431 804q-7 0 -7 8q0 7 7 7q8 0 8 -7q-2 -8 -8 -8zM482 0l-46 212h-329l-105 -212h-4l337 680h3l148 -680h-4zM109 216h326l-99 459z" />
    <glyph glyph-name="Aring" unicode="&#xc5;" horiz-adv-x="556" 
d="M352 780q-31 0 -46 17.5t-11 46.5t24 47.5t50 18.5t44.5 -17.5t10.5 -46.5q-3 -30 -22.5 -48t-49.5 -18zM299 844q-4 -28 10 -44t43 -16q28 0 47 17.5t22 44.5q6 60 -52 60q-29 0 -47.5 -17t-22.5 -45zM482 0l-46 212h-329l-105 -212h-4l337 680h3l148 -680h-4zM109 216
h326l-99 459z" />
    <glyph glyph-name="AE" unicode="&#xc6;" horiz-adv-x="751" 
d="M705 676h-357l39 -313h265l-1 -4h-264l44 -355h235l-1 -4h-238l-25 204h-306l-108 -204h-4l358 680h363v-4zM402 208l-58 469l-246 -469h304z" />
    <glyph glyph-name="Ccedilla" unicode="&#xc7;" horiz-adv-x="531" 
d="M403 686q-67 0 -122 -29t-89 -74t-57 -104t-32 -115t-9 -110q0 -124 55.5 -191t152.5 -68h3q91 0 169 59l2 -4q-81 -59 -171 -59h-1l-14 -73q83 -2 83 -57q0 -26 -20.5 -45t-57.5 -19t-61 16l2 4q22 -16 59 -16t55.5 18.5t18.5 41.5q0 28 -20 40t-64 13l16 77
q-99 2 -155 70t-56 192q0 56 9.5 113.5t33 116.5t58 104.5t89.5 74t123 28.5q88 0 145 -57l-2 -3q-29 28 -60.5 42t-82.5 14z" />
    <glyph glyph-name="Egrave" unicode="&#xc8;" horiz-adv-x="495" 
d="M283 844l158 -70l-2 -4l-158 70zM495 680l-1 -4h-302l-44 -313h260v-4h-260l-50 -355h312v-4h-317l95 680h307z" />
    <glyph glyph-name="Eacute" unicode="&#xc9;" horiz-adv-x="495" 
d="M448 844l2 -4l-177 -70l-1 4zM495 680l-1 -4h-302l-44 -313h260v-4h-260l-50 -355h312v-4h-317l95 680h307z" />
    <glyph glyph-name="Ecircumflex" unicode="&#xca;" horiz-adv-x="495" 
d="M462 770l-98 78l-118 -78l-3 2l120 80h3l99 -80zM495 680l-1 -4h-302l-44 -313h260v-4h-260l-50 -355h312v-4h-317l95 680h307z" />
    <glyph glyph-name="Edieresis" unicode="&#xcb;" horiz-adv-x="495" 
d="M287 819q7 0 7 -7q0 -8 -8 -8q-7 0 -7 8q0 7 8 7zM437 819q8 0 8 -7q-2 -8 -8 -8q-7 0 -7 8q0 7 7 7zM495 680l-1 -4h-302l-44 -313h260v-4h-260l-50 -355h312v-4h-317l95 680h307z" />
    <glyph glyph-name="Igrave" unicode="&#xcc;" horiz-adv-x="263" 
d="M130 844l158 -70l-2 -4l-158 70zM192 680l-95 -680h-4l95 680h4z" />
    <glyph glyph-name="Iacute" unicode="&#xcd;" horiz-adv-x="263" 
d="M295 844l2 -4l-177 -70l-1 4zM192 680l-95 -680h-4l95 680h4z" />
    <glyph glyph-name="Icircumflex" unicode="&#xce;" horiz-adv-x="263" 
d="M309 770l-98 78l-118 -78l-3 2l120 80h3l99 -80zM192 680l-95 -680h-4l95 680h4z" />
    <glyph glyph-name="Idieresis" unicode="&#xcf;" horiz-adv-x="263" 
d="M134 819q7 0 7 -7q0 -8 -8 -8q-7 0 -7 8q0 7 8 7zM284 819q8 0 8 -7q-2 -8 -8 -8q-7 0 -7 8q0 7 7 7zM192 680l-95 -680h-4l95 680h4z" />
    <glyph glyph-name="Eth" unicode="&#xd0;" horiz-adv-x="606" 
d="M286 680q53 0 94.5 -10.5t79.5 -35.5t59 -75t21 -123q0 -64 -10.5 -124t-36.5 -117.5t-64 -100t-97.5 -68.5t-133.5 -26h-113l49 351h-91v4h92l45 325h106zM198 4q73 0 132 26t96.5 68t63 99t36 116.5t10.5 122.5q0 71 -20.5 120.5t-58 74.5t-78.5 35t-93 10h-102
l-45 -321h197v-4h-197l-49 -347h108z" />
    <glyph glyph-name="Ntilde" unicode="&#xd1;" horiz-adv-x="655" 
d="M308 837q23 20 50 20q-26 0 -50 -20zM468 813h-1q-23 0 -57 22t-52 22q18 0 52.5 -22t57.5 -22zM536 852q-29 -32 -51 -37q23 5 50 37h1zM308 837q-6 -4 -18 -16h-1q17 15 19 16zM485 815q-10 -2 -17 -2q7 0 17 2zM580 680h4l-95 -680h-5l-292 675l-16 -113l-79 -562h-4
l95 680h6l292 -674q8 56 19 137z" />
    <glyph glyph-name="Ograve" unicode="&#xd2;" horiz-adv-x="687" 
d="M341 844l158 -70l-2 -4l-158 70zM403 690q104 0 161.5 -68t57.5 -193q0 -55 -9 -111t-32 -116t-57.5 -106t-91 -75.5t-126.5 -29.5q-103 0 -160 68.5t-57 192.5q0 53 10 110t33.5 116.5t58.5 106t90 76t122 29.5zM403 686q-67 0 -121 -29.5t-88.5 -75.5t-58 -105
t-33 -115t-9.5 -109q0 -123 56 -190t157 -67q70 0 125.5 29.5t89.5 75t56.5 105t31.5 115t9 109.5q0 123 -56.5 190t-158.5 67z" />
    <glyph glyph-name="Oacute" unicode="&#xd3;" horiz-adv-x="687" 
d="M506 844l2 -4l-177 -70l-1 4zM403 690q104 0 161.5 -68t57.5 -193q0 -55 -9 -111t-32 -116t-57.5 -106t-91 -75.5t-126.5 -29.5q-103 0 -160 68.5t-57 192.5q0 53 10 110t33.5 116.5t58.5 106t90 76t122 29.5zM403 686q-67 0 -121 -29.5t-88.5 -75.5t-58 -105t-33 -115
t-9.5 -109q0 -123 56 -190t157 -67q70 0 125.5 29.5t89.5 75t56.5 105t31.5 115t9 109.5q0 123 -56.5 190t-158.5 67z" />
    <glyph glyph-name="Ocircumflex" unicode="&#xd4;" horiz-adv-x="687" 
d="M520 770l-98 78l-118 -78l-3 2l120 80h3l99 -80zM403 690q104 0 161.5 -68t57.5 -193q0 -55 -9 -111t-32 -116t-57.5 -106t-91 -75.5t-126.5 -29.5q-103 0 -160 68.5t-57 192.5q0 53 10 110t33.5 116.5t58.5 106t90 76t122 29.5zM403 686q-67 0 -121 -29.5t-88.5 -75.5
t-58 -105t-33 -115t-9.5 -109q0 -123 56 -190t157 -67q70 0 125.5 29.5t89.5 75t56.5 105t31.5 115t9 109.5q0 123 -56.5 190t-158.5 67z" />
    <glyph glyph-name="Otilde" unicode="&#xd5;" horiz-adv-x="687" 
d="M318 837q23 20 50 20q-26 0 -50 -20zM478 813h-1q-23 0 -57 22t-52 22q18 0 52.5 -22t57.5 -22zM546 852q-29 -32 -51 -37q23 5 50 37h1zM318 837q-6 -4 -18 -16h-1q17 15 19 16zM495 815q-10 -2 -17 -2q7 0 17 2zM403 690q104 0 161.5 -68t57.5 -193q0 -55 -9 -111
t-32 -116t-57.5 -106t-91 -75.5t-126.5 -29.5q-103 0 -160 68.5t-57 192.5q0 53 10 110t33.5 116.5t58.5 106t90 76t122 29.5zM306 -5q70 0 125.5 29.5t89.5 75t56.5 105t31.5 115t9 109.5q0 123 -56.5 190t-158.5 67q-67 0 -121 -29.5t-88.5 -75.5t-58 -105t-33 -115
t-9.5 -109q0 -123 56 -190t157 -67z" />
    <glyph glyph-name="Odieresis" unicode="&#xd6;" horiz-adv-x="687" 
d="M345 819q7 0 7 -7q0 -8 -8 -8q-7 0 -7 8q0 7 8 7zM495 819q8 0 8 -7q-2 -8 -8 -8q-7 0 -7 8q0 7 7 7zM403 690q104 0 161.5 -68t57.5 -193q0 -55 -9 -111t-32 -116t-57.5 -106t-91 -75.5t-126.5 -29.5q-103 0 -160 68.5t-57 192.5q0 53 10 110t33.5 116.5t58.5 106t90 76
t122 29.5zM403 686q-67 0 -121 -29.5t-88.5 -75.5t-58 -105t-33 -115t-9.5 -109q0 -123 56 -190t157 -67q70 0 125.5 29.5t89.5 75t56.5 105t31.5 115t9 109.5q0 123 -56.5 190t-158.5 67z" />
    <glyph glyph-name="multiply" unicode="&#xd7;" horiz-adv-x="479" 
d="M396 445l3 -2l-149 -135l112 -136l-3 -2l-113 135l-150 -135l-4 2l151 136l-114 135l4 2l113 -135z" />
    <glyph glyph-name="Oslash" unicode="&#xd8;" horiz-adv-x="687" 
d="M499 671q123 -54 123 -242q0 -55 -9 -111t-32 -116t-57.5 -106t-91 -75.5t-126.5 -29.5q-50 0 -92 17l-49 -112l-4 2l50 112q-122 56 -122 242q0 53 10 110t33.5 116.5t58.5 106t90 76t122 29.5q51 0 93 -17l51 115l2 -1zM93 253q0 -184 119 -239l282 655q-37 17 -91 17
q-66 0 -120.5 -29.5t-89 -76t-58 -105.5t-33 -114.5t-9.5 -107.5zM306 -5q70 0 125.5 29.5t89.5 75.5t56.5 105.5t31.5 115t9 108.5q0 184 -120 239l-282 -656q40 -17 90 -17z" />
    <glyph glyph-name="Ugrave" unicode="&#xd9;" horiz-adv-x="636" 
d="M317 844l158 -70l-2 -4l-158 70zM575 680l-67 -474q-13 -99 -68.5 -157t-158.5 -58q-197 0 -169 215l67 474h4l-67 -474q-13 -98 25.5 -154.5t139.5 -56.5t155.5 57t67.5 154l67 474h4z" />
    <glyph glyph-name="Uacute" unicode="&#xda;" horiz-adv-x="636" 
d="M482 844l2 -4l-177 -70l-1 4zM575 680l-67 -474q-13 -99 -68.5 -157t-158.5 -58q-197 0 -169 215l67 474h4l-67 -474q-13 -98 25.5 -154.5t139.5 -56.5t155.5 57t67.5 154l67 474h4z" />
    <glyph glyph-name="Ucircumflex" unicode="&#xdb;" horiz-adv-x="636" 
d="M496 770l-98 78l-118 -78l-3 2l120 80h3l99 -80zM575 680l-67 -474q-13 -99 -68.5 -157t-158.5 -58q-197 0 -169 215l67 474h4l-67 -474q-13 -98 25.5 -154.5t139.5 -56.5t155.5 57t67.5 154l67 474h4z" />
    <glyph glyph-name="Udieresis" unicode="&#xdc;" horiz-adv-x="636" 
d="M321 819q7 0 7 -7q0 -8 -8 -8q-7 0 -7 8q0 7 8 7zM471 819q8 0 8 -7q-2 -8 -8 -8q-7 0 -7 8q0 7 7 7zM575 680l-67 -474q-13 -99 -68.5 -157t-158.5 -58q-197 0 -169 215l67 474h4l-67 -474q-13 -98 25.5 -154.5t139.5 -56.5t155.5 57t67.5 154l67 474h4z" />
    <glyph glyph-name="Yacute" unicode="&#xdd;" horiz-adv-x="481" 
d="M405 844l2 -4l-177 -70l-1 4zM515 680l-271 -409l-37 -271h-4l37 271l-156 409h4l154 -405l268 405h5z" />
    <glyph glyph-name="Thorn" unicode="&#xde;" horiz-adv-x="553" 
d="M294 550q108 0 159 -38.5t51 -128.5q0 -45 -13 -83.5t-42 -72.5t-83.5 -54t-130.5 -20h-116l-22 -153h-4l95 680h4l-18 -130h120zM235 157q76 0 130 19.5t82 54t40.5 71.5t12.5 81q0 88 -50.5 126t-156.5 38h-119l-55 -390h116z" />
    <glyph glyph-name="germandbls" unicode="&#xdf;" horiz-adv-x="570" 
d="M332 411q0 -22 16.5 -42t40 -38.5t47.5 -41t40 -58.5t16 -80q0 -25 -9 -51.5t-26.5 -52t-49.5 -41.5t-74 -16q-64 0 -107 28l2 3q40 -27 105 -27q41 0 72.5 16t48.5 40.5t25.5 50.5t8.5 50q0 44 -16.5 79t-40 57.5t-47 41t-40 39.5t-16.5 43q0 23 15 42.5t37 35t44 33
t37 45.5t15 64q0 43 -31 71t-86 28q-74 0 -126.5 -50t-64.5 -139l-76 -540q-12 -86 -39 -124.5t-87 -67.5l-2 2q59 29 86 67.5t39 123.5l75 539q13 90 66.5 141t128.5 51q56 0 88.5 -28.5t32.5 -73.5q0 -36 -15 -64.5t-37 -46t-44 -33t-37 -34.5t-15 -42z" />
    <glyph glyph-name="agrave" unicode="&#xe0;" horiz-adv-x="540" 
d="M295 748l156 -84l-2 -3l-156 82zM336 527q70 0 127 -40l-56 -367q-5 -35 -5 -55q0 -56 42 -71l-2 -3q-25 9 -35.5 30t-8.5 44.5t4 48.5q-33 -60 -79 -91.5t-96 -31.5q-72 0 -113 53.5t-41 139.5q0 57 14 114t43 110t82.5 86t123.5 33zM336 524q-56 0 -101.5 -22t-74 -57
t-48 -80.5t-27.5 -90.5t-8 -90q0 -85 40 -137t110 -52q50 0 96.5 32t80.5 95l55 363q-55 39 -123 39z" />
    <glyph glyph-name="aacute" unicode="&#xe1;" horiz-adv-x="540" 
d="M451 748l2 -5l-180 -82l-1 4zM336 527q70 0 127 -40l-56 -367q-5 -35 -5 -55q0 -56 42 -71l-2 -3q-25 9 -35.5 30t-8.5 44.5t4 48.5q-33 -60 -79 -91.5t-96 -31.5q-72 0 -113 53.5t-41 139.5q0 57 14 114t43 110t82.5 86t123.5 33zM336 524q-56 0 -101.5 -22t-74 -57
t-48 -80.5t-27.5 -90.5t-8 -90q0 -85 40 -137t110 -52q50 0 96.5 32t80.5 95l55 363q-55 39 -123 39z" />
    <glyph glyph-name="acircumflex" unicode="&#xe2;" horiz-adv-x="540" 
d="M248 659l-3 3l122 85h3l96 -85l-2 -3l-95 84zM336 527q70 0 127 -40l-56 -367q-5 -35 -5 -55q0 -56 42 -71l-2 -3q-25 9 -35.5 30t-8.5 44.5t4 48.5q-33 -60 -79 -91.5t-96 -31.5q-72 0 -113 53.5t-41 139.5q0 57 14 114t43 110t82.5 86t123.5 33zM336 524
q-56 0 -101.5 -22t-74 -57t-48 -80.5t-27.5 -90.5t-8 -90q0 -85 40 -137t110 -52q50 0 96.5 32t80.5 95l55 363q-55 39 -123 39z" />
    <glyph glyph-name="atilde" unicode="&#xe3;" horiz-adv-x="540" 
d="M240 695h-1q39 36 69 36q-32 0 -68 -36zM417 687q-23 0 -57 22t-52 22q18 0 52.5 -22t56.5 -22zM485 726h1q-35 -39 -69 -39q35 0 68 39zM463 487l-56 -367q-5 -35 -5 -55q0 -56 42 -71l-2 -3q-25 9 -35.5 30t-8.5 44.5t4 48.5q-33 -60 -79 -91.5t-96 -31.5
q-72 0 -113 53.5t-41 139.5q0 57 14 114t43 110t82.5 86t123.5 33t127 -40zM227 -5q50 0 96.5 32t80.5 95l55 363q-55 39 -123 39q-56 0 -101.5 -22t-74 -57t-48 -80.5t-27.5 -90.5t-8 -90q0 -85 40 -137t110 -52z" />
    <glyph glyph-name="adieresis" unicode="&#xe4;" horiz-adv-x="540" 
d="M285 693q7 0 7 -7q0 -8 -8 -8q-7 0 -7 8q0 7 8 7zM435 693q8 0 8 -7q-2 -8 -8 -8q-7 0 -7 8q0 7 7 7zM336 527q70 0 127 -40l-56 -367q-5 -35 -5 -55q0 -56 42 -71l-2 -3q-25 9 -35.5 30t-8.5 44.5t4 48.5q-33 -60 -79 -91.5t-96 -31.5q-72 0 -113 53.5t-41 139.5
q0 57 14 114t43 110t82.5 86t123.5 33zM336 524q-56 0 -101.5 -22t-74 -57t-48 -80.5t-27.5 -90.5t-8 -90q0 -85 40 -137t110 -52q50 0 96.5 32t80.5 95l55 363q-55 39 -123 39z" />
    <glyph glyph-name="aring" unicode="&#xe5;" horiz-adv-x="540" 
d="M373 784q30 0 44.5 -17.5t10.5 -46.5q-3 -30 -22.5 -48t-49.5 -18q-31 0 -46 17.5t-11 46.5t24 47.5t50 18.5zM373 780q-29 0 -47.5 -17t-22.5 -45t10 -44t43 -16q28 0 47 17.5t22 44.5q6 60 -52 60zM336 527q70 0 127 -40l-56 -367q-5 -35 -5 -55q0 -56 42 -71l-2 -3
q-25 9 -35.5 30t-8.5 44.5t4 48.5q-33 -60 -79 -91.5t-96 -31.5q-72 0 -113 53.5t-41 139.5q0 57 14 114t43 110t82.5 86t123.5 33zM336 524q-56 0 -101.5 -22t-74 -57t-48 -80.5t-27.5 -90.5t-8 -90q0 -85 40 -137t110 -52q50 0 96.5 32t80.5 95l55 363q-55 39 -123 39z
" />
    <glyph glyph-name="ae" unicode="&#xe6;" horiz-adv-x="837" 
d="M296 527q57 0 97 -36t42 -107q64 143 207 143q60 0 100.5 -30t40.5 -83q0 -84 -95.5 -135.5t-291.5 -60.5q-2 -38 4 -74t22 -71t50.5 -56.5t83.5 -21.5q80 0 161 59l2 -4q-81 -59 -163 -59q-126 0 -156 131q-52 -70 -100.5 -100.5t-111.5 -30.5t-97.5 35.5t-34.5 92.5
q0 77 55 126.5t170 49.5h123q10 44 27 83q-1 72 -39.5 108.5t-95.5 36.5q-64 0 -152 -33l-1 3q86 34 153 34zM642 523q-55 0 -99.5 -24t-69.5 -57.5t-43 -78.5t-24.5 -77.5t-9.5 -64.5q194 10 288 60.5t94 132.5q0 51 -39 80t-97 29zM403 292h-122q-113 0 -167 -48.5
t-54 -124.5q0 -56 33 -90t95 -34q63 0 110 31t100 100q-16 71 5 166z" />
    <glyph glyph-name="ccedilla" unicode="&#xe7;" horiz-adv-x="468" 
d="M319 527q75 0 123 -50l-3 -2q-47 48 -120 48q-76 0 -132 -48.5t-82 -121.5t-26 -159q0 -96 44.5 -147.5t119.5 -51.5q74 0 140 51l2 -2q-65 -53 -142 -53h-2l-14 -74q83 -2 83 -57q0 -26 -20.5 -45t-57.5 -19t-61 16l2 4q22 -16 59 -16t55.5 18.5t18.5 41.5q0 28 -20 40
t-64 13l16 78q-75 2 -119 54.5t-44 148.5q0 136 65 234.5t179 98.5z" />
    <glyph glyph-name="egrave" unicode="&#xe8;" horiz-adv-x="520" 
d="M423 664l-2 -3l-156 82l2 5zM466 414q0 -84 -95.5 -135.5t-291.5 -60.5q0 -5 -0.5 -14t-0.5 -13q0 -95 42.5 -145.5t118.5 -50.5q80 0 161 59l2 -4q-81 -59 -163 -59q-77 0 -121 52t-44 148q0 39 7.5 81.5t26 89t46 82.5t72 59.5t99.5 23.5q60 0 100.5 -30t40.5 -83z
M325 523q-61 0 -109 -29t-75.5 -76.5t-42.5 -96.5t-19 -100q195 10 289 60.5t94 132.5q0 51 -39.5 80t-97.5 29z" />
    <glyph glyph-name="eacute" unicode="&#xe9;" horiz-adv-x="520" 
d="M425 743l-180 -82l-1 4l179 83zM466 414q0 -84 -95.5 -135.5t-291.5 -60.5q0 -5 -0.5 -14t-0.5 -13q0 -95 42.5 -145.5t118.5 -50.5q80 0 161 59l2 -4q-81 -59 -163 -59q-77 0 -121 52t-44 148q0 39 7.5 81.5t26 89t46 82.5t72 59.5t99.5 23.5q60 0 100.5 -30t40.5 -83z
M325 523q-61 0 -109 -29t-75.5 -76.5t-42.5 -96.5t-19 -100q195 10 289 60.5t94 132.5q0 51 -39.5 80t-97.5 29z" />
    <glyph glyph-name="ecircumflex" unicode="&#xea;" horiz-adv-x="520" 
d="M341 743l-121 -84l-3 3l122 85h3l96 -85l-2 -3zM466 414q0 -84 -95.5 -135.5t-291.5 -60.5q0 -5 -0.5 -14t-0.5 -13q0 -95 42.5 -145.5t118.5 -50.5q80 0 161 59l2 -4q-81 -59 -163 -59q-77 0 -121 52t-44 148q0 39 7.5 81.5t26 89t46 82.5t72 59.5t99.5 23.5
q60 0 100.5 -30t40.5 -83zM325 523q-61 0 -109 -29t-75.5 -76.5t-42.5 -96.5t-19 -100q195 10 289 60.5t94 132.5q0 51 -39.5 80t-97.5 29z" />
    <glyph glyph-name="edieresis" unicode="&#xeb;" horiz-adv-x="520" 
d="M256 678q-7 0 -7 8q0 7 8 7q7 0 7 -7q0 -8 -8 -8zM407 678q-7 0 -7 8q0 7 7 7q8 0 8 -7q-2 -8 -8 -8zM466 414q0 -84 -95.5 -135.5t-291.5 -60.5q0 -5 -0.5 -14t-0.5 -13q0 -95 42.5 -145.5t118.5 -50.5q80 0 161 59l2 -4q-81 -59 -163 -59q-77 0 -121 52t-44 148
q0 39 7.5 81.5t26 89t46 82.5t72 59.5t99.5 23.5q60 0 100.5 -30t40.5 -83zM325 523q-61 0 -109 -29t-75.5 -76.5t-42.5 -96.5t-19 -100q195 10 289 60.5t94 132.5q0 51 -39.5 80t-97.5 29z" />
    <glyph glyph-name="igrave" unicode="&#xec;" horiz-adv-x="253" 
d="M122 748l156 -84l-2 -3l-156 82zM164 517l-72 -517h-4l72 517h4z" />
    <glyph glyph-name="iacute" unicode="&#xed;" horiz-adv-x="253" 
d="M278 748l2 -5l-180 -82l-1 4zM164 517l-72 -517h-4l72 517h4z" />
    <glyph glyph-name="icircumflex" unicode="&#xee;" horiz-adv-x="253" 
d="M74 659l-3 3l122 85h3l96 -85l-2 -3l-95 84zM164 517l-72 -517h-4l72 517h4z" />
    <glyph glyph-name="idieresis" unicode="&#xef;" horiz-adv-x="253" 
d="M111 693q7 0 7 -7q0 -8 -8 -8q-7 0 -7 8q0 7 8 7zM261 693q8 0 8 -7q-2 -8 -8 -8q-7 0 -7 8q0 7 7 7zM164 517l-72 -517h-4l72 517h4z" />
    <glyph glyph-name="eth" unicode="&#xf0;" horiz-adv-x="540" 
d="M356 670q114 -91 114 -262q0 -42 -6 -88q-46 -329 -237 -329q-75 0 -116 49.5t-41 133.5q0 43 12 89.5t36.5 91.5t68.5 73.5t100 28.5q112 0 175 -117q22 226 -110 327l-100 -92l-3 2l100 92q-54 42 -133 62l2 3q75 -17 135 -62l72 66l3 -2zM227 -5q174 0 225 281
q7 40 9 58q-63 120 -174 120q-55 0 -98.5 -28.5t-67 -72.5t-35.5 -90t-12 -89q0 -83 40 -131t113 -48z" />
    <glyph glyph-name="ntilde" unicode="&#xf1;" horiz-adv-x="580" 
d="M302 731q-32 0 -68 -36h-1q39 36 69 36zM302 731q18 0 52.5 -22t56.5 -22q-23 0 -57 22t-52 22zM480 726q-35 -39 -69 -39q35 0 68 39h1zM368 527q64 0 91.5 -41.5t17.5 -117.5l-52 -368h-4l52 368q10 75 -16 115.5t-89 40.5q-68 0 -123 -46t-107 -150l-46 -328h-4
l72 517h4l-24 -180q50 100 105.5 145t122.5 45z" />
    <glyph glyph-name="ograve" unicode="&#xf2;" horiz-adv-x="559" 
d="M275 748l156 -84l-2 -3l-156 82zM318 527q79 0 123 -52t44 -147q0 -53 -12.5 -108t-39 -108.5t-76 -87t-115.5 -33.5q-80 0 -124 53t-44 148q0 54 13 109t40 107.5t76.5 85.5t114.5 33zM318 523q-52 0 -94 -22t-68.5 -56.5t-44.5 -79.5t-25.5 -88t-7.5 -85
q0 -94 43 -145.5t121 -51.5q65 0 113.5 33t74.5 86t38.5 107t12.5 107q0 93 -42.5 144t-120.5 51z" />
    <glyph glyph-name="oacute" unicode="&#xf3;" horiz-adv-x="559" 
d="M431 748l2 -5l-180 -82l-1 4zM318 527q79 0 123 -52t44 -147q0 -53 -12.5 -108t-39 -108.5t-76 -87t-115.5 -33.5q-80 0 -124 53t-44 148q0 54 13 109t40 107.5t76.5 85.5t114.5 33zM318 523q-52 0 -94 -22t-68.5 -56.5t-44.5 -79.5t-25.5 -88t-7.5 -85q0 -94 43 -145.5
t121 -51.5q65 0 113.5 33t74.5 86t38.5 107t12.5 107q0 93 -42.5 144t-120.5 51z" />
    <glyph glyph-name="ocircumflex" unicode="&#xf4;" horiz-adv-x="559" 
d="M228 659l-3 3l122 85h3l96 -85l-2 -3l-95 84zM318 527q79 0 123 -52t44 -147q0 -53 -12.5 -108t-39 -108.5t-76 -87t-115.5 -33.5q-80 0 -124 53t-44 148q0 54 13 109t40 107.5t76.5 85.5t114.5 33zM318 523q-52 0 -94 -22t-68.5 -56.5t-44.5 -79.5t-25.5 -88t-7.5 -85
q0 -94 43 -145.5t121 -51.5q65 0 113.5 33t74.5 86t38.5 107t12.5 107q0 93 -42.5 144t-120.5 51z" />
    <glyph glyph-name="otilde" unicode="&#xf5;" horiz-adv-x="559" 
d="M288 731q-32 0 -68 -36h-1q39 36 69 36zM288 731q18 0 52.5 -22t56.5 -22q-23 0 -57 22t-52 22zM466 726q-35 -39 -69 -39q35 0 68 39h1zM318 527q79 0 123 -52t44 -147q0 -53 -12.5 -108t-39 -108.5t-76 -87t-115.5 -33.5q-80 0 -124 53t-44 148q0 54 13 109t40 107.5
t76.5 85.5t114.5 33zM242 -5q65 0 113.5 33t74.5 86t38.5 107t12.5 107q0 93 -42.5 144t-120.5 51q-52 0 -94 -22t-68.5 -56.5t-44.5 -79.5t-25.5 -88t-7.5 -85q0 -94 43 -145.5t121 -51.5z" />
    <glyph glyph-name="odieresis" unicode="&#xf6;" horiz-adv-x="559" 
d="M265 693q7 0 7 -7q0 -8 -8 -8q-7 0 -7 8q0 7 8 7zM415 693q8 0 8 -7q-2 -8 -8 -8q-7 0 -7 8q0 7 7 7zM318 527q79 0 123 -52t44 -147q0 -53 -12.5 -108t-39 -108.5t-76 -87t-115.5 -33.5q-80 0 -124 53t-44 148q0 54 13 109t40 107.5t76.5 85.5t114.5 33zM318 523
q-52 0 -94 -22t-68.5 -56.5t-44.5 -79.5t-25.5 -88t-7.5 -85q0 -94 43 -145.5t121 -51.5q65 0 113.5 33t74.5 86t38.5 107t12.5 107q0 93 -42.5 144t-120.5 51z" />
    <glyph glyph-name="divide" unicode="&#xf7;" horiz-adv-x="479" 
d="M276 539q8 0 8 -9t-9 -9q-8 0 -8 9t9 9zM94 329l1 4h311l-2 -4h-310zM220 141q9 0 9 -9t-9 -9q-8 0 -8 9t8 9z" />
    <glyph glyph-name="oslash" unicode="&#xf8;" horiz-adv-x="559" 
d="M107 -113l-4 1l57 121q-86 47 -86 183q0 54 13 109t40 107.5t76.5 85.5t114.5 33q41 0 78 -15l56 119l3 -1l-56 -120q86 -45 86 -182q0 -53 -12.5 -108t-39 -108.5t-76 -87t-115.5 -33.5q-42 0 -78 17zM162 13l232 495q-33 15 -76 15q-52 0 -94 -22t-68.5 -56.5
t-44.5 -79.5t-25.5 -88t-7.5 -85q0 -134 84 -179zM242 -5q65 0 113.5 33t74.5 86t38.5 107t12.5 107q0 133 -84 178l-232 -495q35 -16 77 -16z" />
    <glyph glyph-name="ugrave" unicode="&#xf9;" horiz-adv-x="574" 
d="M279 748l156 -84l-2 -3l-156 82zM486 517l-72 -517h-4l24 167q-37 -85 -92 -130.5t-120 -45.5q-66 0 -97.5 41t-21.5 118l51 367h4l-51 -367q-10 -75 20.5 -115t95.5 -40t119 46t92 133l48 343h4z" />
    <glyph glyph-name="uacute" unicode="&#xfa;" horiz-adv-x="574" 
d="M435 748l2 -5l-180 -82l-1 4zM486 517l-72 -517h-4l24 167q-37 -85 -92 -130.5t-120 -45.5q-66 0 -97.5 41t-21.5 118l51 367h4l-51 -367q-10 -75 20.5 -115t95.5 -40t119 46t92 133l48 343h4z" />
    <glyph glyph-name="ucircumflex" unicode="&#xfb;" horiz-adv-x="574" 
d="M232 659l-3 3l122 85h3l96 -85l-2 -3l-95 84zM486 517l-72 -517h-4l24 167q-37 -85 -92 -130.5t-120 -45.5q-66 0 -97.5 41t-21.5 118l51 367h4l-51 -367q-10 -75 20.5 -115t95.5 -40t119 46t92 133l48 343h4z" />
    <glyph glyph-name="udieresis" unicode="&#xfc;" horiz-adv-x="574" 
d="M269 693q7 0 7 -7q0 -8 -8 -8q-7 0 -7 8q0 7 8 7zM419 693q8 0 8 -7q-2 -8 -8 -8q-7 0 -7 8q0 7 7 7zM486 517l-72 -517h-4l24 167q-37 -85 -92 -130.5t-120 -45.5q-66 0 -97.5 41t-21.5 118l51 367h4l-51 -367q-10 -75 20.5 -115t95.5 -40t119 46t92 133l48 343h4z" />
    <glyph glyph-name="yacute" unicode="&#xfd;" horiz-adv-x="435" 
d="M368 748l2 -5l-180 -82l-1 4zM442 517l-250 -517q-46 -92 -82 -130t-112 -60v4q75 21 110 58t80 128h-3l-120 517h5l118 -514l250 514h4z" />
    <glyph glyph-name="thorn" unicode="&#xfe;" horiz-adv-x="565" 
d="M341 527q72 0 109.5 -48.5t37.5 -139.5q0 -42 -8 -87t-26.5 -92.5t-45 -84.5t-68.5 -60.5t-93 -23.5q-75 0 -152 34l-30 -214l-4 -2l129 921l4 1l-43 -307q87 103 190 103zM247 -5q62 0 110 35t74.5 89t39.5 110.5t13 109.5q0 89 -36.5 136.5t-106.5 47.5
q-57 0 -101.5 -26t-88.5 -78l-55 -390q78 -34 151 -34z" />
    <glyph glyph-name="ydieresis" unicode="&#xff;" horiz-adv-x="435" 
d="M202 693q7 0 7 -7q0 -8 -8 -8q-7 0 -7 8q0 7 8 7zM352 693q8 0 8 -7q-2 -8 -8 -8q-7 0 -7 8q0 7 7 7zM442 517l-250 -517q-46 -92 -82 -130t-112 -60v4q75 21 110 58t80 128h-3l-120 517h5l118 -514l250 514h4z" />
    <glyph glyph-name="Amacron" unicode="&#x100;" horiz-adv-x="556" 
d="M452 819v-4h-192v4h192zM482 0l-46 212h-329l-105 -212h-4l337 680h3l148 -680h-4zM109 216h326l-99 459z" />
    <glyph glyph-name="amacron" unicode="&#x101;" horiz-adv-x="540" 
d="M456 689h-192v4h192v-4zM336 527q70 0 127 -40l-56 -367q-5 -35 -5 -55q0 -56 42 -71l-2 -3q-25 9 -35.5 30t-8.5 44.5t4 48.5q-33 -60 -79 -91.5t-96 -31.5q-72 0 -113 53.5t-41 139.5q0 57 14 114t43 110t82.5 86t123.5 33zM336 524q-56 0 -101.5 -22t-74 -57
t-48 -80.5t-27.5 -90.5t-8 -90q0 -85 40 -137t110 -52q50 0 96.5 32t80.5 95l55 363q-55 39 -123 39z" />
    <glyph glyph-name="Abreve" unicode="&#x102;" horiz-adv-x="556" 
d="M346 776q-37 0 -58.5 17.5t-27.5 42.5q6 -27 28.5 -43.5t57.5 -16.5zM451 836q-30 -60 -103 -60q72 0 103 60zM346 776h1h-1zM347 776h1h-1zM482 0l-46 212h-329l-105 -212h-4l337 680h3l148 -680h-4zM109 216h326l-99 459z" />
    <glyph glyph-name="abreve" unicode="&#x103;" horiz-adv-x="540" 
d="M355 666q-39 0 -61 20t-26 51l4 1q9 -68 83 -68t104 69l4 -2q-31 -71 -108 -71zM336 527q70 0 127 -40l-56 -367q-5 -35 -5 -55q0 -56 42 -71l-2 -3q-25 9 -35.5 30t-8.5 44.5t4 48.5q-33 -60 -79 -91.5t-96 -31.5q-72 0 -113 53.5t-41 139.5q0 57 14 114t43 110t82.5 86
t123.5 33zM336 524q-56 0 -101.5 -22t-74 -57t-48 -80.5t-27.5 -90.5t-8 -90q0 -85 40 -137t110 -52q50 0 96.5 32t80.5 95l55 363q-55 39 -123 39z" />
    <glyph glyph-name="Aogonek" unicode="&#x104;" horiz-adv-x="556" 
d="M334 -131q0 -60 66 -60q23 0 54 8l-1 -4q-29 -8 -54 -8q-32 0 -50.5 16t-18.5 47q0 80 151 133l-45 211h-329l-105 -212h-4l337 680h3l148 -679v-1q-152 -54 -152 -131zM109 216h326l-99 459z" />
    <glyph glyph-name="aogonek" unicode="&#x105;" horiz-adv-x="540" 
d="M402 65q0 -56 42 -71l-2 -3q-152 -54 -152 -131q0 -60 66 -60q23 0 54 8l-1 -4q-29 -8 -54 -8q-32 0 -50.5 16t-18.5 47q0 80 153 133q-32 15 -38.5 52t1.5 70q-33 -60 -79 -91.5t-96 -31.5q-72 0 -113 53.5t-41 139.5q0 57 14 114t43 110t82.5 86t123.5 33t127 -40
l-56 -367q-5 -35 -5 -55zM227 -5q50 0 96.5 32t80.5 95l55 363q-55 39 -123 39q-56 0 -101.5 -22t-74 -57t-48 -80.5t-27.5 -90.5t-8 -90q0 -85 40 -137t110 -52z" />
    <glyph glyph-name="Cacute" unicode="&#x106;" horiz-adv-x="531" 
d="M508 844l2 -4l-177 -70l-1 4zM403 690q88 0 145 -57l-2 -3q-29 28 -60.5 42t-82.5 14q-67 0 -122 -29t-89 -74t-57 -104t-32 -115t-9 -110q0 -125 56.5 -192t154.5 -67q91 0 169 59l2 -4q-81 -59 -171 -59q-100 0 -157.5 68t-57.5 194q0 56 9.5 113.5t33 116.5t58 104.5
t89.5 74t123 28.5z" />
    <glyph glyph-name="cacute" unicode="&#x107;" horiz-adv-x="468" 
d="M421 748l2 -5l-180 -82l-1 4zM319 527q75 0 123 -50l-3 -2q-47 48 -120 48q-76 0 -132 -48.5t-82 -121.5t-26 -159q0 -96 44.5 -147.5t119.5 -51.5q74 0 140 51l2 -2q-65 -53 -142 -53t-122.5 53t-45.5 150q0 136 65 234.5t179 98.5z" />
    <glyph glyph-name="Ccircumflex" unicode="&#x108;" horiz-adv-x="531" 
d="M522 770l-98 78l-118 -78l-3 2l120 80h3l99 -80zM403 690q88 0 145 -57l-2 -3q-29 28 -60.5 42t-82.5 14q-67 0 -122 -29t-89 -74t-57 -104t-32 -115t-9 -110q0 -125 56.5 -192t154.5 -67q91 0 169 59l2 -4q-81 -59 -171 -59q-100 0 -157.5 68t-57.5 194q0 56 9.5 113.5
t33 116.5t58 104.5t89.5 74t123 28.5z" />
    <glyph glyph-name="ccircumflex" unicode="&#x109;" horiz-adv-x="468" 
d="M218 659l-3 3l122 85h3l96 -85l-2 -3l-95 84zM319 527q75 0 123 -50l-3 -2q-47 48 -120 48q-76 0 -132 -48.5t-82 -121.5t-26 -159q0 -96 44.5 -147.5t119.5 -51.5q74 0 140 51l2 -2q-65 -53 -142 -53t-122.5 53t-45.5 150q0 136 65 234.5t179 98.5z" />
    <glyph glyph-name="Cdotaccent" unicode="&#x10a;" horiz-adv-x="531" 
d="M424 834q7 0 7 -8q0 -7 -8 -7q-7 0 -7 8q0 7 8 7zM403 690q88 0 145 -57l-2 -3q-29 28 -60.5 42t-82.5 14q-67 0 -122 -29t-89 -74t-57 -104t-32 -115t-9 -110q0 -125 56.5 -192t154.5 -67q91 0 169 59l2 -4q-81 -59 -171 -59q-100 0 -157.5 68t-57.5 194q0 56 9.5 113.5
t33 116.5t58 104.5t89.5 74t123 28.5z" />
    <glyph glyph-name="cdotaccent" unicode="&#x10b;" horiz-adv-x="468" 
d="M333 708q7 0 7 -8q0 -7 -8 -7q-7 0 -7 8q0 7 8 7zM319 527q75 0 123 -50l-3 -2q-47 48 -120 48q-76 0 -132 -48.5t-82 -121.5t-26 -159q0 -96 44.5 -147.5t119.5 -51.5q74 0 140 51l2 -2q-65 -53 -142 -53t-122.5 53t-45.5 150q0 136 65 234.5t179 98.5z" />
    <glyph glyph-name="Ccaron" unicode="&#x10c;" horiz-adv-x="531" 
d="M529 847l2 -2l-121 -80h-3l-97 80l3 2l96 -78zM403 690q88 0 145 -57l-2 -3q-29 28 -60.5 42t-82.5 14q-67 0 -122 -29t-89 -74t-57 -104t-32 -115t-9 -110q0 -125 56.5 -192t154.5 -67q91 0 169 59l2 -4q-81 -59 -171 -59q-100 0 -157.5 68t-57.5 194q0 56 9.5 113.5
t33 116.5t58 104.5t89.5 74t123 28.5z" />
    <glyph glyph-name="ccaron" unicode="&#x10d;" horiz-adv-x="468" 
d="M446 735l2 -3l-122 -85h-3l-96 85l3 3l95 -83zM319 527q75 0 123 -50l-3 -2q-47 48 -120 48q-76 0 -132 -48.5t-82 -121.5t-26 -159q0 -96 44.5 -147.5t119.5 -51.5q74 0 140 51l2 -2q-65 -53 -142 -53t-122.5 53t-45.5 150q0 136 65 234.5t179 98.5z" />
    <glyph glyph-name="Dcaron" unicode="&#x10e;" horiz-adv-x="614" 
d="M475 847l2 -2l-121 -80h-3l-97 80l3 2l96 -78zM294 680q53 0 94.5 -10.5t79.5 -35.5t59 -75t21 -123q0 -64 -10.5 -124t-36.5 -117.5t-64 -100t-97.5 -68.5t-133.5 -26h-113l95 680h106zM294 676h-102l-94 -672h108q73 0 132 26t96.5 68t63 99t36 116.5t10.5 122.5
q0 71 -20.5 120.5t-58 74.5t-78.5 35t-93 10z" />
    <glyph glyph-name="dcaron" unicode="&#x10f;" horiz-adv-x="571" 
d="M623 737l4 -1l-39 -137h-3zM509 731l4 -1l-102 -730h-4l21 147q-42 -73 -88 -114.5t-112 -41.5q-69 0 -109.5 50.5t-40.5 141.5q0 54 13 110.5t39 110.5t75 88.5t112 34.5q58 0 95.5 -29.5t53.5 -71.5zM317 523q-63 0 -111 -34t-73.5 -87.5t-38 -109t-12.5 -109.5
q0 -89 39.5 -138.5t106.5 -49.5q66 0 112.5 42t87.5 117l38 266q-39 103 -149 103z" />
    <glyph glyph-name="Dcroat" unicode="&#x110;" horiz-adv-x="606" 
d="M286 680q53 0 94.5 -10.5t79.5 -35.5t59 -75t21 -123q0 -64 -10.5 -124t-36.5 -117.5t-64 -100t-97.5 -68.5t-133.5 -26h-113l49 351h-91v4h92l45 325h106zM198 4q73 0 132 26t96.5 68t63 99t36 116.5t10.5 122.5q0 71 -20.5 120.5t-58 74.5t-78.5 35t-93 10h-102
l-45 -321h197v-4h-197l-49 -347h108z" />
    <glyph glyph-name="dcroat" unicode="&#x111;" horiz-adv-x="573" 
d="M575 641v-4h-75l-89 -637h-4l21 147q-42 -73 -88 -114.5t-112 -41.5q-69 0 -109.5 50.5t-40.5 141.5q0 54 13 110.5t39 110.5t75 88.5t112 34.5q58 0 95.5 -29.5t53.5 -71.5l30 211h-179v4h179l13 90l4 -1l-13 -89h75zM428 154l38 266q-39 103 -149 103q-63 0 -111 -34
t-73.5 -87.5t-38 -109t-12.5 -109.5q0 -89 39.5 -138.5t106.5 -49.5q66 0 112.5 42t87.5 117z" />
    <glyph glyph-name="Emacron" unicode="&#x112;" horiz-adv-x="495" 
d="M458 815h-192v4h192v-4zM495 680l-1 -4h-302l-44 -313h260v-4h-260l-50 -355h312v-4h-317l95 680h307z" />
    <glyph glyph-name="emacron" unicode="&#x113;" horiz-adv-x="520" 
d="M428 693v-4h-192v4h192zM466 414q0 -84 -95.5 -135.5t-291.5 -60.5q0 -5 -0.5 -14t-0.5 -13q0 -95 42.5 -145.5t118.5 -50.5q80 0 161 59l2 -4q-81 -59 -163 -59q-77 0 -121 52t-44 148q0 39 7.5 81.5t26 89t46 82.5t72 59.5t99.5 23.5q60 0 100.5 -30t40.5 -83zM325 523
q-61 0 -109 -29t-75.5 -76.5t-42.5 -96.5t-19 -100q195 10 289 60.5t94 132.5q0 51 -39.5 80t-97.5 29z" />
    <glyph glyph-name="Ebreve" unicode="&#x114;" horiz-adv-x="495" 
d="M352 776q-37 0 -58.5 17.5t-27.5 42.5q6 -27 28.5 -43.5t57.5 -16.5zM457 836q-30 -60 -103 -60q72 0 103 60zM352 776h1h-1zM353 776h1h-1zM494 676h-302l-44 -313h260v-4h-260l-50 -355h312v-4h-317l95 680h307z" />
    <glyph glyph-name="ebreve" unicode="&#x115;" horiz-adv-x="520" 
d="M327 666q-39 0 -61 20t-26 51l4 1q9 -68 83 -68t104 69l4 -2q-31 -71 -108 -71zM466 414q0 -84 -95.5 -135.5t-291.5 -60.5q0 -5 -0.5 -14t-0.5 -13q0 -95 42.5 -145.5t118.5 -50.5q80 0 161 59l2 -4q-81 -59 -163 -59q-77 0 -121 52t-44 148q0 39 7.5 81.5t26 89
t46 82.5t72 59.5t99.5 23.5q60 0 100.5 -30t40.5 -83zM325 523q-61 0 -109 -29t-75.5 -76.5t-42.5 -96.5t-19 -100q195 10 289 60.5t94 132.5q0 51 -39.5 80t-97.5 29z" />
    <glyph glyph-name="Edotaccent" unicode="&#x116;" horiz-adv-x="495" 
d="M365 834q7 0 7 -8q0 -7 -8 -7q-7 0 -7 8q0 7 8 7zM495 680l-1 -4h-302l-44 -313h260v-4h-260l-50 -355h312v-4h-317l95 680h307z" />
    <glyph glyph-name="edotaccent" unicode="&#x117;" horiz-adv-x="520" 
d="M334 693q-7 0 -7 8q0 7 8 7q7 0 7 -8q0 -7 -8 -7zM466 414q0 -84 -95.5 -135.5t-291.5 -60.5q0 -5 -0.5 -14t-0.5 -13q0 -95 42.5 -145.5t118.5 -50.5q80 0 161 59l2 -4q-81 -59 -163 -59q-77 0 -121 52t-44 148q0 39 7.5 81.5t26 89t46 82.5t72 59.5t99.5 23.5
q60 0 100.5 -30t40.5 -83zM325 523q-61 0 -109 -29t-75.5 -76.5t-42.5 -96.5t-19 -100q195 10 289 60.5t94 132.5q0 51 -39.5 80t-97.5 29z" />
    <glyph glyph-name="Eogonek" unicode="&#x118;" horiz-adv-x="495" 
d="M494 676h-302l-44 -313h260v-4h-260l-50 -355h312v-4h-30q-152 -54 -152 -131q0 -60 66 -60q23 0 54 8l-1 -4q-29 -8 -54 -8q-32 0 -50.5 16t-18.5 47q0 79 149 132h-280l95 680h307z" />
    <glyph glyph-name="eogonek" unicode="&#x119;" horiz-adv-x="520" 
d="M466 414q0 -84 -95.5 -135.5t-291.5 -60.5q0 -5 -0.5 -14t-0.5 -13q0 -95 42.5 -145.5t118.5 -50.5q80 0 161 59l2 -4q-47 -34 -89 -48q-113 -47 -113 -112q0 -34 20.5 -52.5t54.5 -18.5q24 0 53 8v-4q-29 -8 -53 -8q-36 0 -57.5 19.5t-21.5 55.5q0 63 99 107
q-25 -6 -56 -6q-77 0 -121 52t-44 148q0 39 7.5 81.5t26 89t46 82.5t72 59.5t99.5 23.5q60 0 100.5 -30t40.5 -83zM325 523q-61 0 -109 -29t-75.5 -76.5t-42.5 -96.5t-19 -100q195 10 289 60.5t94 132.5q0 51 -39.5 80t-97.5 29z" />
    <glyph glyph-name="Ecaron" unicode="&#x11a;" horiz-adv-x="495" 
d="M470 847l2 -2l-121 -80h-3l-97 80l3 2l96 -78zM495 680l-1 -4h-302l-44 -313h260v-4h-260l-50 -355h312v-4h-317l95 680h307z" />
    <glyph glyph-name="ecaron" unicode="&#x11b;" horiz-adv-x="520" 
d="M327 647h-3l-96 85l3 3l95 -83l121 83l2 -3zM466 414q0 -84 -95.5 -135.5t-291.5 -60.5q0 -5 -0.5 -14t-0.5 -13q0 -95 42.5 -145.5t118.5 -50.5q80 0 161 59l2 -4q-81 -59 -163 -59q-77 0 -121 52t-44 148q0 39 7.5 81.5t26 89t46 82.5t72 59.5t99.5 23.5
q60 0 100.5 -30t40.5 -83zM325 523q-61 0 -109 -29t-75.5 -76.5t-42.5 -96.5t-19 -100q195 10 289 60.5t94 132.5q0 51 -39.5 80t-97.5 29z" />
    <glyph glyph-name="Gcircumflex" unicode="&#x11c;" horiz-adv-x="601" 
d="M517 770l-98 78l-118 -78l-3 2l120 80h3l99 -80zM404 690q84 0 151 -55l-2 -4q-67 55 -149 55q-77 0 -138.5 -40t-97.5 -104.5t-55 -138t-19 -147.5q0 -127 58.5 -194t164.5 -67q83 0 169 46l43 298h-150v4h154l-43 -304q-90 -48 -173 -48q-107 0 -167 68.5t-60 196.5
q0 76 19.5 150.5t56.5 139t99 104.5t139 40z" />
    <glyph glyph-name="gcircumflex" unicode="&#x11d;" horiz-adv-x="550" 
d="M228 659l-3 3l122 85h3l96 -85l-2 -3l-95 84zM336 527q70 0 127 -40l-74 -497q-15 -100 -60.5 -141t-117.5 -41q-91 0 -160 46l2 4q69 -46 158 -46q70 0 115 40t59 137l21 141q-33 -64 -80.5 -97t-97.5 -33q-72 0 -112.5 55t-40.5 141q0 57 13.5 112t42.5 106t82 82
t123 31zM336 524q-69 0 -121.5 -31t-80.5 -81.5t-41.5 -104.5t-13.5 -111q0 -85 39.5 -138.5t109.5 -53.5q108 0 179 135l52 346q-55 39 -123 39z" />
    <glyph glyph-name="Gbreve" unicode="&#x11e;" horiz-adv-x="601" 
d="M406 776q-37 0 -58.5 17.5t-27.5 42.5q6 -27 28.5 -43.5t57.5 -16.5zM511 836q-30 -60 -103 -60q72 0 103 60zM406 776h1h-1zM407 776h1h-1zM404 686q-77 0 -138.5 -40t-97.5 -104.5t-55 -138t-19 -147.5q0 -127 58.5 -194t164.5 -67q83 0 169 46l43 298h-150v4h154
l-43 -304q-90 -48 -173 -48q-107 0 -167 68.5t-60 196.5q0 76 19.5 150.5t56.5 139t99 104.5t139 40q84 0 151 -55l-2 -4q-67 55 -149 55z" />
    <glyph glyph-name="gbreve" unicode="&#x11f;" horiz-adv-x="550" 
d="M335 666q-39 0 -61 20t-26 51l4 1q9 -68 83 -68t104 69l4 -2q-31 -71 -108 -71zM336 527q70 0 127 -40l-74 -497q-15 -100 -60.5 -141t-117.5 -41q-91 0 -160 46l2 4q69 -46 158 -46q70 0 115 40t59 137l21 141q-33 -64 -80.5 -97t-97.5 -33q-72 0 -112.5 55t-40.5 141
q0 57 13.5 112t42.5 106t82 82t123 31zM336 524q-69 0 -121.5 -31t-80.5 -81.5t-41.5 -104.5t-13.5 -111q0 -85 39.5 -138.5t109.5 -53.5q108 0 179 135l52 346q-55 39 -123 39z" />
    <glyph glyph-name="Gdotaccent" unicode="&#x120;" horiz-adv-x="601" 
d="M419 834q7 0 7 -8q0 -7 -8 -7q-7 0 -7 8q0 7 8 7zM404 690q84 0 151 -55l-2 -4q-67 55 -149 55q-77 0 -138.5 -40t-97.5 -104.5t-55 -138t-19 -147.5q0 -127 58.5 -194t164.5 -67q83 0 169 46l43 298h-150v4h154l-43 -304q-90 -48 -173 -48q-107 0 -167 68.5t-60 196.5
q0 76 19.5 150.5t56.5 139t99 104.5t139 40z" />
    <glyph glyph-name="gdotaccent" unicode="&#x121;" horiz-adv-x="550" 
d="M342 708q7 0 7 -8q0 -7 -8 -7q-7 0 -7 8q0 7 8 7zM336 527q70 0 127 -40l-74 -497q-15 -100 -60.5 -141t-117.5 -41q-91 0 -160 46l2 4q69 -46 158 -46q70 0 115 40t59 137l21 141q-33 -64 -80.5 -97t-97.5 -33q-72 0 -112.5 55t-40.5 141q0 57 13.5 112t42.5 106t82 82
t123 31zM336 524q-69 0 -121.5 -31t-80.5 -81.5t-41.5 -104.5t-13.5 -111q0 -85 39.5 -138.5t109.5 -53.5q108 0 179 135l52 346q-55 39 -123 39z" />
    <glyph glyph-name="Gcommaaccent" unicode="&#x122;" horiz-adv-x="601" 
d="M404 690q84 0 151 -55l-2 -4q-67 55 -149 55q-77 0 -138.5 -40t-97.5 -104.5t-55 -138t-19 -147.5q0 -127 58.5 -194t164.5 -67q83 0 169 46l43 298h-150v4h154l-43 -304q-90 -48 -173 -48q-107 0 -167 68.5t-60 196.5q0 76 19.5 150.5t56.5 139t99 104.5t139 40z
M288 -106q7 0 7 -7q0 -1 -5 -14l-41 -114h-2l40 121q-6 2 -6 7q0 7 7 7z" />
    <glyph glyph-name="gcommaaccent" unicode="&#x123;" horiz-adv-x="550" 
d="M328 597q-6 0 -6 7q0 3 4 14l41 114h2l-40 -121q6 -1 6 -7q0 -7 -7 -7zM336 527q70 0 127 -40l-74 -497q-15 -100 -60.5 -141t-117.5 -41q-91 0 -160 46l2 4q69 -46 158 -46q70 0 115 40t59 137l21 141q-33 -64 -80.5 -97t-97.5 -33q-72 0 -112.5 55t-40.5 141
q0 57 13.5 112t42.5 106t82 82t123 31zM336 524q-69 0 -121.5 -31t-80.5 -81.5t-41.5 -104.5t-13.5 -111q0 -85 39.5 -138.5t109.5 -53.5q108 0 179 135l52 346q-55 39 -123 39z" />
    <glyph glyph-name="Hcircumflex" unicode="&#x124;" horiz-adv-x="655" 
d="M504 770l-98 78l-118 -78l-3 2l120 80h3l99 -80zM485 0l51 364h-388l-51 -364h-4l95 680h4l-44 -312h388l44 312h4l-95 -680h-4z" />
    <glyph glyph-name="hcircumflex" unicode="&#x125;" horiz-adv-x="580" 
d="M443 817l-98 78l-118 -78l-3 2l120 80h3l99 -80zM365 527q133 0 112 -159l-52 -368h-4l52 368q21 156 -108 156q-66 0 -120.5 -46.5t-106.5 -149.5l-46 -328h-4l102 730l4 1l-54 -394q94 190 225 190z" />
    <glyph glyph-name="Hbar" unicode="&#x126;" horiz-adv-x="667" 
d="M621 529v-4h-52l-73 -525h-4l51 364h-388l-51 -364h-4l73 525h-53v4h54l21 151h4l-21 -151h388l21 151h4l-21 -151h51zM543 368l22 157h-388l-22 -157h388z" />
    <glyph glyph-name="hbar" unicode="&#x127;" horiz-adv-x="581" 
d="M366 527q132 0 111 -159l-52 -368h-4l52 368q21 156 -107 156q-66 0 -121 -46.5t-107 -149.5l-45 -328h-4l89 637h-73v4h74l12 89l4 1l-13 -90h192v-4h-192l-42 -300q50 100 105 145t121 45z" />
    <glyph glyph-name="Itilde" unicode="&#x128;" horiz-adv-x="263" 
d="M157 857q-26 0 -50 -20q23 20 50 20zM266 813q-23 0 -57 22t-52 22q18 0 52.5 -22t57.5 -22h-1zM335 852q-29 -32 -51 -37q23 5 50 37h1zM89 821h-1q18 15 19 16q-6 -4 -18 -16zM267 813q7 0 17 2q-10 -2 -17 -2zM93 0l95 680h4l-95 -680h-4z" />
    <glyph glyph-name="itilde" unicode="&#x129;" horiz-adv-x="253" 
d="M66 695h-1q39 36 69 36q-32 0 -68 -36zM243 687q-23 0 -57 22t-52 22q18 0 52.5 -22t56.5 -22zM311 726h1q-35 -39 -69 -39q35 0 68 39zM88 0l72 517h4l-72 -517h-4z" />
    <glyph glyph-name="Imacron" unicode="&#x12a;" horiz-adv-x="263" 
d="M305 815h-192v4h192v-4zM192 680l-95 -680h-4l95 680h4z" />
    <glyph glyph-name="imacron" unicode="&#x12b;" horiz-adv-x="253" 
d="M282 689h-192v4h192v-4zM164 517l-72 -517h-4l72 517h4z" />
    <glyph glyph-name="Ibreve" unicode="&#x12c;" horiz-adv-x="263" 
d="M113 836q6 -27 28.5 -43.5t57.5 -16.5q-37 0 -58.5 17.5t-27.5 42.5zM304 836q-30 -60 -103 -60q72 0 103 60zM200 776h-1h1zM201 776h-1h1zM93 0l95 680h4l-95 -680h-4z" />
    <glyph glyph-name="ibreve" unicode="&#x12d;" horiz-adv-x="253" 
d="M181 666q-39 0 -61 20t-26 51l4 1q9 -68 83 -68t104 69l4 -2q-31 -71 -108 -71zM164 517l-72 -517h-4l72 517h4z" />
    <glyph glyph-name="Iogonek" unicode="&#x12e;" horiz-adv-x="263" 
d="M188 680h4l-95 -680h-1q-152 -54 -152 -131q0 -60 66 -60q23 0 54 8l-1 -4q-29 -8 -54 -8q-32 0 -50.5 16t-18.5 47q0 79 153 133z" />
    <glyph glyph-name="iogonek" unicode="&#x12f;" horiz-adv-x="253" 
d="M189 708q7 0 7 -8q0 -7 -8 -7q-7 0 -7 8q0 7 8 7zM88 1l72 516h4l-72 -517q-152 -54 -152 -131q0 -60 66 -60q23 0 54 8l-1 -4q-29 -8 -54 -8q-32 0 -50.5 16t-18.5 47q0 79 152 133z" />
    <glyph glyph-name="Idotaccent" unicode="&#x130;" horiz-adv-x="263" 
d="M212 834q7 0 7 -8q0 -7 -8 -7q-7 0 -7 8q0 7 8 7zM192 680l-95 -680h-4l95 680h4z" />
    <glyph glyph-name="dotlessi" unicode="&#x131;" horiz-adv-x="253" 
d="M164 517l-72 -517h-4l72 517h4z" />
    <glyph glyph-name="IJ" unicode="&#x132;" horiz-adv-x="537" 
d="M192 680l-95 -680h-4l95 680h4zM473 680l-83 -595q-10 -73 -38.5 -110t-106.5 -67l-2 4q76 29 104.5 65.5t38.5 108.5l83 594h4z" />
    <glyph glyph-name="ij" unicode="&#x133;" horiz-adv-x="506" 
d="M189 708q7 0 7 -8q0 -7 -8 -7q-7 0 -7 8q0 7 8 7zM442 708q7 0 7 -8q0 -7 -8 -7q-7 0 -7 8q0 7 8 7zM164 517l-72 -517h-4l72 517h4zM417 517l-72 -516q-12 -86 -39 -124.5t-87 -67.5l-2 2q59 29 86 67.5t38 123.5l72 515h4z" />
    <glyph glyph-name="Jcircumflex" unicode="&#x134;" horiz-adv-x="274" 
d="M328 770l-98 78l-118 -78l-3 2l120 80h3l99 -80zM210 680l-83 -595q-10 -73 -38.5 -110t-106.5 -67l-2 4q76 29 104.5 65.5t38.5 108.5l83 594h4z" />
    <glyph glyph-name="jcircumflex" unicode="&#x135;" horiz-adv-x="253" 
d="M74 659l-3 3l122 85h3l96 -85l-2 -3l-95 84zM164 517l-72 -516q-12 -86 -39 -124.5t-87 -67.5l-2 2q59 29 86 67.5t38 123.5l72 515h4z" />
    <glyph glyph-name="Kcommaaccent" unicode="&#x136;" horiz-adv-x="505" 
d="M192 680l-95 -679h-4l95 679h4zM534 680l-377 -314l298 -366h-6l-298 366l377 314h6zM235 -106q7 0 7 -7q0 -1 -5 -14l-41 -114h-2l40 121q-6 2 -6 7q0 7 7 7z" />
    <glyph glyph-name="kcommaaccent" unicode="&#x137;" horiz-adv-x="509" 
d="M194 731l-58 -419q47 104 106 159.5t125 55.5q49 0 77 -27.5t28 -74.5q0 -65 -48.5 -108.5t-140.5 -73.5l128 -243h-5l-128 245q93 30 141.5 73t48.5 106q0 46 -26 73t-75 27q-65 0 -125 -57.5t-108 -164.5l-42 -302h-4l102 730zM222 -106q7 0 7 -7q0 -1 -5 -14l-41 -114
h-2l40 121q-6 2 -6 7q0 7 7 7z" />
    <glyph glyph-name="kgreenlandic" unicode="&#x138;" horiz-adv-x="448" 
d="M164 517l-72 -517h-4l72 517h4zM433 517l-292 -244l246 -273h-5l-247 273l292 244h6z" />
    <glyph glyph-name="Lacute" unicode="&#x139;" horiz-adv-x="446" 
d="M295 844l2 -4l-177 -70l-1 4zM192 680l-94 -676h288l-1 -4h-292l95 680h4z" />
    <glyph glyph-name="lacute" unicode="&#x13a;" horiz-adv-x="275" 
d="M292 894l2 -4l-177 -70l-1 4zM189 731l-93 -666q-10 -70 50 -70q21 0 42 8v-4q-21 -8 -42 -8q-64 0 -54 74l93 665z" />
    <glyph glyph-name="Lcommaaccent" unicode="&#x13b;" horiz-adv-x="446" 
d="M192 680l-94 -676h288l-1 -4h-292l95 680h4zM225 -106q7 0 7 -7q0 -1 -5 -14l-41 -114h-2l40 121q-6 2 -6 7q0 7 7 7z" />
    <glyph glyph-name="lcommaaccent" unicode="&#x13c;" horiz-adv-x="275" 
d="M189 731l-93 -666q-10 -70 50 -70q21 0 42 8v-4q-21 -8 -42 -8q-64 0 -54 74l93 665zM131 -106q7 0 7 -7q0 -1 -5 -14l-41 -114h-2l40 121q-6 2 -6 7q0 7 7 7z" />
    <glyph glyph-name="Lcaron" unicode="&#x13d;" horiz-adv-x="446" 
d="M314 690l4 -1l-39 -137h-3zM192 680l-94 -676h288l-1 -4h-292l95 680h4z" />
    <glyph glyph-name="lcaron" unicode="&#x13e;" horiz-adv-x="275" 
d="M300 737l4 -1l-39 -137h-3zM189 731l-93 -666q-10 -70 50 -70q21 0 42 8v-4q-21 -8 -42 -8q-64 0 -54 74l93 665z" />
    <glyph glyph-name="Ldot" unicode="&#x13f;" horiz-adv-x="446" 
d="M192 680l-94 -676h288l-1 -4h-292l95 680h4zM364 362q7 0 7 -8q0 -7 -8 -7q-7 0 -7 8q0 7 8 7z" />
    <glyph glyph-name="ldot" unicode="&#x140;" horiz-adv-x="277" 
d="M189 731l-93 -666q-10 -70 50 -70q21 0 42 8v-4q-21 -8 -42 -8q-64 0 -54 74l93 665zM273 383q7 0 7 -8q0 -7 -8 -7q-7 0 -7 8q0 7 8 7z" />
    <glyph glyph-name="Lslash" unicode="&#x141;" horiz-adv-x="456" 
d="M396 4l-1 -4h-292l45 322l-83 -47l-2 3l85 48l50 354h4l-49 -351l226 128l2 -3l-229 -129l-44 -321h288z" />
    <glyph glyph-name="lslash" unicode="&#x142;" horiz-adv-x="276" 
d="M146 -5q21 0 42 8v-4q-21 -8 -42 -8q-64 0 -54 74l43 303l-73 -42l-2 3l75 44l50 357l4 1l-49 -356l120 70l2 -3l-123 -71l-43 -306q-10 -70 50 -70z" />
    <glyph glyph-name="Nacute" unicode="&#x143;" horiz-adv-x="655" 
d="M496 844l2 -4l-177 -70l-1 4zM584 680l-95 -680h-5l-292 675l-16 -113l-79 -562h-4l95 680h6l292 -674q8 56 19 137l75 537h4z" />
    <glyph glyph-name="nacute" unicode="&#x144;" horiz-adv-x="580" 
d="M445 748l2 -5l-180 -82l-1 4zM368 527q64 0 91.5 -41.5t17.5 -117.5l-52 -368h-4l52 368q10 75 -16 115.5t-89 40.5q-68 0 -123 -46t-107 -150l-46 -328h-4l72 517h4l-24 -180q50 100 105.5 145t122.5 45z" />
    <glyph glyph-name="Ncommaaccent" unicode="&#x145;" horiz-adv-x="655" 
d="M584 680l-95 -680h-5l-292 675l-16 -113l-79 -562h-4l95 680h6l292 -674q8 56 19 137l75 537h4zM271 -106q7 0 7 -7q0 -1 -5 -14l-41 -114h-2l40 121q-6 2 -6 7q0 7 7 7z" />
    <glyph glyph-name="ncommaaccent" unicode="&#x146;" horiz-adv-x="580" 
d="M368 527q64 0 91.5 -41.5t17.5 -117.5l-52 -368h-4l52 368q10 75 -16 115.5t-89 40.5q-68 0 -123 -46t-107 -150l-46 -328h-4l72 517h4l-24 -180q50 100 105.5 145t122.5 45zM250 -106q7 0 7 -7q0 -1 -5 -14l-41 -114h-2l40 121q-6 2 -6 7q0 7 7 7z" />
    <glyph glyph-name="Ncaron" unicode="&#x147;" horiz-adv-x="655" 
d="M517 847l2 -2l-121 -80h-3l-97 80l3 2l96 -78zM584 680l-95 -680h-5l-292 675l-16 -113l-79 -562h-4l95 680h6l292 -674q8 56 19 137l75 537h4z" />
    <glyph glyph-name="ncaron" unicode="&#x148;" horiz-adv-x="580" 
d="M469 735l2 -3l-122 -85h-3l-96 85l3 3l95 -83zM368 527q64 0 91.5 -41.5t17.5 -117.5l-52 -368h-4l52 368q10 75 -16 115.5t-89 40.5q-68 0 -123 -46t-107 -150l-46 -328h-4l72 517h4l-24 -180q50 100 105.5 145t122.5 45z" />
    <glyph glyph-name="napostrophe" unicode="&#x149;" horiz-adv-x="637" 
d="M162 733q7 0 7 -6q0 -3 -5 -15l-41 -114h-3l41 122q-6 0 -6 6q0 7 7 7zM425 527q64 0 91.5 -41.5t16.5 -117.5l-52 -368h-4l52 368q10 75 -16 115.5t-88 40.5q-68 0 -123 -46t-107 -150l-46 -328h-4l72 517h4l-25 -180q50 100 105.5 145t123.5 45z" />
    <glyph glyph-name="Eng" unicode="&#x14a;" horiz-adv-x="656" 
d="M580 680h4l-95 -680l-13 -96q-7 -46 -33.5 -71.5t-65.5 -25.5q-45 0 -76 29l2 3q30 -28 74 -28q37 0 62.5 24t32.5 69l13 96h-1l-292 675l-16 -113l-79 -562h-4l95 680h6l292 -674q8 56 19 137z" />
    <glyph glyph-name="eng" unicode="&#x14b;" horiz-adv-x="580" 
d="M368 527q64 0 91.5 -41.5t17.5 -117.5l-52 -368l-13 -96q-7 -47 -33.5 -72t-65.5 -25q-45 0 -76 29l2 3q30 -28 74 -28q37 0 62.5 24t32.5 69l13 96l52 368q10 75 -16 115.5t-89 40.5q-68 0 -123 -46t-107 -150l-46 -328h-4l72 517h4l-24 -180q50 100 105.5 145t122.5 45
z" />
    <glyph glyph-name="Omacron" unicode="&#x14c;" horiz-adv-x="687" 
d="M516 815h-192v4h192v-4zM403 690q104 0 161.5 -68t57.5 -193q0 -55 -9 -111t-32 -116t-57.5 -106t-91 -75.5t-126.5 -29.5q-103 0 -160 68.5t-57 192.5q0 53 10 110t33.5 116.5t58.5 106t90 76t122 29.5zM403 686q-67 0 -121 -29.5t-88.5 -75.5t-58 -105t-33 -115
t-9.5 -109q0 -123 56 -190t157 -67q70 0 125.5 29.5t89.5 75t56.5 105t31.5 115t9 109.5q0 123 -56.5 190t-158.5 67z" />
    <glyph glyph-name="omacron" unicode="&#x14d;" horiz-adv-x="559" 
d="M436 689h-192v4h192v-4zM318 527q79 0 123 -52t44 -147q0 -53 -12.5 -108t-39 -108.5t-76 -87t-115.5 -33.5q-80 0 -124 53t-44 148q0 54 13 109t40 107.5t76.5 85.5t114.5 33zM318 523q-52 0 -94 -22t-68.5 -56.5t-44.5 -79.5t-25.5 -88t-7.5 -85q0 -94 43 -145.5
t121 -51.5q65 0 113.5 33t74.5 86t38.5 107t12.5 107q0 93 -42.5 144t-120.5 51z" />
    <glyph glyph-name="Obreve" unicode="&#x14e;" horiz-adv-x="687" 
d="M410 776q-37 0 -58.5 17.5t-27.5 42.5q6 -27 28.5 -43.5t57.5 -16.5zM515 836q-30 -60 -103 -60q72 0 103 60zM410 776h1h-1zM411 776h1h-1zM403 690q104 0 161.5 -68t57.5 -193q0 -55 -9 -111t-32 -116t-57.5 -106t-91 -75.5t-126.5 -29.5q-103 0 -160 68.5t-57 192.5
q0 53 10 110t33.5 116.5t58.5 106t90 76t122 29.5zM306 -5q70 0 125.5 29.5t89.5 75t56.5 105t31.5 115t9 109.5q0 123 -56.5 190t-158.5 67q-67 0 -121 -29.5t-88.5 -75.5t-58 -105t-33 -115t-9.5 -109q0 -123 56 -190t157 -67z" />
    <glyph glyph-name="obreve" unicode="&#x14f;" horiz-adv-x="559" 
d="M335 666q-39 0 -61 20t-26 51l4 1q9 -68 83 -68t104 69l4 -2q-31 -71 -108 -71zM318 527q79 0 123 -52t44 -147q0 -53 -12.5 -108t-39 -108.5t-76 -87t-115.5 -33.5q-80 0 -124 53t-44 148q0 54 13 109t40 107.5t76.5 85.5t114.5 33zM318 523q-52 0 -94 -22t-68.5 -56.5
t-44.5 -79.5t-25.5 -88t-7.5 -85q0 -94 43 -145.5t121 -51.5q65 0 113.5 33t74.5 86t38.5 107t12.5 107q0 93 -42.5 144t-120.5 51z" />
    <glyph glyph-name="Ohungarumlaut" unicode="&#x150;" horiz-adv-x="687" 
d="M545 912l4 -2l-84 -124l-4 2zM439 909l3 -2l-78 -119l-3 2zM403 690q104 0 161.5 -68t57.5 -193q0 -55 -9 -111t-32 -116t-57.5 -106t-91 -75.5t-126.5 -29.5q-103 0 -160 68.5t-57 192.5q0 53 10 110t33.5 116.5t58.5 106t90 76t122 29.5zM403 686q-67 0 -121 -29.5
t-88.5 -75.5t-58 -105t-33 -115t-9.5 -109q0 -123 56 -190t157 -67q70 0 125.5 29.5t89.5 75t56.5 105t31.5 115t9 109.5q0 123 -56.5 190t-158.5 67z" />
    <glyph glyph-name="ohungarumlaut" unicode="&#x151;" horiz-adv-x="559" 
d="M462 786l4 -2l-84 -124l-4 2zM356 783l3 -2l-78 -119l-3 2zM318 527q79 0 123 -52t44 -147q0 -53 -12.5 -108t-39 -108.5t-76 -87t-115.5 -33.5q-80 0 -124 53t-44 148q0 54 13 109t40 107.5t76.5 85.5t114.5 33zM318 523q-52 0 -94 -22t-68.5 -56.5t-44.5 -79.5
t-25.5 -88t-7.5 -85q0 -94 43 -145.5t121 -51.5q65 0 113.5 33t74.5 86t38.5 107t12.5 107q0 93 -42.5 144t-120.5 51z" />
    <glyph glyph-name="OE" unicode="&#x152;" horiz-adv-x="839" 
d="M839 680l-1 -4h-373q63 -23 95.5 -85t32.5 -154q0 -39 -4 -74h163l-1 -4h-163q-14 -121 -68 -222t-151 -133h385l-1 -4h-397q-30 -9 -68 -9q-95 0 -147.5 67t-52.5 190q0 69 17 142t50.5 142.5t93.5 113.5t136 44q39 0 69 -10h385zM589 438q0 117 -53.5 182.5
t-150.5 65.5q-61 0 -112 -30t-84 -77t-55.5 -106t-32 -115.5t-9.5 -108.5q0 -121 51.5 -187.5t144.5 -66.5q68 0 122 32t86.5 80t54.5 110t30 116.5t8 104.5z" />
    <glyph glyph-name="oe" unicode="&#x153;" horiz-adv-x="916" 
d="M862 414q0 -84 -95.5 -135.5t-290.5 -60.5q-1 -10 -1 -27q0 -95 42.5 -145.5t118.5 -50.5q80 0 161 59l2 -4q-81 -59 -163 -59q-78 0 -121 51.5t-44 148.5q0 16 1 25q-22 -96 -79 -160.5t-151 -64.5q-80 0 -124 53t-44 148q0 54 13 109t40 107.5t76.5 85.5t114.5 33
q79 0 122.5 -51.5t44.5 -147.5q0 -5 -0.5 -15.5t-0.5 -16.5q10 45 28.5 84t46 73t69.5 54t93 20q61 0 101 -30t40 -83zM242 -5q65 0 113.5 33t74.5 86t38.5 107t12.5 107q0 93 -42.5 144t-120.5 51q-52 0 -94 -22t-68.5 -56.5t-44.5 -79.5t-25.5 -88t-7.5 -85
q0 -94 43 -145.5t121 -51.5zM721 523q-49 0 -90 -20t-68 -51t-46 -72t-28.5 -80.5t-12.5 -78.5q194 10 288 60.5t94 132.5q0 51 -39 80t-98 29z" />
    <glyph glyph-name="Racute" unicode="&#x154;" horiz-adv-x="562" 
d="M448 840l-177 -70l-1 4l176 70zM520 538q0 -79 -48 -140t-145 -65l145 -333h-5l-145 333h-178l-47 -333h-4l95 680h138q194 0 194 -142zM145 337h171q99 0 149.5 60t50.5 141q0 138 -189 138h-135z" />
    <glyph glyph-name="racute" unicode="&#x155;" horiz-adv-x="361" 
d="M381 748l2 -5l-180 -82l-1 4zM328 527q23 0 46 -7l-2 -3q-22 6 -44 6q-64 0 -107.5 -39t-79.5 -137l-49 -347h-4l72 517h4l-22 -159q35 93 78.5 131t107.5 38z" />
    <glyph glyph-name="Rcommaaccent" unicode="&#x156;" horiz-adv-x="562" 
d="M520 538q0 -79 -48 -140t-145 -65l145 -333h-5l-145 333h-178l-47 -333h-4l95 680h138q194 0 194 -142zM145 337h171q99 0 149.5 60t50.5 141q0 138 -189 138h-135zM251 -106q7 0 7 -7q0 -1 -5 -14l-41 -114h-2l40 121q-6 2 -6 7q0 7 7 7z" />
    <glyph glyph-name="rcommaaccent" unicode="&#x157;" horiz-adv-x="361" 
d="M328 527q23 0 46 -7l-2 -3q-22 6 -44 6q-64 0 -107.5 -39t-79.5 -137l-49 -347h-4l72 517h4l-22 -159q35 93 78.5 131t107.5 38zM83 -106q7 0 7 -7q0 -1 -5 -14l-41 -114h-2l40 121q-6 2 -6 7q0 7 7 7z" />
    <glyph glyph-name="Rcaron" unicode="&#x158;" horiz-adv-x="562" 
d="M348 765h-3l-97 80l3 2l96 -78l120 78l2 -2zM520 538q0 -79 -48 -140t-145 -65l145 -333h-5l-145 333h-178l-47 -333h-4l95 680h138q194 0 194 -142zM145 337h171q99 0 149.5 60t50.5 141q0 138 -189 138h-135z" />
    <glyph glyph-name="rcaron" unicode="&#x159;" horiz-adv-x="361" 
d="M405 735l2 -3l-122 -85h-3l-96 85l3 3l95 -83zM328 527q23 0 46 -7l-2 -3q-22 6 -44 6q-64 0 -107.5 -39t-79.5 -137l-49 -347h-4l72 517h4l-22 -159q35 93 78.5 131t107.5 38z" />
    <glyph glyph-name="Sacute" unicode="&#x15a;" horiz-adv-x="540" 
d="M437 844l2 -4l-177 -70l-1 4zM324 690q100 0 166 -64l-4 -3q-61 63 -162 63q-97 0 -146.5 -51t-49.5 -111t34 -92t124 -61q88 -30 127 -67t39 -106q0 -33 -13 -67t-38.5 -66.5t-72 -53t-105.5 -20.5q-115 0 -186 78l3 4q34 -39 76.5 -58.5t106.5 -19.5q58 0 103.5 20.5
t71 52.5t38 65t12.5 64q0 67 -38 103.5t-125 66.5q-91 30 -126 62.5t-35 94.5t50 114t150 52z" />
    <glyph glyph-name="sacute" unicode="&#x15b;" horiz-adv-x="457" 
d="M385 748l2 -5l-180 -82l-1 4zM259 527q89 0 144 -52l-3 -2q-53 50 -141 50q-67 0 -113 -33.5t-46 -90.5q0 -42 29 -69t105 -52q77 -25 107.5 -55t30.5 -82q0 -69 -50.5 -109.5t-128.5 -40.5q-99 0 -165 66l2 3q67 -65 163 -65q75 0 125 39t50 107q0 51 -29.5 79.5
t-105.5 53.5q-78 25 -108 53t-30 72q0 58 47.5 93t116.5 35z" />
    <glyph glyph-name="Scircumflex" unicode="&#x15c;" horiz-adv-x="540" 
d="M451 770l-98 78l-118 -78l-3 2l120 80h3l99 -80zM324 690q100 0 166 -64l-4 -3q-61 63 -162 63q-97 0 -146.5 -51t-49.5 -111t34 -92t124 -61q88 -30 127 -67t39 -106q0 -33 -13 -67t-38.5 -66.5t-72 -53t-105.5 -20.5q-115 0 -186 78l3 4q34 -39 76.5 -58.5t106.5 -19.5
q58 0 103.5 20.5t71 52.5t38 65t12.5 64q0 67 -38 103.5t-125 66.5q-91 30 -126 62.5t-35 94.5t50 114t150 52z" />
    <glyph glyph-name="scircumflex" unicode="&#x15d;" horiz-adv-x="457" 
d="M182 659l-3 3l122 85h3l96 -85l-2 -3l-95 84zM259 527q89 0 144 -52l-3 -2q-53 50 -141 50q-67 0 -113 -33.5t-46 -90.5q0 -42 29 -69t105 -52q77 -25 107.5 -55t30.5 -82q0 -69 -50.5 -109.5t-128.5 -40.5q-99 0 -165 66l2 3q67 -65 163 -65q75 0 125 39t50 107
q0 51 -29.5 79.5t-105.5 53.5q-78 25 -108 53t-30 72q0 58 47.5 93t116.5 35z" />
    <glyph glyph-name="Scedilla" unicode="&#x15e;" horiz-adv-x="540" 
d="M324 690q100 0 166 -64l-4 -3q-61 63 -162 63q-97 0 -146.5 -51t-49.5 -111t34 -92t124 -61q88 -30 127 -67t39 -106q0 -33 -13 -67t-38.5 -66t-71.5 -53t-105 -21l-14 -73q83 -2 83 -57q0 -26 -20.5 -45t-57.5 -19t-61 16l2 4q22 -16 59 -16t55.5 18.5t18.5 41.5
q0 28 -20 40t-64 13l16 77q-113 0 -184 78l3 4q35 -39 76.5 -58.5t105.5 -19.5h3q58 0 103 21t70 53t37.5 65t12.5 63q0 67 -38 103.5t-125 66.5q-91 30 -126 62.5t-35 94.5t50 114t150 52z" />
    <glyph glyph-name="scedilla" unicode="&#x15f;" horiz-adv-x="457" 
d="M259 523q-67 0 -113 -33.5t-46 -90.5q0 -42 29 -69t105 -52q77 -25 107.5 -55t30.5 -82q0 -69 -50.5 -109.5t-128.5 -40.5h-8l-14 -73q83 -2 83 -57q0 -26 -20.5 -45t-57.5 -19t-61 16l2 4q22 -16 59 -16t55.5 18.5t18.5 41.5q0 28 -20 40t-64 13l16 77q-90 4 -154 66
l2 3q64 -63 153 -65h3h7q75 0 125 39t50 107q0 51 -29.5 79.5t-105.5 53.5q-78 25 -108 53t-30 72q0 58 47.5 93t116.5 35q89 0 144 -52l-3 -2q-53 50 -141 50z" />
    <glyph glyph-name="Scaron" unicode="&#x160;" horiz-adv-x="540" 
d="M458 847l2 -2l-121 -80h-3l-97 80l3 2l96 -78zM324 690q100 0 166 -64l-4 -3q-61 63 -162 63q-97 0 -146.5 -51t-49.5 -111t34 -92t124 -61q88 -30 127 -67t39 -106q0 -33 -13 -67t-38.5 -66.5t-72 -53t-105.5 -20.5q-115 0 -186 78l3 4q34 -39 76.5 -58.5t106.5 -19.5
q58 0 103.5 20.5t71 52.5t38 65t12.5 64q0 67 -38 103.5t-125 66.5q-91 30 -126 62.5t-35 94.5t50 114t150 52z" />
    <glyph glyph-name="scaron" unicode="&#x161;" horiz-adv-x="457" 
d="M409 735l2 -3l-122 -85h-3l-96 85l3 3l95 -83zM259 527q89 0 144 -52l-3 -2q-53 50 -141 50q-67 0 -113 -33.5t-46 -90.5q0 -42 29 -69t105 -52q77 -25 107.5 -55t30.5 -82q0 -69 -50.5 -109.5t-128.5 -40.5q-99 0 -165 66l2 3q67 -65 163 -65q75 0 125 39t50 107
q0 51 -29.5 79.5t-105.5 53.5q-78 25 -108 53t-30 72q0 58 47.5 93t116.5 35z" />
    <glyph glyph-name="uni0162" unicode="&#x162;" horiz-adv-x="472" 
d="M79 680h433l-1 -4h-214l-95 -676l-15 -81q81 -2 81 -55q0 -28 -20.5 -47.5t-57.5 -19.5t-61 16l2 4q22 -16 59 -16t55.5 19t18.5 44q0 50 -81 51l16 85h-1l95 676h-215z" />
    <glyph glyph-name="uni0163" unicode="&#x163;" horiz-adv-x="322" 
d="M156 513l-55 -399q-8 -56 13 -87.5t68 -31.5h3q48 0 95 28l2 -4q-50 -28 -98 -28l-14 -73q83 -2 83 -57q0 -26 -20.5 -45t-57.5 -19t-61 16l2 4q22 -16 59 -16t55.5 18.5t18.5 41.5q0 28 -20 40t-64 13l16 77q-48 1 -70 32.5t-14 89.5l55 400h-87l1 4h87l19 134h4
l-19 -134h145v-4h-146z" />
    <glyph glyph-name="Tcaron" unicode="&#x164;" horiz-adv-x="472" 
d="M422 847l2 -2l-121 -80h-3l-97 80l3 2l96 -78zM512 680l-1 -4h-214l-95 -676h-4l95 676h-215l1 4h433z" />
    <glyph glyph-name="tcaron" unicode="&#x165;" horiz-adv-x="322" 
d="M310 739l-39 -137h-3l38 138zM176 651l-19 -134h145v-4h-146l-55 -399q-8 -57 13.5 -88t69.5 -31q47 0 96 28l2 -4q-50 -28 -99 -28t-72 32t-14 90l55 400h-87l1 4h87l19 134h4z" />
    <glyph glyph-name="Tbar" unicode="&#x166;" horiz-adv-x="457" 
d="M297 676l-42 -300h123v-3h-123l-53 -373h-4l53 373h-123v3h123l42 300h-215l1 4h433l-1 -4h-214z" />
    <glyph glyph-name="tbar" unicode="&#x167;" horiz-adv-x="322" 
d="M302 513h-146l-25 -177h147l-1 -4h-146l-30 -218q-8 -57 13.5 -88t69.5 -31q47 0 96 28l2 -4q-50 -28 -99 -28t-72 32t-14 90l30 219h-85v4h85l25 177h-87l1 4h87l19 134h4l-19 -134h145v-4z" />
    <glyph glyph-name="Utilde" unicode="&#x168;" horiz-adv-x="636" 
d="M294 837q23 20 50 20q-26 0 -50 -20zM454 813h-1q-23 0 -57 22t-52 22q18 0 52.5 -22t57.5 -22zM522 852q-29 -32 -51 -37q23 5 50 37h1zM294 837q-6 -4 -18 -16h-1q18 15 19 16zM471 815q-10 -2 -17 -2q7 0 17 2zM571 680h4l-67 -474q-13 -99 -68.5 -157t-158.5 -58
q-197 0 -169 215l67 474h4l-67 -474q-13 -98 25.5 -154.5t139.5 -56.5t155.5 57t67.5 154z" />
    <glyph glyph-name="utilde" unicode="&#x169;" horiz-adv-x="574" 
d="M292 731q-32 0 -68 -36h-1q39 36 69 36zM292 731q18 0 52.5 -22t56.5 -22q-23 0 -57 22t-52 22zM470 726q-35 -39 -69 -39q35 0 68 39h1zM482 517h4l-72 -517h-4l24 167q-37 -85 -92 -130.5t-120 -45.5q-66 0 -97.5 41t-21.5 118l51 367h4l-51 -367q-10 -75 20.5 -115
t95.5 -40t119 46t92 133z" />
    <glyph glyph-name="Umacron" unicode="&#x16a;" horiz-adv-x="636" 
d="M492 815h-192v4h192v-4zM575 680l-67 -474q-13 -99 -68.5 -157t-158.5 -58q-197 0 -169 215l67 474h4l-67 -474q-13 -98 25.5 -154.5t139.5 -56.5t155.5 57t67.5 154l67 474h4z" />
    <glyph glyph-name="umacron" unicode="&#x16b;" horiz-adv-x="574" 
d="M440 689h-192v4h192v-4zM486 517l-72 -517h-4l24 167q-37 -85 -92 -130.5t-120 -45.5q-66 0 -97.5 41t-21.5 118l51 367h4l-51 -367q-10 -75 20.5 -115t95.5 -40t119 46t92 133l48 343h4z" />
    <glyph glyph-name="Ubreve" unicode="&#x16c;" horiz-adv-x="636" 
d="M386 776q-37 0 -58.5 17.5t-27.5 42.5q6 -27 28.5 -43.5t57.5 -16.5zM491 836q-30 -60 -103 -60q72 0 103 60zM386 776h1h-1zM387 776h1h-1zM571 680h4l-67 -474q-13 -99 -68.5 -157t-158.5 -58q-197 0 -169 215l67 474h4l-67 -474q-13 -98 25.5 -154.5t139.5 -56.5
t155.5 57t67.5 154z" />
    <glyph glyph-name="ubreve" unicode="&#x16d;" horiz-adv-x="574" 
d="M339 666q-39 0 -61 20t-26 51l4 1q9 -68 83 -68t104 69l4 -2q-31 -71 -108 -71zM486 517l-72 -517h-4l24 167q-37 -85 -92 -130.5t-120 -45.5q-66 0 -97.5 41t-21.5 118l51 367h4l-51 -367q-10 -75 20.5 -115t95.5 -40t119 46t92 133l48 343h4z" />
    <glyph glyph-name="Uring" unicode="&#x16e;" horiz-adv-x="636" 
d="M410 910q30 0 44.5 -17.5t10.5 -46.5q-3 -30 -22.5 -48t-49.5 -18q-31 0 -46 17.5t-11 46.5t24 47.5t50 18.5zM410 906q-29 0 -47.5 -17t-22.5 -45t10 -44t43 -16q28 0 47 17.5t22 44.5q6 60 -52 60zM575 680l-67 -474q-13 -99 -68.5 -157t-158.5 -58q-197 0 -169 215
l67 474h4l-67 -474q-13 -98 25.5 -154.5t139.5 -56.5t155.5 57t67.5 154l67 474h4z" />
    <glyph glyph-name="uring" unicode="&#x16f;" horiz-adv-x="574" 
d="M358 784q30 0 44.5 -17.5t10.5 -46.5q-3 -30 -22.5 -48t-49.5 -18q-31 0 -46 17.5t-11 46.5t24 47.5t50 18.5zM358 780q-29 0 -47.5 -17t-22.5 -45t10 -44t43 -16q28 0 47 17.5t22 44.5q6 60 -52 60zM486 517l-72 -517h-4l24 167q-37 -85 -92 -130.5t-120 -45.5
q-66 0 -97.5 41t-21.5 118l51 367h4l-51 -367q-10 -75 20.5 -115t95.5 -40t119 46t92 133l48 343h4z" />
    <glyph glyph-name="Uhungarumlaut" unicode="&#x170;" horiz-adv-x="636" 
d="M521 912l4 -2l-84 -124l-4 2zM415 909l3 -2l-78 -119l-3 2zM575 680l-67 -474q-13 -99 -68.5 -157t-158.5 -58q-197 0 -169 215l67 474h4l-67 -474q-13 -98 25.5 -154.5t139.5 -56.5t155.5 57t67.5 154l67 474h4z" />
    <glyph glyph-name="uhungarumlaut" unicode="&#x171;" horiz-adv-x="574" 
d="M466 786l4 -2l-84 -124l-4 2zM360 783l3 -2l-78 -119l-3 2zM486 517l-72 -517h-4l24 167q-37 -85 -92 -130.5t-120 -45.5q-66 0 -97.5 41t-21.5 118l51 367h4l-51 -367q-10 -75 20.5 -115t95.5 -40t119 46t92 133l48 343h4z" />
    <glyph glyph-name="Uogonek" unicode="&#x172;" horiz-adv-x="636" 
d="M571 680h4l-67 -474q-22 -174 -160 -207q-130 -51 -130 -119q0 -34 20.5 -52.5t54.5 -18.5q24 0 53 8v-4q-29 -8 -53 -8q-36 0 -57.5 19.5t-21.5 55.5q0 69 119 115q-21 -4 -52 -4q-197 0 -169 215l67 474h4l-67 -474q-13 -98 25.5 -154.5t139.5 -56.5t155.5 57t67.5 154
z" />
    <glyph glyph-name="uogonek" unicode="&#x173;" horiz-adv-x="574" 
d="M414 0q-152 -54 -152 -131q0 -60 66 -60q23 0 54 8l-1 -4q-29 -8 -54 -8q-32 0 -50.5 16t-18.5 47q0 80 153 133l23 166q-37 -85 -92 -130.5t-120 -45.5q-66 0 -97.5 41t-21.5 118l51 367h4l-51 -367q-10 -75 20.5 -115t95.5 -40t119 46t92 133l48 343h4z" />
    <glyph glyph-name="Wcircumflex" unicode="&#x174;" horiz-adv-x="777" 
d="M567 770l-98 78l-118 -78l-3 2l120 80h3l99 -80zM792 680l-255 -680h-4l-86 676l-274 -676h-5l-65 680h4l64 -676l274 676h5l85 -675l253 675h4z" />
    <glyph glyph-name="wcircumflex" unicode="&#x175;" horiz-adv-x="673" 
d="M285 659l-3 3l122 85h3l96 -85l-2 -3l-95 84zM670 517l-213 -517h-5l-80 512l-223 -512h-5l-69 517h4l68 -513l223 513h5l80 -513l211 513h4z" />
    <glyph glyph-name="Ycircumflex" unicode="&#x176;" horiz-adv-x="481" 
d="M418 770l-98 78l-118 -78l-3 2l120 80h3l99 -80zM515 680l-271 -409l-37 -271h-4l37 271l-156 409h4l154 -405l268 405h5z" />
    <glyph glyph-name="ycircumflex" unicode="&#x177;" horiz-adv-x="435" 
d="M165 659l-3 3l122 85h3l96 -85l-2 -3l-95 84zM442 517l-250 -517q-46 -92 -82 -130t-112 -60v4q75 21 110 58t80 128h-3l-120 517h5l118 -514l250 514h4z" />
    <glyph glyph-name="Ydieresis" unicode="&#x178;" horiz-adv-x="481" 
d="M243 819q7 0 7 -7q0 -8 -8 -8q-7 0 -7 8q0 7 8 7zM393 819q8 0 8 -7q-2 -8 -8 -8q-7 0 -7 8q0 7 7 7zM515 680l-271 -409l-37 -271h-4l37 271l-156 409h4l154 -405l268 405h5z" />
    <glyph glyph-name="Zacute" unicode="&#x179;" horiz-adv-x="505" 
d="M418 844l2 -4l-177 -70l-1 4zM9 0v4l499 672h-368l1 4h373l-1 -4l-499 -672h388v-4h-393z" />
    <glyph glyph-name="zacute" unicode="&#x17a;" horiz-adv-x="410" 
d="M366 748l2 -5l-180 -82l-1 4zM406 517v-3l-401 -510h319l-1 -4h-324v4l402 509h-300v4h305z" />
    <glyph glyph-name="Zdotaccent" unicode="&#x17b;" horiz-adv-x="505" 
d="M335 834q7 0 7 -8q0 -7 -8 -7q-7 0 -7 8q0 7 8 7zM9 0v4l499 672h-368l1 4h373l-1 -4l-499 -672h388v-4h-393z" />
    <glyph glyph-name="zdotaccent" unicode="&#x17c;" horiz-adv-x="410" 
d="M278 708q7 0 7 -8q0 -7 -8 -7q-7 0 -7 8q0 7 8 7zM406 517v-3l-401 -510h319l-1 -4h-324v4l402 509h-300v4h305z" />
    <glyph glyph-name="Zcaron" unicode="&#x17d;" horiz-adv-x="505" 
d="M439 847l2 -2l-121 -80h-3l-97 80l3 2l96 -78zM9 0v4l499 672h-368l1 4h373l-1 -4l-499 -672h388v-4h-393z" />
    <glyph glyph-name="zcaron" unicode="&#x17e;" horiz-adv-x="410" 
d="M390 735l2 -3l-122 -85h-3l-96 85l3 3l95 -83zM406 517v-3l-401 -510h319l-1 -4h-324v4l402 509h-300v4h305z" />
    <glyph glyph-name="longs" unicode="&#x17f;" horiz-adv-x="300" 
d="M306 733q61 0 110 -37l-3 -3q-48 37 -107 37q-49 0 -83 -29t-42 -83l-87 -618h-4l73 513h-93l1 4h92l14 101q8 56 43 85.5t86 29.5z" />
    <glyph glyph-name="uni0180" unicode="&#x180;" horiz-adv-x="563" 
d="M344 527q71 0 108.5 -48.5t37.5 -139.5q0 -42 -7.5 -87t-26 -92.5t-45 -84.5t-68.5 -60.5t-92 -23.5q-76 0 -157 36l84 610h-73v4h74l12 89l4 1l-13 -90h192v-4h-192l-30 -215q88 105 192 105zM251 -5q61 0 109 35t74 89t39 110.5t13 109.5q0 89 -36 136.5t-106 47.5
q-58 0 -103 -26.5t-89 -79.5l-54 -388q78 -34 153 -34z" />
    <glyph glyph-name="uni0181" unicode="&#x181;" horiz-adv-x="627" 
d="M399 360q67 -4 111 -42.5t44 -105.5q0 -92 -60.5 -152t-195.5 -60h-159l94 676h-46q-52 0 -80 -25.5t-28 -70.5q0 -29 18 -63l-4 -2q-18 34 -18 65q0 46 29.5 73t83.5 27h47h134q94 0 144 -36t50 -103q0 -73 -48 -122.5t-116 -58.5zM370 676h-132l-44 -314h187
q64 0 121 48t57 130q0 66 -48.5 101t-140.5 35zM299 4q131 0 191 58.5t60 149.5q0 68 -47 107t-125 39h-185l-50 -354h156z" />
    <glyph glyph-name="uni0182" unicode="&#x182;" horiz-adv-x="564" 
d="M487 676h-295l-39 -276h143q93 0 141.5 -39.5t48.5 -117.5q0 -33 -7 -65.5t-25 -65t-44.5 -57t-69.5 -40t-96 -15.5h-151l95 680h300zM296 396h-143l-55 -392h147q52 0 94 15.5t68 39.5t43.5 56.5t24.5 64t7 63.5q0 75 -47.5 114t-138.5 39z" />
    <glyph glyph-name="uni0183" unicode="&#x183;" horiz-adv-x="563" 
d="M344 527q72 0 109.5 -48.5t37.5 -139.5q0 -54 -13.5 -111t-40 -112t-75.5 -90t-111 -35q-76 0 -157 36l96 701h246l-1 -4h-241l-41 -302q86 105 191 105zM251 -5q62 0 110 35t74 89t39 110.5t13 109.5q0 89 -36.5 136.5t-106.5 47.5q-57 0 -102 -26.5t-90 -79.5l-54 -388
q79 -34 153 -34z" />
    <glyph glyph-name="uni0184" unicode="&#x184;" horiz-adv-x="549" 
d="M295 400q93 0 142 -40.5t49 -119.5q0 -42 -12.5 -82t-38.5 -76.5t-75.5 -59t-115.5 -22.5h-151l88 624l-16 7q16 20 25 49h2l-39 -280h142zM245 4q53 0 95.5 16t68.5 40.5t43 56.5t23.5 62.5t6.5 60.5q0 76 -48 116t-139 40h-142l-55 -392h147z" />
    <glyph glyph-name="uni0185" unicode="&#x185;" horiz-adv-x="492" 
d="M261 329q86 0 126.5 -36t40.5 -99q0 -36 -10.5 -69.5t-33 -64t-64.5 -49.5t-99 -20q-64 -1 -131 24l64 456l-16 7q12 12 24 39h2l-26 -188h123zM221 -5q56 1 97 19.5t63.5 48.5t32.5 62.5t10 68.5q0 131 -164 131h-123l-42 -307q64 -24 126 -23z" />
    <glyph glyph-name="uni0186" unicode="&#x186;" horiz-adv-x="530" 
d="M263 690q95 0 148 -64.5t53 -189.5q0 -115 -33.5 -214.5t-104 -165t-165.5 -65.5q-97 0 -164 59l2 4q67 -59 162 -59q94 0 163.5 65t102 163.5t32.5 212.5q0 124 -52 187t-144 63q-53 0 -91.5 -14t-82.5 -42l-2 3q46 29 84 43t92 14z" />
    <glyph glyph-name="uni0187" unicode="&#x187;" horiz-adv-x="530" 
d="M653 804q48 0 76 -28l-2 -3q-29 27 -74 27q-37 0 -62 -24t-32 -69l-11 -74l-2 -3q-60 56 -143 56q-67 0 -122 -29t-89 -74t-57 -104t-32 -115t-9 -110q0 -125 56.5 -192t154.5 -67q91 0 169 59l2 -4q-81 -59 -171 -59q-100 0 -157.5 68t-57.5 194q0 56 9.5 113.5
t33 116.5t58 104.5t89.5 74t123 28.5q86 0 141 -55l11 73q7 46 33.5 71t64.5 25z" />
    <glyph glyph-name="uni0188" unicode="&#x188;" horiz-adv-x="468" 
d="M559 733q44 0 76 -28l-2 -3q-31 28 -74 28q-37 0 -63 -24t-32 -69l-22 -160l-3 -2q-47 48 -120 48q-76 0 -132 -48.5t-82 -121.5t-26 -159q0 -96 44.5 -147.5t119.5 -51.5q74 0 140 51l2 -2q-65 -53 -142 -53t-122.5 53t-45.5 150q0 136 65 234.5t179 98.5q74 0 119 -47
l22 157q6 46 33 71t66 25z" />
    <glyph glyph-name="uni0189" unicode="&#x189;" horiz-adv-x="606" 
d="M286 680q53 0 94.5 -10.5t79.5 -35.5t59 -75t21 -123q0 -64 -10.5 -124t-36.5 -117.5t-64 -100t-97.5 -68.5t-133.5 -26h-113l49 351h-91v4h92l45 325h106zM198 4q73 0 132 26t96.5 68t63 99t36 116.5t10.5 122.5q0 71 -20.5 120.5t-58 74.5t-78.5 35t-93 10h-102
l-45 -321h197v-4h-197l-49 -347h108z" />
    <glyph glyph-name="uni018A" unicode="&#x18a;" horiz-adv-x="659" 
d="M340 680q53 0 94.5 -10.5t79.5 -35.5t59 -75t21 -123q0 -64 -10.5 -124t-36.5 -117.5t-64 -100t-98 -68.5t-134 -26h-112l94 676h-46q-52 0 -80 -25.5t-28 -70.5q0 -29 18 -63l-4 -2q-18 34 -18 65q0 46 29.5 73t83.5 27h47h105zM252 4q73 0 132 26t96.5 68t63 99
t36 116.5t10.5 122.5q0 71 -20.5 120.5t-58.5 74.5t-79 35t-93 10h-101l-95 -672h109z" />
    <glyph glyph-name="uni018B" unicode="&#x18b;" horiz-adv-x="564" 
d="M194 680h300l-96 -680h-156q-84 0 -131.5 43t-47.5 121q0 108 68 172t184 64h136l38 276h-295v4zM396 4l54 392h-136q-115 0 -181 -63t-66 -169q0 -76 46.5 -118t129.5 -42h153z" />
    <glyph glyph-name="uni018C" unicode="&#x18c;" horiz-adv-x="572" 
d="M514 728l-102 -728h-4l21 147q-42 -74 -88 -115t-112 -41q-69 0 -109.5 50.5t-40.5 141.5q0 54 13 110.5t39 110.5t75 88.5t112 34.5q58 0 95.5 -29.5t54.5 -71.5l41 298h-239v4h244zM429 154l38 266q-39 103 -149 103q-63 0 -111 -34t-73.5 -87.5t-38 -109t-12.5 -109.5
q0 -89 39.5 -138.5t106.5 -49.5q66 0 112 42t88 117z" />
    <glyph glyph-name="uni018D" unicode="&#x18d;" horiz-adv-x="557" 
d="M219 -192q-80 0 -148 49l3 2q64 -47 145 -47q70 0 111 31t41 77q0 38 -26.5 62.5t-93.5 51.5q-94 37 -133 80t-39 118q0 48 11.5 96t37 94.5t73.5 75.5t112 29q81 0 126 -52t45 -143q0 -228 -227 -297q66 -27 92 -51.5t26 -63.5q0 -48 -42 -80t-114 -32zM252 37
q228 68 228 295q0 90 -44 140.5t-123 50.5q-63 0 -110.5 -29t-72 -75t-36 -93t-11.5 -94q0 -73 38.5 -115.5t130.5 -79.5z" />
    <glyph glyph-name="uni018E" unicode="&#x18e;" horiz-adv-x="495" 
d="M114 680h310l-94 -680h-317l1 4h312l49 355h-259v4h260l43 313h-305v4z" />
    <glyph glyph-name="uni018F" unicode="&#x18f;" horiz-adv-x="644" 
d="M378 690q202 0 202 -246q0 -56 -8 -109q-23 -169 -101 -256.5t-189 -87.5q-97 0 -151 65t-54 183q0 57 11 112h482q6 49 6 93q0 242 -198 242q-103 0 -206 -78l-2 3q104 79 208 79zM282 -5q111 0 187.5 89t99.5 263h-477q-11 -54 -11 -107q0 -117 53.5 -181t147.5 -64z
" />
    <glyph glyph-name="uni0190" unicode="&#x190;" horiz-adv-x="510" 
d="M321 690q106 0 172 -85l-3 -3q-34 43 -73.5 63.5t-96.5 20.5q-84 0 -138 -51t-54 -129q0 -63 42 -97.5t110 -34.5h54l-1 -4h-57q-99 0 -159 -56.5t-59 -154.5q-1 -77 46.5 -120.5t127.5 -43.5q113 0 209 91l4 -2q-99 -93 -213 -93q-83 0 -131 44.5t-47 123.5
q-1 98 55.5 153.5t148.5 59.5q-59 5 -96.5 38.5t-37.5 95.5q0 81 55.5 132.5t141.5 51.5z" />
    <glyph glyph-name="uni0191" unicode="&#x191;" horiz-adv-x="470" 
d="M489 676h-297l-46 -328h257v-4h-258l-48 -344l-13 -96q-7 -46 -34 -71.5t-65 -25.5q-45 0 -76 29l2 3q30 -28 74 -28q37 0 62.5 24t32.5 69l13 96l95 680h302z" />
    <glyph glyph-name="florin" unicode="&#x192;" horiz-adv-x="300" 
d="M306 730q-49 0 -83 -29t-42 -83l-14 -101h150l-1 -4h-149l-73 -512q-12 -86 -39 -124.5t-87 -67.5l-2 2q59 29 86 67.5t39 123.5l72 511h-93l1 4h92l14 101q8 56 43 85.5t86 29.5q61 0 110 -37l-3 -3q-48 37 -107 37z" />
    <glyph glyph-name="uni0193" unicode="&#x193;" horiz-adv-x="537" 
d="M661 804q48 0 76 -28l-2 -3q-29 27 -74 27q-38 0 -63 -24t-32 -69l-11 -72l-2 -3q-68 54 -149 54q-77 0 -138.5 -40t-97.5 -104.5t-55 -138t-19 -147.5q0 -127 58.5 -194t164.5 -67q83 0 169 46l43 298h-150v4h154l-43 -304q-90 -48 -173 -48q-107 0 -167 68.5t-60 196.5
q0 76 19.5 150.5t56.5 139t99 104.5t139 40q84 0 148 -53l10 71q7 46 33.5 71t65.5 25z" />
    <glyph glyph-name="uni0194" unicode="&#x194;" horiz-adv-x="525" 
d="M550 680l-311 -622q34 -120 34 -168q0 -36 -17.5 -59.5t-52.5 -23.5q-26 0 -39.5 15t-13.5 39q0 31 20 75t65 122l-141 622h4l139 -618l309 618h4zM269 -110q0 47 -32 164q-44 -77 -63.5 -120t-19.5 -73q0 -51 49 -51q33 0 49.5 22.5t16.5 57.5z" />
    <glyph glyph-name="uni0195" unicode="&#x195;" horiz-adv-x="892" 
d="M802 517q2 -56 2 -93q0 -80 -10 -149t-34 -137t-73 -107.5t-118 -39.5q-76 0 -105.5 47.5t-20.5 115.5l30 214q22 156 -108 156q-66 0 -120.5 -46.5t-106.5 -149.5l-46 -328h-4l102 730l4 1l-54 -394q94 190 225 190q134 0 112 -159l-30 -214q-9 -67 19.5 -113t102.5 -46
q69 0 117 40t71.5 108t33 136t9.5 145q0 37 -2 93h4z" />
    <glyph glyph-name="uni0196" unicode="&#x196;" horiz-adv-x="313" 
d="M182 680l-69 -497h-5l70 497h4zM167 -9q-39 0 -58.5 25t-12.5 72l12 95h5l-13 -95q-7 -45 11.5 -69t55.5 -24q45 0 82 28l2 -4q-37 -28 -84 -28z" />
    <glyph glyph-name="uni0197" unicode="&#x197;" horiz-adv-x="339" 
d="M299 363v-4h-111l-50 -359h-4l50 359h-116v4h117l44 317h4l-44 -317h110z" />
    <glyph glyph-name="uni0198" unicode="&#x198;" horiz-adv-x="543" 
d="M404 618l-247 -252l298 -366h-6l-298 366l251 255q39 41 63 55t50 14q40 0 70 -32l-4 -3q-28 31 -66 31q-25 0 -47.5 -13.5t-63.5 -54.5zM192 680l-95 -679h-4l95 679h4z" />
    <glyph glyph-name="uni0199" unicode="&#x199;" horiz-adv-x="509" 
d="M472 425q0 -65 -48.5 -108.5t-140.5 -73.5l128 -243h-5l-128 245q93 30 141.5 73t48.5 106q0 46 -26 73t-75 27q-65 0 -125 -57.5t-108 -164.5l-42 -302h-4l72 516l15 102q7 55 42.5 85t85.5 30q61 0 106 -32l-2 -4q-47 33 -103 33q-49 0 -83.5 -29t-41.5 -83l-15 -102
l-28 -204q47 104 106 159.5t125 55.5q49 0 77 -27.5t28 -74.5z" />
    <glyph glyph-name="uni019A" unicode="&#x19a;" horiz-adv-x="281" 
d="M156 363l-42 -298q-8 -70 50 -70q21 0 42 8v-4q-21 -8 -42 -8q-64 0 -53 74l41 298h-111v4h112l50 363l4 1l-51 -364h116v-4h-116z" />
    <glyph glyph-name="uni019B" unicode="&#x19b;" horiz-adv-x="445" 
d="M275 515q8 -127 21 -215.5t36 -148.5t34.5 -81.5t42.5 -69.5l-4 -1q-27 42 -33.5 52.5t-29 59.5t-31.5 92.5t-21.5 125t-18.5 184.5l-254 -516l-4 1l256 519h2q-9 111 -30 150l-101 -92l-3 2l101 92l1 1q-25 40 -84 59l1 3q59 -17 86 -60l71 66l3 -2l-72 -67
q24 -44 31 -154z" />
    <glyph glyph-name="uni019C" unicode="&#x19c;" horiz-adv-x="919" 
d="M843 680h4l-94 -680h-4l17 124q-47 -66 -95.5 -100t-109.5 -34q-59 0 -91.5 35t-33.5 102q-49 -68 -98 -102.5t-110 -34.5q-68 0 -101 46.5t-21 133.5l71 510h4l-71 -511q-11 -85 21 -130t97 -45q60 0 109.5 35t98.5 104l3 37l71 510h4l-71 -511q-11 -85 21 -130t97 -45
q60 0 109 34.5t97 101.5z" />
    <glyph glyph-name="uni019D" unicode="&#x19d;" horiz-adv-x="655" 
d="M580 680h4l-95 -680h-5l-292 675l-16 -113l-79 -562l-13 -96q-7 -46 -33.5 -71.5t-65.5 -25.5q-45 0 -76 29l2 3q30 -28 74 -28q37 0 62.5 24t32.5 69l13 96l95 680h6l292 -674q8 56 19 137z" />
    <glyph glyph-name="uni019E" unicode="&#x19e;" horiz-adv-x="580" 
d="M367 527q66 0 93.5 -41.5t16.5 -117.5l-80 -559l-4 -1l80 560q22 156 -106 156q-67 0 -122 -46.5t-107 -149.5l-46 -328h-4l72 517h4l-24 -180q50 100 105 145t122 45z" />
    <glyph glyph-name="uni019F" unicode="&#x19f;" horiz-adv-x="686" 
d="M403 690q104 0 161.5 -68t57.5 -192q0 -34 -7 -88q-24 -168 -104 -259.5t-205 -91.5q-103 0 -160 68t-57 193q0 45 7 90q22 160 106 254t201 94zM611 344q7 54 7 86q0 123 -56.5 189.5t-158.5 66.5q-115 0 -197.5 -92t-104.5 -250h510zM306 -5q123 0 202 90t102 256h-510
q-7 -45 -7 -89q0 -123 56 -190t157 -67z" />
    <glyph glyph-name="Ohorn" unicode="&#x1a0;" horiz-adv-x="687" 
d="M636 709q0 -39 -16.5 -60t-56.5 -25q59 -68 59 -195q0 -55 -9 -111t-32 -116t-57.5 -106t-91 -75.5t-126.5 -29.5q-103 0 -160 68.5t-57 192.5q0 53 10 110t33.5 116.5t58.5 106t90 76t122 29.5q100 0 157 -63q40 3 56 23t16 59q0 26 -6 50l3 1q7 -28 7 -51zM306 -5
q70 0 125.5 29.5t89.5 75t56.5 105t31.5 115t9 109.5q0 123 -56.5 190t-158.5 67q-67 0 -121 -29.5t-88.5 -75.5t-58 -105t-33 -115t-9.5 -109q0 -123 56 -190t157 -67z" />
    <glyph glyph-name="ohorn" unicode="&#x1a1;" horiz-adv-x="559" 
d="M525 546q0 -78 -73 -86q33 -52 33 -132q0 -53 -12.5 -108t-39 -108.5t-76 -87t-115.5 -33.5q-80 0 -124 53t-44 148q0 54 13 109t40 107.5t76.5 85.5t114.5 33q87 0 132 -63q72 5 72 82q0 22 -7 50l4 1q6 -24 6 -51zM242 -5q65 0 113.5 33t74.5 86t38.5 107t12.5 107
q0 93 -42.5 144t-120.5 51q-52 0 -94 -22t-68.5 -56.5t-44.5 -79.5t-25.5 -88t-7.5 -85q0 -94 43 -145.5t121 -51.5z" />
    <glyph glyph-name="uni01A2" unicode="&#x1a2;" horiz-adv-x="875" 
d="M700 690q53 0 75 -32t14 -84l-107 -762h-4l107 762q7 52 -14 82t-71 30q-67 0 -155 -44q77 -68 77 -213q0 -55 -9 -111t-32 -116t-57.5 -106t-91 -75.5t-126.5 -29.5q-103 0 -160 68.5t-57 192.5q0 53 10 110t33.5 116.5t58.5 106t90 76t122 29.5q85 0 139 -46
q90 46 158 46zM618 429q0 123 -56.5 190t-158.5 67q-67 0 -121 -29.5t-88.5 -75.5t-58 -105t-33 -115t-9.5 -109q0 -123 56 -190t157 -67q70 0 125.5 29.5t89.5 75t56.5 105t31.5 115t9 109.5z" />
    <glyph glyph-name="uni01A3" unicode="&#x1a3;" horiz-adv-x="723" 
d="M532 527q111 0 94 -116l-84 -602l-4 -1l84 603q16 112 -90 112q-58 0 -113 -27q66 -49 66 -168q0 -53 -12.5 -108t-39 -108.5t-76 -87t-115.5 -33.5q-80 0 -124 53t-44 148q0 54 13 109t40 107.5t76.5 85.5t114.5 33q58 0 98 -28q61 28 116 28zM481 328q0 93 -42.5 144
t-120.5 51q-52 0 -94 -22t-68.5 -56.5t-44.5 -79.5t-25.5 -88t-7.5 -85q0 -94 43 -145.5t121 -51.5q65 0 113.5 33t74.5 86t38.5 107t12.5 107z" />
    <glyph glyph-name="uni01A4" unicode="&#x1a4;" horiz-adv-x="598" 
d="M357 680q108 0 160 -37.5t52 -118.5q0 -46 -13 -85t-42.5 -74t-84.5 -55t-130 -20h-115l-41 -290h-4l94 676h-46q-52 0 -80 -25.5t-28 -70.5q0 -29 18 -63l-4 -2q-18 34 -18 65q0 46 29.5 73t83.5 27h47h122zM301 294q74 0 127.5 19.5t82 54t41.5 73t13 83.5
q0 80 -50.5 116t-157.5 36h-119l-54 -382h117z" />
    <glyph glyph-name="uni01A5" unicode="&#x1a5;" horiz-adv-x="567" 
d="M343 527q72 0 109.5 -48.5t37.5 -139.5q0 -54 -13.5 -111t-40 -112t-75.5 -90t-111 -35q-73 0 -154 34l-30 -214l-4 -1l98 706l15 102q7 55 42.5 85t85.5 30q61 0 106 -32l-2 -4q-47 33 -103 33q-49 0 -83.5 -29t-41.5 -83l-15 -102l-12 -94q83 105 191 105zM250 -5
q62 0 110 35t74 89t39 110.5t13 109.5q0 89 -36.5 136.5t-106.5 47.5q-57 0 -102 -26.5t-90 -79.5l-55 -388q81 -34 154 -34z" />
    <glyph glyph-name="uni01A6" unicode="&#x1a6;" horiz-adv-x="562" 
d="M501 397q0 -78 -48.5 -138.5t-145.5 -64.5l145 -333h-5l-144 333h-179l-27 -194h-4l95 680h4l-19 -139h134q194 0 194 -144zM125 198h171q99 0 149.5 59.5t50.5 139.5q0 68 -44 104t-145 36h-135z" />
    <glyph glyph-name="uni01A7" unicode="&#x1a7;" horiz-adv-x="538" 
d="M342 690q71 0 111 -35t40 -94q0 -77 -50.5 -119.5t-156.5 -74.5q-113 -35 -165.5 -85t-52.5 -138q0 -68 46 -108.5t123 -40.5q117 0 208 78l2 -4q-91 -78 -211 -78q-78 0 -125 41.5t-47 111.5q0 89 53 140t167 87q105 33 155 73.5t50 116.5q0 58 -39 91.5t-108 33.5
q-98 0 -187 -64l-2 4q90 64 189 64z" />
    <glyph glyph-name="uni01A8" unicode="&#x1a8;" horiz-adv-x="457" 
d="M271 527q55 0 89 -29t34 -74q0 -51 -33 -87t-130 -64q-56 -15 -93.5 -35t-55 -43t-23.5 -43t-6 -46q0 -51 37.5 -81t100.5 -30q102 0 181 65l2 -3q-80 -66 -183 -66q-65 0 -103.5 31.5t-38.5 83.5q0 57 37 99t144 72q96 27 128 62.5t32 84.5q0 44 -32.5 71.5t-86.5 27.5
q-85 0 -155 -51l-1 3q70 52 156 52z" />
    <glyph glyph-name="uni01A9" unicode="&#x1a9;" horiz-adv-x="481" 
d="M481 680v-4h-358l194 -336v-3l-288 -333h357v-4h-363v4l290 335l-195 337v4h363z" />
    <glyph glyph-name="uni01AA" unicode="&#x1aa;" horiz-adv-x="255" 
d="M231 -161l2 -3q-39 -29 -84 -29q-39 0 -58.5 25.5t-12.5 71.5l12 96l77 551q-36 -25 -80 -25q-33 0 -52.5 20.5t-19.5 57.5q0 55 30.5 92t76.5 37q36 0 52 -25t10 -65l-90 -643l-12 -96q-7 -45 11.5 -69t55.5 -24q45 0 82 28zM88 529q44 0 80 26l12 88q6 39 -8.5 63
t-49.5 24q-45 0 -74 -36t-29 -90q0 -36 18.5 -55.5t50.5 -19.5z" />
    <glyph glyph-name="uni01AB" unicode="&#x1ab;" horiz-adv-x="322" 
d="M156 513l-55 -399q-8 -57 13.5 -88t69.5 -31q43 0 97 26l1 -2l-16 -115q-7 -47 -33.5 -72t-65.5 -25q-45 0 -76 29l2 3q30 -28 74 -28q37 0 62.5 24t32.5 69l16 112q-50 -25 -95 -25q-49 0 -72 32t-14 90l55 400h-87l1 4h87l19 134h4l-19 -134h145v-4h-146z" />
    <glyph glyph-name="uni01AC" unicode="&#x1ac;" horiz-adv-x="492" 
d="M532 680l-1 -4h-214l-95 -676h-4l95 676h-126q-52 0 -80 -25.5t-28 -70.5q0 -29 18 -63l-4 -2q-18 36 -18 65q0 46 29.5 73t83.5 27h344z" />
    <glyph glyph-name="uni01AD" unicode="&#x1ad;" horiz-adv-x="322" 
d="M170 610l-12 -86l-1 -7h145v-4h-146l-55 -399q-8 -57 13.5 -88t69.5 -31q47 0 96 28l2 -4q-50 -28 -99 -28t-72 32t-14 90l55 400h-87l1 4h87l1 7l12 87q8 59 40 90.5t81 31.5q46 0 91 -28l-2 -3q-41 28 -89 28q-47 0 -78.5 -31.5t-38.5 -88.5z" />
    <glyph glyph-name="uni01AE" unicode="&#x1ae;" horiz-adv-x="472" 
d="M202 0l-13 -96q-6 -45 12 -69t55 -24q45 0 82 28l2 -3q-39 -29 -84 -29q-39 0 -58 25t-13 72l13 96l95 676h-215l1 4h433l-1 -4h-214z" />
    <glyph glyph-name="Uhorn" unicode="&#x1af;" horiz-adv-x="636" 
d="M643 709q0 -40 -17.5 -61t-58.5 -24l-59 -418q-13 -99 -68.5 -157t-158.5 -58q-197 0 -169 215l67 474h4l-67 -474q-13 -98 25.5 -154.5t139.5 -56.5t155.5 57t67.5 154l67 474h4l-7 -53q39 4 55 24t16 58q0 26 -6 50l3 1q7 -28 7 -51z" />
    <glyph glyph-name="uhorn" unicode="&#x1b0;" horiz-adv-x="574" 
d="M552 546q0 -40 -17 -61t-57 -25l-64 -460h-4l24 167q-37 -85 -92 -130.5t-120 -45.5q-66 0 -97.5 41t-21.5 118l51 367h4l-51 -367q-10 -75 20.5 -115t95.5 -40t119 46t92 133l48 343h4l-7 -53q38 4 54 24t16 58q0 22 -7 50l4 1q6 -24 6 -51z" />
    <glyph glyph-name="uni01B1" unicode="&#x1b1;" horiz-adv-x="687" 
d="M309 -10q-103 0 -161.5 70t-58.5 189q0 139 57 254t163 173h-135v4h140v-5q-107 -58 -164 -173t-57 -253q0 -118 57 -186.5t159 -68.5q95 0 166 58t106 151t35 206q0 186 -120 266v5h140v-4h-135q51 -33 85 -99.5t34 -167.5q0 -114 -35.5 -208t-107.5 -152.5t-168 -58.5z
" />
    <glyph glyph-name="uni01B2" unicode="&#x1b2;" horiz-adv-x="626" 
d="M510 690q66 0 54 -84l-45 -320q-21 -150 -89 -222.5t-171 -72.5q-85 0 -124 50.5t-27 140.5l70 498h4l-70 -498q-12 -89 26 -138t121 -49q102 0 169 71.5t87 219.5l45 320q12 80 -50 80q-25 0 -49 -11l-2 4q25 11 51 11z" />
    <glyph glyph-name="uni01B3" unicode="&#x1b3;" horiz-adv-x="504" 
d="M458 623q22 36 42 51.5t51 15.5q43 0 77 -38l-2 -3q-33 37 -75 37q-29 0 -48.5 -15t-40.5 -50l-218 -350l-37 -271h-4l37 271l-156 409h4l154 -405z" />
    <glyph glyph-name="uni01B4" unicode="&#x1b4;" horiz-adv-x="435" 
d="M-2 -190v4q75 21 110 58t80 128h-3l-120 517h5l118 -515l220 491q17 39 35 55.5t47 16.5q20 0 38 -8l-1 -4q-18 8 -37 8q-28 0 -44.5 -15.5t-33.5 -54.5l-221 -491q-44 -91 -80.5 -129.5t-112.5 -60.5z" />
    <glyph glyph-name="uni01B5" unicode="&#x1b5;" horiz-adv-x="505" 
d="M514 680l-1 -4l-246 -332h121v-4h-124l-250 -336h388v-4h-393v4l249 336h-125l1 4h127l247 332h-368l1 4h373z" />
    <glyph glyph-name="uni01B6" unicode="&#x1b6;" horiz-adv-x="410" 
d="M406 517v-3l-193 -245h111v-4h-114l-205 -261h319l-1 -4h-324v4l206 261h-112v4h115l193 244h-300v4h305z" />
    <glyph glyph-name="uni01B7" unicode="&#x1b7;" horiz-adv-x="465" 
d="M441 680v-4l-290 -312h66q104 0 151 -46.5t36 -135.5q-11 -87 -70.5 -139t-153.5 -52q-113 0 -178 78l4 3q31 -38 71.5 -57.5t102.5 -19.5q92 0 150 51t70 136q11 88 -35.5 133t-147.5 45h-71v4l289 312h-339v4h345z" />
    <glyph glyph-name="uni01B8" unicode="&#x1b8;" horiz-adv-x="467" 
d="M488 680v-4h-345l207 -312v-4h-72q-108 0 -172 -55.5t-64 -151.5q0 -72 43.5 -115t119.5 -43q68 0 114 19t88 58l4 -3q-43 -39 -90 -58.5t-116 -19.5q-77 0 -122 44.5t-45 117.5q0 98 65.5 154.5t175.5 56.5h66l-207 312v4h350z" />
    <glyph glyph-name="uni01B9" unicode="&#x1b9;" horiz-adv-x="440" 
d="M430 517v-4h-319l184 -323v-3h-50q-110 0 -174.5 -59t-64.5 -157q0 -72 43 -116t119 -44q105 0 187 77l3 -2q-82 -79 -190 -79q-78 0 -122 45t-44 119q0 100 65.5 159.5t177.5 59.5h45l-185 324v3h325z" />
    <glyph glyph-name="uni01BA" unicode="&#x1ba;" horiz-adv-x="443" 
d="M90 -191q-90 29 -90 88q0 41 38.5 65.5t130.5 34.5q103 11 154 47.5t51 110.5q0 56 -32.5 80.5t-98.5 24.5h-125v3l276 250h-309v4h315v-3l-276 -251h119q67 0 101 -25.5t34 -82.5q0 -75 -51.5 -112.5t-156.5 -49.5q-90 -10 -128 -33.5t-38 -62.5q0 -58 88 -84z" />
    <glyph glyph-name="uni01BB" unicode="&#x1bb;" horiz-adv-x="463" 
d="M424 528q0 -60 -26.5 -111.5t-104.5 -137.5h111l-1 -4h-114q-58 -63 -268 -271h338v-4h-344v4q204 201 268 271h-180v4h184q80 88 106.5 138.5t26.5 110.5t-38.5 99t-103.5 39q-93 0 -178 -80l-4 2q44 42 86 62t96 20q66 0 106 -40t40 -102z" />
    <glyph glyph-name="uni01BC" unicode="&#x1bc;" horiz-adv-x="480" 
d="M447 680v-4h-294l-42 -303q67 47 143 47q75 0 114.5 -41.5t39.5 -117.5q0 -33 -6.5 -68t-23.5 -71.5t-41.5 -65t-64.5 -47t-89 -18.5q-107 0 -162 73l4 2q50 -71 158 -71q48 0 87 18t63.5 46.5t41 64.5t23 70.5t6.5 66.5q0 75 -38.5 115t-111.5 40q-74 0 -144 -47h-4
l44 311h297z" />
    <glyph glyph-name="uni01BD" unicode="&#x1bd;" horiz-adv-x="421" 
d="M371 517l-1 -4h-237l-32 -229q57 37 117 37q59 0 90.5 -34t31.5 -95q0 -86 -49.5 -143.5t-134.5 -57.5q-81 0 -127 57l3 2q42 -55 124 -55q83 0 131.5 56t48.5 141q0 59 -30.5 92t-87.5 33q-58 0 -118 -37h-4l33 237h242z" />
    <glyph glyph-name="uni01BE" unicode="&#x1be;" horiz-adv-x="489" 
d="M262 395q141 -29 141 -165q0 -103 -61.5 -169.5t-153.5 -66.5q-98 0 -160 79l3 3q62 -78 157 -78q91 0 151 65.5t60 166.5q0 131 -137 162l-65 14l25 176h-72v4h73l20 144l4 1l-20 -145h119v-4h-120l-25 -173z" />
    <glyph glyph-name="uni01BF" unicode="&#x1bf;" horiz-adv-x="562" 
d="M355 527q66 0 104.5 -38.5t38.5 -105.5q0 -62 -24.5 -114.5t-73 -96.5t-103.5 -78t-133 -72l-74 -35l-25 -177l-4 -1l99 708h4l-12 -93q94 103 203 103zM163 26q77 37 131.5 71t102.5 77t72.5 95.5t24.5 113.5q0 66 -37 103t-102 37q-109 0 -204 -105l-60 -427z" />
    <glyph glyph-name="uni01C0" unicode="&#x1c0;" horiz-adv-x="263" 
d="M199 731l-102 -731h-4l102 730z" />
    <glyph glyph-name="uni01C1" unicode="&#x1c1;" horiz-adv-x="393" 
d="M330 731l-102 -731h-4l102 730zM199 731l-102 -731h-4l102 730z" />
    <glyph glyph-name="uni01C2" unicode="&#x1c2;" horiz-adv-x="338" 
d="M309 435h-117l-20 -146h116v-3h-117l-40 -286h-3l40 286h-111v3h111l21 146h-111v3h111l41 292l4 1l-41 -293h116v-3z" />
    <glyph glyph-name="uni01C3" unicode="&#x1c3;" horiz-adv-x="276" 
d="M205 731l-76 -543h-4l76 542zM102 13q9 0 9 -9q0 -8 -9 -8t-9 8q0 9 9 9z" />
    <glyph glyph-name="uni01C4" unicode="&#x1c4;" horiz-adv-x="1108" 
d="M1043 847l2 -2l-121 -80h-3l-97 80l3 2l96 -78zM294 680q53 0 94.5 -10.5t79.5 -35.5t59 -75t21 -123q0 -64 -10.5 -124t-36.5 -117.5t-64 -100t-97.5 -68.5t-133.5 -26h-113l95 680h106zM613 0v4l499 672h-368l1 4h373l-1 -4l-499 -672h388v-4h-393zM294 676h-102
l-94 -672h108q73 0 132 26t96.5 68t63 99t36 116.5t10.5 122.5q0 71 -20.5 120.5t-58 74.5t-78.5 35t-93 10z" />
    <glyph glyph-name="uni01C5" unicode="&#x1c5;" horiz-adv-x="1024" 
d="M1004 735l2 -3l-122 -85h-3l-96 85l3 3l95 -83zM294 680q53 0 94.5 -10.5t79.5 -35.5t59 -75t21 -123q0 -64 -10.5 -124t-36.5 -117.5t-64 -100t-97.5 -68.5t-133.5 -26h-113l95 680h106zM294 676h-102l-94 -672h108q73 0 132 26t96.5 68t63 99t36 116.5t10.5 122.5
q0 71 -20.5 120.5t-58 74.5t-78.5 35t-93 10zM1020 517v-3l-401 -510h319l-1 -4h-324v4l402 509h-300v4h305z" />
    <glyph glyph-name="uni01C6" unicode="&#x1c6;" horiz-adv-x="981" 
d="M961 735l2 -3l-122 -85h-3l-96 85l3 3l95 -83zM509 731l4 -1l-102 -730h-4l21 147q-42 -73 -88 -114.5t-112 -41.5q-69 0 -109.5 50.5t-40.5 141.5q0 54 13 110.5t39 110.5t75 88.5t112 34.5q58 0 95.5 -29.5t53.5 -71.5zM317 523q-63 0 -111 -34t-73.5 -87.5t-38 -109
t-12.5 -109.5q0 -89 39.5 -138.5t106.5 -49.5q66 0 112.5 42t87.5 117l38 266q-39 103 -149 103zM977 517v-3l-401 -510h319l-1 -4h-324v4l402 509h-300v4h305z" />
    <glyph glyph-name="uni01C7" unicode="&#x1c7;" horiz-adv-x="720" 
d="M192 680l-94 -676h288l-1 -4h-292l95 680h4zM656 680l-83 -595q-10 -73 -38.5 -110t-106.5 -67l-2 4q76 29 104.5 65.5t38.5 108.5l83 594h4z" />
    <glyph glyph-name="uni01C8" unicode="&#x1c8;" horiz-adv-x="698" 
d="M635 708q7 0 7 -8q0 -7 -8 -7q-7 0 -7 8q0 7 8 7zM192 680l-94 -676h288l-1 -4h-292l95 680h4zM610 517l-72 -516q-12 -86 -39 -124.5t-87 -67.5l-2 2q59 29 86 67.5t38 123.5l72 515h4z" />
    <glyph glyph-name="uni01C9" unicode="&#x1c9;" horiz-adv-x="538" 
d="M189 731l-93 -666q-10 -70 50 -70q21 0 42 8v-4q-21 -8 -42 -8q-64 0 -54 74l93 665zM474 708q7 0 7 -8q0 -7 -8 -7q-7 0 -7 8q0 7 8 7zM449 517l-72 -516q-12 -86 -39 -124.5t-87 -67.5l-2 2q59 29 86 67.5t38 123.5l72 515h4z" />
    <glyph glyph-name="uni01CA" unicode="&#x1ca;" horiz-adv-x="929" 
d="M584 680l-95 -680h-5l-292 675l-16 -113l-79 -562h-4l95 680h6l292 -674q8 56 19 137l75 537h4zM865 680l-83 -595q-10 -73 -38.5 -110t-106.5 -67l-2 4q76 29 104.5 65.5t38.5 108.5l83 594h4z" />
    <glyph glyph-name="uni01CB" unicode="&#x1cb;" horiz-adv-x="907" 
d="M844 708q7 0 7 -8q0 -7 -8 -7q-7 0 -7 8q0 7 8 7zM584 680l-95 -680h-5l-292 675l-16 -113l-79 -562h-4l95 680h6l292 -674q8 56 19 137l75 537h4zM819 517l-72 -516q-12 -86 -39 -124.5t-87 -67.5l-2 2q59 29 86 67.5t38 123.5l72 515h4z" />
    <glyph glyph-name="uni01CC" unicode="&#x1cc;" horiz-adv-x="833" 
d="M769 708q7 0 7 -8q0 -7 -8 -7q-7 0 -7 8q0 7 8 7zM368 527q64 0 91.5 -41.5t17.5 -117.5l-52 -368h-4l52 368q10 75 -16 115.5t-89 40.5q-68 0 -123 -46t-107 -150l-46 -328h-4l72 517h4l-24 -180q50 100 105.5 145t122.5 45zM744 517l-72 -516q-12 -86 -39 -124.5
t-87 -67.5l-2 2q59 29 86 67.5t38 123.5l72 515h4z" />
    <glyph glyph-name="uni01CD" unicode="&#x1cd;" horiz-adv-x="556" 
d="M344 765h-3l-97 80l3 2l96 -78l120 78l2 -2zM482 0l-46 212h-329l-105 -212h-4l337 680h3l148 -680h-4zM109 216h326l-99 459z" />
    <glyph glyph-name="uni01CE" unicode="&#x1ce;" horiz-adv-x="540" 
d="M475 735l2 -3l-122 -85h-3l-96 85l3 3l95 -83zM336 527q70 0 127 -40l-56 -367q-5 -35 -5 -55q0 -56 42 -71l-2 -3q-25 9 -35.5 30t-8.5 44.5t4 48.5q-33 -60 -79 -91.5t-96 -31.5q-72 0 -113 53.5t-41 139.5q0 57 14 114t43 110t82.5 86t123.5 33zM336 524
q-56 0 -101.5 -22t-74 -57t-48 -80.5t-27.5 -90.5t-8 -90q0 -85 40 -137t110 -52q50 0 96.5 32t80.5 95l55 363q-55 39 -123 39z" />
    <glyph glyph-name="uni01CF" unicode="&#x1cf;" horiz-adv-x="263" 
d="M317 847l2 -2l-121 -80h-3l-97 80l3 2l96 -78zM192 680l-95 -680h-4l95 680h4z" />
    <glyph glyph-name="uni01D0" unicode="&#x1d0;" horiz-adv-x="253" 
d="M302 735l2 -3l-122 -85h-3l-96 85l3 3l95 -83zM164 517l-72 -517h-4l72 517h4z" />
    <glyph glyph-name="uni01D1" unicode="&#x1d1;" horiz-adv-x="687" 
d="M528 847l2 -2l-121 -80h-3l-97 80l3 2l96 -78zM403 690q104 0 161.5 -68t57.5 -193q0 -55 -9 -111t-32 -116t-57.5 -106t-91 -75.5t-126.5 -29.5q-103 0 -160 68.5t-57 192.5q0 53 10 110t33.5 116.5t58.5 106t90 76t122 29.5zM403 686q-67 0 -121 -29.5t-88.5 -75.5
t-58 -105t-33 -115t-9.5 -109q0 -123 56 -190t157 -67q70 0 125.5 29.5t89.5 75t56.5 105t31.5 115t9 109.5q0 123 -56.5 190t-158.5 67z" />
    <glyph glyph-name="uni01D2" unicode="&#x1d2;" horiz-adv-x="559" 
d="M455 735l2 -3l-122 -85h-3l-96 85l3 3l95 -83zM318 527q79 0 123 -52t44 -147q0 -53 -12.5 -108t-39 -108.5t-76 -87t-115.5 -33.5q-80 0 -124 53t-44 148q0 54 13 109t40 107.5t76.5 85.5t114.5 33zM318 523q-52 0 -94 -22t-68.5 -56.5t-44.5 -79.5t-25.5 -88t-7.5 -85
q0 -94 43 -145.5t121 -51.5q65 0 113.5 33t74.5 86t38.5 107t12.5 107q0 93 -42.5 144t-120.5 51z" />
    <glyph glyph-name="uni01D3" unicode="&#x1d3;" horiz-adv-x="636" 
d="M504 847l2 -2l-121 -80h-3l-97 80l3 2l96 -78zM575 680l-67 -474q-13 -99 -68.5 -157t-158.5 -58q-197 0 -169 215l67 474h4l-67 -474q-13 -98 25.5 -154.5t139.5 -56.5t155.5 57t67.5 154l67 474h4z" />
    <glyph glyph-name="uni01D4" unicode="&#x1d4;" horiz-adv-x="574" 
d="M460 735l2 -3l-122 -85h-3l-96 85l3 3l95 -83zM486 517l-72 -517h-4l24 167q-37 -85 -92 -130.5t-120 -45.5q-66 0 -97.5 41t-21.5 118l51 367h4l-51 -367q-10 -75 20.5 -115t95.5 -40t119 46t92 133l48 343h4z" />
    <glyph glyph-name="uni01D5" unicode="&#x1d5;" horiz-adv-x="636" 
d="M489 834h-192v4h192v-4zM309 757q7 0 7 -7q0 -8 -8 -8q-7 0 -7 8q0 7 8 7zM459 757q8 0 8 -7q-2 -8 -8 -8q-7 0 -7 8q0 7 7 7zM575 680l-67 -474q-13 -99 -68.5 -157t-158.5 -58q-197 0 -169 215l67 474h4l-67 -474q-13 -98 25.5 -154.5t139.5 -56.5t155.5 57t67.5 154
l67 474h4z" />
    <glyph glyph-name="uni01D6" unicode="&#x1d6;" horiz-adv-x="574" 
d="M452 744h-192v4h192v-4zM272 663q7 0 7 -7q0 -8 -8 -8q-7 0 -7 8q0 7 8 7zM422 663q8 0 8 -7q-2 -8 -8 -8q-7 0 -7 8q0 7 7 7zM486 517l-72 -517h-4l24 167q-37 -85 -92 -130.5t-120 -45.5q-66 0 -97.5 41t-21.5 118l51 367h4l-51 -367q-10 -75 20.5 -115t95.5 -40
t119 46t92 133l48 343h4z" />
    <glyph glyph-name="uni01D7" unicode="&#x1d7;" horiz-adv-x="636" 
d="M481 889l3 -4l-105 -107l-3 2zM319 757q7 0 7 -8q0 -7 -7 -7q-9 0 -7 8q0 7 7 7zM445 757q9 0 7 -8q0 -7 -7 -7q-9 0 -7 8q0 7 7 7zM575 680l-67 -474q-13 -99 -68.5 -157t-158.5 -58q-197 0 -169 215l67 474h4l-67 -474q-13 -98 25.5 -154.5t139.5 -56.5t155.5 57
t67.5 154l67 474h4z" />
    <glyph glyph-name="uni01D8" unicode="&#x1d8;" horiz-adv-x="574" 
d="M427 795l3 -4l-105 -107l-3 2zM268 663q7 0 7 -7q0 -8 -7 -8q-8 0 -8 8q2 7 8 7zM394 663q7 0 7 -7q0 -8 -7 -8q-8 0 -8 8q2 7 8 7zM486 517l-72 -517h-4l24 167q-37 -85 -92 -130.5t-120 -45.5q-66 0 -97.5 41t-21.5 118l51 367h4l-51 -367q-10 -75 20.5 -115t95.5 -40
t119 46t92 133l48 343h4z" />
    <glyph glyph-name="uni01D9" unicode="&#x1d9;" horiz-adv-x="636" 
d="M505 853l2 -2l-121 -80h-3l-97 80l3 2l96 -78zM319 757q7 0 7 -8q0 -7 -7 -7q-8 0 -8 8q0 7 8 7zM445 757q7 0 7 -8q0 -7 -7 -7q-8 0 -8 8q0 7 8 7zM575 680l-67 -474q-13 -99 -68.5 -157t-158.5 -58q-197 0 -169 215l67 474h4l-67 -474q-13 -98 25.5 -154.5t139.5 -56.5
t155.5 57t67.5 154l67 474h4z" />
    <glyph glyph-name="uni01DA" unicode="&#x1da;" horiz-adv-x="574" 
d="M452 759l2 -2l-121 -80h-3l-97 80l3 2l96 -78zM267 663q8 0 8 -7q0 -8 -8 -8q-7 0 -7 8q0 7 7 7zM393 663q8 0 8 -7q0 -8 -8 -8q-7 0 -7 8q0 7 7 7zM486 517l-72 -517h-4l24 167q-37 -85 -92 -130.5t-120 -45.5q-66 0 -97.5 41t-21.5 118l51 367h4l-51 -367
q-10 -75 20.5 -115t95.5 -40t119 46t92 133l48 343h4z" />
    <glyph glyph-name="uni01DB" unicode="&#x1db;" horiz-adv-x="636" 
d="M323 889l75 -109l-4 -2l-75 107zM319 757q7 0 7 -8q0 -7 -7 -7q-9 0 -7 8q0 7 7 7zM445 757q9 0 7 -8q0 -7 -7 -7q-9 0 -7 8q0 7 7 7zM575 680l-67 -474q-13 -99 -68.5 -157t-158.5 -58q-197 0 -169 215l67 474h4l-67 -474q-13 -98 25.5 -154.5t139.5 -56.5t155.5 57
t67.5 154l67 474h4z" />
    <glyph glyph-name="uni01DC" unicode="&#x1dc;" horiz-adv-x="574" 
d="M268 795l75 -109l-4 -2l-75 107zM268 663q7 0 7 -7q0 -8 -7 -8q-8 0 -8 8q0 7 8 7zM394 663q7 0 7 -7q0 -8 -7 -8q-8 0 -8 8q0 7 8 7zM486 517l-72 -517h-4l24 167q-37 -85 -92 -130.5t-120 -45.5q-66 0 -97.5 41t-21.5 118l51 367h4l-51 -367q-10 -75 20.5 -115
t95.5 -40t119 46t92 133l48 343h4z" />
    <glyph glyph-name="uni01DD" unicode="&#x1dd;" horiz-adv-x="520" 
d="M281 526q77 0 121 -51.5t44 -147.5q0 -39 -7.5 -82t-26 -89t-46 -82.5t-72 -60t-99.5 -23.5q-60 0 -100.5 30t-40.5 83q0 84 95.5 135.5t291.5 60.5q1 9 1 27q0 95 -42.5 145.5t-118.5 50.5q-79 0 -161 -58l-2 3q81 59 163 59zM195 -6q61 0 109.5 29.5t76 76.5t42 96.5
t18.5 99.5q-194 -9 -288.5 -60t-94.5 -133q0 -51 39.5 -80t97.5 -29z" />
    <glyph glyph-name="uni01DE" unicode="&#x1de;" horiz-adv-x="556" 
d="M449 838v-4h-192v4h192zM261 750q0 7 8 7q7 0 7 -7q0 -8 -8 -8q-7 0 -7 8zM412 750q0 7 7 7q8 0 8 -7q-2 -8 -8 -8q-7 0 -7 8zM482 0l-46 212h-329l-105 -212h-4l337 680h3l148 -680h-4zM109 216h326l-99 459z" />
    <glyph glyph-name="uni01DF" unicode="&#x1df;" horiz-adv-x="540" 
d="M467 744h-192v4h192v-4zM287 663q7 0 7 -7q0 -8 -8 -8q-7 0 -7 8q0 7 8 7zM437 663q8 0 8 -7q-2 -8 -8 -8q-7 0 -7 8q0 7 7 7zM336 527q70 0 127 -40l-56 -367q-5 -35 -5 -55q0 -56 42 -71l-2 -3q-25 9 -35.5 30t-8.5 44.5t4 48.5q-33 -60 -79 -91.5t-96 -31.5
q-72 0 -113 53.5t-41 139.5q0 57 14 114t43 110t82.5 86t123.5 33zM336 524q-56 0 -101.5 -22t-74 -57t-48 -80.5t-27.5 -90.5t-8 -90q0 -85 40 -137t110 -52q50 0 96.5 32t80.5 95l55 363q-55 39 -123 39z" />
    <glyph glyph-name="uni01E0" unicode="&#x1e0;" horiz-adv-x="556" 
d="M452 838v-4h-192v4h192zM338 759q0 7 8 7q7 0 7 -8q0 -7 -8 -7q-7 0 -7 8zM482 0l-46 212h-329l-105 -212h-4l337 680h3l148 -680h-4zM109 216h326l-99 459z" />
    <glyph glyph-name="uni01E1" unicode="&#x1e1;" horiz-adv-x="540" 
d="M461 736h-192v4h192v-4zM353 649q7 0 7 -8q0 -7 -8 -7q-7 0 -7 8q0 7 8 7zM336 527q70 0 127 -40l-56 -367q-5 -35 -5 -55q0 -56 42 -71l-2 -3q-25 9 -35.5 30t-8.5 44.5t4 48.5q-33 -60 -79 -91.5t-96 -31.5q-72 0 -113 53.5t-41 139.5q0 57 14 114t43 110t82.5 86
t123.5 33zM336 524q-56 0 -101.5 -22t-74 -57t-48 -80.5t-27.5 -90.5t-8 -90q0 -85 40 -137t110 -52q50 0 96.5 32t80.5 95l55 363q-55 39 -123 39z" />
    <glyph glyph-name="uni01E2" unicode="&#x1e2;" horiz-adv-x="751" 
d="M630 819v-4h-192v4h192zM705 676h-357l39 -313h265l-1 -4h-264l44 -355h235l-1 -4h-238l-25 204h-306l-108 -204h-4l358 680h363v-4zM402 208l-58 469l-246 -469h304z" />
    <glyph glyph-name="uni01E3" unicode="&#x1e3;" horiz-adv-x="837" 
d="M577 689h-192v4h192v-4zM296 527q57 0 97 -36t42 -107q64 143 207 143q60 0 100.5 -30t40.5 -83q0 -84 -95.5 -135.5t-291.5 -60.5q-2 -38 4 -74t22 -71t50.5 -56.5t83.5 -21.5q80 0 161 59l2 -4q-81 -59 -163 -59q-126 0 -156 131q-52 -70 -100.5 -100.5t-111.5 -30.5
t-97.5 35.5t-34.5 92.5q0 77 55 126.5t170 49.5h123q10 44 27 83q-1 72 -39.5 108.5t-95.5 36.5q-64 0 -152 -33l-1 3q86 34 153 34zM642 523q-55 0 -99.5 -24t-69.5 -57.5t-43 -78.5t-24.5 -77.5t-9.5 -64.5q194 10 288 60.5t94 132.5q0 51 -39 80t-97 29zM403 292h-122
q-113 0 -167 -48.5t-54 -124.5q0 -56 33 -90t95 -34q63 0 110 31t100 100q-16 71 5 166z" />
    <glyph glyph-name="uni01E4" unicode="&#x1e4;" horiz-adv-x="612" 
d="M596 224l-1 -4h-79l-26 -181q-90 -48 -173 -48q-107 0 -167 68.5t-60 196.5q0 76 19.5 150.5t56.5 139t99 104.5t139 40q84 0 151 -55l-2 -4q-67 55 -149 55q-77 0 -138.5 -40t-97.5 -104.5t-55 -138t-19 -147.5q0 -127 58.5 -194t164.5 -67q83 0 169 46l26 179h-148v4
h148l17 115h-150v4h154l-17 -119h80z" />
    <glyph glyph-name="uni01E5" unicode="&#x1e5;" horiz-adv-x="487" 
d="M463 -73v-3h-89q-40 -116 -163 -116q-91 0 -160 46l2 4q69 -46 158 -46q119 0 159 112h-138v3h139q10 29 14 62l21 141q-33 -64 -80.5 -97t-97.5 -33q-72 0 -112.5 55t-40.5 141q0 57 13.5 112t42.5 106t82 82t123 31t127 -40l-74 -497q-4 -31 -14 -63h88zM228 4
q108 0 179 135l52 346q-55 39 -123 39q-69 0 -121.5 -31t-80.5 -81.5t-41.5 -104.5t-13.5 -111q0 -85 39.5 -138.5t109.5 -53.5z" />
    <glyph glyph-name="Gcaron" unicode="&#x1e6;" horiz-adv-x="601" 
d="M524 847l2 -2l-121 -80h-3l-97 80l3 2l96 -78zM404 690q84 0 151 -55l-2 -4q-67 55 -149 55q-77 0 -138.5 -40t-97.5 -104.5t-55 -138t-19 -147.5q0 -127 58.5 -194t164.5 -67q83 0 169 46l43 298h-150v4h154l-43 -304q-90 -48 -173 -48q-107 0 -167 68.5t-60 196.5
q0 76 19.5 150.5t56.5 139t99 104.5t139 40z" />
    <glyph glyph-name="gcaron" unicode="&#x1e7;" horiz-adv-x="550" 
d="M455 735l2 -3l-122 -85h-3l-96 85l3 3l95 -83zM336 527q70 0 127 -40l-74 -497q-15 -100 -60.5 -141t-117.5 -41q-91 0 -160 46l2 4q69 -46 158 -46q70 0 115 40t59 137l21 141q-33 -64 -80.5 -97t-97.5 -33q-72 0 -112.5 55t-40.5 141q0 57 13.5 112t42.5 106t82 82
t123 31zM336 524q-69 0 -121.5 -31t-80.5 -81.5t-41.5 -104.5t-13.5 -111q0 -85 39.5 -138.5t109.5 -53.5q108 0 179 135l52 346q-55 39 -123 39z" />
    <glyph glyph-name="uni01E8" unicode="&#x1e8;" horiz-adv-x="505" 
d="M470 847l2 -2l-121 -80h-3l-97 80l3 2l96 -78zM192 680l-95 -679h-4l95 679h4zM534 680l-377 -314l298 -366h-6l-298 366l377 314h6z" />
    <glyph glyph-name="uni01E9" unicode="&#x1e9;" horiz-adv-x="509" 
d="M474 894l2 -2l-121 -80h-3l-97 80l3 2l96 -78zM194 731l-58 -419q47 104 106 159.5t125 55.5q49 0 77 -27.5t28 -74.5q0 -65 -48.5 -108.5t-140.5 -73.5l128 -243h-5l-128 245q93 30 141.5 73t48.5 106q0 46 -26 73t-75 27q-65 0 -125 -57.5t-108 -164.5l-42 -302h-4
l102 730z" />
    <glyph glyph-name="uni01EA" unicode="&#x1ea;" horiz-adv-x="687" 
d="M371 -2q-146 -54 -146 -129q0 -60 66 -60q23 0 54 8l-1 -4q-29 -8 -54 -8q-32 0 -50.5 16t-18.5 47q0 76 136 127q-21 -4 -51 -4q-103 0 -160 68.5t-57 192.5q0 53 10 110t33.5 116.5t58.5 106t90 76t122 29.5q104 0 161.5 -68t57.5 -193q0 -63 -12.5 -127t-40 -128.5
t-78.5 -112.5t-120 -63zM93 252q0 -123 56 -190t157 -67q70 0 125.5 29.5t89.5 75t56.5 105t31.5 115t9 109.5q0 123 -56.5 190t-158.5 67q-67 0 -121 -29.5t-88.5 -75.5t-58 -105t-33 -115t-9.5 -109z" />
    <glyph glyph-name="uni01EB" unicode="&#x1eb;" horiz-adv-x="559" 
d="M292 -3q-70 -27 -106 -57.5t-36 -70.5q0 -60 66 -60q23 0 54 8l-1 -4q-29 -8 -54 -8q-32 0 -50.5 16t-18.5 47q0 75 132 126q-16 -3 -36 -3q-80 0 -124 53t-44 148q0 54 13 109t40 107.5t76.5 85.5t114.5 33q79 0 123 -52t44 -147q0 -48 -10 -97.5t-31.5 -99t-60.5 -86
t-91 -48.5zM78 192q0 -94 43 -145.5t121 -51.5q65 0 113.5 33t74.5 86t38.5 107t12.5 107q0 93 -42.5 144t-120.5 51q-52 0 -94 -22t-68.5 -56.5t-44.5 -79.5t-25.5 -88t-7.5 -85z" />
    <glyph glyph-name="uni01EC" unicode="&#x1ec;" horiz-adv-x="687" 
d="M516 819v-4h-192v4h192zM371 -2q-146 -54 -146 -129q0 -60 66 -60q23 0 54 8l-1 -4q-29 -8 -54 -8q-32 0 -50.5 16t-18.5 47q0 76 136 127q-21 -4 -51 -4q-103 0 -160 68.5t-57 192.5q0 53 10 110t33.5 116.5t58.5 106t90 76t122 29.5q104 0 161.5 -68t57.5 -193
q0 -63 -12.5 -127t-40 -128.5t-78.5 -112.5t-120 -63zM93 252q0 -123 56 -190t157 -67q70 0 125.5 29.5t89.5 75t56.5 105t31.5 115t9 109.5q0 123 -56.5 190t-158.5 67q-67 0 -121 -29.5t-88.5 -75.5t-58 -105t-33 -115t-9.5 -109z" />
    <glyph glyph-name="uni01ED" unicode="&#x1ed;" horiz-adv-x="559" 
d="M436 693v-4h-192v4h192zM292 -3q-70 -27 -106 -57.5t-36 -70.5q0 -60 66 -60q23 0 54 8l-1 -4q-29 -8 -54 -8q-32 0 -50.5 16t-18.5 47q0 75 132 126q-16 -3 -36 -3q-80 0 -124 53t-44 148q0 54 13 109t40 107.5t76.5 85.5t114.5 33q79 0 123 -52t44 -147
q0 -48 -10 -97.5t-31.5 -99t-60.5 -86t-91 -48.5zM78 192q0 -94 43 -145.5t121 -51.5q65 0 113.5 33t74.5 86t38.5 107t12.5 107q0 93 -42.5 144t-120.5 51q-52 0 -94 -22t-68.5 -56.5t-44.5 -79.5t-25.5 -88t-7.5 -85z" />
    <glyph glyph-name="uni01EE" unicode="&#x1ee;" horiz-adv-x="465" 
d="M286 765h-3l-97 80l3 2l96 -78l120 78l2 -2zM441 680v-4l-290 -312h66q104 0 151 -46.5t36 -135.5q-11 -87 -70.5 -139t-153.5 -52q-113 0 -178 78l4 3q31 -38 71.5 -57.5t102.5 -19.5q92 0 150 51t70 136q11 88 -35.5 133t-147.5 45h-71v4l289 312h-339v4h345z" />
    <glyph glyph-name="uni01EF" unicode="&#x1ef;" horiz-adv-x="439" 
d="M262 647h-3l-96 85l3 3l95 -83l121 83l2 -3zM403 517l-1 -3l-270 -324h45q189 0 189 -151q0 -101 -60.5 -166.5t-159.5 -65.5q-105 0 -169 79l4 2q61 -77 165 -77q97 0 156.5 64.5t59.5 163.5q0 148 -186 148h-50v3l271 323h-316v4h322z" />
    <glyph glyph-name="uni01F0" unicode="&#x1f0;" horiz-adv-x="253" 
d="M302 735l2 -3l-122 -85h-3l-96 85l3 3l95 -83zM164 517l-72 -516q-12 -86 -39 -124.5t-87 -67.5l-2 2q59 29 86 67.5t38 123.5l72 515h4z" />
    <glyph glyph-name="uni01F1" unicode="&#x1f1;" horiz-adv-x="1108" 
d="M294 680q53 0 94.5 -10.5t79.5 -35.5t59 -75t21 -123q0 -64 -10.5 -124t-36.5 -117.5t-64 -100t-97.5 -68.5t-133.5 -26h-113l95 680h106zM613 0v4l499 672h-368l1 4h373l-1 -4l-499 -672h388v-4h-393zM294 676h-102l-94 -672h108q73 0 132 26t96.5 68t63 99t36 116.5
t10.5 122.5q0 71 -20.5 120.5t-58 74.5t-78.5 35t-93 10z" />
    <glyph glyph-name="uni01F2" unicode="&#x1f2;" horiz-adv-x="1024" 
d="M294 680q53 0 94.5 -10.5t79.5 -35.5t59 -75t21 -123q0 -64 -10.5 -124t-36.5 -117.5t-64 -100t-97.5 -68.5t-133.5 -26h-113l95 680h106zM294 676h-102l-94 -672h108q73 0 132 26t96.5 68t63 99t36 116.5t10.5 122.5q0 71 -20.5 120.5t-58 74.5t-78.5 35t-93 10z
M1020 517v-3l-401 -510h319l-1 -4h-324v4l402 509h-300v4h305z" />
    <glyph glyph-name="uni01F3" unicode="&#x1f3;" horiz-adv-x="981" 
d="M509 731l4 -1l-102 -730h-4l21 147q-42 -73 -88 -114.5t-112 -41.5q-69 0 -109.5 50.5t-40.5 141.5q0 54 13 110.5t39 110.5t75 88.5t112 34.5q58 0 95.5 -29.5t53.5 -71.5zM317 523q-63 0 -111 -34t-73.5 -87.5t-38 -109t-12.5 -109.5q0 -89 39.5 -138.5t106.5 -49.5
q66 0 112.5 42t87.5 117l38 266q-39 103 -149 103zM977 517v-3l-401 -510h319l-1 -4h-324v4l402 509h-300v4h305z" />
    <glyph glyph-name="uni01F4" unicode="&#x1f4;" horiz-adv-x="601" 
d="M503 844l2 -4l-177 -70l-1 4zM404 690q84 0 151 -55l-2 -4q-67 55 -149 55q-77 0 -138.5 -40t-97.5 -104.5t-55 -138t-19 -147.5q0 -127 58.5 -194t164.5 -67q83 0 169 46l43 298h-150v4h154l-43 -304q-90 -48 -173 -48q-107 0 -167 68.5t-60 196.5q0 76 19.5 150.5
t56.5 139t99 104.5t139 40z" />
    <glyph glyph-name="uni01F5" unicode="&#x1f5;" horiz-adv-x="550" 
d="M431 748l2 -5l-180 -82l-1 4zM336 527q70 0 127 -40l-74 -497q-15 -100 -60.5 -141t-117.5 -41q-91 0 -160 46l2 4q69 -46 158 -46q70 0 115 40t59 137l21 141q-33 -64 -80.5 -97t-97.5 -33q-72 0 -112.5 55t-40.5 141q0 57 13.5 112t42.5 106t82 82t123 31zM336 524
q-69 0 -121.5 -31t-80.5 -81.5t-41.5 -104.5t-13.5 -111q0 -85 39.5 -138.5t109.5 -53.5q108 0 179 135l52 346q-55 39 -123 39z" />
    <glyph glyph-name="uni01F6" unicode="&#x1f6;" horiz-adv-x="955" 
d="M865 517q3 -42 3 -93q0 -62 -5.5 -118t-21.5 -115.5t-41.5 -102t-68.5 -70t-99 -27.5q-54 0 -85.5 26.5t-39 61t-1.5 75.5l30 210h-388l-51 -364h-4l95 680h4l-44 -312h388l44 312h4l-74 -526q-9 -67 19.5 -113t102.5 -46q69 0 117 40t72 108t33.5 136t9.5 145
q0 51 -3 93h4z" />
    <glyph glyph-name="uni01F7" unicode="&#x1f7;" horiz-adv-x="553" 
d="M378 690q68 0 108 -39.5t40 -108.5q0 -106 -71.5 -168.5t-201.5 -103.5l-123 -39l-33 -231h-4l95 680h4l-10 -77q91 87 196 87zM253 274q62 20 107 42.5t83.5 54t58.5 74.5t20 97q0 68 -38.5 106t-105.5 38q-104 0 -197 -89l-51 -362z" />
    <glyph glyph-name="uni01F8" unicode="&#x1f8;" horiz-adv-x="655" 
d="M331 844l158 -70l-2 -4l-158 70zM584 680l-95 -680h-5l-292 675l-16 -113l-79 -562h-4l95 680h6l292 -674q8 56 19 137l75 537h4z" />
    <glyph glyph-name="uni01F9" unicode="&#x1f9;" horiz-adv-x="580" 
d="M289 748l156 -84l-2 -3l-156 82zM368 527q64 0 91.5 -41.5t17.5 -117.5l-52 -368h-4l52 368q10 75 -16 115.5t-89 40.5q-68 0 -123 -46t-107 -150l-46 -328h-4l72 517h4l-24 -180q50 100 105.5 145t122.5 45z" />
    <glyph glyph-name="Aringacute" unicode="&#x1fa;" horiz-adv-x="556" 
d="M458 960l-177 -70l-1 4l176 70zM287 804q4 29 24 47.5t50 18.5t44.5 -17.5t10.5 -46.5q-3 -30 -22.5 -48t-49.5 -18q-31 0 -46 17.5t-11 46.5zM413 806q6 60 -52 60q-29 0 -47.5 -17t-22.5 -45t10 -44t43 -16q28 0 47 17.5t22 44.5zM482 0l-46 212h-329l-105 -212h-4
l337 680h3l148 -680h-4zM109 216h326l-99 459z" />
    <glyph glyph-name="aringacute" unicode="&#x1fb;" horiz-adv-x="540" 
d="M459 812l2 -4l-177 -70l-1 4zM361 715q30 0 44.5 -17.5t10.5 -46.5q-3 -30 -22.5 -48t-49.5 -18q-31 0 -46 17.5t-11 46.5t24 47.5t50 18.5zM361 711q-29 0 -47.5 -17t-22.5 -45t10 -44t43 -16q28 0 47 17.5t22 44.5q6 60 -52 60zM336 527q70 0 127 -40l-56 -367
q-5 -35 -5 -55q0 -56 42 -71l-2 -3q-25 9 -35.5 30t-8.5 44.5t4 48.5q-33 -60 -79 -91.5t-96 -31.5q-72 0 -113 53.5t-41 139.5q0 57 14 114t43 110t82.5 86t123.5 33zM336 524q-56 0 -101.5 -22t-74 -57t-48 -80.5t-27.5 -90.5t-8 -90q0 -85 40 -137t110 -52q50 0 96.5 32
t80.5 95l55 363q-55 39 -123 39z" />
    <glyph glyph-name="AEacute" unicode="&#x1fc;" horiz-adv-x="751" 
d="M622 840l-177 -70l-1 4l176 70zM705 676h-357l39 -313h265l-1 -4h-264l44 -355h235l-1 -4h-238l-25 204h-306l-108 -204h-4l358 680h363v-4zM402 208l-58 469l-246 -469h304z" />
    <glyph glyph-name="aeacute" unicode="&#x1fd;" horiz-adv-x="837" 
d="M572 748l2 -5l-180 -82l-1 4zM296 527q57 0 97 -36t42 -107q64 143 207 143q60 0 100.5 -30t40.5 -83q0 -84 -95.5 -135.5t-291.5 -60.5q-2 -38 4 -74t22 -71t50.5 -56.5t83.5 -21.5q80 0 161 59l2 -4q-81 -59 -163 -59q-126 0 -156 131q-52 -70 -100.5 -100.5
t-111.5 -30.5t-97.5 35.5t-34.5 92.5q0 77 55 126.5t170 49.5h123q10 44 27 83q-1 72 -39.5 108.5t-95.5 36.5q-64 0 -152 -33l-1 3q86 34 153 34zM642 523q-55 0 -99.5 -24t-69.5 -57.5t-43 -78.5t-24.5 -77.5t-9.5 -64.5q194 10 288 60.5t94 132.5q0 51 -39 80t-97 29z
M403 292h-122q-113 0 -167 -48.5t-54 -124.5q0 -56 33 -90t95 -34q63 0 110 31t100 100q-16 71 5 166z" />
    <glyph glyph-name="Oslashacute" unicode="&#x1fe;" horiz-adv-x="687" 
d="M510 841l-177 -70l-1 4l176 70zM499 671q123 -54 123 -242q0 -55 -9 -111t-32 -116t-57.5 -106t-91 -75.5t-126.5 -29.5q-50 0 -92 17l-49 -112l-4 2l50 112q-122 56 -122 242q0 53 10 110t33.5 116.5t58.5 106t90 76t122 29.5q51 0 93 -17l51 115l2 -1zM93 253
q0 -184 119 -239l282 655q-37 17 -91 17q-66 0 -120.5 -29.5t-89 -76t-58 -105.5t-33 -114.5t-9.5 -107.5zM306 -5q70 0 125.5 29.5t89.5 75.5t56.5 105.5t31.5 115t9 108.5q0 184 -120 239l-282 -656q40 -17 90 -17z" />
    <glyph glyph-name="oslashacute" unicode="&#x1ff;" horiz-adv-x="559" 
d="M431 748l2 -5l-180 -82l-1 4zM107 -113l-4 1l57 121q-86 47 -86 183q0 54 13 109t40 107.5t76.5 85.5t114.5 33q41 0 78 -15l56 119l3 -1l-56 -120q86 -45 86 -182q0 -53 -12.5 -108t-39 -108.5t-76 -87t-115.5 -33.5q-42 0 -78 17zM162 13l232 495q-33 15 -76 15
q-52 0 -94 -22t-68.5 -56.5t-44.5 -79.5t-25.5 -88t-7.5 -85q0 -134 84 -179zM242 -5q65 0 113.5 33t74.5 86t38.5 107t12.5 107q0 133 -84 178l-232 -495q35 -16 77 -16z" />
    <glyph glyph-name="uni0200" unicode="&#x200;" horiz-adv-x="556" 
d="M311 825l-4 -2l-50 124l4 2zM413 827l-4 -2l-46 119l5 2zM482 0l-46 212h-329l-105 -212h-4l337 680h3l148 -680h-4zM109 216h326l-99 459z" />
    <glyph glyph-name="uni0201" unicode="&#x201;" horiz-adv-x="540" 
d="M260 786l50 -124l-4 -2l-50 124zM367 783l45 -119l-4 -2l-46 119zM336 527q70 0 127 -40l-56 -367q-5 -35 -5 -55q0 -56 42 -71l-2 -3q-25 9 -35.5 30t-8.5 44.5t4 48.5q-33 -60 -79 -91.5t-96 -31.5q-72 0 -113 53.5t-41 139.5q0 57 14 114t43 110t82.5 86t123.5 33z
M336 524q-56 0 -101.5 -22t-74 -57t-48 -80.5t-27.5 -90.5t-8 -90q0 -85 40 -137t110 -52q50 0 96.5 32t80.5 95l55 363q-55 39 -123 39z" />
    <glyph glyph-name="uni0202" unicode="&#x202;" horiz-adv-x="556" 
d="M363 877q-74 0 -104 -69l-3 1q31 72 107 72q40 0 62 -20.5t25 -51.5l-3 -1q-11 69 -84 69zM482 0l-46 212h-329l-105 -212h-4l337 680h3l148 -680h-4zM109 216h326l-99 459z" />
    <glyph glyph-name="uni0203" unicode="&#x203;" horiz-adv-x="540" 
d="M258 645l-3 1q31 72 107 72q40 0 62 -20.5t25 -51.5l-3 -1q-11 69 -84 69q-74 0 -104 -69zM336 527q70 0 127 -40l-56 -367q-5 -35 -5 -55q0 -56 42 -71l-2 -3q-25 9 -35.5 30t-8.5 44.5t4 48.5q-33 -60 -79 -91.5t-96 -31.5q-72 0 -113 53.5t-41 139.5q0 57 14 114
t43 110t82.5 86t123.5 33zM336 524q-56 0 -101.5 -22t-74 -57t-48 -80.5t-27.5 -90.5t-8 -90q0 -85 40 -137t110 -52q50 0 96.5 32t80.5 95l55 363q-55 39 -123 39z" />
    <glyph glyph-name="uni0204" unicode="&#x204;" horiz-adv-x="495" 
d="M267 949l50 -124l-4 -2l-50 124zM374 946l45 -119l-4 -2l-46 119zM495 680l-1 -4h-302l-44 -313h260v-4h-260l-50 -355h312v-4h-317l95 680h307z" />
    <glyph glyph-name="uni0205" unicode="&#x205;" horiz-adv-x="520" 
d="M282 662l-4 -2l-50 124l4 2zM384 664l-4 -2l-46 119l5 2zM466 414q0 -84 -95.5 -135.5t-291.5 -60.5q0 -5 -0.5 -14t-0.5 -13q0 -95 42.5 -145.5t118.5 -50.5q80 0 161 59l2 -4q-81 -59 -163 -59q-77 0 -121 52t-44 148q0 39 7.5 81.5t26 89t46 82.5t72 59.5t99.5 23.5
q60 0 100.5 -30t40.5 -83zM325 523q-61 0 -109 -29t-75.5 -76.5t-42.5 -96.5t-19 -100q195 10 289 60.5t94 132.5q0 51 -39.5 80t-97.5 29z" />
    <glyph glyph-name="uni0206" unicode="&#x206;" horiz-adv-x="495" 
d="M265 808l-3 1q31 72 107 72q40 0 62 -20.5t25 -51.5l-3 -1q-11 69 -84 69q-74 0 -104 -69zM495 680l-1 -4h-302l-44 -313h260v-4h-260l-50 -355h312v-4h-317l95 680h307z" />
    <glyph glyph-name="uni0207" unicode="&#x207;" horiz-adv-x="520" 
d="M334 714q-74 0 -104 -69l-3 1q31 72 107 72q40 0 62 -20.5t25 -51.5l-3 -1q-11 69 -84 69zM466 414q0 -84 -95.5 -135.5t-291.5 -60.5q0 -5 -0.5 -14t-0.5 -13q0 -95 42.5 -145.5t118.5 -50.5q80 0 161 59l2 -4q-81 -59 -163 -59q-77 0 -121 52t-44 148q0 39 7.5 81.5
t26 89t46 82.5t72 59.5t99.5 23.5q60 0 100.5 -30t40.5 -83zM325 523q-61 0 -109 -29t-75.5 -76.5t-42.5 -96.5t-19 -100q195 10 289 60.5t94 132.5q0 51 -39.5 80t-97.5 29z" />
    <glyph glyph-name="uni0208" unicode="&#x208;" horiz-adv-x="263" 
d="M114 949l50 -124l-4 -2l-50 124zM221 946l45 -119l-4 -2l-46 119zM192 680l-95 -680h-4l95 680h4z" />
    <glyph glyph-name="uni0209" unicode="&#x209;" horiz-adv-x="253" 
d="M88 786l49 -124l-3 -2l-50 124zM194 783l46 -119l-4 -2l-46 119zM164 517l-72 -517h-4l72 517h4z" />
    <glyph glyph-name="uni020A" unicode="&#x20a;" horiz-adv-x="263" 
d="M112 808l-3 1q31 72 107 72q40 0 62 -20.5t25 -51.5l-3 -1q-11 69 -84 69q-74 0 -104 -69zM192 680l-95 -680h-4l95 680h4z" />
    <glyph glyph-name="uni020B" unicode="&#x20b;" horiz-adv-x="253" 
d="M84 645l-3 1q31 72 107 72q40 0 62 -20.5t25 -51.5l-3 -1q-11 69 -84 69q-74 0 -104 -69zM164 517l-72 -517h-4l72 517h4z" />
    <glyph glyph-name="uni020C" unicode="&#x20c;" horiz-adv-x="687" 
d="M325 949l50 -124l-4 -2l-50 124zM432 946l45 -119l-4 -2l-46 119zM403 690q104 0 161.5 -68t57.5 -193q0 -55 -9 -111t-32 -116t-57.5 -106t-91 -75.5t-126.5 -29.5q-103 0 -160 68.5t-57 192.5q0 53 10 110t33.5 116.5t58.5 106t90 76t122 29.5zM403 686
q-67 0 -121 -29.5t-88.5 -75.5t-58 -105t-33 -115t-9.5 -109q0 -123 56 -190t157 -67q70 0 125.5 29.5t89.5 75t56.5 105t31.5 115t9 109.5q0 123 -56.5 190t-158.5 67z" />
    <glyph glyph-name="uni020D" unicode="&#x20d;" horiz-adv-x="559" 
d="M240 786l50 -124l-4 -2l-50 124zM347 783l45 -119l-4 -2l-46 119zM318 527q79 0 123 -52t44 -147q0 -53 -12.5 -108t-39 -108.5t-76 -87t-115.5 -33.5q-80 0 -124 53t-44 148q0 54 13 109t40 107.5t76.5 85.5t114.5 33zM318 523q-52 0 -94 -22t-68.5 -56.5t-44.5 -79.5
t-25.5 -88t-7.5 -85q0 -94 43 -145.5t121 -51.5q65 0 113.5 33t74.5 86t38.5 107t12.5 107q0 93 -42.5 144t-120.5 51z" />
    <glyph glyph-name="uni020E" unicode="&#x20e;" horiz-adv-x="687" 
d="M323 808l-3 1q31 72 107 72q40 0 62 -20.5t25 -51.5l-3 -1q-11 69 -84 69q-74 0 -104 -69zM403 690q104 0 161.5 -68t57.5 -193q0 -55 -9 -111t-32 -116t-57.5 -106t-91 -75.5t-126.5 -29.5q-103 0 -160 68.5t-57 192.5q0 53 10 110t33.5 116.5t58.5 106t90 76t122 29.5z
M403 686q-67 0 -121 -29.5t-88.5 -75.5t-58 -105t-33 -115t-9.5 -109q0 -123 56 -190t157 -67q70 0 125.5 29.5t89.5 75t56.5 105t31.5 115t9 109.5q0 123 -56.5 190t-158.5 67z" />
    <glyph glyph-name="uni020F" unicode="&#x20f;" horiz-adv-x="559" 
d="M238 645l-3 1q31 72 107 72q40 0 62 -20.5t25 -51.5l-3 -1q-11 69 -84 69q-74 0 -104 -69zM318 527q79 0 123 -52t44 -147q0 -53 -12.5 -108t-39 -108.5t-76 -87t-115.5 -33.5q-80 0 -124 53t-44 148q0 54 13 109t40 107.5t76.5 85.5t114.5 33zM318 523q-52 0 -94 -22
t-68.5 -56.5t-44.5 -79.5t-25.5 -88t-7.5 -85q0 -94 43 -145.5t121 -51.5q65 0 113.5 33t74.5 86t38.5 107t12.5 107q0 93 -42.5 144t-120.5 51z" />
    <glyph glyph-name="uni0210" unicode="&#x210;" horiz-adv-x="562" 
d="M315 825l-4 -2l-50 124l4 2zM417 827l-4 -2l-46 119l5 2zM520 538q0 -79 -48 -140t-145 -65l145 -333h-5l-145 333h-178l-47 -333h-4l95 680h138q194 0 194 -142zM145 337h171q99 0 149.5 60t50.5 141q0 138 -189 138h-135z" />
    <glyph glyph-name="uni0211" unicode="&#x211;" horiz-adv-x="361" 
d="M190 786l50 -124l-4 -2l-50 124zM297 783l45 -119l-4 -2l-46 119zM328 527q23 0 46 -7l-2 -3q-22 6 -44 6q-64 0 -107.5 -39t-79.5 -137l-49 -347h-4l72 517h4l-22 -159q35 93 78.5 131t107.5 38z" />
    <glyph glyph-name="uni0212" unicode="&#x212;" horiz-adv-x="562" 
d="M366 877q-74 0 -104 -69l-3 1q31 72 107 72q40 0 62 -20.5t25 -51.5l-3 -1q-11 69 -84 69zM520 538q0 -79 -48 -140t-145 -65l145 -333h-5l-145 333h-178l-47 -333h-4l95 680h138q194 0 194 -142zM145 337h171q99 0 149.5 60t50.5 141q0 138 -189 138h-135z" />
    <glyph glyph-name="uni0213" unicode="&#x213;" horiz-adv-x="361" 
d="M188 645l-3 1q31 72 107 72q40 0 62 -20.5t25 -51.5l-3 -1q-11 69 -84 69q-74 0 -104 -69zM328 527q23 0 46 -7l-2 -3q-22 6 -44 6q-64 0 -107.5 -39t-79.5 -137l-49 -347h-4l72 517h4l-22 -159q35 93 78.5 131t107.5 38z" />
    <glyph glyph-name="uni0214" unicode="&#x214;" horiz-adv-x="636" 
d="M301 949l50 -124l-4 -2l-50 124zM408 946l45 -119l-4 -2l-46 119zM575 680l-67 -474q-13 -99 -68.5 -157t-158.5 -58q-197 0 -169 215l67 474h4l-67 -474q-13 -98 25.5 -154.5t139.5 -56.5t155.5 57t67.5 154l67 474h4z" />
    <glyph glyph-name="uni0215" unicode="&#x215;" horiz-adv-x="574" 
d="M244 786l50 -124l-4 -2l-50 124zM351 783l45 -119l-4 -2l-46 119zM486 517l-72 -517h-4l24 167q-37 -85 -92 -130.5t-120 -45.5q-66 0 -97.5 41t-21.5 118l51 367h4l-51 -367q-10 -75 20.5 -115t95.5 -40t119 46t92 133l48 343h4z" />
    <glyph glyph-name="uni0216" unicode="&#x216;" horiz-adv-x="636" 
d="M299 808l-3 1q31 72 107 72q40 0 62 -20.5t25 -51.5l-3 -1q-11 69 -84 69q-74 0 -104 -69zM575 680l-67 -474q-13 -99 -68.5 -157t-158.5 -58q-197 0 -169 215l67 474h4l-67 -474q-13 -98 25.5 -154.5t139.5 -56.5t155.5 57t67.5 154l67 474h4z" />
    <glyph glyph-name="uni0217" unicode="&#x217;" horiz-adv-x="574" 
d="M242 645l-3 1q31 72 107 72q40 0 62 -20.5t25 -51.5l-3 -1q-11 69 -84 69q-74 0 -104 -69zM486 517l-72 -517h-4l24 167q-37 -85 -92 -130.5t-120 -45.5q-66 0 -97.5 41t-21.5 118l51 367h4l-51 -367q-10 -75 20.5 -115t95.5 -40t119 46t92 133l48 343h4z" />
    <glyph glyph-name="Scommaaccent" unicode="&#x218;" horiz-adv-x="540" 
d="M324 690q100 0 166 -64l-4 -3q-61 63 -162 63q-97 0 -146.5 -51t-49.5 -111t34 -92t124 -61q88 -30 127 -67t39 -106q0 -33 -13 -67t-38.5 -66.5t-72 -53t-105.5 -20.5q-115 0 -186 78l3 4q34 -39 76.5 -58.5t106.5 -19.5q58 0 103.5 20.5t71 52.5t38 65t12.5 64
q0 67 -38 103.5t-125 66.5q-91 30 -126 62.5t-35 94.5t50 114t150 52zM211 -106q7 0 7 -7q0 -1 -5 -14l-41 -114h-2l40 121q-6 2 -6 7q0 7 7 7z" />
    <glyph glyph-name="scommaaccent" unicode="&#x219;" horiz-adv-x="457" 
d="M259 527q89 0 144 -52l-3 -2q-53 50 -141 50q-67 0 -113 -33.5t-46 -90.5q0 -42 29 -69t105 -52q77 -25 107.5 -55t30.5 -82q0 -69 -50.5 -109.5t-128.5 -40.5q-99 0 -165 66l2 3q67 -65 163 -65q75 0 125 39t50 107q0 51 -29.5 79.5t-105.5 53.5q-78 25 -108 53t-30 72
q0 58 47.5 93t116.5 35zM186 -106q7 0 7 -7q0 -1 -5 -14l-41 -114h-2l40 121q-6 2 -6 7q0 7 7 7z" />
    <glyph glyph-name="uni021A" unicode="&#x21a;" horiz-adv-x="472" 
d="M512 680l-1 -4h-214l-95 -676h-4l95 676h-215l1 4h433zM186 -106q7 0 7 -7q0 -1 -5 -14l-41 -114h-2l40 121q-6 2 -6 7q0 7 7 7z" />
    <glyph glyph-name="uni021B" unicode="&#x21b;" horiz-adv-x="322" 
d="M156 513l-55 -399q-8 -57 13.5 -88t69.5 -31q47 0 96 28l2 -4q-50 -28 -99 -28t-72 32t-14 90l55 400h-87l1 4h87l19 134h4l-19 -134h145v-4h-146zM184 -106q7 0 7 -7q0 -1 -5 -14l-41 -114h-2l40 121q-6 2 -6 7q0 7 7 7z" />
    <glyph glyph-name="uni021C" unicode="&#x21c;" horiz-adv-x="486" 
d="M290 690q70 0 108.5 -39.5t38.5 -103.5q0 -79 -50.5 -129t-128.5 -56q72 -3 114 -36.5t42 -100.5q0 -61 -30 -110.5t-86.5 -85.5t-122.5 -61.5t-153 -46.5l1 4q68 17 122 35.5t105 45t85 57.5t54.5 72.5t20.5 89.5q0 67 -44.5 101t-125.5 34h-58l1 4h54q87 0 141.5 51.5
t54.5 131.5q0 63 -37 101t-106 38q-104 0 -199 -84l-2 3q96 85 201 85z" />
    <glyph glyph-name="uni021D" unicode="&#x21d;" horiz-adv-x="442" 
d="M236 527q63 0 97 -31t34 -86q0 -64 -39 -101.5t-105 -43.5q68 -3 100 -26t32 -72q0 -176 -331 -247v4q151 33 239 90.5t88 152.5q0 50 -35.5 73t-117.5 23h-52l1 4h49q79 0 123 38.5t44 104.5q0 53 -32.5 83t-94.5 30q-82 0 -164 -50l-2 3q84 51 166 51z" />
    <glyph glyph-name="uni021E" unicode="&#x21e;" horiz-adv-x="655" 
d="M512 847l2 -2l-121 -80h-3l-97 80l3 2l96 -78zM485 0l51 364h-388l-51 -364h-4l95 680h4l-44 -312h388l44 312h4l-95 -680h-4z" />
    <glyph glyph-name="uni021F" unicode="&#x21f;" horiz-adv-x="580" 
d="M450 894l2 -2l-121 -80h-3l-97 80l3 2l96 -78zM365 527q133 0 112 -159l-52 -368h-4l52 368q21 156 -108 156q-66 0 -120.5 -46.5t-106.5 -149.5l-46 -328h-4l102 730l4 1l-54 -394q94 190 225 190z" />
    <glyph glyph-name="uni0220" unicode="&#x220;" horiz-adv-x="641" 
d="M422 690q74 0 109 -46t22 -134l-98 -698h-4l98 697q12 87 -21.5 132t-105.5 45q-69 0 -126.5 -34t-121.5 -103l-77 -549h-4l95 680h4l-17 -125q63 68 120.5 101.5t126.5 33.5z" />
    <glyph glyph-name="uni0221" unicode="&#x221;" horiz-adv-x="651" 
d="M591 177q36 0 56.5 -19.5t20.5 -51.5q0 -50 -41 -82.5t-103 -32.5q-78 0 -98 52l-60 -93l-3 1l61 96q-7 24 -3 57l6 41q-40 -72 -87 -113t-112 -41q-69 0 -109.5 50.5t-40.5 141.5q0 54 13 110.5t39 110.5t75 88.5t112 34.5q58 0 95.5 -29.5t53.5 -71.5l43 305l4 -1
l-88 -626q-4 -30 2 -52q41 63 77.5 94t86.5 31zM228 -5q65 0 112 42t88 117l38 266q-39 103 -149 103q-63 0 -111 -34t-73.5 -87.5t-38 -109t-12.5 -109.5q0 -89 39.5 -138.5t106.5 -49.5zM524 -5q61 0 100.5 31.5t39.5 79.5q0 31 -19 49t-54 18q-49 0 -85 -31t-78 -94
q18 -53 96 -53z" />
    <glyph glyph-name="uni0222" unicode="&#x222;" horiz-adv-x="627" 
d="M365 388q82 -8 126.5 -53.5t44.5 -116.5q0 -100 -74.5 -163.5t-186.5 -63.5q-95 0 -149 47t-54 121q0 92 63 155.5t164 73.5q-143 17 -121 174l16 118h4l-16 -118q-24 -172 150 -172q176 0 198 172l16 118h5l-17 -118q-22 -159 -169 -174zM275 -5q111 0 184 62t73 161
q0 76 -52 122t-149 46q-111 0 -183 -64t-72 -163q0 -72 52.5 -118t146.5 -46z" />
    <glyph glyph-name="uni0223" unicode="&#x223;" horiz-adv-x="548" 
d="M475 584q-22 -159 -153 -173q67 -8 104.5 -52t37.5 -113q0 -109 -65 -182t-164 -73q-78 0 -122.5 47t-44.5 122q0 95 56.5 168t144.5 83q-128 14 -105 173l20 144h4l-20 -144q-24 -171 127 -171q152 0 176 171l20 144h4zM460 246q0 75 -43.5 119t-122.5 44
q-96 0 -159 -73.5t-63 -175.5q0 -74 43.5 -119.5t119.5 -45.5q98 0 161.5 72t63.5 179z" />
    <glyph glyph-name="uni0224" unicode="&#x224;" horiz-adv-x="505" 
d="M514 680l-1 -4l-499 -672h388v-4l-13 -96q-7 -46 -34 -71.5t-66 -25.5q-43 0 -76 29l3 3q30 -28 73 -28q38 0 63.5 24t32.5 69l13 96h-389v4l499 672h-368l1 4h373z" />
    <glyph glyph-name="uni0225" unicode="&#x225;" horiz-adv-x="410" 
d="M406 517v-3l-401 -510h319v-4l-13 -96q-7 -47 -34 -72t-66 -25q-45 0 -76 29l2 3q30 -28 74 -28q38 0 63.5 24t32.5 69l13 96h-321v4l402 509h-300v4h305z" />
    <glyph glyph-name="uni0226" unicode="&#x226;" horiz-adv-x="556" 
d="M358 819q-7 0 -7 8q0 7 8 7q7 0 7 -8q0 -7 -8 -7zM482 0l-46 212h-329l-105 -212h-4l337 680h3l148 -680h-4zM109 216h326l-99 459z" />
    <glyph glyph-name="uni0227" unicode="&#x227;" horiz-adv-x="540" 
d="M363 708q7 0 7 -8q0 -7 -8 -7q-7 0 -7 8q0 7 8 7zM336 527q70 0 127 -40l-56 -367q-5 -35 -5 -55q0 -56 42 -71l-2 -3q-25 9 -35.5 30t-8.5 44.5t4 48.5q-33 -60 -79 -91.5t-96 -31.5q-72 0 -113 53.5t-41 139.5q0 57 14 114t43 110t82.5 86t123.5 33zM336 524
q-56 0 -101.5 -22t-74 -57t-48 -80.5t-27.5 -90.5t-8 -90q0 -85 40 -137t110 -52q50 0 96.5 32t80.5 95l55 363q-55 39 -123 39z" />
    <glyph glyph-name="uni0228" unicode="&#x228;" horiz-adv-x="495" 
d="M494 676h-302l-44 -313h260v-4h-260l-50 -355h312v-4h-162l-16 -82q84 -2 84 -57q0 -26 -21 -45t-58 -19t-61 16l2 4q22 -16 59 -16t55.5 18t18.5 42q0 28 -20 40t-63 13l17 86h-152l95 680h307z" />
    <glyph glyph-name="uni0229" unicode="&#x229;" horiz-adv-x="520" 
d="M466 414q0 -84 -95.5 -135.5t-291.5 -60.5q0 -5 -0.5 -14t-0.5 -13q0 -95 42.5 -145.5t118.5 -50.5q80 0 161 59l2 -4q-81 -59 -163 -59h-12l-14 -73q83 -2 83 -57q0 -26 -20.5 -45t-57.5 -19t-61 16l2 4q22 -16 59 -16t55.5 18.5t18.5 41.5q0 28 -20 40t-64 13l16 77
q-71 5 -110.5 57t-39.5 143q0 39 7.5 81.5t26 89t46 82.5t72 59.5t99.5 23.5q60 0 100.5 -30t40.5 -83zM325 523q-61 0 -109 -29t-75.5 -76.5t-42.5 -96.5t-19 -100q195 10 289 60.5t94 132.5q0 51 -39.5 80t-97.5 29z" />
    <glyph glyph-name="uni022A" unicode="&#x22a;" horiz-adv-x="687" 
d="M513 834h-192v4h192v-4zM333 757q7 0 7 -7q0 -8 -8 -8q-7 0 -7 8q0 7 8 7zM483 757q8 0 8 -7q-2 -8 -8 -8q-7 0 -7 8q0 7 7 7zM403 690q104 0 161.5 -68t57.5 -193q0 -55 -9 -111t-32 -116t-57.5 -106t-91 -75.5t-126.5 -29.5q-103 0 -160 68.5t-57 192.5q0 53 10 110
t33.5 116.5t58.5 106t90 76t122 29.5zM403 686q-67 0 -121 -29.5t-88.5 -75.5t-58 -105t-33 -115t-9.5 -109q0 -123 56 -190t157 -67q70 0 125.5 29.5t89.5 75t56.5 105t31.5 115t9 109.5q0 123 -56.5 190t-158.5 67z" />
    <glyph glyph-name="uni022B" unicode="&#x22b;" horiz-adv-x="559" 
d="M447 744h-192v4h192v-4zM267 663q7 0 7 -7q0 -8 -8 -8q-7 0 -7 8q0 7 8 7zM417 663q8 0 8 -7q-2 -8 -8 -8q-7 0 -7 8q0 7 7 7zM318 527q79 0 123 -52t44 -147q0 -53 -12.5 -108t-39 -108.5t-76 -87t-115.5 -33.5q-80 0 -124 53t-44 148q0 54 13 109t40 107.5t76.5 85.5
t114.5 33zM318 523q-52 0 -94 -22t-68.5 -56.5t-44.5 -79.5t-25.5 -88t-7.5 -85q0 -94 43 -145.5t121 -51.5q65 0 113.5 33t74.5 86t38.5 107t12.5 107q0 93 -42.5 144t-120.5 51z" />
    <glyph glyph-name="uni022C" unicode="&#x22c;" horiz-adv-x="687" 
d="M525 879v-4h-192v4h192zM361 805q-32 0 -68 -36h-1q39 36 69 36zM361 805q18 0 52.5 -22t56.5 -22q-23 0 -57 22t-52 22zM539 800q-35 -39 -69 -39q35 0 68 39h1zM403 690q104 0 161.5 -68t57.5 -193q0 -55 -9 -111t-32 -116t-57.5 -106t-91 -75.5t-126.5 -29.5
q-103 0 -160 68.5t-57 192.5q0 53 10 110t33.5 116.5t58.5 106t90 76t122 29.5zM306 -5q70 0 125.5 29.5t89.5 75t56.5 105t31.5 115t9 109.5q0 123 -56.5 190t-158.5 67q-67 0 -121 -29.5t-88.5 -75.5t-58 -105t-33 -115t-9.5 -109q0 -123 56 -190t157 -67z" />
    <glyph glyph-name="uni022D" unicode="&#x22d;" horiz-adv-x="559" 
d="M434 731v-4h-192v4h192zM274 652q-32 0 -68 -36h-1q39 36 69 36zM274 652q18 0 52.5 -22t56.5 -22q-23 0 -57 22t-52 22zM452 647q-35 -39 -69 -39q35 0 68 39h1zM318 527q79 0 123 -52t44 -147q0 -53 -12.5 -108t-39 -108.5t-76 -87t-115.5 -33.5q-80 0 -124 53t-44 148
q0 54 13 109t40 107.5t76.5 85.5t114.5 33zM242 -5q65 0 113.5 33t74.5 86t38.5 107t12.5 107q0 93 -42.5 144t-120.5 51q-52 0 -94 -22t-68.5 -56.5t-44.5 -79.5t-25.5 -88t-7.5 -85q0 -94 43 -145.5t121 -51.5z" />
    <glyph glyph-name="uni022E" unicode="&#x22e;" horiz-adv-x="687" 
d="M423 834q7 0 7 -8q0 -7 -8 -7q-7 0 -7 8q0 7 8 7zM403 690q104 0 161.5 -68t57.5 -193q0 -55 -9 -111t-32 -116t-57.5 -106t-91 -75.5t-126.5 -29.5q-103 0 -160 68.5t-57 192.5q0 53 10 110t33.5 116.5t58.5 106t90 76t122 29.5zM403 686q-67 0 -121 -29.5t-88.5 -75.5
t-58 -105t-33 -115t-9.5 -109q0 -123 56 -190t157 -67q70 0 125.5 29.5t89.5 75t56.5 105t31.5 115t9 109.5q0 123 -56.5 190t-158.5 67z" />
    <glyph glyph-name="uni022F" unicode="&#x22f;" horiz-adv-x="559" 
d="M343 708q7 0 7 -8q0 -7 -8 -7q-7 0 -7 8q0 7 8 7zM318 527q79 0 123 -52t44 -147q0 -53 -12.5 -108t-39 -108.5t-76 -87t-115.5 -33.5q-80 0 -124 53t-44 148q0 54 13 109t40 107.5t76.5 85.5t114.5 33zM318 523q-52 0 -94 -22t-68.5 -56.5t-44.5 -79.5t-25.5 -88
t-7.5 -85q0 -94 43 -145.5t121 -51.5q65 0 113.5 33t74.5 86t38.5 107t12.5 107q0 93 -42.5 144t-120.5 51z" />
    <glyph glyph-name="uni0230" unicode="&#x230;" horiz-adv-x="687" 
d="M517 834h-192v4h192v-4zM411 766q7 0 7 -8q0 -7 -8 -7q-7 0 -7 8q0 7 8 7zM403 690q104 0 161.5 -68t57.5 -193q0 -55 -9 -111t-32 -116t-57.5 -106t-91 -75.5t-126.5 -29.5q-103 0 -160 68.5t-57 192.5q0 53 10 110t33.5 116.5t58.5 106t90 76t122 29.5zM403 686
q-67 0 -121 -29.5t-88.5 -75.5t-58 -105t-33 -115t-9.5 -109q0 -123 56 -190t157 -67q70 0 125.5 29.5t89.5 75t56.5 105t31.5 115t9 109.5q0 123 -56.5 190t-158.5 67z" />
    <glyph glyph-name="uni0231" unicode="&#x231;" horiz-adv-x="559" 
d="M441 736h-192v4h192v-4zM333 649q7 0 7 -8q0 -7 -8 -7q-7 0 -7 8q0 7 8 7zM318 527q79 0 123 -52t44 -147q0 -53 -12.5 -108t-39 -108.5t-76 -87t-115.5 -33.5q-80 0 -124 53t-44 148q0 54 13 109t40 107.5t76.5 85.5t114.5 33zM318 523q-52 0 -94 -22t-68.5 -56.5
t-44.5 -79.5t-25.5 -88t-7.5 -85q0 -94 43 -145.5t121 -51.5q65 0 113.5 33t74.5 86t38.5 107t12.5 107q0 93 -42.5 144t-120.5 51z" />
    <glyph glyph-name="uni0232" unicode="&#x232;" horiz-adv-x="481" 
d="M415 815h-192v4h192v-4zM515 680l-271 -409l-37 -271h-4l37 271l-156 409h4l154 -405l268 405h5z" />
    <glyph glyph-name="uni0233" unicode="&#x233;" horiz-adv-x="435" 
d="M373 689h-192v4h192v-4zM442 517l-250 -517q-46 -92 -82 -130t-112 -60v4q75 21 110 58t80 128h-3l-120 517h5l118 -514l250 514h4z" />
    <glyph glyph-name="uni0234" unicode="&#x234;" horiz-adv-x="327" 
d="M268 177q35 0 55.5 -20t20.5 -51q0 -50 -40.5 -82.5t-103.5 -32.5q-78 0 -98 52l-60 -93l-3 1l62 96q-8 26 -4 56l88 627l4 1l-88 -628q-3 -33 2 -51q41 63 78 94t87 31zM200 -5q61 0 100.5 31.5t39.5 79.5q0 31 -19 49t-53 18q-49 0 -85.5 -31t-77.5 -95q17 -52 95 -52z
" />
    <glyph glyph-name="uni0235" unicode="&#x235;" horiz-adv-x="664" 
d="M606 177q35 0 55.5 -20t20.5 -51q0 -50 -41 -82.5t-104 -32.5q-77 0 -97 52l-60 -93l-3 1l61 96q-7 24 -3 56l38 265q22 156 -105 156q-68 0 -123 -46t-107 -150l-46 -328h-4l72 517h4l-24 -180q50 100 105.5 145t122.5 45q65 0 92.5 -41.5t16.5 -117.5l-38 -265
q-4 -29 2 -51q40 62 77 93.5t88 31.5zM538 -5q61 0 100.5 31.5t39.5 79.5q0 31 -19 49t-53 18q-49 0 -85.5 -31t-78.5 -95q18 -52 96 -52z" />
    <glyph glyph-name="uni0236" unicode="&#x236;" horiz-adv-x="325" 
d="M266 177q36 0 56 -19.5t20 -51.5q0 -50 -40.5 -82.5t-103.5 -32.5q-76 0 -98 52l-59 -93l-4 1l62 97q-8 25 -3 55l56 410h-87l1 4h87l19 134h4l-19 -134h145v-4h-146l-56 -410q-4 -29 2 -51q40 62 77 93.5t87 31.5zM198 -5q61 0 100.5 31.5t39.5 79.5q0 31 -19 49t-53 18
q-49 0 -85 -31t-78 -94q18 -53 95 -53z" />
    <glyph glyph-name="uni0237" unicode="&#x237;" horiz-adv-x="253" 
d="M164 517l-72 -516q-12 -86 -39 -124.5t-87 -67.5l-2 2q59 29 86 67.5t38 123.5l72 515h4z" />
    <glyph glyph-name="uni0238" unicode="&#x238;" horiz-adv-x="844" 
d="M633 527q66 0 101.5 -49t35.5 -138q0 -86 -23 -163.5t-74 -131.5t-120 -54q-52 0 -91.5 36t-53.5 94l-16 -121h-3l14 118q-79 -127 -177 -127q-67 0 -106.5 51.5t-40.5 144.5q1 86 27 162t79.5 127t123.5 51q50 0 84.5 -29.5t53.5 -73.5l44 306l4 1l-44 -309
q31 44 79 74.5t103 30.5zM226 -5q55 0 97 34t81 96l42 295q-47 103 -137 103q-102 0 -163.5 -101.5t-62.5 -234.5q1 -91 39.5 -141.5t103.5 -50.5zM553 -5q68 0 118 53t72.5 130t21.5 162q1 88 -33.5 135.5t-98.5 47.5q-54 0 -102.5 -30.5t-80.5 -75.5l-41 -290v1
q14 -60 53.5 -96.5t90.5 -36.5z" />
    <glyph glyph-name="uni0239" unicode="&#x239;" horiz-adv-x="843" 
d="M629 527q65 0 100.5 -50.5t34.5 -142.5q-2 -87 -24.5 -162.5t-72.5 -128t-117 -52.5q-105 0 -147 128l-43 -309l-4 -1l43 308q-77 -126 -179 -126q-68 0 -107 53t-38 148q1 86 28 161.5t80.5 124.5t123.5 49q91 0 135 -103l13 93h4l-13 -94q88 104 183 104zM220 -5
q58 0 100 33.5t80 94.5l41 294q-43 106 -133 106q-69 0 -122.5 -48.5t-79.5 -123t-27 -159.5q-1 -93 37 -145t104 -52zM759 335q1 90 -33 139t-97 49q-94 0 -183 -105l-42 -293q43 -130 146 -130q66 0 114.5 52t71 127t23.5 161z" />
    <glyph glyph-name="uni023A" unicode="&#x23a;" horiz-adv-x="556" 
d="M482 0l-46 212h-184l-108 -270h-4l109 270h-142l-105 -212h-4l337 680h3l35 -159l84 208l3 -1l-86 -213l112 -515h-4zM109 216h141l120 299l-34 160zM254 216h181l-63 293z" />
    <glyph glyph-name="uni023B" unicode="&#x23b;" horiz-adv-x="531" 
d="M546 630q-45 44 -98 53l-262 -653q49 -35 119 -35q91 0 169 59l2 -4q-81 -59 -171 -59q-71 0 -121 35l-34 -84h-3l34 86q-91 64 -91 225q0 56 9.5 113.5t33 116.5t58 104.5t89.5 74t123 28.5q23 0 43 -3l17 42l4 -1l-17 -42q55 -10 98 -53zM183 32l262 651q-18 3 -42 3
q-67 0 -122 -29t-89 -74t-57 -104t-32 -115t-9 -110q0 -157 89 -222z" />
    <glyph glyph-name="uni023C" unicode="&#x23c;" horiz-adv-x="468" 
d="M371 521q40 -11 71 -44l-3 -2q-30 32 -70 42l-208 -502q35 -20 82 -20q74 0 140 51l2 -2q-65 -53 -142 -53q-48 0 -84 21l-29 -70h-3l29 72q-81 49 -81 180q0 136 65 234.5t179 98.5q25 0 48 -5l25 59l3 -1zM158 17l208 501q-18 5 -47 5q-76 0 -132 -48.5t-82 -121.5
t-26 -159q0 -129 79 -177z" />
    <glyph glyph-name="uni023D" unicode="&#x23d;" horiz-adv-x="476" 
d="M128 4h288l-1 -4h-291l50 360h-106v4h107l44 316h4l-44 -316h120v-4h-121z" />
    <glyph glyph-name="uni023E" unicode="&#x23e;" horiz-adv-x="472" 
d="M511 676h-126l-135 -336l-48 -340h-4l46 324l-154 -382h-4l160 396l47 338h-215l1 4h304l20 49l3 -1l-19 -48h125zM252 354l129 322h-84z" />
    <glyph glyph-name="uni023F" unicode="&#x23f;" horiz-adv-x="457" 
d="M259 523q-67 0 -113 -33.5t-46 -90.5q0 -42 29 -69t106 -52q76 -25 106.5 -55t30.5 -82q0 -69 -50.5 -109.5t-128.5 -40.5q-62 0 -119 35q39 -33 64.5 -75.5t34.5 -71t27.5 -48.5t49.5 -20q37 0 69 25l3 -3q-33 -26 -72 -26q-28 0 -44.5 14t-27.5 39t-23.5 54t-41 66
t-70.5 67l-15 10l2 2q5 -3 25 -16.5t29.5 -18.5t28 -13.5t38 -12t42.5 -3.5q76 0 125.5 39t49.5 107q0 51 -29.5 79.5t-105.5 53.5q-77 25 -107 53t-30 72q0 58 47 93t116 35q89 0 144 -52l-3 -2q-53 50 -141 50z" />
    <glyph glyph-name="uni0240" unicode="&#x240;" horiz-adv-x="410" 
d="M278 -193q-34 0 -57.5 17.5t-39.5 43.5t-35 53t-56 49.5t-91 29.5v4l402 509h-300v4h305v-3l-402 -511q53 -7 90 -30t55.5 -49.5t34.5 -52.5t38.5 -43t55.5 -17q37 0 69 25l3 -3q-33 -26 -72 -26z" />
    <glyph glyph-name="uni0241" unicode="&#x241;" horiz-adv-x="445" 
d="M136 0l39 281l61 15q101 25 151 78.5t50 149.5q0 74 -41 118t-120 44q-102 0 -196 -84l-3 3q95 85 199 85q80 0 122.5 -45.5t42.5 -120.5q0 -97 -51 -151.5t-150 -79.5l-61 -15l-39 -278h-4z" />
    <glyph glyph-name="uni0242" unicode="&#x242;" horiz-adv-x="414" 
d="M106 0l22 158l66 17q172 45 172 200q0 67 -38 107.5t-109 40.5q-92 0 -170 -74l-3 4q79 74 173 74q72 0 111.5 -41.5t39.5 -110.5q0 -157 -172 -202l-67 -18l-21 -155h-4z" />
    <glyph glyph-name="uni0243" unicode="&#x243;" horiz-adv-x="574" 
d="M345 360q68 -4 111.5 -42.5t43.5 -105.5q0 -92 -60 -152t-196 -60h-159l27 191h-91v4h92l68 485h135q94 0 143.5 -36t49.5 -103q0 -73 -47.5 -122.5t-116.5 -58.5zM184 676l-44 -314h187q64 0 121 48t57 130q0 66 -48 101t-140 35h-133zM246 4q131 0 190.5 58t59.5 150
q0 68 -47 107t-125 39h-184l-23 -163h197v-4h-198l-26 -187h156z" />
    <glyph glyph-name="uni0244" unicode="&#x244;" horiz-adv-x="669" 
d="M624 529l-1 -4h-52l-45 -319q-13 -99 -68.5 -157t-158.5 -58q-197 0 -169 215l45 319h-55v4h56l21 151h4l-21 -151h388l21 151h4l-21 -151h52zM522 206l45 319h-388l-45 -319q-28 -211 165 -211q101 0 155.5 57t67.5 154z" />
    <glyph glyph-name="uni0245" unicode="&#x245;" horiz-adv-x="556" 
d="M338 680l148 -680h-4l-146 677l-334 -677h-4l336 680h4z" />
    <glyph glyph-name="uni0246" unicode="&#x246;" horiz-adv-x="495" 
d="M494 676h-59l-126 -313h99v-4h-101l-142 -355h245v-4h-247l-23 -58h-4l23 58h-66l95 680h245l20 49l3 -1l-19 -48h58zM305 363l127 313h-240l-44 -313h157zM161 4l143 355h-156l-50 -355h63z" />
    <glyph glyph-name="uni0247" unicode="&#x247;" horiz-adv-x="520" 
d="M466 414q0 -128 -212 -175l-94 -226q34 -18 79 -18q80 0 161 59l2 -4q-81 -59 -163 -59q-45 0 -80 18l-28 -67h-3l28 69q-82 46 -82 180q0 39 7.5 81.5t26 89t46 82.5t72 59.5t99.5 23.5q27 0 44 -5l24 59l3 -1l-24 -58q42 -10 68 -38t26 -70zM325 523q-61 0 -109 -29
t-75.5 -76.5t-42.5 -96.5t-19 -100q101 6 173 21l115 277q-17 4 -42 4zM462 414q0 41 -25.5 68t-66.5 36l-114 -275q206 46 206 171zM157 15l93 223q-75 -16 -171 -20q0 -5 -0.5 -14t-0.5 -13q0 -132 79 -176z" />
    <glyph glyph-name="uni0248" unicode="&#x248;" horiz-adv-x="290" 
d="M275 344v-4h-112l-36 -255q-10 -73 -38.5 -110t-106.5 -67l-2 4q76 29 104.5 65.5t38.5 108.5l36 254h-116l1 4h115l47 336h4l-47 -336h112z" />
    <glyph glyph-name="uni0249" unicode="&#x249;" horiz-adv-x="281" 
d="M202 693q-7 0 -7 8q0 7 8 7q7 0 7 -8q0 -7 -8 -7zM255 246v-4h-115l-34 -241q-12 -86 -39 -124.5t-87 -67.5l-2 2q59 29 86 67.5t38 123.5l34 240h-113l1 4h112l38 271h4l-38 -271h115z" />
    <glyph glyph-name="uni024A" unicode="&#x24a;" horiz-adv-x="639" 
d="M612 -161l2 -3q-39 -29 -84 -29q-39 0 -58.5 25.5t-12.5 71.5l13 96l12 93q-80 -102 -197 -102q-91 0 -145 67t-54 188q0 109 34 208.5t105 167.5t163 68q110 0 166 -88l10 78h4l-94 -680l-13 -96q-6 -45 12 -69t55 -24q45 0 82 28zM287 -5q116 0 198 104l70 498
q-57 89 -165 89q-91 0 -161 -67.5t-103.5 -166t-33.5 -206.5q0 -119 53 -185t142 -66z" />
    <glyph glyph-name="uni024B" unicode="&#x24b;" horiz-adv-x="550" 
d="M464 -181v-3q-25 -9 -42 -9q-62 0 -51 75l17 119l16 115q-33 -62 -80 -93.5t-97 -31.5q-72 0 -113 53.5t-41 139.5q0 57 14 114t43 110t82.5 86t123.5 33t127 -40l-71 -486l-17 -120q-10 -70 47 -70q20 0 42 8zM227 -5q50 0 97 32.5t82 97.5l53 360q-55 39 -123 39
q-56 0 -101.5 -22t-74 -57t-48 -80.5t-27.5 -90.5t-8 -90q0 -85 40 -137t110 -52z" />
    <glyph glyph-name="uni024C" unicode="&#x24c;" horiz-adv-x="557" 
d="M515 538q0 -36 -11 -70t-33 -64.5t-60.5 -49.5t-88.5 -21l145 -333h-5l-145 333h-178l-47 -333h-4l47 333h-94v4h94l48 343h139q193 0 193 -142zM139 337h172q99 0 149.5 60t50.5 141q0 67 -44 102.5t-145 35.5h-135z" />
    <glyph glyph-name="uni024D" unicode="&#x24d;" horiz-adv-x="371" 
d="M338 527q23 0 46 -7l-2 -3q-22 6 -44 6q-64 0 -107.5 -39t-79.5 -137l-9 -64h118v-4h-119l-39 -279h-4l39 279h-109l1 4h108l33 234h4l-22 -159q35 93 78.5 131t107.5 38z" />
    <glyph glyph-name="uni024E" unicode="&#x24e;" horiz-adv-x="482" 
d="M516 680l-67 -101h53v-4h-56l-201 -304l-37 -271h-4l37 271l-116 304h-55v4h54l-39 101h4l39 -101h316l68 101h4zM243 275l199 300h-313z" />
    <glyph glyph-name="uni024F" unicode="&#x24f;" horiz-adv-x="426" 
d="M373 382h46v-4h-48l-183 -378q-45 -92 -81 -130t-113 -60v4q75 21 110 58t80 128h-3l-87 378h-49v4h48l-31 135h4l31 -135h272l65 135h4zM185 2l182 376h-269z" />
    <glyph glyph-name="uni0250" unicode="&#x250;" horiz-adv-x="513" 
d="M109 213l-9 -69q-21 -150 117 -150q65 0 152 34v-4q-84 -34 -152 -34q-143 0 -121 154l37 263q9 48 1 77.5t-38 38.5l2 3q31 -9 39.5 -38.5t-0.5 -73.5q71 112 187 112q64 0 98.5 -34.5t34.5 -91.5q0 -88 -63 -137.5t-162 -49.5h-123zM136 406l-26 -189h122
q99 0 160 48.5t61 134.5q0 56 -33 89t-96 33q-117 0 -188 -116z" />
    <glyph glyph-name="uni0251" unicode="&#x251;" horiz-adv-x="540" 
d="M402 65q0 -56 42 -71l-2 -3q-25 9 -35.5 30t-8.5 44t4 48q-67 -122 -178 -122q-70 0 -110.5 53.5t-40.5 139.5q0 56 15 114t44 110.5t78 85.5t109 33q111 0 127 -128l19 118h3l-61 -397q-5 -35 -5 -55zM224 -5q111 0 180 127l40 267q-16 134 -125 134q-59 0 -107 -32.5
t-76.5 -84.5t-43.5 -109.5t-15 -112.5q0 -84 39.5 -136.5t107.5 -52.5z" />
    <glyph glyph-name="uni0252" unicode="&#x252;" horiz-adv-x="540" 
d="M316 526q70 0 110.5 -53.5t40.5 -139.5q0 -56 -15 -114t-44 -110.5t-78 -85.5t-109 -33q-111 0 -127 128l-19 -118h-3l61 397q5 35 5 55q0 56 -42 71l2 3q25 -9 35.5 -30t8.5 -44t-4 -48q67 122 178 122zM221 -6q59 0 107 32.5t76.5 84.5t43.5 109.5t15 112.5
q0 84 -39.5 136.5t-107.5 52.5q-111 0 -180 -127l-40 -267q16 -134 125 -134z" />
    <glyph glyph-name="uni0253" unicode="&#x253;" horiz-adv-x="562" 
d="M343 527q72 0 109.5 -48.5t37.5 -139.5q0 -54 -13.5 -111t-40 -112t-75.5 -90t-111 -35q-75 0 -157 36l67 489l15 102q7 55 42.5 85t86.5 30q60 0 105 -32l-2 -4q-47 33 -103 33q-49 0 -83.5 -29t-41.5 -83l-15 -102l-12 -94q86 105 191 105zM250 -5q62 0 110 35t74 89
t39 110.5t13 109.5q0 89 -36.5 136.5t-106.5 47.5q-57 0 -102 -26.5t-90 -79.5l-54 -388q79 -34 153 -34z" />
    <glyph glyph-name="uni0254" unicode="&#x254;" horiz-adv-x="470" 
d="M162 -9q-83 0 -138 60l3 3q52 -59 135 -59q106 0 167.5 100.5t62.5 234.5q-1 92 -42 142.5t-113 50.5q-81 0 -146 -52l-2 3q66 53 148 53q74 0 116.5 -52t42.5 -145q-1 -86 -26.5 -162t-80 -126.5t-127.5 -50.5z" />
    <glyph glyph-name="uni0255" unicode="&#x255;" horiz-adv-x="478" 
d="M320 527q75 0 123 -50l-4 -2q-44 48 -119 48q-76 0 -132 -48.5t-82.5 -122t-26.5 -159.5q0 -108 59 -161l2 3q53 86 96 124t96 38q39 0 60.5 -21.5t21.5 -57.5q0 -57 -46 -92t-116 -35q-67 0 -113 35l-47 -76l-3 1l47 77q-61 53 -61 165q0 87 27 161.5t84 123.5t134 49z
M332 193q-53 0 -95.5 -37.5t-95.5 -125.5q43 -35 111 -35t113 33.5t45 89.5q0 34 -20 54.5t-58 20.5z" />
    <glyph glyph-name="uni0256" unicode="&#x256;" horiz-adv-x="571" 
d="M547 -161l2 -3q-39 -29 -84 -29q-38 0 -58 25.5t-13 71.5l13 96l21 147q-42 -73 -88 -114.5t-112 -41.5q-69 0 -109.5 50.5t-40.5 141.5q0 54 13 110.5t39 110.5t75 88.5t112 34.5q58 0 95.5 -29.5t53.5 -71.5l43 305l4 -1l-102 -730l-13 -96q-7 -45 11.5 -69t55.5 -24
q45 0 82 28zM228 -5q66 0 112.5 42t87.5 117l38 266q-39 103 -149 103q-63 0 -111 -34t-73.5 -87.5t-38 -109t-12.5 -109.5q0 -89 39.5 -138.5t106.5 -49.5z" />
    <glyph glyph-name="uni0257" unicode="&#x257;" horiz-adv-x="571" 
d="M595 733q44 0 76 -28l-2 -3q-31 28 -74 28q-37 0 -62.5 -24t-32.5 -69l-17 -120l-72 -517h-4l21 147q-42 -73 -88 -114.5t-112 -41.5q-69 0 -109.5 50.5t-40.5 141.5q0 54 13 110.5t39 110.5t75 88.5t112 34.5q58 0 95.5 -29.5t53.5 -71.5l13 91l17 120q7 46 33.5 71
t65.5 25zM428 154l38 266q-39 103 -149 103q-63 0 -111 -34t-73.5 -87.5t-38 -109t-12.5 -109.5q0 -89 39.5 -138.5t106.5 -49.5q66 0 112.5 42t87.5 117z" />
    <glyph glyph-name="uni0258" unicode="&#x258;" horiz-adv-x="520" 
d="M261 527q96 0 139.5 -59.5t43.5 -151.5q0 -134 -64 -229.5t-174 -95.5q-84 0 -146 59l2 3q63 -58 144 -58q87 0 145 62t79 161q-180 2 -259 40t-79 117q0 66 46.5 109t122.5 43zM96 375q0 -77 77.5 -114t256.5 -40q10 44 10 95q0 90 -42.5 148.5t-136.5 58.5
q-74 0 -119.5 -41.5t-45.5 -106.5z" />
    <glyph glyph-name="uni0259" unicode="&#x259;" horiz-adv-x="520" 
d="M281 526q77 0 121 -51.5t44 -147.5q0 -39 -7.5 -82t-26 -89t-46 -82.5t-72 -60t-99.5 -23.5q-60 0 -100.5 30t-40.5 83q0 84 95.5 135.5t291.5 60.5q1 9 1 27q0 95 -42.5 145.5t-118.5 50.5q-79 0 -161 -58l-2 3q81 59 163 59zM195 -6q61 0 109.5 29.5t76 76.5t42 96.5
t18.5 99.5q-194 -9 -288.5 -60t-94.5 -133q0 -51 39.5 -80t97.5 -29z" />
    <glyph glyph-name="uni025A" unicode="&#x25a;" horiz-adv-x="598" 
d="M651 371l2 -3q-41 -29 -84 -29q-39 0 -59 25.5t-13 71.5l11 77l-104 -41q42 -51 42 -145q0 -39 -7.5 -82t-26 -89t-46 -82.5t-72 -60t-99.5 -23.5q-60 0 -100.5 30t-40.5 83q0 84 95.5 135.5t291.5 60.5q1 9 1 27q0 95 -42.5 145.5t-118.5 50.5q-79 0 -161 -58l-2 3
q81 59 163 59q78 0 120 -51l107 42h4l-11 -81q-7 -45 12 -69t56 -24q43 0 82 28zM195 -6q61 0 109.5 29.5t76 76.5t42 96.5t18.5 99.5q-194 -9 -288.5 -60t-94.5 -133q0 -51 39.5 -80t97.5 -29z" />
    <glyph glyph-name="uni025B" unicode="&#x25b;" horiz-adv-x="448" 
d="M211 -9q-68 0 -109 35.5t-41 97.5q0 58 42 102t132 47q-55 4 -85.5 33.5t-30.5 76.5q0 57 47.5 100.5t126.5 43.5q85 0 140 -45l-4 -2q-50 43 -136 43q-78 0 -124 -42t-46 -98q0 -48 33.5 -78t99.5 -30h57l-1 -4h-59q-100 0 -144 -44.5t-44 -103.5t39.5 -93.5
t106.5 -34.5q97 0 167 58l2 -4q-71 -58 -169 -58z" />
    <glyph glyph-name="uni025C" unicode="&#x25c;" horiz-adv-x="462" 
d="M250 527q63 0 98 -31t35 -84q0 -51 -35 -91t-109 -46q136 -8 136 -117q0 -66 -48 -116.5t-141 -50.5q-44 0 -79 11.5t-53.5 24t-42.5 34.5l2 3q36 -33 73.5 -51t99.5 -18q92 0 138.5 49t46.5 114q0 115 -159 115h-56l1 4h55q89 0 128 41t39 94q0 52 -33.5 81.5
t-95.5 29.5q-80 0 -164 -50l-2 3q86 51 166 51z" />
    <glyph glyph-name="uni025D" unicode="&#x25d;" 
d="M614 371l2 -3q-43 -29 -84 -29q-39 0 -59.5 25.5t-13.5 71.5l11 77l-103 -40q16 -25 16 -61q0 -51 -35 -91t-109 -46q136 -8 136 -117q0 -66 -48 -116.5t-141 -50.5q-44 0 -79 11.5t-53.5 24t-42.5 34.5l2 3q36 -33 73.5 -51t99.5 -18q92 0 138.5 49t46.5 114
q0 115 -159 115h-56l1 4h55q89 0 128 41t39 94q0 35 -15 59h-1v1q-31 51 -113 51q-80 0 -164 -50l-2 3q86 51 166 51q82 0 115 -51l105 41h4l-11 -81q-7 -45 12 -69t57 -24q44 0 82 28z" />
    <glyph glyph-name="uni025E" unicode="&#x25e;" horiz-adv-x="538" 
d="M256 -9q-89 -1 -135 51.5t-46 148.5q0 139 66.5 237.5t185.5 98.5q62 0 97 -32t35 -83t-34.5 -91t-109.5 -46q136 -8 136 -117q0 -67 -49 -117t-146 -50zM256 -5q96 0 143.5 49t47.5 114q0 115 -159 115h-40v4h41q89 0 127.5 41t38.5 94q0 50 -33.5 80.5t-94.5 30.5
q-80 0 -137.5 -48.5t-84 -122t-26.5 -161.5q0 -94 45 -145.5t132 -50.5z" />
    <glyph glyph-name="uni025F" unicode="&#x25f;" horiz-adv-x="281" 
d="M255 246v-4h-115l-34 -241q-12 -86 -39 -124.5t-87 -67.5l-2 2q59 29 86 67.5t38 123.5l34 240h-113l1 4h112l38 271h4l-38 -271h115z" />
    <glyph glyph-name="uni0260" unicode="&#x260;" horiz-adv-x="557" 
d="M580 733q43 0 77 -28l-3 -3q-32 28 -74 28q-37 0 -62.5 -24t-32.5 -69l-17 -120l-79 -527q-15 -100 -60.5 -141t-117.5 -41q-91 0 -160 46l2 4q69 -46 158 -46q70 0 115 40t59 137l21 141q-33 -64 -80.5 -97t-97.5 -33q-72 0 -112.5 55t-40.5 141q0 57 13.5 112t42.5 106
t82 82t123 31q69 0 124 -38l4 28l17 120q7 46 33.5 71t65.5 25zM228 4q108 0 179 135l52 346q-54 39 -123 39t-121.5 -31t-80.5 -81.5t-41.5 -104.5t-13.5 -111q0 -85 39.5 -138.5t109.5 -53.5z" />
    <glyph glyph-name="uni0261" unicode="&#x261;" horiz-adv-x="550" 
d="M336 527q70 0 127 -40l-74 -497q-15 -100 -60.5 -141t-117.5 -41q-91 0 -160 46l2 4q69 -46 158 -46q70 0 115 40t59 137l21 141q-33 -64 -80.5 -97t-97.5 -33q-72 0 -112.5 55t-40.5 141q0 57 13.5 112t42.5 106t82 82t123 31zM336 524q-69 0 -121.5 -31t-80.5 -81.5
t-41.5 -104.5t-13.5 -111q0 -85 39.5 -138.5t109.5 -53.5q108 0 179 135l52 346q-55 39 -123 39z" />
    <glyph glyph-name="uni0262" unicode="&#x262;" horiz-adv-x="546" 
d="M326 529q79 0 132 -45l-3 -4q-51 45 -129 45q-111 0 -179 -97.5t-68 -229.5q0 -100 48 -150.5t129 -50.5q83 0 151 37l32 224h-130v4h134l-32 -230q-74 -39 -155 -39q-83 0 -132 51.5t-49 153.5q0 134 69.5 232.5t181.5 98.5z" />
    <glyph glyph-name="uni0263" unicode="&#x263;" horiz-adv-x="436" 
d="M443 517l-253 -476q37 -109 37 -155q0 -34 -18 -56.5t-54 -22.5q-25 0 -38 14.5t-13 38.5q0 54 81 182l-120 475h5l118 -472l251 472h4zM223 -114q0 43 -36 153q-79 -126 -79 -179q0 -50 47 -50q34 0 51 21.5t17 54.5z" />
    <glyph glyph-name="uni0264" unicode="&#x264;" horiz-adv-x="507" 
d="M478 527q28 0 54 -24l-2 -3q-25 23 -52 23q-24 0 -42 -15t-39 -50l-150 -254q40 -94 40 -141q0 -30 -18.5 -51t-51.5 -21q-27 0 -40.5 14.5t-13.5 37.5q0 50 79 162l-77 254q-11 35 -25 49.5t-38 14.5q-26 0 -56 -23l-1 3q30 24 57 24q26 0 41 -16t26 -52l76 -251
l148 251q22 37 41 52.5t44 15.5zM283 63q0 44 -39 138q-77 -108 -77 -158q0 -48 50 -48q31 0 48.5 19.5t17.5 48.5z" />
    <glyph glyph-name="uni0265" unicode="&#x265;" horiz-adv-x="574" 
d="M215 -10q-133 0 -112 159l52 368h4l-52 -368q-21 -155 108 -155q66 0 120.5 46.5t106.5 149.5l46 327h4l-99 -708l-4 -1l52 372q-95 -190 -226 -190z" />
    <glyph glyph-name="uni0266" unicode="&#x266;" horiz-adv-x="580" 
d="M365 527q133 0 112 -159l-52 -368h-4l52 368q21 156 -108 156q-66 0 -120.5 -46.5t-106.5 -149.5l-46 -328h-4l72 516l15 102q7 55 42.5 85t85.5 30q61 0 106 -32l-2 -4q-47 33 -103 33q-49 0 -83.5 -29t-41.5 -83l-15 -102l-24 -179q94 190 225 190z" />
    <glyph glyph-name="uni0267" unicode="&#x267;" horiz-adv-x="580" 
d="M365 527q133 0 112 -159l-52 -368l-13 -96q-7 -47 -34 -72t-66 -25q-43 0 -76 29l3 3q30 -28 73 -28q38 0 63.5 24t32.5 69l13 96l52 368q21 156 -108 156q-66 0 -120.5 -46.5t-106.5 -149.5l-46 -328h-4l72 516h1l15 102q7 55 42 85t86 30q59 0 106 -32l-2 -4
q-49 33 -104 33q-49 0 -83 -29t-41 -83l-15 -102h-1l-24 -179q94 190 225 190z" />
    <glyph glyph-name="uni0268" unicode="&#x268;" horiz-adv-x="281" 
d="M202 693q-7 0 -7 8q0 7 8 7q7 0 7 -8q0 -7 -8 -7zM260 283v-4h-115l-39 -279h-4l39 279h-113l1 4h112l33 234h4l-33 -234h115z" />
    <glyph glyph-name="uni0269" unicode="&#x269;" horiz-adv-x="274" 
d="M145 -9q-63 0 -53 74l63 452h4l-63 -452q-10 -70 50 -70q20 0 41 8l1 -4q-21 -8 -43 -8z" />
    <glyph glyph-name="uni026A" unicode="&#x26a;" horiz-adv-x="300" 
d="M301 514h-114l-71 -510h114v-4h-232v4h114l71 510h-113v3h232z" />
    <glyph glyph-name="uni026B" unicode="&#x26b;" horiz-adv-x="276" 
d="M281 381l3 -2q-34 -46 -78 -46q-24 0 -68 28l-41 -296q-10 -70 49 -70q21 0 42 8l1 -4q-21 -8 -43 -8q-63 0 -53 74l42 298q-40 25 -64 25q-39 0 -75 -44l-3 2q34 46 78 46q26 0 64 -25l51 363l4 1l-51 -366q44 -28 67 -28q41 0 75 44z" />
    <glyph glyph-name="uni026C" unicode="&#x26c;" horiz-adv-x="296" 
d="M149 289l-31 -224q-10 -70 49 -70q21 0 42 8l1 -4q-21 -8 -43 -8q-63 0 -53 74l31 224q-98 0 -98 68q0 37 25.5 58t65.5 21q12 0 28 -2l41 296l4 1l-61 -438q45 1 81 8v-4q-37 -7 -82 -8zM145 293h1l19 137q-16 2 -27 2q-38 0 -62.5 -20t-24.5 -55q0 -64 94 -64z" />
    <glyph glyph-name="uni026D" unicode="&#x26d;" horiz-adv-x="253" 
d="M229 -161l2 -3q-41 -29 -84 -29q-39 0 -59 25.5t-13 71.5l13 96l102 730l4 1l-102 -731l-13 -96q-7 -45 11.5 -69t56.5 -24q45 0 82 28z" />
    <glyph glyph-name="uni026E" unicode="&#x26e;" horiz-adv-x="584" 
d="M547 517v-3l-270 -324h44q190 0 190 -151q0 -101 -60.5 -166.5t-159.5 -65.5q-101 0 -158 75l3 3q55 -74 155 -74q97 0 156.5 64.5t59.5 163.5q0 148 -186 148h-50v3l270 323h-382l-63 -448q-10 -70 50 -70q21 0 42 8v-4q-21 -8 -42 -8q-64 0 -54 74l93 665l4 1l-29 -214
h387z" />
    <glyph glyph-name="uni026F" unicode="&#x26f;" horiz-adv-x="843" 
d="M750 517h4l-72 -517h-3l24 180q-85 -190 -206 -190q-58 0 -82.5 42t-13.5 117l4 26q-84 -185 -206 -185q-58 0 -82.5 42t-13.5 117l51 368h4l-51 -368q-11 -74 12.5 -114.5t79.5 -40.5q119 0 207 189l46 334h4l-51 -368q-11 -74 12.5 -114.5t79.5 -40.5q119 0 207 196z
" />
    <glyph glyph-name="uni0270" unicode="&#x270;" horiz-adv-x="838" 
d="M750 517h4l-98 -706l-4 -1l51 370q-85 -190 -206 -190q-58 0 -82.5 42t-13.5 117l4 25q-84 -184 -206 -184q-58 0 -82.5 42t-13.5 117l51 368h4l-51 -368q-11 -74 12.5 -114.5t79.5 -40.5q120 0 207 189l46 334h4l-51 -368q-11 -74 12.5 -114.5t79.5 -40.5q119 0 207 196
z" />
    <glyph glyph-name="uni0271" unicode="&#x271;" horiz-adv-x="843" 
d="M644 527q58 0 82 -42t13 -117l-51 -368l-13 -96q-7 -47 -33.5 -72t-65.5 -25q-45 0 -76 29l2 3q30 -28 74 -28q37 0 62.5 24t32.5 69l13 96l51 368q11 75 -12.5 115.5t-79.5 40.5q-120 0 -207 -192l-46 -332h-4l51 368q11 74 -12 115t-79 41q-118 0 -208 -196l-46 -328
h-4l72 517h4l-24 -180q85 190 206 190q58 0 82 -42t13 -117l-3 -26q84 185 206 185z" />
    <glyph glyph-name="uni0272" unicode="&#x272;" horiz-adv-x="580" 
d="M368 527q64 0 91.5 -41.5t17.5 -117.5l-52 -368h-4l52 368q10 75 -16 115.5t-89 40.5q-68 0 -123 -46t-107 -150l-46 -328l-13 -96q-7 -47 -33.5 -72t-65.5 -25q-45 0 -76 29l2 3q30 -28 74 -28q37 0 62.5 24t32.5 69l13 96l72 517h4l-24 -180q50 100 105.5 145t122.5 45
z" />
    <glyph glyph-name="uni0273" unicode="&#x273;" horiz-adv-x="580" 
d="M561 -161l2 -3q-39 -29 -84 -29q-39 0 -58.5 25.5t-12.5 71.5l13 96l52 368q10 75 -16 115.5t-89 40.5q-68 0 -123 -46t-107 -150l-46 -328h-4l72 517h4l-24 -180q50 100 105.5 145t122.5 45q64 0 91.5 -41.5t17.5 -117.5l-52 -368l-13 -96q-7 -45 11.5 -69t55.5 -24
q45 0 82 28z" />
    <glyph glyph-name="uni0274" unicode="&#x274;" horiz-adv-x="579" 
d="M490 517l-72 -517h-5l-249 512q-4 -36 -13 -91l-59 -421h-4l72 517h6l249 -512q12 86 16 115l55 397h4z" />
    <glyph glyph-name="uni0275" unicode="&#x275;" horiz-adv-x="559" 
d="M318 527q79 0 123 -52t44 -147q0 -53 -12.5 -108t-39 -108.5t-76 -87t-115.5 -33.5q-80 0 -124 53t-44 148q0 54 13 109t40 107.5t76.5 85.5t114.5 33zM318 523q-71 0 -123 -41t-76.5 -96.5t-34.5 -122.5h392q5 29 5 65q0 93 -42.5 144t-120.5 51zM242 -5q54 0 97.5 23.5
t70.5 63.5t43 84t23 93h-393q-5 -38 -5 -67q0 -94 43 -145.5t121 -51.5z" />
    <glyph glyph-name="uni0276" unicode="&#x276;" horiz-adv-x="728" 
d="M696 517l-1 -4h-308q43 -18 70.5 -65.5t27.5 -120.5q0 -17 -2 -49h143v-4h-144q-9 -98 -51.5 -172t-114.5 -98h317v-4h-327q-29 -9 -64 -9q-80 0 -124 53t-44 148q0 54 13 109t40 107.5t76.5 85.5t114.5 33q33 0 61 -10h317zM481 328q0 85 -41 140t-122 55q-52 0 -94 -22
t-68.5 -56.5t-44.5 -79.5t-25.5 -88t-7.5 -85q0 -94 43 -145.5t121 -51.5q65 0 113.5 31t74.5 82.5t38.5 106.5t12.5 113z" />
    <glyph glyph-name="uni0277" unicode="&#x277;" horiz-adv-x="735" 
d="M404 527q121 0 186 -62t65 -179q0 -54 -11.5 -105t-34 -94.5t-61 -69.5t-87.5 -26q-66 0 -91 43.5t-18 114.5q-15 -80 -55.5 -119t-99.5 -39q-57 0 -91.5 41t-34.5 128q0 167 88 267t245 100zM460 -5q64 0 109 45.5t63.5 109.5t18.5 137q0 115 -64 175.5t-183 60.5
q-156 0 -242.5 -99.5t-86.5 -263.5q0 -86 33.5 -125.5t88.5 -39.5q60 0 102 43t55 137l20 140h4l-20 -142q-26 -178 102 -178z" />
    <glyph glyph-name="uni0278" unicode="&#x278;" horiz-adv-x="620" 
d="M559 304q0 -135 -73.5 -214t-208.5 -83l-28 -197l-4 -1l28 198q-102 3 -157 56.5t-55 151.5q0 135 74.5 213.5t207.5 82.5l31 219l4 1l-31 -220q102 -2 157 -55.5t55 -151.5zM65 215q0 -97 54 -149.5t154 -54.5l70 496q-131 -3 -204.5 -81t-73.5 -211zM277 11
q133 4 205.5 82t72.5 211q0 97 -53.5 149t-154.5 54z" />
    <glyph glyph-name="uni0279" unicode="&#x279;" horiz-adv-x="361" 
d="M33 -10q-23 0 -46 7l2 4q19 -7 44 -7q64 0 107.5 39t79.5 137l49 347h4l-72 -517h-4l22 159q-35 -93 -78.5 -131t-107.5 -38z" />
    <glyph glyph-name="uni027A" unicode="&#x27a;" horiz-adv-x="361" 
d="M269 517l30 214l4 -1l-30 -213h-4zM33 -10q-23 0 -46 7l2 4q19 -7 44 -7q64 0 107.5 39t79.5 137l49 347h4l-72 -517h-4l22 159q-35 -93 -78.5 -131t-107.5 -38z" />
    <glyph glyph-name="uni027B" unicode="&#x27b;" horiz-adv-x="361" 
d="M337 -161l2 -3q-39 -29 -84 -29q-39 0 -58.5 25.5t-12.5 71.5l13 96l22 158q-34 -92 -78 -130t-107 -38q-24 0 -47 7l2 4q21 -7 45 -7q63 0 106.5 39.5t79.5 137.5l49 346h4l-72 -517l-13 -96q-7 -45 11.5 -69t55.5 -24q45 0 82 28z" />
    <glyph glyph-name="uni027C" unicode="&#x27c;" horiz-adv-x="361" 
d="M328 527q23 0 46 -7l-2 -3q-22 6 -44 6q-64 0 -107.5 -39t-79.5 -137l-75 -538l-4 -1l98 709h4l-22 -159q35 93 78.5 131t107.5 38z" />
    <glyph glyph-name="uni027D" unicode="&#x27d;" horiz-adv-x="361" 
d="M328 527q23 0 46 -7l-2 -3q-22 6 -44 6q-64 0 -107.5 -39t-79.5 -137l-49 -347h1l-13 -96q-7 -45 11.5 -69t55.5 -24q45 0 82 28l2 -3q-39 -29 -84 -29q-39 0 -58.5 25.5t-12.5 71.5l13 96h-1l72 517h4l-22 -159q35 93 78.5 131t107.5 38z" />
    <glyph glyph-name="uni027E" unicode="&#x27e;" horiz-adv-x="316" 
d="M241 521q45 0 76 -29l-2 -3q-30 28 -74 28q-38 0 -63.5 -24t-32.5 -69l-13 -96l-45 -328h-4l45 328l13 96q7 47 34 72t66 25z" />
    <glyph glyph-name="uni027F" unicode="&#x27f;" horiz-adv-x="316" 
d="M150 527q39 0 58.5 -25t12.5 -71l-13 -96h-4l13 96q7 45 -11.5 68.5t-55.5 23.5q-47 0 -82 -27l-2 3q37 28 84 28zM208 335l-47 -335h-4l47 335h4z" />
    <glyph glyph-name="uni0280" unicode="&#x280;" horiz-adv-x="510" 
d="M440 401q0 -75 -47.5 -112t-108.5 -40l121 -249h-5l-121 248h-152l-35 -248h-4l72 517h119q161 0 161 -116zM128 252h145q65 0 114 37.5t49 111.5q0 112 -158 112h-114z" />
    <glyph glyph-name="uni0281" unicode="&#x281;" horiz-adv-x="510" 
d="M287 269q50 -3 84.5 -30t34.5 -81q0 -158 -209 -158h-109l72 517h4l-34 -248h152l190 248h5zM197 4q205 0 205 154q0 55 -36.5 81t-89.5 26h-147l-36 -261h104z" />
    <glyph glyph-name="uni0282" unicode="&#x282;" horiz-adv-x="457" 
d="M259 523q-67 0 -113 -33.5t-46 -90.5q0 -42 29 -69t105 -52q77 -25 107.5 -55t30.5 -82q0 -69 -50.5 -109.5t-128.5 -40.5q-97 0 -161 62l-23 -157q-6 -45 12.5 -69t56.5 -24q44 0 82 28l2 -3q-39 -28 -84 -28q-39 0 -59.5 25t-13.5 71l23 161l2 3q67 -65 163 -65
q75 0 125 39t50 107q0 51 -29.5 79.5t-105.5 53.5q-78 25 -108 53t-30 72q0 58 47.5 93t116.5 35q89 0 144 -52l-3 -2q-53 50 -141 50z" />
    <glyph glyph-name="uni0283" unicode="&#x283;" horiz-adv-x="253" 
d="M277 733q44 0 76 -28l-2 -3q-31 28 -74 28q-38 0 -63.5 -24t-32.5 -69l-16 -120l-73 -517l-12 -96q-7 -47 -34 -72t-66 -25q-45 0 -76 29l2 3q30 -28 74 -28q37 0 63 24t33 69l12 96l73 517l16 120q7 46 34 71t66 25z" />
    <glyph glyph-name="uni0284" unicode="&#x284;" horiz-adv-x="281" 
d="M291 733q44 0 76 -28l-2 -3q-31 28 -74 28q-38 0 -63.5 -24t-32.5 -69l-17 -120l-71 -513h112v-4h-113q-12 -85 -39 -123.5t-87 -67.5l-2 2q59 30 86 67.5t38 121.5h-114v4h115l71 513l17 120q7 46 34 71t66 25z" />
    <glyph glyph-name="uni0285" unicode="&#x285;" horiz-adv-x="383" 
d="M146 527q39 0 58.5 -25t12.5 -71l-12 -96h-4l12 96q7 44 -11.5 68t-55.5 24q-47 0 -82 -27l-2 3q37 28 84 28zM205 335l-22 -152h-4l22 152h4zM237 -9q-39 0 -58.5 25t-12.5 72l13 95h4l-13 -95q-7 -45 11.5 -69t55.5 -24q44 0 82 27l2 -3q-37 -28 -84 -28z" />
    <glyph glyph-name="uni0286" unicode="&#x286;" horiz-adv-x="267" 
d="M290 733q43 0 77 -28l-3 -3q-32 28 -74 28q-37 0 -62.5 -24t-32.5 -69l-17 -120l-78 -558q34 -9 74 -30l-1 -4q-40 21 -73 30q-24 -148 -140 -148q-38 0 -61.5 20t-23.5 53q0 42 34 67t88 25q47 0 99 -12l78 557l17 120q7 46 33.5 71t65.5 25zM-40 -189q114 0 136 145
q-47 12 -99 12q-53 0 -85.5 -23.5t-32.5 -64.5q0 -31 22 -50t59 -19z" />
    <glyph glyph-name="uni0287" unicode="&#x287;" horiz-adv-x="322" 
d="M257 4l-1 -4h-86l-20 -134h-3l19 134h-146v4h146l56 400q8 56 -14 87t-70 31q-47 0 -96 -28l-2 4q50 28 99 28t72 -32t15 -90l-56 -400h87z" />
    <glyph glyph-name="uni0288" unicode="&#x288;" horiz-adv-x="322" 
d="M84 0l-12 -96q-7 -45 11.5 -69t55.5 -24q45 0 82 28l2 -3q-39 -29 -84 -29q-39 0 -58.5 25.5t-12.5 71.5l12 96l72 513h-87l1 4h87l19 134h4l-19 -134h145v-4h-146z" />
    <glyph glyph-name="uni0289" unicode="&#x289;" horiz-adv-x="593" 
d="M556 382v-4h-85l-53 -378h-3l23 167q-37 -85 -91.5 -130.5t-119.5 -45.5q-66 0 -97.5 41t-21.5 118l32 228h-84v4h84l19 135h4l-19 -135h324l18 135h4l-19 -135h85zM439 174l28 204h-323l-32 -228q-10 -75 20.5 -115t94.5 -40q65 0 120 46t92 133z" />
    <glyph glyph-name="uni028A" unicode="&#x28a;" horiz-adv-x="562" 
d="M244 -9q-82 0 -126.5 52t-44.5 142q0 101 43 187.5t120 140.5h-104v4h108v-5q-80 -56 -121.5 -142t-41.5 -185q0 -89 43 -139.5t124 -50.5q110 0 173 88t63 217q0 132 -86 213l1 4h108v-4h-104q85 -82 85 -213q0 -130 -64 -219.5t-176 -89.5z" />
    <glyph glyph-name="uni028B" unicode="&#x28b;" horiz-adv-x="553" 
d="M228 -9q-65 0 -100.5 42t-24.5 120l51 364h4l-51 -364q-10 -76 24 -117t97 -41q84 0 143 65t78 199l28 194q5 33 -8 51.5t-41 18.5q-19 0 -40 -8l-1 4q21 8 41 8q30 0 44 -19.5t9 -54.5l-28 -195q-19 -135 -79.5 -201t-145.5 -66z" />
    <glyph glyph-name="uni028C" unicode="&#x28c;" horiz-adv-x="436" 
d="M-7 0l253 517h5l120 -517h-4l-119 513l-251 -513h-4z" />
    <glyph glyph-name="uni028D" unicode="&#x28d;" horiz-adv-x="673" 
d="M3 0l213 517h5l80 -512l223 512h5l69 -517h-4l-68 513l-223 -513h-5l-80 513l-211 -513h-4z" />
    <glyph glyph-name="uni028E" unicode="&#x28e;" horiz-adv-x="435" 
d="M-7 0l251 517q51 108 92.5 150.5t120.5 64.5v-3q-78 -22 -118 -63.5t-92 -148.5h3l120 -517h-4l-119 515l-250 -515h-4z" />
    <glyph glyph-name="uni028F" unicode="&#x28f;" horiz-adv-x="393" 
d="M409 517l-217 -305l-29 -212h-4l29 212l-133 305h4l132 -301l214 301h4z" />
    <glyph glyph-name="uni0290" unicode="&#x290;" horiz-adv-x="410" 
d="M465 -161l2 -3q-39 -29 -84 -29q-39 0 -58.5 25.5t-12.5 71.5l12 96h-325v4l402 509h-300v4h305v-3l-401 -510h324l-1 -4l-12 -96q-7 -45 11.5 -69t55.5 -24q45 0 82 28z" />
    <glyph glyph-name="uni0291" unicode="&#x291;" horiz-adv-x="421" 
d="M420 112q0 -65 -54 -88.5t-155 -23.5q-8 -48 -15 -102h-4q7 54 15 102h-208v4l402 509h-300v4h305v-3l-402 -510h204q16 95 50.5 137t89.5 42q33 0 52.5 -18.5t19.5 -52.5zM212 4q99 0 151.5 22.5t52.5 85.5q0 33 -18.5 50t-49.5 17q-53 0 -86.5 -41t-49.5 -134z" />
    <glyph glyph-name="uni0292" unicode="&#x292;" horiz-adv-x="439" 
d="M403 517l-1 -3l-270 -324h45q189 0 189 -151q0 -101 -60.5 -166.5t-159.5 -65.5q-105 0 -169 79l4 2q61 -77 165 -77q97 0 156.5 64.5t59.5 163.5q0 148 -186 148h-50v3l271 323h-316v4h322z" />
    <glyph glyph-name="uni0293" unicode="&#x293;" horiz-adv-x="439" 
d="M403 517l-1 -3l-270 -324h44q190 0 190 -151q0 -73 -34 -127.5t-100 -81.5l19 -62l-3 -1l-20 62q-53 -22 -124 -22q-63 0 -98 27t-35 74q0 44 29 74.5t74 30.5q57 0 91.5 -40.5t65.5 -138.5q64 27 97.5 80.5t33.5 124.5q0 148 -186 148h-50v3l271 323h-316v4h322z
M-25 -92q0 -46 34 -71.5t95 -25.5q68 0 123 21q-32 98 -65 137.5t-88 39.5q-43 0 -71 -29.5t-28 -71.5z" />
    <glyph glyph-name="uni0294" unicode="&#x294;" horiz-adv-x="421" 
d="M102 0l45 322l69 14q94 19 143 78.5t49 153.5q0 74 -40 117.5t-114 43.5q-97 0 -182 -78l-2 4q85 78 184 78q76 0 117 -45t41 -120q0 -95 -50.5 -155.5t-145.5 -80.5l-65 -13l-45 -319h-4z" />
    <glyph glyph-name="uni0295" unicode="&#x295;" horiz-adv-x="420" 
d="M246 0h-4l45 319l-58 12q-144 33 -144 161q0 103 61 172t159 69q96 0 157 -79l-4 -3q-58 78 -152 78q-97 0 -157 -68t-59 -169q-1 -126 140 -157l62 -13z" />
    <glyph glyph-name="uni0296" unicode="&#x296;" horiz-adv-x="489" 
d="M243 730l4 1l-46 -322l61 -14q141 -29 141 -165q0 -103 -61.5 -169.5t-153.5 -66.5q-98 0 -160 79l3 3q62 -78 157 -78q91 0 151 65.5t60 166.5q0 131 -137 162l-65 14z" />
    <glyph glyph-name="uni0297" unicode="&#x297;" horiz-adv-x="493" 
d="M350 527q72 0 117 -50l-4 -2q-42 48 -113 48q-84 0 -146 -73t-90 -179t-28 -225q0 -117 41.5 -176t117.5 -59q74 0 136 52l3 -3q-65 -53 -139 -53q-78 0 -120.5 60.5t-42.5 178.5q0 121 28.5 228t91.5 180t148 73z" />
    <glyph glyph-name="uni0298" unicode="&#x298;" horiz-adv-x="787" 
d="M453 689q126 0 196.5 -71.5t70.5 -201.5q0 -185 -97.5 -305t-266.5 -120q-125 0 -195.5 72t-70.5 202q0 179 100.5 301.5t262.5 122.5zM453 685q-161 0 -260 -121.5t-99 -298.5q0 -128 69 -199t193 -71q167 0 263.5 119t96.5 302q0 129 -69 199t-194 70zM406 344
q9 0 7 -8q0 -7 -7 -7q-9 0 -7 7q0 8 7 8z" />
    <glyph glyph-name="uni0299" unicode="&#x299;" horiz-adv-x="500" 
d="M315 280q123 0 123 -104q0 -82 -60 -129t-153 -47h-137l72 512q74 16 137 16q144 0 144 -111q0 -59 -35 -96.5t-91 -40.5zM165 509l-33 -227h169q62 0 99 37.5t37 97.5q0 107 -140 107q-70 0 -132 -15zM225 4q92 0 150.5 45.5t58.5 126.5q0 102 -128 102h-174l-39 -274
h132z" />
    <glyph glyph-name="uni029A" unicode="&#x29a;" horiz-adv-x="543" 
d="M211 -9q-68 0 -109 35.5t-41 97.5q0 58 42 102t132 47q-55 4 -85.5 33.5t-30.5 76.5q0 57 47.5 100.5t126.5 43.5q83 0 129 -52.5t46 -150.5q0 -143 -67 -238.5t-190 -94.5zM212 -5q61 0 110 26t79.5 72t46.5 105t16 126q0 96 -45 147.5t-126 51.5q-78 0 -124 -42
t-46 -98q0 -48 33.5 -78t99.5 -30h45v-4h-48q-100 0 -144 -44.5t-44 -103.5t39.5 -93.5t107.5 -34.5z" />
    <glyph glyph-name="uni029B" unicode="&#x29b;" horiz-adv-x="545" 
d="M575 733q44 0 76 -28l-2 -3q-31 28 -74 28q-38 0 -64 -24t-32 -69l-21 -153l-3 -3q-52 44 -129 44q-111 0 -179 -97.5t-68 -229.5q0 -100 48 -150.5t130 -50.5t150 37l32 224h-130v4h134l-32 -230q-74 -39 -154 -39q-84 0 -133 51.5t-49 153.5q0 134 69.5 232.5
t181.5 98.5q78 0 128 -44l21 152q6 46 33.5 71t66.5 25z" />
    <glyph glyph-name="uni029C" unicode="&#x29c;" horiz-adv-x="578" 
d="M414 0l38 270h-322l-38 -270h-4l72 517h4l-34 -243h322l34 243h4l-72 -517h-4z" />
    <glyph glyph-name="uni029D" unicode="&#x29d;" horiz-adv-x="268" 
d="M204 708q7 0 7 -8q0 -7 -8 -7q-7 0 -7 8q0 7 8 7zM175 517h4l-79 -558q34 -9 74 -30l-1 -4q-40 21 -73 30q-24 -148 -140 -148q-38 0 -61.5 20t-23.5 53q0 42 34 67t88 25q47 0 99 -12zM-40 -189q114 0 136 145q-47 12 -99 12q-53 0 -85.5 -23.5t-32.5 -64.5
q0 -31 22 -50t59 -19z" />
    <glyph glyph-name="uni029E" unicode="&#x29e;" horiz-adv-x="445" 
d="M15 0l291 234l-246 283h6l245 -283l-290 -234h-6zM259 -190l98 707h4l-98 -706z" />
    <glyph glyph-name="uni029F" unicode="&#x29f;" horiz-adv-x="396" 
d="M164 517l-71 -513h248v-4h-253l72 517h4z" />
    <glyph glyph-name="uni02A0" unicode="&#x2a0;" horiz-adv-x="550" 
d="M579 733q43 0 77 -28l-3 -3q-31 28 -74 28q-37 0 -62.5 -24t-32.5 -69l-17 -120l-103 -706l-4 -1l44 306q-33 -62 -80 -93.5t-97 -31.5q-72 0 -113 53.5t-41 139.5q0 57 14 114t43 110t82.5 86t123.5 33q68 0 123 -38l4 28l17 120q7 46 33.5 71t65.5 25zM406 125l53 360
q-55 39 -123 39q-56 0 -101.5 -22t-74 -57t-48 -80.5t-27.5 -90.5t-8 -90q0 -85 40 -137t110 -52q51 0 97.5 32.5t81.5 97.5z" />
    <glyph glyph-name="uni02A1" unicode="&#x2a1;" horiz-adv-x="421" 
d="M216 332l-65 -13l-17 -119h120l-1 -3h-120l-27 -197h-4l27 197h-72v3h73l17 122l69 14q94 19 143 78.5t49 153.5q0 74 -40 117.5t-114 43.5q-97 0 -182 -78l-2 4q85 78 184 78q76 0 117 -45t41 -120q0 -95 -50.5 -155.5t-145.5 -80.5z" />
    <glyph glyph-name="uni02A2" unicode="&#x2a2;" horiz-adv-x="420" 
d="M305 733q96 0 157 -79l-4 -3q-58 78 -152 78q-97 0 -157 -68t-59 -169q-1 -126 140 -157l62 -13l-17 -122h84l-1 -3h-84l-28 -197h-4l28 197h-108v3h108l17 119l-58 12q-144 33 -144 161q0 103 61 172t159 69z" />
    <glyph glyph-name="uni02A3" unicode="&#x2a3;" horiz-adv-x="822" 
d="M819 517l-1 -3l-401 -510h319v-4h-325h-4l21 147q-42 -73 -88 -114.5t-112 -41.5q-69 0 -109.5 50.5t-40.5 141.5q0 54 13 110.5t39 110.5t75 88.5t112 34.5q58 0 95.5 -29.5t53.5 -71.5l43 305l4 -1l-30 -213h336zM228 -5q66 0 112.5 42t87.5 117l38 266
q-39 103 -149 103q-63 0 -111 -34t-73.5 -87.5t-38 -109t-12.5 -109.5q0 -89 39.5 -138.5t106.5 -49.5zM411 4l402 509h-330z" />
    <glyph glyph-name="uni02A4" unicode="&#x2a4;" horiz-adv-x="841" 
d="M804 517v-3l-271 -324h45q189 0 189 -151q0 -101 -60.5 -166.5t-159.5 -65.5q-105 0 -168 79l3 2q63 -77 165 -77q97 0 156.5 64.5t59.5 163.5q0 148 -185 148h-50v3l270 323h-315v3l-72 -516h-4l21 147q-42 -73 -88 -114.5t-112 -41.5q-69 0 -109.5 50.5t-40.5 141.5
q0 54 13 110.5t39 110.5t75 88.5t112 34.5q58 0 95.5 -29.5t53.5 -71.5l43 305l4 -1l-30 -213h321zM428 154l38 266q-39 103 -149 103q-63 0 -111 -34t-73.5 -87.5t-38 -109t-12.5 -109.5q0 -89 39.5 -138.5t106.5 -49.5q66 0 112.5 42t87.5 117z" />
    <glyph glyph-name="uni02A5" unicode="&#x2a5;" horiz-adv-x="833" 
d="M832 112q0 -65 -54 -88.5t-155 -23.5q-8 -48 -15 -102h-3q4 47 14 102h-208h-4l21 147q-42 -73 -88 -114.5t-112 -41.5q-69 0 -109.5 50.5t-40.5 141.5q0 54 13 110.5t39 110.5t75 88.5t112 34.5q58 0 95.5 -29.5t53.5 -71.5l43 305l4 -1l-30 -213h336l-1 -3l-402 -510
h204q16 95 50.5 137t89.5 42q33 0 52.5 -18.5t19.5 -52.5zM228 -5q66 0 112.5 42t87.5 117l38 266q-39 103 -149 103q-63 0 -111 -34t-73.5 -87.5t-38 -109t-12.5 -109.5q0 -89 39.5 -138.5t106.5 -49.5zM483 513l-72 -509l402 509h-330zM624 4q100 0 152 22.5t52 85.5
q0 33 -18.5 50t-49.5 17q-53 0 -86.5 -41t-49.5 -134z" />
    <glyph glyph-name="uni02A6" unicode="&#x2a6;" horiz-adv-x="629" 
d="M450 523q-66 0 -112 -38t-46 -96q0 -42 29 -67.5t96 -44.5q71 -21 100 -47t29 -76q0 -76 -62.5 -119.5t-178.5 -43.5q-121 0 -167 43t-34 129l48 350h-87l1 4h87l19 134h4l-19 -134h125v-4h-126l-48 -350q-12 -85 33 -126.5t164 -41.5q113 0 175 42.5t62 116.5
q0 48 -29 73t-98 46q-67 19 -97 45.5t-30 70.5q0 59 47 98.5t115 39.5q80 0 137 -52l-3 -3q-54 51 -134 51z" />
    <glyph glyph-name="uni02A7" unicode="&#x2a7;" horiz-adv-x="534" 
d="M558 733q44 0 76 -28l-2 -3q-31 28 -74 28q-38 0 -63.5 -24t-32.5 -69l-16 -120l-72 -517h-1l-12 -96q-7 -47 -34 -72t-66 -25q-45 0 -76 29l2 3q30 -28 74 -28q37 0 63 24t33 69l12 96h1l3 22q-91 -31 -154 -31q-140 0 -119 142l52 380h-87l1 4h87l19 134h4l-19 -134
h285l16 120q7 46 34 71t66 25zM219 -5q69 0 155 31l68 487h-286l-52 -380q-21 -138 115 -138z" />
    <glyph glyph-name="uni02A8" unicode="&#x2a8;" horiz-adv-x="710" 
d="M552 527q75 0 123 -50l-3 -2q-45 48 -120 48q-74 0 -130 -48t-83 -122t-27 -160q0 -79 33 -130q74 75 119 104.5t95 29.5q43 0 65 -22t22 -60q0 -55 -44.5 -89.5t-117.5 -34.5q-93 0 -139 66q-44 -37 -77.5 -51.5t-75.5 -14.5q-56 0 -80 32.5t-16 89.5l56 400h-87l1 4h87
l19 134h3l-18 -134h145v-4h-146l-56 -400q-15 -118 92 -118q41 0 74.5 14.5t75.5 50.5q-35 53 -35 133q0 136 66.5 235t178.5 99zM559 193q-49 0 -93.5 -29.5t-118.5 -104.5q46 -64 137 -64q72 0 115 33.5t43 86.5q0 78 -83 78z" />
    <glyph glyph-name="uni02A9" unicode="&#x2a9;" horiz-adv-x="860" 
d="M648 527q64 0 91.5 -41.5t17.5 -117.5l-52 -368l-13 -96q-7 -47 -33.5 -72t-65.5 -25q-45 0 -76 29l2 3q30 -28 74 -28q37 0 62.5 24t32.5 69l13 96l52 368q10 75 -16 115.5t-89 40.5q-68 0 -123 -46t-107 -150l-46 -328h-4l72 513h-273l-73 -513h-4l73 513h-93l1 4h92
l14 101q8 56 43 85.5t86 29.5q61 0 110 -37l-3 -3q-48 37 -107 37q-49 0 -83 -29t-42 -83l-14 -101h275h2l-24 -180q50 100 105.5 145t122.5 45z" />
    <glyph glyph-name="uni02AA" unicode="&#x2aa;" horiz-adv-x="612" 
d="M294 -9q-100 0 -150 43.5t-38 129.5l79 566l4 1l-79 -567q-12 -84 37 -126.5t147 -42.5q110 0 170.5 42.5t60.5 116.5q0 48 -28.5 73.5t-97.5 45.5q-68 19 -98 45.5t-30 70.5q0 59 47 98.5t115 39.5q82 0 137 -52l-3 -3q-52 51 -134 51q-66 0 -111.5 -38t-46.5 -96
q1 -42 30 -67.5t95 -44.5q71 -21 100 -47t29 -76q0 -76 -62 -119.5t-173 -43.5z" />
    <glyph glyph-name="uni02AB" unicode="&#x2ab;" horiz-adv-x="602" 
d="M598 517v-3l-402 -510h320l-1 -4h-324q-24 -9 -45 -9q-64 0 -54 74l93 665l4 1l-93 -666q-10 -70 50 -70q22 0 44 9l402 509h-299v4h305z" />
    <glyph glyph-name="uni02AC" unicode="&#x2ac;" horiz-adv-x="453" 
d="M449 659l-114 -259h-5l-48 255l-120 -255h-4l-43 259h4l41 -256l120 256h5l48 -256l112 256h4zM393 259l-114 -259h-5l-48 255l-119 -255h-5l-43 259h4l42 -256l119 256h5l48 -256l113 256h3z" />
    <glyph glyph-name="uni02AD" unicode="&#x2ad;" horiz-adv-x="291" 
d="M282 402h-4l12 90h-223l-12 -92h-4l12 96h231zM225 2h-4l12 90h-223l-12 -92h-4l12 96h231z" />
    <glyph glyph-name="uni02AE" unicode="&#x2ae;" horiz-adv-x="651" 
d="M217 431q7 45 -11.5 68.5t-55.5 23.5q-47 0 -82 -27l-2 3q37 28 84 28q39 0 58.5 -25t12.5 -71l-13 -96h-4zM630 -160l2 -3q-39 -29 -83 -29q-39 0 -59 25.5t-13 71.5l13 96l26 179q-50 -100 -105 -145t-121 -45q-133 0 -111 159l25 186h4l-25 -186q-22 -155 107 -155
q66 0 120.5 46.5t106.5 149.5l46 327h4l-73 -516l-13 -96q-7 -45 11.5 -69t56.5 -24q44 0 81 28z" />
    <glyph glyph-name="uni02AF" unicode="&#x2af;" horiz-adv-x="649" 
d="M150 527q39 0 58.5 -25t12.5 -71l-13 -96h-4l13 96q7 45 -11.5 68.5t-55.5 23.5q-47 0 -82 -27l-2 3q37 28 84 28zM464 -192l52 372q-50 -100 -105 -145t-121 -45q-133 0 -111 159l25 186h4l-25 -186q-22 -155 107 -155q66 0 120.5 46.5t106.5 149.5l46 327h4l-99 -708z
" />
    <glyph glyph-name="uni02B0" unicode="&#x2b0;" horiz-adv-x="308" 
d="M229 664q76 0 65 -80l-25 -184h-4l25 184q11 77 -62 77q-66 0 -118 -68l-27 -193h-4l51 365h4l-23 -167q50 66 118 66z" />
    <glyph glyph-name="uni02B1" unicode="&#x2b1;" horiz-adv-x="308" 
d="M229 664q76 0 65 -80l-25 -184h-4l25 184q11 77 -62 77q-66 0 -118 -68v1l-27 -194h-4l36 259l7 50q4 28 24 43t48 15q33 0 61 -16l-2 -4q-26 17 -58 17q-27 0 -46 -14.5t-23 -40.5l-7 -51l-8 -60q48 66 118 66z" />
    <glyph glyph-name="uni02B2" unicode="&#x2b2;" horiz-adv-x="180" 
d="M184 756q6 0 6 -6q-2 -4 -7 -4q-6 0 -4 5q0 5 5 5zM173 659l-36 -257q-6 -44 -20.5 -63.5t-48.5 -34.5l-2 3q32 14 46.5 33.5t20.5 61.5l36 257h4z" />
    <glyph glyph-name="uni02B4" unicode="&#x2b4;" horiz-adv-x="239" 
d="M232 659h4l-36 -259h-4l9 68q-35 -73 -100 -73q-17 0 -26 3l1 4q11 -3 26 -3q65 0 101 78z" />
    <glyph glyph-name="uni02B7" unicode="&#x2b7;" horiz-adv-x="452" 
d="M449 659l-114 -259h-5l-48 255l-120 -255h-4l-43 259h4l41 -256l120 256h5l48 -256l112 256h4z" />
    <glyph glyph-name="uni02B8" unicode="&#x2b8;" horiz-adv-x="331" 
d="M327 659l-135 -257q-25 -49 -44.5 -68t-62.5 -29l-1 3q42 10 61 28t44 64h-2l-72 259h4l70 -257l134 257h4z" />
    <glyph glyph-name="uni02B9" unicode="&#x2b9;" horiz-adv-x="271" 
d="M115 446l122 234h4l-122 -234h-4z" />
    <glyph glyph-name="uni02BA" unicode="&#x2ba;" horiz-adv-x="391" 
d="M115 446l122 234h4l-122 -234h-4zM236 446l122 234h4l-122 -234h-4z" />
    <glyph glyph-name="uni02BB" unicode="&#x2bb;" horiz-adv-x="112" 
d="M86 605q-7 0 -7 6q0 3 9 22l58 107h2l-61 -122q6 0 6 -6q0 -7 -7 -7z" />
    <glyph glyph-name="uni02BC" unicode="&#x2bc;" horiz-adv-x="221" 
d="M179 706q7 0 7 -6q0 -2 -9 -22l-58 -107h-2l61 122q-6 0 -6 6q0 7 7 7z" />
    <glyph glyph-name="uni02BF" unicode="&#x2bf;" horiz-adv-x="125" 
d="M151 654v4q-29 0 -43 16t-10 44t23 45t49 17v4q-31 0 -51.5 -18t-24.5 -48q-4 -29 11 -46.5t46 -17.5z" />
    <glyph glyph-name="uni02C0" unicode="&#x2c0;" horiz-adv-x="181" 
d="M132 625l8 61q75 7 75 61q0 48 -50 48q-30 0 -60 -17l-2 3q30 17 62 17q54 0 54 -51q0 -56 -75 -64l-8 -58h-4z" />
    <glyph glyph-name="circumflex" unicode="&#x2c6;" horiz-adv-x="281" 
d="M89 659l-3 3l122 85h3l96 -85l-2 -3l-95 84z" />
    <glyph glyph-name="caron" unicode="&#x2c7;" horiz-adv-x="281" 
d="M316 735l2 -3l-122 -85h-3l-96 85l3 3l95 -83z" />
    <glyph glyph-name="uni02C8" unicode="&#x2c8;" horiz-adv-x="64" 
d="M84 644l27 194h4l-27 -194h-4z" />
    <glyph glyph-name="uni02CA" unicode="&#x2ca;" horiz-adv-x="230" 
d="M266 748l2 -5l-180 -82l-1 4z" />
    <glyph glyph-name="uni02CB" unicode="&#x2cb;" horiz-adv-x="230" 
d="M100 748l156 -84l-2 -3l-156 82z" />
    <glyph glyph-name="uni02CC" unicode="&#x2cc;" horiz-adv-x="64" 
d="M-45 -275l27 195h4l-27 -195h-4z" />
    <glyph glyph-name="uni02CE" unicode="&#x2ce;" horiz-adv-x="229" 
d="M-14 -68l158 -70l-2 -3l-158 69z" />
    <glyph glyph-name="uni02CF" unicode="&#x2cf;" horiz-adv-x="229" 
d="M150 -68l2 -4l-177 -69l-1 3z" />
    <glyph glyph-name="uni02D0" unicode="&#x2d0;" horiz-adv-x="125" 
d="M82 419l-3 19h16l-8 -19h-5zM25 19h5l3 -19h-17z" />
    <glyph glyph-name="uni02D1" unicode="&#x2d1;" horiz-adv-x="124" 
d="M81 419l-3 19h16l-8 -19h-5z" />
    <glyph glyph-name="uni02D4" unicode="&#x2d4;" horiz-adv-x="409" 
d="M319 219v-4h-241v4h118l19 140h4l-19 -140h119z" />
    <glyph glyph-name="uni02D6" unicode="&#x2d6;" horiz-adv-x="448" 
d="M251 440l-19 -140h138l-1 -4h-138l-20 -140h-3l19 140h-137l1 4h138l18 140h4z" />
    <glyph glyph-name="uni02D7" unicode="&#x2d7;" horiz-adv-x="448" 
d="M90 296l1 4h279l-1 -4h-279z" />
    <glyph glyph-name="breve" unicode="&#x2d8;" horiz-adv-x="254" 
d="M99 738q5 -31 22 -48q-19 19 -22 48zM290 738q-6 -15 -17 -29q9 12 17 29zM184 668q57 0 89 41q-32 -41 -89 -41q-39 0 -63 22q22 -22 63 -22z" />
    <glyph glyph-name="dotaccent" unicode="&#x2d9;" horiz-adv-x="75" 
d="M99 708q7 0 7 -8q0 -7 -8 -7q-7 0 -7 8q0 7 8 7z" />
    <glyph glyph-name="ring" unicode="&#x2da;" horiz-adv-x="189" 
d="M168 784q30 0 44.5 -17.5t10.5 -46.5q-3 -30 -22.5 -48t-49.5 -18q-31 0 -46 17.5t-11 46.5t24 47.5t50 18.5zM168 780q-29 0 -47.5 -17t-22.5 -45t10 -44t43 -16q28 0 47 17.5t22 44.5q6 60 -52 60z" />
    <glyph glyph-name="ogonek" unicode="&#x2db;" horiz-adv-x="198" 
d="M131 2l1 -2q-152 -54 -152 -131q0 -60 66 -60q23 0 54 8l-1 -4q-29 -8 -54 -8q-32 0 -50.5 16t-18.5 47q0 80 155 134z" />
    <glyph glyph-name="tilde" unicode="&#x2dc;" horiz-adv-x="305" 
d="M146 729q4 2 15 2q5 0 13 -2q-8 2 -13 2q-7 0 -15 -2zM93 695h-1q32 30 54 34q-24 -5 -53 -34zM250 690q-14 4 -38.5 20t-37.5 19q14 -3 38.5 -19t37.5 -20zM339 726q-28 -31 -49 -36q22 5 48 36h1zM250 690q11 -3 20 -3q11 0 20 3q-9 -3 -19 -3q-11 0 -21 3z" />
    <glyph glyph-name="hungarumlaut" unicode="&#x2dd;" horiz-adv-x="232" 
d="M271 786l4 -2l-84 -124l-4 2zM165 783l3 -2l-78 -119l-3 2z" />
    <glyph glyph-name="uni02DE" unicode="&#x2de;" horiz-adv-x="327" 
d="M229 239q-39 0 -59 25.5t-13 71.5l11 77l-107 -42v4l107 42h4l-11 -81q-7 -45 12 -69t56 -24q43 0 82 28l2 -3q-41 -29 -84 -29z" />
    <glyph glyph-name="uni02E0" unicode="&#x2e0;" horiz-adv-x="331" 
d="M191 421h-1q25 -59 21 -84q-6 -34 -39 -34q-17 0 -24.5 10t-5.5 24q6 32 44 84v1l-71 237h4l70 -234l134 234h4zM208 338q4 20 -20 80q-37 -51 -42 -81q-2 -13 4.5 -22t21.5 -9q30 0 36 32z" />
    <glyph glyph-name="uni02E1" unicode="&#x2e1;" horiz-adv-x="177" 
d="M114 395q-36 0 -31 38l47 332h4l-47 -332q-5 -34 28 -34q9 0 23 4v-3q-12 -5 -24 -5z" />
    <glyph glyph-name="uni02E2" unicode="&#x2e2;" horiz-adv-x="304" 
d="M209 664q49 0 80 -26l-3 -2q-31 25 -78 25q-33 0 -58 -16.5t-29 -42.5q-3 -24 13.5 -38t62.5 -25q48 -12 64.5 -27.5t12.5 -46.5q-4 -32 -32.5 -51t-68.5 -19q-54 0 -90 34l2 2q35 -32 89 -32q38 0 65 18t31 48t-11.5 44t-62.5 26q-46 11 -64 26.5t-15 40.5
q4 27 30.5 44.5t61.5 17.5z" />
    <glyph glyph-name="uni02E3" unicode="&#x2e3;" horiz-adv-x="331" 
d="M206 539h-1l86 -139h-4l-84 137l-119 -137h-5l122 139l-71 120h4l70 -118l104 118h5z" />
    <glyph glyph-name="uni02E4" unicode="&#x2e4;" horiz-adv-x="319" 
d="M211 400h-4l23 160l-34 5q-91 19 -80 100q6 45 39 73.5t82 28.5q55 0 88 -40l-3 -2q-37 39 -85 39q-47 0 -79 -27.5t-38 -71.5q-11 -81 79 -96l35 -6z" />
    <glyph glyph-name="uni02E5" unicode="&#x2e5;" horiz-adv-x="293" 
d="M223 0l95 676h-229v4h233l-95 -680h-4z" />
    <glyph glyph-name="uni02E6" unicode="&#x2e6;" horiz-adv-x="293" 
d="M318 680h4l-95 -680h-4l68 488h-229v4h230z" />
    <glyph glyph-name="uni02E7" unicode="&#x2e7;" horiz-adv-x="293" 
d="M318 680h4l-95 -680h-4l47 338h-229l1 4h229z" />
    <glyph glyph-name="uni02E8" unicode="&#x2e8;" horiz-adv-x="293" 
d="M318 680h4l-95 -680h-4l27 188h-229v4h229z" />
    <glyph glyph-name="uni02E9" unicode="&#x2e9;" horiz-adv-x="293" 
d="M318 680h4l-95 -680h-233v4h230z" />
    <glyph glyph-name="uni02EE" unicode="&#x2ee;" horiz-adv-x="278" 
d="M175 705q6 0 6 -5q0 -4 -8 -20l-52 -96h-2l55 110q-5 0 -5 5q0 6 6 6zM237 705q6 0 6 -6q0 -4 -9 -19l-51 -96h-3l56 110q-5 0 -5 5q0 6 6 6z" />
    <glyph glyph-name="gravecomb" unicode="&#x300;" horiz-adv-x="0" 
d="M-130 748l156 -84l-2 -3l-156 82z" />
    <glyph glyph-name="acutecomb" unicode="&#x301;" horiz-adv-x="0" 
d="M36 748l2 -5l-180 -82l-1 4z" />
    <glyph glyph-name="uni0302" unicode="&#x302;" horiz-adv-x="0" 
d="M-192 659l-3 3l122 85h3l96 -85l-2 -3l-95 84z" />
    <glyph glyph-name="tildecomb" unicode="&#x303;" horiz-adv-x="0" 
d="M-156 730q4 1 12 1t16 -3q-8 3 -16 3t-12 -1zM-212 695h-1q34 31 57 35q-23 -4 -56 -35zM-61 692q-11 4 -33 18t-34 18q12 -4 34 -18t33 -18zM34 726q-27 -31 -52 -37q24 5 51 37h1zM-61 692q13 -5 26 -5q7 0 17 2q-10 -2 -17 -2q-13 0 -26 5z" />
    <glyph glyph-name="uni0304" unicode="&#x304;" horiz-adv-x="0" 
d="M30 689h-192v4h192v-4z" />
    </font>
</defs>
</svg>
