<?xml version="1.0" standalone="no"?>
<!DOCTYPE svg PUBLIC "-//W3C//DTD SVG 1.1//EN" "http://www.w3.org/Graphics/SVG/1.1/DTD/svg11.dtd" >
<svg>
<metadata>
Created by FontForge 20120731 at Wed Dec 30 01:00:06 2015
 By ,,,
Digitized data copyright (c) 2012-2015, The Mozilla Foundation and Telefonica S.A.
</metadata>
<defs>
<font id="FiraSans-LightItalic" horiz-adv-x="560" >
  <font-face 
    font-family="Fira Sans Light"
    font-weight="300"
    font-style="italic"
    font-stretch="normal"
    units-per-em="1000"
    panose-1="2 11 4 3 5 0 0 2 0 4"
    ascent="800"
    descent="-200"
    x-height="523"
    cap-height="685"
    bbox="-735 -350 1360 1051"
    underline-thickness="50"
    underline-position="-50"
    slope="-8"
    unicode-range="U+000D-1F310"
  />
<missing-glyph horiz-adv-x="663" 
d="M652 1050l-198 -1400h-418l198 1400h418zM590 998h-309l-183 -1296h309zM346 451q61 0 83 -33t14 -85q-7 -52 -32.5 -80t-76.5 -35l-8 -47q-3 -22 -25 -22q-11 0 -18 7.5t-6 18.5l10 82q53 3 75.5 21t28.5 59q4 32 -6 49t-43 17q-31 0 -54 -12q-12 -2 -13 -2
q-12 0 -18.5 7.5t-4.5 18.5q2 18 31.5 27t62.5 9zM291 120q16 0 25 -11t7 -27q-1 -15 -11.5 -24.5t-24.5 -9.5q-16 0 -25 11.5t-7 28.5q1 14 11.5 23t24.5 9z" />
    <glyph glyph-name="fi" unicode="fi" horiz-adv-x="565" 
d="M497 523l-74 -523h-58l67 476h-234l-64 -459q-13 -98 -49 -141t-119 -80l-17 45q41 19 63 36t39.5 51.5t25.5 90.5l64 457h-91l7 47h91l12 87q8 63 53 98t120 35t137 -42l-24 -39q-53 34 -113 34q-104 0 -117 -90l-11 -83h292z" />
    <glyph glyph-name="fl" unicode="fl" horiz-adv-x="583" 
d="M468 38q19 0 38 8l13 -43q-31 -14 -63 -14q-44 0 -64 26t-13 77l81 580q-64 23 -130 23q-101 0 -114 -89l-11 -83h137l-13 -47h-131l-64 -459q-13 -98 -49 -141t-119 -80l-17 45q41 19 63 36t39.5 51.5t25.5 90.5l64 457h-91l7 47h91l12 87q8 63 53 98t118 35t139 -25
l54 6l-89 -636q-7 -50 33 -50z" />
    <glyph glyph-name=".notdef" horiz-adv-x="663" 
d="M652 1050l-198 -1400h-418l198 1400h418zM590 998h-309l-183 -1296h309zM346 451q61 0 83 -33t14 -85q-7 -52 -32.5 -80t-76.5 -35l-8 -47q-3 -22 -25 -22q-11 0 -18 7.5t-6 18.5l10 82q53 3 75.5 21t28.5 59q4 32 -6 49t-43 17q-31 0 -54 -12q-12 -2 -13 -2
q-12 0 -18.5 7.5t-4.5 18.5q2 18 31.5 27t62.5 9zM291 120q16 0 25 -11t7 -27q-1 -15 -11.5 -24.5t-24.5 -9.5q-16 0 -25 11.5t-7 28.5q1 14 11.5 23t24.5 9z" />
    <glyph glyph-name=".null" horiz-adv-x="0" 
 />
    <glyph glyph-name="nonmarkingreturn" horiz-adv-x="333" 
 />
    <glyph glyph-name="CR" unicode="&#xd;" horiz-adv-x="276" 
 />
    <glyph glyph-name="space" unicode=" " horiz-adv-x="276" 
 />
    <glyph glyph-name="exclam" unicode="!" horiz-adv-x="238" 
d="M86 218l61 467h61l-70 -467h-52zM93 84q20 0 32 -12.5t12 -31.5q0 -21 -14.5 -36t-36.5 -15q-19 0 -31.5 12.5t-12.5 30.5q0 22 15 37t36 15z" />
    <glyph glyph-name="quotedbl" unicode="&#x22;" horiz-adv-x="360" 
d="M103 434l27 251h61l-44 -251h-44zM261 434l27 251h61l-44 -251h-44z" />
    <glyph glyph-name="numbersign" unicode="#" horiz-adv-x="500" 
d="M513 452h-79l-61 -225h71l-6 -47h-78l-49 -180h-54l49 180h-178l-49 -180h-53l49 180h-72l7 47h78l61 225h-70l6 47h77l45 166h53l-45 -166h178l46 166h53l-45 -166h72zM319 227l62 225h-179l-61 -225h178z" />
    <glyph glyph-name="dollar" unicode="$" horiz-adv-x="522" 
d="M291 378q83 -26 126.5 -67.5t43.5 -108.5q0 -78 -52.5 -140.5t-161.5 -71.5l-20 -141h-51l20 141q-112 6 -184 83l38 35q64 -69 164 -69q91 0 139 45.5t48 115.5q0 45 -31 75t-104 55q-87 28 -127.5 68t-40.5 101q0 71 51.5 120.5t142.5 54.5l21 145h50l-20 -145
q82 -8 153 -74l-38 -35q-62 61 -144 61q-70 0 -113.5 -32t-43.5 -93q0 -45 30 -72t104 -51z" />
    <glyph glyph-name="percent" unicode="%" horiz-adv-x="790" 
d="M669 703l40 -27l-559 -700l-40 28zM257 676q60 0 95.5 -36t35.5 -97q0 -44 -15 -85t-55.5 -74t-99.5 -33t-95 37t-36 98q0 70 43 130t127 60zM258 634q-34 0 -58.5 -16t-36.5 -40.5t-17.5 -48t-5.5 -45.5q0 -91 78 -91q44 0 72.5 29t37 60.5t8.5 61.5q0 90 -78 90z
M592 314q60 0 95.5 -36t35.5 -97q0 -44 -15 -85t-55.5 -74t-99.5 -33t-95 37t-36 98q0 70 43 130t127 60zM593 272q-34 0 -58.5 -16t-36.5 -40.5t-17.5 -48t-5.5 -45.5q0 -91 78 -91q44 0 72.5 29t37 60.5t8.5 61.5q0 90 -78 90z" />
    <glyph glyph-name="ampersand" unicode="&#x26;" horiz-adv-x="741" 
d="M349 696q70 0 115 -38t45 -95q0 -62 -42 -105t-141 -94l178 -192q49 79 88 173l52 -19q-50 -109 -107 -190l104 -114l-46 -32l-95 105q-101 -106 -236 -106q-81 0 -131.5 48t-50.5 120q0 66 36 116.5t129 99.5q-77 88 -77 158q0 75 49 120t130 45zM349 651
q-61 0 -91.5 -35.5t-30.5 -84.5q0 -62 67 -134q88 45 123 81t35 85q0 40 -29.5 64t-73.5 24zM278 339q-78 -42 -107.5 -85.5t-29.5 -94.5q0 -52 35 -87t93 -35q109 0 198 94z" />
    <glyph glyph-name="quotesingle" unicode="'" horiz-adv-x="201" 
d="M103 434l27 251h61l-44 -251h-44z" />
    <glyph glyph-name="parenleft" unicode="(" horiz-adv-x="321" 
d="M311 839l35 -28q-98 -120 -149.5 -217.5t-72.5 -246.5q-9 -63 -8.5 -119t7 -98t22 -88t30.5 -78t40 -79l-39 -21q-25 45 -37.5 69t-32 65.5t-27.5 74.5t-15.5 78t-6.5 95t9 107q9 67 28 127.5t38 103t54 93.5t57.5 79.5t67.5 82.5z" />
    <glyph glyph-name="parenright" unicode=")" horiz-adv-x="321" 
d="M170 836q25 -45 37.5 -69t32 -65.5t27.5 -74.5t15.5 -78t6.5 -95t-9 -107q-9 -67 -28 -127.5t-38 -103t-54 -93.5t-57.5 -79.5t-67.5 -82.5l-35 28q65 80 101 133t71.5 140.5t49.5 190.5q21 147 -3 244.5t-88 217.5z" />
    <glyph glyph-name="asterisk" unicode="*" horiz-adv-x="433" 
d="M445 582l-158 -40l82 -122l-49 -34l-67 132l-103 -132l-42 33l116 122l-146 41l22 50l141 -56l14 160h58l-31 -158l152 57z" />
    <glyph glyph-name="plus" unicode="+" horiz-adv-x="490" 
d="M308 508l-22 -152h149l-7 -50h-149l-22 -152h-55l22 152h-149l7 50h149l22 152h55z" />
    <glyph glyph-name="comma" unicode="," horiz-adv-x="208" 
d="M75 84q20 0 32 -12.5t12 -31.5q0 -20 -21 -59l-75 -132h-43l62 148q-18 11 -18 36q0 21 15 36t36 15z" />
    <glyph glyph-name="hyphen" unicode="-" horiz-adv-x="398" 
d="M71 288l7 50h263l-7 -50h-263z" />
    <glyph glyph-name="period" unicode="." horiz-adv-x="207" 
d="M75 84q20 0 31.5 -12.5t11.5 -31.5q0 -21 -14.5 -36t-36.5 -15q-19 0 -31 12.5t-12 30.5q0 22 14.5 37t36.5 15z" />
    <glyph glyph-name="slash" unicode="/" horiz-adv-x="517" 
d="M424 804l49 -13l-356 -891l-49 14z" />
    <glyph glyph-name="zero" unicode="0" horiz-adv-x="547" 
d="M328 676q84 0 128 -59.5t44 -174.5q0 -73 -13 -146.5t-41 -145t-81.5 -116.5t-125.5 -45q-84 0 -128 60t-44 175q0 56 7.5 114t26.5 120t47.5 109.5t75 78t104.5 30.5zM328 628q-151 0 -193 -298q-9 -68 -9 -116q0 -177 114 -177q150 0 192 298q9 67 9 117
q0 176 -113 176z" />
    <glyph glyph-name="one" unicode="1" horiz-adv-x="410" 
d="M346 665l-93 -665h-58l84 597l-177 -103l-21 48l216 123h49z" />
    <glyph glyph-name="two" unicode="2" horiz-adv-x="476" 
d="M276 676q79 0 123.5 -43t44.5 -114q0 -57 -28 -110.5t-104 -135.5t-230 -223l312 1l-16 -51h-373l7 50q166 155 243 238t103 130.5t26 98.5q0 53 -30 81.5t-82 28.5q-84 0 -157 -78l-39 35q89 92 200 92z" />
    <glyph glyph-name="three" unicode="3" horiz-adv-x="484" 
d="M274 676q77 0 121 -41t44 -106q0 -60 -39.5 -111.5t-116.5 -64.5q57 -2 93 -39t36 -103q0 -36 -13.5 -73.5t-40 -71.5t-74.5 -55.5t-110 -21.5q-116 0 -180 88l40 32q51 -71 140 -71t134 54t45 125q0 110 -130 110h-46l14 47h32q74 0 115.5 48.5t41.5 106.5
q0 47 -29 73.5t-80 26.5q-78 0 -157 -66l-30 38q90 75 190 75z" />
    <glyph glyph-name="four" unicode="4" horiz-adv-x="516" 
d="M475 223l-7 -48h-89l-25 -175h-56l24 175h-289l6 43l263 458l49 -20l-248 -433h226l34 195h50l-27 -195h89z" />
    <glyph glyph-name="five" unicode="5" horiz-adv-x="484" 
d="M469 665l-15 -48h-269l-34 -227q55 31 116 31q76 0 119.5 -47.5t43.5 -129.5q0 -41 -13.5 -83.5t-41 -82t-77 -64.5t-112.5 -25q-111 0 -179 82l40 33q53 -66 140 -66q49 0 86.5 21t57.5 53.5t30 66.5t10 66q0 64 -32 96.5t-86 32.5q-55 0 -116 -32h-47l45 323h334z" />
    <glyph glyph-name="six" unicode="6" horiz-adv-x="519" 
d="M313 433q68 0 111 -43.5t43 -124.5q0 -43 -13.5 -89.5t-39.5 -89t-71.5 -70t-103.5 -27.5q-177 0 -177 223q0 34 7 92q25 173 102 272.5t187 99.5q68 0 119 -40l-28 -39q-42 31 -93 31q-82 0 -142 -80.5t-83 -210.5q76 96 182 96zM240 37q45 0 80 24t53 61t27 74t9 70
q0 60 -28.5 90t-76.5 30q-99 0 -181 -114q-4 -52 -4 -71q0 -164 121 -164z" />
    <glyph glyph-name="seven" unicode="7" horiz-adv-x="434" 
d="M456 665l-6 -45l-348 -628l-53 18l338 606h-307l6 49h370z" />
    <glyph glyph-name="eight" unicode="8" horiz-adv-x="535" 
d="M348 351q63 -27 93 -64t30 -90q0 -86 -64 -147t-176 -61q-89 0 -140.5 46t-51.5 120q0 141 170 203q-94 46 -94 138q0 83 62 131.5t145 48.5q70 0 119.5 -38t49.5 -107q0 -62 -33.5 -103.5t-109.5 -76.5zM172 496q0 -42 24.5 -68.5t80.5 -47.5l29 -11q70 35 99 73t29 89
q0 47 -30 73t-81 26q-69 0 -110 -38.5t-41 -95.5zM233 38q79 0 129 43.5t50 118.5q0 44 -29 72t-98 55l-31 12q-156 -59 -156 -185q0 -54 36 -85t99 -31z" />
    <glyph glyph-name="nine" unicode="9" horiz-adv-x="515" 
d="M307 676q86 0 130 -54t44 -149q0 -64 -9 -119t-35.5 -114.5t-69 -106t-115 -87.5t-168.5 -66l-10 46q142 42 225 115t108 197q-72 -90 -172 -90q-70 0 -113.5 49t-43.5 129q0 44 13 86.5t39.5 80t72 60.5t104.5 23zM245 296q92 0 172 103q6 46 6 79q0 150 -115 150
q-48 0 -83.5 -20t-54 -52.5t-27 -65.5t-8.5 -67q0 -60 29.5 -93.5t80.5 -33.5z" />
    <glyph glyph-name="colon" unicode=":" horiz-adv-x="207" 
d="M130 475q20 0 32 -12.5t12 -31.5q0 -22 -15 -36.5t-37 -14.5q-19 0 -31 12.5t-12 30.5q0 22 14.5 37t36.5 15zM75 84q20 0 31.5 -12.5t11.5 -31.5q0 -21 -14.5 -36t-36.5 -15q-19 0 -31 12.5t-12 30.5q0 22 14.5 37t36.5 15z" />
    <glyph glyph-name="semicolon" unicode=";" horiz-adv-x="209" 
d="M132 475q20 0 31.5 -12.5t11.5 -31.5q0 -22 -14.5 -36.5t-36.5 -14.5q-19 0 -31 12.5t-12 30.5q0 22 14.5 37t36.5 15zM75 84q20 0 32 -12.5t12 -31.5q0 -20 -21 -59l-75 -132h-43l62 148q-18 11 -18 36q0 21 15 36t36 15z" />
    <glyph glyph-name="less" unicode="&#x3c;" horiz-adv-x="495" 
d="M445 529l17 -50l-339 -147l295 -149l-27 -48l-323 171l8 54z" />
    <glyph glyph-name="equal" unicode="=" horiz-adv-x="492" 
d="M88 393l7 51h353l-7 -51h-353zM63 218l7 51h353l-7 -51h-353z" />
    <glyph glyph-name="greater" unicode="&#x3e;" horiz-adv-x="494" 
d="M122 529l323 -169l-8 -54l-370 -171l-16 49l339 151l-296 145z" />
    <glyph glyph-name="question" unicode="?" horiz-adv-x="445" 
d="M291 696q74 0 114 -36t40 -92q0 -50 -24 -87t-58.5 -59t-69 -41.5t-58.5 -48t-24 -65.5q0 -19 5 -41l-52 -10q-10 28 -10 55q0 45 24 78.5t57.5 54.5t67.5 41t58 50.5t24 70.5q0 38 -26 59.5t-72 21.5q-85 0 -162 -76l-36 34q90 91 202 91zM186 84q20 0 32 -12.5
t12 -31.5q0 -22 -15 -36.5t-37 -14.5q-19 0 -31 12.5t-12 30.5q0 22 15 37t36 15z" />
    <glyph glyph-name="at" unicode="@" horiz-adv-x="1017" 
d="M573 696q176 0 272.5 -95.5t96.5 -245.5q0 -58 -12.5 -115.5t-37 -110t-69.5 -85t-103 -32.5q-51 0 -78.5 30.5t-30.5 77.5q-62 -106 -160 -106q-65 0 -104 45.5t-39 125.5q0 51 13.5 101t41 95.5t77 74t112.5 28.5q76 0 141 -37l-36 -269q-15 -119 62 -119
q43 0 76.5 28.5t52 74.5t27.5 96t9 99q0 133 -81.5 211t-230.5 78q-93 0 -169 -30t-124.5 -78.5t-82 -111t-47.5 -124.5t-14 -123q0 -150 92 -242.5t245 -92.5q99 0 194 34l12 -48q-109 -35 -208 -35q-174 0 -283.5 106t-109.5 278q0 67 16 136t54.5 138.5t93.5 122.5
t141.5 86.5t190.5 33.5zM458 60q49 0 87 34t57 77l36 248q-40 20 -84 20q-52 0 -91 -25t-59 -66t-29.5 -83.5t-9.5 -86.5q0 -58 24.5 -88t68.5 -30z" />
    <glyph glyph-name="A" unicode="A" horiz-adv-x="562" 
d="M447 0l-33 187h-287l-87 -187h-61l324 685h75l131 -685h-62zM150 238h255l-71 398z" />
    <glyph glyph-name="B" unicode="B" horiz-adv-x="595" 
d="M393 362q141 -18 141 -144q0 -43 -13.5 -79.5t-43.5 -69t-85.5 -51t-130.5 -18.5h-187l96 685h170q96 0 151.5 -38t55.5 -113q0 -70 -42.5 -115t-111.5 -57zM342 635h-120l-35 -251h132q78 0 123 41t45 108q0 102 -145 102zM265 50q113 0 160 48t47 121q0 117 -148 117
h-143l-40 -286h124z" />
    <glyph glyph-name="C" unicode="C" horiz-adv-x="547" 
d="M399 696q100 0 170 -64l-36 -37q-59 50 -132 50q-71 0 -125.5 -37t-84 -96.5t-44 -123t-14.5 -128.5q0 -109 47.5 -163.5t128.5 -54.5q49 0 84.5 15t75.5 44l28 -43q-85 -69 -192 -69q-106 0 -170 71.5t-64 202.5q0 73 18.5 145.5t55.5 138.5t103 107.5t151 41.5z" />
    <glyph glyph-name="D" unicode="D" horiz-adv-x="630" 
d="M304 685q58 0 104 -11t87 -37.5t63.5 -79t22.5 -128.5q0 -84 -19.5 -158t-60 -136t-112.5 -98.5t-168 -36.5h-147l96 685h134zM307 635h-85l-81 -585h89q79 0 137.5 33.5t91 90t47.5 120.5t15 136q0 64 -17.5 107t-50.5 63t-67 27.5t-79 7.5z" />
    <glyph glyph-name="E" unicode="E" horiz-adv-x="509" 
d="M516 685l-14 -50h-280l-36 -255h242l-6 -50h-242l-39 -280h293l-8 -50h-352l96 685h346z" />
    <glyph glyph-name="F" unicode="F" horiz-adv-x="478" 
d="M510 685l-14 -50h-274l-37 -267h237l-7 -50h-237l-45 -318h-59l96 685h340z" />
    <glyph glyph-name="G" unicode="G" horiz-adv-x="615" 
d="M406 696q106 0 183 -69l-40 -36q-60 54 -143 54q-69 0 -123 -35.5t-85.5 -93.5t-48 -125t-16.5 -138q0 -107 47.5 -160t135.5 -53q79 0 147 37l35 242h-132l-1 50h199l-44 -322q-98 -58 -210 -58t-175.5 69.5t-63.5 201.5q0 78 20.5 153.5t60.5 139.5t106 103.5t148 39.5
z" />
    <glyph glyph-name="H" unicode="H" horiz-adv-x="667" 
d="M460 0l48 335h-328l-47 -335h-59l96 685h59l-42 -299h328l42 299h59l-96 -685h-60z" />
    <glyph glyph-name="I" unicode="I" horiz-adv-x="280" 
d="M229 685l-96 -685h-59l96 685h59z" />
    <glyph glyph-name="J" unicode="J" horiz-adv-x="289" 
d="M243 685l-83 -595q-13 -89 -53 -132.5t-130 -76.5l-13 45q71 30 99 65t38 106l83 588h59z" />
    <glyph glyph-name="K" unicode="K" horiz-adv-x="545" 
d="M230 685l-97 -685h-59l96 685h60zM588 685l-330 -320l250 -365h-71l-248 367l327 318h72z" />
    <glyph glyph-name="L" unicode="L" horiz-adv-x="472" 
d="M229 685l-88 -631h285l-16 -54h-336l96 685h59z" />
    <glyph glyph-name="M" unicode="M" horiz-adv-x="776" 
d="M692 685l-31 -685h-57l15 330q7 182 17 298l-249 -547h-57l-101 545q-10 -64 -64 -298l-76 -328h-57l161 685h79l96 -534l238 534h86z" />
    <glyph glyph-name="N" unicode="N" horiz-adv-x="670" 
d="M619 685l-97 -685h-76l-237 631q-1 -78 -25 -250l-54 -381h-56l96 685h77l237 -630q3 89 20 215l58 415h57z" />
    <glyph glyph-name="O" unicode="O" horiz-adv-x="688" 
d="M404 696q110 0 173 -70.5t63 -201.5q0 -73 -17.5 -144.5t-54 -139t-103.5 -109.5t-156 -42q-110 0 -174 71t-64 202q0 55 10.5 112t35.5 115.5t62 104t95.5 74t129.5 28.5zM401 645q-59 0 -106.5 -26t-77 -66t-49 -92.5t-27.5 -102.5t-8 -98q0 -110 47 -165t130 -55
q60 0 108.5 26.5t77.5 66.5t48 93.5t26.5 102.5t7.5 98q0 110 -46 164t-131 54z" />
    <glyph glyph-name="P" unicode="P" horiz-adv-x="567" 
d="M328 685q228 0 228 -173q0 -105 -67.5 -175t-217.5 -70h-101l-37 -267h-59l96 685h158zM274 316q120 0 170 55t50 141q0 66 -43 95t-127 29h-102l-45 -320h97z" />
    <glyph glyph-name="Q" unicode="Q" horiz-adv-x="678" 
d="M640 424q0 -59 -11.5 -118t-35.5 -116.5t-67.5 -103t-100.5 -65.5q109 -3 180 -66l-44 -48q-47 47 -102.5 64.5t-149.5 17.5q-110 0 -174 71t-64 202q0 55 10.5 112t35.5 115.5t62 104t95.5 74t129.5 28.5q110 0 173 -70.5t63 -201.5zM133 256q0 -107 47 -161.5
t130 -54.5q61 0 109 26.5t77 67t48 94.5t26.5 104t7.5 100q0 106 -46 159.5t-131 53.5q-59 0 -106.5 -26t-77 -66.5t-49 -93.5t-27.5 -103.5t-8 -99.5z" />
    <glyph glyph-name="R" unicode="R" horiz-adv-x="587" 
d="M553 525q0 -72 -42.5 -129.5t-137.5 -79.5l144 -316h-66l-136 307h-139l-43 -307h-59l96 685h164q219 0 219 -160zM183 356h118q53 0 92 15.5t59 41.5t29.5 54t9.5 59q0 57 -37.5 83.5t-119.5 26.5h-112z" />
    <glyph glyph-name="S" unicode="S" horiz-adv-x="536" 
d="M324 696q112 0 187 -77l-38 -36q-61 62 -149 62q-70 0 -116 -35.5t-46 -92.5q0 -46 30.5 -74t107.5 -54q87 -27 131 -69t44 -116q0 -36 -14 -72t-42 -69t-79.5 -53.5t-118.5 -20.5q-127 0 -208 88l39 36q67 -73 170 -73q90 0 141 47.5t51 114.5q0 51 -32 82.5t-108 57.5
q-91 28 -131.5 68t-40.5 105q0 68 57.5 124.5t164.5 56.5z" />
    <glyph glyph-name="T" unicode="T" horiz-adv-x="492" 
d="M542 685l-15 -53h-199l-89 -632h-60l89 632h-202l8 53h468z" />
    <glyph glyph-name="U" unicode="U" horiz-adv-x="649" 
d="M608 685l-66 -473q-15 -102 -80 -162.5t-173 -60.5q-111 0 -160 62t-35 165l66 469h59l-65 -468q-25 -176 137 -176q166 0 191 180l66 464h60z" />
    <glyph glyph-name="V" unicode="V" horiz-adv-x="544" 
d="M586 685l-318 -685h-67l-126 685h62l105 -623l282 623h62z" />
    <glyph glyph-name="W" unicode="W" horiz-adv-x="807" 
d="M836 685l-247 -685h-74l-62 618l-236 -618h-73l-54 685h59l41 -628l238 628h67l64 -629l220 629h57z" />
    <glyph glyph-name="X" unicode="X" horiz-adv-x="509" 
d="M305 371l-2 -2l161 -369h-65l-135 327l-225 -327h-66l259 369l1 1l-143 315h65l116 -275l196 275h66z" />
    <glyph glyph-name="Y" unicode="Y" horiz-adv-x="520" 
d="M567 685l-275 -417l-38 -268h-60l38 267l-159 418h63l131 -363l233 363h67z" />
    <glyph glyph-name="Z" unicode="Z" horiz-adv-x="513" 
d="M-2 0l7 50l445 583h-326l8 52h393l-6 -49l-444 -583h355l-15 -53h-417z" />
    <glyph glyph-name="bracketleft" unicode="[" horiz-adv-x="314" 
d="M326 807l-7 -48h-112l-116 -824h112l-7 -47h-165l129 919h166z" />
    <glyph glyph-name="backslash" unicode="\" horiz-adv-x="517" 
d="M243 802l106 -890l-51 -12l-105 891z" />
    <glyph glyph-name="bracketright" unicode="]" horiz-adv-x="314" 
d="M308 807l-129 -919h-166l6 47h112l117 824h-112l6 48h166z" />
    <glyph glyph-name="asciicircum" unicode="^" horiz-adv-x="528" 
d="M368 832l141 -305h-64l-108 248l-178 -248h-66l227 305h48z" />
    <glyph glyph-name="underscore" unicode="_" horiz-adv-x="517" 
d="M-26 -122l8 51h461l-7 -51h-462z" />
    <glyph glyph-name="grave" unicode="`" horiz-adv-x="272" 
d="M128 782l172 -104l-22 -33l-183 85z" />
    <glyph glyph-name="a" unicode="a" horiz-adv-x="559" 
d="M327 534q86 0 169 -43l-56 -377q-3 -18 -3 -31q0 -39 33 -53l-16 -41q-36 7 -53.5 28.5t-16.5 66.5q-67 -95 -162 -95q-78 0 -121 54t-43 149q0 57 15 114t45 109.5t84.5 85.5t124.5 33zM328 487q-54 0 -96.5 -28.5t-66 -74t-35 -94.5t-11.5 -98q0 -76 29.5 -115.5
t84.5 -39.5q85 0 155 111l47 315q-48 24 -107 24z" />
    <glyph glyph-name="b" unicode="b" horiz-adv-x="572" 
d="M231 743l-40 -286q75 77 165 77q76 0 117 -51t41 -147q0 -58 -14.5 -115.5t-44 -111t-84.5 -87t-127 -33.5q-76 0 -172 34l101 713zM343 486q-79 0 -160 -88l-47 -340q53 -21 110 -21q56 0 99 30t65.5 77.5t33 97t10.5 98.5q0 146 -111 146z" />
    <glyph glyph-name="c" unicode="c" horiz-adv-x="466" 
d="M319 534q87 0 141 -54l-32 -36q-46 41 -109 41q-54 0 -94.5 -28t-62.5 -73t-32.5 -92.5t-10.5 -94.5q0 -79 34.5 -118t97.5 -39t128 44l26 -41q-73 -54 -158 -54q-87 0 -137.5 55.5t-50.5 155.5q0 55 14.5 110.5t43.5 107t81.5 84t120.5 32.5z" />
    <glyph glyph-name="d" unicode="d" horiz-adv-x="582" 
d="M487 743l57 -7l-104 -736h-50l7 106q-68 -117 -173 -117q-76 0 -118.5 55t-42.5 151q0 55 13.5 111t40.5 109t76.5 86t114.5 33q90 0 139 -72zM316 486q-51 0 -90.5 -29t-60.5 -75t-31 -94t-10 -96q0 -76 28.5 -115.5t80.5 -39.5q54 0 93.5 36t81.5 108l32 228
q-44 77 -124 77z" />
    <glyph glyph-name="e" unicode="e" horiz-adv-x="519" 
d="M481 408q0 -95 -94.5 -142t-267.5 -60v-6q0 -82 35.5 -121.5t98.5 -39.5q73 0 147 53l27 -41q-87 -62 -178 -62t-140.5 55t-49.5 155q0 58 15 114.5t45 107t82.5 82t119.5 31.5q74 0 117 -35.5t43 -90.5zM321 486q-37 0 -68.5 -14t-53 -36.5t-38 -54t-26 -63.5t-13.5 -67
q150 12 224 49t74 106q0 34 -25 57t-74 23z" />
    <glyph glyph-name="f" unicode="f" horiz-adv-x="319" 
d="M322 695q-93 0 -106 -89l-11 -83h137l-13 -47h-131l-64 -459q-13 -98 -49 -141t-119 -80l-17 45q41 19 63 36t39.5 51.5t25.5 90.5l64 457h-91l7 47h91l12 87q8 62 51 97.5t110 35.5q60 0 118 -35l-23 -40q-46 27 -94 27z" />
    <glyph glyph-name="g" unicode="g" horiz-adv-x="567" 
d="M329 534q86 0 169 -43l-71 -487q-31 -211 -219 -211q-90 0 -173 49l23 44q80 -43 149 -43q141 0 163 160l13 87q-66 -90 -158 -90q-78 0 -122 54t-44 146q0 56 15 112.5t45.5 107.5t85 82.5t124.5 31.5zM330 487q-55 0 -97 -27t-66 -71t-35.5 -92.5t-11.5 -96.5
q0 -73 30 -112.5t84 -39.5q87 0 158 110l45 305q-50 24 -107 24z" />
    <glyph glyph-name="h" unicode="h" horiz-adv-x="582" 
d="M375 534q69 0 100.5 -43t20.5 -120l-52 -371h-58l52 367q17 118 -73 118q-104 0 -195 -172l-44 -313h-57l104 736l58 7l-50 -348q79 139 194 139z" />
    <glyph glyph-name="i" unicode="i" horiz-adv-x="269" 
d="M201 753q21 0 31.5 -13t7.5 -32q-2 -17 -14.5 -28t-30.5 -11q-20 0 -31 13t-8 32q2 17 14.5 28t30.5 11zM200 523l-74 -523h-57l74 523h57z" />
    <glyph glyph-name="j" unicode="j" horiz-adv-x="267" 
d="M199 753q21 0 31.5 -13t7.5 -32q-2 -17 -14.5 -28t-30.5 -11q-20 0 -31 13t-8 32q2 17 14.5 28t30.5 11zM199 523l-72 -506q-13 -98 -49 -141t-119 -80l-17 44q61 28 89 63t39 116l71 504h58z" />
    <glyph glyph-name="k" unicode="k" horiz-adv-x="523" 
d="M231 743l-49 -348q79 139 195 139q54 0 87 -30.5t33 -81.5q0 -131 -173 -186l119 -236h-64l-125 254q182 51 182 163q0 70 -72 70q-54 0 -104.5 -47.5t-90.5 -134.5l-43 -305h-57l104 736z" />
    <glyph glyph-name="l" unicode="l" horiz-adv-x="282" 
d="M226 743l-92 -655q-6 -49 33 -49q19 0 38 8l13 -44q-31 -14 -61 -14q-45 0 -66 27t-13 81l90 639z" />
    <glyph glyph-name="m" unicode="m" horiz-adv-x="849" 
d="M656 534q60 0 89 -43.5t18 -118.5l-52 -372h-58l52 367q18 118 -65 118q-85 0 -177 -170l-45 -315h-57l52 367q16 118 -66 118q-86 0 -177 -172l-44 -313h-57l74 523h48l-13 -129q82 140 185 140q51 0 81 -34t29 -95q83 129 183 129z" />
    <glyph glyph-name="n" unicode="n" horiz-adv-x="581" 
d="M376 534q67 0 99 -43.5t21 -121.5l-52 -369h-58l52 367q17 118 -74 118q-103 0 -194 -172l-44 -313h-57l74 523h48l-13 -130q84 141 198 141z" />
    <glyph glyph-name="o" unicode="o" horiz-adv-x="569" 
d="M321 534q90 0 139.5 -55t49.5 -155q0 -53 -13.5 -107.5t-42 -107.5t-82 -86.5t-123.5 -33.5q-91 0 -140.5 56t-49.5 156q0 54 14 108.5t42.5 106.5t82 85t123.5 33zM319 486q-55 0 -96 -29t-62.5 -75.5t-31.5 -93.5t-10 -92q0 -78 33.5 -118t97.5 -40q54 0 95 29t62.5 75
t31.5 93t10 93q0 158 -130 158z" />
    <glyph glyph-name="p" unicode="p" horiz-adv-x="576" 
d="M355 534q76 0 117 -51t41 -147q0 -58 -14 -115.5t-43.5 -111t-84.5 -87t-127 -33.5q-58 0 -116 21l-30 -209l-58 -8l103 730h49l-5 -72q76 83 168 83zM342 486q-80 0 -159 -88l-48 -340q53 -21 111 -21q56 0 98.5 30t65 77.5t33.5 96.5t11 98q0 147 -112 147z" />
    <glyph glyph-name="q" unicode="q" horiz-adv-x="566" 
d="M327 534q86 0 169 -43l-96 -691l-59 -7l40 285q-28 -40 -69.5 -64.5t-89.5 -24.5q-78 0 -121 54t-43 149q0 57 15 114t45 109.5t84.5 85.5t124.5 33zM328 487q-54 0 -96.5 -28.5t-66 -74t-35 -94.5t-11.5 -98q0 -76 29.5 -115.5t84.5 -39.5q86 0 158 111l44 315
q-48 24 -107 24z" />
    <glyph glyph-name="r" unicode="r" horiz-adv-x="371" 
d="M345 534q29 0 50 -7l-16 -54q-20 5 -42 5q-55 0 -94.5 -45t-73.5 -135l-43 -298h-57l74 523h49l-14 -127q63 138 167 138z" />
    <glyph glyph-name="s" unicode="s" horiz-adv-x="461" 
d="M260 534q93 0 161 -59l-31 -35q-60 46 -130 46q-57 0 -90.5 -24t-33.5 -65q0 -34 25 -55.5t89 -40.5q78 -24 112.5 -60t34.5 -93q0 -71 -55 -115t-148 -44q-110 0 -185 71l34 34q68 -56 151 -56q68 0 105.5 29t37.5 77q0 42 -25.5 65.5t-94.5 45.5q-77 24 -108.5 56.5
t-31.5 82.5q0 58 50 99t133 41z" />
    <glyph glyph-name="t" unicode="t" horiz-adv-x="339" 
d="M193 476l-49 -347q-7 -46 7.5 -68t53.5 -22q37 0 84 25l20 -43q-56 -32 -113 -32q-60 0 -90 36.5t-20 102.5l49 348h-88l7 47h89l29 127l46 5l-19 -132h134l-13 -47h-127z" />
    <glyph glyph-name="u" unicode="u" horiz-adv-x="577" 
d="M508 523l-74 -523h-48l14 133q-77 -144 -193 -144q-68 0 -100 42.5t-22 119.5l53 372h57l-52 -370q-17 -116 75 -116q102 0 188 166l44 320h58z" />
    <glyph glyph-name="v" unicode="v" horiz-adv-x="467" 
d="M489 523l-254 -523h-71l-112 523h63l91 -471l219 471h64z" />
    <glyph glyph-name="w" unicode="w" horiz-adv-x="696" 
d="M707 523l-200 -523h-78l-49 469l-183 -469h-77l-57 523h57l45 -478l188 478h68l51 -479l178 479h57z" />
    <glyph glyph-name="x" unicode="x" horiz-adv-x="456" 
d="M461 523l-196 -247l144 -276h-65l-119 242l-185 -242h-67l223 281l-125 242h64l100 -208l159 208h67z" />
    <glyph glyph-name="y" unicode="y" horiz-adv-x="465" 
d="M487 523l-249 -527q-43 -90 -96 -136t-147 -64l-3 46q77 18 114 51t76 108l-23 -1l-107 523h61l90 -479l223 479h61z" />
    <glyph glyph-name="z" unicode="z" horiz-adv-x="419" 
d="M423 523l-6 -45l-347 -428h284l-13 -50h-351l7 45l347 428h-263l7 50h335z" />
    <glyph glyph-name="braceleft" unicode="{" horiz-adv-x="323" 
d="M338 828l-3 -44q-47 0 -70.5 -19.5t-29.5 -61.5l-36 -253q-6 -50 -26 -71t-62 -31q37 -10 52 -31.5t8 -70.5l-36 -254q-6 -42 10.5 -59.5t64.5 -17.5l-4 -44q-141 0 -124 127l36 255q6 39 -10 55t-57 16l6 50q78 0 89 76l36 255q9 66 46 94.5t110 28.5z" />
    <glyph glyph-name="bar" unicode="|" horiz-adv-x="404" 
d="M305 804l-126 -904h-54l126 904h54z" />
    <glyph glyph-name="braceright" unicode="}" horiz-adv-x="323" 
d="M10 -129l3 44q47 0 70.5 19.5t29.5 61.5l35 253q7 50 27 71t62 31q-38 10 -52.5 31.5t-7.5 70.5l36 254q5 42 -11.5 59.5t-63.5 17.5l3 44q142 0 125 -127l-36 -255q-6 -39 10 -55t57 -16l-7 -50q-77 0 -88 -76l-36 -255q-10 -66 -46.5 -94.5t-109.5 -28.5z" />
    <glyph glyph-name="asciitilde" unicode="~" horiz-adv-x="469" 
d="M314 264q-34 0 -78.5 29t-65.5 29q-38 0 -80 -48l-34 22q55 75 118 75q33 0 77 -29t66 -29q40 0 77 46l35 -23q-54 -72 -115 -72z" />
    <glyph glyph-name="uni00A0" unicode="&#xa0;" horiz-adv-x="277" 
 />
    <glyph glyph-name="exclamdown" unicode="&#xa1;" horiz-adv-x="238" 
d="M148 475q20 0 32 -12.5t12 -31.5q0 -22 -14.5 -36.5t-36.5 -14.5q-19 0 -31.5 12.5t-12.5 30.5q0 22 15 37t36 15zM147 249l-58 -446h-62l68 446h52z" />
    <glyph glyph-name="cent" unicode="&#xa2;" horiz-adv-x="466" 
d="M319 485q-54 0 -94.5 -28t-62.5 -73t-32.5 -92.5t-10.5 -94.5q0 -79 34.5 -118t97.5 -39t128 44l26 -41q-66 -50 -146 -54l-20 -139h-51l20 142q-70 12 -109.5 66t-39.5 142q0 70 21 138.5t74.5 126t131.5 67.5l20 148h50l-21 -146q76 -5 125 -54l-32 -36q-46 41 -109 41
z" />
    <glyph glyph-name="sterling" unicode="&#xa3;" horiz-adv-x="511" 
d="M359 676q99 0 153 -77l-40 -28q-41 56 -111 56q-57 0 -93 -35t-44 -94l-18 -124h213l-6 -43h-212l-23 -162q-7 -49 -25 -74t-57 -45l326 1l-15 -51h-393l5 49q52 22 73.5 47t28.5 76l22 159h-65l6 43h65l18 127q11 78 61 126.5t131 48.5z" />
    <glyph glyph-name="currency" unicode="&#xa4;" 
d="M473 341q0 -72 -41 -126l79 -77l-36 -36l-80 78q-46 -34 -115 -34q-66 0 -115 36l-80 -80l-36 36l80 79q-39 53 -39 124t39 122l-80 80l36 36l80 -80q49 36 115 36q67 0 116 -35l79 79l36 -36l-78 -78q40 -51 40 -124zM281 193q66 0 100.5 40t34.5 108t-34.5 108
t-100.5 40q-65 0 -100.5 -40t-35.5 -108t35.5 -108t100.5 -40z" />
    <glyph glyph-name="yen" unicode="&#xa5;" horiz-adv-x="509" 
d="M553 665l-238 -327h115l-6 -43h-134l-15 -103h134l-5 -43h-135l-21 -149h-59l21 149h-135l6 43h135l15 103h-135l6 43h116l-148 327h65l133 -313l222 313h63z" />
    <glyph glyph-name="brokenbar" unicode="&#xa6;" horiz-adv-x="404" 
d="M271 558l-51 -361l-7 -51h-54l50 362h1l7 50h54z" />
    <glyph glyph-name="section" unicode="&#xa7;" horiz-adv-x="530" 
d="M327 628q-63 0 -93 -27t-30 -64q0 -33 24.5 -54.5t88.5 -45.5q134 -46 134 -139q0 -42 -23 -73.5t-76 -61.5q45 -36 45 -92q0 -62 -50.5 -100.5t-138.5 -38.5q-85 0 -159 47l28 41q57 -40 134 -40q68 0 98 26.5t30 64.5q0 34 -23 54.5t-87 44.5q-71 24 -105.5 57
t-34.5 82q0 79 102 138q-44 35 -44 88q0 66 52.5 103t129.5 37q83 0 154 -50l-28 -38q-62 41 -128 41zM395 295q0 30 -22 54t-79 45q-40 14 -68 30q-43 -28 -61 -54t-18 -59q0 -31 23 -53.5t79 -44.5q43 -15 68 -28q78 50 78 110z" />
    <glyph glyph-name="dieresis" unicode="&#xa8;" horiz-adv-x="327" 
d="M134 742q18 0 28 -12.5t8 -30.5q-2 -16 -13.5 -26t-27.5 -10q-19 0 -29 12.5t-8 30.5q2 15 14 25.5t28 10.5zM322 742q18 0 28.5 -12.5t7.5 -30.5q-2 -16 -13.5 -26t-27.5 -10q-19 0 -29 12.5t-8 30.5q2 15 14 25.5t28 10.5z" />
    <glyph glyph-name="copyright" unicode="&#xa9;" horiz-adv-x="810" 
d="M405 736q126 0 211.5 -86t85.5 -215t-85.5 -215t-211.5 -86t-211.5 86t-85.5 215q0 128 85.5 214.5t211.5 86.5zM406 697q-109 0 -181 -74.5t-72 -187.5q0 -114 71.5 -188t181.5 -74q109 0 180 74.5t71 187.5q0 114 -71 188t-180 74zM407 616q56 0 102 -35l-25 -33
q-32 25 -75 25q-41 0 -70 -32.5t-29 -104.5q0 -68 27 -103t72 -35q42 0 84 29l22 -33q-48 -40 -108 -40q-66 0 -107 49t-41 133q0 86 44 133t104 47z" />
    <glyph glyph-name="ordfeminine" unicode="&#xaa;" horiz-adv-x="497" 
d="M300 685q129 0 129 -100q0 -8 -2 -28l-25 -184q-5 -21 -0.5 -36.5t23.5 -23.5l-15 -39q-28 6 -42.5 19.5t-18.5 43.5q-52 -63 -135 -63q-55 0 -86.5 30.5t-31.5 78.5q0 61 49 99.5t144 38.5h77l4 33q2 11 2 25q0 32 -18.5 46t-61.5 14q-47 0 -116 -23l-12 43
q75 26 136 26zM360 481h-66q-75 0 -107 -28t-32 -68q0 -30 18 -48t51 -18q74 0 123 68zM40 0l7 51h353l-7 -51h-353z" />
    <glyph glyph-name="guillemotleft" unicode="&#xab;" horiz-adv-x="553" 
d="M480 520l35 -25l-166 -207l108 -208l-38 -24l-134 212l5 39zM267 520l35 -25l-166 -207l107 -208l-37 -24l-134 212l4 39z" />
    <glyph glyph-name="logicalnot" unicode="&#xac;" horiz-adv-x="497" 
d="M439 346l-24 -178h-55l18 128h-304l6 50h359z" />
    <glyph glyph-name="uni00AD" unicode="&#xad;" horiz-adv-x="398" 
d="M71 288l7 50h263l-7 -50h-263z" />
    <glyph glyph-name="registered" unicode="&#xae;" horiz-adv-x="639" 
d="M319 737q102 0 171.5 -69t69.5 -171q0 -100 -69.5 -170t-171.5 -70q-101 0 -170 68.5t-69 169.5q0 100 69.5 171t169.5 71zM319 293q85 0 143 59t58 145t-57.5 144.5t-143.5 58.5q-84 0 -141.5 -59.5t-57.5 -145.5t57.5 -144t141.5 -58zM419 555q0 -56 -64 -73l74 -118
h-50l-65 111h-36v-111h-42v272h69q114 0 114 -81zM278 601v-91h39q59 0 59 45q0 25 -16 35.5t-49 10.5h-33z" />
    <glyph glyph-name="macron" unicode="&#xaf;" horiz-adv-x="298" 
d="M327 676h-240l7 47h240z" />
    <glyph glyph-name="degree" unicode="&#xb0;" horiz-adv-x="518" 
d="M240 395q-62 0 -101.5 42t-29.5 112q9 67 58.5 107t108.5 40q63 0 102 -42t29 -112q-9 -67 -57 -107t-110 -40zM240 439q45 0 77.5 29.5t39.5 79.5q7 49 -15.5 76.5t-65.5 27.5t-76.5 -29.5t-40.5 -79.5q-7 -47 16.5 -75.5t64.5 -28.5z" />
    <glyph glyph-name="plusminus" unicode="&#xb1;" horiz-adv-x="491" 
d="M309 518l-21 -152h149l-7 -50h-149l-22 -152h-55l22 152h-149l7 50h149l21 152h55zM32 0l7 51h354l-7 -51h-354z" />
    <glyph glyph-name="uni00B2" unicode="&#xb2;" horiz-adv-x="397" 
d="M223 743q59 0 89.5 -34.5t23.5 -84.5q-8 -54 -49.5 -100.5t-172.5 -158.5l196 1l-13 -43h-251l5 42q145 127 185.5 171t46.5 91q4 34 -13 53.5t-50 19.5q-55 0 -100 -47l-33 29q61 61 136 61z" />
    <glyph glyph-name="uni00B3" unicode="&#xb3;" horiz-adv-x="397" 
d="M226 744q58 0 88.5 -30t24.5 -77q-5 -38 -31.5 -62.5t-67.5 -32.5q41 -2 65 -30t18 -76q-8 -54 -50.5 -87.5t-107.5 -33.5q-79 0 -123 58l34 25q34 -41 87 -41q46 0 74.5 24t34.5 63q6 41 -14.5 59t-64.5 18h-32l12 39h19q35 0 63 20.5t33 58.5q4 30 -13.5 47t-51.5 17
q-50 0 -101 -39l-25 33q61 47 129 47z" />
    <glyph glyph-name="acute" unicode="&#xb4;" horiz-adv-x="273" 
d="M289 782l19 -52l-206 -85l-14 34z" />
    <glyph glyph-name="uni00B5" unicode="&#xb5;" horiz-adv-x="582" 
d="M457 175q-14 -97 2 -176l-53 -7q-13 51 -10 108q-79 -111 -174 -111q-73 0 -98 52q1 -45 -10 -123l-16 -115l-58 -6l103 726h57l-53 -375q-16 -108 81 -108q94 0 170 119l51 364h57z" />
    <glyph glyph-name="paragraph" unicode="&#xb6;" horiz-adv-x="706" 
d="M390 684l224 1l-123 -882l-56 -9l118 842h-127l-117 -833l-55 -9l70 500q-112 5 -157.5 59t-33.5 140q13 92 80 141.5t176 49.5v-3z" />
    <glyph glyph-name="periodcentered" unicode="&#xb7;" horiz-adv-x="207" 
d="M114 366q20 0 32 -12.5t12 -31.5q0 -21 -15 -36t-37 -15q-19 0 -31 12.5t-12 30.5q0 22 15 37t36 15z" />
    <glyph glyph-name="cedilla" unicode="&#xb8;" horiz-adv-x="243" 
d="M88 16l-13 -80q83 -7 83 -72q0 -39 -32 -65t-83 -26q-46 0 -79 22l22 35q23 -15 57 -15q28 0 45 12t18 35t-17 32.5t-65 9.5l25 112h39z" />
    <glyph glyph-name="uni00B9" unicode="&#xb9;" horiz-adv-x="397" 
d="M287 737l-59 -414h-50l50 359l-109 -60l-19 36l143 79h44z" />
    <glyph glyph-name="ordmasculine" unicode="&#xba;" horiz-adv-x="497" 
d="M304 685q75 0 116.5 -42.5t41.5 -120.5q0 -42 -11 -83t-34 -79.5t-65.5 -62t-98.5 -23.5q-75 0 -116.5 43t-41.5 121q0 32 6.5 65t22 66t39 58.5t60 41.5t81.5 16zM304 639q-42 0 -72.5 -20t-46.5 -52t-23.5 -65.5t-7.5 -67.5q0 -114 99 -114q42 0 73 20.5t46.5 54
t23 66.5t7.5 66q0 112 -99 112zM37 0l7 51h353l-7 -51h-353z" />
    <glyph glyph-name="guillemotright" unicode="&#xbb;" horiz-adv-x="543" 
d="M343 520l135 -213l-4 -39l-191 -212l-35 24l166 208l-107 207zM140 520l134 -213l-4 -39l-191 -212l-34 24l165 208l-107 207z" />
    <glyph glyph-name="onequarter" unicode="&#xbc;" horiz-adv-x="906" 
d="M703 747l38 -19l-517 -799l-38 20zM221 271h-50l50 359l-109 -60l-19 36l143 79h44zM837 145l-6 -42h-55l-15 -103h-50l15 103h-187l4 37l169 281l41 -17l-155 -259h134l22 115h44l-16 -115h55z" />
    <glyph glyph-name="onehalf" unicode="&#xbd;" horiz-adv-x="906" 
d="M703 747l38 -19l-517 -799l-38 20zM280 685l-59 -414h-50l50 359l-109 -60l-19 36l143 79h44zM723 420q59 0 89.5 -34.5t23.5 -84.5q-8 -54 -49.5 -100.5t-172.5 -158.5l196 1l-13 -43h-251l5 42q145 127 185.5 171t46.5 91q4 34 -13 53.5t-50 19.5q-55 0 -100 -47
l-33 29q61 61 136 61z" />
    <glyph glyph-name="threequarters" unicode="&#xbe;" horiz-adv-x="906" 
d="M703 747l38 -19l-517 -799l-38 20zM316 384q-8 -54 -50.5 -87.5t-107.5 -33.5q-79 0 -123 58l34 25q34 -41 87 -41q46 0 74.5 24t34.5 63q6 41 -14.5 59t-64.5 18h-32l12 39h19q35 0 63 20.5t33 58.5q4 30 -13.5 47t-51.5 17q-50 0 -101 -39l-25 33q61 47 129 47
q58 0 88.5 -30t24.5 -77q-5 -38 -31.5 -62.5t-67.5 -32.5q41 -2 65 -30t18 -76zM837 145l-6 -42h-55l-15 -103h-50l15 103h-187l4 37l169 281l41 -17l-155 -259h134l22 115h44l-16 -115h55z" />
    <glyph glyph-name="questiondown" unicode="&#xbf;" horiz-adv-x="445" 
d="M254 410q-20 0 -32 12.5t-12 31.5q0 22 15 36.5t37 14.5q19 0 31 -12.5t12 -30.5q0 -22 -15 -37t-36 -15zM149 -207q-74 0 -114 36.5t-40 92.5q0 50 24 86.5t58.5 58.5t69 41.5t58.5 48t24 65.5q0 19 -5 41l52 10q10 -28 10 -54q0 -45 -24 -78.5t-58 -54.5t-68 -41.5
t-58 -51t-24 -70.5q0 -38 26.5 -59.5t72.5 -21.5q83 0 162 77l36 -35q-91 -91 -202 -91z" />
    <glyph glyph-name="Agrave" unicode="&#xc0;" horiz-adv-x="562" 
d="M464 792l-20 -34l-187 78l33 52zM447 0l-33 187h-287l-87 -187h-61l324 685h75l131 -685h-62zM150 238h255l-71 398z" />
    <glyph glyph-name="Aacute" unicode="&#xc1;" horiz-adv-x="562" 
d="M470 836l-208 -78l-11 34l199 96zM447 0l-33 187h-287l-87 -187h-61l324 685h75l131 -685h-62zM150 238h255l-71 398z" />
    <glyph glyph-name="Acircumflex" unicode="&#xc2;" horiz-adv-x="562" 
d="M359 842l-131 -80l-25 30l143 102h36l115 -102l-27 -30zM447 0l-33 187h-287l-87 -187h-61l324 685h75l131 -685h-62zM150 238h255l-71 398z" />
    <glyph glyph-name="Atilde" unicode="&#xc3;" horiz-adv-x="562" 
d="M308 838q-20 -1 -33 -10t-31 -32l-33 22q45 66 98 66q25 0 58.5 -22.5t51.5 -22.5q30 0 63 45l34 -22q-44 -70 -94 -70q-32 0 -66 23t-48 23zM303 685h75l131 -685h-62l-33 187h-287l-87 -187h-61zM150 238h255l-71 398z" />
    <glyph glyph-name="Adieresis" unicode="&#xc4;" horiz-adv-x="562" 
d="M265 789q-19 0 -29 12.5t-8 30.5q2 15 14 25.5t28 10.5q18 0 28 -12.5t8 -30.5q-2 -16 -13.5 -26t-27.5 -10zM453 789q-19 0 -29 12.5t-8 30.5q2 15 14 25.5t28 10.5q18 0 28.5 -12.5t7.5 -30.5q-2 -16 -13.5 -26t-27.5 -10zM447 0l-33 187h-287l-87 -187h-61l324 685h75
l131 -685h-62zM150 238h255l-71 398z" />
    <glyph glyph-name="Aring" unicode="&#xc5;" horiz-adv-x="562" 
d="M354 759q-39 0 -63.5 23.5t-24.5 59.5q0 45 31.5 75t77.5 30q40 0 64 -23.5t24 -59.5q0 -45 -31.5 -75t-77.5 -30zM373 911q-30 0 -47 -20t-17 -48q0 -48 47 -48q30 0 47 20.5t17 47.5q0 48 -47 48zM447 0l-33 187h-287l-87 -187h-61l324 685h75l131 -685h-62zM150 238
h255l-71 398z" />
    <glyph glyph-name="AE" unicode="&#xc6;" horiz-adv-x="780" 
d="M732 635h-323l30 -256h257l-7 -49h-245l33 -280h228l-8 -50h-272l-20 184h-284l-95 -184h-63l362 685h421zM147 234h252l-43 403z" />
    <glyph glyph-name="Ccedilla" unicode="&#xc7;" horiz-adv-x="547" 
d="M401 645q-71 0 -125.5 -37t-84 -96.5t-44 -123t-14.5 -128.5q0 -109 47.5 -163.5t128.5 -54.5q49 0 84.5 15t75.5 44l28 -43q-80 -64 -175 -69l-9 -53q83 -7 83 -72q0 -39 -32 -65t-83 -26q-46 0 -79 22l22 35q23 -15 57 -15q28 0 45 12t18 35t-17 32.5t-65 9.5l19 86
q-96 8 -153 79t-57 194q0 73 18.5 145.5t55.5 138.5t103 107.5t151 41.5q100 0 170 -64l-36 -37q-59 50 -132 50z" />
    <glyph glyph-name="Egrave" unicode="&#xc8;" horiz-adv-x="509" 
d="M296 888l174 -96l-20 -34l-187 78zM516 685l-14 -50h-280l-36 -255h242l-6 -50h-242l-39 -280h293l-8 -50h-352l96 685h346z" />
    <glyph glyph-name="Eacute" unicode="&#xc9;" horiz-adv-x="509" 
d="M456 888l20 -52l-208 -78l-11 34zM516 685l-14 -50h-280l-36 -255h242l-6 -50h-242l-39 -280h293l-8 -50h-352l96 685h346z" />
    <glyph glyph-name="Ecircumflex" unicode="&#xca;" horiz-adv-x="509" 
d="M476 762l-111 80l-131 -80l-25 30l143 102h36l115 -102zM516 685l-14 -50h-280l-36 -255h242l-6 -50h-242l-39 -280h293l-8 -50h-352l96 685h346z" />
    <glyph glyph-name="Edieresis" unicode="&#xcb;" horiz-adv-x="509" 
d="M276 868q18 0 28 -12.5t8 -30.5q-2 -16 -13.5 -26t-27.5 -10q-19 0 -29 12.5t-8 30.5q2 15 14 25.5t28 10.5zM464 868q18 0 28.5 -12.5t7.5 -30.5q-2 -16 -13.5 -26t-27.5 -10q-19 0 -29 12.5t-8 30.5q2 15 14 25.5t28 10.5zM516 685l-14 -50h-280l-36 -255h242l-6 -50
h-242l-39 -280h293l-8 -50h-352l96 685h346z" />
    <glyph glyph-name="Igrave" unicode="&#xcc;" horiz-adv-x="280" 
d="M149 888l174 -96l-20 -34l-187 78zM229 685l-96 -685h-59l96 685h59z" />
    <glyph glyph-name="Iacute" unicode="&#xcd;" horiz-adv-x="280" 
d="M309 888l20 -52l-208 -78l-11 34zM229 685l-96 -685h-59l96 685h59z" />
    <glyph glyph-name="Icircumflex" unicode="&#xce;" horiz-adv-x="280" 
d="M329 762l-111 80l-131 -80l-25 30l143 102h36l115 -102zM229 685l-96 -685h-59l96 685h59z" />
    <glyph glyph-name="Idieresis" unicode="&#xcf;" horiz-adv-x="280" 
d="M129 868q18 0 28 -12.5t8 -30.5q-2 -16 -13.5 -26t-27.5 -10q-19 0 -29 12.5t-8 30.5q2 15 14 25.5t28 10.5zM317 868q18 0 28.5 -12.5t7.5 -30.5q-2 -16 -13.5 -26t-27.5 -10q-19 0 -29 12.5t-8 30.5q2 15 14 25.5t28 10.5zM229 685l-96 -685h-59l96 685h59z" />
    <glyph glyph-name="Eth" unicode="&#xd0;" horiz-adv-x="629" 
d="M303 685q58 0 104 -11t87.5 -37.5t64 -79t22.5 -128.5q0 -84 -19.5 -158t-60.5 -136t-113 -98.5t-167 -36.5h-148l47 330h-87l6 46h87l44 309h133zM230 50q79 0 137.5 33.5t90.5 90t47 120.5t15 136q0 64 -17.5 107t-50 63t-66.5 27.5t-79 7.5h-85l-36 -259h178l-7 -46
h-178l-39 -280h90z" />
    <glyph glyph-name="Ntilde" unicode="&#xd1;" horiz-adv-x="670" 
d="M484 792q-32 0 -66 23t-48 23q-20 -1 -33 -10t-31 -32l-33 22q45 66 98 66q25 0 58.5 -22.5t51.5 -22.5q30 0 63 45l34 -22q-44 -70 -94 -70zM619 685l-97 -685h-76l-237 631q-1 -78 -25 -250l-54 -381h-56l96 685h77l237 -630q3 89 20 215l58 415h57z" />
    <glyph glyph-name="Ograve" unicode="&#xd2;" horiz-adv-x="688" 
d="M354 888l174 -96l-20 -34l-187 78zM404 696q110 0 173 -70.5t63 -201.5q0 -73 -17.5 -144.5t-54 -139t-103.5 -109.5t-156 -42q-110 0 -174 71t-64 202q0 55 10.5 112t35.5 115.5t62 104t95.5 74t129.5 28.5zM401 645q-59 0 -106.5 -26t-77 -66t-49 -92.5t-27.5 -102.5
t-8 -98q0 -110 47 -165t130 -55q60 0 108.5 26.5t77.5 66.5t48 93.5t26.5 102.5t7.5 98q0 110 -46 164t-131 54z" />
    <glyph glyph-name="Oacute" unicode="&#xd3;" horiz-adv-x="688" 
d="M514 888l20 -52l-208 -78l-11 34zM404 696q110 0 173 -70.5t63 -201.5q0 -73 -17.5 -144.5t-54 -139t-103.5 -109.5t-156 -42q-110 0 -174 71t-64 202q0 55 10.5 112t35.5 115.5t62 104t95.5 74t129.5 28.5zM401 645q-59 0 -106.5 -26t-77 -66t-49 -92.5t-27.5 -102.5
t-8 -98q0 -110 47 -165t130 -55q60 0 108.5 26.5t77.5 66.5t48 93.5t26.5 102.5t7.5 98q0 110 -46 164t-131 54z" />
    <glyph glyph-name="Ocircumflex" unicode="&#xd4;" horiz-adv-x="688" 
d="M535 762l-111 80l-131 -80l-25 30l143 102h36l115 -102zM404 696q110 0 173 -70.5t63 -201.5q0 -73 -17.5 -144.5t-54 -139t-103.5 -109.5t-156 -42q-110 0 -174 71t-64 202q0 55 10.5 112t35.5 115.5t62 104t95.5 74t129.5 28.5zM401 645q-59 0 -106.5 -26t-77 -66
t-49 -92.5t-27.5 -102.5t-8 -98q0 -110 47 -165t130 -55q60 0 108.5 26.5t77.5 66.5t48 93.5t26.5 102.5t7.5 98q0 110 -46 164t-131 54z" />
    <glyph glyph-name="Otilde" unicode="&#xd5;" horiz-adv-x="688" 
d="M486 792q-32 0 -66 23t-48 23q-20 -1 -33 -10t-31 -32l-33 22q45 66 98 66q25 0 58.5 -22.5t51.5 -22.5q30 0 63 45l34 -22q-44 -70 -94 -70zM404 696q110 0 173 -70.5t63 -201.5q0 -73 -17.5 -144.5t-54 -139t-103.5 -109.5t-156 -42q-110 0 -174 71t-64 202
q0 55 10.5 112t35.5 115.5t62 104t95.5 74t129.5 28.5zM401 645q-59 0 -106.5 -26t-77 -66t-49 -92.5t-27.5 -102.5t-8 -98q0 -110 47 -165t130 -55q60 0 108.5 26.5t77.5 66.5t48 93.5t26.5 102.5t7.5 98q0 110 -46 164t-131 54z" />
    <glyph glyph-name="Odieresis" unicode="&#xd6;" horiz-adv-x="688" 
d="M334 868q18 0 28 -12.5t8 -30.5q-2 -16 -13.5 -26t-27.5 -10q-19 0 -29 12.5t-8 30.5q2 15 14 25.5t28 10.5zM522 868q18 0 28.5 -12.5t7.5 -30.5q-2 -16 -13.5 -26t-27.5 -10q-19 0 -29 12.5t-8 30.5q2 15 14 25.5t28 10.5zM404 696q110 0 173 -70.5t63 -201.5
q0 -73 -17.5 -144.5t-54 -139t-103.5 -109.5t-156 -42q-110 0 -174 71t-64 202q0 55 10.5 112t35.5 115.5t62 104t95.5 74t129.5 28.5zM401 645q-59 0 -106.5 -26t-77 -66t-49 -92.5t-27.5 -102.5t-8 -98q0 -110 47 -165t130 -55q60 0 108.5 26.5t77.5 66.5t48 93.5
t26.5 102.5t7.5 98q0 110 -46 164t-131 54z" />
    <glyph glyph-name="multiply" unicode="&#xd7;" horiz-adv-x="491" 
d="M398 471l33 -37l-144 -127l108 -127l-41 -36l-107 127l-141 -127l-33 36l143 127l-108 127l41 37l106 -128z" />
    <glyph glyph-name="Oslash" unicode="&#xd8;" horiz-adv-x="688" 
d="M524 668q116 -65 116 -244q0 -73 -17.5 -144.5t-54 -139t-103.5 -109.5t-156 -42q-40 0 -78 11l-52 -120l-49 15l55 124q-114 65 -114 243q0 55 10.5 112t35.5 115.5t62 104t95.5 74t129.5 28.5q42 0 75 -10l53 124l50 -14zM133 256q0 -140 79 -191l250 573q-25 7 -61 7
q-59 0 -106.5 -26t-77 -66.5t-49 -93.5t-27.5 -103.5t-8 -99.5zM310 40q61 0 109 26.5t77 67t48 94.5t26.5 104t7.5 100q0 143 -80 190l-250 -573q28 -9 62 -9z" />
    <glyph glyph-name="Ugrave" unicode="&#xd9;" horiz-adv-x="649" 
d="M333 888l174 -96l-20 -34l-187 78zM608 685l-66 -473q-15 -102 -80 -162.5t-173 -60.5q-111 0 -160 62t-35 165l66 469h59l-65 -468q-25 -176 137 -176q166 0 191 180l66 464h60z" />
    <glyph glyph-name="Uacute" unicode="&#xda;" horiz-adv-x="649" 
d="M493 888l20 -52l-208 -78l-11 34zM608 685l-66 -473q-15 -102 -80 -162.5t-173 -60.5q-111 0 -160 62t-35 165l66 469h59l-65 -468q-25 -176 137 -176q166 0 191 180l66 464h60z" />
    <glyph glyph-name="Ucircumflex" unicode="&#xdb;" horiz-adv-x="649" 
d="M514 762l-111 80l-131 -80l-25 30l143 102h36l115 -102zM608 685l-66 -473q-15 -102 -80 -162.5t-173 -60.5q-111 0 -160 62t-35 165l66 469h59l-65 -468q-25 -176 137 -176q166 0 191 180l66 464h60z" />
    <glyph glyph-name="Udieresis" unicode="&#xdc;" horiz-adv-x="649" 
d="M313 868q18 0 28 -12.5t8 -30.5q-2 -16 -13.5 -26t-27.5 -10q-19 0 -29 12.5t-8 30.5q2 15 14 25.5t28 10.5zM501 868q18 0 28.5 -12.5t7.5 -30.5q-2 -16 -13.5 -26t-27.5 -10q-19 0 -29 12.5t-8 30.5q2 15 14 25.5t28 10.5zM608 685l-66 -473q-15 -102 -80 -162.5
t-173 -60.5q-111 0 -160 62t-35 165l66 469h59l-65 -468q-25 -176 137 -176q166 0 191 180l66 464h60z" />
    <glyph glyph-name="Yacute" unicode="&#xdd;" horiz-adv-x="520" 
d="M428 888l20 -52l-208 -78l-11 34zM567 685l-275 -417l-38 -268h-60l38 267l-159 418h63l131 -363l233 363h67z" />
    <glyph glyph-name="Thorn" unicode="&#xde;" horiz-adv-x="567" 
d="M311 563q228 0 228 -178q0 -47 -14 -88.5t-45 -79t-89.5 -59.5t-138.5 -22h-100l-19 -136h-59l96 685h59l-17 -122h99zM256 186q118 0 169.5 56.5t51.5 141.5q0 71 -42 100t-127 29h-103l-46 -327h97z" />
    <glyph glyph-name="germandbls" unicode="&#xdf;" horiz-adv-x="579" 
d="M361 416q0 -21 16 -39.5t39 -36t46 -38.5t39 -55.5t16 -77.5q0 -41 -18.5 -80.5t-63 -69.5t-106.5 -30q-60 0 -112 28l22 41q43 -20 87 -20q67 0 100 41.5t33 88.5q0 36 -16 65.5t-38.5 49t-44.5 37.5t-38 40.5t-16 49.5q0 29 14.5 51.5t35.5 37.5t42 30.5t35.5 39
t14.5 53.5q0 35 -25 54.5t-67 19.5q-61 0 -102.5 -40.5t-52.5 -119.5l-73 -519q-10 -68 -32 -110t-51.5 -64t-85.5 -47l-17 45q41 19 63 36t40 51.5t26 90.5l73 523q13 96 70 148.5t142 52.5q68 0 108 -33t40 -86q0 -43 -22.5 -75t-49 -48t-49 -38.5t-22.5 -46.5z" />
    <glyph glyph-name="agrave" unicode="&#xe0;" horiz-adv-x="559" 
d="M305 782l172 -104l-22 -33l-183 85zM327 534q86 0 169 -43l-56 -377q-3 -18 -3 -31q0 -39 33 -53l-16 -41q-36 7 -53.5 28.5t-16.5 66.5q-67 -95 -162 -95q-78 0 -121 54t-43 149q0 57 15 114t45 109.5t84.5 85.5t124.5 33zM328 487q-54 0 -96.5 -28.5t-66 -74t-35 -94.5
t-11.5 -98q0 -76 29.5 -115.5t84.5 -39.5q85 0 155 111l47 315q-48 24 -107 24z" />
    <glyph glyph-name="aacute" unicode="&#xe1;" horiz-adv-x="559" 
d="M455 782l19 -52l-206 -85l-14 34zM327 534q86 0 169 -43l-56 -377q-3 -18 -3 -31q0 -39 33 -53l-16 -41q-36 7 -53.5 28.5t-16.5 66.5q-67 -95 -162 -95q-78 0 -121 54t-43 149q0 57 15 114t45 109.5t84.5 85.5t124.5 33zM328 487q-54 0 -96.5 -28.5t-66 -74t-35 -94.5
t-11.5 -98q0 -76 29.5 -115.5t84.5 -39.5q85 0 155 111l47 315q-48 24 -107 24z" />
    <glyph glyph-name="acircumflex" unicode="&#xe2;" horiz-adv-x="559" 
d="M234 643l-25 31l144 105h35l114 -105l-28 -31l-109 85zM327 534q86 0 169 -43l-56 -377q-3 -18 -3 -31q0 -39 33 -53l-16 -41q-36 7 -53.5 28.5t-16.5 66.5q-67 -95 -162 -95q-78 0 -121 54t-43 149q0 57 15 114t45 109.5t84.5 85.5t124.5 33zM328 487q-54 0 -96.5 -28.5
t-66 -74t-35 -94.5t-11.5 -98q0 -76 29.5 -115.5t84.5 -39.5q85 0 155 111l47 315q-48 24 -107 24z" />
    <glyph glyph-name="atilde" unicode="&#xe3;" horiz-adv-x="559" 
d="M421 666q-30 0 -63.5 23t-49.5 23q-18 0 -31.5 -9.5t-31.5 -32.5l-33 22q45 66 97 66q27 0 60.5 -22.5t50.5 -22.5q30 0 63 45l34 -22q-44 -70 -96 -70zM327 534q86 0 169 -43l-56 -377q-3 -18 -3 -31q0 -39 33 -53l-16 -41q-36 7 -53.5 28.5t-16.5 66.5
q-67 -95 -162 -95q-78 0 -121 54t-43 149q0 57 15 114t45 109.5t84.5 85.5t124.5 33zM328 487q-54 0 -96.5 -28.5t-66 -74t-35 -94.5t-11.5 -98q0 -76 29.5 -115.5t84.5 -39.5q85 0 155 111l47 315q-48 24 -107 24z" />
    <glyph glyph-name="adieresis" unicode="&#xe4;" horiz-adv-x="559" 
d="M271 742q18 0 28 -12.5t8 -30.5q-2 -16 -13.5 -26t-27.5 -10q-19 0 -29 12.5t-8 30.5q2 15 14 25.5t28 10.5zM459 742q18 0 28.5 -12.5t7.5 -30.5q-2 -16 -13.5 -26t-27.5 -10q-19 0 -29 12.5t-8 30.5q2 15 14 25.5t28 10.5zM327 534q86 0 169 -43l-56 -377
q-3 -18 -3 -31q0 -39 33 -53l-16 -41q-36 7 -53.5 28.5t-16.5 66.5q-67 -95 -162 -95q-78 0 -121 54t-43 149q0 57 15 114t45 109.5t84.5 85.5t124.5 33zM328 487q-54 0 -96.5 -28.5t-66 -74t-35 -94.5t-11.5 -98q0 -76 29.5 -115.5t84.5 -39.5q85 0 155 111l47 315
q-48 24 -107 24z" />
    <glyph glyph-name="aring" unicode="&#xe5;" horiz-adv-x="559" 
d="M377 821q40 0 64 -23.5t24 -59.5q0 -45 -31.5 -75t-77.5 -30q-39 0 -63.5 23.5t-24.5 59.5q0 45 31.5 75t77.5 30zM375 785q-30 0 -47 -20t-17 -48q0 -48 47 -48q30 0 47 20.5t17 47.5q0 48 -47 48zM327 534q86 0 169 -43l-56 -377q-3 -18 -3 -31q0 -39 33 -53l-16 -41
q-36 7 -53.5 28.5t-16.5 66.5q-67 -95 -162 -95q-78 0 -121 54t-43 149q0 57 15 114t45 109.5t84.5 85.5t124.5 33zM328 487q-54 0 -96.5 -28.5t-66 -74t-35 -94.5t-11.5 -98q0 -76 29.5 -115.5t84.5 -39.5q85 0 155 111l47 315q-48 24 -107 24z" />
    <glyph glyph-name="ae" unicode="&#xe6;" horiz-adv-x="831" 
d="M291 534q127 0 155 -102q23 41 74.5 71.5t115.5 30.5q72 0 114 -35.5t42 -91.5q0 -65 -48 -108t-125 -63t-191 -29q1 -168 136 -168q74 0 148 53l26 -41q-86 -62 -178 -62q-127 0 -170 105q-85 -105 -202 -105q-69 0 -108 37t-39 99q0 77 58 128t183 51h102q11 48 23 78
q-2 47 -34.5 75t-87.5 28q-64 0 -143 -29l-13 45q85 33 162 33zM635 486q-89 0 -140 -69t-63 -164q152 12 226 47.5t74 104.5q0 34 -24.5 57.5t-72.5 23.5zM376 261h-88q-95 0 -140 -37t-45 -99q0 -43 25.5 -66t70.5 -23q96 0 177 106q-11 57 0 119z" />
    <glyph glyph-name="ccedilla" unicode="&#xe7;" horiz-adv-x="466" 
d="M319 485q-54 0 -94.5 -28t-62.5 -73t-32.5 -92.5t-10.5 -94.5q0 -79 34.5 -118t97.5 -39t128 44l26 -41q-66 -50 -146 -54l-9 -53q83 -7 83 -72q0 -39 -32 -65t-83 -26q-46 0 -79 22l22 35q23 -15 57 -15q28 0 45 12t18 35t-17 32.5t-65 9.5l19 87q-74 9 -116.5 63.5
t-42.5 145.5q0 55 14.5 110.5t43.5 107t81.5 84t120.5 32.5q87 0 141 -54l-32 -36q-46 41 -109 41z" />
    <glyph glyph-name="egrave" unicode="&#xe8;" horiz-adv-x="519" 
d="M451 678l-22 -33l-183 85l33 52zM481 408q0 -95 -94.5 -142t-267.5 -60v-6q0 -82 35.5 -121.5t98.5 -39.5q73 0 147 53l27 -41q-87 -62 -178 -62t-140.5 55t-49.5 155q0 58 15 114.5t45 107t82.5 82t119.5 31.5q74 0 117 -35.5t43 -90.5zM321 486q-37 0 -68.5 -14
t-53 -36.5t-38 -54t-26 -63.5t-13.5 -67q150 12 224 49t74 106q0 34 -25 57t-74 23z" />
    <glyph glyph-name="eacute" unicode="&#xe9;" horiz-adv-x="519" 
d="M449 730l-206 -85l-14 34l201 103zM481 408q0 -95 -94.5 -142t-267.5 -60v-6q0 -82 35.5 -121.5t98.5 -39.5q73 0 147 53l27 -41q-87 -62 -178 -62t-140.5 55t-49.5 155q0 58 15 114.5t45 107t82.5 82t119.5 31.5q74 0 117 -35.5t43 -90.5zM321 486q-37 0 -68.5 -14
t-53 -36.5t-38 -54t-26 -63.5t-13.5 -67q150 12 224 49t74 106q0 34 -25 57t-74 23z" />
    <glyph glyph-name="ecircumflex" unicode="&#xea;" horiz-adv-x="519" 
d="M340 728l-131 -85l-25 31l144 105h35l114 -105l-28 -31zM481 408q0 -95 -94.5 -142t-267.5 -60v-6q0 -82 35.5 -121.5t98.5 -39.5q73 0 147 53l27 -41q-87 -62 -178 -62t-140.5 55t-49.5 155q0 58 15 114.5t45 107t82.5 82t119.5 31.5q74 0 117 -35.5t43 -90.5zM321 486
q-37 0 -68.5 -14t-53 -36.5t-38 -54t-26 -63.5t-13.5 -67q150 12 224 49t74 106q0 34 -25 57t-74 23z" />
    <glyph glyph-name="edieresis" unicode="&#xeb;" horiz-adv-x="519" 
d="M241 663q-19 0 -29 12.5t-8 30.5q2 15 14 25.5t28 10.5q18 0 28 -12.5t8 -30.5q-2 -16 -13.5 -26t-27.5 -10zM429 663q-19 0 -29 12.5t-8 30.5q2 15 14 25.5t28 10.5q18 0 28.5 -12.5t7.5 -30.5q-2 -16 -13.5 -26t-27.5 -10zM481 408q0 -95 -94.5 -142t-267.5 -60v-6
q0 -82 35.5 -121.5t98.5 -39.5q73 0 147 53l27 -41q-87 -62 -178 -62t-140.5 55t-49.5 155q0 58 15 114.5t45 107t82.5 82t119.5 31.5q74 0 117 -35.5t43 -90.5zM321 486q-37 0 -68.5 -14t-53 -36.5t-38 -54t-26 -63.5t-13.5 -67q150 12 224 49t74 106q0 34 -25 57t-74 23z
" />
    <glyph glyph-name="igrave" unicode="&#xec;" horiz-adv-x="269" 
d="M139 782l172 -104l-22 -33l-183 85zM200 523l-74 -523h-57l74 523h57z" />
    <glyph glyph-name="iacute" unicode="&#xed;" horiz-adv-x="269" 
d="M289 782l19 -52l-206 -85l-14 34zM200 523l-74 -523h-57l74 523h57z" />
    <glyph glyph-name="icircumflex" unicode="&#xee;" horiz-adv-x="269" 
d="M68 643l-25 31l144 105h35l114 -105l-28 -31l-109 85zM200 523l-74 -523h-57l74 523h57z" />
    <glyph glyph-name="idieresis" unicode="&#xef;" horiz-adv-x="269" 
d="M105 742q18 0 28 -12.5t8 -30.5q-2 -16 -13.5 -26t-27.5 -10q-19 0 -29 12.5t-8 30.5q2 15 14 25.5t28 10.5zM293 742q18 0 28.5 -12.5t7.5 -30.5q-2 -16 -13.5 -26t-27.5 -10q-19 0 -29 12.5t-8 30.5q2 15 14 25.5t28 10.5zM200 523l-74 -523h-57l74 523h57z" />
    <glyph glyph-name="eth" unicode="&#xf0;" horiz-adv-x="559" 
d="M378 662q117 -100 117 -277q0 -47 -8 -109q-20 -139 -86.5 -213t-164.5 -74q-83 0 -131.5 51.5t-48.5 142.5q0 50 12.5 98t38.5 91t71.5 69.5t105.5 26.5q98 0 154 -77q-2 80 -24.5 136t-72.5 102l-88 -77l-40 20l91 82q-58 33 -114 44l16 46q80 -18 136 -56l80 74
l32 -31zM237 37q73 0 124 63.5t68 183.5q3 17 5 50q-54 87 -143 87q-49 0 -84.5 -22t-54.5 -58t-28 -76t-9 -83q0 -70 31.5 -107.5t90.5 -37.5z" />
    <glyph glyph-name="ntilde" unicode="&#xf1;" horiz-adv-x="581" 
d="M412 666q-30 0 -63.5 23t-49.5 23q-18 0 -31.5 -9.5t-31.5 -32.5l-33 22q45 66 97 66q27 0 60.5 -22.5t50.5 -22.5q30 0 63 45l34 -22q-44 -70 -96 -70zM376 534q67 0 99 -43.5t21 -121.5l-52 -369h-58l52 367q17 118 -74 118q-103 0 -194 -172l-44 -313h-57l74 523h48
l-13 -130q84 141 198 141z" />
    <glyph glyph-name="ograve" unicode="&#xf2;" horiz-adv-x="569" 
d="M289 782l172 -104l-22 -33l-183 85zM321 534q90 0 139.5 -55t49.5 -155q0 -53 -13.5 -107.5t-42 -107.5t-82 -86.5t-123.5 -33.5q-91 0 -140.5 56t-49.5 156q0 54 14 108.5t42.5 106.5t82 85t123.5 33zM319 486q-55 0 -96 -29t-62.5 -75.5t-31.5 -93.5t-10 -92
q0 -78 33.5 -118t97.5 -40q54 0 95 29t62.5 75t31.5 93t10 93q0 158 -130 158z" />
    <glyph glyph-name="oacute" unicode="&#xf3;" horiz-adv-x="569" 
d="M440 782l19 -52l-206 -85l-14 34zM321 534q90 0 139.5 -55t49.5 -155q0 -53 -13.5 -107.5t-42 -107.5t-82 -86.5t-123.5 -33.5q-91 0 -140.5 56t-49.5 156q0 54 14 108.5t42.5 106.5t82 85t123.5 33zM319 486q-55 0 -96 -29t-62.5 -75.5t-31.5 -93.5t-10 -92
q0 -78 33.5 -118t97.5 -40q54 0 95 29t62.5 75t31.5 93t10 93q0 158 -130 158z" />
    <glyph glyph-name="ocircumflex" unicode="&#xf4;" horiz-adv-x="569" 
d="M219 643l-25 31l144 105h35l114 -105l-28 -31l-109 85zM321 534q90 0 139.5 -55t49.5 -155q0 -53 -13.5 -107.5t-42 -107.5t-82 -86.5t-123.5 -33.5q-91 0 -140.5 56t-49.5 156q0 54 14 108.5t42.5 106.5t82 85t123.5 33zM319 486q-55 0 -96 -29t-62.5 -75.5t-31.5 -93.5
t-10 -92q0 -78 33.5 -118t97.5 -40q54 0 95 29t62.5 75t31.5 93t10 93q0 158 -130 158z" />
    <glyph glyph-name="otilde" unicode="&#xf5;" horiz-adv-x="569" 
d="M405 666q-30 0 -63.5 23t-49.5 23q-18 0 -31.5 -9.5t-31.5 -32.5l-33 22q45 66 97 66q27 0 60.5 -22.5t50.5 -22.5q30 0 63 45l34 -22q-44 -70 -96 -70zM321 534q90 0 139.5 -55t49.5 -155q0 -53 -13.5 -107.5t-42 -107.5t-82 -86.5t-123.5 -33.5q-91 0 -140.5 56
t-49.5 156q0 54 14 108.5t42.5 106.5t82 85t123.5 33zM319 486q-55 0 -96 -29t-62.5 -75.5t-31.5 -93.5t-10 -92q0 -78 33.5 -118t97.5 -40q54 0 95 29t62.5 75t31.5 93t10 93q0 158 -130 158z" />
    <glyph glyph-name="odieresis" unicode="&#xf6;" horiz-adv-x="569" 
d="M255 742q18 0 28 -12.5t8 -30.5q-2 -16 -13.5 -26t-27.5 -10q-19 0 -29 12.5t-8 30.5q2 15 14 25.5t28 10.5zM443 742q18 0 28.5 -12.5t7.5 -30.5q-2 -16 -13.5 -26t-27.5 -10q-19 0 -29 12.5t-8 30.5q2 15 14 25.5t28 10.5zM321 534q90 0 139.5 -55t49.5 -155
q0 -53 -13.5 -107.5t-42 -107.5t-82 -86.5t-123.5 -33.5q-91 0 -140.5 56t-49.5 156q0 54 14 108.5t42.5 106.5t82 85t123.5 33zM319 486q-55 0 -96 -29t-62.5 -75.5t-31.5 -93.5t-10 -92q0 -78 33.5 -118t97.5 -40q54 0 95 29t62.5 75t31.5 93t10 93q0 158 -130 158z" />
    <glyph glyph-name="divide" unicode="&#xf7;" horiz-adv-x="491" 
d="M290 598q20 0 32 -12.5t12 -31.5q0 -22 -14.5 -36.5t-36.5 -14.5q-19 0 -31.5 12.5t-12.5 30.5q0 22 15 37t36 15zM75 306l7 51h353l-7 -51h-353zM229 160q20 0 32 -12.5t12 -31.5q0 -21 -15 -36t-37 -15q-19 0 -31 12.5t-12 30.5q0 22 15 37t36 15z" />
    <glyph glyph-name="oslash" unicode="&#xf8;" horiz-adv-x="569" 
d="M128 -125l-47 14l61 128q-83 52 -83 184q0 54 14 108.5t42.5 106.5t82 85t123.5 33q35 0 63 -9l57 123l47 -14l-60 -128q82 -53 82 -182q0 -53 -13.5 -107.5t-42 -107.5t-82 -86.5t-123.5 -33.5q-35 0 -63 9zM170 62l197 417q-20 7 -48 7q-55 0 -96 -29t-62.5 -75.5
t-31.5 -93.5t-10 -92q0 -97 51 -134zM250 38q54 0 95 29t62.5 75t31.5 93t10 93q0 96 -48 133l-197 -416q18 -7 46 -7z" />
    <glyph glyph-name="ugrave" unicode="&#xf9;" horiz-adv-x="577" 
d="M291 782l172 -104l-22 -33l-183 85zM508 523l-74 -523h-48l14 133q-77 -144 -193 -144q-68 0 -100 42.5t-22 119.5l53 372h57l-52 -370q-17 -116 75 -116q102 0 188 166l44 320h58z" />
    <glyph glyph-name="uacute" unicode="&#xfa;" horiz-adv-x="577" 
d="M441 782l19 -52l-206 -85l-14 34zM508 523l-74 -523h-48l14 133q-77 -144 -193 -144q-68 0 -100 42.5t-22 119.5l53 372h57l-52 -370q-17 -116 75 -116q102 0 188 166l44 320h58z" />
    <glyph glyph-name="ucircumflex" unicode="&#xfb;" horiz-adv-x="577" 
d="M220 643l-25 31l144 105h35l114 -105l-28 -31l-109 85zM508 523l-74 -523h-48l14 133q-77 -144 -193 -144q-68 0 -100 42.5t-22 119.5l53 372h57l-52 -370q-17 -116 75 -116q102 0 188 166l44 320h58z" />
    <glyph glyph-name="udieresis" unicode="&#xfc;" horiz-adv-x="577" 
d="M257 742q18 0 28 -12.5t8 -30.5q-2 -16 -13.5 -26t-27.5 -10q-19 0 -29 12.5t-8 30.5q2 15 14 25.5t28 10.5zM445 742q18 0 28.5 -12.5t7.5 -30.5q-2 -16 -13.5 -26t-27.5 -10q-19 0 -29 12.5t-8 30.5q2 15 14 25.5t28 10.5zM508 523l-74 -523h-48l14 133
q-77 -144 -193 -144q-68 0 -100 42.5t-22 119.5l53 372h57l-52 -370q-17 -116 75 -116q102 0 188 166l44 320h58z" />
    <glyph glyph-name="yacute" unicode="&#xfd;" horiz-adv-x="465" 
d="M383 782l19 -52l-206 -85l-14 34zM487 523l-249 -527q-43 -90 -96 -136t-147 -64l-3 46q77 18 114 51t76 108l-23 -1l-107 523h61l90 -479l223 479h61z" />
    <glyph glyph-name="thorn" unicode="&#xfe;" horiz-adv-x="576" 
d="M355 534q76 0 117 -51t41 -147q0 -58 -14 -115.5t-43.5 -111t-84.5 -87t-127 -33.5q-61 0 -117 23l-29 -211l-59 -8l134 943l58 7l-41 -286q77 77 165 77zM247 37q56 0 98.5 30t65 77.5t33 97t10.5 98.5q0 146 -112 146q-46 0 -83.5 -22.5t-76.5 -65.5l-47 -339
q58 -22 112 -22z" />
    <glyph glyph-name="ydieresis" unicode="&#xff;" horiz-adv-x="465" 
d="M199 742q18 0 28 -12.5t8 -30.5q-2 -16 -13.5 -26t-27.5 -10q-19 0 -29 12.5t-8 30.5q2 15 14 25.5t28 10.5zM387 742q18 0 28.5 -12.5t7.5 -30.5q-2 -16 -13.5 -26t-27.5 -10q-19 0 -29 12.5t-8 30.5q2 15 14 25.5t28 10.5zM487 523l-249 -527q-43 -90 -96 -136
t-147 -64l-3 46q77 18 114 51t76 108l-23 -1l-107 523h61l90 -479l223 479h61z" />
    <glyph glyph-name="Amacron" unicode="&#x100;" horiz-adv-x="562" 
d="M484 849l-7 -47h-240l7 47h240zM447 0l-33 187h-287l-87 -187h-61l324 685h75l131 -685h-62zM150 238h255l-71 398z" />
    <glyph glyph-name="amacron" unicode="&#x101;" horiz-adv-x="559" 
d="M479 676h-240l7 47h240zM327 534q86 0 169 -43l-56 -377q-3 -18 -3 -31q0 -39 33 -53l-16 -41q-36 7 -53.5 28.5t-16.5 66.5q-67 -95 -162 -95q-78 0 -121 54t-43 149q0 57 15 114t45 109.5t84.5 85.5t124.5 33zM328 487q-54 0 -96.5 -28.5t-66 -74t-35 -94.5t-11.5 -98
q0 -76 29.5 -115.5t84.5 -39.5q85 0 155 111l47 315q-48 24 -107 24z" />
    <glyph glyph-name="Abreve" unicode="&#x102;" horiz-adv-x="562" 
d="M351 765q-52 0 -84.5 29t-33.5 73l39 5q13 -60 80 -60q70 0 101 63l39 -12q-12 -43 -51.5 -70.5t-89.5 -27.5zM447 0l-33 187h-287l-87 -187h-61l324 685h75l131 -685h-62zM150 238h255l-71 398z" />
    <glyph glyph-name="abreve" unicode="&#x103;" horiz-adv-x="559" 
d="M354 653q-52 0 -84 31t-32 81l41 6q9 -71 76 -71q74 0 104 73l38 -12q-13 -49 -52.5 -78.5t-90.5 -29.5zM327 534q86 0 169 -43l-56 -377q-3 -18 -3 -31q0 -39 33 -53l-16 -41q-36 7 -53.5 28.5t-16.5 66.5q-67 -95 -162 -95q-78 0 -121 54t-43 149q0 57 15 114t45 109.5
t84.5 85.5t124.5 33zM328 487q-54 0 -96.5 -28.5t-66 -74t-35 -94.5t-11.5 -98q0 -76 29.5 -115.5t84.5 -39.5q85 0 155 111l47 315q-48 24 -107 24z" />
    <glyph glyph-name="Aogonek" unicode="&#x104;" horiz-adv-x="562" 
d="M492 0q-75 -32 -107.5 -61t-32.5 -63q0 -45 55 -45q27 0 59 7l-10 -49q-30 -6 -57 -6q-49 0 -75 22.5t-26 58.5q0 48 34 83.5t113 65.5l-31 174h-287l-87 -187h-61l324 685h75l131 -685h-17zM150 238h255l-71 398z" />
    <glyph glyph-name="aogonek" unicode="&#x105;" horiz-adv-x="559" 
d="M437 83q0 -39 33 -53l-16 -41h-1q-75 -32 -107.5 -61t-32.5 -63q0 -45 55 -45q27 0 59 7l-10 -49q-30 -6 -57 -6q-49 0 -75 22.5t-26 58.5q0 49 36 85.5t119 66.5q-31 22 -30 79q-67 -95 -162 -95q-78 0 -121 54t-43 149q0 57 15 114t45 109.5t84.5 85.5t124.5 33
q86 0 169 -43l-56 -377q-3 -18 -3 -31zM388 148l47 315q-48 24 -107 24q-54 0 -96.5 -28.5t-66 -74t-35 -94.5t-11.5 -98q0 -76 29.5 -115.5t84.5 -39.5q85 0 155 111z" />
    <glyph glyph-name="Cacute" unicode="&#x106;" horiz-adv-x="547" 
d="M511 888l20 -52l-208 -78l-11 34zM399 696q100 0 170 -64l-36 -37q-59 50 -132 50q-71 0 -125.5 -37t-84 -96.5t-44 -123t-14.5 -128.5q0 -109 47.5 -163.5t128.5 -54.5q49 0 84.5 15t75.5 44l28 -43q-85 -69 -192 -69q-106 0 -170 71.5t-64 202.5q0 73 18.5 145.5
t55.5 138.5t103 107.5t151 41.5z" />
    <glyph glyph-name="cacute" unicode="&#x107;" horiz-adv-x="466" 
d="M441 782l19 -52l-206 -85l-14 34zM319 534q87 0 141 -54l-32 -36q-46 41 -109 41q-54 0 -94.5 -28t-62.5 -73t-32.5 -92.5t-10.5 -94.5q0 -79 34.5 -118t97.5 -39t128 44l26 -41q-73 -54 -158 -54q-87 0 -137.5 55.5t-50.5 155.5q0 55 14.5 110.5t43.5 107t81.5 84
t120.5 32.5z" />
    <glyph glyph-name="Ccircumflex" unicode="&#x108;" horiz-adv-x="547" 
d="M532 762l-111 80l-131 -80l-25 30l143 102h36l115 -102zM399 696q100 0 170 -64l-36 -37q-59 50 -132 50q-71 0 -125.5 -37t-84 -96.5t-44 -123t-14.5 -128.5q0 -109 47.5 -163.5t128.5 -54.5q49 0 84.5 15t75.5 44l28 -43q-85 -69 -192 -69q-106 0 -170 71.5t-64 202.5
q0 73 18.5 145.5t55.5 138.5t103 107.5t151 41.5z" />
    <glyph glyph-name="ccircumflex" unicode="&#x109;" horiz-adv-x="466" 
d="M220 643l-25 31l144 105h35l114 -105l-28 -31l-109 85zM319 534q87 0 141 -54l-32 -36q-46 41 -109 41q-54 0 -94.5 -28t-62.5 -73t-32.5 -92.5t-10.5 -94.5q0 -79 34.5 -118t97.5 -39t128 44l26 -41q-73 -54 -158 -54q-87 0 -137.5 55.5t-50.5 155.5q0 55 14.5 110.5
t43.5 107t81.5 84t120.5 32.5z" />
    <glyph glyph-name="Cdotaccent" unicode="&#x10a;" horiz-adv-x="547" 
d="M427 879q21 0 31.5 -13t7.5 -32q-2 -17 -14.5 -28t-30.5 -11q-20 0 -31 13t-8 32q2 17 14.5 28t30.5 11zM399 696q100 0 170 -64l-36 -37q-59 50 -132 50q-71 0 -125.5 -37t-84 -96.5t-44 -123t-14.5 -128.5q0 -109 47.5 -163.5t128.5 -54.5q49 0 84.5 15t75.5 44l28 -43
q-85 -69 -192 -69q-106 0 -170 71.5t-64 202.5q0 73 18.5 145.5t55.5 138.5t103 107.5t151 41.5z" />
    <glyph glyph-name="cdotaccent" unicode="&#x10b;" horiz-adv-x="466" 
d="M353 753q21 0 31.5 -13t7.5 -32q-2 -17 -14.5 -28t-30.5 -11q-20 0 -31 13t-8 32q2 17 14.5 28t30.5 11zM319 534q87 0 141 -54l-32 -36q-46 41 -109 41q-54 0 -94.5 -28t-62.5 -73t-32.5 -92.5t-10.5 -94.5q0 -79 34.5 -118t97.5 -39t128 44l26 -41q-73 -54 -158 -54
q-87 0 -137.5 55.5t-50.5 155.5q0 55 14.5 110.5t43.5 107t81.5 84t120.5 32.5z" />
    <glyph glyph-name="Ccaron" unicode="&#x10c;" horiz-adv-x="547" 
d="M545 888l23 -31l-142 -101h-35l-116 101l28 30l110 -79zM399 696q100 0 170 -64l-36 -37q-59 50 -132 50q-71 0 -125.5 -37t-84 -96.5t-44 -123t-14.5 -128.5q0 -109 47.5 -163.5t128.5 -54.5q49 0 84.5 15t75.5 44l28 -43q-85 -69 -192 -69q-106 0 -170 71.5t-64 202.5
q0 73 18.5 145.5t55.5 138.5t103 107.5t151 41.5z" />
    <glyph glyph-name="ccaron" unicode="&#x10d;" horiz-adv-x="466" 
d="M475 769l23 -30l-143 -106h-36l-114 106l27 30l110 -84zM319 534q87 0 141 -54l-32 -36q-46 41 -109 41q-54 0 -94.5 -28t-62.5 -73t-32.5 -92.5t-10.5 -94.5q0 -79 34.5 -118t97.5 -39t128 44l26 -41q-73 -54 -158 -54q-87 0 -137.5 55.5t-50.5 155.5q0 55 14.5 110.5
t43.5 107t81.5 84t120.5 32.5z" />
    <glyph glyph-name="Dcaron" unicode="&#x10e;" horiz-adv-x="630" 
d="M500 888l23 -31l-142 -101h-35l-116 101l28 30l110 -79zM304 685q58 0 104 -11t87 -37.5t63.5 -79t22.5 -128.5q0 -84 -19.5 -158t-60 -136t-112.5 -98.5t-168 -36.5h-147l96 685h134zM307 635h-85l-81 -585h89q79 0 137.5 33.5t91 90t47.5 120.5t15 136q0 64 -17.5 107
t-50.5 63t-67 27.5t-79 7.5z" />
    <glyph glyph-name="dcaron" unicode="&#x10f;" horiz-adv-x="582" 
d="M487 743l57 -7l-104 -736h-50l7 106q-68 -117 -173 -117q-76 0 -118.5 55t-42.5 151q0 55 13.5 111t40.5 109t76.5 86t114.5 33q90 0 139 -72zM619 742l55 -6l-60 -164l-35 5zM316 486q-51 0 -90.5 -29t-60.5 -75t-31 -94t-10 -96q0 -76 28.5 -115.5t80.5 -39.5
q54 0 93.5 36t81.5 108l32 228q-44 77 -124 77z" />
    <glyph glyph-name="Dcroat" unicode="&#x110;" horiz-adv-x="629" 
d="M303 685q58 0 104 -11t87.5 -37.5t64 -79t22.5 -128.5q0 -84 -19.5 -158t-60.5 -136t-113 -98.5t-167 -36.5h-148l47 330h-87l6 46h87l44 309h133zM230 50q79 0 137.5 33.5t90.5 90t47 120.5t15 136q0 64 -17.5 107t-50 63t-66.5 27.5t-79 7.5h-85l-36 -259h178l-7 -46
h-178l-39 -280h90z" />
    <glyph glyph-name="dcroat" unicode="&#x111;" horiz-adv-x="590" 
d="M610 663l-7 -47h-76l-87 -616h-50l7 106q-68 -117 -173 -117q-76 0 -118.5 55t-42.5 151q0 55 13.5 111t40.5 109t76.5 86t114.5 33q90 0 139 -72l22 154h-160v47h166l12 80l57 -7l-11 -73h77zM408 181l32 228q-44 77 -124 77q-51 0 -90.5 -29t-60.5 -75t-31 -94t-10 -96
q0 -76 28.5 -115.5t80.5 -39.5q54 0 93.5 36t81.5 108z" />
    <glyph glyph-name="Emacron" unicode="&#x112;" horiz-adv-x="509" 
d="M483 802h-240l7 47h240zM516 685l-14 -50h-280l-36 -255h242l-6 -50h-242l-39 -280h293l-8 -50h-352l96 685h346z" />
    <glyph glyph-name="emacron" unicode="&#x113;" horiz-adv-x="519" 
d="M460 723l-7 -47h-240l7 47h240zM481 408q0 -95 -94.5 -142t-267.5 -60v-6q0 -82 35.5 -121.5t98.5 -39.5q73 0 147 53l27 -41q-87 -62 -178 -62t-140.5 55t-49.5 155q0 58 15 114.5t45 107t82.5 82t119.5 31.5q74 0 117 -35.5t43 -90.5zM321 486q-37 0 -68.5 -14
t-53 -36.5t-38 -54t-26 -63.5t-13.5 -67q150 12 224 49t74 106q0 34 -25 57t-74 23z" />
    <glyph glyph-name="Ebreve" unicode="&#x114;" horiz-adv-x="509" 
d="M357 765q-52 0 -84.5 29t-33.5 73l39 5q13 -60 80 -60q70 0 101 63l39 -12q-12 -43 -51.5 -70.5t-89.5 -27.5zM516 685l-14 -50h-280l-36 -255h242l-6 -50h-242l-39 -280h293l-8 -50h-352l96 685h346z" />
    <glyph glyph-name="ebreve" unicode="&#x115;" horiz-adv-x="519" 
d="M328 653q-52 0 -84 31t-32 81l41 6q9 -71 76 -71q74 0 104 73l38 -12q-13 -49 -52.5 -78.5t-90.5 -29.5zM481 408q0 -95 -94.5 -142t-267.5 -60v-6q0 -82 35.5 -121.5t98.5 -39.5q73 0 147 53l27 -41q-87 -62 -178 -62t-140.5 55t-49.5 155q0 58 15 114.5t45 107t82.5 82
t119.5 31.5q74 0 117 -35.5t43 -90.5zM321 486q-37 0 -68.5 -14t-53 -36.5t-38 -54t-26 -63.5t-13.5 -67q150 12 224 49t74 106q0 34 -25 57t-74 23z" />
    <glyph glyph-name="Edotaccent" unicode="&#x116;" horiz-adv-x="509" 
d="M372 879q21 0 31.5 -13t7.5 -32q-2 -17 -14.5 -28t-30.5 -11q-20 0 -31 13t-8 32q2 17 14.5 28t30.5 11zM516 685l-14 -50h-280l-36 -255h242l-6 -50h-242l-39 -280h293l-8 -50h-352l96 685h346z" />
    <glyph glyph-name="edotaccent" unicode="&#x117;" horiz-adv-x="519" 
d="M336 669q-20 0 -31 13t-8 32q2 17 14.5 28t30.5 11q21 0 31.5 -13t7.5 -32q-2 -17 -14.5 -28t-30.5 -11zM481 408q0 -95 -94.5 -142t-267.5 -60v-6q0 -82 35.5 -121.5t98.5 -39.5q73 0 147 53l27 -41q-87 -62 -178 -62t-140.5 55t-49.5 155q0 58 15 114.5t45 107t82.5 82
t119.5 31.5q74 0 117 -35.5t43 -90.5zM321 486q-37 0 -68.5 -14t-53 -36.5t-38 -54t-26 -63.5t-13.5 -67q150 12 224 49t74 106q0 34 -25 57t-74 23z" />
    <glyph glyph-name="Eogonek" unicode="&#x118;" horiz-adv-x="509" 
d="M502 635h-280l-36 -255h242l-6 -50h-242l-39 -280h293l-8 -50h-30q-75 -32 -107.5 -61t-32.5 -63q0 -45 55 -45q27 0 59 7l-10 -49q-30 -6 -57 -6q-49 0 -75 22.5t-26 58.5q0 84 115 136h-243l96 685h346z" />
    <glyph glyph-name="eogonek" unicode="&#x119;" horiz-adv-x="519" 
d="M481 408q0 -95 -94.5 -142t-267.5 -60v-6q0 -82 35.5 -121.5t98.5 -39.5q73 0 147 53l27 -41q-49 -35 -96 -50q-63 -29 -88.5 -54.5t-25.5 -59.5q0 -52 64 -52q25 0 57 7l-6 -48q-35 -7 -58 -7q-53 0 -82 25.5t-29 66.5q0 69 83 110q-89 1 -138 55.5t-49 154.5
q0 58 15 114.5t45 107t82.5 82t119.5 31.5q74 0 117 -35.5t43 -90.5zM321 486q-37 0 -68.5 -14t-53 -36.5t-38 -54t-26 -63.5t-13.5 -67q150 12 224 49t74 106q0 34 -25 57t-74 23z" />
    <glyph glyph-name="Ecaron" unicode="&#x11a;" horiz-adv-x="509" 
d="M489 888l23 -31l-142 -101h-35l-116 101l28 30l110 -79zM516 685l-14 -50h-280l-36 -255h242l-6 -50h-242l-39 -280h293l-8 -50h-352l96 685h346z" />
    <glyph glyph-name="ecaron" unicode="&#x11b;" horiz-adv-x="519" 
d="M344 633h-36l-114 106l27 30l110 -84l133 84l23 -30zM321 534q74 0 117 -35.5t43 -90.5q0 -95 -94.5 -142t-267.5 -60v-6q0 -82 35.5 -121.5t98.5 -39.5q73 0 147 53l27 -41q-87 -62 -178 -62t-140.5 55t-49.5 155q0 58 15 114.5t45 107t82.5 82t119.5 31.5zM122 251
q150 12 224 49t74 106q0 34 -25 57t-74 23q-37 0 -68.5 -14t-53 -36.5t-38 -54t-26 -63.5t-13.5 -67z" />
    <glyph glyph-name="Gcircumflex" unicode="&#x11c;" horiz-adv-x="615" 
d="M539 762l-111 80l-131 -80l-25 30l143 102h36l115 -102zM406 696q106 0 183 -69l-40 -36q-60 54 -143 54q-69 0 -123 -35.5t-85.5 -93.5t-48 -125t-16.5 -138q0 -107 47.5 -160t135.5 -53q79 0 147 37l35 242h-132l-1 50h199l-44 -322q-98 -58 -210 -58t-175.5 69.5
t-63.5 201.5q0 78 20.5 153.5t60.5 139.5t106 103.5t148 39.5z" />
    <glyph glyph-name="gcircumflex" unicode="&#x11d;" horiz-adv-x="567" 
d="M219 643l-25 31l144 105h35l114 -105l-28 -31l-109 85zM329 534q86 0 169 -43l-71 -487q-31 -211 -219 -211q-90 0 -173 49l23 44q80 -43 149 -43q141 0 163 160l13 87q-66 -90 -158 -90q-78 0 -122 54t-44 146q0 56 15 112.5t45.5 107.5t85 82.5t124.5 31.5zM330 487
q-55 0 -97 -27t-66 -71t-35.5 -92.5t-11.5 -96.5q0 -73 30 -112.5t84 -39.5q87 0 158 110l45 305q-50 24 -107 24z" />
    <glyph glyph-name="Gbreve" unicode="&#x11e;" horiz-adv-x="615" 
d="M419 765q-52 0 -84.5 29t-33.5 73l39 5q13 -60 80 -60q70 0 101 63l39 -12q-12 -43 -51.5 -70.5t-89.5 -27.5zM406 696q106 0 183 -69l-40 -36q-60 54 -143 54q-69 0 -123 -35.5t-85.5 -93.5t-48 -125t-16.5 -138q0 -107 47.5 -160t135.5 -53q79 0 147 37l35 242h-132
l-1 50h199l-44 -322q-98 -58 -210 -58t-175.5 69.5t-63.5 201.5q0 78 20.5 153.5t60.5 139.5t106 103.5t148 39.5z" />
    <glyph glyph-name="gbreve" unicode="&#x11f;" horiz-adv-x="567" 
d="M338 653q-52 0 -84 31t-32 81l41 6q9 -71 76 -71q74 0 104 73l38 -12q-13 -49 -52.5 -78.5t-90.5 -29.5zM329 534q86 0 169 -43l-71 -487q-31 -211 -219 -211q-90 0 -173 49l23 44q80 -43 149 -43q141 0 163 160l13 87q-66 -90 -158 -90q-78 0 -122 54t-44 146
q0 56 15 112.5t45.5 107.5t85 82.5t124.5 31.5zM330 487q-55 0 -97 -27t-66 -71t-35.5 -92.5t-11.5 -96.5q0 -73 30 -112.5t84 -39.5q87 0 158 110l45 305q-50 24 -107 24z" />
    <glyph glyph-name="Gdotaccent" unicode="&#x120;" horiz-adv-x="615" 
d="M434 879q21 0 31.5 -13t7.5 -32q-2 -17 -14.5 -28t-30.5 -11q-20 0 -31 13t-8 32q2 17 14.5 28t30.5 11zM406 696q106 0 183 -69l-40 -36q-60 54 -143 54q-69 0 -123 -35.5t-85.5 -93.5t-48 -125t-16.5 -138q0 -107 47.5 -160t135.5 -53q79 0 147 37l35 242h-132l-1 50
h199l-44 -322q-98 -58 -210 -58t-175.5 69.5t-63.5 201.5q0 78 20.5 153.5t60.5 139.5t106 103.5t148 39.5z" />
    <glyph glyph-name="gdotaccent" unicode="&#x121;" horiz-adv-x="567" 
d="M352 753q21 0 31.5 -13t7.5 -32q-2 -17 -14.5 -28t-30.5 -11q-20 0 -31 13t-8 32q2 17 14.5 28t30.5 11zM329 534q86 0 169 -43l-71 -487q-31 -211 -219 -211q-90 0 -173 49l23 44q80 -43 149 -43q141 0 163 160l13 87q-66 -90 -158 -90q-78 0 -122 54t-44 146
q0 56 15 112.5t45.5 107.5t85 82.5t124.5 31.5zM330 487q-55 0 -97 -27t-66 -71t-35.5 -92.5t-11.5 -96.5q0 -73 30 -112.5t84 -39.5q87 0 158 110l45 305q-50 24 -107 24z" />
    <glyph glyph-name="Gcommaaccent" unicode="&#x122;" horiz-adv-x="615" 
d="M406 696q106 0 183 -69l-40 -36q-60 54 -143 54q-69 0 -123 -35.5t-85.5 -93.5t-48 -125t-16.5 -138q0 -107 47.5 -160t135.5 -53q79 0 147 37l35 242h-132l-1 50h199l-44 -322q-98 -58 -210 -58t-175.5 69.5t-63.5 201.5q0 78 20.5 153.5t60.5 139.5t106 103.5t148 39.5
zM287 -85q18 0 29 -11.5t11 -27.5q0 -22 -31 -71l-52 -84h-35l49 115q-18 13 -18 34q0 19 13.5 32t33.5 13z" />
    <glyph glyph-name="gcommaaccent" unicode="&#x123;" horiz-adv-x="567" 
d="M337 589q-18 0 -29 11.5t-11 27.5q0 22 31 71l52 84h35l-49 -115q18 -13 18 -34q0 -19 -13.5 -32t-33.5 -13zM329 534q86 0 169 -43l-71 -487q-31 -211 -219 -211q-90 0 -173 49l23 44q80 -43 149 -43q141 0 163 160l13 87q-66 -90 -158 -90q-78 0 -122 54t-44 146
q0 56 15 112.5t45.5 107.5t85 82.5t124.5 31.5zM330 487q-55 0 -97 -27t-66 -71t-35.5 -92.5t-11.5 -96.5q0 -73 30 -112.5t84 -39.5q87 0 158 110l45 305q-50 24 -107 24z" />
    <glyph glyph-name="Hcircumflex" unicode="&#x124;" horiz-adv-x="667" 
d="M521 762l-111 80l-131 -80l-25 30l143 102h36l115 -102zM460 0l48 335h-328l-47 -335h-59l96 685h59l-42 -299h328l42 299h59l-96 -685h-60z" />
    <glyph glyph-name="hcircumflex" unicode="&#x125;" horiz-adv-x="582" 
d="M489 813l-111 80l-131 -80l-25 30l143 102h36l115 -102zM375 534q69 0 100.5 -43t20.5 -120l-52 -371h-58l52 367q17 118 -73 118q-104 0 -195 -172l-44 -313h-57l104 736l58 7l-50 -348q79 139 194 139z" />
    <glyph glyph-name="Hbar" unicode="&#x126;" horiz-adv-x="666" 
d="M663 558l-7 -45h-62l-73 -513h-59l47 335h-327l-48 -335h-59l72 513h-64l6 45h64l18 127h60l-18 -127h327l18 127h60l-18 -127h63zM516 386l18 127h-327l-18 -127h327z" />
    <glyph glyph-name="hbar" unicode="&#x127;" horiz-adv-x="588" 
d="M381 534q69 0 100.5 -43t20.5 -120l-52 -371h-58l52 367q17 118 -73 118q-102 0 -195 -172l-44 -313h-57l87 616h-75l7 47h75l10 73l58 7l-11 -80h170l-14 -47h-163l-31 -221q79 139 193 139z" />
    <glyph glyph-name="Itilde" unicode="&#x128;" horiz-adv-x="280" 
d="M281 792q-32 0 -66 23t-48 23q-20 -1 -33 -10t-31 -32l-33 22q45 66 98 66q25 0 58.5 -22.5t51.5 -22.5q30 0 63 45l34 -22q-44 -70 -94 -70zM229 685l-96 -685h-59l96 685h59z" />
    <glyph glyph-name="itilde" unicode="&#x129;" horiz-adv-x="269" 
d="M255 666q-30 0 -63.5 23t-49.5 23q-18 0 -31.5 -9.5t-31.5 -32.5l-33 22q45 66 97 66q27 0 60.5 -22.5t50.5 -22.5q30 0 63 45l34 -22q-44 -70 -96 -70zM200 523l-74 -523h-57l74 523h57z" />
    <glyph glyph-name="Imacron" unicode="&#x12a;" horiz-adv-x="280" 
d="M336 802h-240l7 47h240zM229 685l-96 -685h-59l96 685h59z" />
    <glyph glyph-name="imacron" unicode="&#x12b;" horiz-adv-x="269" 
d="M312 676h-240l7 47h240zM200 523l-74 -523h-57l74 523h57z" />
    <glyph glyph-name="Ibreve" unicode="&#x12c;" horiz-adv-x="280" 
d="M210 765q-52 0 -84.5 29t-33.5 73l39 5q13 -60 80 -60q70 0 101 63l39 -12q-12 -43 -51.5 -70.5t-89.5 -27.5zM229 685l-96 -685h-59l96 685h59z" />
    <glyph glyph-name="ibreve" unicode="&#x12d;" horiz-adv-x="269" 
d="M187 653q-52 0 -84 31t-32 81l41 6q9 -71 76 -71q74 0 104 73l38 -12q-13 -49 -52.5 -78.5t-90.5 -29.5zM200 523l-74 -523h-57l74 523h57z" />
    <glyph glyph-name="Iogonek" unicode="&#x12e;" horiz-adv-x="280" 
d="M170 685h59l-96 -685h-14q-75 -32 -107.5 -61t-32.5 -63q0 -45 55 -45q27 0 59 7l-10 -49q-30 -6 -57 -6q-49 0 -75 22.5t-26 58.5q0 48 35 84t116 67z" />
    <glyph glyph-name="iogonek" unicode="&#x12f;" horiz-adv-x="269" 
d="M201 753q21 0 31.5 -13t7.5 -32q-2 -17 -14.5 -28t-30.5 -11q-20 0 -31 13t-8 32q2 17 14.5 28t30.5 11zM71 17l72 506h57l-74 -523h-18q-75 -32 -107.5 -61t-32.5 -63q0 -45 55 -45q27 0 59 7l-10 -49q-30 -6 -57 -6q-49 0 -75 22.5t-26 58.5q0 49 36.5 85.5t120.5 67.5
z" />
    <glyph glyph-name="Idotaccent" unicode="&#x130;" horiz-adv-x="280" 
d="M225 879q21 0 31.5 -13t7.5 -32q-2 -17 -14.5 -28t-30.5 -11q-20 0 -31 13t-8 32q2 17 14.5 28t30.5 11zM229 685l-96 -685h-59l96 685h59z" />
    <glyph glyph-name="dotlessi" unicode="&#x131;" horiz-adv-x="269" 
d="M200 523l-74 -523h-57l74 523h57z" />
    <glyph glyph-name="IJ" unicode="&#x132;" horiz-adv-x="569" 
d="M229 685l-96 -685h-59l96 685h59zM523 685l-83 -595q-13 -89 -53 -132.5t-130 -76.5l-13 45q71 30 99 65t38 106l83 588h59z" />
    <glyph glyph-name="ij" unicode="&#x133;" horiz-adv-x="536" 
d="M201 753q21 0 31.5 -13t7.5 -32q-2 -17 -14.5 -28t-30.5 -11q-20 0 -31 13t-8 32q2 17 14.5 28t30.5 11zM468 753q21 0 31.5 -13t7.5 -32q-2 -17 -14.5 -28t-30.5 -11q-20 0 -31 13t-8 32q2 17 14.5 28t30.5 11zM200 523l-74 -523h-57l74 523h57zM468 523l-72 -506
q-13 -98 -49 -141t-119 -80l-17 44q61 28 89 63t39 116l71 504h58z" />
    <glyph glyph-name="Jcircumflex" unicode="&#x134;" horiz-adv-x="289" 
d="M341 762l-111 80l-131 -80l-25 30l143 102h36l115 -102zM243 685l-83 -595q-13 -89 -53 -132.5t-130 -76.5l-13 45q71 30 99 65t38 106l83 588h59z" />
    <glyph glyph-name="jcircumflex" unicode="&#x135;" horiz-adv-x="267" 
d="M67 643l-25 31l144 105h35l114 -105l-28 -31l-109 85zM199 523l-72 -506q-13 -98 -49 -141t-119 -80l-17 44q61 28 89 63t39 116l71 504h58z" />
    <glyph glyph-name="Kcommaaccent" unicode="&#x136;" horiz-adv-x="545" 
d="M230 685l-97 -685h-59l96 685h60zM588 685l-330 -320l250 -365h-71l-248 367l327 318h72zM255 -85q18 0 29 -11.5t11 -27.5q0 -22 -31 -71l-52 -84h-35l49 115q-18 13 -18 34q0 19 13.5 32t33.5 13z" />
    <glyph glyph-name="kcommaaccent" unicode="&#x137;" horiz-adv-x="523" 
d="M231 743l-49 -348q79 139 195 139q54 0 87 -30.5t33 -81.5q0 -131 -173 -186l119 -236h-64l-125 254q182 51 182 163q0 70 -72 70q-54 0 -104.5 -47.5t-90.5 -134.5l-43 -305h-57l104 736zM232 -85q18 0 29 -11.5t11 -27.5q0 -22 -31 -71l-52 -84h-35l49 115
q-18 13 -18 34q0 19 13.5 32t33.5 13z" />
    <glyph glyph-name="kgreenlandic" unicode="&#x138;" horiz-adv-x="487" 
d="M200 523l-74 -523h-57l74 523h57zM491 523l-254 -248l202 -275h-67l-202 276l250 247h71z" />
    <glyph glyph-name="Lacute" unicode="&#x139;" horiz-adv-x="472" 
d="M309 888l20 -52l-208 -78l-11 34zM229 685l-88 -631h285l-16 -54h-336l96 685h59z" />
    <glyph glyph-name="lacute" unicode="&#x13a;" horiz-adv-x="282" 
d="M305 939l20 -52l-208 -78l-11 34zM226 743l-92 -655q-6 -49 33 -49q19 0 38 8l13 -44q-31 -14 -61 -14q-45 0 -66 27t-13 81l90 639z" />
    <glyph glyph-name="Lcommaaccent" unicode="&#x13b;" horiz-adv-x="472" 
d="M229 685l-88 -631h285l-16 -54h-336l96 685h59zM228 -85q18 0 29 -11.5t11 -27.5q0 -22 -31 -71l-52 -84h-35l49 115q-18 13 -18 34q0 19 13.5 32t33.5 13z" />
    <glyph glyph-name="lcommaaccent" unicode="&#x13c;" horiz-adv-x="282" 
d="M226 743l-92 -655q-6 -49 33 -49q19 0 38 8l13 -44q-31 -14 -61 -14q-45 0 -66 27t-13 81l90 639zM138 -85q18 0 29 -11.5t11 -27.5q0 -22 -31 -71l-52 -84h-35l49 115q-18 13 -18 34q0 19 13.5 32t33.5 13z" />
    <glyph glyph-name="Lcaron" unicode="&#x13d;" horiz-adv-x="472" 
d="M317 691l55 -6l-60 -164l-35 5zM229 685l-88 -631h285l-16 -54h-336l96 685h59z" />
    <glyph glyph-name="lcaron" unicode="&#x13e;" horiz-adv-x="282" 
d="M226 743l-92 -655q-6 -49 33 -49q19 0 38 8l13 -44q-31 -14 -61 -14q-45 0 -66 27t-13 81l90 639zM300 742l55 -6l-60 -164l-35 5z" />
    <glyph glyph-name="Ldot" unicode="&#x13f;" horiz-adv-x="472" 
d="M229 685l-88 -631h285l-16 -54h-336l96 685h59zM384 411q21 0 31.5 -13t7.5 -32q-2 -17 -14.5 -28t-30.5 -11q-20 0 -31 13t-8 32q2 17 14.5 28t30.5 11z" />
    <glyph glyph-name="ldot" unicode="&#x140;" horiz-adv-x="299" 
d="M226 743l-92 -655q-6 -49 33 -49q19 0 38 8l13 -44q-31 -14 -61 -14q-45 0 -66 27t-13 81l90 639zM294 418q21 0 31.5 -13t7.5 -32q-2 -17 -14.5 -28t-30.5 -11q-20 0 -31 13t-8 32q2 17 14.5 28t30.5 11z" />
    <glyph glyph-name="Lslash" unicode="&#x141;" horiz-adv-x="482" 
d="M437 54l-16 -54h-337l40 280l-67 -39l-19 39l94 55l49 350h59l-44 -313l197 113l19 -39l-223 -129l-37 -263h285z" />
    <glyph glyph-name="lslash" unicode="&#x142;" horiz-adv-x="289" 
d="M167 39q19 0 38 8l13 -44q-31 -14 -61 -14q-45 0 -66 27t-13 81l32 230l-56 -32l-16 42l80 46l50 353l58 7l-46 -325l101 58l16 -43l-125 -71l-38 -274q-6 -49 33 -49z" />
    <glyph glyph-name="Nacute" unicode="&#x143;" horiz-adv-x="670" 
d="M512 888l20 -52l-208 -78l-11 34zM619 685l-97 -685h-76l-237 631q-1 -78 -25 -250l-54 -381h-56l96 685h77l237 -630q3 89 20 215l58 415h57z" />
    <glyph glyph-name="nacute" unicode="&#x144;" horiz-adv-x="581" 
d="M446 782l19 -52l-206 -85l-14 34zM376 534q67 0 99 -43.5t21 -121.5l-52 -369h-58l52 367q17 118 -74 118q-103 0 -194 -172l-44 -313h-57l74 523h48l-13 -130q84 141 198 141z" />
    <glyph glyph-name="Ncommaaccent" unicode="&#x145;" horiz-adv-x="670" 
d="M619 685l-97 -685h-76l-237 631q-1 -78 -25 -250l-54 -381h-56l96 685h77l237 -630q3 89 20 215l58 415h57zM285 -85q18 0 29 -11.5t11 -27.5q0 -22 -31 -71l-52 -84h-35l49 115q-18 13 -18 34q0 19 13.5 32t33.5 13z" />
    <glyph glyph-name="ncommaaccent" unicode="&#x146;" horiz-adv-x="581" 
d="M376 534q67 0 99 -43.5t21 -121.5l-52 -369h-58l52 367q17 118 -74 118q-103 0 -194 -172l-44 -313h-57l74 523h48l-13 -130q84 141 198 141zM243 -85q18 0 29 -11.5t11 -27.5q0 -22 -31 -71l-52 -84h-35l49 115q-18 13 -18 34q0 19 13.5 32t33.5 13z" />
    <glyph glyph-name="Ncaron" unicode="&#x147;" horiz-adv-x="670" 
d="M546 888l23 -31l-142 -101h-35l-116 101l28 30l110 -79zM619 685l-97 -685h-76l-237 631q-1 -78 -25 -250l-54 -381h-56l96 685h77l237 -630q3 89 20 215l58 415h57z" />
    <glyph glyph-name="ncaron" unicode="&#x148;" horiz-adv-x="581" 
d="M480 769l23 -30l-143 -106h-36l-114 106l27 30l110 -84zM376 534q67 0 99 -43.5t21 -121.5l-52 -369h-58l52 367q17 118 -74 118q-103 0 -194 -172l-44 -313h-57l74 523h48l-13 -130q84 141 198 141z" />
    <glyph glyph-name="napostrophe" unicode="&#x149;" horiz-adv-x="666" 
d="M162 745q20 0 31.5 -13t9.5 -30q-1 -20 -29 -67l-50 -88h-36l48 119q-21 13 -20 38q2 17 14.5 29t31.5 12zM461 534q67 0 98.5 -43.5t20.5 -121.5l-52 -369h-57l52 367q15 118 -74 118q-102 0 -195 -172l-43 -313h-58l74 523h49l-13 -130q84 141 198 141z" />
    <glyph glyph-name="Eng" unicode="&#x14a;" horiz-adv-x="670" 
d="M562 685h57l-97 -685l-10 -73q-9 -66 -46.5 -99t-94.5 -33t-98 35l27 37q34 -23 70 -23q71 0 83 86l10 70h-17l-237 631q-1 -78 -25 -250l-54 -381h-56l96 685h77l237 -630q3 89 20 215z" />
    <glyph glyph-name="eng" unicode="&#x14b;" horiz-adv-x="581" 
d="M376 534q67 0 99 -43.5t21 -121.5l-52 -369h-1l-10 -73q-9 -65 -47 -98.5t-94 -33.5t-99 35l28 36q35 -23 69 -23q73 0 85 85l11 72l52 367q17 118 -74 118q-103 0 -194 -172l-44 -313h-57l74 523h48l-13 -130q84 141 198 141z" />
    <glyph glyph-name="Omacron" unicode="&#x14c;" horiz-adv-x="688" 
d="M541 802h-240l7 47h240zM404 696q110 0 173 -70.5t63 -201.5q0 -73 -17.5 -144.5t-54 -139t-103.5 -109.5t-156 -42q-110 0 -174 71t-64 202q0 55 10.5 112t35.5 115.5t62 104t95.5 74t129.5 28.5zM401 645q-59 0 -106.5 -26t-77 -66t-49 -92.5t-27.5 -102.5t-8 -98
q0 -110 47 -165t130 -55q60 0 108.5 26.5t77.5 66.5t48 93.5t26.5 102.5t7.5 98q0 110 -46 164t-131 54z" />
    <glyph glyph-name="omacron" unicode="&#x14d;" horiz-adv-x="569" 
d="M463 676h-240l7 47h240zM321 534q90 0 139.5 -55t49.5 -155q0 -53 -13.5 -107.5t-42 -107.5t-82 -86.5t-123.5 -33.5q-91 0 -140.5 56t-49.5 156q0 54 14 108.5t42.5 106.5t82 85t123.5 33zM319 486q-55 0 -96 -29t-62.5 -75.5t-31.5 -93.5t-10 -92q0 -78 33.5 -118
t97.5 -40q54 0 95 29t62.5 75t31.5 93t10 93q0 158 -130 158z" />
    <glyph glyph-name="Obreve" unicode="&#x14e;" horiz-adv-x="688" 
d="M415 765q-52 0 -84.5 29t-33.5 73l39 5q13 -60 80 -60q70 0 101 63l39 -12q-12 -43 -51.5 -70.5t-89.5 -27.5zM404 696q110 0 173 -70.5t63 -201.5q0 -73 -17.5 -144.5t-54 -139t-103.5 -109.5t-156 -42q-110 0 -174 71t-64 202q0 55 10.5 112t35.5 115.5t62 104t95.5 74
t129.5 28.5zM401 645q-59 0 -106.5 -26t-77 -66t-49 -92.5t-27.5 -102.5t-8 -98q0 -110 47 -165t130 -55q60 0 108.5 26.5t77.5 66.5t48 93.5t26.5 102.5t7.5 98q0 110 -46 164t-131 54z" />
    <glyph glyph-name="obreve" unicode="&#x14f;" horiz-adv-x="569" 
d="M338 653q-52 0 -84 31t-32 81l41 6q9 -71 76 -71q74 0 104 73l38 -12q-13 -49 -52.5 -78.5t-90.5 -29.5zM321 534q90 0 139.5 -55t49.5 -155q0 -53 -13.5 -107.5t-42 -107.5t-82 -86.5t-123.5 -33.5q-91 0 -140.5 56t-49.5 156q0 54 14 108.5t42.5 106.5t82 85t123.5 33z
M319 486q-55 0 -96 -29t-62.5 -75.5t-31.5 -93.5t-10 -92q0 -78 33.5 -118t97.5 -40q54 0 95 29t62.5 75t31.5 93t10 93q0 158 -130 158z" />
    <glyph glyph-name="Ohungarumlaut" unicode="&#x150;" horiz-adv-x="688" 
d="M422 937l49 -28l-103 -136l-36 17zM551 937l49 -27l-112 -142l-36 18zM404 696q110 0 173 -70.5t63 -201.5q0 -73 -17.5 -144.5t-54 -139t-103.5 -109.5t-156 -42q-110 0 -174 71t-64 202q0 55 10.5 112t35.5 115.5t62 104t95.5 74t129.5 28.5zM401 645q-59 0 -106.5 -26
t-77 -66t-49 -92.5t-27.5 -102.5t-8 -98q0 -110 47 -165t130 -55q60 0 108.5 26.5t77.5 66.5t48 93.5t26.5 102.5t7.5 98q0 110 -46 164t-131 54z" />
    <glyph glyph-name="ohungarumlaut" unicode="&#x151;" horiz-adv-x="569" 
d="M347 811l49 -28l-103 -136l-36 17zM476 811l49 -27l-112 -142l-36 18zM321 534q90 0 139.5 -55t49.5 -155q0 -53 -13.5 -107.5t-42 -107.5t-82 -86.5t-123.5 -33.5q-91 0 -140.5 56t-49.5 156q0 54 14 108.5t42.5 106.5t82 85t123.5 33zM319 486q-55 0 -96 -29
t-62.5 -75.5t-31.5 -93.5t-10 -92q0 -78 33.5 -118t97.5 -40q54 0 95 29t62.5 75t31.5 93t10 93q0 158 -130 158z" />
    <glyph glyph-name="OE" unicode="&#x152;" horiz-adv-x="871" 
d="M872 685l-14 -50h-319q80 -66 80 -212q0 -13 -2 -43h168l-7 -50h-167q-30 -193 -150 -280h329l-7 -50h-416q-36 -11 -70 -11q-103 0 -164.5 71t-61.5 201q0 54 10.5 111t35.5 115.5t60.5 104.5t91 75t121.5 29q37 0 70 -11h412zM558 435q0 104 -44 157t-123 53
q-69 0 -121.5 -39t-81 -100.5t-42 -125.5t-13.5 -125q0 -106 45 -160.5t121 -54.5q71 0 124 39.5t81 102.5t41 127t13 126z" />
    <glyph glyph-name="oe" unicode="&#x153;" horiz-adv-x="900" 
d="M862 408q0 -95 -94.5 -142t-267.5 -60v-6q0 -82 35.5 -121.5t98.5 -39.5q73 0 147 53l27 -41q-86 -62 -178 -62q-136 0 -176 132q-68 -132 -205 -132q-91 0 -140.5 56t-49.5 156q0 54 14 108.5t42.5 106.5t82 85t123.5 33q135 0 172 -132q72 132 210 132
q74 0 116.5 -35.5t42.5 -90.5zM702 486q-37 0 -68.5 -14t-53 -36.5t-38 -54t-26 -63.5t-13.5 -67q150 12 224 49t74 106q0 34 -25 57t-74 23zM250 38q54 0 95 29t62.5 75t31.5 93t10 93q0 158 -130 158q-55 0 -96 -29t-62.5 -75.5t-31.5 -93.5t-10 -92q0 -78 33.5 -118
t97.5 -40z" />
    <glyph glyph-name="Racute" unicode="&#x154;" horiz-adv-x="587" 
d="M481 836l-208 -78l-11 34l199 96zM553 525q0 -72 -42.5 -129.5t-137.5 -79.5l144 -316h-66l-136 307h-139l-43 -307h-59l96 685h164q219 0 219 -160zM183 356h118q53 0 92 15.5t59 41.5t29.5 54t9.5 59q0 57 -37.5 83.5t-119.5 26.5h-112z" />
    <glyph glyph-name="racute" unicode="&#x155;" horiz-adv-x="371" 
d="M387 782l19 -52l-206 -85l-14 34zM345 534q29 0 50 -7l-16 -54q-20 5 -42 5q-55 0 -94.5 -45t-73.5 -135l-43 -298h-57l74 523h49l-14 -127q63 138 167 138z" />
    <glyph glyph-name="Rcommaaccent" unicode="&#x156;" horiz-adv-x="587" 
d="M553 525q0 -72 -42.5 -129.5t-137.5 -79.5l144 -316h-66l-136 307h-139l-43 -307h-59l96 685h164q219 0 219 -160zM183 356h118q53 0 92 15.5t59 41.5t29.5 54t9.5 59q0 57 -37.5 83.5t-119.5 26.5h-112zM255 -85q18 0 29 -11.5t11 -27.5q0 -22 -31 -71l-52 -84h-35
l49 115q-18 13 -18 34q0 19 13.5 32t33.5 13z" />
    <glyph glyph-name="rcommaaccent" unicode="&#x157;" horiz-adv-x="371" 
d="M345 534q29 0 50 -7l-16 -54q-20 5 -42 5q-55 0 -94.5 -45t-73.5 -135l-43 -298h-57l74 523h49l-14 -127q63 138 167 138zM83 -85q18 0 29 -11.5t11 -27.5q0 -22 -31 -71l-52 -84h-35l49 115q-18 13 -18 34q0 19 13.5 32t33.5 13z" />
    <glyph glyph-name="Rcaron" unicode="&#x158;" horiz-adv-x="587" 
d="M376 756h-35l-116 101l28 30l110 -79l132 80l23 -31zM553 525q0 -72 -42.5 -129.5t-137.5 -79.5l144 -316h-66l-136 307h-139l-43 -307h-59l96 685h164q219 0 219 -160zM183 356h118q53 0 92 15.5t59 41.5t29.5 54t9.5 59q0 57 -37.5 83.5t-119.5 26.5h-112z" />
    <glyph glyph-name="rcaron" unicode="&#x159;" horiz-adv-x="371" 
d="M421 769l23 -30l-143 -106h-36l-114 106l27 30l110 -84zM345 534q29 0 50 -7l-16 -54q-20 5 -42 5q-55 0 -94.5 -45t-73.5 -135l-43 -298h-57l74 523h49l-14 -127q63 138 167 138z" />
    <glyph glyph-name="Sacute" unicode="&#x15a;" horiz-adv-x="536" 
d="M439 888l20 -52l-208 -78l-11 34zM324 696q112 0 187 -77l-38 -36q-61 62 -149 62q-70 0 -116 -35.5t-46 -92.5q0 -46 30.5 -74t107.5 -54q87 -27 131 -69t44 -116q0 -36 -14 -72t-42 -69t-79.5 -53.5t-118.5 -20.5q-127 0 -208 88l39 36q67 -73 170 -73q90 0 141 47.5
t51 114.5q0 51 -32 82.5t-108 57.5q-91 28 -131.5 68t-40.5 105q0 68 57.5 124.5t164.5 56.5z" />
    <glyph glyph-name="sacute" unicode="&#x15b;" horiz-adv-x="461" 
d="M388 782l19 -52l-206 -85l-14 34zM260 534q93 0 161 -59l-31 -35q-60 46 -130 46q-57 0 -90.5 -24t-33.5 -65q0 -34 25 -55.5t89 -40.5q78 -24 112.5 -60t34.5 -93q0 -71 -55 -115t-148 -44q-110 0 -185 71l34 34q68 -56 151 -56q68 0 105.5 29t37.5 77q0 42 -25.5 65.5
t-94.5 45.5q-77 24 -108.5 56.5t-31.5 82.5q0 58 50 99t133 41z" />
    <glyph glyph-name="Scircumflex" unicode="&#x15c;" horiz-adv-x="536" 
d="M459 762l-111 80l-131 -80l-25 30l143 102h36l115 -102zM324 696q112 0 187 -77l-38 -36q-61 62 -149 62q-70 0 -116 -35.5t-46 -92.5q0 -46 30.5 -74t107.5 -54q87 -27 131 -69t44 -116q0 -36 -14 -72t-42 -69t-79.5 -53.5t-118.5 -20.5q-127 0 -208 88l39 36
q67 -73 170 -73q90 0 141 47.5t51 114.5q0 51 -32 82.5t-108 57.5q-91 28 -131.5 68t-40.5 105q0 68 57.5 124.5t164.5 56.5z" />
    <glyph glyph-name="scircumflex" unicode="&#x15d;" horiz-adv-x="461" 
d="M167 643l-25 31l144 105h35l114 -105l-28 -31l-109 85zM260 534q93 0 161 -59l-31 -35q-60 46 -130 46q-57 0 -90.5 -24t-33.5 -65q0 -34 25 -55.5t89 -40.5q78 -24 112.5 -60t34.5 -93q0 -71 -55 -115t-148 -44q-110 0 -185 71l34 34q68 -56 151 -56q68 0 105.5 29
t37.5 77q0 42 -25.5 65.5t-94.5 45.5q-77 24 -108.5 56.5t-31.5 82.5q0 58 50 99t133 41z" />
    <glyph glyph-name="Scedilla" unicode="&#x15e;" horiz-adv-x="536" 
d="M300 389q87 -27 131 -69t44 -116q0 -35 -12.5 -69.5t-38.5 -66.5t-73 -53.5t-108 -24.5l-9 -54q83 -7 83 -72q0 -39 -32 -65t-83 -26q-46 0 -79 22l22 35q23 -15 57 -15q28 0 45 12t18 35t-17 32.5t-65 9.5l19 86q-114 5 -189 87l39 36q67 -73 170 -73q90 0 141 47.5
t51 114.5q0 51 -32 82.5t-108 57.5q-91 28 -131.5 68t-40.5 105q0 68 57.5 124.5t164.5 56.5q112 0 187 -77l-38 -36q-61 62 -149 62q-70 0 -116 -35.5t-46 -92.5q0 -46 30.5 -74t107.5 -54z" />
    <glyph glyph-name="scedilla" unicode="&#x15f;" horiz-adv-x="461" 
d="M250 301q78 -24 112.5 -60t34.5 -93q0 -69 -51 -112t-138 -47l-9 -53q83 -7 83 -72q0 -39 -32 -65t-83 -26q-46 0 -79 22l22 35q23 -15 57 -15q28 0 45 12t18 35t-17 32.5t-65 9.5l19 86q-92 8 -158 70l34 34q68 -56 151 -56q68 0 105.5 29t37.5 77q0 42 -25.5 65.5
t-94.5 45.5q-77 24 -108.5 56.5t-31.5 82.5q0 58 50 99t133 41q93 0 161 -59l-31 -35q-60 46 -130 46q-57 0 -90.5 -24t-33.5 -65q0 -34 25 -55.5t89 -40.5z" />
    <glyph glyph-name="Scaron" unicode="&#x160;" horiz-adv-x="536" 
d="M472 888l23 -31l-142 -101h-35l-116 101l28 30l110 -79zM324 696q112 0 187 -77l-38 -36q-61 62 -149 62q-70 0 -116 -35.5t-46 -92.5q0 -46 30.5 -74t107.5 -54q87 -27 131 -69t44 -116q0 -36 -14 -72t-42 -69t-79.5 -53.5t-118.5 -20.5q-127 0 -208 88l39 36
q67 -73 170 -73q90 0 141 47.5t51 114.5q0 51 -32 82.5t-108 57.5q-91 28 -131.5 68t-40.5 105q0 68 57.5 124.5t164.5 56.5z" />
    <glyph glyph-name="scaron" unicode="&#x161;" horiz-adv-x="461" 
d="M422 769l23 -30l-143 -106h-36l-114 106l27 30l110 -84zM260 534q93 0 161 -59l-31 -35q-60 46 -130 46q-57 0 -90.5 -24t-33.5 -65q0 -34 25 -55.5t89 -40.5q78 -24 112.5 -60t34.5 -93q0 -71 -55 -115t-148 -44q-110 0 -185 71l34 34q68 -56 151 -56q68 0 105.5 29
t37.5 77q0 42 -25.5 65.5t-94.5 45.5q-77 24 -108.5 56.5t-31.5 82.5q0 58 50 99t133 41z" />
    <glyph glyph-name="uni0162" unicode="&#x162;" horiz-adv-x="492" 
d="M74 685h468l-15 -53h-199l-89 -632l-10 -64q83 -7 83 -69q0 -39 -32 -66.5t-83 -27.5q-46 0 -79 22l22 35q23 -15 56 -15q26 0 44.5 12.5t19.5 34.5q1 23 -17 32.5t-65 9.5l21 96h-20l89 632h-202z" />
    <glyph glyph-name="uni0163" unicode="&#x163;" horiz-adv-x="339" 
d="M193 476l-49 -347q-7 -46 7.5 -68t53.5 -22q37 0 84 25l20 -43q-53 -31 -106 -32l-9 -53q83 -7 83 -72q0 -39 -32 -65t-83 -26q-46 0 -79 22l22 35q23 -15 57 -15q28 0 45 12t18 35t-17 32.5t-65 9.5l20 88q-44 10 -64.5 45t-12.5 91l49 348h-88l7 47h89l29 127l46 5
l-19 -132h134l-13 -47h-127z" />
    <glyph glyph-name="Tcaron" unicode="&#x164;" horiz-adv-x="492" 
d="M448 888l23 -31l-142 -101h-35l-116 101l28 30l110 -79zM542 685l-15 -53h-199l-89 -632h-60l89 632h-202l8 53h468z" />
    <glyph glyph-name="tcaron" unicode="&#x165;" horiz-adv-x="339" 
d="M369 739l-60 -164l-35 5l40 165zM218 655l-19 -132h134l-13 -47h-127l-49 -347q-7 -46 7.5 -68t53.5 -22q37 0 84 25l20 -43q-56 -32 -113 -32q-60 0 -90 36.5t-20 102.5l49 348h-88l7 47h89l29 127z" />
    <glyph glyph-name="Tbar" unicode="&#x166;" horiz-adv-x="498" 
d="M328 632l-35 -247h125l-6 -47h-125l-48 -338h-60l48 338h-122l7 47h121l35 247h-202l8 53h468l-15 -53h-199z" />
    <glyph glyph-name="tbar" unicode="&#x167;" horiz-adv-x="339" 
d="M320 476h-127l-18 -126h127l-14 -47h-120l-24 -174q-7 -46 7.5 -68t53.5 -22q37 0 84 25l20 -43q-56 -32 -113 -32q-60 0 -90 36.5t-20 102.5l25 175h-79l6 47h79l18 126h-88l7 47h89l29 127l46 5l-19 -132h134z" />
    <glyph glyph-name="Utilde" unicode="&#x168;" horiz-adv-x="649" 
d="M465 792q-32 0 -66 23t-48 23q-20 -1 -33 -10t-31 -32l-33 22q45 66 98 66q25 0 58.5 -22.5t51.5 -22.5q30 0 63 45l34 -22q-44 -70 -94 -70zM608 685l-66 -473q-15 -102 -80 -162.5t-173 -60.5q-111 0 -160 62t-35 165l66 469h59l-65 -468q-25 -176 137 -176
q166 0 191 180l66 464h60z" />
    <glyph glyph-name="utilde" unicode="&#x169;" horiz-adv-x="577" 
d="M406 666q-30 0 -63.5 23t-49.5 23q-18 0 -31.5 -9.5t-31.5 -32.5l-33 22q45 66 97 66q27 0 60.5 -22.5t50.5 -22.5q30 0 63 45l34 -22q-44 -70 -96 -70zM508 523l-74 -523h-48l14 133q-77 -144 -193 -144q-68 0 -100 42.5t-22 119.5l53 372h57l-52 -370q-17 -116 75 -116
q102 0 188 166l44 320h58z" />
    <glyph glyph-name="Umacron" unicode="&#x16a;" horiz-adv-x="649" 
d="M520 802h-240l7 47h240zM608 685l-66 -473q-15 -102 -80 -162.5t-173 -60.5q-111 0 -160 62t-35 165l66 469h59l-65 -468q-25 -176 137 -176q166 0 191 180l66 464h60z" />
    <glyph glyph-name="umacron" unicode="&#x16b;" horiz-adv-x="577" 
d="M464 676h-240l7 47h240zM508 523l-74 -523h-48l14 133q-77 -144 -193 -144q-68 0 -100 42.5t-22 119.5l53 372h57l-52 -370q-17 -116 75 -116q102 0 188 166l44 320h58z" />
    <glyph glyph-name="Ubreve" unicode="&#x16c;" horiz-adv-x="649" 
d="M394 765q-52 0 -84.5 29t-33.5 73l39 5q13 -60 80 -60q70 0 101 63l39 -12q-12 -43 -51.5 -70.5t-89.5 -27.5zM608 685l-66 -473q-15 -102 -80 -162.5t-173 -60.5q-111 0 -160 62t-35 165l66 469h59l-65 -468q-25 -176 137 -176q166 0 191 180l66 464h60z" />
    <glyph glyph-name="ubreve" unicode="&#x16d;" horiz-adv-x="577" 
d="M339 653q-52 0 -84 31t-32 81l41 6q9 -71 76 -71q74 0 104 73l38 -12q-13 -49 -52.5 -78.5t-90.5 -29.5zM508 523l-74 -523h-48l14 133q-77 -144 -193 -144q-68 0 -100 42.5t-22 119.5l53 372h57l-52 -370q-17 -116 75 -116q102 0 188 166l44 320h58z" />
    <glyph glyph-name="Uring" unicode="&#x16e;" horiz-adv-x="649" 
d="M419 947q40 0 64 -23.5t24 -59.5q0 -45 -31.5 -75t-77.5 -30q-39 0 -63.5 23.5t-24.5 59.5q0 45 31.5 75t77.5 30zM417 911q-30 0 -47 -20t-17 -48q0 -48 47 -48q30 0 47 20.5t17 47.5q0 48 -47 48zM608 685l-66 -473q-15 -102 -80 -162.5t-173 -60.5q-111 0 -160 62
t-35 165l66 469h59l-65 -468q-25 -176 137 -176q166 0 191 180l66 464h60z" />
    <glyph glyph-name="uring" unicode="&#x16f;" horiz-adv-x="577" 
d="M362 821q40 0 64 -23.5t24 -59.5q0 -45 -31.5 -75t-77.5 -30q-39 0 -63.5 23.5t-24.5 59.5q0 45 31.5 75t77.5 30zM360 785q-30 0 -47 -20t-17 -48q0 -48 47 -48q30 0 47 20.5t17 47.5q0 48 -47 48zM508 523l-74 -523h-48l14 133q-77 -144 -193 -144q-68 0 -100 42.5
t-22 119.5l53 372h57l-52 -370q-17 -116 75 -116q102 0 188 166l44 320h58z" />
    <glyph glyph-name="Uhungarumlaut" unicode="&#x170;" horiz-adv-x="649" 
d="M401 937l49 -28l-103 -136l-36 17zM530 937l49 -27l-112 -142l-36 18zM608 685l-66 -473q-15 -102 -80 -162.5t-173 -60.5q-111 0 -160 62t-35 165l66 469h59l-65 -468q-25 -176 137 -176q166 0 191 180l66 464h60z" />
    <glyph glyph-name="uhungarumlaut" unicode="&#x171;" horiz-adv-x="577" 
d="M348 811l49 -28l-103 -136l-36 17zM477 811l49 -27l-112 -142l-36 18zM508 523l-74 -523h-48l14 133q-77 -144 -193 -144q-68 0 -100 42.5t-22 119.5l53 372h57l-52 -370q-17 -116 75 -116q102 0 188 166l44 320h58z" />
    <glyph glyph-name="Uogonek" unicode="&#x172;" horiz-adv-x="649" 
d="M548 685h60l-66 -473q-12 -83 -58 -139.5t-121 -74.5q-64 -29 -90.5 -55.5t-26.5 -60.5q0 -52 64 -52q25 0 57 7l-6 -48q-35 -7 -58 -7q-53 0 -82 25.5t-29 66.5q0 73 94 115q-109 1 -157.5 63t-34.5 164l66 469h59l-65 -468q-25 -176 137 -176q166 0 191 180z" />
    <glyph glyph-name="uogonek" unicode="&#x173;" horiz-adv-x="577" 
d="M435 0q-75 -32 -107.5 -61t-32.5 -63q0 -45 55 -45q27 0 59 7l-10 -49q-30 -6 -57 -6q-49 0 -75 22.5t-26 58.5q0 47 34 83t113 66l12 120q-77 -144 -193 -144q-68 0 -100 42.5t-22 119.5l53 372h57l-52 -370q-17 -116 75 -116q102 0 188 166l44 320h58l-74 -521z" />
    <glyph glyph-name="Wcircumflex" unicode="&#x174;" horiz-adv-x="807" 
d="M592 762l-111 80l-131 -80l-25 30l143 102h36l115 -102zM836 685l-247 -685h-74l-62 618l-236 -618h-73l-54 685h59l41 -628l238 628h67l64 -629l220 629h57z" />
    <glyph glyph-name="wcircumflex" unicode="&#x175;" horiz-adv-x="696" 
d="M283 643l-25 31l144 105h35l114 -105l-28 -31l-109 85zM707 523l-200 -523h-78l-49 469l-183 -469h-77l-57 523h57l45 -478l188 478h68l51 -479l178 479h57z" />
    <glyph glyph-name="Ycircumflex" unicode="&#x176;" horiz-adv-x="520" 
d="M448 762l-111 80l-131 -80l-25 30l143 102h36l115 -102zM567 685l-275 -417l-38 -268h-60l38 267l-159 418h63l131 -363l233 363h67z" />
    <glyph glyph-name="ycircumflex" unicode="&#x177;" horiz-adv-x="465" 
d="M162 643l-25 31l144 105h35l114 -105l-28 -31l-109 85zM487 523l-249 -527q-43 -90 -96 -136t-147 -64l-3 46q77 18 114 51t76 108l-23 -1l-107 523h61l90 -479l223 479h61z" />
    <glyph glyph-name="Ydieresis" unicode="&#x178;" horiz-adv-x="520" 
d="M247 868q18 0 28 -12.5t8 -30.5q-2 -16 -13.5 -26t-27.5 -10q-19 0 -29 12.5t-8 30.5q2 15 14 25.5t28 10.5zM435 868q18 0 28.5 -12.5t7.5 -30.5q-2 -16 -13.5 -26t-27.5 -10q-19 0 -29 12.5t-8 30.5q2 15 14 25.5t28 10.5zM567 685l-275 -417l-38 -268h-60l38 267
l-159 418h63l131 -363l233 363h67z" />
    <glyph glyph-name="Zacute" unicode="&#x179;" horiz-adv-x="513" 
d="M430 888l20 -52l-208 -78l-11 34zM-2 0l7 50l445 583h-326l8 52h393l-6 -49l-444 -583h355l-15 -53h-417z" />
    <glyph glyph-name="zacute" unicode="&#x17a;" horiz-adv-x="419" 
d="M374 782l19 -52l-206 -85l-14 34zM423 523l-6 -45l-347 -428h284l-13 -50h-351l7 45l347 428h-263l7 50h335z" />
    <glyph glyph-name="Zdotaccent" unicode="&#x17b;" horiz-adv-x="513" 
d="M346 879q21 0 31.5 -13t7.5 -32q-2 -17 -14.5 -28t-30.5 -11q-20 0 -31 13t-8 32q2 17 14.5 28t30.5 11zM-2 0l7 50l445 583h-326l8 52h393l-6 -49l-444 -583h355l-15 -53h-417z" />
    <glyph glyph-name="zdotaccent" unicode="&#x17c;" horiz-adv-x="419" 
d="M285 753q21 0 31.5 -13t7.5 -32q-2 -17 -14.5 -28t-30.5 -11q-20 0 -31 13t-8 32q2 17 14.5 28t30.5 11zM423 523l-6 -45l-347 -428h284l-13 -50h-351l7 45l347 428h-263l7 50h335z" />
    <glyph glyph-name="Zcaron" unicode="&#x17d;" horiz-adv-x="513" 
d="M464 888l23 -31l-142 -101h-35l-116 101l28 30l110 -79zM-2 0l7 50l445 583h-326l8 52h393l-6 -49l-444 -583h355l-15 -53h-417z" />
    <glyph glyph-name="zcaron" unicode="&#x17e;" horiz-adv-x="419" 
d="M407 769l23 -30l-143 -106h-36l-114 106l27 30l110 -84zM423 523l-6 -45l-347 -428h284l-13 -50h-351l7 45l347 428h-263l7 50h335z" />
    <glyph glyph-name="longs" unicode="&#x17f;" horiz-adv-x="319" 
d="M321 743q60 0 118 -35l-23 -40q-46 27 -94 27q-93 0 -106 -89l-84 -606h-58l67 476h-91l7 47h91l12 87q8 62 51 97.5t110 35.5z" />
    <glyph glyph-name="uni0180" unicode="&#x180;" horiz-adv-x="579" 
d="M363 534q76 0 117 -51t41 -147q0 -58 -14.5 -115.5t-44 -111t-84.5 -87t-127 -33.5q-76 0 -172 34l84 593h-76l7 47h76l10 73l58 7l-11 -80h169l-14 -47h-162l-22 -159q75 77 165 77zM253 37q56 0 99 30t65.5 77.5t33 97t10.5 98.5q0 146 -111 146q-79 0 -160 -88
l-47 -340q53 -21 110 -21z" />
    <glyph glyph-name="uni0181" unicode="&#x181;" horiz-adv-x="655" 
d="M453 362q141 -18 141 -144q0 -43 -13.5 -79.5t-43.5 -69t-85.5 -51t-130.5 -18.5h-188l90 636h-27q-41 0 -61 -22t-20 -59q0 -28 12 -57l-46 -21q-23 44 -23 81q0 57 38.5 92t107.5 35h27h169q96 0 151.5 -38t55.5 -113q0 -70 -42.5 -115t-111.5 -57zM402 635h-120
l-35 -251h132q78 0 123 41t45 108q0 102 -145 102zM325 50q113 0 160 48t47 121q0 117 -148 117h-143l-40 -286h124z" />
    <glyph glyph-name="uni0182" unicode="&#x182;" horiz-adv-x="566" 
d="M300 418q104 0 161.5 -45t57.5 -131q0 -45 -14 -86t-44 -77t-86 -57.5t-132 -21.5h-169l96 685h345l-16 -51h-277l-30 -216h108zM255 50q57 0 98.5 17.5t62.5 47t30.5 61t9.5 66.5q0 127 -158 127h-113l-44 -319h114z" />
    <glyph glyph-name="uni0183" unicode="&#x183;" horiz-adv-x="572" 
d="M356 534q76 0 117 -51t41 -147q0 -58 -14.5 -115.5t-44 -111t-84.5 -87t-127 -33.5q-76 0 -172 34l101 713h293l-16 -47h-226l-33 -232q75 77 165 77zM246 37q56 0 99 30t65.5 77.5t33 97t10.5 98.5q0 146 -111 146q-81 0 -160 -88l-47 -340q53 -21 110 -21z" />
    <glyph glyph-name="uni0184" unicode="&#x184;" horiz-adv-x="559" 
d="M300 423q105 0 162.5 -46t57.5 -137q0 -45 -14.5 -86t-45.5 -76.5t-87 -56.5t-131 -21h-168l77 549l-47 35q45 42 74 101h51l-36 -262h107zM255 50q57 0 98.5 17.5t63 47t31 60.5t9.5 65q0 134 -159 134h-112l-45 -324h114z" />
    <glyph glyph-name="uni0185" unicode="&#x185;" horiz-adv-x="500" 
d="M266 347q95 0 141 -40.5t46 -108.5q0 -39 -12.5 -74.5t-38.5 -66.5t-71 -49.5t-104 -18.5q-75 0 -156 27l54 381l-48 35q44 39 73 91h51l-25 -176h90zM225 37q88 0 128 47.5t40 114.5q0 101 -131 101h-93l-35 -249q50 -14 91 -14z" />
    <glyph glyph-name="uni0186" unicode="&#x186;" horiz-adv-x="546" 
d="M278 696q100 0 159.5 -69.5t59.5 -200.5q1 -114 -36 -212t-112.5 -161.5t-175.5 -63.5t-180 72l34 37q35 -28 66.5 -42t78.5 -14q85 0 146.5 58.5t89.5 144t28 181.5q0 113 -44 166t-119 53q-83 0 -165 -52l-28 41q87 62 198 62z" />
    <glyph glyph-name="uni0187" unicode="&#x187;" horiz-adv-x="550" 
d="M659 824q56 0 99 -35l-28 -36q-34 23 -70 23q-72 0 -83 -85l-8 -59l-31 -32q-64 45 -136 45t-126.5 -37t-84 -96.5t-44 -123t-14.5 -128.5q0 -109 47.5 -163.5t128.5 -54.5q49 0 84.5 15t75.5 44l28 -43q-85 -69 -192 -69t-170.5 71.5t-63.5 202.5q0 72 18.5 145
t55.5 139t102.5 107.5t149.5 41.5q68 0 118 -30l4 26q9 65 46 98.5t94 33.5z" />
    <glyph glyph-name="uni0188" unicode="&#x188;" horiz-adv-x="466" 
d="M560 743q57 0 100 -35l-28 -36q-31 23 -70 23q-73 0 -84 -85l-18 -130l-26 -30q-55 35 -115 35q-54 0 -94.5 -28t-62.5 -73t-32.5 -92.5t-10.5 -94.5q0 -79 34.5 -118t97.5 -39t128 44l26 -41q-73 -54 -158 -54q-87 0 -137.5 55.5t-50.5 155.5q0 55 14.5 110.5t43.5 107
t81 84t119 32.5q53 0 90 -21l14 98q9 66 46 99t93 33z" />
    <glyph glyph-name="uni0189" unicode="&#x189;" horiz-adv-x="629" 
d="M304 685q58 0 104 -11t87 -37.5t63.5 -79t22.5 -128.5q0 -84 -19.5 -158t-60 -136t-112.5 -98.5t-168 -36.5h-147l46 330h-87l6 46h88l43 309h134zM230 50q79 0 137.5 33.5t91 90t47.5 120.5t15 136q0 64 -17.5 107t-50.5 63t-67 27.5t-79 7.5h-85l-36 -259h178l-7 -46
h-177l-39 -280h89z" />
    <glyph glyph-name="uni018A" unicode="&#x18a;" horiz-adv-x="690" 
d="M364 685q58 0 104 -11t87 -37.5t63.5 -79t22.5 -128.5q0 -84 -19.5 -158t-60 -136t-112.5 -98.5t-168 -36.5h-148l90 636h-27q-41 0 -61 -22t-20 -59q0 -28 12 -57l-46 -21q-23 44 -23 81q0 57 38.5 92t107.5 35h27h133zM290 50q79 0 137.5 33.5t91 90t47.5 120.5t15 136
q0 64 -17.5 107t-50.5 63t-67 27.5t-79 7.5h-85l-81 -585h89z" />
    <glyph glyph-name="uni018B" unicode="&#x18b;" horiz-adv-x="567" 
d="M516 685l-97 -685h-175q-96 0 -153.5 46.5t-57.5 135.5q0 111 76 173.5t201 62.5h109l31 216h-283l8 51h341zM251 50h117l44 319h-107q-98 0 -154 -50t-56 -137q0 -132 156 -132z" />
    <glyph glyph-name="uni018C" unicode="&#x18c;" horiz-adv-x="585" 
d="M545 736l-104 -736h-50l7 106q-68 -117 -173 -117q-76 0 -118.5 55t-42.5 151q0 55 13.5 111t40.5 109t76.5 86t114.5 33q90 0 139 -72l32 227h-231l6 47h290zM409 181l32 228q-44 77 -124 77q-51 0 -90.5 -29t-60.5 -75t-31 -94t-10 -96q0 -76 28.5 -115.5t80.5 -39.5
q54 0 93.5 36t81.5 108z" />
    <glyph glyph-name="uni018D" unicode="&#x18d;" horiz-adv-x="565" 
d="M217 -207q-95 0 -162 59l34 33q54 -44 127 -44q61 0 92 24.5t31 60.5q0 31 -24 53t-88 48q-85 36 -124.5 84t-39.5 124q0 45 13 93t40.5 96t79.5 79t121 31q89 0 139.5 -56t50.5 -150q0 -99 -45.5 -170.5t-152.5 -114.5q47 -26 68 -52.5t21 -62.5q0 -54 -48 -94.5
t-133 -40.5zM267 62q101 44 140.5 110.5t39.5 159.5q0 71 -34.5 112t-97.5 41q-44 0 -79 -18.5t-55.5 -45.5t-34 -62.5t-18.5 -66t-5 -58.5q0 -63 32.5 -100.5t111.5 -71.5z" />
    <glyph glyph-name="uni018E" unicode="&#x18e;" horiz-adv-x="510" 
d="M112 685h346l-96 -685h-353l8 50h293l39 280h-242l7 50h242l36 255h-287z" />
    <glyph glyph-name="uni018F" unicode="&#x18f;" horiz-adv-x="644" 
d="M373 696q108 0 166.5 -63t58.5 -192q0 -42 -8 -98q-25 -177 -107.5 -265.5t-202.5 -88.5q-105 0 -163 65.5t-58 190.5q0 74 14 130l459 -2q4 35 4 71q0 201 -165 201q-99 0 -198 -71l-28 41q105 81 228 81zM281 39q91 0 155.5 70t88.5 215l-401 -2q-6 -45 -6 -81
q0 -202 163 -202z" />
    <glyph glyph-name="uni0190" unicode="&#x190;" horiz-adv-x="519" 
d="M329 696q115 0 197 -85l-37 -34q-68 68 -159 68q-72 0 -115.5 -40t-43.5 -102q0 -53 36 -82t98 -29h61l-14 -51h-53q-90 2 -142.5 -43.5t-52.5 -124.5q0 -64 39.5 -98t108.5 -34q102 0 186 77l34 -38q-98 -91 -224 -91q-93 0 -149.5 49.5t-56.5 133.5q0 83 50.5 136
t128.5 62q-50 12 -80.5 46.5t-30.5 87.5q0 84 62 138t157 54z" />
    <glyph glyph-name="uni0191" unicode="&#x191;" horiz-adv-x="478" 
d="M496 635h-274l-37 -267h237l-7 -50h-237l-45 -318l-10 -73q-9 -66 -47 -99t-94 -33t-99 35l28 37q34 -23 70 -23q70 0 82 86l11 70l96 685h340z" />
    <glyph glyph-name="florin" unicode="&#x192;" horiz-adv-x="319" 
d="M322 695q-93 0 -106 -89l-11 -83h137l-13 -47h-131l-64 -459q-13 -98 -49 -141t-119 -80l-17 45q41 19 63 36t39.5 51.5t25.5 90.5l64 457h-91l7 47h91l12 87q8 62 51 97.5t110 35.5q60 0 118 -35l-23 -40q-46 27 -94 27z" />
    <glyph glyph-name="uni0193" unicode="&#x193;" horiz-adv-x="571" 
d="M680 824q56 0 99 -35l-28 -36q-34 23 -70 23q-71 0 -83 -85l-9 -64l-32 -29q-70 47 -151 47q-69 0 -123 -35.5t-85.5 -93.5t-48 -125t-16.5 -138q0 -107 47.5 -160t135.5 -53q79 0 147 37l35 242h-132l-1 50h199l-44 -322q-98 -58 -210 -58t-175.5 69.5t-63.5 201.5
q0 78 20.5 153.5t60.5 139.5t106 103.5t148 39.5q79 0 130 -34l4 30q9 65 46 98.5t94 33.5z" />
    <glyph glyph-name="uni0194" unicode="&#x194;" horiz-adv-x="543" 
d="M586 685l-308 -626q37 -105 37 -153q0 -51 -29 -81t-78 -30q-40 0 -62.5 21.5t-22.5 57.5t19.5 76t65.5 112l-133 623h62l111 -580l276 580h62zM259 -95q0 39 -22 116q-58 -100 -58 -144q0 -34 31 -34q49 0 49 62z" />
    <glyph glyph-name="uni0195" unicode="&#x195;" horiz-adv-x="883" 
d="M808 523q5 -58 5 -110q0 -65 -6.5 -122.5t-24.5 -114t-46.5 -97t-74.5 -65.5t-106 -25q-79 0 -118 48.5t-28 125.5l29 204q17 118 -73 118q-104 0 -195 -172l-44 -313h-57l104 736l58 7l-50 -348q79 139 194 139q69 0 100.5 -43t20.5 -120l-30 -209q-8 -61 16.5 -92.5
t75.5 -31.5q48 0 84 24t57 61.5t34 90.5t17.5 102t4.5 104t-3 103h56z" />
    <glyph glyph-name="uni0196" unicode="&#x196;" horiz-adv-x="334" 
d="M220 685l-69 -491h-59l69 491h59zM190 -11q-59 0 -88.5 35.5t-20.5 101.5l11 68h59l-11 -74q-11 -81 53 -81q42 0 80 24l21 -41q-47 -33 -104 -33z" />
    <glyph glyph-name="uni0197" unicode="&#x197;" horiz-adv-x="316" 
d="M308 384l-7 -49h-100l-47 -335h-60l47 335h-104l7 49h104l43 301h59l-42 -301h100z" />
    <glyph glyph-name="uni0198" unicode="&#x198;" horiz-adv-x="583" 
d="M451 583l-194 -216l251 -367h-73l-246 367l222 250q40 45 68.5 62t66.5 17q49 0 92 -41l-31 -34q-33 25 -61 25q-23 0 -41.5 -12t-53.5 -51zM230 685l-97 -685h-59l96 685h60z" />
    <glyph glyph-name="uni0199" unicode="&#x199;" horiz-adv-x="523" 
d="M497 422q0 -131 -173 -186l119 -236h-64l-125 254q182 51 182 163q0 70 -72 70q-54 0 -104.5 -47.5t-90.5 -134.5l-43 -305h-57l73 522l13 89q8 62 50.5 97t109.5 35q63 0 119 -28l-23 -43q-46 23 -94 23q-93 0 -105 -90l-12 -83l-18 -127q79 139 195 139q54 0 87 -30.5
t33 -81.5z" />
    <glyph glyph-name="uni019A" unicode="&#x19a;" horiz-adv-x="299" 
d="M190 348l-37 -260q-6 -49 33 -49q20 0 38 8l13 -44q-31 -14 -60 -14q-95 0 -80 108l35 251h-102l7 49h102l48 339l58 7l-49 -346h105l-8 -49h-103z" />
    <glyph glyph-name="uni019B" unicode="&#x19b;" horiz-adv-x="469" 
d="M326 475q13 -199 40 -292t76 -172l-55 -19q-32 55 -50.5 98t-36.5 137t-26 229l-225 -465l-54 14l253 510l23 -4q-5 71 -20 110l-81 -70l-39 19l97 88q-29 30 -88 45l11 41q76 -17 112 -54l77 72l32 -31l-83 -76l-1 -1q30 -57 38 -179z" />
    <glyph glyph-name="uni019C" unicode="&#x19c;" horiz-adv-x="924" 
d="M814 685h59l-96 -685h-52l8 90q-81 -101 -182 -101q-113 0 -134 110q-89 -110 -193 -110q-76 0 -111.5 53t-22.5 144l70 499h59l-71 -505q-18 -140 85 -140q93 0 181 116q0 15 3 30l70 499h59l-71 -505q-18 -140 85 -140q94 0 179 115z" />
    <glyph glyph-name="uni019D" unicode="&#x19d;" horiz-adv-x="670" 
d="M562 685h57l-97 -685h-76l-237 631q-1 -78 -25 -250l-54 -381l-10 -73q-9 -66 -46.5 -99t-91.5 -33q-56 0 -99 35l28 36q34 -23 70 -23q70 0 82 87l11 70l96 685h77l237 -630q3 89 20 215z" />
    <glyph glyph-name="uni019E" unicode="&#x19e;" horiz-adv-x="581" 
d="M376 534q67 0 98.5 -43.5t21.5 -121.5l-81 -569l-58 -7l81 574q17 118 -74 118q-103 0 -194 -172l-44 -313h-57l74 523h48l-13 -130q84 141 198 141z" />
    <glyph glyph-name="uni019F" unicode="&#x19f;" horiz-adv-x="687" 
d="M402 696q111 0 174 -70.5t63 -202.5q0 -39 -6 -86q-24 -165 -111 -256.5t-214 -91.5q-110 0 -173.5 71t-63.5 201q0 39 6 82q23 166 111.5 259.5t213.5 93.5zM401 645q-95 0 -163.5 -68.5t-94.5 -203.5h433q3 31 3 58q0 107 -47 160.5t-131 53.5zM309 40q101 0 169.5 72
t91.5 214h-434q-5 -42 -5 -70q0 -107 47.5 -161.5t130.5 -54.5z" />
    <glyph glyph-name="Ohorn" unicode="&#x1a0;" horiz-adv-x="688" 
d="M691 711q0 -95 -94 -113q43 -68 43 -174q0 -73 -17.5 -144.5t-54 -139t-103.5 -109.5t-156 -42q-110 0 -174 71t-64 202q0 55 10.5 112t35.5 115.5t62 104t95.5 74t129.5 28.5q107 0 167 -65q39 6 55 26t16 55q0 24 -7 47l46 9q10 -26 10 -57zM310 40q60 0 108.5 26.5
t77.5 66.5t48 93.5t26.5 102.5t7.5 98q0 110 -46 164t-131 54q-59 0 -106.5 -26t-77 -66t-49 -92.5t-27.5 -102.5t-8 -98q0 -110 47 -165t130 -55z" />
    <glyph glyph-name="ohorn" unicode="&#x1a1;" horiz-adv-x="580" 
d="M592 546q0 -100 -102 -115q20 -46 20 -107q0 -53 -13.5 -107.5t-42 -107.5t-82 -86.5t-123.5 -33.5q-91 0 -140.5 56t-49.5 156q0 54 14 108.5t42.5 106.5t82 85t123.5 33q101 0 150 -69q72 11 72 82q0 27 -7 50l46 9q10 -26 10 -60zM250 38q54 0 95 29t62.5 75t31.5 93
t10 93q0 158 -130 158q-55 0 -96 -29t-62.5 -75.5t-31.5 -93.5t-10 -92q0 -78 33.5 -118t97.5 -40z" />
    <glyph glyph-name="uni01A2" unicode="&#x1a2;" horiz-adv-x="899" 
d="M706 697q72 0 102.5 -38.5t21.5 -107.5l-106 -748h-59l105 749q8 50 -8 73.5t-60 23.5q-55 0 -118 -33q56 -70 56 -192q0 -73 -17.5 -144.5t-54 -139t-103.5 -109.5t-156 -42q-110 0 -174 71t-64 202q0 55 10.5 112t35.5 115.5t62 104t95.5 74t129.5 28.5q90 0 149 -48
q79 49 153 49zM310 40q60 0 108.5 26.5t77.5 66.5t48 93.5t26.5 102.5t7.5 98q0 110 -46 164t-131 54q-59 0 -106.5 -26t-77 -66t-49 -92.5t-27.5 -102.5t-8 -98q0 -110 47 -165t130 -55z" />
    <glyph glyph-name="uni01A3" unicode="&#x1a3;" horiz-adv-x="758" 
d="M555 534q69 0 99 -39.5t21 -107.5l-82 -587l-59 -7l84 599q13 94 -69 94q-42 0 -82 -16q43 -56 43 -146q0 -53 -13.5 -107.5t-42 -107.5t-82 -86.5t-123.5 -33.5q-91 0 -140.5 56t-49.5 156q0 54 14 108.5t42.5 106.5t82 85t123.5 33q65 0 110 -31q64 31 124 31zM250 38
q54 0 95 29t62.5 75t31.5 93t10 93q0 158 -130 158q-55 0 -96 -29t-62.5 -75.5t-31.5 -93.5t-10 -92q0 -78 33.5 -118t97.5 -40z" />
    <glyph glyph-name="uni01A4" unicode="&#x1a4;" horiz-adv-x="627" 
d="M388 685q228 0 228 -173q0 -105 -67.5 -175t-217.5 -70h-101l-37 -267h-60l90 636h-27q-41 0 -61 -22t-20 -59q0 -28 12 -57l-46 -21q-23 44 -23 81q0 57 38.5 92t107.5 35h27h157zM334 316q120 0 170 55t50 141q0 66 -43 95t-127 29h-102l-45 -320h97z" />
    <glyph glyph-name="uni01A5" unicode="&#x1a5;" horiz-adv-x="577" 
d="M356 534q76 0 117 -51t41 -147q0 -58 -14.5 -115.5t-44 -111t-84 -87t-126.5 -33.5q-59 0 -117 21l-29 -209l-59 -8l102 729l13 89q8 62 50.5 97t109.5 35q63 0 119 -28l-23 -43q-46 23 -94 23q-93 0 -105 -90l-12 -83l-8 -66q72 78 164 78zM246 37q56 0 99 30t65.5 77.5
t33 97t10.5 98.5q0 146 -111 146q-47 0 -84 -23t-75 -66l-48 -339q53 -21 110 -21z" />
    <glyph glyph-name="uni01A6" unicode="&#x1a6;" horiz-adv-x="587" 
d="M536 400q0 -73 -43 -130.5t-138 -79.5l144 -316h-65l-137 307h-139l-25 -181h-59l96 685h59l-17 -126h104q220 0 220 -159zM165 230h119q100 0 145 50.5t45 119.5q0 57 -37.5 83t-120.5 26h-111z" />
    <glyph glyph-name="uni01A7" unicode="&#x1a7;" horiz-adv-x="528" 
d="M336 696q80 0 126.5 -40t46.5 -107q0 -82 -54 -127.5t-166 -80.5q-102 -32 -145 -71.5t-43 -112.5q0 -56 37 -86.5t98 -30.5q104 0 196 74l31 -41q-102 -84 -230 -84q-88 0 -141 46t-53 122q0 90 56.5 144t169.5 88q96 29 139.5 62.5t43.5 97.5q0 47 -30 71.5t-85 24.5
q-91 0 -179 -63l-31 40q100 74 213 74z" />
    <glyph glyph-name="uni01A8" unicode="&#x1a8;" horiz-adv-x="461" 
d="M264 534q68 0 110 -34t42 -88q0 -53 -35 -93t-134 -66q-96 -26 -126.5 -56t-30.5 -72q0 -40 30.5 -63t80.5 -23q91 0 168 56l30 -39q-88 -67 -201 -67q-73 0 -121 36.5t-48 99.5q0 58 42.5 100.5t149.5 71.5q82 22 108.5 50t26.5 65q0 34 -26.5 54t-69.5 20
q-70 0 -143 -50l-27 39q83 59 174 59z" />
    <glyph glyph-name="uni01A9" unicode="&#x1a9;" horiz-adv-x="491" 
d="M505 685l-7 -51h-328l173 -281l-4 -35l-249 -267h327l-8 -51h-401l6 44l272 295l-187 302l5 44h401z" />
    <glyph glyph-name="uni01AA" unicode="&#x1aa;" horiz-adv-x="290" 
d="M264 -134l23 -39q-50 -32 -106 -32q-58 0 -88 35t-21 101l11 69l72 513q-31 -13 -61 -13q-43 0 -71 27t-28 73q0 62 39 102.5t94 40.5q53 0 80 -34t18 -95l-86 -614l-11 -76q-11 -81 55 -81q41 0 80 23zM104 547q28 0 57 12l9 65q10 72 -43 72q-34 0 -54 -27.5t-20 -68.5
q0 -53 51 -53z" />
    <glyph glyph-name="uni01AB" unicode="&#x1ab;" horiz-adv-x="339" 
d="M193 476l-49 -347q-7 -46 7.5 -68t53.5 -22t87 20l17 -38l-13 -94q-10 -66 -47.5 -99t-94.5 -33q-55 0 -98 35l28 36q34 -23 72 -23q73 0 85 85l10 71q-30 -10 -58 -10q-58 0 -87.5 36.5t-19.5 102.5l49 348h-88l7 47h89l29 127l46 5l-19 -132h134l-13 -47h-127z" />
    <glyph glyph-name="uni01AC" unicode="&#x1ac;" horiz-adv-x="521" 
d="M571 685l-15 -53h-200l-88 -632h-60l89 632h-102q-40 0 -60.5 -21t-20.5 -55q0 -26 13 -58l-46 -21q-23 42 -23 82q0 56 39.5 91t108.5 35h365z" />
    <glyph glyph-name="uni01AD" unicode="&#x1ad;" horiz-adv-x="339" 
d="M211 604l-11 -76l-1 -5h134l-13 -47h-127l-49 -347q-7 -46 7.5 -68t53.5 -22q37 0 84 25l20 -43q-56 -32 -113 -32q-60 0 -90 36t-20 103l49 348h-88l7 47h88l1 5l10 77q9 69 48 103.5t99 34.5q57 0 104 -34l-27 -37q-36 23 -75 23q-78 0 -91 -91z" />
    <glyph glyph-name="uni01AE" unicode="&#x1ae;" horiz-adv-x="492" 
d="M238 0l-10 -74q-12 -82 53 -82q38 0 79 24l22 -41q-50 -32 -105 -32q-58 0 -88 35t-20 101l10 69l89 632h-202l8 53h468l-15 -53h-199l-89 -632h-1z" />
    <glyph glyph-name="Uhorn" unicode="&#x1af;" horiz-adv-x="649" 
d="M709 711q0 -105 -114 -116l-53 -383q-15 -102 -80 -162.5t-173 -60.5q-111 0 -160 62t-35 165l66 469h59l-65 -468q-25 -176 137 -176q166 0 191 180l66 464h60l-7 -52q59 13 59 79q0 24 -7 47l46 9q10 -26 10 -57z" />
    <glyph glyph-name="uhorn" unicode="&#x1b0;" horiz-adv-x="596" 
d="M609 546q0 -105 -114 -117l-61 -429h-48l14 133q-77 -144 -193 -144q-68 0 -100 42.5t-22 119.5l53 372h57l-52 -370q-17 -116 75 -116q102 0 188 166l44 320h58l-8 -56q60 14 60 80q0 27 -7 50l46 9q10 -26 10 -60z" />
    <glyph glyph-name="uni01B1" unicode="&#x1b1;" horiz-adv-x="687" 
d="M310 -11q-112 0 -176 70.5t-64 192.5t48.5 220.5t140.5 162.5l-118 -1l8 51h183l-6 -51q-97 -63 -145.5 -163.5t-48.5 -221.5q0 -101 47 -155t132 -54q125 0 194.5 105t69.5 255q0 151 -103 235l6 50h183l-7 -51l-116 -1q99 -84 99 -232q0 -174 -89.5 -293t-237.5 -119z
" />
    <glyph glyph-name="uni01B2" unicode="&#x1b2;" horiz-adv-x="637" 
d="M510 696q46 0 68.5 -28.5t15.5 -82.5l-41 -293q-21 -144 -99 -223.5t-188 -79.5q-92 0 -140 57t-35 149l69 490h59l-68 -490q-10 -75 20.5 -114.5t96.5 -39.5q88 0 148 66.5t78 193.5l41 289q8 56 -34 56q-23 0 -44 -9l-14 43q29 16 67 16z" />
    <glyph glyph-name="uni01B3" unicode="&#x1b3;" horiz-adv-x="552" 
d="M441 610q29 48 57 67t69 19q55 0 95 -42l-28 -34q-33 28 -65 28q-25 0 -42 -13t-37 -46l-198 -321l-39 -268h-59l38 267l-159 418h64l131 -363z" />
    <glyph glyph-name="uni01B4" unicode="&#x1b4;" horiz-adv-x="467" 
d="M-5 -204l-3 45q77 19 115.5 53.5t74.5 106.5l-23 -1l-107 523h61l90 -479l184 435q21 51 46 71.5t65 20.5q27 0 57 -15l-19 -41q-15 7 -35 7q-22 0 -35 -12t-26 -42l-204 -468q-39 -93 -92.5 -139.5t-148.5 -64.5z" />
    <glyph glyph-name="uni01B5" unicode="&#x1b5;" horiz-adv-x="513" 
d="M525 685l-6 -49l-202 -266h100l-8 -50h-131l-204 -267h356l-15 -53h-417l7 50l206 270h-104l8 50h135l201 263h-327l8 52h393z" />
    <glyph glyph-name="uni01B6" unicode="&#x1b6;" horiz-adv-x="419" 
d="M423 523l-6 -45l-153 -187h90l-8 -48h-121l-158 -193h287l-13 -50h-351l7 45l161 198h-87l8 48h119l148 182h-265l7 50h335z" />
    <glyph glyph-name="uni01B7" unicode="&#x1b7;" horiz-adv-x="493" 
d="M480 685l-6 -49l-259 -250h21q100 0 151 -43t51 -121q0 -104 -71 -168.5t-182 -64.5q-126 0 -194 88l38 32q32 -36 67 -52.5t88 -16.5q88 0 140 50t52 132q0 62 -38.5 89.5t-113.5 27.5h-85l6 47l253 249h-306l7 50h381z" />
    <glyph glyph-name="uni01B8" unicode="&#x1b8;" horiz-adv-x="494" 
d="M513 685l-7 -50h-311l187 -249l-6 -47l-2 1l1 -1h-81q-93 0 -145 -46.5t-52 -126.5q0 -60 35.5 -93t101.5 -33q58 0 100 16.5t84 53.5l33 -36q-91 -85 -220 -85q-89 0 -142 48t-53 128q0 101 69.5 161t184.5 60h30l-194 250l6 49h381z" />
    <glyph glyph-name="uni01B9" unicode="&#x1b9;" horiz-adv-x="461" 
d="M462 523l-7 -50h-301l174 -273l-5 -46l-2 1l1 -1h-61q-98 0 -151.5 -48t-53.5 -133q0 -61 34 -95t99 -34q98 0 175 70l33 -35q-90 -84 -210 -84q-89 0 -141 49t-52 130q0 104 72 165t191 61h14l-182 278l5 45h368z" />
    <glyph glyph-name="uni01BA" unicode="&#x1ba;" horiz-adv-x="455" 
d="M83 -206q-100 47 -100 114q0 53 46.5 81.5t141.5 41.5q93 14 134.5 38.5t41.5 82.5q0 72 -88 72h-151l6 46l233 203h-286l6 50h363l-5 -45l-242 -208h84q66 0 103.5 -30.5t37.5 -86.5q0 -76 -54.5 -114.5t-161.5 -54.5q-83 -12 -116.5 -29.5t-33.5 -47.5
q0 -22 15.5 -38.5t49.5 -35.5z" />
    <glyph glyph-name="uni01BB" unicode="&#x1bb;" horiz-adv-x="476" 
d="M444 519q0 -50 -20.5 -96.5t-76.5 -111.5h89l-9 -50h-125q-68 -71 -220 -211l312 1l-16 -51h-373l7 50q150 140 218 211h-145l9 50h183q64 70 85.5 114t21.5 92q0 53 -30 81.5t-82 28.5q-84 0 -157 -78l-39 35q89 92 200 92q79 0 123.5 -43t44.5 -114z" />
    <glyph glyph-name="uni01BC" unicode="&#x1bc;" horiz-adv-x="493" 
d="M480 685l-15 -48h-278l-35 -238q59 32 123 32q77 0 121 -46t44 -128q0 -43 -13.5 -87.5t-41 -86t-78.5 -68t-117 -26.5q-117 0 -182 84l39 32q52 -67 144 -67q51 0 90 22t59 56.5t30 70.5t10 71q0 63 -31.5 94.5t-87.5 31.5q-58 0 -122 -32h-48l47 333h342z" />
    <glyph glyph-name="uni01BD" unicode="&#x1bd;" horiz-adv-x="432" 
d="M399 523l-18 -50h-218l-24 -160q46 23 97 23q64 0 100.5 -37t36.5 -102q0 -90 -59 -149t-150 -59t-155 67l36 32q28 -26 54 -37t67 -11q63 0 104.5 43.5t41.5 112.5q0 45 -24 68t-66 23q-50 0 -103 -25h-43l37 261h286z" />
    <glyph glyph-name="uni01BE" unicode="&#x1be;" horiz-adv-x="498" 
d="M274 421q154 -37 154 -181q0 -105 -68 -176t-171 -71q-107 0 -184 82l35 31q64 -64 148 -64q81 0 130.5 56.5t49.5 141.5q0 64 -31.5 95t-88.5 46l-67 15l23 162h-71l6 46h71l19 132l57 7l-19 -139h117l-6 -46h-117l-19 -129z" />
    <glyph glyph-name="uni01BF" unicode="&#x1bf;" horiz-adv-x="575" 
d="M373 534q70 0 111 -40t41 -112q0 -51 -18 -97t-46 -81t-73 -69t-88 -58.5t-102 -53.5l-73 -34l-26 -186l-59 -8l103 728h49l-6 -76q87 87 187 87zM190 70q133 67 203.5 138.5t70.5 173.5q0 103 -101 103q-93 0 -182 -92l-49 -354z" />
    <glyph glyph-name="uni01C0" unicode="&#x1c0;" horiz-adv-x="275" 
d="M232 743l-104 -743h-54l104 736z" />
    <glyph glyph-name="uni01C1" unicode="&#x1c1;" horiz-adv-x="431" 
d="M388 743l-105 -743h-54l105 736zM232 743l-104 -743h-54l104 736z" />
    <glyph glyph-name="uni01C2" unicode="&#x1c2;" horiz-adv-x="317" 
d="M313 419h-106l-15 -107h105l-5 -42h-106l-38 -270h-54l38 270h-104l6 42h104l15 107h-103l5 42h104l39 275l54 7l-39 -282h106z" />
    <glyph glyph-name="uni01C3" unicode="&#x1c3;" horiz-adv-x="316" 
d="M252 743l-76 -542h-54l76 535zM130 84q20 0 32 -12.5t12 -31.5q0 -21 -15 -36t-37 -15q-19 0 -31 12.5t-12 30.5q0 22 14.5 37t36.5 15z" />
    <glyph glyph-name="uni01C4" unicode="&#x1c4;" horiz-adv-x="1133" 
d="M1084 888l23 -31l-142 -101h-35l-116 101l28 30l110 -79zM304 685q58 0 104 -11t87 -37.5t63.5 -79t22.5 -128.5q0 -84 -19.5 -158t-60 -136t-112.5 -98.5t-168 -36.5h-147l96 685h134zM618 0l7 50l445 583h-326l8 52h393l-6 -49l-444 -583h355l-15 -53h-417zM307 635
h-85l-81 -585h89q79 0 137.5 33.5t91 90t47.5 120.5t15 136q0 64 -17.5 107t-50.5 63t-67 27.5t-79 7.5z" />
    <glyph glyph-name="uni01C5" unicode="&#x1c5;" horiz-adv-x="1049" 
d="M1037 769l23 -30l-143 -106h-36l-114 106l27 30l110 -84zM304 685q58 0 104 -11t87 -37.5t63.5 -79t22.5 -128.5q0 -84 -19.5 -158t-60 -136t-112.5 -98.5t-168 -36.5h-147l96 685h134zM307 635h-85l-81 -585h89q79 0 137.5 33.5t91 90t47.5 120.5t15 136q0 64 -17.5 107
t-50.5 63t-67 27.5t-79 7.5zM1053 523l-6 -45l-347 -428h284l-13 -50h-351l7 45l347 428h-263l7 50h335z" />
    <glyph glyph-name="uni01C6" unicode="&#x1c6;" horiz-adv-x="1002" 
d="M989 769l23 -30l-143 -106h-36l-114 106l27 30l110 -84zM487 743l57 -7l-104 -736h-50l7 106q-68 -117 -173 -117q-76 0 -118.5 55t-42.5 151q0 55 13.5 111t40.5 109t76.5 86t114.5 33q90 0 139 -72zM1005 523l-6 -45l-347 -428h284l-13 -50h-351l7 45l347 428h-263
l7 50h335zM316 486q-51 0 -90.5 -29t-60.5 -75t-31 -94t-10 -96q0 -76 28.5 -115.5t80.5 -39.5q54 0 93.5 36t81.5 108l32 228q-44 77 -124 77z" />
    <glyph glyph-name="uni01C7" unicode="&#x1c7;" horiz-adv-x="760" 
d="M229 685l-88 -631h285l-16 -54h-336l96 685h59zM715 685l-83 -595q-13 -89 -53 -132.5t-130 -76.5l-13 45q71 30 99 65t38 106l83 588h59z" />
    <glyph glyph-name="uni01C8" unicode="&#x1c8;" horiz-adv-x="739" 
d="M671 753q21 0 31.5 -13t7.5 -32q-2 -17 -14.5 -28t-30.5 -11q-20 0 -31 13t-8 32q2 17 14.5 28t30.5 11zM229 685l-88 -631h285l-16 -54h-336l96 685h59zM671 523l-72 -506q-13 -98 -49 -141t-119 -80l-17 44q61 28 89 63t39 116l71 504h58z" />
    <glyph glyph-name="uni01C9" unicode="&#x1c9;" horiz-adv-x="559" 
d="M491 753q21 0 31.5 -13t7.5 -32q-2 -17 -14.5 -28t-30.5 -11q-20 0 -31 13t-8 32q2 17 14.5 28t30.5 11zM226 743l-92 -655q-6 -49 33 -49q19 0 38 8l13 -44q-31 -14 -61 -14q-45 0 -66 27t-13 81l90 639zM491 523l-72 -506q-13 -98 -49 -141t-119 -80l-17 44
q61 28 89 63t39 116l71 504h58z" />
    <glyph glyph-name="uni01CA" unicode="&#x1ca;" horiz-adv-x="959" 
d="M619 685l-97 -685h-76l-237 631q-1 -78 -25 -250l-54 -381h-56l96 685h77l237 -630q3 89 20 215l58 415h57zM913 685l-83 -595q-13 -89 -53 -132.5t-130 -76.5l-13 45q71 30 99 65t38 106l83 588h59z" />
    <glyph glyph-name="uni01CB" unicode="&#x1cb;" horiz-adv-x="937" 
d="M869 753q21 0 31.5 -13t7.5 -32q-2 -17 -14.5 -28t-30.5 -11q-20 0 -31 13t-8 32q2 17 14.5 28t30.5 11zM619 685l-97 -685h-76l-237 631q-1 -78 -25 -250l-54 -381h-56l96 685h77l237 -630q3 89 20 215l58 415h57zM869 523l-72 -506q-13 -98 -49 -141t-119 -80l-17 44
q61 28 89 63t39 116l71 504h58z" />
    <glyph glyph-name="uni01CC" unicode="&#x1cc;" horiz-adv-x="848" 
d="M780 753q21 0 31.5 -13t7.5 -32q-2 -17 -14.5 -28t-30.5 -11q-20 0 -31 13t-8 32q2 17 14.5 28t30.5 11zM376 534q67 0 99 -43.5t21 -121.5l-52 -369h-58l52 367q17 118 -74 118q-103 0 -194 -172l-44 -313h-57l74 523h48l-13 -130q84 141 198 141zM780 523l-72 -506
q-13 -98 -49 -141t-119 -80l-17 44q61 28 89 63t39 116l71 504h58z" />
    <glyph glyph-name="uni01CD" unicode="&#x1cd;" horiz-adv-x="562" 
d="M364 756h-35l-116 101l28 30l110 -79l132 80l23 -31zM447 0l-33 187h-287l-87 -187h-61l324 685h75l131 -685h-62zM150 238h255l-71 398z" />
    <glyph glyph-name="uni01CE" unicode="&#x1ce;" horiz-adv-x="559" 
d="M489 769l23 -30l-143 -106h-36l-114 106l27 30l110 -84zM327 534q86 0 169 -43l-56 -377q-3 -18 -3 -31q0 -39 33 -53l-16 -41q-36 7 -53.5 28.5t-16.5 66.5q-67 -95 -162 -95q-78 0 -121 54t-43 149q0 57 15 114t45 109.5t84.5 85.5t124.5 33zM328 487
q-54 0 -96.5 -28.5t-66 -74t-35 -94.5t-11.5 -98q0 -76 29.5 -115.5t84.5 -39.5q85 0 155 111l47 315q-48 24 -107 24z" />
    <glyph glyph-name="uni01CF" unicode="&#x1cf;" horiz-adv-x="280" 
d="M342 888l23 -31l-142 -101h-35l-116 101l28 30l110 -79zM229 685l-96 -685h-59l96 685h59z" />
    <glyph glyph-name="uni01D0" unicode="&#x1d0;" horiz-adv-x="269" 
d="M323 769l23 -30l-143 -106h-36l-114 106l27 30l110 -84zM200 523l-74 -523h-57l74 523h57z" />
    <glyph glyph-name="uni01D1" unicode="&#x1d1;" horiz-adv-x="688" 
d="M548 888l23 -31l-142 -101h-35l-116 101l28 30l110 -79zM404 696q110 0 173 -70.5t63 -201.5q0 -73 -17.5 -144.5t-54 -139t-103.5 -109.5t-156 -42q-110 0 -174 71t-64 202q0 55 10.5 112t35.5 115.5t62 104t95.5 74t129.5 28.5zM401 645q-59 0 -106.5 -26t-77 -66
t-49 -92.5t-27.5 -102.5t-8 -98q0 -110 47 -165t130 -55q60 0 108.5 26.5t77.5 66.5t48 93.5t26.5 102.5t7.5 98q0 110 -46 164t-131 54z" />
    <glyph glyph-name="uni01D2" unicode="&#x1d2;" horiz-adv-x="569" 
d="M473 769l23 -30l-143 -106h-36l-114 106l27 30l110 -84zM321 534q90 0 139.5 -55t49.5 -155q0 -53 -13.5 -107.5t-42 -107.5t-82 -86.5t-123.5 -33.5q-91 0 -140.5 56t-49.5 156q0 54 14 108.5t42.5 106.5t82 85t123.5 33zM319 486q-55 0 -96 -29t-62.5 -75.5
t-31.5 -93.5t-10 -92q0 -78 33.5 -118t97.5 -40q54 0 95 29t62.5 75t31.5 93t10 93q0 158 -130 158z" />
    <glyph glyph-name="uni01D3" unicode="&#x1d3;" horiz-adv-x="649" 
d="M527 888l23 -31l-142 -101h-35l-116 101l28 30l110 -79zM608 685l-66 -473q-15 -102 -80 -162.5t-173 -60.5q-111 0 -160 62t-35 165l66 469h59l-65 -468q-25 -176 137 -176q166 0 191 180l66 464h60z" />
    <glyph glyph-name="uni01D4" unicode="&#x1d4;" horiz-adv-x="577" 
d="M475 769l23 -30l-143 -106h-36l-114 106l27 30l110 -84zM508 523l-74 -523h-48l14 133q-77 -144 -193 -144q-68 0 -100 42.5t-22 119.5l53 372h57l-52 -370q-17 -116 75 -116q102 0 188 166l44 320h58z" />
    <glyph glyph-name="uni01D5" unicode="&#x1d5;" horiz-adv-x="649" 
d="M525 878h-240l7 47h240zM303 823q18 0 28 -12.5t8 -30.5q-2 -16 -13.5 -26t-27.5 -10q-19 0 -29 12.5t-8 30.5q2 15 14 25.5t28 10.5zM491 823q18 0 28.5 -12.5t7.5 -30.5q-2 -16 -13.5 -26t-27.5 -10q-19 0 -29 12.5t-8 30.5q2 15 14 25.5t28 10.5zM608 685l-66 -473
q-15 -102 -80 -162.5t-173 -60.5q-111 0 -160 62t-35 165l66 469h59l-65 -468q-25 -176 137 -176q166 0 191 180l66 464h60z" />
    <glyph glyph-name="uni01D6" unicode="&#x1d6;" horiz-adv-x="577" 
d="M471 773h-240l7 47h240zM250 712q18 0 28 -12.5t8 -30.5q-2 -16 -13.5 -26t-27.5 -10q-19 0 -29 12.5t-8 30.5q2 15 14 25.5t28 10.5zM438 712q18 0 28.5 -12.5t7.5 -30.5q-2 -16 -13.5 -26t-27.5 -10q-19 0 -29 12.5t-8 30.5q2 15 14 25.5t28 10.5zM508 523l-74 -523
h-48l14 133q-77 -144 -193 -144q-68 0 -100 42.5t-22 119.5l53 372h57l-52 -370q-17 -116 75 -116q102 0 188 166l44 320h58z" />
    <glyph glyph-name="uni01D7" unicode="&#x1d7;" horiz-adv-x="649" 
d="M499 971l34 -36l-135 -120l-25 24zM301 823q18 0 28 -12.5t8 -30.5q-2 -16 -14 -26t-28 -10q-18 0 -28.5 12.5t-7.5 30.5q2 15 14 25.5t28 10.5zM491 823q18 0 28.5 -12.5t7.5 -30.5q-2 -16 -13.5 -26t-27.5 -10q-19 0 -29 12.5t-8 30.5q2 15 14 25.5t28 10.5zM608 685
l-66 -473q-15 -102 -80 -162.5t-173 -60.5q-111 0 -160 62t-35 165l66 469h59l-65 -468q-25 -176 137 -176q166 0 191 180l66 464h60z" />
    <glyph glyph-name="uni01D8" unicode="&#x1d8;" horiz-adv-x="577" 
d="M447 860l34 -36l-135 -120l-25 24zM252 712q18 0 28.5 -12.5t7.5 -30.5q-2 -16 -13.5 -26t-27.5 -10q-19 0 -29 12.5t-8 30.5q2 15 14 25.5t28 10.5zM443 712q18 0 28 -12.5t8 -30.5q-2 -16 -13.5 -26t-27.5 -10q-19 0 -29 12.5t-8 30.5q2 15 14 25.5t28 10.5zM508 523
l-74 -523h-48l14 133q-77 -144 -193 -144q-68 0 -100 42.5t-22 119.5l53 372h57l-52 -370q-17 -116 75 -116q102 0 188 166l44 320h58z" />
    <glyph glyph-name="uni01D9" unicode="&#x1d9;" horiz-adv-x="649" 
d="M534 962l23 -31l-142 -101h-35l-116 101l28 30l110 -79zM302 823q18 0 28.5 -12.5t8.5 -30.5q-2 -16 -14 -26t-28 -10q-18 0 -28.5 12.5t-8.5 30.5q2 15 14 25.5t28 10.5zM493 823q18 0 28 -12.5t8 -30.5q-2 -16 -13.5 -26t-27.5 -10q-19 0 -29 12.5t-8 30.5
q2 15 14 25.5t28 10.5zM608 685l-66 -473q-15 -102 -80 -162.5t-173 -60.5q-111 0 -160 62t-35 165l66 469h59l-65 -468q-25 -176 137 -176q166 0 191 180l66 464h60z" />
    <glyph glyph-name="uni01DA" unicode="&#x1da;" horiz-adv-x="577" 
d="M485 851l23 -31l-142 -101h-35l-116 101l28 30l110 -79zM252 712q18 0 28 -12.5t8 -30.5q-2 -16 -13.5 -26t-27.5 -10q-19 0 -29 12.5t-8 30.5q2 15 14 25.5t28 10.5zM443 712q18 0 28 -12.5t8 -30.5q-2 -16 -14 -26t-28 -10q-18 0 -28.5 12.5t-7.5 30.5q2 15 14 25.5
t28 10.5zM508 523l-74 -523h-48l14 133q-77 -144 -193 -144q-68 0 -100 42.5t-22 119.5l53 372h57l-52 -370q-17 -116 75 -116q102 0 188 166l44 320h58z" />
    <glyph glyph-name="uni01DB" unicode="&#x1db;" horiz-adv-x="649" 
d="M338 970l90 -132l-27 -23l-105 120zM303 823q18 0 28 -12.5t8 -30.5q-2 -16 -14 -26t-28 -10q-18 0 -28.5 12.5t-7.5 30.5q2 15 14 25.5t28 10.5zM493 823q18 0 28.5 -12.5t7.5 -30.5q-2 -16 -13.5 -26t-27.5 -10q-19 0 -29 12.5t-8 30.5q2 15 14 25.5t28 10.5zM608 685
l-66 -473q-15 -102 -80 -162.5t-173 -60.5q-111 0 -160 62t-35 165l66 469h59l-65 -468q-25 -176 137 -176q166 0 191 180l66 464h60z" />
    <glyph glyph-name="uni01DC" unicode="&#x1dc;" horiz-adv-x="577" 
d="M288 859l90 -132l-27 -23l-105 120zM252 712q18 0 28.5 -12.5t7.5 -30.5q-2 -16 -13.5 -26t-27.5 -10q-19 0 -29 12.5t-8 30.5q2 15 14 25.5t28 10.5zM443 712q18 0 28 -12.5t8 -30.5q-2 -16 -13.5 -26t-27.5 -10q-19 0 -29 12.5t-8 30.5q2 15 14 25.5t28 10.5zM508 523
l-74 -523h-48l14 133q-77 -144 -193 -144q-68 0 -100 42.5t-22 119.5l53 372h57l-52 -370q-17 -116 75 -116q102 0 188 166l44 320h58z" />
    <glyph glyph-name="uni01DD" unicode="&#x1dd;" horiz-adv-x="519" 
d="M270 534q91 0 140.5 -55t49.5 -155q0 -58 -15 -114.5t-45 -107t-82.5 -82t-119.5 -31.5q-74 0 -117 35.5t-43 90.5q0 95 94.5 141.5t267.5 60.5v6q0 82 -35.5 121.5t-98.5 39.5q-73 0 -147 -53l-27 41q87 62 178 62zM198 37q88 0 137.5 69t61.5 165q-150 -12 -224 -48
t-74 -106q0 -34 25 -57t74 -23z" />
    <glyph glyph-name="uni01DE" unicode="&#x1de;" horiz-adv-x="562" 
d="M489 925l-7 -47h-240l7 47h240zM255 744q-19 0 -29 12.5t-8 30.5q2 15 14 25.5t28 10.5q18 0 28 -12.5t8 -30.5q-2 -16 -13.5 -26t-27.5 -10zM448 823q18 0 28.5 -12.5t7.5 -30.5q-2 -16 -13.5 -26t-27.5 -10q-19 0 -29 12.5t-8 30.5q2 15 14 25.5t28 10.5zM447 0
l-33 187h-287l-87 -187h-61l324 685h75l131 -685h-62zM150 238h255l-71 398z" />
    <glyph glyph-name="uni01DF" unicode="&#x1df;" horiz-adv-x="559" 
d="M485 773h-240l7 47h240zM264 712q18 0 28 -12.5t8 -30.5q-2 -16 -13.5 -26t-27.5 -10q-19 0 -29 12.5t-8 30.5q2 15 14 25.5t28 10.5zM452 712q18 0 28.5 -12.5t7.5 -30.5q-2 -16 -13.5 -26t-27.5 -10q-19 0 -29 12.5t-8 30.5q2 15 14 25.5t28 10.5zM327 534
q86 0 169 -43l-56 -377q-3 -18 -3 -31q0 -39 33 -53l-16 -41q-36 7 -53.5 28.5t-16.5 66.5q-67 -95 -162 -95q-78 0 -121 54t-43 149q0 57 15 114t45 109.5t84.5 85.5t124.5 33zM328 487q-54 0 -96.5 -28.5t-66 -74t-35 -94.5t-11.5 -98q0 -76 29.5 -115.5t84.5 -39.5
q85 0 155 111l47 315q-48 24 -107 24z" />
    <glyph glyph-name="uni01E0" unicode="&#x1e0;" horiz-adv-x="562" 
d="M488 925l-7 -47h-240l7 47h240zM310 787q2 17 14.5 28t30.5 11q21 0 31.5 -13t7.5 -32q-2 -17 -14.5 -28t-30.5 -11q-20 0 -31 13t-8 32zM447 0l-33 187h-287l-87 -187h-61l324 685h75l131 -685h-62zM150 238h255l-71 398z" />
    <glyph glyph-name="uni01E1" unicode="&#x1e1;" horiz-adv-x="559" 
d="M491 757h-240l7 47h240zM360 703q21 0 31.5 -13t7.5 -32q-2 -17 -14.5 -28t-30.5 -11q-20 0 -31 13t-8 32q2 17 14.5 28t30.5 11zM327 534q86 0 169 -43l-56 -377q-3 -18 -3 -31q0 -39 33 -53l-16 -41q-36 7 -53.5 28.5t-16.5 66.5q-67 -95 -162 -95q-78 0 -121 54
t-43 149q0 57 15 114t45 109.5t84.5 85.5t124.5 33zM328 487q-54 0 -96.5 -28.5t-66 -74t-35 -94.5t-11.5 -98q0 -76 29.5 -115.5t84.5 -39.5q85 0 155 111l47 315q-48 24 -107 24z" />
    <glyph glyph-name="uni01E2" unicode="&#x1e2;" horiz-adv-x="780" 
d="M657 849l-7 -47h-240l7 47h240zM732 635h-323l30 -256h257l-7 -49h-245l33 -280h228l-8 -50h-272l-20 184h-284l-95 -184h-63l362 685h421zM147 234h252l-43 403z" />
    <glyph glyph-name="uni01E3" unicode="&#x1e3;" horiz-adv-x="831" 
d="M596 676h-240l7 47h240zM291 534q127 0 155 -102q23 41 74.5 71.5t115.5 30.5q72 0 114 -35.5t42 -91.5q0 -65 -48 -108t-125 -63t-191 -29q1 -168 136 -168q74 0 148 53l26 -41q-86 -62 -178 -62q-127 0 -170 105q-85 -105 -202 -105q-69 0 -108 37t-39 99q0 77 58 128
t183 51h102q11 48 23 78q-2 47 -34.5 75t-87.5 28q-64 0 -143 -29l-13 45q85 33 162 33zM635 486q-89 0 -140 -69t-63 -164q152 12 226 47.5t74 104.5q0 34 -24.5 57.5t-72.5 23.5zM376 261h-88q-95 0 -140 -37t-45 -99q0 -43 25.5 -66t70.5 -23q96 0 177 106q-11 57 0 119z
" />
    <glyph glyph-name="uni01E4" unicode="&#x1e4;" horiz-adv-x="631" 
d="M624 242l-7 -51h-77l-20 -144q-98 -58 -210 -58t-175.5 69.5t-63.5 201.5q0 78 20.5 153.5t60.5 139.5t106 103.5t148 39.5q106 0 183 -69l-40 -36q-60 54 -143 54q-69 0 -123 -35.5t-85.5 -93.5t-48 -125t-16.5 -138q0 -107 47.5 -160t135.5 -53q79 0 147 37l16 114
h-125l7 51h126l11 77h-132l-1 50h199l-17 -127h77z" />
    <glyph glyph-name="uni01E5" unicode="&#x1e5;" horiz-adv-x="503" 
d="M426 4l-9 -44h71l-6 -44h-80q-52 -123 -195 -123q-90 0 -173 49l23 43q78 -43 152 -43q97 0 135 74h-135l5 44h146q6 20 9 43l13 92q-63 -90 -158 -90q-78 0 -122 54t-45 146q0 55 15.5 110t46 105.5t85 82t124.5 31.5q86 0 169 -43zM232 53q88 0 160 110l44 300
q-50 24 -107 24q-44 0 -80.5 -18t-60 -47.5t-40 -67t-23 -75t-6.5 -74.5q0 -73 30 -112.5t83 -39.5z" />
    <glyph glyph-name="Gcaron" unicode="&#x1e6;" horiz-adv-x="615" 
d="M552 888l23 -31l-142 -101h-35l-116 101l28 30l110 -79zM406 696q106 0 183 -69l-40 -36q-60 54 -143 54q-69 0 -123 -35.5t-85.5 -93.5t-48 -125t-16.5 -138q0 -107 47.5 -160t135.5 -53q79 0 147 37l35 242h-132l-1 50h199l-44 -322q-98 -58 -210 -58t-175.5 69.5
t-63.5 201.5q0 78 20.5 153.5t60.5 139.5t106 103.5t148 39.5z" />
    <glyph glyph-name="gcaron" unicode="&#x1e7;" horiz-adv-x="567" 
d="M474 769l23 -30l-143 -106h-36l-114 106l27 30l110 -84zM329 534q86 0 169 -43l-71 -487q-31 -211 -219 -211q-90 0 -173 49l23 44q80 -43 149 -43q141 0 163 160l13 87q-66 -90 -158 -90q-78 0 -122 54t-44 146q0 56 15 112.5t45.5 107.5t85 82.5t124.5 31.5zM330 487
q-55 0 -97 -27t-66 -71t-35.5 -92.5t-11.5 -96.5q0 -73 30 -112.5t84 -39.5q87 0 158 110l45 305q-50 24 -107 24z" />
    <glyph glyph-name="uni01E8" unicode="&#x1e8;" horiz-adv-x="545" 
d="M508 888l23 -31l-142 -101h-35l-116 101l28 30l110 -79zM230 685l-97 -685h-59l96 685h60zM588 685l-330 -320l250 -365h-71l-248 367l327 318h72z" />
    <glyph glyph-name="uni01E9" unicode="&#x1e9;" horiz-adv-x="523" 
d="M493 939l23 -31l-142 -101h-35l-116 101l28 30l110 -79zM231 743l-49 -348q79 139 195 139q54 0 87 -30.5t33 -81.5q0 -131 -173 -186l119 -236h-64l-125 254q182 51 182 163q0 70 -72 70q-54 0 -104.5 -47.5t-90.5 -134.5l-43 -305h-57l104 736z" />
    <glyph glyph-name="uni01EA" unicode="&#x1ea;" horiz-adv-x="688" 
d="M383 -2q-71 -31 -102.5 -60t-31.5 -62q0 -45 55 -45q27 0 59 7l-10 -49q-30 -6 -57 -6q-49 0 -75 22.5t-26 58.5q0 76 94 126q-101 6 -159.5 76.5t-58.5 195.5q0 55 10.5 112t35.5 115.5t62 104t95.5 74t129.5 28.5q110 0 173 -70.5t63 -201.5q0 -64 -14 -128.5
t-42.5 -127t-80.5 -108.5t-120 -62zM133 260q0 -110 47 -165t130 -55q60 0 108.5 26.5t77.5 66.5t48 93.5t26.5 102.5t7.5 98q0 110 -46 164t-131 54q-59 0 -106.5 -26t-77 -66t-49 -92.5t-27.5 -102.5t-8 -98z" />
    <glyph glyph-name="uni01EB" unicode="&#x1eb;" horiz-adv-x="569" 
d="M311 -3q-71 -31 -101.5 -59.5t-30.5 -61.5q0 -45 55 -45q27 0 59 7l-10 -49q-30 -6 -57 -6q-49 0 -75 22.5t-26 58.5q0 77 95 127q-77 8 -119 63t-42 147q0 54 14 108.5t42.5 106.5t82 85t123.5 33q90 0 139.5 -55t49.5 -155q0 -46 -10.5 -94.5t-32.5 -97t-62.5 -85
t-93.5 -50.5zM119 196q0 -78 33.5 -118t97.5 -40q54 0 95 29t62.5 75t31.5 93t10 93q0 158 -130 158q-55 0 -96 -29t-62.5 -75.5t-31.5 -93.5t-10 -92z" />
    <glyph glyph-name="uni01EC" unicode="&#x1ec;" horiz-adv-x="688" 
d="M548 849l-7 -47h-240l7 47h240zM383 -2q-71 -31 -102.5 -60t-31.5 -62q0 -45 55 -45q27 0 59 7l-10 -49q-30 -6 -57 -6q-49 0 -75 22.5t-26 58.5q0 76 94 126q-101 6 -159.5 76.5t-58.5 195.5q0 55 10.5 112t35.5 115.5t62 104t95.5 74t129.5 28.5q110 0 173 -70.5
t63 -201.5q0 -64 -14 -128.5t-42.5 -127t-80.5 -108.5t-120 -62zM133 260q0 -110 47 -165t130 -55q60 0 108.5 26.5t77.5 66.5t48 93.5t26.5 102.5t7.5 98q0 110 -46 164t-131 54q-59 0 -106.5 -26t-77 -66t-49 -92.5t-27.5 -102.5t-8 -98z" />
    <glyph glyph-name="uni01ED" unicode="&#x1ed;" horiz-adv-x="569" 
d="M470 723l-7 -47h-240l7 47h240zM311 -3q-71 -31 -101.5 -59.5t-30.5 -61.5q0 -45 55 -45q27 0 59 7l-10 -49q-30 -6 -57 -6q-49 0 -75 22.5t-26 58.5q0 77 95 127q-77 8 -119 63t-42 147q0 54 14 108.5t42.5 106.5t82 85t123.5 33q90 0 139.5 -55t49.5 -155
q0 -46 -10.5 -94.5t-32.5 -97t-62.5 -85t-93.5 -50.5zM119 196q0 -78 33.5 -118t97.5 -40q54 0 95 29t62.5 75t31.5 93t10 93q0 158 -130 158q-55 0 -96 -29t-62.5 -75.5t-31.5 -93.5t-10 -92z" />
    <glyph glyph-name="uni01EE" unicode="&#x1ee;" horiz-adv-x="493" 
d="M319 756h-35l-116 101l28 30l110 -79l132 80l23 -31zM480 685l-6 -49l-259 -250h21q100 0 151 -43t51 -121q0 -104 -71 -168.5t-182 -64.5q-126 0 -194 88l38 32q32 -36 67 -52.5t88 -16.5q88 0 140 50t52 132q0 62 -38.5 89.5t-113.5 27.5h-85l6 47l253 249h-306l7 50
h381z" />
    <glyph glyph-name="uni01EF" unicode="&#x1ef;" horiz-adv-x="459" 
d="M287 633h-36l-114 106l27 30l110 -84l133 84l23 -30zM439 523l-7 -45l-256 -278h8q208 0 208 -164q0 -107 -69 -174t-179 -67q-116 0 -186 87l36 30q61 -68 149 -68t138 53.5t50 138.5q0 63 -38 90.5t-120 27.5h-66l6 46l249 273h-298l7 50h368z" />
    <glyph glyph-name="uni01F0" unicode="&#x1f0;" horiz-adv-x="267" 
d="M321 769l23 -30l-143 -106h-36l-114 106l27 30l110 -84zM199 523l-72 -506q-13 -98 -49 -141t-119 -80l-17 44q61 28 89 63t39 116l71 504h58z" />
    <glyph glyph-name="uni01F1" unicode="&#x1f1;" horiz-adv-x="1133" 
d="M304 685q58 0 104 -11t87 -37.5t63.5 -79t22.5 -128.5q0 -84 -19.5 -158t-60 -136t-112.5 -98.5t-168 -36.5h-147l96 685h134zM618 0l7 50l445 583h-326l8 52h393l-6 -49l-444 -583h355l-15 -53h-417zM307 635h-85l-81 -585h89q79 0 137.5 33.5t91 90t47.5 120.5t15 136
q0 64 -17.5 107t-50.5 63t-67 27.5t-79 7.5z" />
    <glyph glyph-name="uni01F2" unicode="&#x1f2;" horiz-adv-x="1049" 
d="M304 685q58 0 104 -11t87 -37.5t63.5 -79t22.5 -128.5q0 -84 -19.5 -158t-60 -136t-112.5 -98.5t-168 -36.5h-147l96 685h134zM307 635h-85l-81 -585h89q79 0 137.5 33.5t91 90t47.5 120.5t15 136q0 64 -17.5 107t-50.5 63t-67 27.5t-79 7.5zM1053 523l-6 -45l-347 -428
h284l-13 -50h-351l7 45l347 428h-263l7 50h335z" />
    <glyph glyph-name="uni01F3" unicode="&#x1f3;" horiz-adv-x="1002" 
d="M487 743l57 -7l-104 -736h-50l7 106q-68 -117 -173 -117q-76 0 -118.5 55t-42.5 151q0 55 13.5 111t40.5 109t76.5 86t114.5 33q90 0 139 -72zM1005 523l-6 -45l-347 -428h284l-13 -50h-351l7 45l347 428h-263l7 50h335zM316 486q-51 0 -90.5 -29t-60.5 -75t-31 -94
t-10 -96q0 -76 28.5 -115.5t80.5 -39.5q54 0 93.5 36t81.5 108l32 228q-44 77 -124 77z" />
    <glyph glyph-name="uni01F4" unicode="&#x1f4;" horiz-adv-x="615" 
d="M518 888l20 -52l-208 -78l-11 34zM406 696q106 0 183 -69l-40 -36q-60 54 -143 54q-69 0 -123 -35.5t-85.5 -93.5t-48 -125t-16.5 -138q0 -107 47.5 -160t135.5 -53q79 0 147 37l35 242h-132l-1 50h199l-44 -322q-98 -58 -210 -58t-175.5 69.5t-63.5 201.5
q0 78 20.5 153.5t60.5 139.5t106 103.5t148 39.5z" />
    <glyph glyph-name="uni01F5" unicode="&#x1f5;" horiz-adv-x="567" 
d="M440 782l19 -52l-206 -85l-14 34zM329 534q86 0 169 -43l-71 -487q-31 -211 -219 -211q-90 0 -173 49l23 44q80 -43 149 -43q141 0 163 160l13 87q-66 -90 -158 -90q-78 0 -122 54t-44 146q0 56 15 112.5t45.5 107.5t85 82.5t124.5 31.5zM330 487q-55 0 -97 -27t-66 -71
t-35.5 -92.5t-11.5 -96.5q0 -73 30 -112.5t84 -39.5q87 0 158 110l45 305q-50 24 -107 24z" />
    <glyph glyph-name="uni01F6" unicode="&#x1f6;" horiz-adv-x="959" 
d="M884 523q5 -58 5 -110q0 -65 -6.5 -122.5t-24.5 -114t-46.5 -97t-74.5 -65.5t-106 -25q-83 0 -120 49.5t-27 123.5l24 173h-328l-47 -335h-59l96 685h59l-42 -299h328l42 299h59l-73 -523q-8 -58 15 -91t75 -33q59 0 100.5 34.5t61.5 95t28 121t8 131.5q0 55 -3 103h56z
" />
    <glyph glyph-name="uni01F7" unicode="&#x1f7;" horiz-adv-x="567" 
d="M399 696q72 0 116.5 -41.5t44.5 -115.5q0 -58 -22 -105t-65.5 -81.5t-91 -58.5t-113.5 -47l-105 -36l-30 -211h-59l96 685h59l-7 -54q79 65 177 65zM269 299q108 38 168.5 94.5t60.5 144.5q0 53 -28.5 80t-79.5 27q-94 0 -176 -68l-44 -314z" />
    <glyph glyph-name="uni01F8" unicode="&#x1f8;" horiz-adv-x="670" 
d="M352 888l174 -96l-20 -34l-187 78zM619 685l-97 -685h-76l-237 631q-1 -78 -25 -250l-54 -381h-56l96 685h77l237 -630q3 89 20 215l58 415h57z" />
    <glyph glyph-name="uni01F9" unicode="&#x1f9;" horiz-adv-x="581" 
d="M296 782l172 -104l-22 -33l-183 85zM376 534q67 0 99 -43.5t21 -121.5l-52 -369h-58l52 367q17 118 -74 118q-103 0 -194 -172l-44 -313h-57l74 523h48l-13 -130q84 141 198 141z" />
    <glyph glyph-name="Aringacute" unicode="&#x1fa;" horiz-adv-x="562" 
d="M479 999l-208 -78l-11 34l199 96zM344 728q-39 0 -63.5 23.5t-24.5 59.5q0 45 31.5 75t77.5 30q40 0 64 -23.5t24 -59.5q0 -45 -31.5 -75t-77.5 -30zM363 880q-30 0 -47 -20t-17 -48q0 -48 47 -48q30 0 47 20.5t17 47.5q0 48 -47 48zM447 0l-33 187h-287l-87 -187h-61
l324 685h75l131 -685h-62zM150 238h255l-71 398z" />
    <glyph glyph-name="aringacute" unicode="&#x1fb;" horiz-adv-x="559" 
d="M467 914l20 -52l-208 -78l-11 34zM367 776q40 0 64 -23.5t24 -59.5q0 -45 -31.5 -75t-77.5 -30q-39 0 -63.5 23.5t-24.5 59.5q0 45 31.5 75t77.5 30zM365 740q-30 0 -47 -20t-17 -48q0 -48 47 -48q30 0 47 20.5t17 47.5q0 48 -47 48zM327 534q86 0 169 -43l-56 -377
q-3 -18 -3 -31q0 -39 33 -53l-16 -41q-36 7 -53.5 28.5t-16.5 66.5q-67 -95 -162 -95q-78 0 -121 54t-43 149q0 57 15 114t45 109.5t84.5 85.5t124.5 33zM328 487q-54 0 -96.5 -28.5t-66 -74t-35 -94.5t-11.5 -98q0 -76 29.5 -115.5t84.5 -39.5q85 0 155 111l47 315
q-48 24 -107 24z" />
    <glyph glyph-name="AEacute" unicode="&#x1fc;" horiz-adv-x="780" 
d="M643 836l-208 -78l-11 34l199 96zM732 635h-323l30 -256h257l-7 -49h-245l33 -280h228l-8 -50h-272l-20 184h-284l-95 -184h-63l362 685h421zM147 234h252l-43 403z" />
    <glyph glyph-name="aeacute" unicode="&#x1fd;" horiz-adv-x="831" 
d="M573 782l19 -52l-206 -85l-14 34zM291 534q127 0 155 -102q23 41 74.5 71.5t115.5 30.5q72 0 114 -35.5t42 -91.5q0 -65 -48 -108t-125 -63t-191 -29q1 -168 136 -168q74 0 148 53l26 -41q-86 -62 -178 -62q-127 0 -170 105q-85 -105 -202 -105q-69 0 -108 37t-39 99
q0 77 58 128t183 51h102q11 48 23 78q-2 47 -34.5 75t-87.5 28q-64 0 -143 -29l-13 45q85 33 162 33zM635 486q-89 0 -140 -69t-63 -164q152 12 226 47.5t74 104.5q0 34 -24.5 57.5t-72.5 23.5zM376 261h-88q-95 0 -140 -37t-45 -99q0 -43 25.5 -66t70.5 -23q96 0 177 106
q-11 57 0 119z" />
    <glyph glyph-name="Oslashacute" unicode="&#x1fe;" horiz-adv-x="688" 
d="M528 848l-208 -78l-11 34l199 96zM524 668q116 -65 116 -244q0 -73 -17.5 -144.5t-54 -139t-103.5 -109.5t-156 -42q-40 0 -78 11l-52 -120l-49 15l55 124q-114 65 -114 243q0 55 10.5 112t35.5 115.5t62 104t95.5 74t129.5 28.5q42 0 75 -10l53 124l50 -14zM133 256
q0 -140 79 -191l250 573q-25 7 -61 7q-59 0 -106.5 -26t-77 -66.5t-49 -93.5t-27.5 -103.5t-8 -99.5zM310 40q61 0 109 26.5t77 67t48 94.5t26.5 104t7.5 100q0 143 -80 190l-250 -573q28 -9 62 -9z" />
    <glyph glyph-name="oslashacute" unicode="&#x1ff;" horiz-adv-x="569" 
d="M440 782l19 -52l-206 -85l-14 34zM128 -125l-47 14l61 128q-83 52 -83 184q0 54 14 108.5t42.5 106.5t82 85t123.5 33q35 0 63 -9l57 123l47 -14l-60 -128q82 -53 82 -182q0 -53 -13.5 -107.5t-42 -107.5t-82 -86.5t-123.5 -33.5q-35 0 -63 9zM170 62l197 417
q-20 7 -48 7q-55 0 -96 -29t-62.5 -75.5t-31.5 -93.5t-10 -92q0 -97 51 -134zM250 38q54 0 95 29t62.5 75t31.5 93t10 93q0 96 -48 133l-197 -416q18 -7 46 -7z" />
    <glyph glyph-name="uni0200" unicode="&#x200;" horiz-adv-x="562" 
d="M325 822l-40 -18l-73 142l56 27zM446 826l-40 -17l-65 136l55 28zM447 0l-33 187h-287l-87 -187h-61l324 685h75l131 -685h-62zM150 238h255l-71 398z" />
    <glyph glyph-name="uni0201" unicode="&#x201;" horiz-adv-x="559" 
d="M265 811l57 -151l-40 -18l-73 142zM393 811l50 -147l-40 -17l-65 136zM327 534q86 0 169 -43l-56 -377q-3 -18 -3 -31q0 -39 33 -53l-16 -41q-36 7 -53.5 28.5t-16.5 66.5q-67 -95 -162 -95q-78 0 -121 54t-43 149q0 57 15 114t45 109.5t84.5 85.5t124.5 33zM328 487
q-54 0 -96.5 -28.5t-66 -74t-35 -94.5t-11.5 -98q0 -76 29.5 -115.5t84.5 -39.5q85 0 155 111l47 315q-48 24 -107 24z" />
    <glyph glyph-name="uni0202" unicode="&#x202;" horiz-adv-x="562" 
d="M364 857q-72 0 -103 -73l-38 12q13 50 52 79t92 29q52 0 84 -30.5t32 -81.5l-40 -5q-11 70 -79 70zM447 0l-33 187h-287l-87 -187h-61l324 685h75l131 -685h-62zM150 238h255l-71 398z" />
    <glyph glyph-name="uni0203" unicode="&#x203;" horiz-adv-x="559" 
d="M258 622l-38 12q13 50 52 79t92 29q52 0 84 -30.5t32 -81.5l-40 -5q-11 70 -79 70q-72 0 -103 -73zM327 534q86 0 169 -43l-56 -377q-3 -18 -3 -31q0 -39 33 -53l-16 -41q-36 7 -53.5 28.5t-16.5 66.5q-67 -95 -162 -95q-78 0 -121 54t-43 149q0 57 15 114t45 109.5
t84.5 85.5t124.5 33zM328 487q-54 0 -96.5 -28.5t-66 -74t-35 -94.5t-11.5 -98q0 -76 29.5 -115.5t84.5 -39.5q85 0 155 111l47 315q-48 24 -107 24z" />
    <glyph glyph-name="uni0204" unicode="&#x204;" horiz-adv-x="509" 
d="M274 973l57 -151l-40 -18l-73 142zM402 973l50 -147l-40 -17l-65 136zM516 685l-14 -50h-280l-36 -255h242l-6 -50h-242l-39 -280h293l-8 -50h-352l96 685h346z" />
    <glyph glyph-name="uni0205" unicode="&#x205;" horiz-adv-x="519" 
d="M296 660l-40 -18l-73 142l56 27zM417 664l-40 -17l-65 136l55 28zM481 408q0 -95 -94.5 -142t-267.5 -60v-6q0 -82 35.5 -121.5t98.5 -39.5q73 0 147 53l27 -41q-87 -62 -178 -62t-140.5 55t-49.5 155q0 58 15 114.5t45 107t82.5 82t119.5 31.5q74 0 117 -35.5t43 -90.5z
M321 486q-37 0 -68.5 -14t-53 -36.5t-38 -54t-26 -63.5t-13.5 -67q150 12 224 49t74 106q0 34 -25 57t-74 23z" />
    <glyph glyph-name="uni0206" unicode="&#x206;" horiz-adv-x="509" 
d="M268 784l-38 12q13 50 52 79t92 29q52 0 84 -30.5t32 -81.5l-40 -5q-11 70 -79 70q-72 0 -103 -73zM516 685l-14 -50h-280l-36 -255h242l-6 -50h-242l-39 -280h293l-8 -50h-352l96 685h346z" />
    <glyph glyph-name="uni0207" unicode="&#x207;" horiz-adv-x="519" 
d="M336 695q-72 0 -103 -73l-38 12q13 50 52 79t92 29q52 0 84 -30.5t32 -81.5l-40 -5q-11 70 -79 70zM481 408q0 -95 -94.5 -142t-267.5 -60v-6q0 -82 35.5 -121.5t98.5 -39.5q73 0 147 53l27 -41q-87 -62 -178 -62t-140.5 55t-49.5 155q0 58 15 114.5t45 107t82.5 82
t119.5 31.5q74 0 117 -35.5t43 -90.5zM321 486q-37 0 -68.5 -14t-53 -36.5t-38 -54t-26 -63.5t-13.5 -67q150 12 224 49t74 106q0 34 -25 57t-74 23z" />
    <glyph glyph-name="uni0208" unicode="&#x208;" horiz-adv-x="280" 
d="M127 973l57 -151l-40 -18l-73 142zM255 973l50 -147l-40 -17l-65 136zM229 685l-96 -685h-59l96 685h59z" />
    <glyph glyph-name="uni0209" unicode="&#x209;" horiz-adv-x="270" 
d="M103 811l57 -151l-40 -18l-72 142zM232 811l49 -147l-39 -17l-66 136zM200 523l-74 -523h-57l74 523h57z" />
    <glyph glyph-name="uni020A" unicode="&#x20a;" horiz-adv-x="280" 
d="M121 784l-38 12q13 50 52 79t92 29q52 0 84 -30.5t32 -81.5l-40 -5q-11 70 -79 70q-72 0 -103 -73zM229 685l-96 -685h-59l96 685h59z" />
    <glyph glyph-name="uni020B" unicode="&#x20b;" horiz-adv-x="269" 
d="M92 622l-38 12q13 50 52 79t92 29q52 0 84 -30.5t32 -81.5l-40 -5q-11 70 -79 70q-72 0 -103 -73zM200 523l-74 -523h-57l74 523h57z" />
    <glyph glyph-name="uni020C" unicode="&#x20c;" horiz-adv-x="688" 
d="M333 973l57 -151l-40 -18l-73 142zM461 973l50 -147l-40 -17l-65 136zM404 696q110 0 173 -70.5t63 -201.5q0 -73 -17.5 -144.5t-54 -139t-103.5 -109.5t-156 -42q-110 0 -174 71t-64 202q0 55 10.5 112t35.5 115.5t62 104t95.5 74t129.5 28.5zM401 645q-59 0 -106.5 -26
t-77 -66t-49 -92.5t-27.5 -102.5t-8 -98q0 -110 47 -165t130 -55q60 0 108.5 26.5t77.5 66.5t48 93.5t26.5 102.5t7.5 98q0 110 -46 164t-131 54z" />
    <glyph glyph-name="uni020D" unicode="&#x20d;" horiz-adv-x="569" 
d="M249 811l57 -151l-40 -18l-73 142zM377 811l50 -147l-40 -17l-65 136zM321 534q90 0 139.5 -55t49.5 -155q0 -53 -13.5 -107.5t-42 -107.5t-82 -86.5t-123.5 -33.5q-91 0 -140.5 56t-49.5 156q0 54 14 108.5t42.5 106.5t82 85t123.5 33zM319 486q-55 0 -96 -29
t-62.5 -75.5t-31.5 -93.5t-10 -92q0 -78 33.5 -118t97.5 -40q54 0 95 29t62.5 75t31.5 93t10 93q0 158 -130 158z" />
    <glyph glyph-name="uni020E" unicode="&#x20e;" horiz-adv-x="688" 
d="M326 784l-38 12q13 50 52 79t92 29q52 0 84 -30.5t32 -81.5l-40 -5q-11 70 -79 70q-72 0 -103 -73zM404 696q110 0 173 -70.5t63 -201.5q0 -73 -17.5 -144.5t-54 -139t-103.5 -109.5t-156 -42q-110 0 -174 71t-64 202q0 55 10.5 112t35.5 115.5t62 104t95.5 74
t129.5 28.5zM401 645q-59 0 -106.5 -26t-77 -66t-49 -92.5t-27.5 -102.5t-8 -98q0 -110 47 -165t130 -55q60 0 108.5 26.5t77.5 66.5t48 93.5t26.5 102.5t7.5 98q0 110 -46 164t-131 54z" />
    <glyph glyph-name="uni020F" unicode="&#x20f;" horiz-adv-x="569" 
d="M242 622l-38 12q13 50 52 79t92 29q52 0 84 -30.5t32 -81.5l-40 -5q-11 70 -79 70q-72 0 -103 -73zM321 534q90 0 139.5 -55t49.5 -155q0 -53 -13.5 -107.5t-42 -107.5t-82 -86.5t-123.5 -33.5q-91 0 -140.5 56t-49.5 156q0 54 14 108.5t42.5 106.5t82 85t123.5 33z
M319 486q-55 0 -96 -29t-62.5 -75.5t-31.5 -93.5t-10 -92q0 -78 33.5 -118t97.5 -40q54 0 95 29t62.5 75t31.5 93t10 93q0 158 -130 158z" />
    <glyph glyph-name="uni0210" unicode="&#x210;" horiz-adv-x="587" 
d="M336 822l-40 -18l-73 142l56 27zM457 826l-40 -17l-65 136l55 28zM553 525q0 -72 -42.5 -129.5t-137.5 -79.5l144 -316h-66l-136 307h-139l-43 -307h-59l96 685h164q219 0 219 -160zM183 356h118q53 0 92 15.5t59 41.5t29.5 54t9.5 59q0 57 -37.5 83.5t-119.5 26.5h-112z
" />
    <glyph glyph-name="uni0211" unicode="&#x211;" horiz-adv-x="371" 
d="M196 811l57 -151l-40 -18l-73 142zM324 811l50 -147l-40 -17l-65 136zM345 534q29 0 50 -7l-16 -54q-20 5 -42 5q-55 0 -94.5 -45t-73.5 -135l-43 -298h-57l74 523h49l-14 -127q63 138 167 138z" />
    <glyph glyph-name="uni0212" unicode="&#x212;" horiz-adv-x="587" 
d="M376 857q-72 0 -103 -73l-38 12q13 50 52 79t92 29q52 0 84 -30.5t32 -81.5l-40 -5q-11 70 -79 70zM553 525q0 -72 -42.5 -129.5t-137.5 -79.5l144 -316h-66l-136 307h-139l-43 -307h-59l96 685h164q219 0 219 -160zM183 356h118q53 0 92 15.5t59 41.5t29.5 54t9.5 59
q0 57 -37.5 83.5t-119.5 26.5h-112z" />
    <glyph glyph-name="uni0213" unicode="&#x213;" horiz-adv-x="371" 
d="M190 622l-38 12q13 50 52 79t92 29q52 0 84 -30.5t32 -81.5l-40 -5q-11 70 -79 70q-72 0 -103 -73zM345 534q29 0 50 -7l-16 -54q-20 5 -42 5q-55 0 -94.5 -45t-73.5 -135l-43 -298h-57l74 523h49l-14 -127q63 138 167 138z" />
    <glyph glyph-name="uni0214" unicode="&#x214;" horiz-adv-x="649" 
d="M311 973l57 -151l-40 -18l-73 142zM439 973l50 -147l-40 -17l-65 136zM608 685l-66 -473q-15 -102 -80 -162.5t-173 -60.5q-111 0 -160 62t-35 165l66 469h59l-65 -468q-25 -176 137 -176q166 0 191 180l66 464h60z" />
    <glyph glyph-name="uni0215" unicode="&#x215;" horiz-adv-x="577" 
d="M250 811l57 -151l-40 -18l-73 142zM378 811l50 -147l-40 -17l-65 136zM508 523l-74 -523h-48l14 133q-77 -144 -193 -144q-68 0 -100 42.5t-22 119.5l53 372h57l-52 -370q-17 -116 75 -116q102 0 188 166l44 320h58z" />
    <glyph glyph-name="uni0216" unicode="&#x216;" horiz-adv-x="649" 
d="M305 784l-38 12q13 50 52 79t92 29q52 0 84 -30.5t32 -81.5l-40 -5q-11 70 -79 70q-72 0 -103 -73zM608 685l-66 -473q-15 -102 -80 -162.5t-173 -60.5q-111 0 -160 62t-35 165l66 469h59l-65 -468q-25 -176 137 -176q166 0 191 180l66 464h60z" />
    <glyph glyph-name="uni0217" unicode="&#x217;" horiz-adv-x="577" 
d="M244 622l-38 12q13 50 52 79t92 29q52 0 84 -30.5t32 -81.5l-40 -5q-11 70 -79 70q-72 0 -103 -73zM508 523l-74 -523h-48l14 133q-77 -144 -193 -144q-68 0 -100 42.5t-22 119.5l53 372h57l-52 -370q-17 -116 75 -116q102 0 188 166l44 320h58z" />
    <glyph glyph-name="Scommaaccent" unicode="&#x218;" horiz-adv-x="536" 
d="M324 696q112 0 187 -77l-38 -36q-61 62 -149 62q-70 0 -116 -35.5t-46 -92.5q0 -46 30.5 -74t107.5 -54q87 -27 131 -69t44 -116q0 -36 -14 -72t-42 -69t-79.5 -53.5t-118.5 -20.5q-127 0 -208 88l39 36q67 -73 170 -73q90 0 141 47.5t51 114.5q0 51 -32 82.5t-108 57.5
q-91 28 -131.5 68t-40.5 105q0 68 57.5 124.5t164.5 56.5zM212 -85q18 0 29 -11.5t11 -27.5q0 -22 -31 -71l-52 -84h-35l49 115q-18 13 -18 34q0 19 13.5 32t33.5 13z" />
    <glyph glyph-name="scommaaccent" unicode="&#x219;" horiz-adv-x="461" 
d="M260 534q93 0 161 -59l-31 -35q-60 46 -130 46q-57 0 -90.5 -24t-33.5 -65q0 -34 25 -55.5t89 -40.5q78 -24 112.5 -60t34.5 -93q0 -71 -55 -115t-148 -44q-110 0 -185 71l34 34q68 -56 151 -56q68 0 105.5 29t37.5 77q0 42 -25.5 65.5t-94.5 45.5q-77 24 -108.5 56.5
t-31.5 82.5q0 58 50 99t133 41zM180 -85q18 0 29 -11.5t11 -27.5q0 -22 -31 -71l-52 -84h-35l49 115q-18 13 -18 34q0 19 13.5 32t33.5 13z" />
    <glyph glyph-name="uni021A" unicode="&#x21a;" horiz-adv-x="492" 
d="M542 685l-15 -53h-199l-89 -632h-60l89 632h-202l8 53h468zM196 -85q18 0 29 -11.5t11 -27.5q0 -22 -31 -71l-52 -84h-35l49 115q-18 13 -18 34q0 19 13.5 32t33.5 13z" />
    <glyph glyph-name="uni021B" unicode="&#x21b;" horiz-adv-x="339" 
d="M193 476l-49 -347q-7 -46 7.5 -68t53.5 -22q37 0 84 25l20 -43q-56 -32 -113 -32q-60 0 -90 36.5t-20 102.5l49 348h-88l7 47h89l29 127l46 5l-19 -132h134l-13 -47h-127zM175 -85q18 0 29 -11.5t11 -27.5q0 -22 -31 -71l-52 -84h-35l49 115q-18 13 -18 34q0 19 13.5 32
t33.5 13z" />
    <glyph glyph-name="uni021C" unicode="&#x21c;" horiz-adv-x="498" 
d="M288 696q81 0 127.5 -42.5t46.5 -114.5t-41.5 -117t-113.5 -63q59 -6 95.5 -40t36.5 -96q0 -232 -419 -313l-2 50q80 17 140 38.5t112 52t79 74t27 97.5q0 112 -151 109h-64l15 51h51q76 0 125 43t49 113q0 51 -30 79t-87 28q-88 0 -184 -69l-30 38q105 82 218 82z" />
    <glyph glyph-name="uni021D" unicode="&#x21d;" horiz-adv-x="464" 
d="M241 534q71 0 115.5 -35.5t44.5 -95.5q0 -107 -128 -134q57 -1 88.5 -26.5t31.5 -72.5q0 -51 -30.5 -95t-84 -76t-114.5 -55t-134 -40l-6 44q149 42 228.5 93.5t79.5 127.5q0 39 -27.5 55.5t-83.5 16.5h-85l11 47h40q69 0 111.5 30.5t42.5 83.5q0 41 -27 62.5t-75 21.5
q-74 0 -154 -45l-24 38q86 55 180 55z" />
    <glyph glyph-name="uni021E" unicode="&#x21e;" horiz-adv-x="667" 
d="M535 888l23 -31l-142 -101h-35l-116 101l28 30l110 -79zM460 0l48 335h-328l-47 -335h-59l96 685h59l-42 -299h328l42 299h59l-96 -685h-60z" />
    <glyph glyph-name="uni021F" unicode="&#x21f;" horiz-adv-x="582" 
d="M502 939l23 -31l-142 -101h-35l-116 101l28 30l110 -79zM375 534q69 0 100.5 -43t20.5 -120l-52 -371h-58l52 367q17 118 -73 118q-104 0 -195 -172l-44 -313h-57l104 736l58 7l-50 -348q79 139 194 139z" />
    <glyph glyph-name="uni0220" unicode="&#x220;" horiz-adv-x="663" 
d="M437 696q88 0 127 -53t26 -146l-97 -694h-60l97 686q20 156 -103 156q-64 0 -115.5 -30t-102.5 -85l-1 5l-75 -535h-59l96 685h51l-7 -96q100 107 223 107z" />
    <glyph glyph-name="uni0221" unicode="&#x221;" horiz-adv-x="692" 
d="M603 202q41 0 67 -23.5t26 -61.5q0 -57 -48 -92.5t-118 -35.5q-49 0 -81 19l-49 -74l-38 18l57 83q-20 27 -20 71q-71 -117 -175 -117q-76 0 -118.5 55t-42.5 151q0 55 13.5 111t40.5 109t76.5 86t114.5 33q90 0 139 -72l40 281l57 -7l-86 -610q-3 -20 -2 -31
q32 53 66.5 80t80.5 27zM233 37q54 0 93 36t81 107l33 229q-44 77 -124 77q-51 0 -90.5 -29t-60.5 -75t-31 -94t-10 -96q0 -76 28.5 -115.5t80.5 -39.5zM536 40q46 0 76.5 20t30.5 56q0 41 -45 41q-29 0 -54.5 -22t-66.5 -83q17 -12 59 -12z" />
    <glyph glyph-name="uni0222" unicode="&#x222;" horiz-adv-x="637" 
d="M568 548q-18 -125 -127 -167q123 -37 123 -156q0 -103 -77.5 -169.5t-203.5 -66.5q-110 0 -169 50t-59 131q0 78 47.5 134t129.5 79q-97 40 -78 169l19 133h59l-19 -134q-11 -75 19 -110.5t105 -35.5q151 0 172 150l18 130h60zM502 223q0 131 -168 131q-99 0 -158 -49.5
t-59 -133.5q0 -131 167 -131q102 0 160 49t58 134z" />
    <glyph glyph-name="uni0223" unicode="&#x223;" horiz-adv-x="564" 
d="M508 564q-16 -115 -121 -156q109 -35 109 -160q-1 -112 -70 -185.5t-179 -73.5q-91 0 -142 50.5t-51 133.5q0 86 43.5 149t119.5 86q-90 40 -72 160l24 168h57l-24 -172q-19 -135 101 -135q66 0 103 39t45 100l24 168h57zM435 248q0 134 -134 134q-88 0 -137.5 -60
t-49.5 -149q0 -65 34.5 -100t99.5 -35q91 0 139 59t48 151z" />
    <glyph glyph-name="uni0224" unicode="&#x224;" horiz-adv-x="513" 
d="M525 685l-6 -49l-444 -583h352l-8 -53l-10 -73q-9 -66 -46.5 -99t-93.5 -33t-99 35l28 37q34 -23 70 -23q70 0 82 86l11 70h-363l7 50l445 583h-326l8 52h393z" />
    <glyph glyph-name="uni0225" unicode="&#x225;" horiz-adv-x="419" 
d="M423 523l-6 -45l-347 -428h281l-7 -50l-10 -73q-9 -65 -47 -98.5t-93 -33.5t-98 35l28 36q34 -23 68 -23q74 0 85 85l11 72h-298l7 45l347 428h-263l7 50h335z" />
    <glyph glyph-name="uni0226" unicode="&#x226;" horiz-adv-x="562" 
d="M360 795q-20 0 -31 13t-8 32q2 17 14.5 28t30.5 11q21 0 31.5 -13t7.5 -32q-2 -17 -14.5 -28t-30.5 -11zM447 0l-33 187h-287l-87 -187h-61l324 685h75l131 -685h-62zM150 238h255l-71 398z" />
    <glyph glyph-name="uni0227" unicode="&#x227;" horiz-adv-x="559" 
d="M367 753q21 0 31.5 -13t7.5 -32q-2 -17 -14.5 -28t-30.5 -11q-20 0 -31 13t-8 32q2 17 14.5 28t30.5 11zM327 534q86 0 169 -43l-56 -377q-3 -18 -3 -31q0 -39 33 -53l-16 -41q-36 7 -53.5 28.5t-16.5 66.5q-67 -95 -162 -95q-78 0 -121 54t-43 149q0 57 15 114t45 109.5
t84.5 85.5t124.5 33zM328 487q-54 0 -96.5 -28.5t-66 -74t-35 -94.5t-11.5 -98q0 -76 29.5 -115.5t84.5 -39.5q85 0 155 111l47 315q-48 24 -107 24z" />
    <glyph glyph-name="uni0228" unicode="&#x228;" horiz-adv-x="509" 
d="M502 635h-280l-36 -255h242l-6 -50h-242l-39 -280h293l-8 -50h-159l-11 -64q83 -7 83 -72q0 -40 -31.5 -65.5t-83.5 -25.5q-45 0 -78 22l22 35q22 -15 56 -15q63 0 64 47q1 23 -17 32.5t-65 9.5l21 96h-153l96 685h346z" />
    <glyph glyph-name="uni0229" unicode="&#x229;" horiz-adv-x="519" 
d="M481 408q0 -95 -94.5 -142t-267.5 -60v-6q0 -82 35.5 -121.5t98.5 -39.5q73 0 147 53l27 -41q-81 -58 -167 -62l-9 -53q83 -7 83 -72q0 -39 -32 -65t-83 -26q-46 0 -79 22l22 35q23 -15 57 -15q28 0 45 12t18 35t-17 32.5t-65 9.5l19 87q-77 8 -118.5 62t-41.5 146
q0 58 15 114.5t45 107t82.5 82t119.5 31.5q74 0 117 -35.5t43 -90.5zM321 486q-37 0 -68.5 -14t-53 -36.5t-38 -54t-26 -63.5t-13.5 -67q150 12 224 49t74 106q0 34 -25 57t-74 23z" />
    <glyph glyph-name="uni022A" unicode="&#x22a;" horiz-adv-x="688" 
d="M546 878h-240l7 47h240zM324 823q18 0 28 -12.5t8 -30.5q-2 -16 -13.5 -26t-27.5 -10q-19 0 -29 12.5t-8 30.5q2 15 14 25.5t28 10.5zM512 823q18 0 28.5 -12.5t7.5 -30.5q-2 -16 -13.5 -26t-27.5 -10q-19 0 -29 12.5t-8 30.5q2 15 14 25.5t28 10.5zM404 696
q110 0 173 -70.5t63 -201.5q0 -73 -17.5 -144.5t-54 -139t-103.5 -109.5t-156 -42q-110 0 -174 71t-64 202q0 55 10.5 112t35.5 115.5t62 104t95.5 74t129.5 28.5zM401 645q-59 0 -106.5 -26t-77 -66t-49 -92.5t-27.5 -102.5t-8 -98q0 -110 47 -165t130 -55q60 0 108.5 26.5
t77.5 66.5t48 93.5t26.5 102.5t7.5 98q0 110 -46 164t-131 54z" />
    <glyph glyph-name="uni022B" unicode="&#x22b;" horiz-adv-x="569" 
d="M469 773h-240l7 47h240zM248 712q18 0 28 -12.5t8 -30.5q-2 -16 -13.5 -26t-27.5 -10q-19 0 -29 12.5t-8 30.5q2 15 14 25.5t28 10.5zM436 712q18 0 28.5 -12.5t7.5 -30.5q-2 -16 -13.5 -26t-27.5 -10q-19 0 -29 12.5t-8 30.5q2 15 14 25.5t28 10.5zM321 534
q90 0 139.5 -55t49.5 -155q0 -53 -13.5 -107.5t-42 -107.5t-82 -86.5t-123.5 -33.5q-91 0 -140.5 56t-49.5 156q0 54 14 108.5t42.5 106.5t82 85t123.5 33zM319 486q-55 0 -96 -29t-62.5 -75.5t-31.5 -93.5t-10 -92q0 -78 33.5 -118t97.5 -40q54 0 95 29t62.5 75t31.5 93
t10 93q0 158 -130 158z" />
    <glyph glyph-name="uni022C" unicode="&#x22c;" horiz-adv-x="688" 
d="M554 894h-240l7 47h240zM478 757q-30 0 -63.5 23t-49.5 23q-18 0 -31.5 -9.5t-31.5 -32.5l-33 22q45 66 97 66q27 0 60.5 -22.5t50.5 -22.5q30 0 63 45l34 -22q-44 -70 -96 -70zM404 696q110 0 173 -70.5t63 -201.5q0 -73 -17.5 -144.5t-54 -139t-103.5 -109.5t-156 -42
q-110 0 -174 71t-64 202q0 55 10.5 112t35.5 115.5t62 104t95.5 74t129.5 28.5zM401 645q-59 0 -106.5 -26t-77 -66t-49 -92.5t-27.5 -102.5t-8 -98q0 -110 47 -165t130 -55q60 0 108.5 26.5t77.5 66.5t48 93.5t26.5 102.5t7.5 98q0 110 -46 164t-131 54z" />
    <glyph glyph-name="uni022D" unicode="&#x22d;" horiz-adv-x="569" 
d="M458 738h-240l7 47h240zM387 601q-30 0 -63.5 23t-49.5 23q-18 0 -31.5 -9.5t-31.5 -32.5l-33 22q45 66 97 66q27 0 60.5 -22.5t50.5 -22.5q30 0 63 45l34 -22q-44 -70 -96 -70zM321 534q90 0 139.5 -55t49.5 -155q0 -53 -13.5 -107.5t-42 -107.5t-82 -86.5t-123.5 -33.5
q-91 0 -140.5 56t-49.5 156q0 54 14 108.5t42.5 106.5t82 85t123.5 33zM319 486q-55 0 -96 -29t-62.5 -75.5t-31.5 -93.5t-10 -92q0 -78 33.5 -118t97.5 -40q54 0 95 29t62.5 75t31.5 93t10 93q0 158 -130 158z" />
    <glyph glyph-name="uni022E" unicode="&#x22e;" horiz-adv-x="688" 
d="M430 879q21 0 31.5 -13t7.5 -32q-2 -17 -14.5 -28t-30.5 -11q-20 0 -31 13t-8 32q2 17 14.5 28t30.5 11zM404 696q110 0 173 -70.5t63 -201.5q0 -73 -17.5 -144.5t-54 -139t-103.5 -109.5t-156 -42q-110 0 -174 71t-64 202q0 55 10.5 112t35.5 115.5t62 104t95.5 74
t129.5 28.5zM401 645q-59 0 -106.5 -26t-77 -66t-49 -92.5t-27.5 -102.5t-8 -98q0 -110 47 -165t130 -55q60 0 108.5 26.5t77.5 66.5t48 93.5t26.5 102.5t7.5 98q0 110 -46 164t-131 54z" />
    <glyph glyph-name="uni022F" unicode="&#x22f;" horiz-adv-x="569" 
d="M351 753q21 0 31.5 -13t7.5 -32q-2 -17 -14.5 -28t-30.5 -11q-20 0 -31 13t-8 32q2 17 14.5 28t30.5 11zM321 534q90 0 139.5 -55t49.5 -155q0 -53 -13.5 -107.5t-42 -107.5t-82 -86.5t-123.5 -33.5q-91 0 -140.5 56t-49.5 156q0 54 14 108.5t42.5 106.5t82 85t123.5 33z
M319 486q-55 0 -96 -29t-62.5 -75.5t-31.5 -93.5t-10 -92q0 -78 33.5 -118t97.5 -40q54 0 95 29t62.5 75t31.5 93t10 93q0 158 -130 158z" />
    <glyph glyph-name="uni0230" unicode="&#x230;" horiz-adv-x="688" 
d="M546 878h-240l7 47h240zM420 826q21 0 31.5 -13t7.5 -32q-2 -17 -14.5 -28t-30.5 -11q-20 0 -31 13t-8 32q2 17 14.5 28t30.5 11zM404 696q110 0 173 -70.5t63 -201.5q0 -73 -17.5 -144.5t-54 -139t-103.5 -109.5t-156 -42q-110 0 -174 71t-64 202q0 55 10.5 112
t35.5 115.5t62 104t95.5 74t129.5 28.5zM401 645q-59 0 -106.5 -26t-77 -66t-49 -92.5t-27.5 -102.5t-8 -98q0 -110 47 -165t130 -55q60 0 108.5 26.5t77.5 66.5t48 93.5t26.5 102.5t7.5 98q0 110 -46 164t-131 54z" />
    <glyph glyph-name="uni0231" unicode="&#x231;" horiz-adv-x="569" 
d="M476 757h-240l7 47h240zM345 703q21 0 31.5 -13t7.5 -32q-2 -17 -14.5 -28t-30.5 -11q-20 0 -31 13t-8 32q2 17 14.5 28t30.5 11zM321 534q90 0 139.5 -55t49.5 -155q0 -53 -13.5 -107.5t-42 -107.5t-82 -86.5t-123.5 -33.5q-91 0 -140.5 56t-49.5 156q0 54 14 108.5
t42.5 106.5t82 85t123.5 33zM319 486q-55 0 -96 -29t-62.5 -75.5t-31.5 -93.5t-10 -92q0 -78 33.5 -118t97.5 -40q54 0 95 29t62.5 75t31.5 93t10 93q0 158 -130 158z" />
    <glyph glyph-name="uni0232" unicode="&#x232;" horiz-adv-x="520" 
d="M454 802h-240l7 47h240zM567 685l-275 -417l-38 -268h-60l38 267l-159 418h63l131 -363l233 363h67z" />
    <glyph glyph-name="uni0233" unicode="&#x233;" horiz-adv-x="465" 
d="M406 676h-240l7 47h240zM487 523l-249 -527q-43 -90 -96 -136t-147 -64l-3 46q77 18 114 51t76 108l-23 -1l-107 523h61l90 -479l223 479h61z" />
    <glyph glyph-name="uni0234" unicode="&#x234;" horiz-adv-x="373" 
d="M284 202q41 0 66.5 -23.5t25.5 -61.5q0 -57 -47.5 -92.5t-117.5 -35.5q-49 0 -81 19l-49 -74l-38 18l57 83q-26 36 -18 98l85 603l58 7l-87 -618q-2 -23 -1 -31q33 55 67.5 81.5t79.5 26.5zM217 40q46 0 76.5 20t30.5 56q0 41 -45 41q-29 0 -55 -22.5t-66 -83.5
q18 -11 59 -11z" />
    <glyph glyph-name="uni0235" unicode="&#x235;" horiz-adv-x="696" 
d="M607 202q41 0 66.5 -23.5t25.5 -61.5q0 -57 -47.5 -92.5t-117.5 -35.5q-49 0 -81 19l-49 -74l-38 18l57 83q-27 38 -18 98l33 234q17 118 -74 118q-103 0 -194 -172l-44 -313h-57l74 523h48l-13 -130q84 141 198 141q67 0 98.5 -43.5t21.5 -121.5l-35 -244q-2 -12 -2 -32
q34 56 68.5 82.5t79.5 26.5zM540 40q46 0 76.5 20t30.5 56q0 41 -45 41q-29 0 -55 -22.5t-66 -83.5q18 -11 59 -11z" />
    <glyph glyph-name="uni0236" unicode="&#x236;" horiz-adv-x="378" 
d="M289 202q41 0 66.5 -23.5t25.5 -61.5q0 -57 -47.5 -92.5t-117.5 -35.5q-49 0 -81 19l-49 -74l-38 18l57 83q-27 38 -18 98l48 343h-88l7 47h89l29 127l46 5l-19 -132h134l-13 -47h-127l-50 -352q-2 -12 -2 -31q34 56 68.5 82.5t79.5 26.5zM222 40q46 0 76.5 20t30.5 56
q0 41 -45 41q-29 0 -55 -22.5t-66 -83.5q18 -11 59 -11z" />
    <glyph glyph-name="uni0237" unicode="&#x237;" horiz-adv-x="267" 
d="M199 523l-72 -506q-13 -98 -49 -141t-119 -80l-17 44q61 28 89 63t39 116l71 504h58z" />
    <glyph glyph-name="uni0238" unicode="&#x238;" horiz-adv-x="847" 
d="M639 534q71 0 110 -51t39 -146q0 -88 -25 -165.5t-78.5 -130t-125.5 -52.5q-85 0 -128 95l-19 -84h-43l6 86q-65 -97 -158 -97q-71 0 -112.5 55t-41.5 150q0 135 65 237.5t170 102.5q85 0 128 -83l40 285l58 7l-41 -292q69 83 156 83zM384 150l35 252q-24 43 -50 63.5
t-64 20.5q-57 0 -99.5 -46.5t-62 -111.5t-19.5 -134q0 -77 27.5 -117t76.5 -40q45 0 82 27t74 86zM553 37q57 0 98.5 49t59 115t17.5 137q0 148 -100 148q-76 0 -153 -90l-35 -255q21 -55 47 -79.5t66 -24.5z" />
    <glyph glyph-name="uni0239" unicode="&#x239;" horiz-adv-x="846" 
d="M635 534q79 0 117 -61.5t28 -173.5q-10 -137 -70 -223.5t-155 -86.5q-89 0 -129 90l-39 -276l-59 -8l39 282q-62 -88 -156 -88q-76 0 -118 65.5t-32 176.5q9 128 74 215.5t162 87.5q85 0 126 -85l16 74h41l-5 -74q71 85 160 85zM377 143l36 254q-41 89 -112 89
q-72 0 -121.5 -75t-58.5 -182q-8 -93 19.5 -142.5t82.5 -49.5q85 0 154 106zM720 301q9 92 -16 138.5t-79 46.5q-76 0 -155 -92l-35 -253q34 -103 112 -103q73 0 118 74t55 189z" />
    <glyph glyph-name="uni023A" unicode="&#x23a;" horiz-adv-x="562" 
d="M450 0l-34 187h-159l-104 -257l-33 8l101 249h-96l-86 -187h-60l324 685h75l14 -74l54 134l33 -9l-75 -186l105 -550h-59zM148 237h93l114 283l-21 118zM277 237h130l-41 222z" />
    <glyph glyph-name="uni023B" unicode="&#x23b;" horiz-adv-x="547" 
d="M533 595q-34 29 -69 41l-234 -578q33 -16 79 -16q49 0 84.5 15t75.5 44l28 -43q-85 -69 -192 -69q-53 0 -95 18l-32 -77l-33 8l35 85q-109 67 -109 240q0 73 18.5 145.5t55.5 138.5t103 107.5t151 41.5q31 0 51 -4l22 53l32 -9l-21 -52q44 -15 86 -52zM201 76l230 567
q-20 2 -30 2q-71 0 -125.5 -37t-84 -96.5t-44 -123t-14.5 -128.5q0 -129 68 -184z" />
    <glyph glyph-name="uni023C" unicode="&#x23c;" horiz-adv-x="466" 
d="M428 444q-26 23 -51 32l-178 -428q21 -8 52 -8q63 0 128 44l26 -41q-73 -54 -158 -54q-33 0 -68 10l-28 -69l-30 8l30 74q-92 49 -92 188q0 55 14.5 110.5t43.5 107t81.5 84t120.5 32.5q27 0 47 -4l25 62l30 -9l-25 -61q36 -14 64 -42zM172 62l174 421q-16 2 -27 2
q-54 0 -94.5 -28t-62.5 -73t-32.5 -92.5t-10.5 -94.5q0 -95 53 -135z" />
    <glyph glyph-name="uni023D" unicode="&#x23d;" horiz-adv-x="487" 
d="M157 54h285l-16 -54h-337l48 338h-99l7 50h99l42 297h59l-41 -297h105l-7 -50h-105z" />
    <glyph glyph-name="uni023E" unicode="&#x23e;" horiz-adv-x="492" 
d="M527 632h-114l-125 -280l-50 -352h-58l22 161l-103 -231l-29 11l148 332l51 359h-203l8 53h328l27 60l29 -11l-22 -49h106zM303 464l76 168h-52z" />
    <glyph glyph-name="uni023F" unicode="&#x23f;" horiz-adv-x="466" 
d="M255 301q78 -24 112.5 -60t34.5 -93q0 -70 -55 -114.5t-141 -44.5q-39 0 -79 14q27 -22 48 -53t31 -53t26.5 -38t39.5 -16q31 0 62 17l19 -39q-36 -26 -86 -26q-34 0 -56.5 16t-38.5 44.5t-32.5 60.5t-49 72.5t-76.5 71.5l28 33q42 -28 77.5 -41.5t83.5 -13.5
q65 0 102 29t37 77q0 42 -25.5 65.5t-94.5 45.5q-77 24 -108.5 56.5t-31.5 82.5q0 58 50 99t133 41q93 0 161 -59l-31 -35q-60 46 -130 46q-57 0 -90.5 -24t-33.5 -65q0 -34 25 -55.5t89 -40.5z" />
    <glyph glyph-name="uni0240" unicode="&#x240;" horiz-adv-x="419" 
d="M289 -205q-33 0 -57.5 13.5t-38.5 34.5t-32 46t-36.5 47.5t-53.5 40.5t-81 23l7 45l348 428h-264l7 50h335l-6 -45l-363 -445q44 -9 77 -32.5t50.5 -49.5t32.5 -50.5t34.5 -41t45.5 -16.5q32 0 61 17l20 -39q-38 -26 -86 -26z" />
    <glyph glyph-name="uni0241" unicode="&#x241;" horiz-adv-x="461" 
d="M121 0l43 305l70 18q167 41 167 194q0 61 -32.5 94.5t-94.5 33.5q-86 0 -179 -70l-30 39q101 82 213 82q87 0 137 -48t50 -128q0 -189 -209 -239l-37 -9l-39 -272h-59z" />
    <glyph glyph-name="uni0242" unicode="&#x242;" horiz-adv-x="428" 
d="M91 0l26 185l73 19q145 37 145 164q0 55 -30.5 85t-85.5 30q-45 0 -79 -14.5t-74 -42.5l-30 38q88 70 187 70q80 0 126.5 -45.5t46.5 -119.5q0 -82 -49 -134t-136 -73l-41 -9l-21 -153h-58z" />
    <glyph glyph-name="uni0243" unicode="&#x243;" horiz-adv-x="598" 
d="M396 362q141 -18 141 -144q0 -43 -13.5 -79.5t-43.5 -69t-85.5 -51t-131.5 -18.5h-187l25 175h-90l7 47h89l66 463h169q96 0 152 -38t56 -113q0 -69 -42.5 -114.5t-111.5 -57.5zM345 635h-120l-35 -251h132q78 0 122.5 41t44.5 108q0 102 -144 102zM267 50q114 0 161 48
t47 121q0 60 -40 88.5t-108 28.5h-144l-16 -114h176l-7 -47h-176l-17 -125h124z" />
    <glyph glyph-name="uni0244" unicode="&#x244;" horiz-adv-x="670" 
d="M668 558l-7 -45h-65l-42 -301q-15 -102 -79.5 -162.5t-173.5 -60.5q-111 0 -160 62t-35 165l42 297h-65l6 45h65l18 127h60l-18 -127h328l18 127h60l-18 -127h66zM495 221l41 292h-328l-42 -296q-24 -176 137 -176q85 0 132.5 47.5t59.5 132.5z" />
    <glyph glyph-name="uni0245" unicode="&#x245;" horiz-adv-x="562" 
d="M378 685l131 -685h-62l-113 636l-294 -636h-61l324 685h75z" />
    <glyph glyph-name="uni0246" unicode="&#x246;" horiz-adv-x="509" 
d="M502 635h-59l-103 -255h88l-6 -50h-102l-113 -280h227l-8 -50h-239l-29 -70l-33 8l25 62h-76l96 685h258l24 60l32 -9l-21 -51h53zM304 380l103 255h-185l-36 -255h118zM171 50l113 280h-104l-39 -280h30z" />
    <glyph glyph-name="uni0247" unicode="&#x247;" horiz-adv-x="519" 
d="M481 408q0 -136 -213 -182l-73 -176q27 -11 58 -11q73 0 147 53l27 -41q-87 -62 -178 -62q-41 0 -74 12l-29 -71l-30 8l31 75q-88 51 -88 186q0 58 15 114.5t45 107t82.5 82t119.5 31.5q22 0 40 -3l25 61l30 -9l-25 -59q43 -15 66.5 -45.5t23.5 -70.5zM321 486
q-37 0 -68.5 -14t-53 -36.5t-38 -54t-26 -63.5t-13.5 -67q74 6 131 18l89 216q-7 1 -21 1zM420 406q0 51 -48 71l-82 -198q130 37 130 127zM168 65l64 154q-47 -8 -113 -13v-6q0 -95 49 -135z" />
    <glyph glyph-name="uni0248" unicode="&#x248;" horiz-adv-x="300" 
d="M301 368l-7 -50h-103l-31 -228q-13 -89 -53 -132.5t-130 -76.5l-13 45q71 30 99 65t38 106l31 221h-101l7 50h101l45 317h59l-45 -317h103z" />
    <glyph glyph-name="uni0249" unicode="&#x249;" horiz-adv-x="300" 
d="M211 669q-20 0 -31 13t-8 32q2 17 14.5 28t30.5 11q21 0 31.5 -13t7.5 -32q-2 -17 -14.5 -28t-30.5 -11zM284 271l-7 -47h-103l-29 -207q-10 -68 -32 -110t-51.5 -64t-85.5 -47l-16 44q61 28 88.5 63t39.5 116l29 205h-104l7 47h103l36 252h57l-35 -252h103z" />
    <glyph glyph-name="uni024A" unicode="&#x24a;" horiz-adv-x="659" 
d="M632 -132l21 -41q-48 -32 -105 -32q-58 0 -87.5 35t-20.5 101l10 69l9 60q-71 -71 -171 -71q-98 0 -158 68t-60 193q0 109 36 209.5t109 168.5t167 68q97 0 157 -74l14 63h52l-95 -685l-11 -74q-12 -82 53 -82q38 0 80 24zM294 40q99 0 173 76l63 457q-57 72 -147 72
q-79 0 -138.5 -63.5t-86 -151.5t-26.5 -181q0 -105 44 -157t118 -52z" />
    <glyph glyph-name="uni024B" unicode="&#x24b;" horiz-adv-x="566" 
d="M484 -149l12 -43q-28 -13 -60 -13q-43 0 -65 26t-15 76l15 104l11 77q-63 -89 -160 -89q-78 0 -121 54t-43 149q0 57 15 114t45 109.5t84.5 85.5t124.5 33q86 0 169 -43l-83 -598q-4 -27 3.5 -38.5t28.5 -11.5q15 0 39 8zM233 37q86 0 158 111l44 315q-48 24 -107 24
q-54 0 -96.5 -28.5t-66 -74t-35 -94.5t-11.5 -98q0 -76 29.5 -115.5t84.5 -39.5z" />
    <glyph glyph-name="uni024C" unicode="&#x24c;" horiz-adv-x="591" 
d="M557 525q0 -72 -42.5 -129.5t-137.5 -79.5l143 -316h-65l-136 307h-139l-43 -307h-60l44 307h-91l7 49h90l47 329h163q220 0 220 -160zM305 356q53 0 92 15.5t59 41.5t29.5 54t9.5 59q0 57 -37.5 83.5t-120.5 26.5h-111l-39 -280h118z" />
    <glyph glyph-name="uni024D" unicode="&#x24d;" horiz-adv-x="383" 
d="M357 534q27 0 50 -7l-16 -54q-20 5 -42 5q-54 0 -92.5 -43.5t-73.5 -130.5h105l-7 -45h-106l-37 -259h-58l37 259h-100l8 45h98l31 219h50l-14 -127q63 138 167 138z" />
    <glyph glyph-name="uni024E" unicode="&#x24e;" horiz-adv-x="523" 
d="M509 595h48l-7 -45h-71l-185 -282l-38 -268h-61l38 267l-107 283h-70l6 45h47l-35 90h64l32 -90h274l58 90h66zM269 322l146 228h-229z" />
    <glyph glyph-name="uni024F" unicode="&#x24f;" horiz-adv-x="473" 
d="M490 523l-66 -139h48l-7 -45h-62l-162 -343q-43 -90 -96 -136t-147 -64l-3 46q77 18 114 51t77 108l-24 -1l-69 339h-64l7 45h48l-28 139h61l26 -139h222l64 139h61zM207 44l137 295h-192z" />
    <glyph glyph-name="uni0250" unicode="&#x250;" horiz-adv-x="531" 
d="M149 208l-7 -52q-8 -64 14.5 -91t86.5 -27q58 0 146 31l12 -45q-91 -35 -167 -35q-174 0 -150 167l36 253q6 31 0 53t-31 32l16 40q68 -16 69 -87q67 87 173 87q67 0 105.5 -36t38.5 -97q0 -92 -67 -142.5t-174 -50.5h-101zM337 488q-98 0 -163 -97l-19 -140h91
q86 0 135 38.5t49 110.5q0 43 -24.5 65.5t-68.5 22.5z" />
    <glyph glyph-name="uni0251" unicode="&#x251;" horiz-adv-x="559" 
d="M437 81q0 -37 33 -51l-16 -41q-36 7 -53.5 28.5t-16.5 66.5q-67 -95 -162 -95q-78 0 -121 54t-43 149q0 58 17 117t47.5 110t80 83t108.5 32q92 0 125 -83l19 72h46l-61 -409q-3 -18 -3 -33zM388 148l35 231q-24 107 -110 107q-61 0 -107 -47t-66.5 -112.5t-20.5 -134.5
q0 -76 29.5 -115.5t84.5 -39.5q85 0 155 111z" />
    <glyph glyph-name="uni0252" unicode="&#x252;" horiz-adv-x="559" 
d="M337 534q78 0 121 -54t43 -149q0 -58 -17 -117t-47.5 -110t-80 -83t-108.5 -32q-92 0 -125 83l-19 -72h-46l61 409q3 18 3 33q0 37 -33 51l16 41q36 -7 53.5 -28.5t16.5 -66.5q67 95 162 95zM246 37q61 0 107 47t66.5 112.5t20.5 134.5q0 76 -29.5 115.5t-84.5 39.5
q-85 0 -155 -111l-35 -231q14 -59 41 -83t69 -24z" />
    <glyph glyph-name="uni0253" unicode="&#x253;" horiz-adv-x="572" 
d="M356 534q76 0 117 -51t41 -147q0 -58 -14.5 -115.5t-44 -111t-84.5 -87t-127 -33.5q-76 0 -172 34l71 499l12 89q9 62 51.5 97t108.5 35q64 0 120 -28l-23 -43q-46 23 -94 23q-93 0 -106 -90l-11 -83h-1l-9 -65q75 77 165 77zM246 37q56 0 99 30t65.5 77.5t33 97
t10.5 98.5q0 146 -111 146q-79 0 -160 -88l-47 -340q53 -21 110 -21z" />
    <glyph glyph-name="uni0254" unicode="&#x254;" horiz-adv-x="465" 
d="M149 -11q-86 0 -148 60l32 34q51 -45 117 -45q93 0 144.5 86t51.5 203q0 158 -126 158q-64 0 -131 -44l-25 40q71 53 160 53q86 0 134 -55t48 -154q0 -139 -69.5 -237.5t-187.5 -98.5z" />
    <glyph glyph-name="uni0255" unicode="&#x255;" horiz-adv-x="478" 
d="M329 218q47 0 73.5 -25.5t26.5 -67.5q0 -63 -49 -99.5t-129 -36.5q-49 0 -88 17l-45 -72l-38 18l46 76q-67 57 -67 172q0 55 14.5 110.5t43.5 107t81.5 84t120.5 32.5q87 0 141 -54l-32 -36q-44 41 -108 41q-44 0 -79.5 -19t-57.5 -49t-37 -69.5t-21 -77.5t-6 -76
q0 -77 37 -117l10 17q38 66 76 95t87 29zM257 40q53 0 86.5 21.5t33.5 63.5q0 47 -51 47q-36 0 -65.5 -25t-69.5 -94q26 -13 66 -13z" />
    <glyph glyph-name="uni0256" unicode="&#x256;" horiz-adv-x="583" 
d="M564 -134l22 -39q-50 -32 -105 -32q-59 0 -89 35t-20 101l10 69l15 103q-69 -114 -173 -114q-76 0 -118.5 55t-42.5 151q0 55 13.5 111t40.5 109t76.5 86t114.5 33q90 0 139 -72l40 281l57 -7l-104 -736l-11 -76q-12 -81 55 -81q39 0 80 23zM233 37q54 0 93.5 36
t81.5 108l32 228q-44 77 -124 77q-51 0 -90.5 -29t-60.5 -75t-31 -94t-10 -96q0 -76 28.5 -115.5t80.5 -39.5z" />
    <glyph glyph-name="uni0257" unicode="&#x257;" horiz-adv-x="582" 
d="M608 743q57 0 100 -35l-28 -36q-31 23 -71 23q-72 0 -84 -85l-12 -87l-73 -523h-50l7 106q-68 -117 -173 -117q-76 0 -118.5 55t-42.5 151q0 55 13.5 111t40.5 109t76.5 86t114.5 33q90 0 139 -72l9 61l12 88q21 132 140 132zM408 181l32 228q-44 77 -124 77
q-51 0 -90.5 -29t-60.5 -75t-31 -94t-10 -96q0 -76 28.5 -115.5t80.5 -39.5q54 0 93.5 36t81.5 108z" />
    <glyph glyph-name="uni0258" unicode="&#x258;" horiz-adv-x="521" 
d="M258 534q102 0 152 -62.5t50 -160.5q0 -136 -70.5 -229t-188.5 -93q-97 0 -166 64l34 35q58 -49 133 -49q70 0 117 45.5t67 120.5q-157 6 -234 45t-77 122q0 71 52 116.5t131 45.5zM135 374q0 -62 61.5 -90t199.5 -33q4 42 4 64q0 76 -35 123.5t-107 47.5q-57 0 -90 -31
t-33 -81z" />
    <glyph glyph-name="uni0259" unicode="&#x259;" horiz-adv-x="519" 
d="M270 534q91 0 140.5 -55t49.5 -155q0 -58 -15 -114.5t-45 -107t-82.5 -82t-119.5 -31.5q-74 0 -117 35.5t-43 90.5q0 95 94.5 141.5t267.5 60.5v6q0 82 -35.5 121.5t-98.5 39.5q-73 0 -147 -53l-27 41q87 62 178 62zM198 37q88 0 137.5 69t61.5 165q-150 -12 -224 -48
t-74 -106q0 -34 25 -57t74 -23z" />
    <glyph glyph-name="uni025A" unicode="&#x25a;" horiz-adv-x="703" 
d="M721 395l21 -39q-47 -33 -106 -33q-57 0 -85.5 33.5t-20.5 90.5l4 27l-93 -45q19 -42 19 -105q0 -58 -15 -114.5t-45 -107t-82.5 -82t-119.5 -31.5q-74 0 -117 35.5t-43 90.5q0 95 94.5 141.5t267.5 60.5v6q0 82 -35.5 121.5t-98.5 39.5q-73 0 -147 -53l-27 41
q87 62 178 62q101 0 150 -67l121 56h56l-11 -72q-10 -80 55 -80q38 0 80 24zM198 37q88 0 137.5 69t61.5 165q-150 -12 -224 -48t-74 -106q0 -34 25 -57t74 -23z" />
    <glyph glyph-name="uni025B" unicode="&#x25b;" horiz-adv-x="470" 
d="M224 -11q-80 0 -128.5 39t-48.5 105q0 57 38 97.5t112 47.5q-92 26 -92 106q0 58 48 104t142 46q91 0 156 -51l-33 -34q-55 38 -123 38q-67 0 -99.5 -31t-32.5 -73q0 -40 28 -63t81 -23h61l-14 -47h-55q-157 0 -157 -117q0 -46 31.5 -70.5t88.5 -24.5q46 0 80 12.5
t76 40.5l27 -39q-85 -63 -186 -63z" />
    <glyph glyph-name="uni025C" unicode="&#x25c;" horiz-adv-x="476" 
d="M252 534q69 0 113 -34.5t44 -92.5q0 -52 -33 -85t-94 -44q56 -7 88 -37.5t32 -82.5q0 -68 -54.5 -118.5t-161.5 -50.5q-112 0 -184 67l33 36q62 -54 151 -54q81 0 118 35t37 86q0 92 -139 92h-63l11 47h51q72 0 110 29t38 77q0 39 -26.5 61t-75.5 22q-43 0 -75.5 -11
t-76.5 -34l-26 36q85 56 183 56z" />
    <glyph glyph-name="uni025D" unicode="&#x25d;" horiz-adv-x="668" 
d="M686 395l22 -39q-49 -33 -107 -33q-57 0 -85.5 33.5t-20.5 90.5l4 27l-92 -44q2 -8 2 -23q0 -52 -33 -85t-94 -44q56 -7 88 -37.5t32 -82.5q0 -68 -54.5 -118.5t-161.5 -50.5q-112 0 -184 67l33 36q62 -54 151 -54q81 0 118 35t37 86q0 92 -139 92h-63l11 47h51
q72 0 110 29t38 77q0 39 -26.5 61t-75.5 22q-43 0 -75.5 -11t-76.5 -34l-26 36q85 56 183 56q99 0 140 -64l114 53h56l-11 -72q-10 -80 55 -80q38 0 80 24z" />
    <glyph glyph-name="uni025E" unicode="&#x25e;" horiz-adv-x="549" 
d="M258 -11q-97 0 -148 55.5t-51 154.5q0 142 72 238.5t196 96.5q69 0 112 -35t43 -93q0 -104 -127 -128q56 -7 88 -37.5t32 -82.5q0 -68 -54.5 -118.5t-162.5 -50.5zM260 38q81 0 118 35t37 86q0 92 -140 92h-33l11 47h21q73 0 111 29t38 77q0 38 -25.5 60t-73.5 22
q-68 0 -115.5 -43t-68.5 -106.5t-21 -139.5q0 -159 141 -159z" />
    <glyph glyph-name="uni025F" unicode="&#x25f;" horiz-adv-x="300" 
d="M284 271l-7 -47h-103l-29 -207q-10 -68 -32 -110t-51.5 -64t-85.5 -47l-16 44q61 28 88.5 63t39.5 116l29 205h-104l7 47h103l36 252h57l-35 -252h103z" />
    <glyph glyph-name="uni0260" unicode="&#x260;" horiz-adv-x="571" 
d="M597 743q57 0 100 -35l-28 -36q-31 23 -71 23q-72 0 -84 -85l-12 -87l-76 -519q-32 -211 -219 -211q-90 0 -173 49l23 44q78 -43 148 -43q142 0 164 160l12 87q-65 -90 -157 -90q-78 0 -122 54t-45 146q0 45 9 89.5t30 89t51.5 79t77 55.5t103.5 21q62 0 115 -24l2 13
l12 88q21 132 140 132zM391 158l45 305q-48 24 -107 24q-55 0 -97 -27t-66 -71t-35.5 -92.5t-11.5 -96.5q0 -73 30 -112.5t83 -39.5q87 0 159 110z" />
    <glyph glyph-name="uni0261" unicode="&#x261;" horiz-adv-x="567" 
d="M329 534q86 0 169 -43l-71 -487q-31 -211 -219 -211q-90 0 -173 49l23 44q80 -43 149 -43q141 0 163 160l13 87q-66 -90 -158 -90q-78 0 -122 54t-44 146q0 56 15 112.5t45.5 107.5t85 82.5t124.5 31.5zM330 487q-55 0 -97 -27t-66 -71t-35.5 -92.5t-11.5 -96.5
q0 -73 30 -112.5t84 -39.5q87 0 158 110l45 305q-50 24 -107 24z" />
    <glyph glyph-name="uni0262" unicode="&#x262;" horiz-adv-x="552" 
d="M332 535q90 0 158 -58l-36 -36q-53 44 -123 44q-66 0 -115.5 -41.5t-73 -105.5t-23.5 -139q0 -160 143 -160q63 0 122 27l23 173h-109v47h173l-33 -249q-87 -46 -180 -46q-94 0 -146.5 53t-52.5 157q0 139 76 236.5t197 97.5z" />
    <glyph glyph-name="uni0263" unicode="&#x263;" horiz-adv-x="467" 
d="M489 523l-254 -471q38 -91 38 -146q0 -52 -27.5 -81.5t-75.5 -29.5q-38 0 -59.5 20.5t-21.5 56.5q0 63 85 183l-122 468h63l94 -427l216 427h64zM221 -94q0 44 -21 108q-60 -92 -60 -140q0 -33 32 -33q49 0 49 65z" />
    <glyph glyph-name="uni0264" unicode="&#x264;" horiz-adv-x="518" 
d="M480 534q36 0 68 -28l-24 -33q-19 15 -39 15q-18 0 -31 -11t-30 -38l-139 -223q40 -80 40 -128q0 -43 -27 -71t-73 -28q-38 0 -59.5 21.5t-21.5 55.5q0 54 78 152l-77 228q-13 42 -43 42q-22 0 -47 -16l-17 37q33 25 71 25q36 0 56.5 -21.5t33.5 -67.5l59 -189l112 192
q27 47 51.5 66.5t58.5 19.5zM274 89q0 31 -25 92q-54 -74 -54 -112q0 -34 32 -34q22 0 34.5 14.5t12.5 39.5z" />
    <glyph glyph-name="uni0265" unicode="&#x265;" horiz-adv-x="577" 
d="M207 -11q-69 0 -100.5 43t-20.5 120l52 371h58l-52 -367q-17 -118 73 -118q102 0 195 172l43 313h58l-102 -723l-57 -7l46 335q-37 -66 -87 -102.5t-106 -36.5z" />
    <glyph glyph-name="uni0266" unicode="&#x266;" horiz-adv-x="582" 
d="M375 534q69 0 100.5 -43t20.5 -120l-52 -371h-58l52 367q17 118 -73 118q-104 0 -195 -172l-44 -313h-57l73 522l13 89q8 62 50.5 97t109.5 35q63 0 119 -28l-23 -43q-46 23 -94 23q-93 0 -105 -90l-12 -83l-18 -127q78 139 193 139z" />
    <glyph glyph-name="uni0267" unicode="&#x267;" horiz-adv-x="582" 
d="M375 534q69 0 100.5 -43t20.5 -120l-52 -371l-11 -73q-9 -65 -47 -98.5t-94 -33.5q-55 0 -98 35l28 36q34 -23 68 -23q74 0 85 85l11 72l52 367q17 118 -73 118q-104 0 -195 -172l-44 -313h-57l73 522l12 89q9 62 51.5 97t109.5 35q63 0 119 -28l-23 -43q-46 23 -94 23
q-93 0 -106 -90l-11 -83l-18 -127q78 139 193 139z" />
    <glyph glyph-name="uni0268" unicode="&#x268;" horiz-adv-x="300" 
d="M209 669q-20 0 -31 13t-8 32q2 17 14.5 28t30.5 11q21 0 31.5 -13t7.5 -32q-2 -17 -14.5 -28t-30.5 -11zM288 304l-7 -45h-103l-37 -259h-58l37 259h-103l8 45h101l31 219h58l-31 -219h104z" />
    <glyph glyph-name="uni0269" unicode="&#x269;" horiz-adv-x="281" 
d="M156 -11q-45 0 -66 27t-13 80l60 427h58l-62 -435q-3 -26 4 -38t29 -12q17 0 38 8l13 -43q-31 -14 -61 -14z" />
    <glyph glyph-name="uni026A" unicode="&#x26a;" horiz-adv-x="310" 
d="M317 478h-103l-61 -433h103l-6 -45h-264l6 45h103l61 433h-103l7 45h263z" />
    <glyph glyph-name="uni026B" unicode="&#x26b;" horiz-adv-x="333" 
d="M192 321l-33 -233q-6 -49 33 -49q20 0 38 8l13 -44q-31 -14 -60 -14q-95 0 -80 108l36 256q-24 14 -42 14q-39 0 -79 -48l-35 22q54 75 118 75q23 0 45 -10l47 330l58 7l-52 -369q27 -16 46 -16q37 0 77 46l34 -23q-55 -72 -115 -72q-23 0 -49 12z" />
    <glyph glyph-name="uni026C" unicode="&#x26c;" horiz-adv-x="328" 
d="M209 39q20 0 38 8l13 -44q-31 -14 -60 -14q-95 0 -80 108l24 169q-57 2 -87.5 25.5t-30.5 66.5q0 44 32 70.5t81 26.5q15 0 31 -2l40 283l58 7l-61 -434q34 1 84 10l1 -40q-48 -10 -91 -11l-25 -180q-6 -49 33 -49zM76 358q0 -49 74 -49l14 103q-10 3 -25 3
q-29 0 -46 -15t-17 -42z" />
    <glyph glyph-name="uni026D" unicode="&#x26d;" horiz-adv-x="270" 
d="M251 -134l22 -39q-50 -32 -105 -32q-59 0 -89 35t-20 101l10 69l104 736l58 7l-104 -743l-11 -76q-12 -81 55 -81q39 0 80 23z" />
    <glyph glyph-name="uni026E" unicode="&#x26e;" horiz-adv-x="626" 
d="M606 523l-6 -45l-256 -278h6q209 0 209 -163q0 -108 -69 -175t-179 -67q-115 0 -184 85l36 30q62 -66 148 -66q87 0 137.5 54t50.5 139q0 63 -38.5 90t-120.5 27h-66l6 46l249 273h-341l-54 -385q-6 -49 33 -49q19 0 38 8l13 -44q-31 -14 -61 -14q-45 0 -66 27t-13 81
l90 639l58 7l-31 -220h411z" />
    <glyph glyph-name="uni026F" unicode="&#x26f;" horiz-adv-x="849" 
d="M722 523h58l-74 -523h-49l14 130q-83 -141 -186 -141q-51 0 -81 34t-29 96q-81 -130 -183 -130q-59 0 -88 43.5t-19 118.5l53 372h57l-52 -367q-16 -118 66 -118q83 0 177 169l44 316h58l-52 -367q-16 -118 66 -118q84 0 177 172z" />
    <glyph glyph-name="uni0270" unicode="&#x270;" horiz-adv-x="844" 
d="M722 523h58l-102 -723l-60 -7l48 328q-80 -132 -181 -132q-52 0 -81 35t-28 96q-83 -131 -184 -131q-59 0 -88 43.5t-19 118.5l53 372h57l-52 -367q-16 -118 66 -118q85 0 178 172l43 313h58l-52 -367q-16 -118 66 -118q84 0 177 172z" />
    <glyph glyph-name="uni0271" unicode="&#x271;" horiz-adv-x="849" 
d="M656 534q60 0 89 -43.5t18 -118.5l-52 -372l-10 -73q-9 -65 -47 -98.5t-94 -33.5t-99 35l28 36q35 -23 69 -23q73 0 85 85l11 72h-1l52 367q18 118 -65 118q-85 0 -177 -170l-45 -315h-57l52 367q16 118 -66 118q-86 0 -177 -172l-44 -313h-57l74 523h48l-13 -129
q82 140 185 140q51 0 81 -34t29 -95q83 129 183 129z" />
    <glyph glyph-name="uni0272" unicode="&#x272;" horiz-adv-x="581" 
d="M376 534q67 0 99 -43.5t21 -121.5l-52 -369h-58l52 367q17 118 -74 118q-103 0 -194 -172l-44 -313l-10 -73q-9 -65 -47 -98.5t-94 -33.5t-99 35l28 36q35 -23 69 -23q73 0 85 85l11 72l74 523h48l-13 -130q84 141 198 141z" />
    <glyph glyph-name="uni0273" unicode="&#x273;" horiz-adv-x="581" 
d="M568 -134l22 -39q-50 -32 -105 -32q-59 0 -89 35t-20 101l10 69l52 367q17 118 -74 118q-103 0 -194 -172l-44 -313h-57l74 523h48l-13 -130q84 141 198 141q67 0 99 -43.5t21 -121.5l-52 -369h-1l-10 -76q-12 -81 55 -81q39 0 80 23z" />
    <glyph glyph-name="uni0274" unicode="&#x274;" horiz-adv-x="587" 
d="M518 523l-74 -523h-73l-190 464q-3 -76 -23 -208l-36 -256h-53l74 523h73l190 -465q2 64 16 165l42 300h54z" />
    <glyph glyph-name="uni0275" unicode="&#x275;" horiz-adv-x="569" 
d="M321 534q90 0 139.5 -55t49.5 -155q0 -53 -13.5 -107.5t-42 -107.5t-82 -86.5t-123.5 -33.5q-91 0 -140.5 56t-49.5 156q0 54 14 108.5t42.5 106.5t82 85t123.5 33zM319 486q-80 0 -126 -57t-63 -140h317q2 17 2 39q0 158 -130 158zM250 38q81 0 127.5 59t63.5 145h-319
q-3 -24 -3 -46q0 -78 33.5 -118t97.5 -40z" />
    <glyph glyph-name="uni0276" unicode="&#x276;" horiz-adv-x="725" 
d="M719 523l-13 -47h-254q60 -53 58 -168q0 -3 -0.5 -7t-0.5 -6h139l-7 -47h-137q-22 -135 -113 -201h266l-7 -47h-333q-39 -11 -70 -11q-89 0 -138.5 56t-49.5 156q0 54 14 108.5t42.5 106.5t82 85t123.5 33q35 0 71 -11h327zM250 38q54 0 95 29t62.5 75t31.5 93t10 93
q0 158 -130 158q-55 0 -96 -29t-62.5 -75.5t-31.5 -93.5t-10 -92q0 -78 33.5 -118t97.5 -40z" />
    <glyph glyph-name="uni0277" unicode="&#x277;" horiz-adv-x="748" 
d="M411 534q136 0 204.5 -64t68.5 -176q0 -78 -21.5 -145t-71 -113.5t-118.5 -46.5q-119 0 -120 120q-40 -120 -152 -120q-67 0 -106.5 44.5t-39.5 135.5q1 171 94.5 268t261.5 97zM471 38q54 0 90 39t50.5 94t14.5 122q0 193 -219 193q-144 0 -218.5 -85t-74.5 -234
q0 -129 94 -129q105 0 126 143l17 127l58 8l-19 -139q-17 -139 81 -139z" />
    <glyph glyph-name="uni0278" unicode="&#x278;" horiz-adv-x="620" 
d="M572 312q1 -133 -71 -218t-200 -89l-28 -202l-58 -8l30 211q-95 5 -146.5 58.5t-51.5 146.5q0 133 72.5 218t198.5 89l31 218l58 7l-32 -226q95 -5 146 -59t51 -146zM253 53l60 418q-99 -7 -152 -78.5t-53 -182.5q0 -151 145 -157zM307 53q99 6 152.5 77.5t53.5 182.5
q-2 151 -147 157z" />
    <glyph glyph-name="uni0279" unicode="&#x279;" horiz-adv-x="371" 
d="M26 -11q-29 0 -50 7l16 54q20 -5 42 -5q55 0 94.5 45t73.5 135l43 298h57l-74 -523h-49l14 127q-63 -138 -167 -138z" />
    <glyph glyph-name="uni027A" unicode="&#x27a;" horiz-adv-x="371" 
d="M245 523l31 220l57 -7l-30 -213h-58zM26 -11q-29 0 -50 7l16 54q20 -5 42 -5q55 0 94.5 45t73.5 135l43 298h57l-74 -523h-49l14 127q-63 -138 -167 -138z" />
    <glyph glyph-name="uni027B" unicode="&#x27b;" horiz-adv-x="371" 
d="M353 -134l22 -39q-50 -32 -105 -32q-59 0 -89 35t-20 101l10 69l18 118q-58 -129 -163 -129q-20 0 -50 7l16 55q21 -6 42 -6q55 0 94.5 45t73.5 135l43 298h58l-74 -523l-11 -76q-12 -81 55 -81q39 0 80 23z" />
    <glyph glyph-name="uni027C" unicode="&#x27c;" horiz-adv-x="372" 
d="M346 534q29 0 50 -7l-16 -54q-20 5 -42 5q-55 0 -94.5 -45t-74.5 -135l-71 -497l-58 -8l104 730h49l-14 -127q63 138 167 138z" />
    <glyph glyph-name="uni027D" unicode="&#x27d;" horiz-adv-x="371" 
d="M345 534q29 0 50 -7l-16 -54q-20 5 -42 5q-55 0 -94.5 -45t-73.5 -135l-43 -298l-10 -76q-12 -81 55 -81q39 0 80 23l22 -39q-50 -32 -105 -32q-59 0 -89 35t-20 101l10 69l74 523h49l-14 -127q63 138 167 138z" />
    <glyph glyph-name="uni027E" unicode="&#x27e;" horiz-adv-x="344" 
d="M261 533q56 0 99 -35l-28 -36q-34 23 -69 23q-73 0 -85 -85l-10 -72l-46 -328h-58l46 328l10 73q10 66 47.5 99t93.5 33z" />
    <glyph glyph-name="uni027F" unicode="&#x27f;" horiz-adv-x="347" 
d="M157 534q58 0 88 -35.5t21 -100.5l-11 -69h-57l11 75q11 82 -55 82q-41 0 -80 -23l-23 38q49 33 106 33zM255 329l-47 -329h-58l48 329h57z" />
    <glyph glyph-name="uni0280" unicode="&#x280;" horiz-adv-x="512" 
d="M461 387q0 -124 -147 -162l119 -225h-63l-110 216h-103l-31 -216h-57l74 523h129q189 0 189 -136zM163 263h80q75 0 116.5 32.5t41.5 91.5q0 47 -32 68t-103 21h-73z" />
    <glyph glyph-name="uni0281" unicode="&#x281;" horiz-adv-x="513" 
d="M327 298q103 -29 103 -124q0 -86 -62 -130t-167 -44h-132l74 523h57l-30 -216h104l170 216h64zM202 47q168 0 168 127q0 86 -120 86h-87l-30 -213h69z" />
    <glyph glyph-name="uni0282" unicode="&#x282;" horiz-adv-x="461" 
d="M250 301q78 -24 112.5 -59.5t34.5 -94.5q0 -71 -55 -114.5t-148 -43.5q-73 0 -134 35l-14 -104q-12 -82 55 -82q39 0 81 24l22 -39q-49 -33 -105 -33q-59 0 -88.5 35t-19.5 102l18 133l29 31q77 -53 156 -53q68 0 105.5 29t37.5 77q0 41 -25.5 65t-94.5 46
q-77 25 -108.5 57.5t-31.5 82.5q0 57 50.5 98t134.5 41q91 0 159 -59l-32 -38q-55 49 -127 49q-58 0 -92 -24t-34 -65q0 -34 25 -55.5t89 -40.5z" />
    <glyph glyph-name="uni0283" unicode="&#x283;" horiz-adv-x="281" 
d="M301 743q57 0 100 -35l-28 -36q-31 23 -71 23q-72 0 -84 -85l-12 -87l-74 -523l-10 -73q-9 -65 -47 -98.5t-94 -33.5q-57 0 -98 35l27 36q35 -23 69 -23q73 0 85 85l11 72l74 523l12 88q21 132 140 132z" />
    <glyph glyph-name="uni0284" unicode="&#x284;" horiz-adv-x="300" 
d="M311 743q57 0 100 -35l-28 -36q-31 23 -71 23q-72 0 -83 -85l-13 -87l-67 -476h102l-7 -47h-102q-10 -61 -32.5 -100t-51 -59.5t-82.5 -44.5l-16 44q58 28 85.5 59.5t39.5 100.5h-104l6 47h105l67 476l13 88q9 66 46 99t93 33z" />
    <glyph glyph-name="uni0285" unicode="&#x285;" horiz-adv-x="405" 
d="M142 534q59 0 89 -35.5t20 -100.5l-10 -69h-58l11 75q12 82 -55 82q-39 0 -80 -23l-22 38q47 33 105 33zM241 329l-19 -135h-58l19 135h58zM263 -11q-59 0 -89 35.5t-20 101.5l10 68h58l-11 -75q-12 -82 55 -82q39 0 80 23l22 -38q-47 -33 -105 -33z" />
    <glyph glyph-name="uni0286" unicode="&#x286;" horiz-adv-x="292" 
d="M312 743q55 0 100 -35l-28 -36q-31 23 -71 23q-72 0 -84 -85l-12 -87l-75 -541q49 -13 98 -37l-18 -34q-51 22 -87 30q-34 -146 -166 -146q-49 0 -77.5 25.5t-28.5 67.5q0 52 40.5 82t101.5 30q47 0 80 -7l74 530l13 88q21 132 140 132zM-28 -162q45 0 70 28t36 87
q-40 6 -73 6q-44 0 -68.5 -18.5t-24.5 -50.5q0 -24 15.5 -38t44.5 -14z" />
    <glyph glyph-name="uni0287" unicode="&#x287;" horiz-adv-x="339" 
d="M292 47l-7 -47h-89l-29 -127l-46 -5l19 132h-134l13 47h127l49 347q7 46 -7.5 68t-53.5 22q-37 0 -84 -25l-20 43q56 32 113 32q60 0 90 -36.5t20 -102.5l-49 -348h88z" />
    <glyph glyph-name="uni0288" unicode="&#x288;" horiz-adv-x="339" 
d="M126 0l-11 -76q-11 -81 55 -81q41 0 80 23l23 -39q-50 -32 -106 -32q-58 0 -88 35t-21 101l10 69l67 476h-88l7 47h89l29 127l46 5l-19 -132h134l-13 -47h-127z" />
    <glyph glyph-name="uni0289" unicode="&#x289;" horiz-adv-x="599" 
d="M584 384l-7 -45h-86l-48 -339h-48l14 133q-77 -144 -193 -144q-68 0 -100.5 42.5t-21.5 119.5l26 188h-86l7 45h86l19 139h58l-19 -139h255l19 139h58l-20 -139h87zM415 203l19 136h-256l-26 -186q-17 -116 75 -116q102 0 188 166z" />
    <glyph glyph-name="uni028A" unicode="&#x28a;" horiz-adv-x="569" 
d="M249 -11q-89 0 -140.5 54.5t-51.5 147.5q0 168 136 284h-88l6 48h143l-6 -48q-131 -125 -131 -284q0 -76 34.5 -115t98.5 -39q94 0 144.5 73.5t50.5 177.5q0 110 -63 190l5 45h143l-7 -48h-88q70 -83 70 -189q0 -124 -71 -210.5t-185 -86.5z" />
    <glyph glyph-name="uni028B" unicode="&#x28b;" horiz-adv-x="573" 
d="M232 -11q-73 0 -115 45.5t-30 125.5l51 363h57l-51 -362q-9 -62 16 -92.5t75 -30.5q70 0 121 53t68 174l23 170q7 50 -34 50q-18 0 -36 -8l-13 43q26 14 59 14q43 0 65.5 -26.5t15.5 -77.5l-23 -167q-19 -139 -86.5 -206.5t-162.5 -67.5z" />
    <glyph glyph-name="uni028C" unicode="&#x28c;" horiz-adv-x="468" 
d="M-22 0l254 523h71l112 -523h-63l-91 471l-219 -471h-64z" />
    <glyph glyph-name="uni028D" unicode="&#x28d;" horiz-adv-x="696" 
d="M-11 0l200 523h78l49 -469l183 469h77l57 -523h-57l-45 478l-188 -478h-68l-51 479l-178 -479h-57z" />
    <glyph glyph-name="uni028E" unicode="&#x28e;" horiz-adv-x="465" 
d="M-22 0l250 527q48 101 104 150t151 67l4 -45q-79 -18 -120.5 -55.5t-83.5 -121.5l23 1l107 -523h-61l-90 479l-222 -479h-62z" />
    <glyph glyph-name="uni028F" unicode="&#x28f;" horiz-adv-x="427" 
d="M457 523l-222 -317l-29 -206h-58l30 205l-134 318h60l107 -272l181 272h65z" />
    <glyph glyph-name="uni0290" unicode="&#x290;" horiz-adv-x="419" 
d="M470 -134l22 -39q-48 -32 -105 -32q-59 0 -89 35t-20 101l10 69h-298l7 45l347 428h-263l7 50h335l-6 -45l-347 -428h282l-6 -50l-11 -76q-12 -81 55 -81q39 0 80 23z" />
    <glyph glyph-name="uni0291" unicode="&#x291;" horiz-adv-x="430" 
d="M442 123q0 -123 -201 -123q-9 -39 -19 -113l-45 4q6 55 18 109h-205l7 45l349 428h-265l7 50h335l-6 -45l-350 -428h141q19 75 57 114.5t91 39.5q38 0 62 -22t24 -59zM255 50q67 0 102 16t35 56t-40 40q-68 0 -97 -112z" />
    <glyph glyph-name="uni0292" unicode="&#x292;" horiz-adv-x="459" 
d="M439 523l-7 -45l-256 -278h8q208 0 208 -164q0 -107 -69 -174t-179 -67q-116 0 -186 87l36 30q61 -68 149 -68t138 53.5t50 138.5q0 63 -38 90.5t-120 27.5h-66l6 46l249 273h-298l7 50h368z" />
    <glyph glyph-name="uni0293" unicode="&#x293;" horiz-adv-x="460" 
d="M440 523l-6 -45l-256 -278h7q208 0 208 -162q0 -82 -45 -141.5t-128 -85.5l18 -55l-44 -17l-19 62q-35 -6 -75 -6q-81 0 -123.5 30.5t-42.5 83.5q0 47 33.5 80t83.5 33q58 0 93.5 -36t60.5 -127q63 21 95.5 68t32.5 110t-38.5 90t-120.5 27h-66l6 46l250 273h-299l7 50
h368zM-15 -87q0 -69 117 -69q35 0 59 4q-22 75 -46.5 102t-62.5 27q-30 0 -48.5 -18t-18.5 -46z" />
    <glyph glyph-name="uni0294" unicode="&#x294;" horiz-adv-x="433" 
d="M96 0l47 340l65 18q171 47 171 206q0 61 -33.5 95.5t-96.5 34.5q-81 0 -168 -65l-29 35q93 79 201 79q88 0 137 -48.5t49 -129.5q0 -103 -54 -162t-157 -87l-31 -9l-43 -307h-58z" />
    <glyph glyph-name="uni0295" unicode="&#x295;" horiz-adv-x="432" 
d="M263 0h-58l44 307l-25 8q-70 20 -112.5 59t-42.5 117q0 108 68.5 180t175.5 72q105 0 179 -82l-36 -32q-63 65 -142 65q-85 0 -135 -58.5t-49 -144.5q-1 -60 30.5 -89t88.5 -45l61 -17z" />
    <glyph glyph-name="uni0296" unicode="&#x296;" horiz-adv-x="498" 
d="M229 736l57 7l-44 -314l32 -8q154 -37 154 -181q0 -105 -68 -176t-171 -71q-107 0 -184 82l35 31q64 -64 148 -64q81 0 130.5 56.5t49.5 141.5q0 64 -31.5 95t-88.5 46l-67 15z" />
    <glyph glyph-name="uni0297" unicode="&#x297;" horiz-adv-x="486" 
d="M346 534q76 0 135 -55l-32 -34q-43 39 -103 39q-54 0 -98.5 -40.5t-71 -105t-40.5 -137.5t-14 -144q0 -107 32.5 -161t93.5 -54q57 0 123 46l26 -42q-73 -54 -151 -54q-88 0 -136 69.5t-49 195.5q1 115 32 221.5t98 181t155 74.5z" />
    <glyph glyph-name="uni0298" unicode="&#x298;" horiz-adv-x="788" 
d="M452 696q132 0 209 -75t77 -211q0 -181 -104.5 -301t-274.5 -120q-132 0 -209.5 75t-77.5 211q0 179 105.5 300t274.5 121zM451 647q-149 0 -235.5 -107t-86.5 -265q0 -116 61.5 -176.5t168.5 -60.5q152 0 237.5 105.5t85.5 266.5q0 117 -61 177t-170 60zM407 384
q21 0 31.5 -13t7.5 -32q-2 -17 -14.5 -27.5t-30.5 -10.5q-21 0 -31.5 13t-8.5 32q3 17 15.5 27.5t30.5 10.5z" />
    <glyph glyph-name="uni0299" unicode="&#x299;" horiz-adv-x="523" 
d="M476 412q-1 -52 -32 -84.5t-86 -44.5q112 -11 112 -105q0 -89 -64 -133.5t-168 -44.5h-168l72 518q87 16 160 16q83 0 128.5 -32.5t45.5 -89.5zM417 409q0 78 -115 78q-56 0 -106 -9l-26 -176h119q58 0 93 29t35 78zM410 178q0 43 -29.5 61t-87.5 18h-129l-30 -209h101
q77 0 126 30.5t49 99.5z" />
    <glyph glyph-name="uni029A" unicode="&#x29a;" horiz-adv-x="555" 
d="M224 -11q-80 0 -128.5 39.5t-48.5 104.5q0 57 38.5 97.5t113.5 47.5q-91 26 -91 106q0 57 48.5 103.5t139.5 46.5q95 0 147 -57t52 -158q0 -144 -71.5 -237t-199.5 -93zM228 38q69 0 117 40t69 101.5t21 138.5q0 168 -141 168q-65 0 -97.5 -30.5t-32.5 -72.5
q0 -40 27.5 -63t80.5 -23h43l-14 -47h-36q-158 0 -158 -117q0 -46 31.5 -70.5t89.5 -24.5z" />
    <glyph glyph-name="uni029B" unicode="&#x29b;" horiz-adv-x="554" 
d="M590 743q57 0 100 -35l-28 -36q-33 23 -71 23q-72 0 -83 -85l-19 -133l-29 -29q-60 37 -129 37q-99 0 -156 -84t-57 -202q0 -160 144 -160q62 0 122 27l22 173h-109v47h174l-34 -249q-87 -46 -179 -46q-95 0 -147 53t-52 157q-1 138 75.5 236t194.5 98q66 0 107 -26
l15 102q9 66 45.5 99t93.5 33z" />
    <glyph glyph-name="uni029C" unicode="&#x29c;" horiz-adv-x="585" 
d="M385 0l35 246h-259l-35 -246h-57l74 523h57l-32 -228h259l32 228h58l-74 -523h-58z" />
    <glyph glyph-name="uni029D" unicode="&#x29d;" horiz-adv-x="288" 
d="M219 753q21 0 31.5 -13t7.5 -32q-2 -17 -14.5 -28t-30.5 -11q-20 0 -31 13t-8 32q2 17 14.5 28t30.5 11zM217 523l-75 -541q49 -13 98 -37l-18 -34q-51 22 -87 30q-34 -146 -166 -146q-49 0 -77.5 25.5t-28.5 67.5q0 52 40.5 82t101.5 30q47 0 80 -7l75 530h57zM-28 -162
q45 0 70 28t36 87q-40 6 -73 6q-44 0 -68.5 -18.5t-24.5 -50.5q0 -24 15.5 -38t44.5 -14z" />
    <glyph glyph-name="uni029E" unicode="&#x29e;" horiz-adv-x="483" 
d="M-4 0l255 242l-204 281h64l204 -286l-247 -237h-72zM259 -207l102 730h58l-102 -723z" />
    <glyph glyph-name="uni029F" unicode="&#x29f;" horiz-adv-x="415" 
d="M200 523l-67 -472h239l-15 -51h-288l74 523h57z" />
    <glyph glyph-name="uni02A0" unicode="&#x2a0;" horiz-adv-x="567" 
d="M595 743q57 0 100 -35l-28 -36q-31 23 -70 23q-73 0 -84 -85l-12 -87l-100 -723l-59 -7l40 285q-27 -40 -69 -64.5t-90 -24.5q-78 0 -121.5 54t-43.5 149q0 57 15 114t45 109.5t84.5 85.5t124.5 33q60 0 115 -20l4 9h-3l13 88q9 66 46 99t93 33zM391 148l45 318
q-54 21 -107 21q-55 0 -97.5 -28.5t-66 -74t-35 -94.5t-11.5 -98q0 -76 29.5 -115.5t84.5 -39.5q86 0 158 111z" />
    <glyph glyph-name="uni02A1" unicode="&#x2a1;" horiz-adv-x="433" 
d="M228 316l-31 -9l-14 -97h116l-7 -47h-115l-23 -163h-58l23 163h-67l6 47h67l18 130l65 18q171 47 171 206q0 61 -33.5 95.5t-96.5 34.5q-81 0 -168 -65l-29 35q93 79 201 79q88 0 137 -48.5t49 -129.5q0 -103 -54 -162t-157 -87z" />
    <glyph glyph-name="uni02A2" unicode="&#x2a2;" horiz-adv-x="432" 
d="M313 743q105 0 179 -82l-36 -32q-63 65 -142 65q-85 0 -135 -58.5t-49 -144.5q-1 -60 30.5 -89t88.5 -45l61 -17l-18 -130h68l-7 -47h-67l-23 -163h-58l23 163h-115l6 47h116l14 97l-25 8q-70 20 -112.5 59t-42.5 117q0 108 68.5 180t175.5 72z" />
    <glyph glyph-name="uni02A3" unicode="&#x2a3;" horiz-adv-x="868" 
d="M871 523l-6 -45l-352 -428h289l-13 -50h-399l7 106q-68 -117 -173 -117q-76 0 -118.5 55t-42.5 151q0 55 13.5 111t40.5 109t76.5 86t114.5 33q90 0 139 -72l40 281l57 -7l-30 -213h357zM408 181l32 228q-44 77 -124 77q-51 0 -90.5 -29t-60.5 -75t-31 -94t-10 -96
q0 -76 28.5 -115.5t80.5 -39.5q54 0 93.5 36t81.5 108zM446 47l346 426h-286z" />
    <glyph glyph-name="uni02A4" unicode="&#x2a4;" horiz-adv-x="902" 
d="M440 0h-50l7 106q-68 -117 -173 -117q-76 0 -118.5 55t-42.5 151q0 55 13.5 111t40.5 109t76.5 86t114.5 33q90 0 139 -72l40 281l57 -7zM882 523l-6 -45l-256 -278h8q207 0 207 -164q0 -107 -69 -174t-179 -67q-116 0 -186 87l37 30q33 -37 67.5 -52.5t81.5 -15.5
q87 0 137.5 53.5t50.5 138.5q0 63 -38 90.5t-121 27.5h-66l6 46l249 273h-298l7 50h368zM233 37q54 0 93.5 36t81.5 108l32 228q-44 77 -124 77q-51 0 -90.5 -29t-60.5 -75t-31 -94t-10 -96q0 -76 28.5 -115.5t80.5 -39.5z" />
    <glyph glyph-name="uni02A5" unicode="&#x2a5;" horiz-adv-x="878" 
d="M889 123q0 -123 -200 -123q-9 -39 -19 -113l-45 4q5 49 17 109h-252l7 106q-68 -117 -173 -117q-76 0 -118.5 55t-42.5 151q0 55 13.5 111t40.5 109t76.5 86t114.5 33q90 0 139 -72l40 281l57 -7l-30 -213h357l-7 -45l-352 -428h144q19 75 57 114.5t91 39.5
q38 0 61.5 -22t23.5 -59zM408 181l32 228q-44 77 -124 77q-51 0 -90.5 -29t-60.5 -75t-31 -94t-10 -96q0 -76 28.5 -115.5t80.5 -39.5q54 0 93.5 36t81.5 108zM506 473l-60 -426l348 426h-288zM702 50q67 0 102.5 16t35.5 56t-41 40q-67 0 -97 -112z" />
    <glyph glyph-name="uni02A6" unicode="&#x2a6;" horiz-adv-x="660" 
d="M484 486q-52 0 -87 -27.5t-36 -70.5q1 -35 22.5 -53.5t78.5 -36.5q72 -21 104 -51.5t32 -82.5q0 -84 -72.5 -129.5t-201.5 -45.5q-258 0 -230 194l41 293h-88l7 47h90l28 127l46 5l-19 -132h115l-14 -47h-107l-42 -293q-10 -75 29 -109.5t149 -34.5q102 0 155.5 31
t53.5 91q0 35 -22.5 55.5t-82.5 38.5q-69 20 -100 50t-31 80q0 65 54 107t128 42q86 0 155 -60l-30 -35q-62 47 -125 47z" />
    <glyph glyph-name="uni02A7" unicode="&#x2a7;" horiz-adv-x="564" 
d="M584 743q57 0 100 -35l-28 -36q-31 23 -71 23q-72 0 -84 -85l-12 -87h1l-74 -523h-1l-10 -73q-9 -65 -47 -98.5t-94 -33.5q-57 0 -98 35l27 36q35 -23 69 -23q73 0 85 85l11 72l2 16q-68 -27 -133 -27q-160 0 -139 155l47 332h-88l7 47h89l29 127l46 5l-19 -132h233
l12 88q21 132 140 132zM367 62l58 414h-232l-47 -332q-8 -55 12 -80t71 -25q64 0 138 23z" />
    <glyph glyph-name="uni02A8" unicode="&#x2a8;" horiz-adv-x="737" 
d="M590 218q46 0 72 -24.5t26 -65.5q0 -64 -51 -101.5t-127 -37.5q-92 0 -142 55q-88 -55 -164 -55q-68 0 -98 36.5t-20 103.5l49 347h-88l7 47h89l29 127l45 5l-18 -132h134l-14 -47h-127l-49 -348q-6 -47 9.5 -68t61.5 -21q58 0 129 41q-26 50 -26 119q0 137 71.5 236
t189.5 99q84 0 142 -55l-32 -35q-43 40 -109 40q-94 0 -147 -85t-53 -201q0 -46 14 -82q64 55 108.5 78.5t88.5 23.5zM516 40q53 0 86.5 23t33.5 65q0 44 -49 44q-34 0 -70 -20t-102 -73q34 -39 101 -39z" />
    <glyph glyph-name="uni02A9" unicode="&#x2a9;" horiz-adv-x="862" 
d="M657 534q67 0 99 -43.5t21 -121.5l-52 -369h-1l-10 -73q-9 -65 -47 -98.5t-94 -33.5t-99 35l28 36q35 -23 69 -23q73 0 85 85l11 72l52 367q17 118 -74 118q-103 0 -194 -172l-44 -313h-57l67 476h-225l-67 -476h-57l66 476h-91l7 47h91l12 87q9 63 51.5 98t110.5 35
q60 0 118 -35l-24 -40q-46 27 -94 27q-93 0 -105 -89l-12 -83h235h39l-13 -130q84 141 198 141z" />
    <glyph glyph-name="uni02AA" unicode="&#x2aa;" horiz-adv-x="640" 
d="M307 -11q-113 0 -172 47.5t-46 141.5l79 558l59 7l-81 -567q-10 -73 33 -105t131 -32q102 0 155 31t53 91q0 35 -22.5 55.5t-82.5 38.5q-69 20 -100 50t-31 80q0 65 54 107t128 42q87 0 155 -60l-30 -35q-62 47 -126 47q-53 0 -87 -27.5t-35 -70.5q1 -35 22.5 -53.5
t78.5 -36.5q72 -21 104 -51.5t32 -82.5q0 -84 -72.5 -129.5t-198.5 -45.5z" />
    <glyph glyph-name="uni02AB" unicode="&#x2ab;" horiz-adv-x="629" 
d="M632 523l-6 -45l-351 -428h288l-13 -50h-339q-27 -11 -53 -11q-45 0 -66.5 27t-14.5 81l91 639l58 7l-93 -654q-3 -28 5 -39.5t29 -11.5q20 0 38 7l349 428h-263l7 50h334z" />
    <glyph glyph-name="uni02AC" unicode="&#x2ac;" horiz-adv-x="464" 
d="M477 663l-106 -263h-60l-28 216l-89 -216h-61l-34 263h50l22 -222l91 222h56l28 -222l84 222h47zM421 263l-106 -263h-60l-28 216l-89 -216h-61l-35 263h51l21 -222l92 222h56l28 -222l84 222h47z" />
    <glyph glyph-name="uni02AD" unicode="&#x2ad;" horiz-adv-x="325" 
d="M314 400h-45l13 90h-174l-13 -90h-45l19 132h264zM257 0h-45l13 90h-174l-13 -90h-45l19 132h264z" />
    <glyph glyph-name="uni02AE" unicode="&#x2ae;" horiz-adv-x="664" 
d="M209 404q11 82 -55 82q-41 0 -80 -23l-23 38q49 33 106 33q58 0 88 -35.5t21 -100.5l-11 -69h-57zM651 -134l22 -39q-50 -32 -105 -32q-59 0 -89 35t-20 101l10 69l19 128q-79 -139 -194 -139q-69 0 -100.5 43t-20.5 120l25 177h57l-24 -173q-17 -118 73 -118
q102 0 195 172l44 313h57l-73 -523l-11 -76q-12 -81 55 -81q39 0 80 23z" />
    <glyph glyph-name="uni02AF" unicode="&#x2af;" horiz-adv-x="664" 
d="M157 534q58 0 88 -35.5t21 -100.5l-11 -69h-57l11 75q11 82 -55 82q-41 0 -80 -23l-23 38q49 33 106 33zM441 -207l47 335q-79 -139 -194 -139q-69 0 -100.5 43t-20.5 120l25 177h57l-24 -173q-17 -118 73 -118q102 0 195 172l44 313h57l-101 -723z" />
    <glyph glyph-name="uni02B0" unicode="&#x2b0;" horiz-adv-x="308" 
d="M240 670q39 0 58.5 -22t14.5 -60l-26 -188h-50l25 182q7 47 -35 47t-89 -45l-1 4l-26 -188h-50l51 370l52 6l-21 -150q42 44 97 44z" />
    <glyph glyph-name="uni02B1" unicode="&#x2b1;" horiz-adv-x="308" 
d="M240 670q39 0 58.5 -22t14.5 -60l-26 -188h-50l25 182q7 47 -35 47t-89 -45l-1 4l-26 -188h-50l36 263l7 38q4 34 30 54t68 20q36 0 73 -16l-17 -33q-24 9 -50 9q-51 0 -56 -42l-4 -24l1 1l-7 -44q44 44 98 44z" />
    <glyph glyph-name="uni02B2" unicode="&#x2b2;" horiz-adv-x="196" 
d="M193 788q15 0 23.5 -10t6.5 -24q-1 -12 -10 -20t-22 -8q-16 0 -25 10t-7 25q2 11 11.5 19t22.5 8zM203 663l-34 -248q-8 -54 -31.5 -78t-73.5 -42l-14 37q33 14 48.5 31.5t20.5 54.5l34 245h50z" />
    <glyph glyph-name="uni02B4" unicode="&#x2b4;" horiz-adv-x="240" 
d="M206 663h49l-37 -263h-39l2 56q-32 -62 -87 -62q-17 0 -33 4l13 45q10 -3 24 -3q52 0 88 82z" />
    <glyph glyph-name="uni02B7" unicode="&#x2b7;" horiz-adv-x="462" 
d="M476 663l-106 -263h-60l-27 216l-90 -216h-61l-34 263h50l22 -222l91 222h56l28 -222l84 222h47z" />
    <glyph glyph-name="uni02B8" unicode="&#x2b8;" horiz-adv-x="342" 
d="M356 663l-136 -265q-24 -48 -56 -71.5t-88 -32.5l-5 36q43 9 64 24t40 47l-17 -1l-60 263h53l43 -229l111 229h51z" />
    <glyph glyph-name="uni02B9" unicode="&#x2b9;" horiz-adv-x="288" 
d="M94 434l121 251h63l-139 -251h-45z" />
    <glyph glyph-name="uni02BA" unicode="&#x2ba;" horiz-adv-x="427" 
d="M94 434l121 251h63l-139 -251h-45zM233 434l121 251h63l-139 -251h-45z" />
    <glyph glyph-name="uni02BB" unicode="&#x2bb;" horiz-adv-x="169" 
d="M124 588q-20 0 -31 11t-11 28q0 21 19 52l74 123h40l-61 -136q18 -9 18 -34q0 -18 -13.5 -31t-34.5 -13z" />
    <glyph glyph-name="uni02BC" unicode="&#x2bc;" horiz-adv-x="216" 
d="M176 741q20 0 31 -11.5t11 -27.5q0 -21 -19 -52l-74 -123h-40l61 136q-18 9 -18 34q0 18 13.5 31t34.5 13z" />
    <glyph glyph-name="uni02BF" unicode="&#x2bf;" horiz-adv-x="159" 
d="M180 633l6 36q-49 0 -49 48q0 29 17.5 48.5t48.5 19.5l5 36q-49 0 -81.5 -30t-32.5 -75q0 -36 24 -59.5t62 -23.5z" />
    <glyph glyph-name="uni02C0" unicode="&#x2c0;" horiz-adv-x="234" 
d="M132 616l9 84q79 6 79 54q0 33 -40 33q-28 0 -61 -15l-13 37q39 21 82 21q40 0 62.5 -20t22.5 -53q0 -36 -22.5 -57.5t-62.5 -26.5l-9 -57h-47z" />
    <glyph glyph-name="circumflex" unicode="&#x2c6;" horiz-adv-x="353" 
d="M112 643l-25 31l144 105h35l114 -105l-28 -31l-109 85z" />
    <glyph glyph-name="caron" unicode="&#x2c7;" horiz-adv-x="353" 
d="M367 769l23 -30l-143 -106h-36l-114 106l27 30l110 -84z" />
    <glyph glyph-name="uni02C8" unicode="&#x2c8;" horiz-adv-x="117" 
d="M83 634l30 216h57l-31 -216h-56z" />
    <glyph glyph-name="uni02CA" unicode="&#x2ca;" horiz-adv-x="272" 
d="M289 782l19 -52l-206 -85l-14 34z" />
    <glyph glyph-name="uni02CB" unicode="&#x2cb;" horiz-adv-x="274" 
d="M128 782l172 -104l-22 -33l-183 85z" />
    <glyph glyph-name="uni02CC" unicode="&#x2cc;" horiz-adv-x="117" 
d="M-48 -291l30 216h57l-30 -216h-57z" />
    <glyph glyph-name="uni02CE" unicode="&#x2ce;" horiz-adv-x="274" 
d="M11 -56l174 -96l-20 -33l-187 77z" />
    <glyph glyph-name="uni02CF" unicode="&#x2cf;" horiz-adv-x="274" 
d="M172 -56l19 -52l-208 -77l-11 33z" />
    <glyph glyph-name="uni02D0" unicode="&#x2d0;" horiz-adv-x="220" 
d="M112 355l-27 116h107l-61 -116h-19zM78 116h20l28 -116h-107z" />
    <glyph glyph-name="uni02D1" unicode="&#x2d1;" horiz-adv-x="219" 
d="M112 355l-27 116h106l-60 -116h-19z" />
    <glyph glyph-name="uni02D4" unicode="&#x2d4;" horiz-adv-x="418" 
d="M347 237l-6 -42h-281l6 42h117l20 150h45l-20 -150h119z" />
    <glyph glyph-name="uni02D6" unicode="&#x2d6;" horiz-adv-x="455" 
d="M280 457l-19 -137h134l-6 -45h-134l-20 -137h-49l19 137h-134l6 45h135l19 137h49z" />
    <glyph glyph-name="uni02D7" unicode="&#x2d7;" horiz-adv-x="455" 
d="M71 275l6 46h318l-6 -46h-318z" />
    <glyph glyph-name="breve" unicode="&#x2d8;" horiz-adv-x="318" 
d="M216 653q-52 0 -84 31t-32 81l41 6q9 -71 76 -71q74 0 104 73l38 -12q-13 -49 -52.5 -78.5t-90.5 -29.5z" />
    <glyph glyph-name="dotaccent" unicode="&#x2d9;" horiz-adv-x="144" 
d="M138 753q21 0 31.5 -13t7.5 -32q-2 -17 -14.5 -28t-30.5 -11q-20 0 -31 13t-8 32q2 17 14.5 28t30.5 11z" />
    <glyph glyph-name="ring" unicode="&#x2da;" horiz-adv-x="252" 
d="M203 821q40 0 64 -23.5t24 -59.5q0 -45 -31.5 -75t-77.5 -30q-39 0 -63.5 23.5t-24.5 59.5q0 45 31.5 75t77.5 30zM201 785q-30 0 -47 -20t-17 -48q0 -48 47 -48q30 0 47 20.5t17 47.5q0 48 -47 48z" />
    <glyph glyph-name="ogonek" unicode="&#x2db;" horiz-adv-x="238" 
d="M159 26l11 -26q-76 -32 -108 -61t-32 -63q0 -45 55 -45q27 0 59 7l-10 -49q-30 -6 -57 -6q-49 0 -75 22.5t-26 58.5q0 52 42 91t141 71z" />
    </font>
</defs>
</svg>
